<!-- Generator: visioncortex VTracer 0.6.12 -->
<svg viewBox="0 0 373 372" role="img" aria-label="Global66 isotipo negativo" version="1.1" xmlns="http://www.w3.org/2000/svg" width="373" height="372">
<path d="M0 0 C0.73 0.12 1.47 0.25 2.23 0.37 C35.68 6.23 65.46 20.73 91 43 C91.6 43.52 92.19 44.03 92.81 44.57 C100.35 51.15 106.88 58.06 113 66 C113.78 66.94 114.55 67.87 115.35 68.84 C138.9 97.89 151.58 135.82 153 173 C153.04 174 153.08 174.99 153.12 176.02 C153.76 207.16 146.11 238.78 131 266 C130.34 267.22 129.69 268.44 129.04 269.66 C106.83 310.44 67.32 340.29 23.34 353.98 C-23.56 367.79 -74.14 362 -117.11 338.99 C-138.31 327.2 -157.07 311.07 -172 292 C-172.43 291.45 -172.87 290.9 -173.31 290.33 C-202.53 252.83 -215.04 204.83 -209.79 157.73 C-205.11 121.36 -190.33 87.54 -166 60 C-165.77 59.74 -165.77 59.74 -164.63 58.43 C-157.96 50.83 -151.03 44.19 -143 38 C-142.06 37.22 -141.13 36.45 -140.16 35.65 C-101.82 4.56 -48.48 -8.24 0 0 Z " fill="#FFFFFF" transform="translate(216,6)"/>
</svg>
