<!-- Generator: visioncortex VTracer 0.6.12 -->
<svg viewBox="0 0 1728 375" role="img" aria-label="Global66 negativo" version="1.1" xmlns="http://www.w3.org/2000/svg" width="1728" height="375">
<path d="M0 0 C0.73 0.12 1.47 0.25 2.23 0.37 C35.68 6.23 65.46 20.73 91 43 C91.6 43.52 92.19 44.03 92.81 44.57 C100.35 51.15 106.88 58.06 113 66 C113.78 66.94 114.55 67.87 115.35 68.84 C138.9 97.89 151.58 135.82 153 173 C153.04 174 153.08 174.99 153.12 176.02 C153.76 207.16 146.11 238.78 131 266 C130.34 267.22 129.69 268.44 129.04 269.66 C106.83 310.44 67.32 340.29 23.34 353.98 C-23.56 367.79 -74.14 362 -117.11 338.99 C-138.31 327.2 -157.07 311.07 -172 292 C-172.43 291.45 -172.87 290.9 -173.31 290.33 C-202.53 252.83 -215.04 204.83 -209.79 157.73 C-205.11 121.36 -190.33 87.54 -166 60 C-165.77 59.74 -165.77 59.74 -164.63 58.43 C-157.96 50.83 -151.03 44.19 -143 38 C-142.06 37.22 -141.13 36.45 -140.16 35.65 C-101.82 4.56 -48.48 -8.24 0 0 Z " fill="#FFFFFF" transform="translate(217,8)"/>
<path d="M0 0 C-1.53 5.1 -3.71 9.66 -6.12 14.38 C-6.5 15.11 -6.87 15.85 -7.25 16.61 C-8.17 18.41 -9.08 20.2 -10 22 C-13.74 20.78 -17.4 19.45 -21.06 18 C-38.88 11.56 -60.91 11.72 -78.31 19.61 C-93.66 27.12 -103.17 38.33 -108.93 54.43 C-112.65 66.89 -113.44 79.06 -113 92 C-112.29 91.1 -111.57 90.21 -110.84 89.28 C-101.08 77.61 -85.95 70.76 -71 69 C-69.91 68.87 -68.81 68.73 -67.69 68.6 C-46.53 66.6 -24.71 70.59 -7.75 84.12 C3.54 94.77 10.23 109.06 11.22 124.47 C11.63 141.55 7.45 156.46 -3.68 169.62 C-14.15 180.37 -27.43 186.88 -42 190 C-42.86 190.18 -43.72 190.37 -44.6 190.56 C-66.13 193.35 -89.64 190.9 -107.81 178.25 C-128.44 162.1 -138.74 139.65 -141.98 114.08 C-145.57 82 -142.46 47.31 -122 21 C-106.43 1.88 -85.92 -8.58 -61.62 -11.38 C-42.8 -13.18 -15.24 -12.75 0 0 Z M-96.69 104.31 C-104.72 113.64 -107.64 121.78 -107.3 134.02 C-106.52 144.34 -101.55 151.14 -94 158 C-81.74 167.13 -67.97 169.02 -53 168 C-41.11 166.24 -30.51 161.61 -23 152 C-16.77 141.83 -15.14 130.56 -17.68 118.86 C-21.09 108.76 -26.64 102.06 -36 97 C-56.16 87.61 -79.73 89.72 -96.69 104.31 Z " fill="#FFFFFF" transform="translate(1536,102)"/>
<path d="M0 0 C0.99 0.99 1.98 1.98 3 3 C-0.3 9.93 -3.6 16.86 -7 24 C-10.09 23.23 -12.4 22.41 -15.25 21.12 C-34.31 13.48 -56.32 13.95 -75.38 21.25 C-80.95 23.75 -85.46 26.95 -90 31 C-90.31 31.26 -90.31 31.26 -91.86 32.58 C-105.43 44.95 -109.58 63.68 -110.49 81.26 C-110.69 85.5 -110.85 89.75 -111 94 C-110.25 93.24 -109.49 92.49 -108.71 91.71 C-107.82 90.82 -106.92 89.92 -106 89 C-105.71 88.71 -105.71 88.71 -104.25 87.23 C-90.75 74.44 -71.17 69.66 -53 70 C-32.42 70.8 -14.56 76.9 0 92 C12.55 106.65 14.23 123.51 13 142 C12.34 146.59 10.85 150.75 9 155 C8.67 155.85 8.35 156.7 8.01 157.58 C1.94 171.66 -10.92 181.6 -24.65 187.59 C-45.92 195.54 -71.2 196.24 -92.31 187.23 C-112.47 178 -125.45 162.53 -133.31 142.06 C-136.08 134.53 -137.77 126.93 -139 119 C-139.18 117.86 -139.37 116.73 -139.56 115.55 C-143.26 84.55 -139.87 49.53 -120.38 24.06 C-119.26 22.7 -118.13 21.35 -117 20 C-116.24 18.99 -115.47 17.98 -114.69 16.94 C-101.07 2.05 -81.79 -6.45 -62 -9 C-61.56 -9.06 -61.56 -9.06 -59.36 -9.37 C-39.96 -11.57 -17.38 -9.48 0 0 Z M-96.38 108.31 C-103.49 116.84 -105.86 126.05 -105 137 C-103.29 146.48 -98.56 154.67 -90.96 160.66 C-77.83 169.63 -62.16 171.82 -46.63 169.5 C-35.64 167.05 -25.45 161.59 -19.19 152 C-13.71 143.02 -12.86 131.82 -15.06 121.69 C-17.92 111.97 -23.7 104.76 -32.35 99.59 C-52.4 88.92 -80.47 91.5 -96.38 108.31 Z " fill="#FFFFFF" transform="translate(1708,100)"/>
<path d="M0 0 C8.91 0 17.82 0 27 0 C27.33 26.4 27.66 52.8 28 80 C30.64 77.36 33.28 74.72 36 72 C53.49 58.94 73.89 56.19 95.03 59.25 C112.69 62.35 129.84 71.64 140.51 86.33 C145.37 93.42 149.24 100.84 152 109 C152.32 109.91 152.64 110.82 152.96 111.76 C158.99 132.59 155.79 157.03 145.44 175.84 C135.2 192.73 120.46 204.17 101.31 209.31 C95.87 210.65 90.6 211.75 85 212 C84.21 212.05 83.42 212.1 82.61 212.16 C64.92 212.79 47.39 207.82 34 196 C31.69 193.36 29.38 190.72 27 188 C26.67 195.26 26.34 202.52 26 210 C17.42 210 8.84 210 0 210 C0 140.7 0 71.4 0 0 Z M40 97 C28.19 110.47 25.93 126.78 27 144 C29.14 159.03 36.74 170.77 48.81 179.88 C61.73 188.19 76.87 189.05 91.77 186.3 C103.34 182.77 113.8 174.99 120.05 164.59 C127.61 150.33 129.17 135.07 126.31 119.18 C124.25 112.59 120.92 106.67 117 101 C116.56 100.36 116.12 99.73 115.67 99.07 C108.31 89.53 96.64 84.56 85.07 82.47 C68.3 80.51 52.1 85.07 40 97 Z " fill="#FFFFFF" transform="translate(966,81)"/>
<path d="M0 0 C0.4 0.41 0.79 0.82 1.2 1.24 C-0.19 4.39 -1.83 6.5 -4.28 8.91 C-4.95 9.57 -5.62 10.24 -6.31 10.92 C-6.66 11.26 -6.66 11.26 -8.43 12.99 C-9.13 13.69 -9.84 14.38 -10.57 15.1 C-12.31 16.82 -14.05 18.53 -15.8 20.24 C-16.32 19.85 -16.83 19.45 -17.36 19.05 C-38.66 2.96 -61.11 -4.99 -87.98 -1.27 C-108.73 2.56 -126.29 11.88 -138.7 29.07 C-146.24 40.42 -151.23 53.53 -151.8 67.24 C-151.83 67.67 -151.83 67.67 -151.96 69.86 C-152.62 90.14 -146.29 108.99 -132.8 124.24 C-117.45 140.61 -96.21 147.81 -74.11 148.55 C-59.92 148.23 -46.59 145.42 -33.8 139.24 C-32.93 138.84 -32.05 138.44 -31.15 138.03 C-28.8 136.24 -28.8 136.24 -28.16 133.45 C-28.15 132.32 -28.15 131.19 -28.14 130.02 C-28.13 129.38 -28.13 129.38 -28.08 126.14 C-28.09 124.74 -28.09 123.34 -28.09 121.95 C-28.08 120.51 -28.07 119.08 -28.05 117.65 C-28.01 113.89 -28 110.13 -27.99 106.36 C-27.98 102.52 -27.95 98.68 -27.91 94.84 C-27.85 87.31 -27.82 79.77 -27.8 72.24 C-18.89 72.24 -9.98 72.24 -0.8 72.24 C-0.57 82.29 -0.39 92.33 -0.28 102.39 C-0.23 107.05 -0.16 111.72 -0.05 116.39 C0.06 120.89 0.12 125.4 0.15 129.9 C0.17 131.62 0.2 133.34 0.26 135.05 C0.66 148.5 0.66 148.5 -2.96 152.81 C-5.51 154.62 -7.95 155.96 -10.8 157.24 C-12.05 157.98 -13.3 158.73 -14.53 159.5 C-43.61 175.2 -77.74 178.78 -109.64 170.21 C-135.34 162.36 -156.68 145.3 -169.77 121.76 C-177.86 106.28 -181.2 90.86 -181.11 73.49 C-181.11 72.25 -181.1 71.01 -181.1 69.74 C-180.74 43.03 -170.47 19.3 -151.8 0.24 C-111.47 -38.22 -40.06 -39.19 0 0 Z " fill="#FFFFFF" transform="translate(657.80078125,118.76171875)"/>
<path d="M0 0 C19.14 -0.54 38.37 3.86 52.73 17.09 C68.67 34.33 67.92 58.03 67.84 79.99 C67.84 82.05 67.84 84.11 67.84 86.17 C67.84 90.45 67.83 94.73 67.82 99.01 C67.8 104.5 67.79 110 67.8 115.49 C67.79 119.73 67.79 123.96 67.78 128.2 C67.78 130.22 67.78 132.25 67.78 134.28 C67.77 137.1 67.77 139.91 67.75 142.72 C67.76 143.57 67.76 144.41 67.76 145.27 C67.72 151.01 67.72 151.01 66.61 152.12 C64.77 152.22 62.92 152.25 61.08 152.25 C59.96 152.26 58.84 152.26 57.68 152.26 C56.5 152.25 55.32 152.25 54.11 152.25 C53.52 152.25 53.52 152.25 50.54 152.26 C49.98 152.26 49.98 152.26 47.14 152.25 C46.1 152.25 45.07 152.25 44 152.25 C41.61 152.12 41.61 152.12 40.61 151.12 C40.54 148.26 40.52 145.42 40.55 142.56 C40.55 141.75 40.56 140.95 40.56 140.12 C40.57 138.12 40.59 136.12 40.61 134.12 C39.88 135.04 39.14 135.95 38.39 136.9 C29.07 148.04 14.89 152.21 0.91 153.84 C-17.67 155.41 -35.73 152.19 -50.58 140.38 C-57.93 133.66 -62.98 124.41 -63.63 114.43 C-64.01 99.68 -61.1 89.32 -50.77 78.41 C-36.99 65.39 -15.45 64.93 2.4 65.02 C3.47 65.02 4.55 65.03 5.65 65.03 C9.03 65.03 12.41 65.05 15.8 65.06 C18.11 65.06 20.42 65.07 22.73 65.07 C28.36 65.08 33.98 65.1 39.61 65.12 C39.32 62.39 39.02 59.67 38.72 56.95 C38.64 56.18 38.56 55.41 38.48 54.62 C37.57 46.54 35.18 38.47 28.61 33.12 C13.68 23.9 -2.39 23.31 -19.29 27.01 C-27.74 29.12 -36.21 32.64 -43.17 37.91 C-44.23 38.64 -45.29 39.37 -46.39 40.12 C-49.93 38.94 -50.14 38.31 -51.87 35.16 C-52.31 34.36 -52.75 33.56 -53.21 32.73 C-53.66 31.89 -54.11 31.05 -54.58 30.18 C-55.04 29.35 -55.5 28.51 -55.98 27.65 C-59.39 21.41 -59.39 21.41 -59.39 19.12 C-42.62 5.65 -20.93 1.06 0 0 Z M-31.77 94.56 C-36.37 100.49 -37.13 105.7 -36.39 113.12 C-34.44 119.27 -31.55 124.19 -26.02 127.57 C-14.14 133.73 0.95 134.16 13.8 130.5 C24.36 126.62 32.05 120.08 38.21 110.69 C40.18 105.66 39.93 101.09 39.8 95.75 C39.78 94.72 39.77 93.7 39.76 92.65 C39.72 90.14 39.67 87.63 39.61 85.12 C32.99 85.07 26.38 85.04 19.76 85.01 C17.51 85 15.27 84.99 13.02 84.97 C9.78 84.95 6.53 84.93 3.28 84.93 C2.29 84.92 1.31 84.91 0.29 84.89 C-11.26 84.89 -23.59 85.52 -31.77 94.56 Z " fill="#FFFFFF" transform="translate(1209.390625,138.87890625)"/>
<path d="M0 0 C6.49 5.64 12.04 11.7 16.41 19.16 C16.67 19.61 16.67 19.61 18.02 21.89 C27.68 39.64 29.56 61.68 24.91 81.29 C18.25 101.81 6.13 118.48 -13.34 128.48 C-23.41 133.41 -34.34 136.69 -45.59 137.16 C-46.42 137.2 -47.24 137.24 -48.09 137.29 C-68.66 137.79 -89.74 131.8 -105.09 117.73 C-117.21 106.1 -125.67 91.83 -128.59 75.16 C-128.82 73.91 -129.05 72.65 -129.28 71.35 C-130.88 54.87 -129.02 39.09 -121.59 24.16 C-121.12 23.19 -120.66 22.22 -120.17 21.21 C-111.46 4.72 -96.23 -7.11 -78.59 -12.77 C-52.41 -20.52 -21.66 -17.77 0 0 Z M-84.59 19.16 C-85.2 19.62 -85.81 20.07 -86.43 20.54 C-94.1 27.2 -100.02 39.48 -101.42 49.49 C-102.61 67.67 -100.52 83.07 -88.34 97.48 C-80.08 106.24 -69.01 111.94 -56.93 112.4 C-46.87 112.61 -37.83 112.67 -28.59 108.16 C-27.73 107.75 -26.86 107.34 -25.97 106.91 C-15.17 101.12 -7.79 91.57 -3.59 80.16 C0.96 64.13 0.71 47.19 -7.17 32.16 C-14.13 20.65 -23.46 12.48 -36.72 8.79 C-38 8.58 -39.28 8.38 -40.59 8.16 C-41.39 8.03 -42.18 7.9 -43 7.77 C-58.72 5.69 -72.14 9.78 -84.59 19.16 Z " fill="#FFFFFF" transform="translate(901.59375,155.8359375)"/>
<path d="M0 0 C9.24 0 18.48 0 28 0 C28 69.3 28 138.6 28 210 C18.76 210 9.52 210 0 210 C0 140.7 0 71.4 0 0 Z " fill="#FFFFFF" transform="translate(707,81)"/>
<path d="M0 0 C8.91 0 17.82 0 27 0 C27 69.3 27 138.6 27 210 C18.09 210 9.18 210 0 210 C0 140.7 0 71.4 0 0 Z " fill="#FFFFFF" transform="translate(1327,81)"/>
</svg>
