<!-- Generator: visioncortex VTracer 0.6.12 -->
<svg viewBox="0 0 373 372" role="img" aria-label="Global66 isotipo" version="1.1" xmlns="http://www.w3.org/2000/svg" width="373" height="372">
<path d="M0 0 C0.73 0.12 1.47 0.25 2.23 0.37 C35.68 6.23 65.46 20.73 91 43 C91.6 43.52 92.19 44.03 92.81 44.57 C100.35 51.15 106.88 58.06 113 66 C113.78 66.94 114.55 67.87 115.35 68.84 C138.9 97.89 151.58 135.82 153 173 C153.04 174 153.08 174.99 153.12 176.02 C153.76 207.16 146.11 238.78 131 266 C130.34 267.22 129.69 268.44 129.04 269.66 C106.83 310.44 67.32 340.29 23.34 353.98 C-23.56 367.79 -74.14 362 -117.11 338.99 C-138.31 327.2 -157.07 311.07 -172 292 C-172.43 291.45 -172.87 290.9 -173.31 290.33 C-202.53 252.83 -215.04 204.83 -209.79 157.73 C-205.11 121.36 -190.33 87.54 -166 60 C-165.77 59.74 -165.77 59.74 -164.63 58.43 C-157.96 50.83 -151.03 44.19 -143 38 C-142.06 37.22 -141.13 36.45 -140.16 35.65 C-101.82 4.56 -48.48 -8.24 0 0 Z " fill="#2544C7" transform="translate(216,6)"/>
<path d="M0 0 C10.78 8.6 17.42 20.24 19 34 C19.06 34.59 19.06 34.59 19.34 37.6 C20.43 47.94 22.54 55.67 30.81 62.44 C37.93 67.2 45.48 69.13 54 68 C62.42 65.94 68.7 62.73 73.69 55.58 C77.65 48.68 78.62 42.47 79.25 34.73 C80.57 20.06 87.5 9.21 98.55 -0.21 C108.19 -7.26 120.18 -10.12 132 -9 C145.37 -6.73 156.48 -1.26 164.98 9.5 C170.76 17.95 175.49 28.58 174 39 C171.96 42.84 170.73 43.77 166.56 45.06 C162.13 44.98 161.07 44.13 158 41 C156.85 37.61 156.85 37.61 156.06 33.75 C154.59 27.35 152.67 22.69 148 18 C147.51 17.51 147.03 17.02 146.53 16.52 C140.85 11.36 134.28 9.34 126.81 8.75 C117.29 9.37 110.17 12.75 103.5 19.52 C97.77 26.52 97.08 35.96 96.06 44.62 C94.3 58.57 88.09 68.13 77.45 77.21 C66.43 85.25 53.3 87.47 39.99 85.57 C27.02 82.82 16.1 75.77 8.84 64.71 C3.74 55.97 2.09 47.74 1 37.75 C-0.14 27.65 -2.87 20.87 -10.95 14.4 C-17.41 9.98 -24.23 8.49 -32 9 C-41.38 11.03 -48.56 14.94 -54 23 C-56.31 27.64 -57.91 32.3 -58.94 37.38 C-60 41 -60 41 -62.19 43.56 C-66 45.51 -67.94 45.25 -72 44 C-75 41.38 -75.89 39.82 -76.44 35.88 C-74.97 22.9 -70.01 10.64 -59.82 2.19 C-41.7 -11.29 -18.96 -13.27 0 0 Z " fill="#FFFFFF" transform="translate(138,147)"/>
</svg>
