<?xml version="1.0" encoding="UTF-8"?>
<svg id="Capa_1" data-name="Capa 1" xmlns="http://www.w3.org/2000/svg" viewBox="0 0 306 42">
  <defs>
    <style>
      .cls-1 {
        fill: #fff;
      }

      .cls-2 {
        fill: #522d7e;
      }

      .cls-3 {
        fill: #f8bb0c;
      }
    </style>
  </defs>
  <g>
    <g>
      <path class="cls-2" d="M12.3,26.22c3.07-3.83,6.93-6.41,6.93-6.41,0,0,4.3-2.78,4.04-5.56-.37-4.03-4.55-4.04-4.55-4.04-5.31,0-5.05,5.06-5.05,5.06l-1.37-.03v10.99Z"/>
      <g>
        <path class="cls-2" d="M41.13,34.98c-9.92,0-10.73-8.05-10.73-8.05h5.1s.54,2.95,4.83,2.95,4.83-4.29,4.83-5.1,0-5.36-4.29-5.36-4.83,2.15-4.83,2.15h-5.63l2.05-16.63h15.51c-.2-.41-.47-.85-.92-1.25-1.48-1.34-3.3-1.07-3.3-1.07h-27.31s-1.8-.18-3.25,1.58c0,0-.88,1-.88,2.55v.27c3.67-2.71,9.25-2.53,12.75-.63,5.56,3.03,4.04,11.63,1.01,14.66-2.79,2.79-10.11,8.83-10.11,8.83h13.27v5.08H12.64c.46,1.13,1.54,2.49,4.1,2.49h27.53s1.63.03,3.08-1.37c0,0,1.06-.94,1.06-2.76v-1.58c-1.37,1.8-3.6,3.23-7.27,3.23Z"/>
        <path class="cls-2" d="M48.4,10.57h-11.02l-.27,3.75c6.17-1.21,9.49.75,11.29,3.27v-7.02Z"/>
      </g>
    </g>
    <g>
      <g>
        <path class="cls-3" d="M37.07,26.94h-1.57s.54,2.95,4.83,2.95c.25,0,.49-.02.71-.04-3.51-.36-3.97-2.91-3.97-2.91Z"/>
        <path class="cls-3" d="M48.4,15.92c-1.57-1.26-3.81-2.1-7.01-1.94,3.5.2,5.68,1.76,7.01,3.59v-1.66Z"/>
        <path class="cls-1" d="M48.4,33.32c-1.35,1-3.19,1.67-5.7,1.67-.29,0-.71-.01-.99-.02,3.24-.18,5.41-1.53,6.68-3.2v1.56Z"/>
        <path class="cls-3" d="M36.03,21.58h1.57s.46-1.82,3.89-2.11c-.2-.02-.41-.04-.63-.04-4.29,0-4.83,2.15-4.83,2.15Z"/>
        <path class="cls-3" d="M37.11,14.34c.55-.11,1.08-.19,1.59-.25l.25-3.51h-1.57s-.27,3.76-.27,3.76Z"/>
      </g>
      <g>
        <path class="cls-3" d="M13.65,15.22l1.71.03s-.22-4.38,4.04-4.98c-.41-.07-.69-.07-.69-.07-5.07,0-5.07,4.61-5.06,5.02Z"/>
        <path class="cls-3" d="M25.02,6.4c5.56,3.03,4.04,11.63,1.01,14.66-2.79,2.79-10.11,8.83-10.11,8.83h1.71s7.32-6.03,10.11-8.83c3.03-3.03,4.55-11.63-1.01-14.66-1.88-1.02-4.36-1.55-6.83-1.4,1.88.12,3.68.61,5.13,1.4Z"/>
        <rect class="cls-3" x="29.19" y="29.89" width="1.57" height="5.08"/>
      </g>
    </g>
  </g>
  <g>
    <path class="cls-3" d="M79.06,11.87c-.3-.27-.78-.44-1.46-.53l-2.57-.18h-6.88v5.41h6.88c2.1,0,3.45-.25,4.04-.75.41-.41.62-1.08.62-2,0-.89-.21-1.54-.62-1.95M88,21.14c-1.21,2.13-3.05,3.53-5.5,4.21l-.8.18-1.69.49-2.35.18-9.49-.04v11.18s-9.36,0-9.36,0V2.77s15.88,0,15.88,0c1.24,0,2.13.01,2.66.04.98.06,1.69.12,2.13.18.56,0,1.08.04,1.55.13.65.18,1.14.32,1.46.44.98.33,1.75.67,2.31,1.02,1.69.98,2.94,2.37,3.77,4.17.83,1.77,1.24,3.79,1.24,6.03,0,2.07-.61,4.19-1.82,6.35"/>
    <path class="cls-3" d="M111.12,11.75c-.3-.27-.78-.44-1.46-.53l-2.57-.18h-6.88v5.41h6.88c2.1,0,3.45-.25,4.04-.76.41-.41.62-1.08.62-2,0-.89-.21-1.54-.62-1.95M113.07,37.21l-7.06-12.47h-5.81v12.47s-9.36,0-9.36,0V2.65s17.79,0,17.79,0l2.53.13,1.55.22c.29,0,.49.01.58.04.15.03.5.12,1.06.27,2.22.53,3.96,1.91,5.24,4.13,1.04,1.83,1.55,3.95,1.55,6.35,0,2.43-.59,4.5-1.77,6.21-.59.83-1.15,1.46-1.69,1.91-.71.62-1.46,1.08-2.26,1.38l8.25,13.93h-10.6Z"/>
    <path class="cls-3" d="M138.27,37.21l-2.97-.13h-.58c-.12,0-.3-.02-.53-.04l-.22-.04c-.36,0-.86-.1-1.51-.31-3.52-.89-6.21-3-8.08-6.34-1.57-2.81-2.35-5.75-2.35-8.83,0-2.93.22-5.41.66-7.45.56-2.34,1.46-4.38,2.71-6.12,1.39-1.92,3.22-3.28,5.5-4.08l1.91-.58,1.69-.36c1.3-.18,6.76-.27,16.37-.27v8.21s-12.33,0-12.33,0c-3.55,0-5.58,1.6-6.08,4.79h18.41s0,8.21,0,8.21h-18.5s.22,1.38.22,1.38c.09.86.37,1.52.84,2l.4.53.62.53.49.27.53.22,1.33.22h14.06s0,8.21,0,8.21h-12.6Z"/>
    <polygon class="cls-3" points="176.02 37.21 167.28 37.21 152.29 2.65 162.76 2.65 171.45 24.17 180.37 2.65 190.4 2.65 176.02 37.21"/>
    <rect class="cls-3" x="193.19" y="2.65" width="9.67" height="34.56"/>
    <g>
      <path class="cls-2" d="M225.4,11.75c-.3-.27-.78-.44-1.46-.53l-2.57-.18h-6.88v5.41h6.88c2.1,0,3.45-.25,4.04-.76.41-.41.62-1.08.62-2,0-.89-.21-1.54-.62-1.95M227.35,37.21l-7.05-12.47h-5.81v12.47s-9.36,0-9.36,0V2.65s17.79,0,17.79,0l2.53.13,1.55.22c.3,0,.49.01.58.04.15.03.5.12,1.06.27,2.22.53,3.96,1.91,5.24,4.13,1.03,1.83,1.55,3.95,1.55,6.35,0,2.43-.59,4.5-1.78,6.21-.59.83-1.15,1.46-1.69,1.91-.71.62-1.46,1.08-2.26,1.38l8.25,13.93h-10.6Z"/>
      <path class="cls-2" d="M252.55,37.21l-2.97-.13h-.58c-.12,0-.3-.02-.53-.04l-.22-.04c-.36,0-.86-.1-1.51-.31-3.52-.89-6.21-3-8.07-6.34-1.57-2.81-2.35-5.75-2.35-8.83,0-2.93.22-5.41.67-7.45.56-2.34,1.46-4.38,2.71-6.12,1.39-1.92,3.22-3.28,5.5-4.08l1.91-.58,1.69-.36c1.3-.18,6.76-.27,16.37-.27v8.21s-12.33,0-12.33,0c-3.55,0-5.58,1.6-6.08,4.79h18.41s0,8.21,0,8.21h-18.5s.22,1.38.22,1.38c.09.86.37,1.52.84,2l.4.53.62.53.49.27.53.22,1.33.22h14.06s0,8.21,0,8.21h-12.6Z"/>
      <path class="cls-2" d="M290.62,18.49v-1.02c-.03-.21-.06-.37-.09-.49-.03-.18-.06-.29-.09-.35l-.27-1.73c-.12-.62-.34-1.27-.67-1.95-.47-.92-1.12-1.49-1.95-1.73l-1.6-.27-1.77-.09h-6.43s0,18.14,0,18.14h6.43s1.69-.04,1.69-.04l1.29-.22c.89-.18,1.63-.72,2.22-1.64.47-.92.81-2.01,1.02-3.28.18-1.21.27-2.48.27-3.82l-.04-1.51ZM300.42,24.88c-.18,1.54-.53,2.97-1.07,4.3-.62,1.51-1.49,2.74-2.62,3.68-2.19,1.84-4.08,2.99-5.68,3.46-1.6.59-3.8.88-6.61.88h-16.06s0-34.56,0-34.56h15.88c5.74,0,9.95,1.59,12.64,4.79,1.21,1.45,2.14,3.05,2.8,4.79.65,1.74.98,3.52.98,5.32,0,3.31-.09,5.75-.27,7.32"/>
    </g>
  </g>
</svg>
