<svg width="240" height="52" viewBox="0 0 240 52" fill="none" xmlns="http://www.w3.org/2000/svg">
<g clip-path="url(#clip0_11486_8244)">
<path d="M5.48662 9.59253C5.91131 9.47176 6.34747 9.35099 6.80086 9.23022C7.19111 9.13821 7.62728 9.06344 8.0864 9.00593C8.55126 8.94843 9.0276 8.91392 9.50393 8.91392C11.3634 8.91392 13.0506 9.23022 14.5715 9.86282C16.0923 10.4954 17.4008 11.3581 18.497 12.4565C19.5931 13.5549 20.4482 14.8489 21.0508 16.3384C21.6592 17.8279 21.9633 19.4151 21.9633 21.1002C21.9633 22.7852 21.6592 24.3724 21.0508 25.8677C20.4482 27.3572 19.5931 28.6511 18.497 29.7496C17.4008 30.848 16.0923 31.7164 14.5715 32.3433C13.0506 32.9759 11.3576 33.2922 9.50393 33.2922C8.293 33.2922 7.12224 33.1886 5.98018 32.9759C4.83811 32.7631 3.81657 32.5273 2.91554 32.2512C1.89974 31.9809 0.929841 31.6531 0.00585938 31.2563V0.983374C0.00585938 0.874106 0.0862056 0.787842 0.189508 0.787842H5.30871C5.41201 0.787842 5.49236 0.874106 5.49236 0.983374V9.59253H5.48662ZM9.49819 28.3291C10.514 28.3291 11.4322 28.1566 12.2644 27.8115C13.0966 27.4665 13.8082 26.9719 14.3993 26.345C14.9904 25.7124 15.4438 24.9533 15.7709 24.0619C16.0981 23.1763 16.2588 22.1871 16.2588 21.1059C16.2588 20.0247 16.0981 19.0356 15.7709 18.1442C15.4438 17.2585 14.9904 16.4994 14.3993 15.8668C13.8082 15.2342 13.0966 14.7454 12.2644 14.4003C11.4322 14.0553 10.514 13.8827 9.49819 13.8827C9.02186 13.8827 8.53978 13.9172 8.06344 13.9978C7.58136 14.0725 7.16242 14.1415 6.80086 14.199C6.34747 14.3198 5.91131 14.4406 5.48662 14.5613V27.6562C5.91131 27.777 6.34747 27.8805 6.80086 27.9725C7.19111 28.0933 7.62728 28.1853 8.0864 28.2428C8.55126 28.3061 9.0276 28.3348 9.50393 28.3348" fill="#622EA1"/>
<path d="M92.2319 30.5548C92.2778 30.6411 92.2548 30.7503 92.1802 30.8136C91.5891 31.2794 90.9291 31.6992 90.2002 32.0615C89.4657 32.4238 88.6392 32.7402 87.7095 33.0104C86.7798 33.2807 85.7066 33.4188 84.4957 33.4188C82.6362 33.4188 80.9489 33.1025 79.4281 32.4699C77.913 31.8373 76.6045 30.9746 75.5026 29.8762C74.4065 28.7778 73.5571 27.4838 72.9488 25.9943C72.3404 24.4991 72.042 22.9175 72.042 21.2268C72.042 19.536 72.3462 17.9545 72.9488 16.465C73.5514 14.9755 74.4065 13.6815 75.5026 12.5831C76.6045 11.4847 77.913 10.622 79.4281 9.98943C80.9489 9.35683 82.6362 9.04053 84.4957 9.04053C85.6492 9.04053 86.688 9.16705 87.6234 9.42584C88.5531 9.67888 89.3566 9.96068 90.0281 10.2597C90.734 10.622 91.371 11.0073 91.9564 11.4214C92.0367 11.4789 92.0597 11.5939 92.0138 11.686L90.0797 15.4011C90.0281 15.5046 89.9076 15.5333 89.8215 15.4701C89.4427 15.217 89.0352 14.9812 88.5933 14.7742C88.1112 14.5614 87.5718 14.3832 86.9634 14.2336C86.3608 14.0841 85.6779 14.0093 84.9203 14.0093C83.9045 14.0093 82.9633 14.2049 82.091 14.5959C81.2187 14.987 80.4554 15.5161 79.8069 16.1717C79.1584 16.8331 78.6533 17.6037 78.286 18.4778C77.9187 19.352 77.7351 20.2664 77.7351 21.2325C77.7351 22.1987 77.9187 23.1131 78.286 23.9872C78.6533 24.8614 79.1584 25.6262 79.8069 26.2876C80.4554 26.949 81.2129 27.478 82.091 27.8691C82.9633 28.2602 83.9045 28.4557 84.9203 28.4557C85.7353 28.4557 86.4641 28.3637 87.1126 28.1854C87.7612 28.0071 88.3121 27.7943 88.7598 27.5528C89.2246 27.317 89.6436 27.0582 90.0223 26.7764C90.1142 26.7074 90.2347 26.7362 90.2921 26.8397L92.2261 30.5548H92.2319Z" fill="#622EA1"/>
<path d="M92.5073 21.221C92.5073 19.536 92.8058 17.9487 93.4141 16.4593C94.0224 14.9698 94.8546 13.6758 95.9106 12.5774C96.9665 11.4789 98.2119 10.6163 99.6467 9.9837C101.081 9.35109 102.642 9.03479 104.335 9.03479C106.028 9.03479 107.595 9.35109 109.041 9.9837C110.493 10.6163 111.745 11.4789 112.8 12.5774C113.856 13.6758 114.677 14.9698 115.268 16.4593C115.859 17.9545 116.152 19.536 116.152 21.221C116.152 22.9061 115.859 24.4933 115.268 25.9886C114.677 27.4723 113.851 28.772 112.8 29.8704C111.745 30.9689 110.493 31.8373 109.041 32.4641C107.595 33.0967 106.023 33.413 104.335 33.413C102.648 33.413 101.087 33.0967 99.6467 32.4641C98.2119 31.8315 96.9665 30.9689 95.9106 29.8704C94.8546 28.772 94.0224 27.4781 93.4141 25.9886C92.8115 24.4933 92.5073 22.9118 92.5073 21.221ZM110.453 21.221C110.453 20.1399 110.293 19.1564 109.965 18.265C109.644 17.3794 109.208 16.6203 108.657 15.9819C108.112 15.3493 107.463 14.8605 106.717 14.5212C105.971 14.1761 105.173 13.9979 104.335 13.9979C103.498 13.9979 102.694 14.1704 101.948 14.5212C101.202 14.8662 100.553 15.3493 100.008 15.9819C99.4573 16.6145 99.0211 17.3737 98.6997 18.265C98.3726 19.1564 98.2119 20.1399 98.2119 21.221C98.2119 22.3022 98.3726 23.2914 98.6997 24.177C99.0211 25.0684 99.4573 25.8275 100.008 26.4601C100.559 27.0927 101.202 27.5816 101.948 27.9209C102.694 28.2659 103.492 28.4385 104.335 28.4385C105.179 28.4385 105.977 28.2659 106.717 27.9209C107.463 27.5758 108.112 27.0927 108.657 26.4601C109.202 25.8275 109.644 25.0684 109.965 24.177C110.293 23.2914 110.453 22.308 110.453 21.221Z" fill="#622EA1"/>
<path d="M138.465 13.9978C137.983 13.9978 137.524 14.0495 137.094 14.153C136.658 14.2623 136.285 14.3601 135.975 14.4406C135.584 14.6074 135.217 14.7799 134.878 14.9524V32.3088C134.878 32.418 134.792 32.5043 134.695 32.5043H129.576C129.472 32.5043 129.386 32.418 129.386 32.3088V11.059C130.172 10.668 131.033 10.3229 131.963 10.0181C132.807 9.74781 133.736 9.51202 134.746 9.31649C135.762 9.12096 136.858 9.02319 138.041 9.02319C139.079 9.02319 140.032 9.11521 140.893 9.29349C141.754 9.47177 142.5 9.68455 143.154 9.92609C143.854 10.1791 144.497 10.4494 145.077 10.7542C145.163 10.8002 145.203 10.9038 145.174 10.9958L143.82 15.3722C143.785 15.493 143.648 15.5448 143.55 15.4815C143.177 15.24 142.764 15.0157 142.311 14.8029C141.805 14.5844 141.232 14.4003 140.6 14.2335C139.969 14.0725 139.257 13.992 138.471 13.992" fill="#622EA1"/>
<path d="M147.298 3.3873C147.298 2.48441 147.619 1.69078 148.268 1.01217C148.916 0.333555 149.72 0 150.678 0C151.637 0 152.434 0.339305 153.083 1.01217C153.731 1.69078 154.058 2.48441 154.058 3.3873C154.058 4.2902 153.731 5.07808 153.083 5.75669C152.434 6.4353 151.631 6.77461 150.678 6.77461C149.725 6.77461 148.916 6.4353 148.268 5.75669C147.619 5.07808 147.298 4.2902 147.298 3.3873ZM148.113 9.93187H153.232C153.335 9.93187 153.416 10.0239 153.416 10.1332V32.3088C153.416 32.418 153.335 32.5043 153.232 32.5043H148.199C148.05 32.5043 147.929 32.3778 147.929 32.2168V10.1332C147.929 10.0239 148.009 9.93187 148.113 9.93187Z" fill="#622EA1"/>
<path d="M163.47 40.9697H158.357C158.254 40.9697 158.167 40.8777 158.167 40.7684V11.082C158.167 11.0015 158.213 10.9268 158.282 10.898C159.178 10.5242 160.107 10.1964 161.077 9.90885C162.036 9.63856 163.069 9.40277 164.182 9.20724C165.29 9.01171 166.455 8.91394 167.666 8.91394C169.525 8.91394 171.212 9.23024 172.733 9.86285C174.254 10.4954 175.562 11.3581 176.664 12.4623C177.76 13.5607 178.61 14.8604 179.218 16.3442C179.827 17.8336 180.125 19.4267 180.125 21.1117C180.125 22.7967 179.821 24.384 179.218 25.8735C178.61 27.3687 177.76 28.6569 176.664 29.7554C175.562 30.8538 174.254 31.7222 172.733 32.349C171.212 32.9816 169.525 33.2979 167.666 33.2979C167.183 33.2979 166.707 33.2577 166.225 33.1829C165.749 33.1081 165.324 33.0391 164.962 32.9816C164.515 32.8609 164.073 32.7401 163.654 32.6251V40.7742C163.654 40.8834 163.574 40.9754 163.465 40.9754M167.666 13.8828C167.183 13.8828 166.707 13.9173 166.225 13.992C165.749 14.0668 165.324 14.1358 164.962 14.1991C164.515 14.3198 164.073 14.4406 163.654 14.5614V27.6563C164.073 27.777 164.515 27.8805 164.962 27.9726C165.358 28.0933 165.789 28.1853 166.248 28.2429C166.713 28.3061 167.183 28.3349 167.666 28.3349C168.676 28.3349 169.6 28.1623 170.426 27.8173C171.258 27.4722 171.97 26.9834 172.561 26.3508C173.152 25.7182 173.605 24.9591 173.933 24.0677C174.254 23.182 174.42 22.1929 174.42 21.1117C174.42 20.0305 174.254 19.0413 173.933 18.1557C173.605 17.2643 173.152 16.5052 172.561 15.8726C171.97 15.24 171.258 14.7569 170.426 14.4061C169.594 14.061 168.676 13.8885 167.666 13.8885" fill="#622EA1"/>
<path d="M184.286 32.5044C184.182 32.5044 184.102 32.4124 184.102 32.3088V5.64173L184.085 1.10424C184.085 0.989218 184.171 0.902954 184.274 0.902954H189.405C189.508 0.902954 189.588 0.989218 189.588 1.10424V32.3088C189.588 32.4181 189.508 32.5044 189.405 32.5044" fill="#622EA1"/>
<path d="M212.648 23.8146H198.955C199.408 25.0511 200.148 26.1092 201.193 26.9949C202.231 27.8805 203.752 28.3291 205.75 28.3291C206.599 28.3291 207.356 28.2371 208.034 28.0588C208.711 27.8805 209.285 27.6678 209.767 27.4262C210.26 27.1904 210.691 26.9316 211.075 26.6498C211.167 26.5808 211.293 26.6153 211.345 26.7131L213.279 30.4282C213.325 30.5202 213.302 30.6295 213.222 30.687C212.608 31.1586 211.919 31.5726 211.161 31.935C210.427 32.2973 209.577 32.6136 208.608 32.8839C207.638 33.1542 206.547 33.2922 205.336 33.2922C203.483 33.2922 201.801 32.9816 200.292 32.3663C198.788 31.7452 197.497 30.894 196.429 29.8129C195.362 28.7317 194.535 27.4435 193.962 25.954C193.382 24.4645 193.095 22.8485 193.095 21.1002C193.095 19.3519 193.37 17.6439 193.921 16.1601C194.472 14.6706 195.241 13.3824 196.246 12.3012C197.244 11.2201 198.427 10.3804 199.792 9.79383C201.158 9.20724 202.656 8.91394 204.286 8.91394C205.916 8.91394 207.42 9.20724 208.785 9.79383C210.151 10.3804 211.328 11.2201 212.332 12.3012C213.331 13.3824 214.106 14.6706 214.656 16.1601C215.196 17.6266 215.471 19.2426 215.477 21.0139C215.477 21.0657 215.454 21.1232 215.414 21.1634L212.786 23.7571C212.751 23.7916 212.705 23.8089 212.659 23.8089M209.56 19.0701C209.336 17.5979 208.745 16.3614 207.787 15.3665C206.828 14.3716 205.658 13.877 204.28 13.877C202.903 13.877 201.726 14.3716 200.757 15.3665C199.787 16.3614 199.19 17.5921 198.96 19.0701H209.56Z" fill="#622EA1"/>
<path d="M240 30.5605C240 31.9178 239.73 33.2175 239.197 34.4654C238.657 35.7134 237.871 36.8233 236.832 37.7837C235.793 38.7499 234.531 39.5147 233.05 40.0898C231.569 40.6592 229.876 40.9467 227.96 40.9467C226.697 40.9467 225.555 40.803 224.539 40.5212C223.523 40.2336 222.668 39.9288 221.962 39.5953C221.119 39.2042 220.373 38.7556 219.724 38.238L221.744 34.3562C221.79 34.2584 221.911 34.2239 221.997 34.2814C222.462 34.5689 222.984 34.8335 223.569 35.0808C224.132 35.3223 224.78 35.5351 225.509 35.7134C226.244 35.8917 227.059 35.9837 227.96 35.9837C229.4 35.9837 230.542 35.7306 231.403 35.2188C232.264 34.707 232.912 34.1319 233.366 33.4993C233.899 32.7746 234.278 31.9523 234.502 31.0149V30.5663C233.997 30.6583 233.492 30.7331 232.981 30.7906C232.505 30.8481 231.994 30.9056 231.46 30.9458C230.921 30.9919 230.387 31.0149 229.853 31.0149C228.051 31.0149 226.462 30.7618 225.079 30.25C223.701 29.7381 222.53 29.0308 221.572 28.1279C220.614 27.225 219.891 26.1553 219.397 24.9189C218.909 23.6882 218.662 22.3309 218.662 20.8587V9.09227C218.662 8.97726 218.748 8.89099 218.852 8.89099H223.971C224.074 8.89099 224.16 8.98301 224.16 9.09227V20.8529C224.16 22.3252 224.66 23.5616 225.658 24.5566C226.657 25.5515 228.057 26.046 229.859 26.046C230.45 26.046 231.018 26.0058 231.569 25.9368C232.12 25.862 232.62 25.7815 233.073 25.6895C233.578 25.5975 234.06 25.494 234.502 25.3732V9.09227C234.502 8.97726 234.588 8.89099 234.691 8.89099H239.805C239.908 8.89099 239.989 8.98301 239.989 9.09227V30.5605H240Z" fill="#622EA1"/>
<path d="M47.9322 32.096V11.3582C47.9322 11.1799 48.0356 11.0246 48.1905 10.9728C49.1547 10.622 50.1475 10.3057 51.1863 10.0297C52.225 9.7594 53.3269 9.52936 54.4977 9.33382C55.6627 9.14404 56.8564 9.04053 58.0674 9.04053C59.8694 9.04053 61.4649 9.29357 62.8537 9.8054C64.2483 10.3172 65.4133 11.0246 66.3602 11.9275C67.3014 12.8304 68.0188 13.8943 68.5124 15.1308C69.0002 16.3672 69.247 17.7187 69.247 19.1909V32.096C69.247 32.3203 69.0805 32.4986 68.8682 32.4986H64.1392C63.9326 32.4986 63.7605 32.3203 63.7605 32.096V19.1909C63.7605 17.7187 63.2612 16.4822 62.2626 15.4931C61.264 14.4982 59.8637 14.0036 58.0616 14.0036C57.4762 14.0036 56.9023 14.0611 56.3514 14.1646C55.8177 14.2681 55.3184 14.3659 54.8765 14.4464C54.8592 14.4464 54.842 14.4522 54.8248 14.4579C54.4231 14.5959 54.0386 14.7282 53.6655 14.8662C53.5163 14.9237 53.4188 15.0733 53.4188 15.2458V32.1018C53.4188 32.3261 53.2466 32.5044 53.0342 32.5044H48.3053C48.0987 32.5044 47.9265 32.3261 47.9265 32.1018" fill="#622EA1"/>
<path d="M44.403 18.8113C44.403 15.7403 43.5306 13.3191 41.7802 11.5421C40.0356 9.76504 37.4645 8.87939 34.0555 8.87939C32.7929 8.87939 31.6738 9.00016 30.6982 9.2417C29.7283 9.48324 28.8789 9.77079 28.1443 10.0986C27.3868 10.4609 26.7325 10.8462 26.1701 11.2603C26.0898 11.3178 26.0668 11.4271 26.1127 11.5191L28.0525 15.2514C28.1042 15.3492 28.2132 15.3837 28.305 15.3319C28.7699 15.0674 29.2807 14.8259 29.8316 14.6131C30.3653 14.4348 30.9966 14.2623 31.7083 14.0955C32.4256 13.9345 33.2061 13.8425 34.0498 13.8425C35.7428 13.8425 36.9709 14.2048 37.7457 14.9294C38.5205 15.654 38.905 16.6432 38.905 17.9084C38.4803 17.8164 38.0154 17.7473 37.5104 17.6841C37.057 17.6266 36.5405 17.5748 35.9494 17.5288C35.3583 17.4886 34.7212 17.4655 34.0498 17.4655C32.1961 17.4655 30.6006 17.6668 29.2807 18.0694C27.9549 18.4777 26.8645 19.0241 26.0037 19.7199C25.1428 20.4158 24.5115 21.2382 24.1041 22.2043C23.6966 23.1647 23.49 24.2229 23.49 25.3673C23.49 26.5118 23.6909 27.5297 24.1041 28.5016C24.5115 29.4793 25.1428 30.3132 26.0037 31.0033C26.8645 31.6991 27.9549 32.2455 29.2807 32.6538C30.6006 33.0621 32.1961 33.2634 34.0498 33.2634C35.4329 33.2634 36.7242 33.1886 37.9351 33.0391C39.0485 32.9011 40.07 32.7343 41.0112 32.5445L44.3972 29.3355V18.8113H44.403ZM38.9107 27.616C38.4573 27.7367 37.9638 27.8402 37.4301 27.9323C36.9824 28.0243 36.4659 28.1048 35.892 28.1796C35.3124 28.2543 34.704 28.2946 34.0555 28.2946C32.2535 28.2946 30.9966 28.0013 30.2735 27.4147C29.5619 26.8281 29.2003 26.1437 29.2003 25.3616C29.2003 24.5795 29.5619 23.8951 30.2735 23.3028C30.9966 22.7162 32.2535 22.4229 34.0555 22.4229C34.704 22.4229 35.3066 22.4459 35.8748 22.4919C36.4372 22.5379 36.9595 22.5896 37.4358 22.6471C37.9695 22.7104 38.4631 22.7852 38.9165 22.8714V27.6102L38.9107 27.616Z" fill="#622EA1"/>
<path d="M129.38 52L180.119 52V46.4849L129.38 46.4849V52Z" fill="#EE2737"/>
<path d="M180.119 52H193.083V46.4849H180.119V52Z" fill="#FFB81C"/>
<path d="M193.084 52L240 52V46.4849L193.084 46.4849V52Z" fill="#8C4799"/>
</g>
<defs>
<clipPath id="clip0_11486_8244">
<rect width="240" height="52" fill="white"/>
</clipPath>
</defs>
</svg>
