<svg xmlns="http://www.w3.org/2000/svg" width="700" height="525" fill="none" viewBox="0 0 700 525"><g filter="url(#a)"><rect width="458" height="366" x="40" y="40" fill="#000" fill-opacity=".4" rx="16" shape-rendering="crispEdges"/><path fill="#f8f5ee" d="M65.504 83V71.8h4.768q1.104 0 1.856.32.768.32 1.152.96.4.624.4 1.52 0 .928-.496 1.568t-1.392.88l-.016-.32q.752.16 1.312.576.56.4.864 1.008.32.592.32 1.36 0 .816-.272 1.44-.256.624-.768 1.04a3.7 3.7 0 0 1-1.216.64q-.704.208-1.584.208zm2.032-1.872h2.8q.592 0 .992-.176.416-.176.624-.512.225-.352.224-.832 0-.449-.24-.768a1.34 1.34 0 0 0-.656-.48 2.7 2.7 0 0 0-1.024-.176h-2.72zm0-4.736h2.544q.465 0 .8-.176.352-.176.544-.48a1.3 1.3 0 0 0 .192-.704q0-.64-.432-.992-.433-.368-1.264-.368h-2.384zM76.168 83v-8.432h1.936l.032 2.688-.272-.608q.176-.64.608-1.152a3.2 3.2 0 0 1 .992-.8 2.54 2.54 0 0 1 1.2-.304q.272 0 .512.048.255.048.416.112l-.528 2.16a1.8 1.8 0 0 0-.432-.16 2 2 0 0 0-.512-.064q-.4 0-.768.16a1.9 1.9 0 0 0-.624.416 2.1 2.1 0 0 0-.432.64 2.1 2.1 0 0 0-.144.8V83zm11.19 0v-5.392q0-.688-.463-1.072-.448-.4-1.168-.4-.672 0-1.216.272-.545.272-1.008.832l-1.232-1.216a5.5 5.5 0 0 1 1.68-1.216 4.7 4.7 0 0 1 1.984-.416q.992 0 1.728.32.735.32 1.136.96.4.624.4 1.536V83zm-2.415.16q-.816 0-1.456-.32a2.66 2.66 0 0 1-1.024-.88q-.368-.576-.368-1.344 0-.656.24-1.168a2.05 2.05 0 0 1 .704-.832q.48-.336 1.184-.512a7 7 0 0 1 1.648-.176h2.432l-.144 1.408h-2.4q-.416 0-.752.08a1.8 1.8 0 0 0-.576.24q-.225.16-.336.384a1.1 1.1 0 0 0-.112.512q0 .304.144.544.159.24.432.368a1.6 1.6 0 0 0 .656.128q.511 0 .976-.176.48-.192.848-.496.368-.32.576-.72l.4 1.088a3.9 3.9 0 0 1-.832.976q-.48.416-1.056.656-.56.24-1.184.24m6.334-.16v-8.432h1.92l.032 1.728-.368.192a2.35 2.35 0 0 1 .624-1.04q.464-.48 1.104-.768a3.2 3.2 0 0 1 1.312-.288q.96 0 1.6.384.656.384.976 1.152.336.768.336 1.92V83h-1.968v-5.008q0-.64-.176-1.056a1.17 1.17 0 0 0-.544-.624q-.368-.209-.896-.192-.432 0-.8.144a1.8 1.8 0 0 0-.624.384q-.256.24-.416.56a1.7 1.7 0 0 0-.144.704V83zm13.142.16a3.7 3.7 0 0 1-2.016-.56 4.2 4.2 0 0 1-1.408-1.552q-.512-.992-.512-2.272 0-1.264.512-2.256a3.93 3.93 0 0 1 1.392-1.552 3.65 3.65 0 0 1 2.016-.576q.608 0 1.168.192.576.192 1.024.528.448.32.704.72.272.4.304.832l-.528.064V71.16h1.968V83h-1.904l-.048-1.984.384.032a1.4 1.4 0 0 1-.288.768q-.257.368-.672.672a3.7 3.7 0 0 1-.976.496 3.6 3.6 0 0 1-1.12.176m.384-1.664a2.14 2.14 0 0 0 1.216-.352 2.3 2.3 0 0 0 .816-.96q.304-.608.304-1.408 0-.784-.304-1.392a2.2 2.2 0 0 0-.816-.96 2.14 2.14 0 0 0-1.216-.352 2.14 2.14 0 0 0-1.216.352 2.3 2.3 0 0 0-.832.96q-.288.608-.288 1.392 0 .8.288 1.408.304.607.832.96a2.14 2.14 0 0 0 1.216.352M119.58 83l-4.48-11.2h2.272l2.496 6.416q.192.496.336.896.144.383.256.704t.192.624q.096.304.208.64h-.448q.113-.431.24-.848.128-.432.288-.912.176-.48.416-1.104l2.336-6.416h2.288L121.468 83zm8.046 0v-8.432h1.968V83zm.96-10.224q-.592 0-.928-.288-.32-.304-.32-.848 0-.512.336-.832t.912-.32q.608 0 .928.304.336.288.336.848 0 .496-.336.816t-.928.32m6.32 10.384q-1.12 0-2.016-.368a3.7 3.7 0 0 1-1.44-1.088l1.28-1.104q.48.544 1.072.784.591.24 1.247.24.273 0 .481-.064a1.1 1.1 0 0 0 .384-.192.9.9 0 0 0 .24-.288.8.8 0 0 0 .096-.384.73.73 0 0 0-.288-.608 2.4 2.4 0 0 0-.512-.24 7 7 0 0 0-.88-.256 7.4 7.4 0 0 1-1.44-.512q-.576-.305-.896-.672a2.2 2.2 0 0 1-.416-.688 2.6 2.6 0 0 1-.128-.832q0-.56.24-1.008.255-.465.688-.8a3.1 3.1 0 0 1 1.008-.512 4 4 0 0 1 1.2-.176 4.7 4.7 0 0 1 2.352.624q.528.288.896.704l-1.088 1.2a4 4 0 0 0-.672-.512 3.5 3.5 0 0 0-.72-.352 1.9 1.9 0 0 0-.688-.144q-.304 0-.544.064-.24.048-.4.16a.8.8 0 0 0-.256.288.84.84 0 0 0-.08.384q.015.192.096.368a.9.9 0 0 0 .256.272q.175.112.528.256.351.144.912.272.784.208 1.312.464.528.255.832.592.303.288.432.672.128.384.128.848 0 .752-.432 1.344-.417.592-1.152.928-.72.336-1.632.336m5.173-.16v-8.432h1.968V83zm.96-10.224q-.592 0-.928-.288-.32-.304-.32-.848 0-.512.336-.832t.912-.32q.608 0 .928.304.336.288.336.848 0 .496-.336.816t-.928.32m8.16 10.384q-.561 0-1.104-.16a4 4 0 0 1-.96-.464 3.3 3.3 0 0 1-.72-.64 2 2 0 0 1-.384-.736l.464-.208-.048 2.016h-1.904V71.16h1.968v5.36l-.352-.16a1.7 1.7 0 0 1 .352-.72q.287-.353.704-.624.415-.288.912-.448a3 3 0 0 1 1.008-.176q1.136 0 2 .56.88.56 1.376 1.552.512.991.512 2.256 0 1.28-.496 2.272a3.94 3.94 0 0 1-1.376 1.568 3.5 3.5 0 0 1-1.952.56m-.416-1.728q.672 0 1.2-.336.528-.353.832-.944a3.1 3.1 0 0 0 .304-1.392q0-.768-.304-1.36a2.23 2.23 0 0 0-.816-.928 2.2 2.2 0 0 0-1.216-.336q-.688 0-1.216.336-.529.336-.832.928-.304.592-.304 1.36 0 .784.304 1.392.303.593.832.944.528.336 1.216.336M155.001 83v-8.432h1.968V83zm.96-10.224q-.592 0-.928-.288-.32-.304-.32-.848 0-.512.336-.832t.912-.32q.608 0 .928.304.336.288.336.848 0 .496-.336.816t-.928.32M159.481 83V71.16h1.984V83zm4.52 0v-8.432h1.968V83zm.96-10.224q-.592 0-.928-.288-.32-.304-.32-.848 0-.512.336-.832t.912-.32q.608 0 .928.304.336.288.336.848 0 .496-.336.816t-.928.32M169.377 83V72.424h1.968V83zm-1.664-6.608v-1.824h5.472v1.824zm8.25 10.288 1.792-4.144.016 1.312-4.16-9.28h2.272l2.32 5.504q.113.208.224.56a8 8 0 0 1 .192.672l-.4.128q.112-.304.24-.64.129-.352.24-.72l1.984-5.504h2.288L179.451 83l-1.44 3.68zm18.123-3.52q-1.2 0-2.224-.432a5.6 5.6 0 0 1-1.792-1.2 5.6 5.6 0 0 1-1.168-1.84 6.2 6.2 0 0 1-.416-2.304q0-1.248.416-2.304a5.4 5.4 0 0 1 1.168-1.824 5.4 5.4 0 0 1 1.792-1.216 5.7 5.7 0 0 1 2.224-.432q1.216 0 2.24.432a5.3 5.3 0 0 1 1.776 1.216 5.6 5.6 0 0 1 1.168 1.84q.416 1.04.416 2.288 0 1.232-.416 2.288a5.6 5.6 0 0 1-1.168 1.84 5.3 5.3 0 0 1-1.776 1.216 5.7 5.7 0 0 1-2.24.432m0-1.984q.768 0 1.392-.272a3.3 3.3 0 0 0 1.104-.8q.464-.528.72-1.216.272-.688.272-1.504t-.272-1.504a3.7 3.7 0 0 0-.72-1.2 3 3 0 0 0-1.104-.8 3.3 3.3 0 0 0-1.392-.288q-.752 0-1.392.288a3.1 3.1 0 0 0-1.104.784 3.7 3.7 0 0 0-.72 1.2 4.3 4.3 0 0 0-.256 1.52q0 .816.256 1.52.257.689.72 1.2.463.512 1.104.8.64.272 1.392.272M204.294 83l-3.552-8.432h2.144l2.4 6.304-.416.112 2.528-6.416h2.096L205.766 83zm10.357.16q-1.327 0-2.352-.56a4.2 4.2 0 0 1-1.584-1.52q-.56-.975-.56-2.224 0-.992.32-1.808a4.3 4.3 0 0 1 .88-1.408 3.9 3.9 0 0 1 1.36-.928 4.5 4.5 0 0 1 1.744-.336q.832 0 1.552.32t1.248.88q.528.544.8 1.312.288.751.272 1.648l-.016.688h-6.832l-.368-1.344h5.552l-.256.272V77.8a1.7 1.7 0 0 0-.32-.864 1.8 1.8 0 0 0-.704-.592 1.9 1.9 0 0 0-.928-.224q-.784 0-1.328.304a1.94 1.94 0 0 0-.8.88q-.272.56-.272 1.408 0 .816.336 1.424.352.608.976.944.64.32 1.488.32a3 3 0 0 0 1.088-.192q.496-.192 1.072-.688l.976 1.36a4.4 4.4 0 0 1-.992.688 6 6 0 0 1-1.152.432q-.608.16-1.2.16m5.423-.16v-8.432h1.936l.032 2.688-.272-.608q.176-.64.608-1.152t.992-.8a2.54 2.54 0 0 1 1.2-.304q.272 0 .512.048.256.048.416.112l-.528 2.16a1.8 1.8 0 0 0-.432-.16 2 2 0 0 0-.512-.064q-.4 0-.768.16a1.9 1.9 0 0 0-.624.416 2.1 2.1 0 0 0-.432.64 2.1 2.1 0 0 0-.144.8V83zm14.029 0v-9.28h-3.2V71.8h8.576v1.92h-3.296V83zm7.289 0v-8.432h1.968V83zm.96-10.224q-.592 0-.928-.288-.32-.304-.32-.848 0-.512.336-.832t.912-.32q.607 0 .928.304.336.288.336.848 0 .496-.336.816t-.928.32M245.823 83v-8.432h1.936l.032 1.696-.32.128q.144-.416.432-.768.288-.368.688-.624.4-.272.848-.416.448-.16.912-.16.688 0 1.216.224a2 2 0 0 1 .896.672q.368.464.544 1.184l-.304-.064.128-.256a2.2 2.2 0 0 1 .496-.688 3.7 3.7 0 0 1 .72-.56q.4-.256.832-.384.448-.128.88-.128.96 0 1.6.384t.96 1.168.32 1.936V83h-1.984v-4.96q0-.64-.176-1.056a1.12 1.12 0 0 0-.512-.608q-.336-.208-.848-.208-.4 0-.768.144a1.64 1.64 0 0 0-.608.384q-.256.24-.4.56a1.7 1.7 0 0 0-.144.704V83h-1.984v-4.976q0-.608-.176-1.008a1.3 1.3 0 0 0-.512-.624 1.44 1.44 0 0 0-.816-.224q-.4 0-.752.144a1.73 1.73 0 0 0-1.008.928 1.7 1.7 0 0 0-.144.704V83zm18.953.16q-1.327 0-2.352-.56a4.2 4.2 0 0 1-1.584-1.52q-.56-.975-.56-2.224 0-.992.32-1.808a4.3 4.3 0 0 1 .88-1.408 3.9 3.9 0 0 1 1.36-.928 4.5 4.5 0 0 1 1.744-.336q.832 0 1.552.32t1.248.88q.528.544.8 1.312.288.751.272 1.648l-.016.688h-6.832l-.368-1.344h5.552l-.256.272V77.8a1.7 1.7 0 0 0-.32-.864 1.8 1.8 0 0 0-.704-.592 1.9 1.9 0 0 0-.928-.224q-.784 0-1.328.304a1.94 1.94 0 0 0-.8.88q-.272.56-.272 1.408 0 .816.336 1.424.352.608.976.944.64.32 1.488.32a3 3 0 0 0 1.088-.192q.496-.192 1.072-.688l.976 1.36a4.4 4.4 0 0 1-.992.688 6 6 0 0 1-1.152.432q-.608.16-1.2.16"/><circle cx="68" cy="123" r="4" fill="#ff7d4c"/><path fill="#f8f5ee" d="M84.716 128.12a4.3 4.3 0 0 1-1.656-.312 3.9 3.9 0 0 1-1.308-.9 4.3 4.3 0 0 1-.864-1.38 4.8 4.8 0 0 1-.3-1.728q0-.924.3-1.692.312-.78.876-1.356a3.9 3.9 0 0 1 1.308-.9 4.2 4.2 0 0 1 1.632-.312q.588 0 1.164.192.576.18 1.056.504.492.324.804.744l-.648.672a3.2 3.2 0 0 0-.696-.624 3.3 3.3 0 0 0-.816-.408 2.7 2.7 0 0 0-.864-.144q-.672 0-1.26.252-.576.24-.996.684t-.66 1.056a3.8 3.8 0 0 0-.228 1.332q0 .744.228 1.368.24.624.672 1.08.444.444 1.032.696a3.56 3.56 0 0 0 2.196.12q.432-.132.792-.36t.612-.516l.48.78a2.6 2.6 0 0 1-.744.6q-.456.252-1.008.408a4.4 4.4 0 0 1-1.104.144m4.27-.12v-8.88h.9v3.984l-.18.18q.13-.492.491-.864.36-.384.84-.6.492-.216.996-.216.72 0 1.2.276t.708.852q.24.576.24 1.464V128h-.912v-3.756q0-.624-.168-1.02a1.12 1.12 0 0 0-.492-.6q-.336-.192-.84-.18-.396 0-.744.144a1.77 1.77 0 0 0-.996.924 1.6 1.6 0 0 0-.144.672V128h-.9m9.361.12q-.816 0-1.476-.42a3.06 3.06 0 0 1-1.044-1.164q-.384-.744-.384-1.68 0-.948.396-1.68a3.06 3.06 0 0 1 1.056-1.152q.672-.42 1.5-.42.492 0 .912.144t.744.408q.336.252.552.6.228.336.312.732l-.264-.132.036-1.62h.9V128h-.912v-1.536l.24-.156q-.084.36-.324.696-.24.324-.588.576-.336.252-.768.396-.42.144-.888.144m.204-.864a2.1 2.1 0 0 0 1.116-.3 2.14 2.14 0 0 0 .768-.852q.288-.552.288-1.248t-.288-1.236a2.14 2.14 0 0 0-.768-.852 2.04 2.04 0 0 0-1.116-.312q-.636 0-1.128.312-.48.312-.768.852-.276.54-.276 1.236 0 .684.276 1.236.276.54.768.852t1.128.312m5.654.744v-7.908h.9V128zm-1.416-5.4v-.864h3.9v.864zm9.085 5.52a4.5 4.5 0 0 1-1.716-.324 4.4 4.4 0 0 1-1.392-.9 4.1 4.1 0 0 1-.936-1.356 4.5 4.5 0 0 1-.324-1.716q0-.924.324-1.704a4.3 4.3 0 0 1 .912-1.368 4.1 4.1 0 0 1 1.368-.888 4.4 4.4 0 0 1 1.692-.324q.636 0 1.248.18.624.18 1.128.504t.816.732l-.624.636a3.7 3.7 0 0 0-.756-.6q-.42-.252-.888-.396a3 3 0 0 0-.912-.144q-.708 0-1.32.252-.6.252-1.056.708a3.1 3.1 0 0 0-.708 1.068 3.5 3.5 0 0 0-.252 1.344q0 .708.252 1.332.264.612.732 1.08.48.456 1.104.708t1.344.252q.564 0 1.056-.168.504-.168.876-.468.372-.312.576-.72t.204-.876v-.42l.192.24h-2.952v-.924h3.696q.012.096.024.228.012.12.012.252.012.12.012.228 0 .78-.288 1.44-.288.648-.804 1.128a3.7 3.7 0 0 1-1.176.732 4.1 4.1 0 0 1-1.464.252m5.444-.12v-8.4h3.324q.66 0 1.188.324t.84.9q.312.564.312 1.272 0 .744-.312 1.332a2.5 2.5 0 0 1-.84.924 2.17 2.17 0 0 1-1.188.336h-2.388V128zm.936-4.224h2.436q.372 0 .66-.216.3-.228.48-.6.18-.384.18-.876 0-.444-.18-.792-.18-.36-.48-.564a1.07 1.07 0 0 0-.66-.216h-2.436zm8.053 4.224v-7.488h-2.4v-.912h5.832v.912h-2.496V128z"/><circle cx="159" cy="123" r="4" fill="#ff9fcc"/><path fill="#f8f5ee" d="M172.236 128v-8.4h3.324q.66 0 1.188.324t.84.9q.312.564.312 1.272 0 .744-.312 1.332a2.5 2.5 0 0 1-.84.924 2.17 2.17 0 0 1-1.188.336h-2.388V128zm.936-4.224h2.436q.372 0 .66-.216.3-.228.48-.6.18-.384.18-.876 0-.444-.18-.792-.18-.36-.48-.564a1.07 1.07 0 0 0-.66-.216h-2.436zm8.812 4.344q-.936 0-1.668-.408a2.9 2.9 0 0 1-1.128-1.14q-.408-.732-.408-1.68 0-.732.228-1.32.228-.6.636-1.044.42-.444.996-.684a3.1 3.1 0 0 1 1.248-.252q.636 0 1.152.228.528.228.9.636.384.396.576.948t.168 1.212l-.012.42h-5.22l-.132-.756h4.668l-.216.204v-.288a1.85 1.85 0 0 0-.252-.828 1.77 1.77 0 0 0-.648-.66q-.408-.252-.984-.252-.672 0-1.164.276a1.77 1.77 0 0 0-.756.792q-.264.528-.264 1.308 0 .744.288 1.296.288.54.816.84.54.3 1.296.3.444 0 .876-.144.444-.156.972-.6l.468.648a3 3 0 0 1-.66.492 4.4 4.4 0 0 1-.84.336q-.456.12-.936.12m3.978-.12v-6.264h.9l.024 1.668-.096-.228q.132-.42.42-.78.3-.36.708-.576t.9-.216q.204 0 .384.036.18.024.3.072l-.252 1.008a1.2 1.2 0 0 0-.324-.096 1.3 1.3 0 0 0-.3-.036q-.408 0-.732.144t-.552.408a1.7 1.7 0 0 0-.348.588q-.12.336-.12.72V128zm4.477 2.64v-8.904h.9l.024 1.524-.168.024q.108-.456.468-.828.36-.384.876-.612a2.7 2.7 0 0 1 1.092-.228q.84 0 1.5.42.672.42 1.068 1.152t.396 1.68q0 .936-.384 1.668a3.03 3.03 0 0 1-1.056 1.164q-.672.42-1.512.42-.588 0-1.116-.24a2.9 2.9 0 0 1-.9-.624 2 2 0 0 1-.492-.852h.216v4.236zm3.06-3.384q.636 0 1.128-.312a2.23 2.23 0 0 0 .78-.852 2.56 2.56 0 0 0 .288-1.224q0-.696-.288-1.236a2.23 2.23 0 0 0-.78-.852 2.06 2.06 0 0 0-1.128-.312 2.12 2.12 0 0 0-1.92 1.152q-.288.54-.288 1.236t.288 1.236.78.852q.504.312 1.14.312m4.428.744v-8.88h.9V128zm5.314.12q-.936 0-1.668-.408a2.9 2.9 0 0 1-1.128-1.14q-.408-.732-.408-1.68 0-.732.228-1.32.228-.6.636-1.044.42-.444.996-.684a3.1 3.1 0 0 1 1.248-.252q.636 0 1.152.228.528.228.9.636.384.396.576.948t.168 1.212l-.012.42h-5.22l-.132-.756h4.668l-.216.204v-.288a1.85 1.85 0 0 0-.252-.828 1.77 1.77 0 0 0-.648-.66q-.408-.252-.984-.252-.672 0-1.164.276a1.77 1.77 0 0 0-.756.792q-.264.528-.264 1.308 0 .744.288 1.296.288.54.816.84.54.3 1.296.3.444 0 .876-.144.444-.156.972-.6l.468.648a3 3 0 0 1-.66.492 4.4 4.4 0 0 1-.84.336q-.456.12-.936.12m8.204-.12-2.172-2.796-.108-.132-2.604-3.336h1.14l2.136 2.748.12.156 2.616 3.36zm-4.932 0 2.556-3.3.54.648-2.016 2.652zm3.504-3.072-.516-.636 1.824-2.556h1.092zm3.865 3.072v-6.264h.9V128zm.444-7.62q-.336 0-.516-.168a.68.68 0 0 1-.168-.48q0-.3.18-.48t.504-.18.504.18q.18.168.18.48 0 .288-.18.468t-.504.18m3.285 7.62v-7.908h.9V128zm-1.416-5.4v-.864h3.9v.864zm6.061 8.16 1.212-2.952.084.852-3.144-6.924h1.02l2.148 4.8q.096.192.192.456.096.252.18.504l-.336-.036q.084-.204.156-.42.084-.216.156-.42l1.884-4.884h1.032L224.308 128l-1.08 2.76z"/><circle cx="255" cy="123" r="4" fill="#bc8fc3"/><path fill="#f8f5ee" d="M271.956 128.12a4.5 4.5 0 0 1-1.716-.324 4.4 4.4 0 0 1-1.392-.9 4.1 4.1 0 0 1-.936-1.356 4.5 4.5 0 0 1-.324-1.716q0-.924.324-1.704a4.3 4.3 0 0 1 .912-1.368 4.1 4.1 0 0 1 1.368-.888 4.4 4.4 0 0 1 1.692-.324q.636 0 1.248.18.624.18 1.128.504t.816.732l-.624.636a3.7 3.7 0 0 0-.756-.6q-.42-.252-.888-.396a3 3 0 0 0-.912-.144q-.708 0-1.32.252-.6.252-1.056.708a3.1 3.1 0 0 0-.708 1.068 3.5 3.5 0 0 0-.252 1.344q0 .708.252 1.332.264.612.732 1.08.48.456 1.104.708t1.344.252q.564 0 1.056-.168.504-.168.876-.468.372-.312.576-.72t.204-.876v-.42l.192.24h-2.952v-.924h3.696q.012.096.024.228.012.12.012.252.012.12.012.228 0 .78-.288 1.44-.288.648-.804 1.128a3.7 3.7 0 0 1-1.176.732 4.1 4.1 0 0 1-1.464.252m7.844 0q-.936 0-1.668-.408a2.9 2.9 0 0 1-1.128-1.14q-.408-.732-.408-1.68 0-.732.228-1.32.228-.6.636-1.044.42-.444.996-.684a3.1 3.1 0 0 1 1.248-.252q.636 0 1.152.228.528.228.9.636.384.396.576.948t.168 1.212l-.012.42h-5.22l-.132-.756h4.668l-.216.204v-.288a1.85 1.85 0 0 0-.252-.828 1.77 1.77 0 0 0-.648-.66q-.408-.252-.984-.252-.672 0-1.164.276a1.77 1.77 0 0 0-.756.792q-.264.528-.264 1.308 0 .744.288 1.296.288.54.816.84.54.3 1.296.3.444 0 .876-.144.444-.156.972-.6l.468.648a3 3 0 0 1-.66.492 4.4 4.4 0 0 1-.84.336q-.456.12-.936.12m3.966-.12v-6.264h.9l.024 1.428-.18.06q.096-.36.312-.648a2.36 2.36 0 0 1 1.224-.84q.372-.12.78-.12.492 0 .876.168.396.156.66.552.276.384.42 1.02l-.216-.108.084-.204q.12-.276.348-.528.24-.264.54-.468.312-.204.672-.312.372-.12.756-.12.66 0 1.116.288.456.276.684.852.24.576.24 1.464V128h-.924v-3.732q0-.624-.156-1.02a1.16 1.16 0 0 0-.468-.588q-.3-.204-.768-.204-.408 0-.756.144-.336.132-.588.384a1.9 1.9 0 0 0-.384.552 1.7 1.7 0 0 0-.132.672V128h-.912v-3.744q0-.6-.168-.996a1.23 1.23 0 0 0-.468-.6q-.312-.204-.768-.204-.396 0-.732.144-.336.132-.588.372a1.9 1.9 0 0 0-.384.552 1.7 1.7 0 0 0-.132.672V128zm11.186 0v-6.264h.9V128zm.444-7.62q-.336 0-.516-.168a.68.68 0 0 1-.168-.48q0-.3.18-.48t.504-.18.504.18q.18.168.18.48 0 .288-.18.468t-.504.18m2.421 7.62v-6.264h.888l.036 1.308-.144.06q.12-.408.468-.744t.828-.54a2.5 2.5 0 0 1 1.008-.216q.696 0 1.164.276t.708.852.24 1.464V128h-.912v-3.756q0-.624-.168-1.02a1.12 1.12 0 0 0-.492-.6q-.336-.192-.828-.18-.408 0-.756.144a1.77 1.77 0 0 0-.996.924 1.6 1.6 0 0 0-.144.672V128zm7.154 0v-6.264h.9V128zm.444-7.62q-.336 0-.516-.168a.68.68 0 0 1-.168-.48q0-.3.18-.48t.504-.18.504.18q.18.168.18.48 0 .288-.18.468t-.504.18M137.597 376.721v-7.248l.348.264-1.56.936-.276-.84 2.076-1.224h.36v8.112zm-1.236.408v-.912h3.444v.912zm4.692 1.428 4.872-9.828h.9l-4.848 9.828zm7.555-1.428 3.528-7.848.156.324h-4.5v-.876h5.064l.156.732-3.384 7.668zm3.906 1.428 4.872-9.828h.9l-4.848 9.828zm7.024-1.428-.288-.696 2.832-3.18q.204-.228.42-.516.228-.288.42-.6.204-.324.324-.636t.12-.612q0-.444-.192-.744a1.25 1.25 0 0 0-.552-.48 1.86 1.86 0 0 0-.816-.168q-.408 0-.804.192a2.15 2.15 0 0 0-.72.588q-.324.396-.504 1.008l-.744-.444q.216-.732.636-1.224.42-.504.996-.756a3.05 3.05 0 0 1 1.236-.252q.696 0 1.248.288a2.15 2.15 0 0 1 1.2 1.956q0 .288-.072.576-.06.288-.192.576a5 5 0 0 1-.324.588q-.18.3-.432.612-.24.312-.54.648l-2.412 2.688-.144-.312h4.38v.9zm8.962.06q-.624 0-1.164-.216a2.8 2.8 0 0 1-.924-.612 3 3 0 0 1-.6-.948 3.3 3.3 0 0 1-.216-1.2q0-.312.084-.684a6 6 0 0 1 .252-.828q.168-.456.408-.948t.552-1.02l1.224-2.076h.912l.048.12-1.356 2.28q-.288.48-.528.948a20 20 0 0 0-.432.948q-.204.468-.396.96l-.168-.864a4 4 0 0 1 .492-.672q.276-.288.588-.492.312-.216.66-.312.36-.108.732-.108.732 0 1.32.384.6.372.96.996t.36 1.392q0 .84-.372 1.512t-1.02 1.056a2.7 2.7 0 0 1-1.416.384m-.036-.876q.54 0 .972-.264t.684-.708q.252-.456.252-1.02 0-.528-.252-.972a1.9 1.9 0 0 0-.684-.72 1.75 1.75 0 0 0-.96-.276q-.564 0-1.008.264a1.96 1.96 0 0 0-.936 1.692q0 .564.252 1.02.252.444.684.72.444.264.996.264m101.067.408v-7.248l.348.264-1.56.936-.276-.84 2.076-1.224h.36v8.112zm-1.236.408v-.912h3.444v.912zm4.692 1.428 4.872-9.828h.9l-4.848 9.828zm8.392-1.836v-7.248l.348.264-1.56.936-.276-.84 2.076-1.224h.36v8.112zm-1.236.408v-.912h3.444v.912zm5.532 0 3.528-7.848.156.324h-4.5v-.876h5.064l.156.732-3.384 7.668zm3.906 1.428 4.872-9.828h.9l-4.848 9.828zm7.023-1.428-.288-.696 2.832-3.18q.204-.228.42-.516.228-.288.42-.6.204-.324.324-.636t.12-.612q0-.444-.192-.744a1.25 1.25 0 0 0-.552-.48 1.86 1.86 0 0 0-.816-.168q-.408 0-.804.192a2.15 2.15 0 0 0-.72.588q-.324.396-.504 1.008l-.744-.444q.216-.732.636-1.224.42-.504.996-.756a3.05 3.05 0 0 1 1.236-.252q.696 0 1.248.288a2.15 2.15 0 0 1 1.2 1.956q0 .288-.072.576-.06.288-.192.576a5 5 0 0 1-.324.588q-.18.3-.432.612-.24.312-.54.648l-2.412 2.688-.144-.312h4.38v.9zm8.963.06q-.624 0-1.164-.216a2.8 2.8 0 0 1-.924-.612 3 3 0 0 1-.6-.948 3.3 3.3 0 0 1-.216-1.2q0-.312.084-.684a6 6 0 0 1 .252-.828q.168-.456.408-.948t.552-1.02l1.224-2.076h.912l.048.12-1.356 2.28q-.288.48-.528.948-.228.468-.433.948-.203.468-.395.96l-.168-.864a4 4 0 0 1 .492-.672q.276-.288.588-.492.312-.216.66-.312.36-.108.732-.108.732 0 1.32.384.6.372.96.996t.36 1.392q0 .84-.372 1.512t-1.02 1.056a2.7 2.7 0 0 1-1.416.384m-.036-.876q.54 0 .972-.264t.684-.708q.252-.456.252-1.02 0-.528-.252-.972a1.9 1.9 0 0 0-.684-.72 1.75 1.75 0 0 0-.96-.276q-.564 0-1.008.264a1.96 1.96 0 0 0-.936 1.692q0 .564.252 1.02.252.444.684.72.444.264.996.264m100.961.408v-7.248l.348.264-1.56.936-.276-.84 2.076-1.224h.36v8.112zm-1.236.408v-.912h3.444v.912zm4.692 1.428 4.872-9.828h.9l-4.848 9.828zm7.023-1.428-.288-.696 2.832-3.18q.204-.228.42-.516.228-.288.42-.6.204-.324.324-.636t.12-.612q0-.444-.192-.744a1.25 1.25 0 0 0-.552-.48 1.86 1.86 0 0 0-.816-.168q-.408 0-.804.192a2.15 2.15 0 0 0-.72.588q-.324.396-.504 1.008l-.744-.444q.216-.732.636-1.224.42-.504.996-.756a3.05 3.05 0 0 1 1.236-.252q.696 0 1.248.288a2.15 2.15 0 0 1 1.2 1.956q0 .288-.072.576-.06.288-.192.576a5 5 0 0 1-.324.588q-.18.3-.432.612-.24.312-.54.648l-2.412 2.688-.144-.312h4.38v.9zm6.743 0 3.528-7.848.156.324h-4.5v-.876h5.064l.156.732-3.384 7.668zm3.906 1.428 4.872-9.828h.9l-4.848 9.828zm7.023-1.428-.288-.696 2.832-3.18q.204-.228.42-.516.228-.288.42-.6.204-.324.324-.636t.12-.612q0-.444-.192-.744a1.25 1.25 0 0 0-.552-.48 1.86 1.86 0 0 0-.816-.168q-.408 0-.804.192a2.15 2.15 0 0 0-.72.588q-.324.396-.504 1.008l-.744-.444q.216-.732.636-1.224.42-.504.996-.756a3.05 3.05 0 0 1 1.236-.252q.696 0 1.248.288a2.15 2.15 0 0 1 1.2 1.956q0 .288-.072.576-.06.288-.192.576a5 5 0 0 1-.324.588q-.18.3-.432.612-.24.312-.54.648l-2.412 2.688-.144-.312h4.38v.9zm8.963.06q-.624 0-1.164-.216a2.8 2.8 0 0 1-.924-.612 3 3 0 0 1-.6-.948 3.3 3.3 0 0 1-.216-1.2q0-.312.084-.684a6 6 0 0 1 .252-.828q.168-.456.408-.948t.552-1.02l1.224-2.076h.912l.048.12-1.356 2.28q-.288.48-.528.948a20 20 0 0 0-.432.948q-.204.468-.396.96l-.168-.864a4 4 0 0 1 .492-.672q.276-.288.588-.492.312-.216.66-.312.36-.108.732-.108.732 0 1.32.384.6.372.96.996t.36 1.392q0 .84-.372 1.512t-1.02 1.056a2.7 2.7 0 0 1-1.416.384m-.036-.876q.54 0 .972-.264t.684-.708q.252-.456.252-1.02 0-.528-.252-.972a1.9 1.9 0 0 0-.684-.72 1.75 1.75 0 0 0-.96-.276q-.564 0-1.008.264a1.96 1.96 0 0 0-.936 1.692q0 .564.252 1.02.252.444.684.72.444.264.996.264M66.945 169.592v-7.248l.348.264-1.56.936-.276-.84 2.076-1.224h.36v8.112zm-1.236.408v-.912h3.444V170zm7.92.12q-.984 0-1.68-.516-.684-.516-1.056-1.476-.36-.972-.36-2.328t.36-2.316q.372-.972 1.056-1.488.696-.516 1.68-.516.972 0 1.668.516t1.056 1.488q.372.96.372 2.316t-.372 2.328q-.36.96-1.056 1.476t-1.668.516m0-.876q1.032 0 1.584-.9.564-.9.564-2.544t-.564-2.544q-.552-.9-1.584-.9-1.044 0-1.608.9-.552.9-.552 2.544t.552 2.544q.564.9 1.608.9m7.348.876q-.984 0-1.68-.516-.684-.516-1.056-1.476-.36-.972-.36-2.328t.36-2.316q.372-.972 1.056-1.488.696-.516 1.68-.516.972 0 1.668.516t1.056 1.488q.372.96.372 2.316t-.372 2.328q-.36.96-1.056 1.476t-1.668.516m0-.876q1.032 0 1.584-.9.564-.9.564-2.544t-.564-2.544q-.552-.9-1.584-.9-1.044 0-1.608.9-.552.9-.552 2.544t.552 2.544q.564.9 1.608.9m7.347.876q-.984 0-1.68-.516-.684-.516-1.056-1.476-.36-.972-.36-2.328t.36-2.316q.372-.972 1.056-1.488.696-.516 1.68-.516.972 0 1.668.516t1.056 1.488q.372.96.372 2.316t-.372 2.328q-.36.96-1.056 1.476t-1.668.516m0-.876q1.032 0 1.584-.9.564-.9.564-2.544t-.564-2.544q-.552-.9-1.584-.9-1.044 0-1.608.9-.552.9-.552 2.544t.552 2.544q.564.9 1.608.9"/><g clip-path="url(#b)"><path fill="#fff" fill-opacity=".17" d="M116 164h358v1H116z"/></g><path fill="#f8f5ee" d="m65.929 216 3.528-7.848.156.324h-4.5v-.876h5.064l.155.732L66.95 216zm7.987.084a3.05 3.05 0 0 1-1.5-.372 3.2 3.2 0 0 1-1.116-1.092l.564-.612q.504.672 1.008.936.516.252 1.056.252.576 0 1.044-.264.48-.276.756-.732a1.9 1.9 0 0 0 .276-1.008q0-.54-.252-.972a1.84 1.84 0 0 0-.684-.696 1.87 1.87 0 0 0-.996-.264q-.3 0-.6.072-.3.06-.624.204-.312.132-.672.336l-.528-.708.492-3.564h4.536v.876h-4.044l.3-.216-.444 2.94-.276-.192q.192-.156.516-.3a3.7 3.7 0 0 1 .708-.228q.396-.096.768-.096.78 0 1.392.36.612.348.972.972.36.612.36 1.416 0 .84-.396 1.512-.396.66-1.08 1.056a3.1 3.1 0 0 1-1.536.384m7.408.036q-.984 0-1.68-.516-.684-.516-1.056-1.476-.36-.972-.36-2.328t.36-2.316q.372-.972 1.056-1.488.696-.516 1.68-.516.972 0 1.668.516t1.056 1.488q.372.96.372 2.316t-.372 2.328q-.36.96-1.056 1.476t-1.668.516m0-.876q1.032 0 1.584-.9.564-.9.564-2.544t-.564-2.544q-.552-.9-1.584-.9-1.044 0-1.608.9-.552.9-.552 2.544t.552 2.544q.564.9 1.608.9"/><g clip-path="url(#c)"><path fill="#fff" fill-opacity=".17" d="M116 210h358v1H116z"/></g><path fill="#f8f5ee" d="M67.568 262.084a3.05 3.05 0 0 1-1.5-.372 3.2 3.2 0 0 1-1.116-1.092l.564-.612q.504.672 1.008.936.516.252 1.056.252.576 0 1.044-.264.48-.276.756-.732a1.9 1.9 0 0 0 .276-1.008q0-.54-.252-.972a1.84 1.84 0 0 0-.684-.696 1.87 1.87 0 0 0-.996-.264q-.3 0-.6.072-.3.06-.624.204-.312.132-.672.336l-.528-.708.492-3.564h4.536v.876h-4.044l.3-.216-.444 2.94-.276-.192q.192-.156.516-.3a3.7 3.7 0 0 1 .708-.228q.396-.096.768-.096.78 0 1.392.36.612.348.972.972.36.612.36 1.416 0 .84-.396 1.512-.396.66-1.08 1.056a3.1 3.1 0 0 1-1.536.384m7.409.036q-.984 0-1.68-.516-.684-.516-1.056-1.476-.36-.972-.36-2.328t.36-2.316q.372-.972 1.056-1.488.696-.516 1.68-.516.972 0 1.668.516t1.056 1.488q.372.96.372 2.316t-.372 2.328q-.36.96-1.056 1.476t-1.668.516m0-.876q1.032 0 1.584-.9.564-.9.564-2.544t-.564-2.544q-.552-.9-1.584-.9-1.044 0-1.608.9-.552.9-.552 2.544t.552 2.544q.564.9 1.608.9m7.347.876q-.984 0-1.68-.516-.684-.516-1.056-1.476-.36-.972-.36-2.328t.36-2.316q.372-.972 1.056-1.488.696-.516 1.68-.516.972 0 1.668.516t1.056 1.488q.372.96.372 2.316t-.372 2.328q-.36.96-1.056 1.476t-1.668.516m0-.876q1.032 0 1.584-.9.564-.9.564-2.544t-.564-2.544q-.552-.9-1.584-.9-1.044 0-1.608.9-.552.9-.552 2.544t.552 2.544q.564.9 1.608.9"/><g clip-path="url(#d)"><path fill="#fff" fill-opacity=".17" d="M116 256h358v1H116z"/></g><path fill="#f8f5ee" d="m65.374 308-.288-.696 2.832-3.18q.204-.228.42-.516.228-.288.42-.6.204-.324.324-.636t.12-.612q0-.444-.192-.744a1.25 1.25 0 0 0-.552-.48 1.86 1.86 0 0 0-.816-.168q-.408 0-.804.192a2.15 2.15 0 0 0-.72.588q-.324.396-.504 1.008l-.744-.444q.216-.732.636-1.224.42-.504.996-.756a3.05 3.05 0 0 1 1.236-.252q.696 0 1.248.288a2.15 2.15 0 0 1 1.2 1.956q0 .288-.072.576-.06.288-.192.576a5 5 0 0 1-.324.588q-.18.3-.432.612-.24.312-.54.648l-2.412 2.688-.144-.312h4.38v.9zm8.542.084a3.05 3.05 0 0 1-1.5-.372 3.2 3.2 0 0 1-1.116-1.092l.564-.612q.504.672 1.008.936.516.252 1.056.252.576 0 1.044-.264.48-.276.756-.732a1.9 1.9 0 0 0 .276-1.008q0-.54-.252-.972a1.84 1.84 0 0 0-.684-.696 1.87 1.87 0 0 0-.996-.264q-.3 0-.6.072-.3.06-.624.204-.312.132-.672.336l-.528-.708.492-3.564h4.536v.876h-4.044l.3-.216-.444 2.94-.276-.192q.192-.156.516-.3a3.7 3.7 0 0 1 .708-.228q.396-.096.768-.096.78 0 1.392.36.612.348.972.972.36.612.36 1.416 0 .84-.396 1.512-.396.66-1.08 1.056a3.1 3.1 0 0 1-1.536.384m7.408.036q-.984 0-1.68-.516-.684-.516-1.056-1.476-.36-.972-.36-2.328t.36-2.316q.372-.972 1.056-1.488.696-.516 1.68-.516.972 0 1.668.516t1.056 1.488q.372.96.372 2.316t-.372 2.328q-.36.96-1.056 1.476t-1.668.516m0-.876q1.032 0 1.584-.9.564-.9.564-2.544t-.564-2.544q-.552-.9-1.584-.9-1.044 0-1.608.9-.552.9-.552 2.544t.552 2.544q.564.9 1.608.9"/><g clip-path="url(#e)"><path fill="#fff" fill-opacity=".17" d="M116 302h358v1H116z"/></g><path fill="#f8f5ee" d="M68.324 354.12q-.984 0-1.68-.516-.684-.516-1.056-1.476-.36-.972-.36-2.328t.36-2.316q.372-.972 1.056-1.488.696-.516 1.68-.516.972 0 1.668.516t1.056 1.488q.372.96.372 2.316t-.372 2.328q-.36.96-1.056 1.476t-1.668.516m0-.876q1.032 0 1.584-.9.564-.9.564-2.544t-.564-2.544q-.552-.9-1.584-.9-1.044 0-1.608.9-.552.9-.552 2.544t.552 2.544q.564.9 1.608.9"/><g clip-path="url(#f)"><path fill="#fff" fill-opacity=".17" d="M116 348h358v1H116z"/></g><mask id="g" fill="#fff"><path d="M280.568 230.576a4.5 4.5 0 0 1 4.48 4.086L414.12 251.05a4.502 4.502 0 0 1 8.996.22 4.5 4.5 0 0 1-8.604 1.845l-129.726-16.47a4.5 4.5 0 0 1-7.263 1.744L152.419 289.06a4.5 4.5 0 1 1-1.468-1.564l125.42-50.797a4.5 4.5 0 0 1 4.197-6.123"/></mask><path fill="#fff" d="M280.568 230.576a4.5 4.5 0 0 1 4.48 4.086L414.12 251.05a4.502 4.502 0 0 1 8.996.22 4.5 4.5 0 0 1-8.604 1.845l-129.726-16.47a4.5 4.5 0 0 1-7.263 1.744L152.419 289.06a4.5 4.5 0 1 1-1.468-1.564l125.42-50.797a4.5 4.5 0 0 1 4.197-6.123"/><path fill="#ff9fcc" d="m285.048 234.662-1.992.182.146 1.6 1.594.202zM414.12 251.05l-.252 1.984 2.146.273.104-2.161zm4.496-4.28v-2zm0 9v2zm-4.104-2.655 1.823-.821-.46-1.021-1.111-.142zm-129.726-16.47.252-1.984-1.573-.2-.553 1.487zm-7.263 1.744 1.354-1.472-.931-.857-1.173.475zM152.419 289.06l-.751-1.854-2.111.855 1.121 1.983zm-1.468-1.564-1.091 1.677.875.569.967-.392zm125.42-50.797.751 1.854 1.825-.739-.711-1.836zm-.303-1.623h-2zm4.5-4.5v2a2.5 2.5 0 0 1 2.488 2.268l1.992-.182 1.992-.182a6.5 6.5 0 0 0-6.472-5.904zm4.48 4.086-.252 1.984 129.072 16.388.252-1.984.252-1.984L285.3 232.678zM414.12 251.05l1.998.096a2.5 2.5 0 0 1 2.498-2.376v-4a6.5 6.5 0 0 0-6.494 6.184zm4.496-4.28v2a2.5 2.5 0 0 1 2.5 2.5h4a6.5 6.5 0 0 0-6.5-6.5zm4.5 4.5h-2a2.5 2.5 0 0 1-2.5 2.5v4a6.5 6.5 0 0 0 6.5-6.5zm-4.5 4.5v-2a2.5 2.5 0 0 1-2.281-1.476l-1.823.821-1.824.822a6.5 6.5 0 0 0 5.928 3.833zm-4.104-2.655.252-1.984-129.726-16.47-.252 1.984-.252 1.984L414.26 255.1zm-129.726-16.47-1.874-.697a2.5 2.5 0 0 1-2.344 1.628v4a6.5 6.5 0 0 0 6.093-4.234zm-4.218 2.931v-2a2.5 2.5 0 0 1-1.691-.659l-1.354 1.472-1.353 1.472a6.48 6.48 0 0 0 4.398 1.715zm-3.045-1.187-.75-1.854-125.105 50.671.751 1.854.751 1.854 125.104-50.671zM152.419 289.06l-1.741.984c.205.363.322.779.322 1.226h4c0-1.16-.307-2.251-.84-3.194zm.581 2.21h-2a2.5 2.5 0 0 1-2.5 2.5v4a6.5 6.5 0 0 0 6.5-6.5zm-4.5 4.5v-2a2.5 2.5 0 0 1-2.5-2.5h-4a6.5 6.5 0 0 0 6.5 6.5zm-4.5-4.5h2a2.5 2.5 0 0 1 2.5-2.5v-4a6.5 6.5 0 0 0-6.5 6.5zm4.5-4.5v2c.504 0 .968.148 1.36.403l1.091-1.677 1.091-1.676a6.5 6.5 0 0 0-3.542-1.05zm2.451.726.751 1.854 125.42-50.797-.751-1.854-.751-1.853-125.42 50.797zm125.42-50.797 1.865-.721a2.5 2.5 0 0 1-.168-.902h-4c0 .826.156 1.618.438 2.345zm-.303-1.623 2 .001a2.5 2.5 0 0 1 2.5-2.501v-4a6.5 6.5 0 0 0-6.5 6.5z" mask="url(#g)"/><mask id="h" fill="#fff"><path d="M280.568 280.576a4.5 4.5 0 0 1 4.48 4.086L414.12 301.05a4.502 4.502 0 0 1 8.996.22 4.5 4.5 0 0 1-8.604 1.845l-129.726-16.47a4.5 4.5 0 0 1-8.047.796l-123.741 23.767.002.062a4.5 4.5 0 1 1-.473-2.007l123.564-23.734a4.5 4.5 0 0 1 4.477-4.953"/></mask><path fill="#fff" d="M280.568 280.576a4.5 4.5 0 0 1 4.48 4.086L414.12 301.05a4.502 4.502 0 0 1 8.996.22 4.5 4.5 0 0 1-8.604 1.845l-129.726-16.47a4.5 4.5 0 0 1-8.047.796l-123.741 23.767.002.062a4.5 4.5 0 1 1-.473-2.007l123.564-23.734a4.5 4.5 0 0 1 4.477-4.953"/><path fill="#bc8fc3" d="m285.048 284.662-1.992.182.146 1.6 1.594.202zM414.12 301.05l-.252 1.984 2.146.273.104-2.161zm4.496-4.28v-2zm0 9v2zm-4.104-2.655 1.823-.821-.46-1.021-1.111-.142zm-129.726-16.47.252-1.984-1.573-.2-.553 1.487zm-8.047.796 1.701-1.053-.725-1.171-1.353.26zm-123.741 23.767-.377-1.964-1.645.316.022 1.675zm-.471-1.945-1.789.893.677 1.357 1.49-.286zm123.564-23.734.377 1.964 1.794-.345-.181-1.818zm-.023-.453h-2zm4.5-4.5v2a2.5 2.5 0 0 1 2.488 2.268l1.992-.182 1.992-.182a6.5 6.5 0 0 0-6.472-5.904zm4.48 4.086-.252 1.984 129.072 16.388.252-1.984.252-1.984L285.3 282.678zM414.12 301.05l1.998.096a2.5 2.5 0 0 1 2.498-2.376v-4a6.5 6.5 0 0 0-6.494 6.184zm4.496-4.28v2a2.5 2.5 0 0 1 2.5 2.5h4a6.5 6.5 0 0 0-6.5-6.5zm4.5 4.5h-2a2.5 2.5 0 0 1-2.5 2.5v4a6.5 6.5 0 0 0 6.5-6.5zm-4.5 4.5v-2a2.5 2.5 0 0 1-2.281-1.476l-1.823.821-1.824.822a6.5 6.5 0 0 0 5.928 3.833zm-4.104-2.655.252-1.984-129.726-16.47-.252 1.984-.252 1.984L414.26 305.1zm-129.726-16.47-1.874-.697a2.5 2.5 0 0 1-2.344 1.628v4a6.5 6.5 0 0 0 6.093-4.234zm-4.218 2.931v-2c-.896 0-1.684-.47-2.128-1.188l-1.701 1.053-1.701 1.052a6.5 6.5 0 0 0 5.53 3.083zm-3.829-2.135-.377-1.964-123.741 23.767.377 1.964.377 1.964 123.742-23.767zm-123.741 23.767-2 .027.002.065.001.018v.009-.01l-.001-.047h4l-.001-.079-.002-.04v-.004l.001.034zm.002.062h-2a2.5 2.5 0 0 1-2.5 2.5v4a6.5 6.5 0 0 0 6.5-6.5zm-4.5 4.5v-2a2.5 2.5 0 0 1-2.5-2.5h-4a6.5 6.5 0 0 0 6.5 6.5zm-4.5-4.5h2a2.5 2.5 0 0 1 2.5-2.5v-4a6.5 6.5 0 0 0-6.5 6.5zm4.5-4.5v2a2.5 2.5 0 0 1 2.238 1.386l1.789-.893 1.79-.893a6.5 6.5 0 0 0-5.817-3.6zm4.027 2.493.378 1.964 123.563-23.734-.377-1.964-.377-1.965-123.564 23.735zm123.564-23.734 1.99-.199a3 3 0 0 1-.013-.254h-4q0 .33.033.651zm-.023-.453 2 .001a2.5 2.5 0 0 1 2.5-2.501v-4a6.5 6.5 0 0 0-6.5 6.5z" mask="url(#h)"/><mask id="i" fill="#fff"><path d="M280.568 180.576a4.5 4.5 0 0 1 4.498 4.438l129.332 34.682a4.5 4.5 0 1 1-.262 2.001l-129.487-34.726a4.498 4.498 0 0 1-7.63.87l-124.041 33.867a4.5 4.5 0 1 1-.257-2.003l123.443-33.704a4.5 4.5 0 0 1 4.404-5.425"/></mask><path fill="#fff" d="M280.568 180.576a4.5 4.5 0 0 1 4.498 4.438l129.332 34.682a4.5 4.5 0 1 1-.262 2.001l-129.487-34.726a4.498 4.498 0 0 1-7.63.87l-124.041 33.867a4.5 4.5 0 1 1-.257-2.003l123.443-33.704a4.5 4.5 0 0 1 4.404-5.425"/><path fill="#ff7d4c" d="m285.066 185.014-1.999.027.02 1.513 1.461.392zm129.332 34.682-.518 1.931 1.756.471.636-1.703zm4.218-2.926v-2zm0 9v2zm-4.48-4.073 1.991-.188-.13-1.384-1.343-.36zm-129.487-34.726.518-1.932-1.623-.435-.708 1.524zm-7.63.87 1.577-1.23-.819-1.05-1.285.351zm-124.041 33.867-.527-1.929-1.331.363-.133 1.374zm-4.478 4.062v2zm0-9v-2zm4.221 2.935-1.876.696.637 1.716 1.765-.482zm123.443-33.704.527 1.93 1.816-.496-.385-1.843zm-.096-.925h-2zm4.5-4.5v2a2.5 2.5 0 0 1 2.499 2.465l1.999-.027 2-.027a6.5 6.5 0 0 0-6.498-6.411zm4.498 4.438-.518 1.932 129.332 34.681.518-1.931.518-1.932-129.332-34.682zm129.332 34.682 1.874.699a2.5 2.5 0 0 1 2.344-1.625v-4a6.5 6.5 0 0 0-6.091 4.226zm4.218-2.926v2a2.5 2.5 0 0 1 2.5 2.5h4a6.5 6.5 0 0 0-6.5-6.5zm4.5 4.5h-2a2.5 2.5 0 0 1-2.5 2.5v4a6.5 6.5 0 0 0 6.5-6.5zm-4.5 4.5v-2a2.5 2.5 0 0 1-2.489-2.261l-1.991.188-1.991.187a6.5 6.5 0 0 0 6.471 5.886zm-4.48-4.073.518-1.932-129.487-34.726-.518 1.932-.518 1.932 129.487 34.725zm-129.487-34.726-1.813-.843a2.5 2.5 0 0 1-2.268 1.448v4a6.5 6.5 0 0 0 5.895-3.762zm-4.081 2.605v-2a2.49 2.49 0 0 1-1.972-.965l-1.577 1.23-1.578 1.23a6.5 6.5 0 0 0 5.127 2.505zm-3.549-1.735-.527-1.929-124.041 33.867.527 1.929.526 1.93 124.041-33.868zm-124.041 33.867-1.991-.192a2.5 2.5 0 0 1-2.487 2.254v4a6.5 6.5 0 0 0 6.468-5.869zm-4.478 4.062v-2a2.5 2.5 0 0 1-2.5-2.5h-4a6.5 6.5 0 0 0 6.5 6.5zm-4.5-4.5h2a2.5 2.5 0 0 1 2.5-2.5v-4a6.5 6.5 0 0 0-6.5 6.5zm4.5-4.5v2a2.5 2.5 0 0 1 2.345 1.631l1.876-.696 1.875-.695a6.5 6.5 0 0 0-6.096-4.24zm4.221 2.935.526 1.93 123.444-33.704-.527-1.93-.527-1.929-123.443 33.704zm123.443-33.704 1.958-.409a2.5 2.5 0 0 1-.054-.516h-4c0 .458.049.904.138 1.334zm-.096-.925 2 .001a2.5 2.5 0 0 1 2.5-2.501v-4a6.5 6.5 0 0 0-6.5 6.5z" mask="url(#i)"/></g><g filter="url(#j)"><rect width="348" height="310" x="311.999" y="175" fill="#d6c2d9" rx="16"/><path fill="#46062b" d="M337.34 219v-14h5.96c2.78 0 4.32 1.3 4.32 3.58 0 1.26-.6 2.4-1.74 2.98 1.56.46 2.5 1.66 2.5 3.26 0 2.64-1.98 4.18-4.9 4.18zm6.22-2.44c1.3 0 2-.88 2-1.9 0-1.04-.74-1.78-1.94-1.78h-3.54v3.68zm-.48-5.8c1.14 0 1.78-.72 1.78-1.64 0-.98-.64-1.7-1.78-1.7h-3v3.34zm7.186 8.24v-10.7h2.68v1.86c.6-1.26 1.82-2.06 2.94-2.06.34 0 .66.06.9.14v2.88c-.48-.2-.92-.3-1.44-.3-1.36 0-2.4 1.04-2.4 2.92V219zm10.456.2c-1.92 0-3.38-1.3-3.38-3.26 0-1.8 1.28-3.26 3.86-3.26h2.72v-.04c0-1.62-1.06-2.24-2.44-2.24-.94 0-2.02.32-3.14 1.04v-2.36c1.24-.7 2.6-.96 3.86-.96 2.5 0 4.36 1.38 4.36 4.14v4.1c0 .76.44.94 1.04.7v1.78c-.34.18-.98.36-1.62.36-1.08 0-1.82-.58-2-1.72-.72 1.12-1.96 1.72-3.26 1.72m.78-2.1c1.14 0 2.4-.84 2.4-2.3v-.54l-2.26.08c-1.04.04-1.64.62-1.64 1.44s.62 1.32 1.5 1.32m7.709 1.9v-10.7h2.68v1.46c.72-1.08 1.9-1.66 3.28-1.66 2.36 0 3.7 1.72 3.7 4.2v6.7h-2.68v-6.22c0-1.54-.78-2.28-2-2.28-1.24 0-2.3.98-2.3 2.48V219zm16.314.2c-2.78 0-5.02-2.34-5.02-5.56s2.24-5.54 5.02-5.54c1.48 0 2.76.6 3.44 1.64v-5.34h2.68V219h-2.68v-1.44c-.68 1.04-1.96 1.64-3.44 1.64m.6-2.38c1.68 0 2.94-1.38 2.94-3.16 0-1.8-1.26-3.18-2.94-3.18s-2.96 1.38-2.96 3.18c0 1.78 1.28 3.16 2.96 3.16m16.817 2.18-5.24-14h3l3.88 10.9 3.84-10.9h3.04l-5.24 14zm9.843 0v-10.7h2.68V219zm1.34-11.88c-.9 0-1.64-.76-1.64-1.66 0-.88.74-1.62 1.64-1.62s1.64.74 1.64 1.62c0 .9-.74 1.66-1.64 1.66m6.939 12.08c-1.52 0-2.76-.44-3.68-1v-2.38c.72.48 2.12 1.2 3.64 1.2.98 0 1.78-.38 1.78-1.08 0-.58-.46-.92-1.26-1.12l-1.18-.3c-1.72-.42-3.1-1.18-3.1-3.12 0-2.18 2-3.3 4.14-3.3 1.22 0 2.48.36 3.54.92v2.3c-1.02-.64-2.32-1.08-3.5-1.08-.96 0-1.58.4-1.58 1.04 0 .52.5.9 1.4 1.12l1.08.26c1.68.4 3.12 1.24 3.12 3.12 0 2.28-2.1 3.42-4.4 3.42m6.174-.2v-10.7h2.68V219zm1.34-11.88c-.9 0-1.64-.76-1.64-1.66 0-.88.74-1.62 1.64-1.62s1.64.74 1.64 1.62c0 .9-.74 1.66-1.64 1.66m9.719 12.08c-1.48 0-2.76-.6-3.44-1.64V219h-2.68v-14.6h2.68v5.34c.68-1.04 1.96-1.64 3.44-1.64 2.78 0 5.02 2.32 5.02 5.54s-2.24 5.56-5.02 5.56m-.6-2.38c1.68 0 2.96-1.38 2.96-3.16 0-1.8-1.28-3.18-2.96-3.18s-2.94 1.38-2.94 3.18c0 1.78 1.26 3.16 2.94 3.16m7.354 2.18v-10.7h2.68V219zm1.34-11.88c-.9 0-1.64-.76-1.64-1.66 0-.88.74-1.62 1.64-1.62s1.64.74 1.64 1.62c0 .9-.74 1.66-1.64 1.66m6.599 12.08c-1.86 0-2.88-1.26-2.88-3.2v-11.6h2.68v11.28c0 .82.46 1.1.96 1.1.26 0 .46-.06.64-.12v2.3c-.38.16-.88.24-1.4.24m2.94-.2v-10.7h2.68V219zm1.34-11.88c-.9 0-1.64-.76-1.64-1.66 0-.88.74-1.62 1.64-1.62s1.64.74 1.64 1.62c0 .9-.74 1.66-1.64 1.66m8.039 12.08c-2.3 0-3.58-1.46-3.58-3.82v-4.82h-1.54v-2.26h1.54v-2.6h2.68v2.6h2.5v2.26h-2.5v4.56c0 1.12.62 1.62 1.5 1.62.34 0 .72-.08 1-.18v2.36c-.42.18-1.08.28-1.6.28m5.331 4.36c-.56 0-1.1-.1-1.48-.26V221c.34.12.76.18 1.08.18.78 0 1.36-.34 1.72-1.28l.44-1.04-4.56-10.56h2.96l2.94 7.42 2.8-7.42h2.92l-4.98 12.14c-.8 2.02-1.92 3.12-3.84 3.12"/><circle cx="339.999" cy="258" r="4" fill="#bc8fc3"/><path fill="#46062b" d="M355.671 263.12q-.984 0-1.68-.516-.684-.516-1.056-1.476-.36-.972-.36-2.328t.36-2.316q.372-.972 1.056-1.488.696-.516 1.68-.516.972 0 1.668.516t1.056 1.488q.372.96.372 2.316t-.372 2.328q-.36.96-1.056 1.476t-1.668.516m0-.876q1.032 0 1.584-.9.564-.9.564-2.544t-.564-2.544q-.552-.9-1.584-.9-1.044 0-1.608.9-.552.9-.552 2.544t.552 2.544q.564.9 1.608.9m4.348-2.136v-.9h3.384v.9zm7.122 3.012q-.888 0-1.572-.396-.672-.408-1.26-1.38l.768-.48q.324.516.66.828.348.3.708.432t.768.132q.504 0 .924-.24a1.9 1.9 0 0 0 .672-.672 1.87 1.87 0 0 0 .252-.96q0-.54-.228-.948a1.6 1.6 0 0 0-.636-.636 1.8 1.8 0 0 0-.924-.228 2 2 0 0 0-.42.048 2 2 0 0 0-.48.156q-.252.108-.552.324l-.276-.744 2.964-3.228.204.348h-3.816v-.876h4.536l.24.48-2.88 3.072-.24-.24q.156-.096.372-.156.216-.072.432-.072.552 0 1.032.204t.828.576a2.63 2.63 0 0 1 .768 1.884q0 .78-.372 1.416a2.77 2.77 0 0 1-1.02.996q-.648.36-1.452.36m6.352 0q-.888 0-1.572-.396-.672-.408-1.26-1.38l.768-.48q.324.516.66.828.348.3.708.432t.768.132q.504 0 .924-.24a1.9 1.9 0 0 0 .672-.672 1.87 1.87 0 0 0 .252-.96q0-.54-.228-.948a1.6 1.6 0 0 0-.636-.636 1.8 1.8 0 0 0-.924-.228 2 2 0 0 0-.42.048 2 2 0 0 0-.48.156q-.252.108-.552.324l-.276-.744 2.964-3.228.204.348h-3.816v-.876h4.536l.24.48-2.88 3.072-.24-.24q.156-.096.372-.156.216-.072.432-.072.552 0 1.032.204t.828.576a2.63 2.63 0 0 1 .768 1.884q0 .78-.372 1.416a2.77 2.77 0 0 1-1.02.996q-.648.36-1.452.36m7.879-.12v-8.4h.936v7.488h4.032V263zm8.974.12q-.936 0-1.668-.42-.72-.42-1.14-1.164-.408-.744-.408-1.692 0-.936.408-1.668a3.1 3.1 0 0 1 1.14-1.152q.732-.42 1.668-.42.924 0 1.644.42.732.42 1.14 1.152.42.732.42 1.668 0 .948-.42 1.692a2.95 2.95 0 0 1-1.14 1.164q-.72.42-1.644.42m0-.852q.66 0 1.176-.312.516-.324.804-.864.288-.552.288-1.248t-.288-1.236-.804-.84a2.23 2.23 0 0 0-1.176-.312q-.66 0-1.188.312-.516.3-.816.852-.288.54-.276 1.224-.012.696.276 1.248.3.54.816.864a2.3 2.3 0 0 0 1.188.312m5.759.732-2.172-6.264.96-.012 1.692 5.1-.3-.024 1.836-4.104h.54l1.848 4.104-.36.024 1.728-5.088h.948L400.653 263h-.528l-1.944-4.464.36.024-1.884 4.44z"/><circle cx="431.999" cy="258" r="4" fill="#84408e"/><path fill="#46062b" d="M447.071 263.12q-.888 0-1.572-.396-.672-.408-1.26-1.38l.768-.48q.324.516.66.828.348.3.708.432t.768.132q.504 0 .924-.24a1.9 1.9 0 0 0 .672-.672 1.87 1.87 0 0 0 .252-.96q0-.54-.228-.948a1.6 1.6 0 0 0-.636-.636 1.8 1.8 0 0 0-.924-.228 2 2 0 0 0-.42.048 2 2 0 0 0-.48.156q-.252.108-.552.324l-.276-.744 2.964-3.228.204.348h-3.816v-.876h4.536l.24.48-2.88 3.072-.24-.24q.156-.096.372-.156.216-.072.432-.072.552 0 1.032.204t.828.576a2.63 2.63 0 0 1 .768 1.884q0 .78-.372 1.416a2.77 2.77 0 0 1-1.02.996q-.648.36-1.452.36m7.84-.12v-7.284l.264.084-3.48 4.248-.096-.216h5.688v.888h-6.036l-.444-.888 4.284-5.232h.732v8.4zm3.553-2.892v-.9h3.384v.9zm7.555 2.952q-.624 0-1.164-.216a2.8 2.8 0 0 1-.924-.612 3 3 0 0 1-.6-.948 3.3 3.3 0 0 1-.216-1.2q0-.312.084-.684a6 6 0 0 1 .252-.828q.168-.456.408-.948t.552-1.02l1.224-2.076h.912l.048.12-1.356 2.28q-.288.48-.528.948a20 20 0 0 0-.432.948q-.204.468-.396.96l-.168-.864a4 4 0 0 1 .492-.672q.276-.288.588-.492.312-.216.66-.312.36-.108.732-.108.732 0 1.32.384.6.372.96.996t.36 1.392q0 .84-.372 1.512t-1.02 1.056a2.7 2.7 0 0 1-1.416.384m-.036-.876q.54 0 .972-.264t.684-.708q.252-.456.252-1.02 0-.528-.252-.972a1.9 1.9 0 0 0-.684-.72 1.75 1.75 0 0 0-.96-.276q-.564 0-1.008.264a1.96 1.96 0 0 0-.936 1.692q0 .564.252 1.02.252.444.684.72.444.264.996.264m6.926.876q-.624 0-1.164-.216a2.8 2.8 0 0 1-.924-.612 3 3 0 0 1-.6-.948 3.3 3.3 0 0 1-.216-1.2q0-.312.084-.684a6 6 0 0 1 .252-.828q.168-.456.408-.948t.552-1.02l1.224-2.076h.912l.048.12-1.356 2.28q-.288.48-.528.948a20 20 0 0 0-.432.948q-.204.468-.396.96l-.168-.864a4 4 0 0 1 .492-.672q.276-.288.588-.492.312-.216.66-.312.36-.108.732-.108.732 0 1.32.384.6.372.96.996t.36 1.392q0 .84-.372 1.512t-1.02 1.056a2.7 2.7 0 0 1-1.416.384m-.036-.876q.54 0 .972-.264t.684-.708q.252-.456.252-1.02 0-.528-.252-.972a1.9 1.9 0 0 0-.684-.72 1.75 1.75 0 0 0-.96-.276q-.564 0-1.008.264a1.96 1.96 0 0 0-.936 1.692q0 .564.252 1.02.252.444.684.72.444.264.996.264m8.022.816v-8.4h.912l3.228 5.244-.432-.012 3.264-5.232h.852v8.4h-.936v-3.84q0-1.08.036-1.944a24 24 0 0 1 .132-1.716l.168.336-3.012 4.728h-.648l-2.928-4.668.132-.396q.096.804.132 1.656.036.84.036 2.004V263zm12.701.12q-.936 0-1.668-.408a2.9 2.9 0 0 1-1.128-1.14q-.408-.732-.408-1.68 0-.732.228-1.32.228-.6.636-1.044.42-.444.996-.684a3.1 3.1 0 0 1 1.248-.252q.636 0 1.152.228.528.228.9.636.384.396.576.948t.168 1.212l-.012.42h-5.22l-.132-.756h4.668l-.216.204v-.288a1.85 1.85 0 0 0-.252-.828 1.77 1.77 0 0 0-.648-.66q-.408-.252-.984-.252-.672 0-1.164.276a1.77 1.77 0 0 0-.756.792q-.264.528-.264 1.308 0 .744.288 1.296.288.54.816.84.54.3 1.296.3.444 0 .876-.144.444-.156.972-.6l.468.648a3 3 0 0 1-.66.492 4.4 4.4 0 0 1-.84.336q-.456.12-.936.12m6.522 0q-.852 0-1.536-.42a3.03 3.03 0 0 1-1.068-1.152q-.384-.744-.384-1.68 0-.948.396-1.68.396-.744 1.068-1.164t1.512-.42q.468 0 .9.144.444.144.792.408.348.252.576.588.228.324.276.684l-.276-.096v-4.212h.9V263h-.888l-.024-1.56.228-.084a1.5 1.5 0 0 1-.276.66 2.5 2.5 0 0 1-.552.564q-.336.252-.768.396-.42.144-.876.144m.132-.828a2.04 2.04 0 0 0 1.116-.312q.492-.312.768-.864.288-.552.288-1.26t-.288-1.248a2.1 2.1 0 0 0-.768-.864 2 2 0 0 0-1.116-.324q-.648 0-1.14.324-.48.312-.768.864-.276.54-.276 1.248 0 .696.276 1.248t.768.876q.492.312 1.14.312m5.017.708v-6.264h.9V263zm.444-7.62q-.336 0-.516-.168a.68.68 0 0 1-.168-.48q0-.3.18-.48t.504-.18.504.18q.18.168.18.48 0 .288-.18.468t-.504.18m4.642 7.74q-.72 0-1.224-.288a1.95 1.95 0 0 1-.756-.864q-.252-.564-.252-1.404v-3.828h.912v3.648q0 .636.168 1.068.18.42.528.636.36.216.876.216.396 0 .732-.132.336-.144.588-.384t.396-.564.144-.684v-3.804h.9V263h-.888l-.036-1.32.144-.072q-.144.42-.48.768a2.6 2.6 0 0 1-.804.54q-.456.204-.948.204m4.752-.12v-6.264h.9l.024 1.428-.18.06q.096-.36.312-.648a2.36 2.36 0 0 1 1.224-.84q.372-.12.78-.12.492 0 .876.168.396.156.66.552.276.384.42 1.02l-.216-.108.084-.204q.12-.276.348-.528.24-.264.54-.468.312-.204.672-.312.372-.12.756-.12.66 0 1.116.288.456.276.684.852.24.576.24 1.464V263h-.924v-3.732q0-.624-.156-1.02a1.16 1.16 0 0 0-.468-.588q-.3-.204-.768-.204-.408 0-.756.144-.336.132-.588.384a1.9 1.9 0 0 0-.384.552 1.7 1.7 0 0 0-.132.672V263h-.912v-3.744q0-.6-.168-.996a1.23 1.23 0 0 0-.468-.6q-.312-.204-.768-.204-.396 0-.732.144-.336.132-.588.372a1.9 1.9 0 0 0-.384.552 1.7 1.7 0 0 0-.132.672V263z"/><circle cx="553.999" cy="258" r="4" fill="#6e2c78"/><path fill="#46062b" d="M569.503 263.06q-.624 0-1.164-.216a2.8 2.8 0 0 1-.924-.612 3 3 0 0 1-.6-.948 3.3 3.3 0 0 1-.216-1.2q0-.312.084-.684a6 6 0 0 1 .252-.828q.168-.456.408-.948t.552-1.02l1.224-2.076h.912l.048.12-1.356 2.28q-.288.48-.528.948a20 20 0 0 0-.432.948q-.204.468-.396.96l-.168-.864a4 4 0 0 1 .492-.672q.276-.288.588-.492.312-.216.66-.312.36-.108.732-.108.732 0 1.32.384.6.372.96.996t.36 1.392q0 .84-.372 1.512t-1.02 1.056a2.7 2.7 0 0 1-1.416.384m-.036-.876q.54 0 .972-.264t.684-.708q.252-.456.252-1.02 0-.528-.252-.972a1.9 1.9 0 0 0-.684-.72 1.75 1.75 0 0 0-.96-.276q-.564 0-1.008.264a1.96 1.96 0 0 0-.936 1.692q0 .564.252 1.02.252.444.684.72.444.264.996.264m4.707.816 3.528-7.848.156.324h-4.5v-.876h5.064l.156.732-3.384 7.668zm5.575-2.892v-.9h3.384v.9zm6.535 2.484v-7.248l.348.264-1.56.936-.276-.84 2.076-1.224h.36v8.112zm-1.236.408v-.912h3.444V263zm7.92.12q-.984 0-1.68-.516-.684-.516-1.056-1.476-.36-.972-.36-2.328t.36-2.316q.372-.972 1.056-1.488.696-.516 1.68-.516.972 0 1.668.516t1.056 1.488q.372.96.372 2.316t-.372 2.328q-.36.96-1.056 1.476t-1.668.516m0-.876q1.032 0 1.584-.9.564-.9.564-2.544t-.564-2.544q-.552-.9-1.584-.9-1.044 0-1.608.9-.552.9-.552 2.544t.552 2.544q.564.9 1.608.9m7.348.876q-.984 0-1.68-.516-.684-.516-1.056-1.476-.36-.972-.36-2.328t.36-2.316q.372-.972 1.056-1.488.696-.516 1.68-.516.972 0 1.668.516t1.056 1.488q.372.96.372 2.316t-.372 2.328q-.36.96-1.056 1.476t-1.668.516m0-.876q1.032 0 1.584-.9.564-.9.564-2.544t-.564-2.544q-.552-.9-1.584-.9-1.044 0-1.608.9-.552.9-.552 2.544t.552 2.544q.564.9 1.608.9m13.89.756v-8.4h.936v8.4zm-5.616 0v-8.4h.936v8.4zm.456-3.732v-.912h5.556v.912zm8.448 3.732v-6.264h.9V263zm.444-7.62q-.336 0-.516-.168a.68.68 0 0 1-.168-.48q0-.3.18-.48t.504-.18.504.18q.18.168.18.48 0 .288-.18.468t-.504.18m5.121 10.38q-.696 0-1.32-.216a3.5 3.5 0 0 1-1.032-.54l.36-.756q.24.192.552.336.324.156.696.24.372.096.756.096.696 0 1.176-.264a1.66 1.66 0 0 0 .744-.756q.264-.504.264-1.248v-1.2l.144-.036a1.9 1.9 0 0 1-.468.852q-.36.384-.876.624a2.7 2.7 0 0 1-1.092.228q-.876 0-1.572-.42a3 3 0 0 1-1.08-1.152q-.396-.744-.396-1.68 0-.948.396-1.68a3.06 3.06 0 0 1 1.092-1.164q.684-.42 1.536-.42.372 0 .72.096.348.084.636.252.3.168.54.384t.396.468q.168.252.24.516l-.252-.036.036-1.548h.9v5.88q0 .756-.216 1.332-.216.588-.636.984-.408.408-.984.612a3.5 3.5 0 0 1-1.26.216m.012-3.504q.636 0 1.128-.3.504-.312.792-.852t.288-1.248q0-.696-.288-1.236a2.1 2.1 0 0 0-.78-.852 2.1 2.1 0 0 0-1.14-.312q-.648 0-1.152.312a2.23 2.23 0 0 0-.78.852q-.288.54-.288 1.236 0 .684.276 1.236.288.54.78.852.504.312 1.164.312m4.835.744v-8.88h.9v3.984l-.18.18q.132-.492.492-.864.36-.384.84-.6.492-.216.996-.216.72 0 1.2.276t.708.852q.24.576.24 1.464V263h-.912v-3.756q0-.624-.168-1.02a1.12 1.12 0 0 0-.492-.6q-.336-.192-.84-.18-.396 0-.744.144a1.77 1.77 0 0 0-.996.924 1.6 1.6 0 0 0-.144.672V263zM447.525 424.736q-2.433 0-4.416-.992-1.953-1.024-3.264-2.944l2.592-2.88q1.375 1.536 2.496 2.08a5.6 5.6 0 0 0 2.464.544q1.119 0 2.016-.448a3.64 3.64 0 0 0 1.408-1.312 3.5 3.5 0 0 0 .512-1.856q0-1.057-.512-1.888a3.7 3.7 0 0 0-1.376-1.312q-.832-.512-1.92-.512-.705 0-1.312.128a5.6 5.6 0 0 0-1.344.416q-.736.288-1.792.864l-2.176-2.88 1.376-9.76h12.608v4.128h-10.176l1.184-1.408-1.056 7.104-1.536-.736q.48-.448 1.312-.832a8.6 8.6 0 0 1 1.856-.64 8.2 8.2 0 0 1 1.984-.256q2.112 0 3.744.96a6.9 6.9 0 0 1 2.624 2.688q.992 1.696.992 3.904t-1.088 4q-1.089 1.76-2.976 2.816-1.889 1.024-4.224 1.024m12.989-.224 9.056-20.352 1.152 2.08h-11.584v-4.256h14.368l.48 2.464-8.576 20.064zm15.992.352q-1.248 0-1.92-.704-.672-.705-.672-2.016 0-1.185.704-1.92.736-.768 1.888-.768 1.216 0 1.888.704.672.703.672 1.984 0 1.216-.704 1.984-.704.736-1.856.736m6.914-.352 9.056-20.352 1.152 2.08h-11.584v-4.256h14.368l.48 2.464-8.576 20.064zm23.434.096q-2.24 0-4.064-.864-1.824-.897-2.912-2.4a5.6 5.6 0 0 1-1.088-3.36q0-1.152.288-2.112.32-.96.928-1.728.639-.768 1.536-1.344a10 10 0 0 1 2.08-.992l-.32 1.12a8 8 0 0 1-1.6-.832 6.3 6.3 0 0 1-1.216-1.152 4.6 4.6 0 0 1-.768-1.376 5 5 0 0 1-.256-1.6q0-1.728.992-3.104.991-1.377 2.656-2.176 1.695-.832 3.744-.832 2.047 0 3.712.832 1.663.8 2.656 2.176a5.18 5.18 0 0 1 .992 3.104 4.8 4.8 0 0 1-.256 1.568q-.225.735-.736 1.376-.48.607-1.216 1.12-.705.512-1.632.896l-.224-.992a7.2 7.2 0 0 1 1.92.896q.895.543 1.504 1.344.64.768.992 1.728.351.96.352 2.08a5.65 5.65 0 0 1-1.088 3.392q-1.089 1.504-2.912 2.368-1.824.864-4.064.864m0-3.936q.96 0 1.76-.384.8-.385 1.248-1.024a2.7 2.7 0 0 0 .448-1.536q0-.897-.448-1.568a3.2 3.2 0 0 0-1.248-1.12q-.768-.416-1.76-.416-.993 0-1.792.416-.769.415-1.216 1.12-.448.671-.448 1.568 0 .831.448 1.504.447.639 1.216 1.056.8.384 1.792.384m0-9.952q.864 0 1.536-.32a2.9 2.9 0 0 0 1.056-.896q.416-.576.416-1.344 0-.736-.416-1.312a2.7 2.7 0 0 0-1.056-.96q-.672-.352-1.536-.352t-1.568.352q-.672.351-1.056.96a2.3 2.3 0 0 0-.384 1.312q0 .768.384 1.344a2.9 2.9 0 0 0 1.056.896q.704.32 1.568.32m12.205 13.792 9.26-14h1.84l-9.36 14zm1.14-6.58q-.9 0-1.6-.48a3.5 3.5 0 0 1-1.08-1.34q-.38-.86-.38-1.96t.38-1.96q.4-.88 1.1-1.36.7-.5 1.6-.5t1.58.5q.7.48 1.08 1.36.4.86.4 1.96 0 1.059-.4 1.92a3.4 3.4 0 0 1-1.1 1.36q-.7.5-1.58.5m.02-1.34q.48 0 .82-.3.36-.3.54-.84.2-.54.2-1.3t-.2-1.3q-.18-.56-.54-.86-.339-.3-.84-.3-.48 0-.84.32-.339.3-.54.84-.2.54-.2 1.3t.2 1.3.54.84q.36.3.86.3m8.84 8.1q-.9 0-1.6-.5a3.5 3.5 0 0 1-1.08-1.34q-.38-.86-.38-1.94 0-1.1.38-1.96.4-.88 1.1-1.36.7-.5 1.6-.5t1.58.5q.7.48 1.08 1.36.4.86.4 1.96 0 1.059-.4 1.92a3.4 3.4 0 0 1-1.1 1.36q-.7.5-1.58.5m.02-1.34q.48 0 .82-.3.36-.3.54-.84.2-.54.2-1.3t-.2-1.3q-.18-.54-.54-.84-.36-.32-.84-.32t-.84.3-.56.86q-.18.54-.18 1.3t.18 1.3q.2.54.56.84t.86.3m-62.489 34.912a5 5 0 0 1-1.484-.21 4 4 0 0 1-1.232-.63 4.9 4.9 0 0 1-.98-1.064l1.036-1.19q.687.98 1.316 1.358.63.378 1.498.378.533 0 .966-.168.434-.168.686-.462t.252-.672q0-.252-.084-.476a1.1 1.1 0 0 0-.266-.406 1.8 1.8 0 0 0-.448-.336 3 3 0 0 0-.63-.266 5.5 5.5 0 0 0-.84-.21 6.3 6.3 0 0 1-1.316-.406 3.1 3.1 0 0 1-.938-.63 2.4 2.4 0 0 1-.56-.854 3.1 3.1 0 0 1-.182-1.092q0-.588.252-1.092.267-.504.714-.868a3.2 3.2 0 0 1 1.078-.574q.616-.21 1.33-.21.756 0 1.386.196.63.197 1.12.588.49.378.812.938l-1.064 1.05a3.2 3.2 0 0 0-.63-.77 2.3 2.3 0 0 0-.77-.476 2.4 2.4 0 0 0-.896-.168 2.5 2.5 0 0 0-.952.168q-.405.168-.644.476a1.12 1.12 0 0 0-.224.7q0 .294.112.546.112.238.336.434.239.181.63.336.393.14.938.252.77.168 1.372.434a4 4 0 0 1 1.022.602q.42.35.63.784.224.434.224.938 0 .938-.434 1.624a2.87 2.87 0 0 1-1.232 1.064q-.797.364-1.904.364m9.689 0a4.7 4.7 0 0 1-1.876-.364 4.35 4.35 0 0 1-1.484-1.036 4.9 4.9 0 0 1-.98-1.61 5.9 5.9 0 0 1-.336-2.03q0-1.05.364-1.946a5.1 5.1 0 0 1 1.036-1.596 4.64 4.64 0 0 1 3.402-1.442q.714 0 1.386.224.686.21 1.232.602.56.378.91.868l-1.008 1.05a4.8 4.8 0 0 0-.826-.672 3.2 3.2 0 0 0-.84-.42 2.7 2.7 0 0 0-.854-.14q-.687 0-1.288.266a3.2 3.2 0 0 0-1.036.714q-.434.462-.686 1.106a3.7 3.7 0 0 0-.252 1.386q0 .798.238 1.456.252.644.7 1.106t1.064.714q.63.238 1.386.238.462 0 .91-.126.447-.126.84-.364t.714-.56l.756 1.232a3.1 3.1 0 0 1-.882.686 5.2 5.2 0 0 1-1.232.49 5.6 5.6 0 0 1-1.358.168m9.628 0q-1.036 0-1.918-.378a4.8 4.8 0 0 1-1.526-1.05 5 5 0 0 1-1.008-1.596 5.6 5.6 0 0 1-.35-2.016q0-1.092.35-2.002a4.8 4.8 0 0 1 1.008-1.596 4.7 4.7 0 0 1 1.526-1.064 4.8 4.8 0 0 1 1.918-.378q1.035 0 1.904.378a4.5 4.5 0 0 1 1.526 1.064q.657.686 1.008 1.61.363.91.364 1.988 0 1.078-.364 2.002a4.75 4.75 0 0 1-1.008 1.596 4.5 4.5 0 0 1-1.526 1.064 4.7 4.7 0 0 1-1.904.378m0-1.47a3.13 3.13 0 0 0 2.338-1.008q.433-.49.672-1.134.252-.659.252-1.428 0-.77-.252-1.414a3.4 3.4 0 0 0-.672-1.134 3 3 0 0 0-1.036-.756 3.1 3.1 0 0 0-1.302-.266q-.714 0-1.316.266a3.2 3.2 0 0 0-1.036.742q-.435.475-.672 1.134a4.1 4.1 0 0 0-.238 1.428q0 .77.238 1.428.237.659.672 1.134.447.476 1.036.742.602.266 1.316.266m6.849 1.33v-9.8h4.172q.84 0 1.54.42a3.04 3.04 0 0 1 1.134 1.12q.42.7.42 1.582a2.8 2.8 0 0 1-.42 1.484q-.42.686-1.12 1.106a3.04 3.04 0 0 1-1.554.406h-2.66v3.682zm5.824 0-2.492-4.424 1.554-.35 2.772 4.788zm-4.312-5.138h2.8q.405 0 .728-.196.321-.21.504-.56.182-.365.182-.798 0-.49-.238-.854a1.5 1.5 0 0 0-.644-.588 2 2 0 0 0-.924-.21h-2.408zm8.222 5.138v-9.8h6.174v1.456h-4.662v6.888h4.662v1.456zm.686-4.298v-1.456h4.718v1.456zm-153.963-14.477q-.984 0-1.68-.516-.684-.516-1.056-1.476-.36-.972-.36-2.328t.36-2.316q.372-.972 1.056-1.488.696-.516 1.68-.516.972 0 1.668.516t1.056 1.488q.372.96.372 2.316t-.372 2.328q-.36.96-1.056 1.476t-1.668.516m0-.876q1.032 0 1.584-.9.564-.9.564-2.544t-.564-2.544q-.552-.9-1.584-.9-1.044 0-1.608.9-.552.9-.552 2.544t.552 2.544q.564.9 1.608.9m128.821-128.389a3.05 3.05 0 0 1-1.5-.372 3.2 3.2 0 0 1-1.116-1.092l.564-.612q.504.672 1.008.936.516.252 1.056.252.576 0 1.044-.264.48-.276.756-.732a1.9 1.9 0 0 0 .276-1.008q0-.54-.252-.972a1.84 1.84 0 0 0-.684-.696 1.87 1.87 0 0 0-.996-.264q-.3 0-.6.072-.3.06-.624.204-.312.132-.672.336l-.528-.708.492-3.564h4.536v.876h-4.044l.3-.216-.444 2.94-.276-.192q.192-.156.516-.3a3.7 3.7 0 0 1 .708-.228q.396-.096.768-.096.78 0 1.392.36.612.348.972.972.36.612.36 1.416 0 .84-.396 1.512-.396.66-1.08 1.056a3.1 3.1 0 0 1-1.536.384m7.409.036q-.984 0-1.68-.516-.684-.516-1.056-1.476-.36-.972-.36-2.328t.36-2.316q.372-.972 1.056-1.488.696-.516 1.68-.516.972 0 1.668.516t1.056 1.488q.372.96.372 2.316t-.372 2.328q-.36.96-1.056 1.476t-1.668.516m0-.876q1.032 0 1.584-.9.564-.9.564-2.544t-.564-2.544q-.552-.9-1.584-.9-1.044 0-1.608.9-.552.9-.552 2.544t.552 2.544q.564.9 1.608.9M380.453 349l-.288-.696 2.832-3.18q.204-.228.42-.516.228-.288.42-.6.204-.324.324-.636t.12-.612q0-.444-.192-.744a1.25 1.25 0 0 0-.552-.48 1.86 1.86 0 0 0-.816-.168q-.408 0-.804.192a2.15 2.15 0 0 0-.72.588q-.324.396-.504 1.008l-.744-.444q.216-.732.636-1.224.42-.504.996-.756a3.05 3.05 0 0 1 1.236-.252q.696 0 1.248.288a2.15 2.15 0 0 1 1.2 1.956q0 .288-.072.576-.06.288-.192.576a5 5 0 0 1-.324.588q-.18.3-.432.612-.24.312-.54.648l-2.412 2.688-.144-.312h4.38v.9zm8.542.084a3.05 3.05 0 0 1-1.5-.372 3.2 3.2 0 0 1-1.116-1.092l.564-.612q.504.672 1.008.936.516.252 1.056.252.576 0 1.044-.264.48-.276.756-.732a1.9 1.9 0 0 0 .276-1.008q0-.54-.252-.972a1.84 1.84 0 0 0-.684-.696 1.87 1.87 0 0 0-.996-.264q-.3 0-.6.072-.3.06-.624.204-.312.132-.672.336l-.528-.708.492-3.564h4.536v.876h-4.044l.3-.216-.444 2.94-.276-.192q.192-.156.516-.3a3.7 3.7 0 0 1 .708-.228q.396-.096.768-.096.78 0 1.392.36.612.348.972.972.36.612.36 1.416 0 .84-.396 1.512-.396.66-1.08 1.056a3.1 3.1 0 0 1-1.536.384M570.814 349l3.528-7.848.156.324h-4.5v-.876h5.064l.156.732-3.384 7.668zm7.988.084a3.05 3.05 0 0 1-1.5-.372 3.2 3.2 0 0 1-1.116-1.092l.564-.612q.504.672 1.008.936.516.252 1.056.252.576 0 1.044-.264.48-.276.756-.732a1.9 1.9 0 0 0 .276-1.008q0-.54-.252-.972a1.84 1.84 0 0 0-.684-.696 1.87 1.87 0 0 0-.996-.264q-.3 0-.6.072-.3.06-.624.204-.312.132-.672.336l-.528-.708.492-3.564h4.536v.876h-4.044l.3-.216-.444 2.94-.276-.192q.192-.156.516-.3a3.7 3.7 0 0 1 .708-.228q.396-.096.768-.096.78 0 1.392.36.612.348.972.972.36.612.36 1.416 0 .84-.396 1.512-.396.66-1.08 1.056a3.1 3.1 0 0 1-1.536.384m31.744 89.737v-7.248l.348.264-1.56.936-.276-.84 2.076-1.224h.36v8.112zm-1.236.408v-.912h3.444v.912zm7.92.12q-.984 0-1.68-.516-.684-.516-1.056-1.476-.36-.972-.36-2.328t.36-2.316q.372-.972 1.056-1.488.696-.516 1.68-.516.972 0 1.668.516t1.056 1.488q.372.96.372 2.316t-.372 2.328q-.36.96-1.056 1.476t-1.668.516m0-.876q1.032 0 1.584-.9.564-.9.564-2.544t-.564-2.544q-.552-.9-1.584-.9-1.044 0-1.608.9-.552.9-.552 2.544t.552 2.544q.564.9 1.608.9m7.348.876q-.984 0-1.68-.516-.684-.516-1.056-1.476-.36-.972-.36-2.328t.36-2.316q.372-.972 1.056-1.488.696-.516 1.68-.516.972 0 1.668.516t1.056 1.488q.372.96.372 2.316t-.372 2.328q-.36.96-1.056 1.476t-1.668.516m0-.876q1.032 0 1.584-.9.564-.9.564-2.544t-.564-2.544q-.552-.9-1.584-.9-1.044 0-1.608.9-.552.9-.552 2.544t.552 2.544q.564.9 1.608.9"/><path fill="#fff" fill-opacity=".28" d="M596 437.5a114.5 114.5 0 1 0-229 0h25.219a89.281 89.281 0 0 1 178.562 0z"/><path fill="#84408e" d="M367 437.5a114.5 114.5 0 0 1 141.736-111.213l-5.999 24.495a89.27 89.27 0 0 0-76.35 16.479 89.27 89.27 0 0 0-34.168 70.239z"/><path fill="#bc8fc3" d="M367 437.5a114.5 114.5 0 0 1 70.683-105.784A114.5 114.5 0 0 1 481.5 323v25.219a89.3 89.3 0 0 0-63.131 26.15 89.3 89.3 0 0 0-26.15 63.131z"/><path fill="#46062b" d="m502.647 347.235 3.449 14.636-15.471-5.604z"/></g><defs><clipPath id="b"><path fill="#fff" d="M116 164.5h358v1H116z"/></clipPath><clipPath id="c"><path fill="#fff" d="M109 210.5h358v1H109z"/></clipPath><clipPath id="d"><path fill="#fff" d="M110 256.5h358v1H110z"/></clipPath><clipPath id="e"><path fill="#fff" d="M109 302.5h358v1H109z"/></clipPath><clipPath id="f"><path fill="#fff" d="M96 348.5h378v1H96z"/></clipPath><filter id="a" width="474.68" height="382.68" x="31.66" y="33.884" color-interpolation-filters="sRGB" filterUnits="userSpaceOnUse"><feFlood flood-opacity="0" result="BackgroundImageFix"/><feColorMatrix in="SourceAlpha" result="hardAlpha" values="0 0 0 0 0 0 0 0 0 0 0 0 0 0 0 0 0 0 127 0"/><feOffset dy="2.224"/><feGaussianBlur stdDeviation="4.17"/><feComposite in2="hardAlpha" operator="out"/><feColorMatrix values="0 0 0 0 0 0 0 0 0 0 0 0 0 0 0 0 0 0 0.15 0"/><feBlend in2="BackgroundImageFix" result="effect1_dropShadow_5986_25715"/><feBlend in="SourceGraphic" in2="effect1_dropShadow_5986_25715" result="shape"/></filter><filter id="j" width="392" height="354" x="290.999" y="168" color-interpolation-filters="sRGB" filterUnits="userSpaceOnUse"><feFlood flood-opacity="0" result="BackgroundImageFix"/><feColorMatrix in="SourceAlpha" result="hardAlpha" values="0 0 0 0 0 0 0 0 0 0 0 0 0 0 0 0 0 0 127 0"/><feOffset dx="1" dy="15"/><feGaussianBlur stdDeviation="11"/><feColorMatrix values="0 0 0 0 0 0 0 0 0 0 0 0 0 0 0 0 0 0 0.12 0"/><feBlend in2="BackgroundImageFix" result="effect1_dropShadow_5986_25715"/><feBlend in="SourceGraphic" in2="effect1_dropShadow_5986_25715" result="shape"/></filter></defs></svg>