<svg xmlns="http://www.w3.org/2000/svg" viewBox="0 0 512 512"><path fill="#ff7a59" d="M267.4 211.6c-25.1 23.7-40.8 57.3-40.8 94.6 0 37.3 15.7 70.9 40.8 94.6l-100.2 100.4C141 475.2 120.9 464.2 103 450c-17.9-14.2-33.1-31.4-44.9-51.2-23.5-39.5-30.3-85.6-19.5-131.2 10.8-45.6 38-84.4 76.7-109.4 21.1-13.6 44.6-22.4 69.3-26l82.8 79.4zM414.2 167.2c-30.3-26.4-70-42.4-113.2-42.4s-82.9 16-113.2 42.4L301 57.6c38.7 4.2 74.7 19.6 104.2 42.4 29.5 22.8 52 53.3 65 88.6l-55.9-21.4zM301 453.6l-87.2 109.6c38.7-4.2 74.7-19.6 104.2-42.4 29.5-22.8 52-53.3 65-88.6L301 453.6z"/><circle fill="#ff7a59" cx="301" cy="306.2" r="67.2"/><path fill="#ff7a59" d="M382.4 233.2c13.5-17.7 21.6-39.7 21.6-63.7v-12.5c18.2-7.4 31.1-25.2 31.1-46 0-27.4-22.2-49.6-49.6-49.6s-49.6 22.2-49.6 49.6c0 20.8 12.9 38.6 31.1 46v12.5c0 16.7-5 32.2-13.6 45.2"/></svg>
