<svg xmlns="http://www.w3.org/2000/svg" viewBox="0 0 100 100" fill="none"><path d="M6.017 4.313l55.333-4.087c6.797-.583 8.543-.19 12.817 2.917l17.663 12.443c2.913 2.14 3.883 2.723 3.883 5.053v68.243c0 4.277-1.553 6.807-6.99 7.193L24.467 99.967c-4.08.193-6.023-.39-8.16-3.113L3.3 79.94c-2.333-3.113-3.3-5.443-3.3-8.167V11.113c0-3.497 1.553-6.413 6.017-6.8z" fill="#fff"/><path fill-rule="evenodd" clip-rule="evenodd" d="M61.35.227l-55.333 4.087C1.553 4.7 0 7.617 0 11.113v60.66c0 2.723.967 5.053 3.3 8.167l13.007 16.913c2.137 2.723 4.08 3.307 8.16 3.113l64.257-3.89c5.433-.387 6.99-2.917 6.99-7.193V20.64c0-2.21-.852-2.846-3.443-4.733L74.167 3.14C69.893.14 68.147-.357 61.35.227zM25.037 19.527c-5.273.393-6.47.483-9.467-1.94l-6.45-5.053c-.777-.777-.34-1.75 2.14-1.943l52.417-3.89c4.667-.387 6.99 1.167 8.74 2.527l7.403 5.44c.39.193.97 1.357 0 1.357L27.37 19.333l-2.333.193zm-3.5 74.09V30.47c0-2.527.777-3.693 3.103-3.887l57.283-3.3c2.14-.193 3.303 1.163 3.303 3.69v62.757c0 2.53-.39 4.667-3.883 4.86l-54.753 3.107c-3.497.193-5.053-.967-5.053-3.58zm54.167-59.063c.39 1.75 0 3.5-1.75 3.7l-2.72.577v46.203c-2.33 1.36-4.47 2.14-6.22 2.14-2.917 0-3.693-.967-5.833-3.497L38.84 46.903v34.067l5.64 1.36s0 3.303-4.473 3.303l-12.24.77c-.39-.777 0-2.723 1.36-3.11l3.107-.777V38.14l-4.277-.39c-.39-1.75.583-4.277 3.3-4.47l13.204-.777 21.586 33.097V36.2l-4.667-.583c-.39-2.14 1.163-3.693 3.107-3.887l13.01-.777z" fill="#000"/></svg>
