<?xml version="1.0" encoding="UTF-8"?>
<svg id="Layer_2" data-name="Layer 2" xmlns="http://www.w3.org/2000/svg" viewBox="0 0 813.21 501.78">
  <defs>
    <style>
      .cls-1 {
        fill: #fff;
      }

      .cls-2 {
        fill: #ff6500;
      }
    </style>
  </defs>
  <g id="Capa_1" data-name="Capa 1">
    <g>
      <polygon class="cls-2" points="416.9 223 415.33 223 413.62 223 413.62 225.36 415.33 225.36 415.33 498.36 501.91 498.36 501.91 223 416.9 223"/>
      <path class="cls-1" d="M498.12,498.37l-46.38-62.01-34.66,62.01h-119.13l92.28-145.01-97.16-130.36h121.08l46.38,62.49,35.15-62.49h119.13l-95.21,141.59,99.6,133.78h-121.08Z"/>
      <circle class="cls-2" cx="455.82" cy="100.83" r="100.83"/>
      <path class="cls-1" d="M14.89,285.25c9.93-21.32,23.51-37.59,40.77-48.82,17.25-11.23,36.62-16.84,58.1-16.84,17.9,0,33.36,3.66,46.38,10.99,13.01,7.32,22.95,17.33,29.78,30.03v-37.59h107.9v275.37h-107.9v-37.59c-6.84,12.69-16.77,22.7-29.78,30.03-13.02,7.32-28.49,10.99-46.38,10.99-21.48,0-40.85-5.61-58.1-16.84-17.26-11.23-30.84-27.5-40.77-48.82-9.93-21.31-14.89-46.46-14.89-75.43s4.96-54.11,14.89-75.43ZM178.7,326.51c-7.49-8.13-17.09-12.21-28.81-12.21s-21.32,4.07-28.81,12.21c-7.49,8.14-11.23,19.53-11.23,34.18s3.74,26.05,11.23,34.18c7.48,8.14,17.09,12.21,28.81,12.21s21.31-4.07,28.81-12.21c7.48-8.13,11.23-19.53,11.23-34.18s-3.75-26.04-11.23-34.18Z"/>
      <path class="cls-1" d="M626.46,489.09c-20.02-8.46-35.89-20.18-47.6-35.15-11.72-14.97-18.39-31.9-20.02-50.78h103.99c1.3,8.14,4.8,14.16,10.5,18.07,5.69,3.91,12.94,5.86,21.73,5.86,5.53,0,9.93-1.22,13.18-3.66,3.25-2.44,4.88-5.45,4.88-9.03,0-6.18-3.42-10.57-10.25-13.18-6.84-2.6-18.39-5.53-34.66-8.79-19.86-3.91-36.21-8.13-49.07-12.69-12.86-4.56-24.09-12.37-33.69-23.44-9.61-11.06-14.4-26.36-14.4-45.89,0-16.92,4.47-32.3,13.43-46.14,8.95-13.83,22.22-24.73,39.79-32.71,17.58-7.97,38.89-11.96,63.96-11.96,37.11,0,66.16,9.12,87.15,27.34,20.99,18.23,33.6,41.99,37.84,71.28h-96.18c-1.63-7.48-5.05-13.26-10.25-17.33-5.21-4.07-12.21-6.1-20.99-6.1-5.54,0-9.76,1.06-12.69,3.17-2.93,2.12-4.39,5.29-4.39,9.52,0,5.54,3.42,9.69,10.25,12.45,6.83,2.77,17.74,5.61,32.71,8.54,19.85,3.91,36.62,8.3,50.29,13.18,13.67,4.88,25.55,13.27,35.64,25.14,10.08,11.88,15.13,28.24,15.13,49.07,0,16.28-4.72,30.93-14.16,43.94-9.44,13.02-23.03,23.28-40.77,30.76-17.74,7.49-38.49,11.23-62.25,11.23-26.04,0-49.07-4.23-69.09-12.69Z"/>
    </g>
  </g>
</svg>