<svg preserveAspectRatio="xMidYMid meet" width="100%" height="100%" overflow="hidden" style="display: block;" viewBox="0 0 30 30" fill="none" xmlns="http://www.w3.org/2000/svg">
<g id="e">
<path id="Vector" d="M17.6245 25.1263C17.6245 25.3573 17.4325 25.5468 17.1986 25.5468C16.9646 25.5468 16.7726 25.3573 16.7726 25.1263C16.7726 24.8954 16.9646 24.7059 17.1986 24.7059C17.4325 24.7059 17.6245 24.8895 17.6245 25.1263ZM16.7726 26.133C16.6467 26.133 16.5327 26.1804 16.4427 26.2456C16.4607 26.1923 16.4787 26.133 16.4787 26.0797C16.4787 25.7896 16.2388 25.5468 15.9388 25.5468C15.6389 25.5468 15.3989 25.7837 15.3989 26.0797C15.3989 26.3758 15.6389 26.6127 15.9388 26.6127C16.0528 26.6127 16.1488 26.5713 16.2328 26.512C16.2148 26.5713 16.1908 26.6423 16.1908 26.7075C16.1908 27.0213 16.4487 27.276 16.7666 27.276C17.0846 27.276 17.3425 27.0213 17.3425 26.7075C17.3425 26.3936 17.0786 26.139 16.7666 26.139L16.7726 26.133ZM15.7648 27.4062C15.7469 27.0628 15.4589 26.7904 15.105 26.7904C15.045 26.7904 14.991 26.8081 14.931 26.8259C15.033 26.7134 15.099 26.5713 15.099 26.4114C15.099 26.0679 14.817 25.7896 14.4691 25.7896C14.1212 25.7896 13.8392 26.0679 13.8392 26.4114C13.8392 26.7548 14.1212 27.0332 14.4691 27.0332C14.5231 27.0332 14.5711 27.0154 14.6251 27.0036C14.5111 27.122 14.4391 27.2819 14.4391 27.4536C14.4391 27.7556 14.6431 27.9925 14.925 28.0754C14.925 28.0813 14.925 28.0932 14.925 28.0991C14.925 28.4899 15.243 28.8038 15.6389 28.8038C16.0348 28.8038 16.3527 28.4899 16.3527 28.0991C16.3527 27.7497 16.1008 27.4714 15.7648 27.4122V27.4062ZM14.1092 28.0399C14.1392 27.957 14.1632 27.8741 14.1632 27.7852C14.1632 27.4122 13.8692 27.1101 13.5033 27.0746C13.5933 26.9621 13.6593 26.82 13.6593 26.666C13.6593 26.3403 13.4253 26.0857 13.1194 26.0146C13.2633 25.9021 13.3533 25.7304 13.3533 25.5349C13.3533 25.2921 13.2094 25.0908 13.0054 24.9842C13.3173 24.9724 13.5693 24.7236 13.5693 24.4098C13.5693 24.0959 13.3053 23.8295 12.9814 23.8295C12.6575 23.8295 12.3935 24.09 12.3935 24.4098C12.3935 24.6289 12.5195 24.8066 12.6995 24.9131C12.3515 24.9191 12.0756 25.1974 12.0756 25.5409C12.0756 25.831 12.2855 26.0738 12.5615 26.139C12.3995 26.2633 12.2855 26.4469 12.2855 26.666C12.2855 27.0095 12.5495 27.276 12.8794 27.3233C12.7714 27.4536 12.6995 27.6076 12.6995 27.7852C12.6995 28.1287 12.9514 28.4129 13.2813 28.4781C13.2274 28.5847 13.1914 28.7031 13.1914 28.8334C13.1914 29.2835 13.5573 29.6447 14.0132 29.6447C14.4691 29.6447 14.835 29.2835 14.835 28.8334C14.835 28.4189 14.5231 28.0872 14.1212 28.0399H14.1092ZM5.69286 23.0537C5.69286 23.3439 5.5249 23.5867 5.29094 23.7169C5.33293 23.711 5.37493 23.6933 5.42292 23.6933C5.85483 23.6933 6.20876 24.0367 6.20876 24.4631C6.20876 24.5874 6.17277 24.7 6.11878 24.8006C6.25675 24.6881 6.42472 24.6052 6.62268 24.6052C7.04859 24.6052 7.39052 24.9428 7.39652 25.3573C7.4805 25.0434 7.75645 24.8006 8.09838 24.7888C8.02639 24.6822 7.97241 24.5638 7.97241 24.4216C7.97241 24.0486 8.27834 23.7406 8.66227 23.7406C9.04619 23.7406 9.35213 24.0426 9.35213 24.4216C9.35213 24.771 9.08218 25.0493 8.74025 25.0849C8.84223 25.2152 8.91422 25.3691 8.91422 25.5468C8.91422 25.7481 8.83023 25.9258 8.70426 26.062C8.84823 26.1982 8.92622 26.3758 8.95021 26.5772C8.96821 26.3818 9.05819 26.21 9.20216 26.0857C9.04619 25.9554 8.93821 25.76 8.93821 25.5409C8.93821 25.1619 9.23215 24.8598 9.61008 24.8302C9.5141 24.7177 9.45411 24.5756 9.45411 24.4216C9.45411 24.1848 9.59208 23.9834 9.78404 23.8709C9.5021 23.8235 9.28014 23.5926 9.28014 23.3024C9.28014 22.9767 9.54409 22.7161 9.87403 22.7161C10.204 22.7161 10.4679 22.9767 10.4679 23.3024C10.4679 23.5097 10.3539 23.6814 10.192 23.788C10.5219 23.8295 10.7738 24.09 10.7738 24.4276C10.7738 24.7651 10.5219 25.0138 10.204 25.0671C10.3239 25.1974 10.4019 25.3691 10.4019 25.5586C10.4019 25.7481 10.3239 25.9258 10.198 26.0561C10.3959 26.1982 10.5339 26.4232 10.5339 26.6838C10.5339 26.8259 10.4859 26.9562 10.4199 27.0687C10.6839 27.2167 10.8698 27.4832 10.8698 27.803C10.8698 27.8918 10.8458 27.9807 10.8158 28.0636C10.9058 28.105 10.9838 28.1642 11.0618 28.2294C10.9778 28.105 10.9178 27.9688 10.9178 27.803C10.9178 27.6372 10.9838 27.4891 11.0738 27.3589C10.8038 27.2463 10.6059 26.9917 10.6059 26.6779C10.6059 26.4587 10.7079 26.2692 10.8578 26.133C10.6479 26.0205 10.5039 25.8014 10.5039 25.5527C10.5039 25.1974 10.7858 24.9131 11.1338 24.8895C11.0018 24.7769 10.9178 24.6111 10.9178 24.4276C10.9178 24.1729 11.0738 23.9597 11.2897 23.865C11.2537 23.865 11.2298 23.8827 11.1938 23.8827C10.8698 23.8827 10.6119 23.6222 10.6119 23.3024C10.6119 22.9826 10.8758 22.7221 11.1938 22.7221C11.5117 22.7221 11.7756 22.9826 11.7756 23.3024C11.7756 23.5393 11.6317 23.7406 11.4277 23.8295C11.4637 23.8235 11.4997 23.8117 11.5417 23.8117C11.8896 23.8117 12.1656 24.09 12.1656 24.4276C12.1656 24.7414 11.9196 24.9961 11.6137 25.0316C11.7696 25.1559 11.8776 25.3395 11.8776 25.5527C11.8776 25.7363 11.8056 25.908 11.6797 26.0265C11.9196 26.1508 12.0936 26.3877 12.0936 26.6779C12.0936 26.82 12.0396 26.9503 11.9676 27.0628C12.2855 27.1694 12.5195 27.4595 12.5195 27.803C12.5195 27.9037 12.4955 27.9925 12.4655 28.0813C12.8434 28.1938 13.1254 28.5195 13.1254 28.9341C13.1254 29.4315 12.7175 29.8342 12.2136 29.8342C11.7756 29.8342 11.4277 29.5263 11.3377 29.1236C11.2478 29.5618 10.8698 29.8993 10.4019 29.8993C10.018 29.8993 9.69406 29.6802 9.53809 29.3545C9.37613 29.7098 9.0162 29.9645 8.59028 29.9645C8.20036 29.9645 7.88242 29.7454 7.69646 29.4374C7.5105 29.7631 7.17457 29.9941 6.77265 29.9941C6.37073 29.9941 6.05879 29.775 5.86683 29.467C5.68086 29.7809 5.35093 30 4.96101 30C4.5051 30 4.11518 29.7098 3.96521 29.3131C3.76725 29.5026 3.5033 29.621 3.20936 29.621C2.61548 29.621 2.12957 29.1413 2.12957 28.5551C2.12957 28.5077 2.14757 28.4662 2.15357 28.4248C2.04559 28.4603 1.93161 28.4959 1.80564 28.4959C1.21176 28.4959 0.737852 28.0221 0.737852 27.4418C0.737852 27.2108 0.827834 27.0154 0.94781 26.8437C0.419916 26.7963 0 26.3699 0 25.837C0 25.4283 0.245951 25.0849 0.593881 24.9191C0.287942 24.7533 0.0719856 24.4335 0.0719856 24.0663C0.0719856 23.5274 0.503899 23.0951 1.04379 23.0774C0.869826 22.9056 0.761848 22.6688 0.761848 22.4023C0.761848 21.8693 1.19976 21.437 1.73965 21.437C1.75765 21.437 1.76965 21.443 1.78764 21.443C1.60168 21.2712 1.4757 21.0284 1.4757 20.7501C1.4757 20.2231 1.90762 19.7967 2.44151 19.7967C2.4775 19.7967 2.5135 19.8145 2.55549 19.8145C2.33953 19.6427 2.19556 19.394 2.19556 19.0979C2.19556 18.5827 2.62148 18.1563 3.14937 18.1563C3.20936 18.1563 3.26335 18.18 3.32334 18.1919C3.08338 18.0261 2.90942 17.7596 2.90942 17.4457C2.90942 16.9364 3.32933 16.5219 3.84523 16.5219C3.93521 16.5219 4.0072 16.5515 4.08518 16.5693C3.81524 16.4094 3.62328 16.1311 3.62328 15.7935C3.62328 15.2902 4.03719 14.8816 4.54709 14.8816C4.65507 14.8816 4.75705 14.9112 4.85303 14.9408C4.55309 14.7927 4.34313 14.4966 4.34313 14.1413C4.34313 13.6439 4.75105 13.2412 5.25495 13.2412C5.5189 13.2412 5.75885 13.3597 5.92681 13.5432C6.02879 13.4959 6.14277 13.4722 6.26875 13.4722C6.53869 13.4722 6.76665 13.6084 6.92861 13.8038C7.03659 13.7505 7.15057 13.715 7.27654 13.715C7.55849 13.715 7.78644 13.8689 7.92442 14.0821C8.02639 14.0229 8.14637 13.9814 8.27235 13.9814C8.60228 13.9814 8.86623 14.2065 8.94421 14.5085C9.0162 14.4848 9.08818 14.4611 9.16617 14.4611C9.5201 14.4611 9.81404 14.7454 9.81404 15.1007C9.81404 15.2842 9.73005 15.4501 9.60408 15.5626C9.67007 15.533 9.74805 15.5152 9.82604 15.5152C10.138 15.5152 10.3899 15.7639 10.3899 16.0778C10.3899 16.2317 10.3299 16.3679 10.228 16.4686C10.3179 16.3916 10.4319 16.3383 10.5639 16.3383C10.8458 16.3383 11.0738 16.5574 11.0738 16.8417C11.0738 17.1259 10.8458 17.345 10.5639 17.345C10.2819 17.345 10.054 17.1259 10.054 16.8417C10.054 16.7055 10.108 16.5811 10.198 16.4923C10.096 16.5811 9.96401 16.6403 9.82004 16.6403C9.5081 16.6403 9.25615 16.3916 9.25615 16.0837C9.25615 15.9297 9.31614 15.7876 9.42412 15.6869C9.35213 15.7225 9.26215 15.7343 9.17217 15.7343C8.89022 15.7343 8.66227 15.5567 8.57229 15.3079C8.4823 15.3494 8.38032 15.379 8.27235 15.379C8.04439 15.379 7.84643 15.2665 7.72046 15.0947C7.59448 15.1836 7.45051 15.2487 7.27654 15.2487C7.05459 15.2487 6.85663 15.154 6.71266 15C6.58068 15.0829 6.43671 15.1421 6.26875 15.1421C6.04679 15.1421 5.84883 15.0533 5.69886 14.9171C5.56689 14.9882 5.42292 15.0474 5.26095 15.0474C5.15297 15.0474 5.05699 15.0178 4.96101 14.9882C5.05099 15.0296 5.12897 15.0829 5.20096 15.1421C5.32094 15.077 5.45291 15.0296 5.60288 15.0296C5.85483 15.0296 6.07679 15.1421 6.23275 15.3139C6.35273 15.2428 6.4907 15.1836 6.64067 15.1836C6.89862 15.1836 7.11458 15.3139 7.25855 15.5034C7.37253 15.4204 7.5105 15.3612 7.67247 15.3612C7.9784 15.3612 8.23635 15.5567 8.33833 15.8231C8.42232 15.7876 8.5063 15.7639 8.60228 15.7639C8.96221 15.7639 9.25015 16.0541 9.25015 16.4035C9.25015 16.5338 9.20216 16.6522 9.13617 16.7469C9.18416 16.7292 9.23815 16.7114 9.29214 16.7114C9.61008 16.7114 9.86803 16.966 9.86803 17.2799C9.86803 17.3687 9.84403 17.4516 9.80204 17.5286C9.88002 17.4812 9.96401 17.4457 10.066 17.4457C10.3479 17.4457 10.5759 17.6707 10.5759 17.9491C10.5759 18.2274 10.3479 18.4524 10.066 18.4524C9.78404 18.4524 9.55609 18.2274 9.55609 17.9491C9.55609 17.878 9.57409 17.8069 9.60408 17.7418C9.5141 17.801 9.41212 17.8425 9.29814 17.8425C8.9802 17.8425 8.72226 17.5878 8.72226 17.274C8.72226 17.1674 8.75825 17.0786 8.81224 16.9897C8.75225 17.0075 8.68026 17.0312 8.61428 17.0312C8.35633 17.0312 8.13437 16.8772 8.03239 16.664C7.93041 16.7233 7.81044 16.7647 7.68446 16.7647C7.47451 16.7647 7.29454 16.6759 7.16257 16.5278C7.0246 16.6403 6.85063 16.7233 6.65867 16.7233C6.46671 16.7233 6.27475 16.6403 6.13677 16.516C5.9928 16.6285 5.81884 16.7055 5.61488 16.7055C5.5009 16.7055 5.39292 16.6818 5.29094 16.6403C5.38692 16.6818 5.47091 16.741 5.54289 16.8062C5.67487 16.7055 5.83683 16.6344 6.0228 16.6344C6.26275 16.6344 6.46671 16.741 6.61668 16.9068C6.74865 16.7943 6.91062 16.7233 7.09058 16.7233C7.37852 16.7233 7.62448 16.8891 7.73845 17.1319C7.83443 17.0786 7.93641 17.043 8.05039 17.043C8.41032 17.043 8.70426 17.3332 8.70426 17.6885C8.70426 17.7714 8.68626 17.8484 8.65627 17.9195C8.69826 17.9135 8.73425 17.8958 8.77625 17.8958C9.09418 17.8958 9.35813 18.1563 9.35813 18.4702C9.35813 18.5235 9.34013 18.5768 9.32214 18.6242C9.39412 18.5827 9.4781 18.5531 9.57409 18.5531C9.85603 18.5531 10.09 18.7841 10.09 19.0624C10.09 19.3407 9.85603 19.5717 9.57409 19.5717C9.29214 19.5717 9.05819 19.3407 9.05819 19.0624C9.05819 19.0209 9.07019 18.9854 9.08218 18.9439C8.9922 19.0032 8.89022 19.0446 8.77625 19.0446C8.45831 19.0446 8.19436 18.7841 8.19436 18.4702C8.19436 18.411 8.21236 18.3518 8.23035 18.2985C8.17037 18.3162 8.11638 18.334 8.05039 18.334C7.81044 18.334 7.60648 18.1978 7.4985 18.0083C7.38452 18.0912 7.24655 18.1504 7.09058 18.1504C6.89862 18.1504 6.73065 18.0734 6.59868 17.955C6.52669 18.0261 6.44271 18.0853 6.35273 18.1267C6.40072 18.1208 6.44271 18.0971 6.4907 18.0971C6.76065 18.0971 6.9886 18.2511 7.11458 18.4643C7.22256 18.3932 7.34253 18.334 7.4865 18.334C7.84643 18.334 8.14637 18.6242 8.14637 18.9854C8.14637 19.0328 8.12837 19.0742 8.12238 19.1157C8.17037 19.1098 8.21236 19.092 8.25435 19.092C8.57828 19.092 8.84223 19.3525 8.84223 19.6723C8.84223 19.7019 8.83023 19.7256 8.82424 19.7552C8.90222 19.7079 8.9862 19.6723 9.08818 19.6723C9.37013 19.6723 9.60408 19.9033 9.60408 20.1816C9.60408 20.4599 9.37013 20.6909 9.08818 20.6909C8.80624 20.6909 8.57229 20.4659 8.57229 20.1816C8.57229 20.1698 8.57828 20.1579 8.57828 20.1402C8.4823 20.2053 8.38032 20.2527 8.25435 20.2527C7.93041 20.2527 7.66647 19.9921 7.66647 19.6723C7.66647 19.6486 7.67846 19.625 7.68446 19.6013C7.62448 19.619 7.55849 19.6368 7.4925 19.6368C7.27055 19.6368 7.09058 19.5243 6.97061 19.3585C6.83863 19.4651 6.68266 19.542 6.5027 19.542C6.32274 19.542 6.16077 19.471 6.03479 19.3644C5.9988 19.4058 5.97481 19.4473 5.93281 19.4769C6.17277 19.4828 6.37073 19.6131 6.4967 19.7908C6.61068 19.6901 6.76065 19.625 6.92262 19.625C7.29454 19.625 7.59448 19.921 7.59448 20.2882C7.59448 20.3 7.59448 20.306 7.59448 20.3178C7.64247 20.306 7.68446 20.2882 7.73245 20.2882C8.05639 20.2882 8.32634 20.5488 8.32634 20.8745C8.32634 21.2002 8.06239 21.4607 7.73245 21.4607C7.40252 21.4607 7.16857 21.2179 7.15057 20.9159C7.07858 20.9396 7.0066 20.9633 6.92861 20.9633C6.73065 20.9633 6.55669 20.8745 6.43071 20.7323C6.29874 20.8626 6.11278 20.9514 5.90282 20.9514C5.73485 20.9514 5.58488 20.8863 5.45291 20.7856C5.43491 20.8152 5.41692 20.8448 5.39292 20.8685C5.59088 20.8922 5.76485 20.9929 5.88482 21.135C6.0108 21.0107 6.17876 20.9337 6.37073 20.9337C6.74865 20.9337 7.05459 21.2357 7.05459 21.6088C7.05459 21.9818 6.74865 22.2839 6.37073 22.2839C6.17277 22.2839 6.0048 22.2009 5.87882 22.0766C5.74085 22.2424 5.53689 22.3549 5.30294 22.3549M5.36293 26.8851C5.5189 26.9917 5.65687 27.1338 5.72286 27.3056C5.74685 27.27 5.77085 27.2345 5.79484 27.1931C5.68086 27.0509 5.60288 26.8792 5.59688 26.6897C5.53689 26.7726 5.45291 26.8318 5.35693 26.8851H5.36293ZM7.19856 27.1042C7.28854 27.1931 7.36653 27.2878 7.42052 27.4062C7.43851 27.3589 7.47451 27.3233 7.5045 27.2819C7.40252 27.1812 7.33653 27.0628 7.28854 26.9266C7.27055 26.9917 7.23455 27.0509 7.19856 27.1101V27.1042ZM8.93221 26.7608C8.92022 26.8733 8.88422 26.9799 8.83023 27.0805C8.9922 27.2108 9.10618 27.3826 9.15417 27.5839C9.17816 27.4832 9.22016 27.3944 9.28014 27.3174C9.09418 27.1871 8.96221 26.9917 8.93221 26.7608ZM7.0186 26.0146C7.14457 26.1153 7.23455 26.2515 7.28254 26.4114C7.33053 26.2633 7.42052 26.133 7.53449 26.0383C7.42652 25.908 7.34853 25.7481 7.34853 25.5705C7.30054 25.76 7.18056 25.9139 7.0126 26.0205L7.0186 26.0146ZM5.41692 25.2329C5.12897 25.2329 4.88902 25.073 4.75705 24.8421C4.75705 24.8776 4.77505 24.9013 4.77505 24.9368C4.77505 25.0849 4.72705 25.2152 4.66107 25.3395C4.75105 25.3099 4.84703 25.2803 4.94301 25.2803C5.41092 25.2803 5.79484 25.6475 5.80684 26.1153C5.87882 26.0324 5.96281 25.9672 6.05879 25.9139C5.91482 25.7718 5.83683 25.5823 5.83683 25.3691C5.83683 25.2448 5.87283 25.1323 5.92681 25.0316C5.78884 25.15 5.61488 25.227 5.41692 25.227V25.2329ZM4.91302 23.8235C4.71506 23.8235 4.54109 23.7465 4.40312 23.6281C4.33713 23.8295 4.20516 23.9893 4.0192 24.0959C4.28914 24.1374 4.5111 24.2914 4.63707 24.5164C4.63707 24.4986 4.62508 24.4809 4.62508 24.4572C4.62508 24.167 4.79304 23.9242 5.03299 23.7939C4.991 23.8058 4.95501 23.8235 4.90702 23.8235H4.91302ZM5.9928 18.1978C5.81284 18.1978 5.65687 18.1267 5.5249 18.032C5.4889 18.0675 5.45291 18.0794 5.41092 18.109C5.60888 18.1208 5.79484 18.1978 5.93281 18.3281C5.9988 18.257 6.07679 18.2037 6.16077 18.1623C6.10678 18.1741 6.05879 18.1978 5.9988 18.1978H5.9928ZM5.24295 16.6285C5.17696 16.5989 5.11698 16.5515 5.05699 16.5041C5.021 16.5219 4.997 16.5515 4.95501 16.5693C5.05699 16.5752 5.15297 16.5871 5.23695 16.6285H5.24295ZM5.94481 13.3597C6.07678 13.3597 6.19676 13.3241 6.31074 13.2767C6.46671 13.4426 6.67667 13.5432 6.91662 13.5432C7.05459 13.5432 7.18056 13.5018 7.29454 13.4426C7.43851 13.6202 7.64247 13.7386 7.88842 13.7386C8.0264 13.7386 8.15237 13.6913 8.26035 13.6261C8.38632 13.8216 8.59628 13.9578 8.84823 13.9578C8.93821 13.9578 9.02819 13.94 9.10618 13.9045C9.17217 14.1828 9.41212 14.396 9.71206 14.396C10.042 14.396 10.3059 14.1473 10.3359 13.8275C10.4139 14.0347 10.6119 14.1887 10.8518 14.1887C11.1578 14.1887 11.4037 13.9459 11.4037 13.6439C11.4037 13.3419 11.1578 13.0991 10.8518 13.0991C10.5699 13.0991 10.3419 13.3123 10.3119 13.5847C10.234 13.33 9.994 13.1405 9.71206 13.1405C9.64607 13.1405 9.58608 13.1583 9.5261 13.1761C9.4781 12.8385 9.19616 12.578 8.84223 12.578C8.74025 12.578 8.64427 12.6017 8.55429 12.6372C8.42232 12.3944 8.17637 12.2227 7.88242 12.2227C7.78044 12.2227 7.68446 12.2404 7.59448 12.2819C7.44451 12.0568 7.20456 11.897 6.91062 11.897C6.81464 11.897 6.72466 11.9206 6.64067 11.9503C6.4787 11.7371 6.22676 11.5831 5.93881 11.5831C5.44091 11.5831 5.04499 11.9799 5.04499 12.4655C5.04499 12.9629 5.45291 13.3597 5.94481 13.3597ZM6.64667 11.6956C6.74865 11.6956 6.85063 11.6719 6.94661 11.6364C7.09658 11.8318 7.31854 11.968 7.59448 11.968C7.70846 11.968 7.81044 11.9443 7.91242 11.9088C8.04439 12.1161 8.27235 12.2523 8.53029 12.2523C8.64427 12.2523 8.74025 12.2286 8.83623 12.1812C8.95021 12.4062 9.18416 12.5661 9.45411 12.5661C9.5261 12.5661 9.59808 12.5484 9.67007 12.5247C9.70606 12.8385 9.96401 13.0932 10.2879 13.0932C10.5699 13.0932 10.7978 12.9096 10.8818 12.6609C10.9718 12.8563 11.1638 12.9925 11.3917 12.9925C11.6977 12.9925 11.9436 12.7438 11.9436 12.4477C11.9436 12.1516 11.6917 11.9029 11.3917 11.9029C11.1578 11.9029 10.9598 12.045 10.8758 12.2523C10.7858 12.0154 10.5579 11.8496 10.2879 11.8496C10.24 11.8496 10.192 11.8674 10.144 11.8792C10.138 11.512 9.83203 11.21 9.45411 11.21C9.37613 11.21 9.30414 11.2278 9.23215 11.2574C9.12418 10.9732 8.85423 10.7718 8.53029 10.7718C8.45831 10.7718 8.38632 10.7896 8.32034 10.8133C8.18836 10.5468 7.91842 10.3632 7.59448 10.3632C7.5225 10.3632 7.46251 10.3869 7.39652 10.4047C7.24055 10.15 6.97061 9.97236 6.65267 9.97236C6.16677 9.97236 5.77085 10.3632 5.77085 10.8429C5.77085 11.3107 6.17277 11.7015 6.65867 11.7015L6.64667 11.6956ZM7.34853 10.0257C7.42651 10.0257 7.4985 10.002 7.57049 9.97829C7.71446 10.2152 7.96041 10.381 8.26035 10.381C8.34433 10.381 8.41632 10.3573 8.4943 10.3336C8.61428 10.5823 8.86623 10.754 9.16017 10.754C9.25015 10.754 9.32813 10.7363 9.41212 10.7067C9.5021 10.9672 9.75405 11.1627 10.054 11.1627C10.114 11.1627 10.174 11.1449 10.24 11.1271C10.24 11.133 10.24 11.1449 10.24 11.1508C10.24 11.4943 10.5219 11.7726 10.8698 11.7726C11.1098 11.7726 11.3137 11.6305 11.4217 11.441C11.5057 11.6423 11.7037 11.7844 11.9376 11.7844C12.2436 11.7844 12.4955 11.5357 12.4955 11.2337C12.4955 10.9317 12.2436 10.683 11.9376 10.683C11.7277 10.683 11.5597 10.7955 11.4637 10.9613C11.3797 10.7126 11.1518 10.5409 10.8758 10.5409C10.8278 10.5409 10.7858 10.5586 10.7439 10.5645C10.7439 10.5409 10.7618 10.5172 10.7618 10.4935C10.7618 10.1204 10.4559 9.81247 10.072 9.81247C10.012 9.81247 9.95201 9.83024 9.89202 9.84801C9.80804 9.52823 9.53209 9.28543 9.17816 9.28543C9.12418 9.28543 9.07619 9.3032 9.02819 9.31504C8.91422 9.01303 8.62627 8.788 8.27235 8.788C8.22436 8.788 8.18836 8.80576 8.14637 8.81169C8.0084 8.52152 7.71446 8.30833 7.36053 8.30833C6.88062 8.30833 6.4967 8.69325 6.4967 9.16107C6.4907 9.64074 6.87463 10.0257 7.35453 10.0257H7.34853ZM8.05039 8.36163C8.10438 8.36163 8.14637 8.34386 8.19436 8.33202C8.31434 8.61034 8.59628 8.80576 8.92022 8.80576C8.9802 8.80576 9.04019 8.788 9.10018 8.77023C9.20216 9.0604 9.46611 9.26767 9.79004 9.26767C9.86203 9.26767 9.92801 9.2499 9.994 9.22621C10.054 9.53415 10.3179 9.77102 10.6479 9.77102C10.7079 9.77102 10.7618 9.75326 10.8218 9.73549C10.8158 9.77102 10.7978 9.80655 10.7978 9.84801C10.7978 10.1915 11.0798 10.4639 11.4217 10.4639C11.6317 10.4639 11.8116 10.3514 11.9196 10.1974C11.9916 10.4165 12.2016 10.5823 12.4415 10.5823C12.7475 10.5823 13.0054 10.3336 13.0054 10.0257C13.0054 9.71773 12.7534 9.46901 12.4415 9.46901C12.2615 9.46901 12.1056 9.55784 12.0036 9.68812C11.9316 9.42756 11.6977 9.23214 11.4097 9.23214C11.3617 9.23214 11.3257 9.2499 11.2837 9.25582C11.2957 9.20253 11.3197 9.15515 11.3197 9.09593C11.3197 8.72878 11.0138 8.42677 10.6419 8.42677C10.5939 8.42677 10.5519 8.44453 10.5099 8.45638C10.4619 8.09514 10.168 7.81682 9.79004 7.81682C9.75405 7.81682 9.71806 7.83458 9.68206 7.83458C9.59808 7.49112 9.29814 7.23056 8.92622 7.23056C8.89622 7.23056 8.87822 7.2424 8.84823 7.24832C8.73425 6.9167 8.42232 6.67983 8.05039 6.67983C7.58248 6.67983 7.19856 7.05882 7.19856 7.52073C7.19856 7.98263 7.57648 8.36163 8.05039 8.36163ZM8.75225 6.69759C8.78824 6.69759 8.82424 6.67983 8.85423 6.67983C8.95621 6.99368 9.24415 7.23056 9.59808 7.23056C9.64607 7.23056 9.68806 7.21279 9.73005 7.20095C9.79604 7.53257 10.078 7.78129 10.4319 7.78129C10.4859 7.78129 10.5339 7.76352 10.5879 7.74576C10.6059 8.08922 10.8938 8.37347 11.2478 8.37347C11.3077 8.37347 11.3617 8.3557 11.4157 8.33794C11.3977 8.39716 11.3737 8.46822 11.3737 8.53928C11.3737 8.87683 11.6497 9.14923 11.9916 9.14923C12.2316 9.14923 12.4355 9.00711 12.5435 8.80576C12.5435 8.82945 12.5315 8.85314 12.5315 8.87683C12.5315 9.18476 12.7834 9.43348 13.0954 9.43348C13.4073 9.43348 13.6593 9.18476 13.6593 8.87683C13.6593 8.56889 13.4073 8.32017 13.0954 8.32017C12.8734 8.32017 12.6875 8.45045 12.5975 8.62811C12.5975 8.59258 12.6155 8.56889 12.6155 8.53928C12.6155 8.20174 12.3395 7.92933 11.9976 7.92933C11.9556 7.92933 11.9196 7.9471 11.8776 7.95302C11.9076 7.87604 11.9256 7.79905 11.9256 7.7043C11.9256 7.33715 11.6257 7.04106 11.2537 7.04106C11.2178 7.04106 11.1938 7.0529 11.1638 7.05882C11.1638 6.65614 10.8398 6.33636 10.4379 6.33636C10.4139 6.33636 10.3899 6.3482 10.3719 6.3482C10.3239 5.96328 10.006 5.66719 9.60408 5.66719C9.58608 5.66719 9.58008 5.67311 9.56209 5.67311C9.47211 5.30596 9.16017 5.02171 8.75825 5.02171C8.29634 5.02171 7.91842 5.38887 7.91842 5.85077C7.91842 6.31267 8.29634 6.68575 8.76425 6.68575L8.75225 6.69759ZM9.46611 5.03948C9.5021 5.03948 9.5261 5.02171 9.55609 5.02171C9.61608 5.38887 9.92202 5.67904 10.3119 5.67904C10.3599 5.67904 10.4019 5.66127 10.4559 5.64943C10.4559 6.04027 10.7798 6.35413 11.1758 6.35413C11.2538 6.35413 11.3317 6.33636 11.3977 6.30675C11.3917 6.3482 11.3737 6.38966 11.3737 6.43111C11.3737 6.79826 11.6797 7.09435 12.0456 7.09435C12.1596 7.09435 12.2555 7.05882 12.3515 7.01145C12.2615 7.11804 12.2076 7.24832 12.2076 7.39637C12.2076 7.73983 12.4895 8.01224 12.8314 8.01224C13.1734 8.01224 13.4553 7.73391 13.4553 7.39637C13.4553 7.05882 13.1734 6.7805 12.8314 6.7805C12.7295 6.7805 12.6455 6.80418 12.5615 6.84564C12.6575 6.73312 12.7175 6.591 12.7175 6.43111C12.7175 6.06396 12.4175 5.76786 12.0456 5.76786C11.9796 5.76786 11.9196 5.78563 11.8596 5.8034C11.8716 5.7501 11.8956 5.6968 11.8956 5.63758C11.8956 5.24082 11.5717 4.92104 11.1698 4.92104C11.1338 4.92104 11.1098 4.93289 11.0798 4.93881C11.0798 4.92696 11.0858 4.92104 11.0858 4.90328C11.0858 4.48283 10.7379 4.13936 10.3119 4.13936C10.2999 4.13936 10.2879 4.14528 10.2759 4.14528C10.24 3.73075 9.89202 3.40505 9.46611 3.40505C9.0102 3.40505 8.64427 3.77221 8.64427 4.21634C8.64427 4.66048 9.0162 5.02764 9.47211 5.02764L9.46611 5.03948ZM10.4979 3.56494C10.5519 3.56494 10.5999 3.54718 10.6539 3.52941C10.6539 3.5531 10.6359 3.57679 10.6359 3.6064C10.6359 4.02685 10.9838 4.36439 11.4037 4.36439C11.4877 4.36439 11.5657 4.3407 11.6437 4.31702C11.6257 4.38216 11.6017 4.4473 11.6017 4.52428C11.6017 4.92104 11.9256 5.24082 12.3275 5.24082C12.4895 5.24082 12.6335 5.1816 12.7594 5.08685C12.6515 5.20529 12.5795 5.36518 12.5795 5.53691C12.5795 5.91591 12.8854 6.21792 13.2693 6.21792C13.6533 6.21792 13.9592 5.91591 13.9592 5.53691C13.9592 5.15792 13.6533 4.8559 13.2693 4.8559C13.1134 4.8559 12.9814 4.91512 12.8674 4.99803C12.9814 4.86775 13.0594 4.70786 13.0594 4.51836C13.0594 4.12159 12.7355 3.80182 12.3335 3.80182C12.2615 3.80182 12.1956 3.81958 12.1356 3.84327C12.1596 3.76628 12.1836 3.6893 12.1836 3.6064C12.1836 3.18595 11.8356 2.8484 11.4157 2.8484C11.3737 2.8484 11.3377 2.86617 11.2957 2.87209C11.2957 2.83656 11.3137 2.80103 11.3137 2.75957C11.3137 2.31544 10.9538 1.96013 10.5039 1.96013C10.054 1.96013 9.69406 2.31544 9.69406 2.75957C9.69406 3.19779 10.054 3.55902 10.5039 3.55902L10.4979 3.56494ZM11.9076 2.42795C11.9976 2.42795 12.0816 2.40426 12.1656 2.38058C12.1176 2.47533 12.0936 2.58192 12.0936 2.69443C12.0936 3.11488 12.4355 3.45243 12.8614 3.45243C13.2873 3.45243 13.6293 3.11488 13.6293 2.69443C13.6293 2.27398 13.2873 1.93644 12.8614 1.93644C12.7774 1.93644 12.6995 1.96013 12.6215 1.98381C12.6695 1.88314 12.7115 1.76471 12.7115 1.64035C12.7115 1.20213 12.3515 0.852744 11.9136 0.852744C11.4757 0.852744 11.1158 1.20805 11.1158 1.64035C11.1158 2.07264 11.4757 2.42203 11.9136 2.42203L11.9076 2.42795ZM13.5753 1.72325C14.0072 1.72325 14.3611 1.37979 14.3611 0.947493C14.3611 0.515199 14.0132 0.177655 13.5753 0.177655C13.1374 0.177655 12.7954 0.521121 12.7954 0.947493C12.7954 1.37386 13.1434 1.72325 13.5753 1.72325ZM15.3689 1.51599C15.7948 1.51599 16.1368 1.17252 16.1368 0.757994C16.1368 0.343466 15.7888 0 15.3689 0C14.949 0 14.6011 0.343466 14.6011 0.757994C14.6011 1.17252 14.949 1.51599 15.3689 1.51599ZM17.1506 1.81208C17.5645 1.81208 17.9064 1.48046 17.9064 1.06593C17.9064 0.651401 17.5705 0.319779 17.1506 0.319779C16.7307 0.319779 16.3947 0.651401 16.3947 1.06593C16.3947 1.48046 16.7307 1.81208 17.1506 1.81208ZM19.4121 3.26885C19.3401 3.25109 19.2681 3.22148 19.1902 3.22148C18.7762 3.22148 18.4403 3.5531 18.4403 3.96171C18.4403 4.06238 18.4583 4.15713 18.5003 4.25188C18.4463 4.24003 18.3983 4.21634 18.3443 4.21634C17.9304 4.21634 17.5945 4.54797 17.5945 4.95657C17.5945 5.11054 17.6545 5.24674 17.7385 5.36518C17.6905 5.35926 17.6485 5.33557 17.5945 5.33557C17.1866 5.33557 16.8506 5.66719 16.8506 6.06988C16.8506 6.25345 16.9226 6.41334 17.0366 6.54362C16.9766 6.52586 16.9046 6.50217 16.8386 6.50217C16.4487 6.50217 16.1308 6.81603 16.1308 7.20095C16.1308 7.58587 16.4487 7.89972 16.8386 7.89972C17.2286 7.89972 17.5465 7.58587 17.5465 7.20095C17.5465 7.02921 17.4745 6.87525 17.3725 6.75089C17.4445 6.76865 17.5105 6.79234 17.5885 6.79234C17.9964 6.79234 18.3323 6.46072 18.3323 6.05803C18.3323 5.90407 18.2723 5.77379 18.1944 5.65535C18.2424 5.66719 18.2903 5.68496 18.3443 5.68496C18.7582 5.68496 19.0942 5.35334 19.0942 4.94473C19.0942 4.84406 19.0762 4.74339 19.0342 4.65456C19.0882 4.6664 19.1362 4.69009 19.1902 4.69009C19.6041 4.69009 19.94 4.35847 19.94 3.94986C19.94 3.87288 19.922 3.80182 19.892 3.73075C19.958 3.74852 20.024 3.77221 20.096 3.77221C20.4979 3.77221 20.8218 3.45243 20.8218 3.05567C20.8218 2.6589 20.4979 2.33912 20.096 2.33912C19.6941 2.33912 19.3701 2.6589 19.3701 3.05567C19.3701 3.14449 19.3881 3.20963 19.4121 3.27477V3.26885ZM26.7966 19.4295C26.7966 19.7434 27.0546 19.998 27.3725 19.998C27.6905 19.998 27.9484 19.7434 27.9484 19.4295C27.9484 19.1157 27.6905 18.861 27.3725 18.861C27.0546 18.861 26.7966 19.1216 26.7966 19.4295ZM27.5225 21.0758C27.5225 21.3778 27.7744 21.6265 28.0804 21.6265C28.3863 21.6265 28.6383 21.3778 28.6383 21.0758C28.6383 20.7738 28.3863 20.5251 28.0804 20.5251C27.7744 20.5251 27.5225 20.7738 27.5225 21.0758ZM28.2484 22.728C28.2484 23.0182 28.4883 23.255 28.7822 23.255C29.0762 23.255 29.3161 23.0182 29.3161 22.728C29.3161 22.4378 29.0762 22.2009 28.7822 22.2009C28.4883 22.2009 28.2484 22.4378 28.2484 22.728ZM28.9442 24.392C28.9442 24.6704 29.1722 24.8954 29.4541 24.8954C29.7361 24.8954 29.964 24.6704 29.964 24.392C29.964 24.1137 29.7361 23.8887 29.4541 23.8887C29.1722 23.8887 28.9442 24.1137 28.9442 24.392ZM29.5081 25.683C29.2382 25.683 29.0162 25.9021 29.0162 26.1686C29.0162 26.4351 29.2382 26.6542 29.5081 26.6542C29.778 26.6542 30 26.4351 30 26.1686C30 25.9021 29.778 25.683 29.5081 25.683ZM28.7642 27.3174C28.5063 27.3174 28.2963 27.5247 28.2963 27.7793C28.2963 28.034 28.5063 28.2412 28.7642 28.2412C29.0222 28.2412 29.2322 28.034 29.2322 27.7793C29.2322 27.5188 29.0222 27.3174 28.7642 27.3174ZM27.4985 28.5728C27.2526 28.5728 27.0546 28.7683 27.0546 29.0111C27.0546 29.2538 27.2526 29.4493 27.4985 29.4493C27.7445 29.4493 27.9424 29.2538 27.9424 29.0111C27.9424 28.7683 27.7445 28.5728 27.4985 28.5728ZM26.0648 28.9459C25.7768 28.9459 25.5429 29.1769 25.5429 29.4611C25.5429 29.7454 25.7768 29.9763 26.0648 29.9763C26.3527 29.9763 26.5867 29.7454 26.5867 29.4611C26.5867 29.1769 26.3587 28.9459 26.0648 28.9459ZM13.7493 2.2503C13.7493 2.66482 14.0912 3.00237 14.5111 3.00237C14.931 3.00237 15.2729 2.66482 15.2729 2.2503C15.2729 1.83577 14.931 1.49822 14.5111 1.49822C14.0912 1.49822 13.7493 1.83577 13.7493 2.2503ZM15.4709 2.32728C15.4709 2.73589 15.8068 3.07343 16.2268 3.07343C16.6467 3.07343 16.9826 2.74181 16.9826 2.32728C16.9826 1.91275 16.6467 1.58113 16.2268 1.58113C15.8068 1.58113 15.4709 1.91275 15.4709 2.32728ZM17.8344 2.17923C17.4205 2.17923 17.0786 2.51086 17.0786 2.92538C17.0786 3.11488 17.1506 3.28069 17.2765 3.41097C17.1866 3.37544 17.0906 3.35176 16.9826 3.35176C16.5687 3.35176 16.2388 3.68338 16.2388 4.08606C16.2388 4.48875 16.5747 4.82037 16.9826 4.82037C17.3905 4.82037 17.7265 4.48875 17.7265 4.08606C17.7265 3.90249 17.6545 3.73668 17.5345 3.6064C17.6245 3.64193 17.7265 3.66561 17.8344 3.66561C18.2484 3.66561 18.5903 3.33399 18.5903 2.91946C18.5903 2.7655 18.5303 2.62929 18.4523 2.51678C18.5483 2.56415 18.6503 2.58784 18.7702 2.58784C19.1782 2.58784 19.5141 2.25622 19.5141 1.85353C19.5141 1.45085 19.1782 1.11923 18.7702 1.11923C18.3623 1.11923 18.0264 1.45085 18.0264 1.85353C18.0264 2.00158 18.0864 2.13186 18.1584 2.2503C18.0564 2.197 17.9484 2.16739 17.8284 2.16739L17.8344 2.17923ZM26.8266 20.454C26.5087 20.454 26.2507 20.7086 26.2507 21.0225C26.2507 21.3364 26.5087 21.591 26.8266 21.591C27.1446 21.591 27.4025 21.3364 27.4025 21.0225C27.4025 20.7086 27.1506 20.454 26.8266 20.454ZM28.0444 22.5859C28.0444 22.2839 27.7984 22.0411 27.4925 22.0411C27.1866 22.0411 26.9406 22.2839 26.9406 22.5859C26.9406 22.8879 27.1866 23.1307 27.4925 23.1307C27.7984 23.1307 28.0444 22.8938 28.0444 22.5859ZM28.6863 24.1552C28.6863 23.865 28.4463 23.64 28.1644 23.64C27.8824 23.64 27.6425 23.8768 27.6425 24.1552C27.6425 24.4335 27.8824 24.6704 28.1644 24.6704C28.4463 24.6704 28.6863 24.4335 28.6863 24.1552ZM28.5783 26.2929C28.8542 26.2929 29.0762 26.0738 29.0762 25.8014C29.0762 25.529 28.8542 25.3099 28.5783 25.3099C28.3023 25.3099 28.0804 25.529 28.0804 25.8014C28.0804 26.0738 28.3023 26.2929 28.5783 26.2929ZM14.5411 3.84919C14.5411 3.45243 14.2112 3.12673 13.8092 3.12673C13.4073 3.12673 13.0774 3.45243 13.0774 3.84919C13.0774 4.24595 13.4073 4.57165 13.8092 4.57165C14.2112 4.57165 14.5411 4.25188 14.5411 3.84919ZM15.4109 2.96684C15.003 2.96684 14.6671 3.29846 14.6671 3.70114C14.6671 4.10383 14.997 4.42953 15.4109 4.42953C15.8248 4.42953 16.1548 4.09791 16.1548 3.70114C16.1548 3.30438 15.8188 2.96684 15.4109 2.96684ZM25.6749 22.5148C25.6749 22.8227 25.9268 23.0715 26.2388 23.0715C26.5507 23.0715 26.8026 22.8227 26.8026 22.5148C26.8026 22.2069 26.5507 21.9582 26.2388 21.9582C25.9268 21.9582 25.6749 22.2069 25.6749 22.5148ZM26.3287 23.9953C26.3287 24.2854 26.5687 24.5282 26.8686 24.5282C27.1686 24.5282 27.4085 24.2914 27.4085 23.9953C27.4085 23.6992 27.1686 23.4623 26.8686 23.4623C26.5687 23.4623 26.3287 23.6992 26.3287 23.9953ZM27.9544 25.4994C27.9544 25.2211 27.7265 24.9961 27.4445 24.9961C27.1626 24.9961 26.9346 25.2211 26.9346 25.4994C26.9346 25.7777 27.1626 26.0028 27.4445 26.0028C27.7265 26.0028 27.9544 25.7777 27.9544 25.4994ZM27.9244 26.6542C27.6605 26.6542 27.4385 26.8674 27.4385 27.1338C27.4385 27.4003 27.6545 27.6135 27.9244 27.6135C28.1944 27.6135 28.4103 27.4003 28.4103 27.1338C28.4103 26.8733 28.2004 26.6542 27.9244 26.6542ZM15.6029 25.6119C15.8908 25.6119 16.1248 25.381 16.1248 25.0967C16.1248 24.8125 15.8908 24.5815 15.6029 24.5815C15.3149 24.5815 15.081 24.8125 15.081 25.0967C15.081 25.381 15.3149 25.6119 15.6029 25.6119ZM14.2951 25.754C14.6191 25.754 14.883 25.4935 14.883 25.1737C14.883 24.8539 14.6191 24.5934 14.2951 24.5934C13.9712 24.5934 13.7073 24.8539 13.7073 25.1737C13.7073 25.4935 13.9712 25.754 14.2951 25.754ZM14.7451 5.85669C15.135 5.85669 15.4529 5.54283 15.4529 5.15792C15.4529 4.773 15.135 4.45914 14.7451 4.45914C14.3551 4.45914 14.0372 4.773 14.0372 5.15792C14.0372 5.54283 14.3551 5.85669 14.7451 5.85669ZM16.9766 5.34149C16.9766 4.94473 16.6527 4.62495 16.2508 4.62495C15.8488 4.62495 15.5249 4.94473 15.5249 5.34149C15.5249 5.73825 15.8488 6.05803 16.2508 6.05803C16.6527 6.05803 16.9766 5.74418 16.9766 5.34149ZM25.027 21.9818C24.7091 21.9818 24.4511 22.2365 24.4511 22.5503C24.4511 22.8642 24.7091 23.1188 25.027 23.1188C25.3449 23.1188 25.6029 22.8642 25.6029 22.5503C25.6029 22.2365 25.3449 21.9818 25.027 21.9818ZM25.069 23.942C25.069 24.244 25.3149 24.4868 25.6209 24.4868C25.9268 24.4868 26.1728 24.244 26.1728 23.942C26.1728 23.64 25.9268 23.3972 25.6209 23.3972C25.3149 23.3972 25.069 23.6459 25.069 23.942ZM26.7247 25.3395C26.7247 25.0553 26.4907 24.8243 26.2028 24.8243C25.9148 24.8243 25.6809 25.0553 25.6809 25.3395C25.6809 25.6238 25.9148 25.8547 26.2028 25.8547C26.4907 25.8547 26.7247 25.6178 26.7247 25.3395ZM26.9346 27.2404C27.2046 27.2404 27.4265 27.0213 27.4265 26.7608C27.4265 26.5002 27.2046 26.2752 26.9346 26.2752C26.6647 26.2752 26.4427 26.4943 26.4427 26.7608C26.4427 27.0272 26.6647 27.2404 26.9346 27.2404ZM27.5045 28.1228C27.5045 27.8741 27.3005 27.6727 27.0486 27.6727C26.7966 27.6727 26.5927 27.8741 26.5927 28.1228C26.5927 28.3715 26.7966 28.5728 27.0486 28.5728C27.3005 28.5728 27.5045 28.3715 27.5045 28.1228ZM15.3269 24.0012C15.3269 23.6992 15.081 23.4564 14.775 23.4564C14.4691 23.4564 14.2232 23.6992 14.2232 24.0012C14.2232 24.3032 14.4691 24.546 14.775 24.546C15.081 24.546 15.3269 24.3032 15.3269 24.0012ZM7.27055 24.771C7.64847 24.771 7.96041 24.469 7.96041 24.09C7.96041 23.711 7.65447 23.409 7.27055 23.409C6.88662 23.409 6.58068 23.711 6.58068 24.09C6.58068 24.4631 6.88662 24.771 7.27055 24.771ZM7.06659 23.0004C7.06659 22.6214 6.76065 22.3194 6.37672 22.3194C5.9928 22.3194 5.68686 22.6214 5.68686 23.0004C5.68686 23.3794 5.9928 23.6814 6.37672 23.6814C6.76065 23.6814 7.06659 23.3794 7.06659 23.0004ZM13.4313 6.73312C13.4313 7.08843 13.7253 7.3786 14.0852 7.3786C14.4451 7.3786 14.7391 7.08843 14.7391 6.73312C14.7391 6.37781 14.4451 6.08764 14.0852 6.08764C13.7253 6.08764 13.4313 6.37781 13.4313 6.73312ZM14.835 6.66206C14.835 7.02921 15.141 7.33715 15.5189 7.33715C15.8968 7.33715 16.2028 7.03514 16.2028 6.66206C16.2028 6.28899 15.8968 5.98697 15.5189 5.98697C15.147 5.98697 14.835 6.28899 14.835 6.66206ZM23.8512 24.0012C23.8512 24.3032 24.1032 24.5578 24.4151 24.5578C24.7271 24.5578 24.979 24.3091 24.979 24.0012C24.979 23.6933 24.7271 23.4445 24.4151 23.4445C24.1032 23.4445 23.8512 23.6933 23.8512 24.0012ZM25.4949 25.3099C25.4949 25.0197 25.2549 24.7888 24.967 24.7888C24.6791 24.7888 24.4391 25.0257 24.4391 25.3099C24.4391 25.5942 24.6791 25.831 24.967 25.831C25.2549 25.831 25.4949 25.5942 25.4949 25.3099ZM25.8428 26.0857C25.5669 26.0857 25.3449 26.3048 25.3449 26.5772C25.3449 26.8496 25.5669 27.0687 25.8428 27.0687C26.1188 27.0687 26.3407 26.8496 26.3407 26.5772C26.3407 26.3048 26.1188 26.0857 25.8428 26.0857ZM25.9928 27.3233C25.7409 27.3233 25.5309 27.5306 25.5309 27.7793C25.5309 28.028 25.7409 28.2353 25.9928 28.2353C26.2448 28.2353 26.4547 28.028 26.4547 27.7793C26.4547 27.5306 26.2507 27.3233 25.9928 27.3233ZM16.6527 24.2795C16.6527 24.0308 16.4487 23.8295 16.1968 23.8295C15.9448 23.8295 15.7349 24.0308 15.7349 24.2795C15.7349 24.5282 15.9388 24.7296 16.1968 24.7296C16.4487 24.7296 16.6527 24.5282 16.6527 24.2795ZM15.111 23.2077C15.111 23.4741 15.3329 23.6933 15.6029 23.6933C15.8728 23.6933 16.0948 23.4741 16.0948 23.2077C16.0948 22.9412 15.8728 22.7221 15.6029 22.7221C15.3329 22.7221 15.111 22.9353 15.111 23.2077ZM13.8512 23.8295C14.1392 23.8295 14.3731 23.5985 14.3731 23.3143C14.3731 23.03 14.1392 22.7991 13.8512 22.7991C13.5633 22.7991 13.3293 23.03 13.3293 23.3143C13.3293 23.5985 13.5633 23.8295 13.8512 23.8295ZM12.5195 23.8354C12.8254 23.8354 13.0714 23.5867 13.0714 23.2906C13.0714 22.9945 12.8194 22.7458 12.5195 22.7458C12.2196 22.7458 11.9676 22.9945 11.9676 23.2906C11.9676 23.5867 12.2136 23.8354 12.5195 23.8354ZM8.54829 23.7051C8.87822 23.7051 9.14217 23.4445 9.14217 23.1188C9.14217 22.7931 8.87822 22.5326 8.54829 22.5326C8.21836 22.5326 7.95441 22.7931 7.95441 23.1188C7.95441 23.4445 8.21836 23.7051 8.54829 23.7051ZM8.26635 22.1654C8.26635 21.8397 8.0024 21.5792 7.67247 21.5792C7.34253 21.5792 7.07858 21.8397 7.07858 22.1654C7.07858 22.4911 7.34253 22.7517 7.67247 22.7517C7.9964 22.7517 8.26635 22.4911 8.26635 22.1654ZM10.8938 14.852C10.8938 14.5499 10.6419 14.2953 10.3359 14.2953C10.03 14.2953 9.77205 14.544 9.77205 14.852C9.77205 15.1599 10.024 15.4027 10.3359 15.4027C10.6419 15.4027 10.8938 15.1599 10.8938 14.852ZM14.1992 8.77615C14.5291 8.77615 14.799 8.51559 14.799 8.18397C14.799 7.85235 14.5351 7.59179 14.1992 7.59179C13.8632 7.59179 13.5993 7.85235 13.5993 8.18397C13.5993 8.51559 13.8692 8.77615 14.1992 8.77615ZM15.5189 7.52665C15.171 7.52665 14.883 7.80497 14.883 8.15436C14.883 8.50375 15.165 8.78208 15.5189 8.78208C15.8728 8.78208 16.1548 8.50375 16.1548 8.15436C16.1548 7.80497 15.8668 7.52665 15.5189 7.52665ZM23.4073 23.9538C23.0954 23.9538 22.8434 24.2025 22.8434 24.5105C22.8434 24.8184 23.0954 25.0671 23.4073 25.0671C23.7193 25.0671 23.9712 24.8184 23.9712 24.5105C23.9712 24.2025 23.7193 23.9538 23.4073 23.9538ZM23.9112 26.2515C24.2052 26.2515 24.4451 26.0146 24.4451 25.7244C24.4451 25.4343 24.2052 25.1974 23.9112 25.1974C23.6173 25.1974 23.3773 25.4343 23.3773 25.7244C23.3773 26.0146 23.6173 26.2515 23.9112 26.2515ZM25.225 26.8555C25.225 26.5831 25.003 26.364 24.7271 26.364C24.4511 26.364 24.2292 26.5831 24.2292 26.8555C24.2292 27.1279 24.4511 27.347 24.7271 27.347C25.009 27.347 25.225 27.1279 25.225 26.8555ZM24.967 27.7793C24.7151 27.7793 24.5051 27.9866 24.5051 28.2353C24.5051 28.484 24.7151 28.6913 24.967 28.6913C25.219 28.6913 25.4289 28.484 25.4289 28.2353C25.4289 27.9866 25.225 27.7793 24.967 27.7793ZM14.847 21.9463C14.5831 21.9463 14.3671 22.1536 14.3671 22.4201C14.3671 22.6865 14.5771 22.8938 14.847 22.8938C15.117 22.8938 15.3269 22.6865 15.3269 22.4201C15.3269 22.1536 15.117 21.9463 14.847 21.9463ZM13.6293 22.6688C13.9052 22.6688 14.1272 22.4497 14.1272 22.1773C14.1272 21.9049 13.9052 21.6857 13.6293 21.6857C13.3533 21.6857 13.1314 21.9049 13.1314 22.1773C13.1314 22.4497 13.3533 22.6688 13.6293 22.6688ZM12.3875 22.6688C12.6695 22.6688 12.8974 22.4437 12.8974 22.1654C12.8974 21.8871 12.6695 21.6621 12.3875 21.6621C12.1056 21.6621 11.8776 21.8871 11.8776 22.1654C11.8776 22.4437 12.1056 22.6688 12.3875 22.6688ZM11.1398 22.6806C11.4217 22.6806 11.6557 22.4556 11.6557 22.1713C11.6557 21.8871 11.4217 21.6621 11.1398 21.6621C10.8578 21.6621 10.6239 21.893 10.6239 22.1713C10.6239 22.4497 10.8578 22.6806 11.1398 22.6806ZM9.89802 22.6451C10.18 22.6451 10.4139 22.4201 10.4139 22.1358C10.4139 21.8516 10.18 21.6265 9.89802 21.6265C9.61608 21.6265 9.38212 21.8516 9.38212 22.1358C9.38212 22.4201 9.61608 22.6451 9.89802 22.6451ZM9.5021 21.3719C9.5021 21.0876 9.26815 20.8626 8.9862 20.8626C8.70426 20.8626 8.47031 21.0876 8.47031 21.3719C8.47031 21.6561 8.70426 21.8812 8.9862 21.8812C9.26815 21.8812 9.5021 21.6561 9.5021 21.3719ZM11.0438 16.1903C11.3197 16.1903 11.5417 15.9712 11.5417 15.6988C11.5417 15.4264 11.3197 15.2073 11.0438 15.2073C10.7678 15.2073 10.5459 15.4264 10.5459 15.6988C10.5459 15.9712 10.7678 16.1903 11.0438 16.1903ZM11.0498 14.5677C11.0498 14.8342 11.2717 15.0533 11.5417 15.0533C11.8116 15.0533 12.0396 14.8342 12.0396 14.5677C12.0396 14.3012 11.8176 14.0821 11.5417 14.0821C11.2657 14.0821 11.0498 14.3012 11.0498 14.5677ZM11.5477 13.4485C11.5477 13.715 11.7696 13.9341 12.0396 13.9341C12.3095 13.9341 12.5315 13.715 12.5315 13.4485C12.5315 13.182 12.3095 12.9629 12.0396 12.9629C11.7696 12.9629 11.5477 13.182 11.5477 13.4485ZM12.0396 12.3233C12.0396 12.5957 12.2615 12.8148 12.5375 12.8148C12.8134 12.8148 13.0354 12.5957 13.0354 12.3233C13.0354 12.0509 12.8134 11.8318 12.5375 11.8318C12.2615 11.8318 12.0396 12.0509 12.0396 12.3233ZM12.5315 11.2041C12.5315 11.4824 12.7534 11.7015 13.0354 11.7015C13.3173 11.7015 13.5393 11.4824 13.5393 11.2041C13.5393 10.9258 13.3173 10.7067 13.0354 10.7067C12.7534 10.7067 12.5315 10.9258 12.5315 11.2041ZM13.0954 10.1145C13.0954 10.3928 13.3233 10.6178 13.6053 10.6178C13.8872 10.6178 14.1152 10.3928 14.1152 10.1145C14.1152 9.83616 13.8872 9.61113 13.6053 9.61113C13.3233 9.61113 13.0954 9.83616 13.0954 10.1145ZM15.213 9.55784C15.213 9.26767 14.973 9.03079 14.6791 9.03079C14.3851 9.03079 14.1452 9.26767 14.1452 9.55784C14.1452 9.84801 14.3851 10.0849 14.6791 10.0849C14.973 10.0849 15.213 9.84801 15.213 9.55784ZM16.4367 9.86577C16.4367 9.55191 16.1728 9.29135 15.8548 9.29135C15.5369 9.29135 15.2729 9.55191 15.2729 9.86577C15.2729 10.1796 15.5369 10.4402 15.8548 10.4402C16.1728 10.4402 16.4367 10.1856 16.4367 9.86577ZM23.4253 27.6313C23.4253 27.9037 23.6473 28.1228 23.9232 28.1228C24.1992 28.1228 24.4211 27.9037 24.4211 27.6313C24.4211 27.3589 24.1992 27.1398 23.9232 27.1398C23.6473 27.1398 23.4253 27.3589 23.4253 27.6313ZM17.0126 24.2499C17.2406 24.2499 17.4265 24.0663 17.4265 23.8413C17.4265 23.6163 17.2406 23.4327 17.0126 23.4327C16.7846 23.4327 16.5987 23.6163 16.5987 23.8413C16.5987 24.0663 16.7846 24.2499 17.0126 24.2499ZM16.5207 22.4201C16.2987 22.4201 16.1188 22.5977 16.1188 22.8168C16.1188 23.0359 16.2987 23.2136 16.5207 23.2136C16.7427 23.2136 16.9226 23.0359 16.9226 22.8168C16.9226 22.5977 16.7427 22.4201 16.5207 22.4201ZM15.7528 21.5792C15.5429 21.5792 15.3629 21.745 15.3629 21.9641C15.3629 22.1832 15.5309 22.349 15.7528 22.349C15.9748 22.349 16.1428 22.1832 16.1428 21.9641C16.1428 21.745 15.9688 21.5792 15.7528 21.5792ZM14.775 21.7272C14.979 21.7272 15.147 21.5614 15.147 21.36C15.147 21.1587 14.979 20.9929 14.775 20.9929C14.5711 20.9929 14.4031 21.1587 14.4031 21.36C14.4031 21.5614 14.5711 21.7272 14.775 21.7272ZM13.6593 21.4311C13.8632 21.4311 14.0312 21.2653 14.0312 21.064C14.0312 20.8626 13.8632 20.6968 13.6593 20.6968C13.4553 20.6968 13.2873 20.8626 13.2873 21.064C13.2873 21.2653 13.4553 21.4311 13.6593 21.4311ZM12.1296 21.0403C12.1296 21.2416 12.2975 21.4074 12.5015 21.4074C12.7055 21.4074 12.8734 21.2416 12.8734 21.0403C12.8734 20.8389 12.7055 20.6731 12.5015 20.6731C12.2975 20.6731 12.1296 20.8389 12.1296 21.0403ZM11.3437 20.679C11.1398 20.679 10.9718 20.8448 10.9718 21.0462C10.9718 21.2475 11.1398 21.4133 11.3437 21.4133C11.5477 21.4133 11.7157 21.2475 11.7157 21.0462C11.7157 20.8448 11.5477 20.679 11.3437 20.679ZM10.7079 20.6317C10.7079 20.4303 10.5399 20.2645 10.3359 20.2645C10.132 20.2645 9.96401 20.4303 9.96401 20.6317C9.96401 20.833 10.132 20.9988 10.3359 20.9988C10.5459 20.9988 10.7079 20.833 10.7079 20.6317ZM10.018 19.542C10.018 19.7493 10.186 19.9092 10.3899 19.9092C10.5939 19.9092 10.7618 19.7434 10.7618 19.542C10.7618 19.3407 10.5939 19.1749 10.3899 19.1749C10.186 19.1749 10.018 19.3407 10.018 19.542ZM11.2418 18.4998C11.2418 18.2925 11.0738 18.1267 10.8638 18.1267C10.6539 18.1267 10.4859 18.2925 10.4859 18.4998C10.4859 18.7071 10.6539 18.8729 10.8638 18.8729C11.0738 18.8729 11.2418 18.7071 11.2418 18.4998ZM11.3317 17.0726C11.1158 17.0726 10.9418 17.2444 10.9418 17.4576C10.9418 17.6707 11.1158 17.8425 11.3317 17.8425C11.5477 17.8425 11.7217 17.6707 11.7217 17.4576C11.7217 17.2444 11.5477 17.0726 11.3317 17.0726ZM12.2076 16.4094C12.2076 16.1903 12.0276 16.0126 11.8056 16.0126C11.5837 16.0126 11.4037 16.1903 11.4037 16.4094C11.4037 16.6285 11.5837 16.8062 11.8056 16.8062C12.0276 16.8062 12.2076 16.6285 12.2076 16.4094ZM12.2735 14.9585C12.0456 14.9585 11.8596 15.1421 11.8596 15.3672C11.8596 15.5922 12.0456 15.7758 12.2735 15.7758C12.5015 15.7758 12.6875 15.5922 12.6875 15.3672C12.6875 15.1421 12.5015 14.9585 12.2735 14.9585ZM12.7415 13.9045C12.5015 13.9045 12.3155 14.094 12.3155 14.3249C12.3155 14.5559 12.5075 14.7454 12.7415 14.7454C12.9754 14.7454 13.1674 14.5559 13.1674 14.3249C13.1674 14.094 12.9814 13.9045 12.7415 13.9045ZM13.6533 13.2827C13.6533 13.0458 13.4553 12.8504 13.2154 12.8504C12.9754 12.8504 12.7774 13.0458 12.7774 13.2827C12.7774 13.5195 12.9754 13.715 13.2154 13.715C13.4553 13.715 13.6533 13.5195 13.6533 13.2827ZM13.6893 11.7904C13.4373 11.7904 13.2394 11.9858 13.2394 12.2345C13.2394 12.4832 13.4373 12.6786 13.6893 12.6786C13.9412 12.6786 14.1392 12.4832 14.1392 12.2345C14.1392 11.9858 13.9352 11.7904 13.6893 11.7904ZM14.6911 11.2337C14.6911 10.985 14.4811 10.7777 14.2292 10.7777C13.9772 10.7777 13.7672 10.985 13.7672 11.2337C13.7672 11.4824 13.9772 11.6897 14.2292 11.6897C14.4811 11.6897 14.6911 11.4884 14.6911 11.2337ZM15.7768 11.1567C15.7768 10.8962 15.5609 10.6771 15.2909 10.6771C15.021 10.6771 14.805 10.8902 14.805 11.1567C14.805 11.4232 15.021 11.6364 15.2909 11.6364C15.5609 11.6364 15.7768 11.4232 15.7768 11.1567ZM24.0012 28.6854C24.0012 28.9992 23.7433 29.2538 23.4253 29.2538C23.1074 29.2538 22.8494 28.9992 22.8494 28.6854C22.8494 28.6084 22.8674 28.5314 22.8974 28.4662C22.8014 28.5255 22.6995 28.5669 22.5795 28.5669C22.2196 28.5669 21.9316 28.2767 21.9316 27.9274C21.9316 27.8148 21.9676 27.7201 22.0216 27.6253C22.0096 27.6253 21.9976 27.6313 21.9796 27.6313C21.6017 27.6313 21.2897 27.3293 21.2897 26.9503C21.2897 26.8141 21.3377 26.6897 21.4097 26.5831C21.0738 26.5239 20.8098 26.2396 20.8098 25.8902C20.8098 25.7659 20.8518 25.6534 20.9058 25.5527C20.5759 25.4639 20.3299 25.1856 20.3299 24.8302C20.3299 24.7177 20.3599 24.6111 20.4019 24.5164C20.09 24.4098 19.862 24.1196 19.862 23.7762C19.862 23.6636 19.886 23.563 19.928 23.4623C19.6281 23.3439 19.4121 23.0537 19.4121 22.7161C19.4121 22.6096 19.4361 22.5089 19.4721 22.4141C19.1722 22.2898 18.9622 21.9996 18.9622 21.6561C18.9622 21.5555 18.9862 21.4548 19.0222 21.366C18.7223 21.2357 18.5123 20.9455 18.5123 20.5961C18.5123 20.4955 18.5363 20.4007 18.5723 20.3119C18.2723 20.1757 18.0624 19.8855 18.0624 19.5361C18.0624 19.4355 18.0864 19.3407 18.1224 19.2519C17.8284 19.1098 17.6185 18.8196 17.6185 18.4761C17.6185 18.3695 17.6425 18.2689 17.6785 18.1741C17.3965 18.032 17.1926 17.7537 17.1926 17.422C17.1926 17.2977 17.2226 17.1852 17.2645 17.0786C16.9886 16.9483 16.7966 16.6818 16.7966 16.362C16.7966 16.2199 16.8446 16.0955 16.9106 15.9771C16.6347 15.8705 16.4367 15.6099 16.4367 15.2961C16.4367 15.1303 16.5027 14.9882 16.5927 14.8638C16.2987 14.7987 16.0708 14.5499 16.0708 14.2361C16.0708 14.0407 16.1608 13.8749 16.2927 13.7564C15.9748 13.7564 15.7169 13.4959 15.7169 13.182C15.7169 12.8681 15.9808 12.6017 16.3047 12.6017C16.5147 12.6017 16.6947 12.7201 16.8026 12.8918C16.8386 12.803 16.8806 12.7319 16.9466 12.6668C16.6827 12.6431 16.4607 12.4714 16.3767 12.2286C16.3287 12.4655 16.1248 12.6372 15.8788 12.6372C15.5909 12.6372 15.3569 12.4062 15.3569 12.122C15.3569 11.8377 15.5909 11.6068 15.8788 11.6068C16.0888 11.6068 16.2687 11.7371 16.3527 11.9088C16.3767 11.7311 16.4667 11.5831 16.6047 11.4765C16.5867 11.4765 16.5687 11.4884 16.5447 11.4884C16.1968 11.4884 15.9088 11.21 15.9088 10.8606C15.9088 10.5113 16.1908 10.2329 16.5447 10.2329C16.6107 10.2329 16.6767 10.2507 16.7367 10.2685C16.6707 10.1619 16.6227 10.0434 16.6227 9.91315C16.6227 9.71773 16.7007 9.54599 16.8266 9.42163C16.7786 9.43348 16.7247 9.45716 16.6707 9.45716C16.2987 9.45716 15.9988 9.15515 15.9988 8.79392C15.9988 8.43269 16.3047 8.13067 16.6707 8.13067C16.8206 8.13067 16.9526 8.18989 17.0726 8.2728C17.0726 8.26688 17.0726 8.26096 17.0726 8.25503C17.0726 7.85235 17.4025 7.52665 17.8104 7.52665C17.8404 7.52665 17.8644 7.53849 17.8884 7.54441C17.8404 7.44966 17.8164 7.34307 17.8164 7.23056C17.8164 6.82195 18.1524 6.48441 18.5723 6.48441C18.5963 6.48441 18.6203 6.49625 18.6443 6.49625C18.6083 6.40742 18.5903 6.31859 18.5903 6.22385C18.5903 5.81524 18.9262 5.47769 19.3461 5.47769C19.3881 5.47769 19.4241 5.49546 19.4661 5.50138C19.4541 5.45401 19.4301 5.40071 19.4301 5.34741C19.4301 4.93881 19.766 4.61311 20.174 4.61311C20.234 4.61311 20.2879 4.63087 20.3479 4.64864C20.3479 4.62495 20.3359 4.60718 20.3359 4.5835C20.3359 4.19266 20.6539 3.8788 21.0498 3.8788C21.4457 3.8788 21.7636 4.19266 21.7636 4.5835C21.7636 4.97434 21.4457 5.2882 21.0498 5.2882C20.9958 5.2882 20.9478 5.27043 20.8998 5.25859C20.8998 5.29412 20.9178 5.3178 20.9178 5.34741C20.9178 5.75602 20.5819 6.08172 20.174 6.08172C20.138 6.08172 20.102 6.06396 20.06 6.06396C20.072 6.11725 20.096 6.17055 20.096 6.22977C20.096 6.63837 19.76 6.97592 19.3401 6.97592C19.3161 6.97592 19.2921 6.96407 19.2681 6.96407C19.3041 7.04698 19.3221 7.13581 19.3221 7.23648C19.3221 7.2957 19.3041 7.34899 19.2861 7.40821C19.4001 7.14765 19.6701 6.95815 19.982 6.95815C20.03 6.95815 20.072 6.97592 20.12 6.98776C20.12 6.97 20.108 6.94631 20.108 6.92854C20.108 6.52586 20.4379 6.20016 20.8458 6.20016C20.9178 6.20016 20.9898 6.21792 21.0558 6.24161C21.0558 5.86261 21.3677 5.55468 21.7576 5.55468C22.1476 5.55468 22.4595 5.86261 22.4595 6.24753C22.4595 6.63245 22.1476 6.94039 21.7576 6.94039C21.6977 6.94039 21.6437 6.92262 21.5837 6.90486C21.5837 6.91078 21.5837 6.92262 21.5837 6.92854C21.5837 7.33123 21.2537 7.65693 20.8458 7.65693C20.8038 7.65693 20.7678 7.63916 20.7259 7.63324C20.7259 7.66285 20.7439 7.68062 20.7439 7.71022C20.7439 8.12475 20.4019 8.45638 19.988 8.45638C19.964 8.45638 19.94 8.44453 19.916 8.43861C19.928 8.49783 19.952 8.55113 19.952 8.61627C19.952 8.91236 19.778 9.16107 19.5261 9.28543C19.6041 9.26174 19.6821 9.23806 19.772 9.23806C19.808 9.23806 19.832 9.25582 19.868 9.25582C19.868 9.23214 19.85 9.20845 19.85 9.18476C19.85 8.77023 20.192 8.42677 20.6179 8.42677C20.6779 8.42677 20.7319 8.44453 20.7918 8.4623C20.8038 8.07738 21.1218 7.76352 21.5177 7.76352C21.6137 7.76352 21.7037 7.78129 21.7876 7.81682C21.8236 7.47335 22.1056 7.20687 22.4595 7.20687C22.8374 7.20687 23.1494 7.50888 23.1494 7.88788C23.1494 8.26688 22.8434 8.56889 22.4595 8.56889C22.3815 8.56889 22.3095 8.55112 22.2376 8.52152C22.2196 8.90643 21.9016 9.20845 21.5177 9.20845C21.4697 9.20845 21.4277 9.19068 21.3797 9.17884C21.3797 9.59929 21.0378 9.94275 20.6119 9.94275C20.5819 9.94275 20.5579 9.93091 20.5279 9.92499C20.5279 9.9546 20.5459 9.98421 20.5459 10.0138C20.5459 10.2981 20.3839 10.529 20.156 10.6652C20.216 10.6475 20.2819 10.6297 20.3539 10.6297C20.4019 10.6297 20.4499 10.6475 20.4979 10.6593C20.5039 10.2566 20.8338 9.93091 21.2418 9.93091C21.3317 9.93091 21.4097 9.94868 21.4877 9.97829C21.5297 9.6289 21.8176 9.35057 22.1836 9.35057C22.3035 9.35057 22.4115 9.3861 22.5135 9.4394C22.5615 9.11962 22.8314 8.8709 23.1674 8.8709C23.5393 8.8709 23.8392 9.167 23.8392 9.53415C23.8392 9.9013 23.5393 10.1974 23.1674 10.1974C23.0654 10.1974 22.9694 10.1678 22.8794 10.1263C22.8374 10.4757 22.5495 10.754 22.1836 10.754C22.1116 10.754 22.0456 10.7363 21.9856 10.7126C21.9616 11.0975 21.6437 11.4054 21.2418 11.4054C21.2058 11.4054 21.1758 11.3877 21.1398 11.3877C21.1398 11.3936 21.1398 11.3995 21.1398 11.4054C21.1398 11.7075 20.9598 11.9621 20.7139 12.0865C20.7858 12.0628 20.8578 12.0391 20.9418 12.0391C21.0138 12.0391 21.0858 12.0568 21.1518 12.0805C21.1878 11.7134 21.4877 11.4232 21.8656 11.4232C21.9796 11.4232 22.0816 11.4528 22.1776 11.4943C22.2376 11.1745 22.5075 10.9258 22.8494 10.9258C22.9934 10.9258 23.1254 10.9791 23.2394 11.0561C23.2993 10.754 23.5513 10.5231 23.8752 10.5231C24.2352 10.5231 24.5351 10.8133 24.5351 11.1745C24.5351 11.5357 24.2412 11.8259 23.8752 11.8259C23.7433 11.8259 23.6293 11.7785 23.5273 11.7134C23.4793 12.045 23.2034 12.2996 22.8554 12.2996C22.7594 12.2996 22.6695 12.2819 22.5855 12.2404C22.5315 12.5839 22.2436 12.8563 21.8776 12.8563C21.8176 12.8563 21.7636 12.8385 21.7097 12.8208C21.6917 13.2175 21.3617 13.5373 20.9538 13.5373C20.9178 13.5373 20.8818 13.5195 20.8518 13.5195C20.8458 13.715 20.7618 13.8926 20.6419 14.0229C20.7079 14.0229 20.7738 14.0407 20.8278 14.0584C20.8878 13.715 21.1758 13.4426 21.5417 13.4426C21.6437 13.4426 21.7397 13.4603 21.8236 13.5018C21.8776 13.1702 22.1596 12.9155 22.5075 12.9155C22.6455 12.9155 22.7714 12.9629 22.8794 13.034C22.9454 12.7319 23.2034 12.501 23.5273 12.501C23.6953 12.501 23.8512 12.572 23.9712 12.6727C24.0372 12.3944 24.2831 12.1812 24.5891 12.1812C24.943 12.1812 25.237 12.4655 25.237 12.8208C25.237 13.1761 24.949 13.4603 24.5891 13.4603C24.4331 13.4603 24.2951 13.4011 24.1812 13.3064C24.1212 13.6084 23.8632 13.8512 23.5333 13.8512C23.4073 13.8512 23.2933 13.8038 23.1974 13.7505C23.1374 14.0762 22.8614 14.3249 22.5135 14.3249C22.4235 14.3249 22.3455 14.3071 22.2675 14.2775C22.2196 14.6388 21.9196 14.923 21.5477 14.923C21.4877 14.923 21.4337 14.9053 21.3797 14.8875C21.3617 15.0711 21.2897 15.2428 21.1638 15.3672C21.2657 15.3672 21.3677 15.3849 21.4577 15.4264C21.5297 15.1184 21.8056 14.8816 22.1416 14.8816C22.2735 14.8816 22.3875 14.923 22.4895 14.9822C22.5495 14.6684 22.8194 14.4374 23.1494 14.4374C23.3173 14.4374 23.4613 14.5026 23.5813 14.6032C23.6533 14.3249 23.8992 14.1117 24.2052 14.1117C24.4031 14.1117 24.5771 14.2065 24.7031 14.3486C24.769 14.0762 25.009 13.8689 25.3029 13.8689C25.6509 13.8689 25.9328 14.1473 25.9328 14.4907C25.9328 14.8342 25.6509 15.1125 25.3029 15.1125C25.117 15.1125 24.955 15.0237 24.835 14.8993C24.769 15.1895 24.5171 15.4145 24.2052 15.4145C24.0492 15.4145 23.9112 15.3553 23.8032 15.2665C23.7313 15.5685 23.4733 15.7994 23.1434 15.7994C23.0294 15.7994 22.9214 15.7639 22.8254 15.7106C22.7654 16.0422 22.4895 16.2969 22.1356 16.2969C22.0516 16.2969 21.9796 16.2791 21.9016 16.2495C21.8656 16.4508 21.7576 16.6167 21.5957 16.7351C21.6317 16.7351 21.6677 16.7173 21.7037 16.7173C21.8356 16.7173 21.9556 16.7647 22.0636 16.8239C22.1356 16.5278 22.3995 16.3087 22.7235 16.3087C22.8794 16.3087 23.0174 16.3679 23.1374 16.4568C23.2034 16.1666 23.4553 15.9475 23.7732 15.9475C23.9712 15.9475 24.1452 16.0363 24.2651 16.1666C24.3371 15.9001 24.5771 15.6988 24.871 15.6988C25.111 15.6988 25.3029 15.8291 25.4169 16.0186C25.4769 15.7402 25.7109 15.533 26.0108 15.533C26.3527 15.533 26.6287 15.8054 26.6287 16.1429C26.6287 16.4805 26.3527 16.7529 26.0108 16.7529C25.7888 16.7529 25.5969 16.6285 25.4889 16.4508C25.4289 16.741 25.183 16.966 24.871 16.966C24.6851 16.966 24.5231 16.8831 24.4031 16.7588C24.3311 17.043 24.0852 17.2562 23.7672 17.2562C23.6233 17.2562 23.4913 17.197 23.3773 17.12C23.3113 17.428 23.0474 17.6648 22.7175 17.6648C22.6035 17.6648 22.5075 17.6293 22.4115 17.5878C22.3395 17.9195 22.0576 18.1741 21.7037 18.1741C21.6737 18.1741 21.6497 18.1623 21.6197 18.1563C21.6557 18.2333 21.6677 18.3162 21.6677 18.4051C21.7936 18.2096 22.0036 18.0675 22.2496 18.0675C22.4115 18.0675 22.5555 18.1267 22.6695 18.2215C22.7415 17.9372 22.9874 17.724 23.3053 17.724C23.4913 17.724 23.6653 17.801 23.7852 17.9254C23.8572 17.6471 24.0972 17.4457 24.3971 17.4457C24.6311 17.4457 24.823 17.576 24.937 17.7596C24.997 17.4872 25.237 17.2799 25.5309 17.2799C25.8248 17.2799 26.0408 17.4694 26.1188 17.7181C26.1548 17.428 26.4007 17.1911 26.7067 17.1911C27.0426 17.1911 27.3065 17.4576 27.3065 17.7833C27.3065 18.109 27.0366 18.3754 26.7067 18.3754C26.4427 18.3754 26.2208 18.1978 26.1428 17.9609C26.1068 18.2689 25.8488 18.5057 25.5369 18.5057C25.3149 18.5057 25.123 18.3814 25.015 18.2037C24.955 18.488 24.7091 18.7071 24.3971 18.7071C24.2172 18.7071 24.0612 18.636 23.9412 18.5235C23.8692 18.8137 23.6233 19.0268 23.3053 19.0268C23.1614 19.0268 23.0294 18.9676 22.9214 18.8906C22.8554 19.1986 22.5855 19.4355 22.2496 19.4355C22.1896 19.4355 22.1416 19.4177 22.0876 19.3999C22.1176 19.4769 22.1356 19.5539 22.1356 19.6486C22.1356 19.8855 22.0096 20.0869 21.8296 20.2171C21.8656 20.2171 21.8896 20.1994 21.9256 20.1994C22.0156 20.1994 22.1056 20.2171 22.1836 20.2467C22.1656 20.1875 22.1476 20.1224 22.1476 20.0572C22.1476 19.696 22.4415 19.4058 22.8074 19.4058C22.9994 19.4058 23.1674 19.4887 23.2933 19.619C23.3593 19.3407 23.5993 19.1275 23.8992 19.1275C24.1272 19.1275 24.3191 19.2578 24.4331 19.4295C24.4931 19.1512 24.7271 18.9321 25.027 18.9321C25.3269 18.9321 25.5489 19.1275 25.6149 19.394C25.6389 19.092 25.8908 18.8492 26.2088 18.8492C26.5447 18.8492 26.8086 19.1098 26.8086 19.4414C26.8086 19.773 26.5387 20.0336 26.2088 20.0336C25.9268 20.0336 25.7109 19.8441 25.6389 19.5894C25.6149 19.9033 25.3569 20.1461 25.033 20.1461C24.811 20.1461 24.6311 20.0276 24.5231 19.8559C24.4691 20.1461 24.2172 20.3711 23.9052 20.3711C23.7193 20.3711 23.5633 20.2941 23.4493 20.1757C23.3833 20.4659 23.1314 20.6909 22.8134 20.6909C22.7235 20.6909 22.6455 20.6731 22.5675 20.6435C22.5855 20.7086 22.6095 20.7738 22.6095 20.8448C22.6095 21.212 22.3035 21.5081 21.9376 21.5081C21.7696 21.5081 21.6197 21.443 21.4997 21.3423C21.4697 21.4133 21.4277 21.4726 21.3677 21.5318C21.5717 21.5555 21.7397 21.668 21.8476 21.8279C21.9376 21.591 22.1656 21.4311 22.4415 21.4311C22.5675 21.4311 22.6755 21.4785 22.7774 21.5377C22.7594 21.4785 22.7415 21.4193 22.7415 21.3541C22.7415 21.0107 23.0234 20.7383 23.3653 20.7383C23.5993 20.7383 23.7912 20.8685 23.9052 21.0521C23.9472 20.7619 24.1932 20.5369 24.4991 20.5369C24.787 20.5369 25.015 20.7323 25.075 20.9988C25.081 20.685 25.3389 20.4303 25.6629 20.4303C25.9868 20.4303 26.2567 20.6909 26.2567 21.0166C26.2567 21.3423 25.9928 21.6028 25.6629 21.6028C25.3809 21.6028 25.165 21.4074 25.099 21.1587C25.093 21.4844 24.823 21.745 24.4931 21.745C24.2711 21.745 24.0792 21.6147 23.9712 21.443C23.9292 21.745 23.6773 21.9818 23.3653 21.9818C23.2453 21.9818 23.1374 21.9404 23.0414 21.8812C23.0594 21.9404 23.0774 22.0055 23.0774 22.0707C23.0774 22.4201 22.7894 22.6984 22.4415 22.6984C22.2256 22.6984 22.0456 22.5859 21.9316 22.426C21.8956 22.5326 21.8356 22.6273 21.7576 22.7043C22.0516 22.7043 22.2975 22.9056 22.3695 23.1781C22.4235 22.8997 22.6575 22.6925 22.9454 22.6925C23.1014 22.6925 23.2453 22.7517 23.3533 22.8523C23.3353 22.7931 23.3173 22.7398 23.3173 22.6747C23.3173 22.349 23.5813 22.0884 23.9112 22.0884C24.2412 22.0884 24.5051 22.349 24.5051 22.6747C24.5051 23.0004 24.2412 23.261 23.9112 23.261C23.7552 23.261 23.6173 23.2017 23.5093 23.1011C23.5273 23.1603 23.5453 23.2195 23.5453 23.2846C23.5453 23.6163 23.2753 23.8827 22.9394 23.8827C22.6695 23.8827 22.4415 23.6992 22.3695 23.4564C22.3335 23.6577 22.2136 23.8235 22.0276 23.9124C22.0876 23.8946 22.1476 23.8768 22.2136 23.8768C22.5495 23.8768 22.8254 24.1492 22.8254 24.4809C22.8254 24.8125 22.5495 25.0849 22.2136 25.0849C22.0816 25.0849 21.9736 25.0375 21.8776 24.9724C21.8596 25.0553 21.8296 25.1323 21.7876 25.2033C21.9316 25.2507 22.0516 25.3336 22.1416 25.452C22.2136 25.2211 22.4235 25.0494 22.6815 25.0494C22.9994 25.0494 23.2573 25.304 23.2573 25.6178C23.2573 25.9317 22.9994 26.1863 22.6815 26.1863C22.5195 26.1863 22.3755 26.1212 22.2735 26.0205C22.2555 26.1212 22.2136 26.2159 22.1596 26.2989C22.3755 26.3462 22.5615 26.4824 22.6455 26.6838C22.6815 26.4291 22.8974 26.2278 23.1674 26.2278C23.4613 26.2278 23.7073 26.4647 23.7073 26.7608C23.7073 27.0569 23.4673 27.2937 23.1674 27.2937C22.9574 27.2937 22.7774 27.1694 22.6875 26.9976C22.6815 27.1101 22.6455 27.2049 22.5915 27.2937C22.5915 27.2937 22.5975 27.2937 22.6095 27.2937C22.9694 27.2937 23.2573 27.5839 23.2573 27.9333C23.2573 28.034 23.2334 28.1228 23.1914 28.2057C23.2753 28.1583 23.3653 28.1287 23.4673 28.1287C23.7912 28.1583 24.0492 28.4129 24.0492 28.7268L24.0012 28.6854ZM18.2004 8.84722C18.2543 8.83537 18.3023 8.81169 18.3563 8.81169C18.3803 8.81169 18.4043 8.82353 18.4283 8.82353C18.4103 8.76431 18.3923 8.71101 18.3923 8.64587C18.3443 8.72878 18.2783 8.788 18.2004 8.84129V8.84722ZM21.9076 23.9538C21.8476 23.9716 21.7756 23.9953 21.7097 23.9953C21.6077 23.9953 21.5177 23.9716 21.4337 23.9301C21.4217 24.0012 21.4037 24.0663 21.3737 24.1255C21.4637 24.1611 21.5417 24.2085 21.6137 24.2677C21.6737 24.1315 21.7816 24.0189 21.9136 23.9538H21.9076ZM21.2477 22.9056C21.2477 22.9056 21.2418 22.9056 21.2358 22.9056C21.1578 22.9056 21.0858 22.8879 21.0138 22.8583C21.0018 22.9175 20.9958 22.9886 20.9718 23.0418C21.0198 23.0596 21.0618 23.1011 21.1038 23.1307C21.1338 23.0418 21.1818 22.9649 21.2477 22.9056ZM21.4937 20.3415C21.4577 20.3415 21.4217 20.3593 21.3797 20.3593C21.2478 20.3593 21.1278 20.3119 21.0258 20.2527C21.0078 20.3 20.9658 20.3415 20.9358 20.3829C21.0678 20.4185 21.1998 20.4718 21.2897 20.5665C21.3377 20.4777 21.4037 20.4007 21.4877 20.3415H21.4937ZM20.3239 12.1931C20.3239 12.1931 20.2819 12.1812 20.2579 12.1812C20.2579 12.1812 20.2579 12.1871 20.2579 12.199C20.2579 12.4003 20.174 12.5839 20.048 12.7201C20.084 12.7201 20.12 12.7319 20.156 12.7379C20.18 12.4773 20.3359 12.2582 20.5579 12.1398C20.4859 12.1634 20.4079 12.1871 20.3179 12.1871L20.3239 12.1931ZM19.7421 10.7896C19.7421 10.7896 19.6941 10.7777 19.6701 10.7777C19.6701 10.8133 19.6881 10.8429 19.6881 10.8784C19.6881 10.9258 19.6701 10.9672 19.6581 11.0146C19.7241 10.9021 19.814 10.8192 19.928 10.754C19.868 10.7659 19.802 10.7896 19.7361 10.7896H19.7421ZM19.3941 9.33281C19.3161 9.35649 19.2382 9.38018 19.1542 9.38018C19.1242 9.38018 19.1062 9.36834 19.0822 9.36242C19.1002 9.42756 19.1242 9.4927 19.1242 9.56376C19.1242 9.56376 19.1242 9.56968 19.1242 9.5756C19.1962 9.47493 19.2861 9.3861 19.4061 9.32688L19.3941 9.33281ZM18.5483 7.98263C18.5123 7.98263 18.4883 7.96486 18.4583 7.96486C18.4943 8.04185 18.5123 8.13067 18.5183 8.22542C18.6563 8.01816 18.8782 7.87011 19.1542 7.87011C19.1842 7.87011 19.2082 7.88196 19.2382 7.88788C19.2262 7.82866 19.2022 7.77536 19.2022 7.71615C19.2022 7.65693 19.2202 7.60363 19.2382 7.54441C19.1122 7.80497 18.8482 7.98855 18.5423 7.98855L18.5483 7.98263ZM24.5591 28.7564C24.2771 28.7564 24.0492 28.9814 24.0492 29.2598C24.0492 29.5381 24.2771 29.7631 24.5591 29.7631C24.841 29.7631 25.069 29.5381 25.069 29.2598C25.069 28.9814 24.841 28.7564 24.5591 28.7564Z" fill="var(--fill-0, #E41C13)"/>
</g>
</svg>
