<svg preserveAspectRatio="xMidYMid meet" width="100%" height="100%" overflow="visible" style="display: block;" viewBox="0 0 41 32.0044" fill="none" xmlns="http://www.w3.org/2000/svg">
<g id="Group">
<path id="Vector" d="M0 31.6003V0.516263C0 0.299766 0.0902 0.18319 0.2952 0.18319C0.8036 0.18319 1.2792 0.18319 1.9598 0.149883C2.6732 0.116576 3.4194 0.116576 4.223 0.0915951C5.0266 0.0666146 5.8876 0.0582878 6.8142 0.0333073C7.7408 0.00832683 8.6264 0 9.5202 0C11.9638 0 13.981 0.299766 15.6456 0.932605C17.1298 1.44887 18.4992 2.28988 19.6308 3.414C20.582 4.37991 21.3282 5.56232 21.8038 6.86131C22.2466 8.12698 22.4844 9.42597 22.4844 10.7916C22.4844 13.3895 21.8858 15.5379 20.6968 17.2282C19.5078 18.9186 17.8432 20.1926 15.908 20.917C13.8826 21.6747 11.6522 21.9412 9.2168 21.9412C8.5034 21.9412 8.0278 21.9412 7.7326 21.9079C7.4374 21.8746 7.0192 21.8746 6.4534 21.8746V31.5753C6.4862 31.7835 6.3304 31.9667 6.1254 32H0.3608C0.123 32 0 31.8751 0 31.6086V31.6003ZM6.4862 6.01197V16.1624C6.9044 16.1957 7.2898 16.2207 7.6506 16.2207H9.225C10.3894 16.2207 11.5456 16.0375 12.6444 15.6794C13.5956 15.4046 14.432 14.8301 15.088 14.0807C15.7112 13.3229 16.0064 12.2987 16.0064 10.9664C16.0392 10.0338 15.8014 9.0929 15.3258 8.27687C14.8174 7.49414 14.104 6.88629 13.243 6.55321C12.1442 6.10356 10.9552 5.92037 9.7334 5.94535C8.9626 5.94535 8.2738 5.94535 7.708 5.97866C7.1094 5.94535 6.6994 5.97866 6.4862 6.01197Z" fill="var(--fill-0, #9999FF)"/>
<path id="Vector_2" d="M26.6582 7.76893H31.8652C32.1604 7.76893 32.3982 7.9771 32.4884 8.25189C32.5786 8.49336 32.636 8.73484 32.6688 9.00963C32.7262 9.30939 32.7918 9.64247 32.8164 9.94223C32.8492 10.2753 32.8738 10.6334 32.8738 11.033C33.7676 9.97554 34.8336 9.10122 36.0554 8.43508C37.4248 7.65235 38.9992 7.25267 40.5818 7.25267C40.7868 7.21936 40.9672 7.37757 41 7.58574V13.5977C41 13.8392 40.8524 13.9308 40.5244 13.9308C39.4502 13.8975 38.3514 13.9891 37.31 14.2305C36.449 14.4137 35.6126 14.6802 34.809 15.0466C34.2432 15.3214 33.7102 15.6794 33.292 16.1624V31.5753C33.292 31.8751 33.169 32 32.9066 32H27.0436C26.8058 32.0333 26.6008 31.8751 26.568 31.6336V14.7718C26.568 14.0474 26.568 13.2896 26.5352 12.5069C26.5024 11.7242 26.5024 10.9331 26.4778 10.1504C26.4778 9.45928 26.4204 8.79313 26.3548 8.09368C26.322 7.94379 26.4122 7.79391 26.5598 7.7606C26.5598 7.7273 26.6172 7.7273 26.65 7.7606L26.6582 7.76893Z" fill="var(--fill-0, #9999FF)"/>
</g>
</svg>
