<svg width="50" height="47" viewBox="0 0 50 47" fill="none" xmlns="http://www.w3.org/2000/svg">
<path d="M7.4692 12.2883L28.444 12.255L28.318 17.0999L20.2792 17.7159C7.99 18.615 4 21.9199 4 30.9355V32.7586C4 39.3767 8.7544 43.8887 15.9196 43.3309C21.9172 42.8648 28.402 38.819 28.402 38.819V42.8481H37.1884V3.39753H7.3432L7.4692 12.2883ZM28.3768 30.2029C24.034 32.3424 22.0012 33.974 18.3304 34.7815C14.7352 35.564 12.7864 34.2404 12.9124 30.6025C13.0384 26.9064 14.7184 25.999 21.808 25.4246L28.3768 24.7336V30.2113V30.2029Z" fill="#054ADA"/>
<path d="M28.3848 3.37255H37.188V12.2633H28.3848V3.37255ZM37.1964 12.2633H45.9996V42.8564H37.1964V12.2633Z" fill="#FB8501"/>
</svg>
