<svg xmlns="http://www.w3.org/2000/svg" viewBox="0 0 30 34" role="img" aria-label="Frame.io">
  <!-- Source: frame.io official site header SVG, captured 2026-07-15. -->
  <path fill="#111111" d="M1.944 34C.556 34-.363 32.552.139 31.262A39.3 39.3 0 0 0 2.803 17c0-5.03-.944-9.839-2.664-14.262C-.363 1.448.556 0 1.944 0c.755 0 1.44.448 1.718 1.148A43.1 43.1 0 0 1 6.664 17a43.1 43.1 0 0 1-3.002 15.852A1.84 1.84 0 0 1 1.944 34M11.2 30.15c-1.27 0-2.186-1.215-1.899-2.45A47.2 47.2 0 0 0 10.524 17c0-3.68-.423-7.262-1.223-10.7-.287-1.235.629-2.45 1.9-2.45.865 0 1.625.578 1.824 1.418A51 51 0 0 1 14.385 17c0 4.038-.471 7.965-1.36 11.732a1.86 1.86 0 0 1-1.824 1.419M19.95 24.377c-1.164 0-2.058-1.022-1.949-2.176a55.4 55.4 0 0 0 0-10.402c-.109-1.154.785-2.176 1.948-2.176.97 0 1.79.719 1.883 1.68a59.3 59.3 0 0 1 0 11.394c-.093.962-.914 1.68-1.883 1.68M27.841 14.54l1.103 1.1a1.92 1.92 0 0 1 0 2.72l-1.103 1.1c-.81.809-2.197.236-2.197-.907v-3.107c0-1.142 1.386-1.715 2.197-.907"/>
</svg>
