<svg width="50" height="47" viewBox="0 0 50 47" fill="none" xmlns="http://www.w3.org/2000/svg">
<path d="M44.2188 23.0173L44.182 22.6104C43.8324 18.7452 41.3392 11.4863 34.4024 11.4863C29.2504 11.4863 25.368 16.5906 21.9364 21.0939C19.204 24.691 16.8304 27.7888 14.2176 27.7888C13.5184 27.7148 12.626 27.3634 12.0832 26.5774C11.5956 25.8654 11.4668 24.9499 11.7152 23.8495C12.12 22.1111 14.4108 20.5021 16.8396 18.7822C18.1644 17.8667 19.5352 16.8958 20.4828 15.9711C23.2152 13.3172 24.6044 11.403 24.6044 8.30529C24.6044 5.20754 22.9024 3.68178 21.4856 3.01599C18.6428 1.69367 14.466 2.47042 11.798 4.77293C11.3932 5.14281 10.9976 5.48495 10.6296 5.81784C7.9524 8.21282 6.1492 9.8403 2 8.6012V13.6131C7.4924 16.0451 12.1108 11.403 13.8588 9.25774C15.2112 7.85219 16.6372 7.01996 17.686 7.01996H17.7412C18.2196 7.03845 18.6152 7.21414 18.9096 7.55628C19.388 8.10186 19.5628 8.74915 19.4708 9.45192C19.2776 10.9499 17.7228 12.7069 14.88 14.6303C11.5404 16.8773 5.956 20.6501 5.5236 25.3846C5.1924 28.7875 6.9496 32.1904 9.682 33.5127C16.0668 36.5457 19.9584 31.3211 24.08 25.7914C27.2356 21.5285 30.2256 17.4876 34.384 17.4876C38.1284 17.4876 39.5084 20.5946 39.5084 22.555V22.9341L39.1404 23.0081C30.0784 24.6263 25.1288 33.1428 25.1288 37.082C25.1288 41.0213 28.45 44.3779 32.544 44.3779C37.3188 44.3779 43.2344 40.2815 44.182 28.7597L44.2188 28.3344H48V23.0081H44.2004L44.2188 23.0173ZM39.2784 28.9169C38.5516 35.8152 35.028 39.0332 32.8936 39.0332C31.9276 39.0332 30.5752 38.2287 30.5752 36.7307C30.5752 35.0477 33.0776 29.9433 38.6988 28.4268L39.352 28.2604L39.2784 28.9169Z" fill="#D1FE17"/>
</svg>
