<svg preserveAspectRatio="xMidYMid meet" width="50" height="47" viewBox="0 0 50 47" fill="none" xmlns="http://www.w3.org/2000/svg">
<path fill-rule="evenodd" clip-rule="evenodd" d="M11.904 9.83657C13.208 10.8926 13.68 10.8046 16.112 10.6366L39.072 9.25257C39.568 9.25257 39.152 8.75657 38.992 8.70057L35.168 5.95657C34.448 5.40457 33.448 4.74057 31.592 4.90057L9.384 6.53257C8.584 6.61257 8.416 7.02857 8.744 7.33257L11.904 9.82857V9.83657ZM13.288 15.1806V39.3326C13.288 40.6366 13.928 41.1086 15.392 41.0206L40.624 39.5486C42.096 39.4686 42.256 38.5806 42.256 37.5246V13.5406C42.256 12.4846 41.84 11.9086 40.952 11.9886L14.584 13.5406C13.616 13.6206 13.28 14.1246 13.28 15.1726L13.288 15.1806ZM38.192 16.4846C38.36 17.2046 38.192 17.9566 37.472 18.0366L36.256 18.2846V36.1246C35.2 36.6766 34.232 37.0126 33.4 37.0126C32.096 37.0126 31.768 36.5966 30.8 35.3806L22.848 22.8846V34.9646L25.368 35.5166C25.368 35.5166 25.368 36.9886 23.344 36.9886L17.752 37.3246C17.584 36.9886 17.752 36.1886 18.304 36.0206L19.776 35.6046V19.6526L17.752 19.4846C17.584 18.7646 18 17.7086 19.136 17.6286L25.144 17.2126L33.424 29.8446V18.6846L31.32 18.4366C31.152 17.5486 31.816 16.8846 32.624 16.8046L38.192 16.5006V16.4846ZM7.528 4.31657L30.656 2.62857C33.48 2.38057 34.232 2.54857 36 3.84457L43.368 9.02857C44.584 9.91657 45 10.1646 45 11.1326V39.5806C45 41.3566 44.36 42.4046 42.088 42.5726L15.248 44.2046C13.528 44.2846 12.728 44.0366 11.84 42.9006L6.384 35.8366C5.416 34.5326 5 33.5646 5 32.4286V7.14857C5 5.67657 5.664 4.49257 7.52 4.32457L7.528 4.31657Z" fill="black"/>
</svg>
