<?xml version="1.0" encoding="UTF-8"?>
<svg xmlns="http://www.w3.org/2000/svg" width="3508" height="4961" viewBox="0 0 3508 4961">
  <defs>
    <linearGradient id="copyShade" x1="0" y1="0" x2="1" y2="0">
      <stop offset="0" stop-color="#04152F" stop-opacity="0.58"/>
      <stop offset="0.42" stop-color="#04152F" stop-opacity="0.26"/>
      <stop offset="0.72" stop-color="#04152F" stop-opacity="0"/>
    </linearGradient>
    <linearGradient id="accent" x1="0" y1="0" x2="1" y2="0">
      <stop offset="0" stop-color="#2FD7FF"/>
      <stop offset="0.52" stop-color="#7CF4D1"/>
      <stop offset="1" stop-color="#9C63FF"/>
    </linearGradient>
  </defs>
  <rect width="3508" height="4961" fill="url(#copyShade)"/>
  <rect x="260" y="1050" width="280" height="24" rx="12" fill="url(#accent)"/>
  <g data-copy="ALTA FRECUENCIA." transform="translate(260 1380)" fill="#FFFFFF"><g transform="translate(0.000 0.000) scale(0.250000 -0.250000)"><path d="M502 115L252 115L214 0L8 0L265 705L491 705L747 0L540 0ZM453 265L377 493L302 265Z"/></g><g transform="translate(187.750 0.000) scale(0.250000 -0.250000)"><path d="M252 150L471 150L471 0L56 0L56 705L252 705Z"/></g><g transform="translate(309.500 0.000) scale(0.250000 -0.250000)"><path d="M587 705L587 549L399 549L399 0L203 0L203 549L17 549L17 705Z"/></g><g transform="translate(459.500 0.000) scale(0.250000 -0.250000)"><path d="M502 115L252 115L214 0L8 0L265 705L491 705L747 0L540 0ZM453 265L377 493L302 265Z"/></g><g transform="translate(647.250 0.000) scale(0.250000 -0.250000)"><path d=""/></g><g transform="translate(694.000 0.000) scale(0.250000 -0.250000)"><path d="M534 705L534 549L252 549L252 425L460 425L460 276L252 276L252 0L56 0L56 705Z"/></g><g transform="translate(833.250 0.000) scale(0.250000 -0.250000)"><path d="M413 0L273 260L252 260L252 0L56 0L56 705L365 705Q450 705 509 675.5Q568 646 598 594.5Q628 543 628 479Q628 407 588.5 352.5Q549 298 473 275L632 0ZM252 394L349 394Q389 394 409 413Q429 432 429 468Q429 502 408.5 521.5Q388 541 349 541L252 541Z"/></g><g transform="translate(997.500 0.000) scale(0.250000 -0.250000)"><path d="M252 548L252 433L477 433L477 284L252 284L252 157L507 157L507 0L56 0L56 705L507 705L507 548Z"/></g><g transform="translate(1133.500 0.000) scale(0.250000 -0.250000)"><path d="M32 354Q32 458 75.5 539.5Q119 621 199 666.5Q279 712 383 712Q515 712 605 641.5Q695 571 721 450L510 450Q491 490 457.5 511Q424 532 380 532Q312 532 271.5 483.5Q231 435 231 354Q231 272 271.5 223.5Q312 175 380 175Q424 175 457.5 196Q491 217 510 257L721 257Q695 136 605 65.5Q515 -5 383 -5Q279 -5 199 40.5Q119 86 75.5 167.5Q32 249 32 354Z"/></g><g transform="translate(1322.000 0.000) scale(0.250000 -0.250000)"><path d="M248 705L248 296Q248 239 274.5 208Q301 177 355 177Q409 177 436.5 208.5Q464 240 464 296L464 705L660 705L660 296Q660 199 619 130.5Q578 62 507.5 27.5Q437 -7 351 -7Q265 -7 197.5 27.5Q130 62 91.5 130Q53 198 53 296L53 705Z"/></g><g transform="translate(1499.000 0.000) scale(0.250000 -0.250000)"><path d="M252 548L252 433L477 433L477 284L252 284L252 157L507 157L507 0L56 0L56 705L507 705L507 548Z"/></g><g transform="translate(1635.000 0.000) scale(0.250000 -0.250000)"><path d="M709 0L513 0L252 394L252 0L56 0L56 705L252 705L513 306L513 705L709 705Z"/></g><g transform="translate(1825.250 0.000) scale(0.250000 -0.250000)"><path d="M32 354Q32 458 75.5 539.5Q119 621 199 666.5Q279 712 383 712Q515 712 605 641.5Q695 571 721 450L510 450Q491 490 457.5 511Q424 532 380 532Q312 532 271.5 483.5Q231 435 231 354Q231 272 271.5 223.5Q312 175 380 175Q424 175 457.5 196Q491 217 510 257L721 257Q695 136 605 65.5Q515 -5 383 -5Q279 -5 199 40.5Q119 86 75.5 167.5Q32 249 32 354Z"/></g><g transform="translate(2013.750 0.000) scale(0.250000 -0.250000)"><path d="M252 705L252 0L56 0L56 705Z"/></g><g transform="translate(2089.750 0.000) scale(0.250000 -0.250000)"><path d="M502 115L252 115L214 0L8 0L265 705L491 705L747 0L540 0ZM453 265L377 493L302 265Z"/></g><g transform="translate(2277.500 0.000) scale(0.250000 -0.250000)"><path d="M151 -8Q99 -8 67.5 20.5Q36 49 36 93Q36 137 67.5 166Q99 195 151 195Q202 195 233.5 166Q265 137 265 93Q265 50 233.5 21Q202 -8 151 -8Z"/></g></g>
<g data-copy="ALTO ESTÁNDAR." transform="translate(260 1690)" fill="#7CF4D1"><g transform="translate(0.000 0.000) scale(0.250000 -0.250000)"><path d="M502 115L252 115L214 0L8 0L265 705L491 705L747 0L540 0ZM453 265L377 493L302 265Z"/></g><g transform="translate(187.750 0.000) scale(0.250000 -0.250000)"><path d="M252 150L471 150L471 0L56 0L56 705L252 705Z"/></g><g transform="translate(309.500 0.000) scale(0.250000 -0.250000)"><path d="M587 705L587 549L399 549L399 0L203 0L203 549L17 549L17 705Z"/></g><g transform="translate(459.500 0.000) scale(0.250000 -0.250000)"><path d="M394 -7Q295 -7 212 39.5Q129 86 80.5 168.5Q32 251 32 355Q32 459 80.5 541.5Q129 624 212 670Q295 716 394 716Q494 716 576.5 670Q659 624 707 541.5Q755 459 755 355Q755 251 707 168.5Q659 86 576 39.5Q493 -7 394 -7ZM394 175Q469 175 512.5 224Q556 273 556 355Q556 439 512.5 487.5Q469 536 394 536Q318 536 275 487.5Q232 439 232 355Q232 272 275 223.5Q318 175 394 175Z"/></g><g transform="translate(655.250 0.000) scale(0.250000 -0.250000)"><path d=""/></g><g transform="translate(702.000 0.000) scale(0.250000 -0.250000)"><path d="M252 548L252 433L477 433L477 284L252 284L252 157L507 157L507 0L56 0L56 705L507 705L507 548Z"/></g><g transform="translate(838.000 0.000) scale(0.250000 -0.250000)"><path d="M322 -7Q199 -7 120 51.5Q41 110 35 219L244 219Q247 182 266 165Q285 148 315 148Q342 148 359.5 161.5Q377 175 377 199Q377 230 348 247Q319 264 254 285Q185 308 142.5 329.5Q100 351 68.5 392.5Q37 434 37 501Q37 569 71 617.5Q105 666 165 691Q225 716 301 716Q424 716 497.5 658.5Q571 601 576 497L363 497Q362 529 343.5 545Q325 561 296 561Q274 561 260 548Q246 535 246 511Q246 491 261.5 476.5Q277 462 300 451.5Q323 441 368 425Q435 402 478.5 379.5Q522 357 553.5 316.5Q585 276 585 214Q585 151 553.5 101Q522 51 462.5 22Q403 -7 322 -7Z"/></g><g transform="translate(992.000 0.000) scale(0.250000 -0.250000)"><path d="M587 705L587 549L399 549L399 0L203 0L203 549L17 549L17 705Z"/></g><g transform="translate(1142.000 0.000) scale(0.250000 -0.250000)"><path d="M502 115L252 115L214 0L8 0L265 705L491 705L747 0L540 0ZM453 265L377 493L302 265ZM500 844L250 746L250 879L500 992Z"/></g><g transform="translate(1329.750 0.000) scale(0.250000 -0.250000)"><path d="M709 0L513 0L252 394L252 0L56 0L56 705L252 705L513 306L513 705L709 705Z"/></g><g transform="translate(1520.000 0.000) scale(0.250000 -0.250000)"><path d="M335 705Q446 705 529.5 660.5Q613 616 658 536Q703 456 703 353Q703 251 657.5 171Q612 91 528.5 45.5Q445 0 335 0L56 0L56 705L335 705ZM320 173Q406 173 455 220Q504 267 504 353Q504 440 455 487.5Q406 535 320 535L252 535L252 173L320 173Z"/></g><g transform="translate(1702.750 0.000) scale(0.250000 -0.250000)"><path d="M502 115L252 115L214 0L8 0L265 705L491 705L747 0L540 0ZM453 265L377 493L302 265Z"/></g><g transform="translate(1890.500 0.000) scale(0.250000 -0.250000)"><path d="M413 0L273 260L252 260L252 0L56 0L56 705L365 705Q450 705 509 675.5Q568 646 598 594.5Q628 543 628 479Q628 407 588.5 352.5Q549 298 473 275L632 0ZM252 394L349 394Q389 394 409 413Q429 432 429 468Q429 502 408.5 521.5Q388 541 349 541L252 541Z"/></g><g transform="translate(2054.750 0.000) scale(0.250000 -0.250000)"><path d="M151 -8Q99 -8 67.5 20.5Q36 49 36 93Q36 137 67.5 166Q99 195 151 195Q202 195 233.5 166Q265 137 265 93Q265 50 233.5 21Q202 -8 151 -8Z"/></g></g>
  <g data-copy="Producción creativa a escala, sin bajar" transform="translate(270 2100)" fill="#FFFFFF"><g transform="translate(0.000 0.000) scale(0.090000 -0.090000)"><path d="M561 488Q561 435 536 388Q511 341 456 311.5Q401 282 315 282L189 282L189 0L75 0L75 695L315 695Q395 695 450.5 667.5Q506 640 533.5 593Q561 546 561 488ZM315 375Q380 375 412 404.5Q444 434 444 488Q444 602 315 602L189 602L189 375L315 375Z"/></g><g transform="translate(53.550 0.000) scale(0.090000 -0.090000)"><path d="M189 471Q214 513 255.5 536.5Q297 560 354 560L354 442L325 442Q258 442 223.5 408Q189 374 189 290L189 0L75 0L75 551L189 551L189 471Z"/></g><g transform="translate(88.110 0.000) scale(0.090000 -0.090000)"><path d="M314 -9Q236 -9 173 26.5Q110 62 74 126.5Q38 191 38 276Q38 360 75 425Q112 490 176 525Q240 560 319 560Q398 560 462 525Q526 490 563 425Q600 360 600 276Q600 192 562 127Q524 62 458.5 26.5Q393 -9 314 -9ZM314 90Q358 90 396.5 111Q435 132 459 174Q483 216 483 276Q483 336 460 377.5Q437 419 399 440Q361 461 317 461Q273 461 235.5 440Q198 419 176 377.5Q154 336 154 276Q154 187 199.5 138.5Q245 90 314 90Z"/></g><g transform="translate(145.530 0.000) scale(0.090000 -0.090000)"><path d="M37 278Q37 361 71.5 425Q106 489 165.5 524.5Q225 560 298 560Q352 560 404.5 536.5Q457 513 488 474L488 740L603 740L603 0L488 0L488 83Q460 43 410.5 17Q361 -9 297 -9Q225 -9 165.5 27.5Q106 64 71.5 129.5Q37 195 37 278ZM488 276Q488 333 464.5 375Q441 417 403 439Q365 461 321 461Q277 461 239 439.5Q201 418 177.5 376.5Q154 335 154 278Q154 221 177.5 178Q201 135 239.5 112.5Q278 90 321 90Q365 90 403 112Q441 134 464.5 176.5Q488 219 488 276Z"/></g><g transform="translate(206.550 0.000) scale(0.090000 -0.090000)"><path d="M574 551L574 0L460 0L460 65Q433 31 389.5 11.5Q346 -8 297 -8Q232 -8 180.5 19Q129 46 99.5 99Q70 152 70 227L70 551L183 551L183 244Q183 170 220 130.5Q257 91 321 91Q385 91 422.5 130.5Q460 170 460 244L460 551Z"/></g><g transform="translate(264.960 0.000) scale(0.090000 -0.090000)"><path d="M37 276Q37 361 71.5 425.5Q106 490 167 525Q228 560 307 560Q407 560 472.5 512.5Q538 465 561 377L438 377Q423 418 390 441Q357 464 307 464Q237 464 195.5 414.5Q154 365 154 276Q154 187 195.5 137Q237 87 307 87Q406 87 438 174L561 174Q537 90 471 40.5Q405 -9 307 -9Q228 -9 167 26.5Q106 62 71.5 126.5Q37 191 37 276Z"/></g><g transform="translate(318.960 0.000) scale(0.090000 -0.090000)"><path d="M37 276Q37 361 71.5 425.5Q106 490 167 525Q228 560 307 560Q407 560 472.5 512.5Q538 465 561 377L438 377Q423 418 390 441Q357 464 307 464Q237 464 195.5 414.5Q154 365 154 276Q154 187 195.5 137Q237 87 307 87Q406 87 438 174L561 174Q537 90 471 40.5Q405 -9 307 -9Q228 -9 167 26.5Q106 62 71.5 126.5Q37 191 37 276Z"/></g><g transform="translate(372.960 0.000) scale(0.090000 -0.090000)"><path d="M133 624Q102 624 81 645Q60 666 60 697Q60 728 81 749Q102 770 133 770Q163 770 184 749Q205 728 205 697Q205 666 184 645Q163 624 133 624ZM189 551L189 0L75 0L75 551Z"/></g><g transform="translate(396.720 0.000) scale(0.090000 -0.090000)"><path d="M314 -9Q236 -9 173 26.5Q110 62 74 126.5Q38 191 38 276Q38 360 75 425Q112 490 176 525Q240 560 319 560Q398 560 462 525Q526 490 563 425Q600 360 600 276Q600 192 562 127Q524 62 458.5 26.5Q393 -9 314 -9ZM314 90Q358 90 396.5 111Q435 132 459 174Q483 216 483 276Q483 336 460 377.5Q437 419 399 440Q361 461 317 461Q273 461 235.5 440Q198 419 176 377.5Q154 336 154 276Q154 187 199.5 138.5Q245 90 314 90ZM422 708L201 599L201 683L422 805Z"/></g><g transform="translate(454.140 0.000) scale(0.090000 -0.090000)"><path d="M353 560Q418 560 469.5 533Q521 506 550 453Q579 400 579 325L579 0L466 0L466 308Q466 382 429 421.5Q392 461 328 461Q264 461 226.5 421.5Q189 382 189 308L189 0L75 0L75 551L189 551L189 488Q217 522 260.5 541Q304 560 353 560Z"/></g><g transform="translate(512.550 0.000) scale(0.090000 -0.090000)"><path d=""/></g><g transform="translate(535.950 0.000) scale(0.090000 -0.090000)"><path d="M37 276Q37 361 71.5 425.5Q106 490 167 525Q228 560 307 560Q407 560 472.5 512.5Q538 465 561 377L438 377Q423 418 390 441Q357 464 307 464Q237 464 195.5 414.5Q154 365 154 276Q154 187 195.5 137Q237 87 307 87Q406 87 438 174L561 174Q537 90 471 40.5Q405 -9 307 -9Q228 -9 167 26.5Q106 62 71.5 126.5Q37 191 37 276Z"/></g><g transform="translate(589.950 0.000) scale(0.090000 -0.090000)"><path d="M189 471Q214 513 255.5 536.5Q297 560 354 560L354 442L325 442Q258 442 223.5 408Q189 374 189 290L189 0L75 0L75 551L189 551L189 471Z"/></g><g transform="translate(624.510 0.000) scale(0.090000 -0.090000)"><path d="M580 289Q580 258 576 233L155 233Q160 167 204 127Q248 87 312 87Q404 87 442 164L565 164Q540 88 474.5 39.5Q409 -9 312 -9Q233 -9 170.5 26.5Q108 62 72.5 126.5Q37 191 37 276Q37 361 71.5 425.5Q106 490 168.5 525Q231 560 312 560Q390 560 451 526Q512 492 546 430.5Q580 369 580 289ZM461 325Q460 388 416 426Q372 464 307 464Q248 464 206 426.5Q164 389 156 325Z"/></g><g transform="translate(680.040 0.000) scale(0.090000 -0.090000)"><path d="M37 278Q37 361 71.5 425Q106 489 165.5 524.5Q225 560 297 560Q362 560 410.5 534.5Q459 509 488 471L488 551L603 551L603 0L488 0L488 82Q459 43 409 17Q359 -9 295 -9Q224 -9 165 27.5Q106 64 71.5 129.5Q37 195 37 278ZM488 276Q488 333 464.5 375Q441 417 403 439Q365 461 321 461Q277 461 239 439.5Q201 418 177.5 376.5Q154 335 154 278Q154 221 177.5 178Q201 135 239.5 112.5Q278 90 321 90Q365 90 403 112Q441 134 464.5 176.5Q488 219 488 276Z"/></g><g transform="translate(741.060 0.000) scale(0.090000 -0.090000)"><path d="M208 458L208 153Q208 122 222.5 108.5Q237 95 272 95L342 95L342 0L252 0Q175 0 134 36Q93 72 93 153L93 458L28 458L28 551L93 551L93 688L208 688L208 551L342 551L342 458Z"/></g><g transform="translate(774.540 0.000) scale(0.090000 -0.090000)"><path d="M133 624Q102 624 81 645Q60 666 60 697Q60 728 81 749Q102 770 133 770Q163 770 184 749Q205 728 205 697Q205 666 184 645Q163 624 133 624ZM189 551L189 0L75 0L75 551Z"/></g><g transform="translate(798.300 0.000) scale(0.090000 -0.090000)"><path d="M288 102L444 551L565 551L355 0L219 0L10 551L132 551Z"/></g><g transform="translate(850.140 0.000) scale(0.090000 -0.090000)"><path d="M37 278Q37 361 71.5 425Q106 489 165.5 524.5Q225 560 297 560Q362 560 410.5 534.5Q459 509 488 471L488 551L603 551L603 0L488 0L488 82Q459 43 409 17Q359 -9 295 -9Q224 -9 165 27.5Q106 64 71.5 129.5Q37 195 37 278ZM488 276Q488 333 464.5 375Q441 417 403 439Q365 461 321 461Q277 461 239 439.5Q201 418 177.5 376.5Q154 335 154 278Q154 221 177.5 178Q201 135 239.5 112.5Q278 90 321 90Q365 90 403 112Q441 134 464.5 176.5Q488 219 488 276Z"/></g><g transform="translate(911.160 0.000) scale(0.090000 -0.090000)"><path d=""/></g><g transform="translate(934.560 0.000) scale(0.090000 -0.090000)"><path d="M37 278Q37 361 71.5 425Q106 489 165.5 524.5Q225 560 297 560Q362 560 410.5 534.5Q459 509 488 471L488 551L603 551L603 0L488 0L488 82Q459 43 409 17Q359 -9 295 -9Q224 -9 165 27.5Q106 64 71.5 129.5Q37 195 37 278ZM488 276Q488 333 464.5 375Q441 417 403 439Q365 461 321 461Q277 461 239 439.5Q201 418 177.5 376.5Q154 335 154 278Q154 221 177.5 178Q201 135 239.5 112.5Q278 90 321 90Q365 90 403 112Q441 134 464.5 176.5Q488 219 488 276Z"/></g><g transform="translate(995.580 0.000) scale(0.090000 -0.090000)"><path d=""/></g><g transform="translate(1018.980 0.000) scale(0.090000 -0.090000)"><path d="M580 289Q580 258 576 233L155 233Q160 167 204 127Q248 87 312 87Q404 87 442 164L565 164Q540 88 474.5 39.5Q409 -9 312 -9Q233 -9 170.5 26.5Q108 62 72.5 126.5Q37 191 37 276Q37 361 71.5 425.5Q106 490 168.5 525Q231 560 312 560Q390 560 451 526Q512 492 546 430.5Q580 369 580 289ZM461 325Q460 388 416 426Q372 464 307 464Q248 464 206 426.5Q164 389 156 325Z"/></g><g transform="translate(1074.510 0.000) scale(0.090000 -0.090000)"><path d="M275 -9Q210 -9 158.5 14.5Q107 38 77 78.5Q47 119 45 169L163 169Q166 134 196.5 110.5Q227 87 273 87Q321 87 347.5 105.5Q374 124 374 153Q374 184 344.5 199Q315 214 251 232Q189 249 150 265Q111 281 82.5 314Q54 347 54 401Q54 445 80 481.5Q106 518 154.5 539Q203 560 266 560Q360 560 417.5 512.5Q475 465 479 383L365 383Q362 420 335 442Q308 464 262 464Q217 464 193 447Q169 430 169 402Q169 380 185 365Q201 350 224 341.5Q247 333 292 320Q352 304 390.5 287.5Q429 271 457 239Q485 207 486 154Q486 107 460 70Q434 33 386.5 12Q339 -9 275 -9Z"/></g><g transform="translate(1122.570 0.000) scale(0.090000 -0.090000)"><path d="M37 276Q37 361 71.5 425.5Q106 490 167 525Q228 560 307 560Q407 560 472.5 512.5Q538 465 561 377L438 377Q423 418 390 441Q357 464 307 464Q237 464 195.5 414.5Q154 365 154 276Q154 187 195.5 137Q237 87 307 87Q406 87 438 174L561 174Q537 90 471 40.5Q405 -9 307 -9Q228 -9 167 26.5Q106 62 71.5 126.5Q37 191 37 276Z"/></g><g transform="translate(1176.570 0.000) scale(0.090000 -0.090000)"><path d="M37 278Q37 361 71.5 425Q106 489 165.5 524.5Q225 560 297 560Q362 560 410.5 534.5Q459 509 488 471L488 551L603 551L603 0L488 0L488 82Q459 43 409 17Q359 -9 295 -9Q224 -9 165 27.5Q106 64 71.5 129.5Q37 195 37 278ZM488 276Q488 333 464.5 375Q441 417 403 439Q365 461 321 461Q277 461 239 439.5Q201 418 177.5 376.5Q154 335 154 278Q154 221 177.5 178Q201 135 239.5 112.5Q278 90 321 90Q365 90 403 112Q441 134 464.5 176.5Q488 219 488 276Z"/></g><g transform="translate(1237.590 0.000) scale(0.090000 -0.090000)"><path d="M189 740L189 0L75 0L75 740Z"/></g><g transform="translate(1261.350 0.000) scale(0.090000 -0.090000)"><path d="M37 278Q37 361 71.5 425Q106 489 165.5 524.5Q225 560 297 560Q362 560 410.5 534.5Q459 509 488 471L488 551L603 551L603 0L488 0L488 82Q459 43 409 17Q359 -9 295 -9Q224 -9 165 27.5Q106 64 71.5 129.5Q37 195 37 278ZM488 276Q488 333 464.5 375Q441 417 403 439Q365 461 321 461Q277 461 239 439.5Q201 418 177.5 376.5Q154 335 154 278Q154 221 177.5 178Q201 135 239.5 112.5Q278 90 321 90Q365 90 403 112Q441 134 464.5 176.5Q488 219 488 276Z"/></g><g transform="translate(1322.370 0.000) scale(0.090000 -0.090000)"><path d="M200 137L79 -139L5 -139L76 137Z"/></g><g transform="translate(1342.620 0.000) scale(0.090000 -0.090000)"><path d=""/></g><g transform="translate(1366.020 0.000) scale(0.090000 -0.090000)"><path d="M275 -9Q210 -9 158.5 14.5Q107 38 77 78.5Q47 119 45 169L163 169Q166 134 196.5 110.5Q227 87 273 87Q321 87 347.5 105.5Q374 124 374 153Q374 184 344.5 199Q315 214 251 232Q189 249 150 265Q111 281 82.5 314Q54 347 54 401Q54 445 80 481.5Q106 518 154.5 539Q203 560 266 560Q360 560 417.5 512.5Q475 465 479 383L365 383Q362 420 335 442Q308 464 262 464Q217 464 193 447Q169 430 169 402Q169 380 185 365Q201 350 224 341.5Q247 333 292 320Q352 304 390.5 287.5Q429 271 457 239Q485 207 486 154Q486 107 460 70Q434 33 386.5 12Q339 -9 275 -9Z"/></g><g transform="translate(1414.080 0.000) scale(0.090000 -0.090000)"><path d="M133 624Q102 624 81 645Q60 666 60 697Q60 728 81 749Q102 770 133 770Q163 770 184 749Q205 728 205 697Q205 666 184 645Q163 624 133 624ZM189 551L189 0L75 0L75 551Z"/></g><g transform="translate(1437.840 0.000) scale(0.090000 -0.090000)"><path d="M353 560Q418 560 469.5 533Q521 506 550 453Q579 400 579 325L579 0L466 0L466 308Q466 382 429 421.5Q392 461 328 461Q264 461 226.5 421.5Q189 382 189 308L189 0L75 0L75 551L189 551L189 488Q217 522 260.5 541Q304 560 353 560Z"/></g><g transform="translate(1496.250 0.000) scale(0.090000 -0.090000)"><path d=""/></g><g transform="translate(1519.650 0.000) scale(0.090000 -0.090000)"><path d="M189 469Q218 509 268.5 534.5Q319 560 381 560Q454 560 513 525Q572 490 606 425.5Q640 361 640 278Q640 195 606 129.5Q572 64 512.5 27.5Q453 -9 381 -9Q317 -9 267.5 16Q218 41 189 80L189 0L75 0L75 740L189 740L189 469ZM524 278Q524 335 500.5 376.5Q477 418 438.5 439.5Q400 461 356 461Q313 461 274.5 439Q236 417 212.5 375Q189 333 189 276Q189 219 212.5 176.5Q236 134 274.5 112Q313 90 356 90Q400 90 438.5 112.5Q477 135 500.5 178Q524 221 524 278Z"/></g><g transform="translate(1580.670 0.000) scale(0.090000 -0.090000)"><path d="M37 278Q37 361 71.5 425Q106 489 165.5 524.5Q225 560 297 560Q362 560 410.5 534.5Q459 509 488 471L488 551L603 551L603 0L488 0L488 82Q459 43 409 17Q359 -9 295 -9Q224 -9 165 27.5Q106 64 71.5 129.5Q37 195 37 278ZM488 276Q488 333 464.5 375Q441 417 403 439Q365 461 321 461Q277 461 239 439.5Q201 418 177.5 376.5Q154 335 154 278Q154 221 177.5 178Q201 135 239.5 112.5Q278 90 321 90Q365 90 403 112Q441 134 464.5 176.5Q488 219 488 276Z"/></g><g transform="translate(1641.690 0.000) scale(0.090000 -0.090000)"><path d="M133 624Q102 624 81 645Q60 666 60 697Q60 728 81 749Q102 770 133 770Q163 770 184 749Q205 728 205 697Q205 666 184 645Q163 624 133 624ZM189 -108Q189 -189 148.5 -225.5Q108 -262 31 -262L-28 -262L-28 -166L11 -166Q46 -166 60.5 -152.5Q75 -139 75 -108L75 551L189 551Z"/></g><g transform="translate(1665.450 0.000) scale(0.090000 -0.090000)"><path d="M37 278Q37 361 71.5 425Q106 489 165.5 524.5Q225 560 297 560Q362 560 410.5 534.5Q459 509 488 471L488 551L603 551L603 0L488 0L488 82Q459 43 409 17Q359 -9 295 -9Q224 -9 165 27.5Q106 64 71.5 129.5Q37 195 37 278ZM488 276Q488 333 464.5 375Q441 417 403 439Q365 461 321 461Q277 461 239 439.5Q201 418 177.5 376.5Q154 335 154 278Q154 221 177.5 178Q201 135 239.5 112.5Q278 90 321 90Q365 90 403 112Q441 134 464.5 176.5Q488 219 488 276Z"/></g><g transform="translate(1726.470 0.000) scale(0.090000 -0.090000)"><path d="M189 471Q214 513 255.5 536.5Q297 560 354 560L354 442L325 442Q258 442 223.5 408Q189 374 189 290L189 0L75 0L75 551L189 551L189 471Z"/></g></g>
<g data-copy="el nivel." transform="translate(270 2225)" fill="#FFFFFF"><g transform="translate(0.000 0.000) scale(0.090000 -0.090000)"><path d="M580 289Q580 258 576 233L155 233Q160 167 204 127Q248 87 312 87Q404 87 442 164L565 164Q540 88 474.5 39.5Q409 -9 312 -9Q233 -9 170.5 26.5Q108 62 72.5 126.5Q37 191 37 276Q37 361 71.5 425.5Q106 490 168.5 525Q231 560 312 560Q390 560 451 526Q512 492 546 430.5Q580 369 580 289ZM461 325Q460 388 416 426Q372 464 307 464Q248 464 206 426.5Q164 389 156 325Z"/></g><g transform="translate(55.530 0.000) scale(0.090000 -0.090000)"><path d="M189 740L189 0L75 0L75 740Z"/></g><g transform="translate(79.290 0.000) scale(0.090000 -0.090000)"><path d=""/></g><g transform="translate(102.690 0.000) scale(0.090000 -0.090000)"><path d="M353 560Q418 560 469.5 533Q521 506 550 453Q579 400 579 325L579 0L466 0L466 308Q466 382 429 421.5Q392 461 328 461Q264 461 226.5 421.5Q189 382 189 308L189 0L75 0L75 551L189 551L189 488Q217 522 260.5 541Q304 560 353 560Z"/></g><g transform="translate(161.100 0.000) scale(0.090000 -0.090000)"><path d="M133 624Q102 624 81 645Q60 666 60 697Q60 728 81 749Q102 770 133 770Q163 770 184 749Q205 728 205 697Q205 666 184 645Q163 624 133 624ZM189 551L189 0L75 0L75 551Z"/></g><g transform="translate(184.860 0.000) scale(0.090000 -0.090000)"><path d="M288 102L444 551L565 551L355 0L219 0L10 551L132 551Z"/></g><g transform="translate(236.700 0.000) scale(0.090000 -0.090000)"><path d="M580 289Q580 258 576 233L155 233Q160 167 204 127Q248 87 312 87Q404 87 442 164L565 164Q540 88 474.5 39.5Q409 -9 312 -9Q233 -9 170.5 26.5Q108 62 72.5 126.5Q37 191 37 276Q37 361 71.5 425.5Q106 490 168.5 525Q231 560 312 560Q390 560 451 526Q512 492 546 430.5Q580 369 580 289ZM461 325Q460 388 416 426Q372 464 307 464Q248 464 206 426.5Q164 389 156 325Z"/></g><g transform="translate(292.230 0.000) scale(0.090000 -0.090000)"><path d="M189 740L189 0L75 0L75 740Z"/></g><g transform="translate(315.990 0.000) scale(0.090000 -0.090000)"><path d="M121 -7Q90 -7 69 14Q48 35 48 66Q48 97 69 118Q90 139 121 139Q151 139 172 118Q193 97 193 66Q193 35 172 14Q151 -7 121 -7Z"/></g></g>
  <g data-copy="efeoncepro.com" transform="translate(270 4660)" fill="#FFFFFF"><g transform="translate(0.000 0.000) scale(0.075000 -0.075000)"><path d="M588 288Q588 264 585 238L198 238Q202 186 231.5 158.5Q261 131 304 131Q368 131 393 185L575 185Q561 130 524.5 86Q488 42 433 17Q378 -8 310 -8Q228 -8 164 27Q100 62 64 127Q28 192 28 279Q28 366 63.5 431Q99 496 163 531Q227 566 310 566Q391 566 454 532Q517 498 552.5 435Q588 372 588 288ZM413 333Q413 377 383 403Q353 429 308 429Q265 429 235.5 404Q206 379 199 333Z"/></g><g transform="translate(46.500 0.000) scale(0.075000 -0.075000)"><path d="M342 416L250 416L250 0L79 0L79 416L17 416L17 558L79 558L79 574Q79 677 138 730.5Q197 784 311 784Q330 784 339 783L339 638Q290 641 270 624Q250 607 250 563L250 558L342 558Z"/></g><g transform="translate(73.800 0.000) scale(0.075000 -0.075000)"><path d="M588 288Q588 264 585 238L198 238Q202 186 231.5 158.5Q261 131 304 131Q368 131 393 185L575 185Q561 130 524.5 86Q488 42 433 17Q378 -8 310 -8Q228 -8 164 27Q100 62 64 127Q28 192 28 279Q28 366 63.5 431Q99 496 163 531Q227 566 310 566Q391 566 454 532Q517 498 552.5 435Q588 372 588 288ZM413 333Q413 377 383 403Q353 429 308 429Q265 429 235.5 404Q206 379 199 333Z"/></g><g transform="translate(120.300 0.000) scale(0.075000 -0.075000)"><path d="M316 -8Q234 -8 168.5 27Q103 62 65.5 127Q28 192 28 279Q28 365 66 430.5Q104 496 170 531Q236 566 318 566Q400 566 466 531Q532 496 570 430.5Q608 365 608 279Q608 193 569.5 127.5Q531 62 464.5 27Q398 -8 316 -8ZM316 140Q365 140 399.5 176Q434 212 434 279Q434 346 400.5 382Q367 418 318 418Q268 418 235 382.5Q202 347 202 279Q202 212 234.5 176Q267 140 316 140Z"/></g><g transform="translate(168.375 0.000) scale(0.075000 -0.075000)"><path d="M402 564Q500 564 558.5 500.5Q617 437 617 326L617 0L447 0L447 303Q447 359 418 390Q389 421 340 421Q291 421 262 390Q233 359 233 303L233 0L62 0L62 558L233 558L233 484Q259 521 303 542.5Q347 564 402 564Z"/></g><g transform="translate(219.225 0.000) scale(0.075000 -0.075000)"><path d="M28 279Q28 366 63.5 431Q99 496 162.5 531Q226 566 308 566Q413 566 483.5 511Q554 456 576 356L394 356Q371 420 305 420Q258 420 230 383.5Q202 347 202 279Q202 211 230 174.5Q258 138 305 138Q371 138 394 202L576 202Q554 104 483 48Q412 -8 308 -8Q226 -8 162.5 27Q99 62 63.5 127Q28 192 28 279Z"/></g><g transform="translate(264.900 0.000) scale(0.075000 -0.075000)"><path d="M588 288Q588 264 585 238L198 238Q202 186 231.5 158.5Q261 131 304 131Q368 131 393 185L575 185Q561 130 524.5 86Q488 42 433 17Q378 -8 310 -8Q228 -8 164 27Q100 62 64 127Q28 192 28 279Q28 366 63.5 431Q99 496 163 531Q227 566 310 566Q391 566 454 532Q517 498 552.5 435Q588 372 588 288ZM413 333Q413 377 383 403Q353 429 308 429Q265 429 235.5 404Q206 379 199 333Z"/></g><g transform="translate(311.400 0.000) scale(0.075000 -0.075000)"><path d="M233 479Q258 518 302 542Q346 566 405 566Q474 566 530 531Q586 496 618.5 431Q651 366 651 280Q651 194 618.5 128.5Q586 63 530 27.5Q474 -8 405 -8Q347 -8 302.5 16Q258 40 233 78L233 -266L62 -266L62 558L233 558L233 479ZM477 280Q477 344 441.5 380.5Q406 417 354 417Q303 417 267.5 380Q232 343 232 279Q232 215 267.5 178Q303 141 354 141Q405 141 441 178.5Q477 216 477 280Z"/></g><g transform="translate(362.625 0.000) scale(0.075000 -0.075000)"><path d="M233 465Q263 511 308 537.5Q353 564 408 564L408 383L361 383Q297 383 265 355.5Q233 328 233 259L233 0L62 0L62 558L233 558L233 465Z"/></g><g transform="translate(395.025 0.000) scale(0.075000 -0.075000)"><path d="M316 -8Q234 -8 168.5 27Q103 62 65.5 127Q28 192 28 279Q28 365 66 430.5Q104 496 170 531Q236 566 318 566Q400 566 466 531Q532 496 570 430.5Q608 365 608 279Q608 193 569.5 127.5Q531 62 464.5 27Q398 -8 316 -8ZM316 140Q365 140 399.5 176Q434 212 434 279Q434 346 400.5 382Q367 418 318 418Q268 418 235 382.5Q202 347 202 279Q202 212 234.5 176Q267 140 316 140Z"/></g><g transform="translate(443.100 0.000) scale(0.075000 -0.075000)"><path d="M142 -8Q97 -8 68.5 18.5Q40 45 40 84Q40 124 68.5 151Q97 178 142 178Q186 178 214.5 151Q243 124 243 84Q243 45 214.5 18.5Q186 -8 142 -8Z"/></g><g transform="translate(464.550 0.000) scale(0.075000 -0.075000)"><path d="M28 279Q28 366 63.5 431Q99 496 162.5 531Q226 566 308 566Q413 566 483.5 511Q554 456 576 356L394 356Q371 420 305 420Q258 420 230 383.5Q202 347 202 279Q202 211 230 174.5Q258 138 305 138Q371 138 394 202L576 202Q554 104 483 48Q412 -8 308 -8Q226 -8 162.5 27Q99 62 63.5 127Q28 192 28 279Z"/></g><g transform="translate(510.225 0.000) scale(0.075000 -0.075000)"><path d="M316 -8Q234 -8 168.5 27Q103 62 65.5 127Q28 192 28 279Q28 365 66 430.5Q104 496 170 531Q236 566 318 566Q400 566 466 531Q532 496 570 430.5Q608 365 608 279Q608 193 569.5 127.5Q531 62 464.5 27Q398 -8 316 -8ZM316 140Q365 140 399.5 176Q434 212 434 279Q434 346 400.5 382Q367 418 318 418Q268 418 235 382.5Q202 347 202 279Q202 212 234.5 176Q267 140 316 140Z"/></g><g transform="translate(558.300 0.000) scale(0.075000 -0.075000)"><path d="M774 564Q878 564 939.5 501Q1001 438 1001 326L1001 0L831 0L831 303Q831 357 802.5 386.5Q774 416 724 416Q674 416 645.5 386.5Q617 357 617 303L617 0L447 0L447 303Q447 357 418.5 386.5Q390 416 340 416Q290 416 261.5 386.5Q233 357 233 303L233 0L62 0L62 558L233 558L233 488Q259 523 301 543.5Q343 564 396 564Q459 564 508.5 537Q558 510 586 460Q615 506 665 535Q715 564 774 564Z"/></g></g>
</svg>