<?xml version="1.0" encoding="UTF-8"?>
<svg xmlns="http://www.w3.org/2000/svg" width="6000" height="2000" viewBox="0 0 6000 2000">
  <defs>
    <linearGradient id="copyShade" x1="0" y1="0" x2="1" y2="0">
      <stop offset="0" stop-color="#04152F" stop-opacity="0.58"/>
      <stop offset="0.42" stop-color="#04152F" stop-opacity="0.26"/>
      <stop offset="0.72" stop-color="#04152F" stop-opacity="0"/>
    </linearGradient>
    <linearGradient id="accent" x1="0" y1="0" x2="1" y2="0">
      <stop offset="0" stop-color="#2FD7FF"/>
      <stop offset="0.52" stop-color="#7CF4D1"/>
      <stop offset="1" stop-color="#9C63FF"/>
    </linearGradient>
  </defs>
  <rect width="6000" height="2000" fill="url(#copyShade)"/>
  <rect x="260" y="520" width="260" height="20" rx="10" fill="url(#accent)"/>
  <g data-copy="UNA IDEA." transform="translate(260 800)" fill="#FFFFFF"><g transform="translate(0.000 0.000) scale(0.180000 -0.180000)"><path d="M248 705L248 296Q248 239 274.5 208Q301 177 355 177Q409 177 436.5 208.5Q464 240 464 296L464 705L660 705L660 296Q660 199 619 130.5Q578 62 507.5 27.5Q437 -7 351 -7Q265 -7 197.5 27.5Q130 62 91.5 130Q53 198 53 296L53 705Z"/></g><g transform="translate(127.160 0.000) scale(0.180000 -0.180000)"><path d="M709 0L513 0L252 394L252 0L56 0L56 705L252 705L513 306L513 705L709 705Z"/></g><g transform="translate(263.860 0.000) scale(0.180000 -0.180000)"><path d="M502 115L252 115L214 0L8 0L265 705L491 705L747 0L540 0ZM453 265L377 493L302 265Z"/></g><g transform="translate(398.760 0.000) scale(0.180000 -0.180000)"><path d=""/></g><g transform="translate(432.140 0.000) scale(0.180000 -0.180000)"><path d="M252 705L252 0L56 0L56 705Z"/></g><g transform="translate(486.580 0.000) scale(0.180000 -0.180000)"><path d="M335 705Q446 705 529.5 660.5Q613 616 658 536Q703 456 703 353Q703 251 657.5 171Q612 91 528.5 45.5Q445 0 335 0L56 0L56 705L335 705ZM320 173Q406 173 455 220Q504 267 504 353Q504 440 455 487.5Q406 535 320 535L252 535L252 173L320 173Z"/></g><g transform="translate(617.880 0.000) scale(0.180000 -0.180000)"><path d="M252 548L252 433L477 433L477 284L252 284L252 157L507 157L507 0L56 0L56 705L507 705L507 548Z"/></g><g transform="translate(715.520 0.000) scale(0.180000 -0.180000)"><path d="M502 115L252 115L214 0L8 0L265 705L491 705L747 0L540 0ZM453 265L377 493L302 265Z"/></g><g transform="translate(850.420 0.000) scale(0.180000 -0.180000)"><path d="M151 -8Q99 -8 67.5 20.5Q36 49 36 93Q36 137 67.5 166Q99 195 151 195Q202 195 233.5 166Q265 137 265 93Q265 50 233.5 21Q202 -8 151 -8Z"/></g></g>
<g data-copy="TODA LA CAMPAÑA." transform="translate(260 1030)" fill="#7CF4D1"><g transform="translate(0.000 0.000) scale(0.180000 -0.180000)"><path d="M587 705L587 549L399 549L399 0L203 0L203 549L17 549L17 705Z"/></g><g transform="translate(107.720 0.000) scale(0.180000 -0.180000)"><path d="M394 -7Q295 -7 212 39.5Q129 86 80.5 168.5Q32 251 32 355Q32 459 80.5 541.5Q129 624 212 670Q295 716 394 716Q494 716 576.5 670Q659 624 707 541.5Q755 459 755 355Q755 251 707 168.5Q659 86 576 39.5Q493 -7 394 -7ZM394 175Q469 175 512.5 224Q556 273 556 355Q556 439 512.5 487.5Q469 536 394 536Q318 536 275 487.5Q232 439 232 355Q232 272 275 223.5Q318 175 394 175Z"/></g><g transform="translate(248.380 0.000) scale(0.180000 -0.180000)"><path d="M335 705Q446 705 529.5 660.5Q613 616 658 536Q703 456 703 353Q703 251 657.5 171Q612 91 528.5 45.5Q445 0 335 0L56 0L56 705L335 705ZM320 173Q406 173 455 220Q504 267 504 353Q504 440 455 487.5Q406 535 320 535L252 535L252 173L320 173Z"/></g><g transform="translate(379.680 0.000) scale(0.180000 -0.180000)"><path d="M502 115L252 115L214 0L8 0L265 705L491 705L747 0L540 0ZM453 265L377 493L302 265Z"/></g><g transform="translate(514.580 0.000) scale(0.180000 -0.180000)"><path d=""/></g><g transform="translate(547.960 0.000) scale(0.180000 -0.180000)"><path d="M252 150L471 150L471 0L56 0L56 705L252 705Z"/></g><g transform="translate(635.340 0.000) scale(0.180000 -0.180000)"><path d="M502 115L252 115L214 0L8 0L265 705L491 705L747 0L540 0ZM453 265L377 493L302 265Z"/></g><g transform="translate(770.240 0.000) scale(0.180000 -0.180000)"><path d=""/></g><g transform="translate(803.620 0.000) scale(0.180000 -0.180000)"><path d="M32 354Q32 458 75.5 539.5Q119 621 199 666.5Q279 712 383 712Q515 712 605 641.5Q695 571 721 450L510 450Q491 490 457.5 511Q424 532 380 532Q312 532 271.5 483.5Q231 435 231 354Q231 272 271.5 223.5Q312 175 380 175Q424 175 457.5 196Q491 217 510 257L721 257Q695 136 605 65.5Q515 -5 383 -5Q279 -5 199 40.5Q119 86 75.5 167.5Q32 249 32 354Z"/></g><g transform="translate(939.060 0.000) scale(0.180000 -0.180000)"><path d="M502 115L252 115L214 0L8 0L265 705L491 705L747 0L540 0ZM453 265L377 493L302 265Z"/></g><g transform="translate(1073.960 0.000) scale(0.180000 -0.180000)"><path d="M879 705L879 0L683 0L683 389L550 0L386 0L252 392L252 0L56 0L56 705L293 705L470 247L643 705Z"/></g><g transform="translate(1241.260 0.000) scale(0.180000 -0.180000)"><path d="M613 470Q613 406 583.5 353.5Q554 301 494.5 269.5Q435 238 349 238L252 238L252 0L56 0L56 705L349 705Q434 705 493.5 675Q553 645 583 592Q613 539 613 470ZM330 394Q413 394 413 470Q413 547 330 547L252 547L252 394L330 394Z"/></g><g transform="translate(1354.740 0.000) scale(0.180000 -0.180000)"><path d="M502 115L252 115L214 0L8 0L265 705L491 705L747 0L540 0ZM453 265L377 493L302 265Z"/></g><g transform="translate(1489.640 0.000) scale(0.180000 -0.180000)"><path d="M709 0L513 0L252 394L252 0L56 0L56 705L252 705L513 306L513 705L709 705ZM165 750Q193 913 315 913Q338 913 356.5 906Q375 899 399 886Q416 877 428 872Q440 867 452 867Q489 867 496 913L595 913Q581 828 542.5 789.5Q504 751 445 751Q423 751 405 757.5Q387 764 361 777Q344 786 332 791Q320 796 308 796Q272 796 263 750L165 750Z"/></g><g transform="translate(1626.340 0.000) scale(0.180000 -0.180000)"><path d="M502 115L252 115L214 0L8 0L265 705L491 705L747 0L540 0ZM453 265L377 493L302 265Z"/></g><g transform="translate(1761.240 0.000) scale(0.180000 -0.180000)"><path d="M151 -8Q99 -8 67.5 20.5Q36 49 36 93Q36 137 67.5 166Q99 195 151 195Q202 195 233.5 166Q265 137 265 93Q265 50 233.5 21Q202 -8 151 -8Z"/></g></g>

  <g data-copy="efeoncepro.com" transform="translate(270 1840)" fill="#FFFFFF"><g transform="translate(0.000 0.000) scale(0.060000 -0.060000)"><path d="M588 288Q588 264 585 238L198 238Q202 186 231.5 158.5Q261 131 304 131Q368 131 393 185L575 185Q561 130 524.5 86Q488 42 433 17Q378 -8 310 -8Q228 -8 164 27Q100 62 64 127Q28 192 28 279Q28 366 63.5 431Q99 496 163 531Q227 566 310 566Q391 566 454 532Q517 498 552.5 435Q588 372 588 288ZM413 333Q413 377 383 403Q353 429 308 429Q265 429 235.5 404Q206 379 199 333Z"/></g><g transform="translate(37.260 0.000) scale(0.060000 -0.060000)"><path d="M342 416L250 416L250 0L79 0L79 416L17 416L17 558L79 558L79 574Q79 677 138 730.5Q197 784 311 784Q330 784 339 783L339 638Q290 641 270 624Q250 607 250 563L250 558L342 558Z"/></g><g transform="translate(59.160 0.000) scale(0.060000 -0.060000)"><path d="M588 288Q588 264 585 238L198 238Q202 186 231.5 158.5Q261 131 304 131Q368 131 393 185L575 185Q561 130 524.5 86Q488 42 433 17Q378 -8 310 -8Q228 -8 164 27Q100 62 64 127Q28 192 28 279Q28 366 63.5 431Q99 496 163 531Q227 566 310 566Q391 566 454 532Q517 498 552.5 435Q588 372 588 288ZM413 333Q413 377 383 403Q353 429 308 429Q265 429 235.5 404Q206 379 199 333Z"/></g><g transform="translate(96.420 0.000) scale(0.060000 -0.060000)"><path d="M316 -8Q234 -8 168.5 27Q103 62 65.5 127Q28 192 28 279Q28 365 66 430.5Q104 496 170 531Q236 566 318 566Q400 566 466 531Q532 496 570 430.5Q608 365 608 279Q608 193 569.5 127.5Q531 62 464.5 27Q398 -8 316 -8ZM316 140Q365 140 399.5 176Q434 212 434 279Q434 346 400.5 382Q367 418 318 418Q268 418 235 382.5Q202 347 202 279Q202 212 234.5 176Q267 140 316 140Z"/></g><g transform="translate(134.940 0.000) scale(0.060000 -0.060000)"><path d="M402 564Q500 564 558.5 500.5Q617 437 617 326L617 0L447 0L447 303Q447 359 418 390Q389 421 340 421Q291 421 262 390Q233 359 233 303L233 0L62 0L62 558L233 558L233 484Q259 521 303 542.5Q347 564 402 564Z"/></g><g transform="translate(175.680 0.000) scale(0.060000 -0.060000)"><path d="M28 279Q28 366 63.5 431Q99 496 162.5 531Q226 566 308 566Q413 566 483.5 511Q554 456 576 356L394 356Q371 420 305 420Q258 420 230 383.5Q202 347 202 279Q202 211 230 174.5Q258 138 305 138Q371 138 394 202L576 202Q554 104 483 48Q412 -8 308 -8Q226 -8 162.5 27Q99 62 63.5 127Q28 192 28 279Z"/></g><g transform="translate(212.280 0.000) scale(0.060000 -0.060000)"><path d="M588 288Q588 264 585 238L198 238Q202 186 231.5 158.5Q261 131 304 131Q368 131 393 185L575 185Q561 130 524.5 86Q488 42 433 17Q378 -8 310 -8Q228 -8 164 27Q100 62 64 127Q28 192 28 279Q28 366 63.5 431Q99 496 163 531Q227 566 310 566Q391 566 454 532Q517 498 552.5 435Q588 372 588 288ZM413 333Q413 377 383 403Q353 429 308 429Q265 429 235.5 404Q206 379 199 333Z"/></g><g transform="translate(249.540 0.000) scale(0.060000 -0.060000)"><path d="M233 479Q258 518 302 542Q346 566 405 566Q474 566 530 531Q586 496 618.5 431Q651 366 651 280Q651 194 618.5 128.5Q586 63 530 27.5Q474 -8 405 -8Q347 -8 302.5 16Q258 40 233 78L233 -266L62 -266L62 558L233 558L233 479ZM477 280Q477 344 441.5 380.5Q406 417 354 417Q303 417 267.5 380Q232 343 232 279Q232 215 267.5 178Q303 141 354 141Q405 141 441 178.5Q477 216 477 280Z"/></g><g transform="translate(290.580 0.000) scale(0.060000 -0.060000)"><path d="M233 465Q263 511 308 537.5Q353 564 408 564L408 383L361 383Q297 383 265 355.5Q233 328 233 259L233 0L62 0L62 558L233 558L233 465Z"/></g><g transform="translate(316.560 0.000) scale(0.060000 -0.060000)"><path d="M316 -8Q234 -8 168.5 27Q103 62 65.5 127Q28 192 28 279Q28 365 66 430.5Q104 496 170 531Q236 566 318 566Q400 566 466 531Q532 496 570 430.5Q608 365 608 279Q608 193 569.5 127.5Q531 62 464.5 27Q398 -8 316 -8ZM316 140Q365 140 399.5 176Q434 212 434 279Q434 346 400.5 382Q367 418 318 418Q268 418 235 382.5Q202 347 202 279Q202 212 234.5 176Q267 140 316 140Z"/></g><g transform="translate(355.080 0.000) scale(0.060000 -0.060000)"><path d="M142 -8Q97 -8 68.5 18.5Q40 45 40 84Q40 124 68.5 151Q97 178 142 178Q186 178 214.5 151Q243 124 243 84Q243 45 214.5 18.5Q186 -8 142 -8Z"/></g><g transform="translate(372.300 0.000) scale(0.060000 -0.060000)"><path d="M28 279Q28 366 63.5 431Q99 496 162.5 531Q226 566 308 566Q413 566 483.5 511Q554 456 576 356L394 356Q371 420 305 420Q258 420 230 383.5Q202 347 202 279Q202 211 230 174.5Q258 138 305 138Q371 138 394 202L576 202Q554 104 483 48Q412 -8 308 -8Q226 -8 162.5 27Q99 62 63.5 127Q28 192 28 279Z"/></g><g transform="translate(408.900 0.000) scale(0.060000 -0.060000)"><path d="M316 -8Q234 -8 168.5 27Q103 62 65.5 127Q28 192 28 279Q28 365 66 430.5Q104 496 170 531Q236 566 318 566Q400 566 466 531Q532 496 570 430.5Q608 365 608 279Q608 193 569.5 127.5Q531 62 464.5 27Q398 -8 316 -8ZM316 140Q365 140 399.5 176Q434 212 434 279Q434 346 400.5 382Q367 418 318 418Q268 418 235 382.5Q202 347 202 279Q202 212 234.5 176Q267 140 316 140Z"/></g><g transform="translate(447.420 0.000) scale(0.060000 -0.060000)"><path d="M774 564Q878 564 939.5 501Q1001 438 1001 326L1001 0L831 0L831 303Q831 357 802.5 386.5Q774 416 724 416Q674 416 645.5 386.5Q617 357 617 303L617 0L447 0L447 303Q447 357 418.5 386.5Q390 416 340 416Q290 416 261.5 386.5Q233 357 233 303L233 0L62 0L62 558L233 558L233 488Q259 523 301 543.5Q343 564 396 564Q459 564 508.5 537Q558 510 586 460Q615 506 665 535Q715 564 774 564Z"/></g></g>
</svg>
