<?xml version="1.0" encoding="UTF-8"?>
<svg id="Layer_2" data-name="Layer 2" xmlns="http://www.w3.org/2000/svg" viewBox="0 0 171.59 171.59">
  <defs>
    <style>
      .cls-1 {
        fill: #0d6b3f;
      }

      .cls-2 {
        fill: #023c70;
      }

      .cls-3 {
        fill: none;
        stroke: #023c70;
        stroke-miterlimit: 10;
        stroke-width: 4.01px;
      }
    </style>
  </defs>
  <g id="Capa_1" data-name="Capa 1">
    <g>
      <rect class="cls-3" x="2.01" y="2.01" width="167.58" height="167.58" rx="21.97" ry="21.97"/>
      <path class="cls-1" d="M73.17,68.15h33.96c9.82,0,17.77-7.96,17.77-17.77v-1.86h-54.32c-.9,0-1.78.07-2.66.13-17.59,1.3-31.61,15.32-32.91,32.91-.07.88-.13,1.76-.13,2.66v54.32h56.35c.21,0,.42-.03.63-.03,18.3-.34,33.04-15.26,33.04-33.64v-20.92h-44.92c-4.91,0-8.89,3.98-8.89,8.89v10.74h34.97c-1.8,8.75-9.53,15.32-18.81,15.32h-32.74v-32.1c0-10.31,8.36-18.66,18.66-18.66Z"/>
      <path class="cls-2" d="M145.21,26.94h-36.13c-3.2,0-5.79,2.59-5.79,5.79v9.41h28.04v26.08h9.45c3.17,0,5.75-2.57,5.75-5.75V26.94h-1.32Z"/>
    </g>
  </g>
</svg>