<?xml version="1.0" encoding="UTF-8"?>
<svg id="Layer_2" data-name="Layer 2" xmlns="http://www.w3.org/2000/svg" viewBox="0 0 553.82 101.94">
  <defs>
    <style>
      .cls-1 {
        fill: #023c70;
      }
    </style>
  </defs>
  <g id="Capa_1" data-name="Capa 1">
    <g>
      <path class="cls-1" d="M105.84,100.71h-8.9c-4.43,0-8.02-3.59-8.02-8.02v-42.24h15.08v6.87c1.57-2.32,3.45-4.24,5.64-5.74s4.75-2.26,7.69-2.26c.75,0,1.56.05,2.41.15.85.1,1.76.33,2.72.67l-.21,15.9c-1.16-.48-2.34-.85-3.54-1.13-1.2-.27-2.38-.41-3.54-.41-2.53,0-4.72.77-6.57,2.31s-2.77,4.12-2.77,7.74v26.16Z"/>
      <path class="cls-1" d="M169.96,95.07c-.75.68-1.84,1.43-3.28,2.26-1.44.82-3.11,1.57-5.03,2.26-1.92.69-4,1.25-6.26,1.69-2.26.44-4.55.67-6.87.67-3.9,0-7.49-.67-10.77-2-3.28-1.34-6.1-3.18-8.46-5.54s-4.2-5.13-5.54-8.31c-1.33-3.18-2-6.62-2-10.31s.67-7.13,2-10.31c1.34-3.18,3.18-5.95,5.54-8.31,2.36-2.36,5.18-4.21,8.46-5.54,3.28-1.34,6.87-2,10.77-2,4.17,0,7.91.67,11.23,2,3.32,1.33,6.14,3.17,8.46,5.49,2.32,2.33,4.12,5.08,5.39,8.26,1.27,3.18,1.9,6.62,1.9,10.31,0,.89-.07,1.81-.2,2.77-.14.96-.27,1.85-.41,2.67l-35.8-.1c.96,2.46,2.44,4.22,4.46,5.28,2.02,1.06,4.29,1.59,6.82,1.59,1.78,0,3.33-.17,4.67-.51,1.33-.34,2.46-.74,3.38-1.18.92-.44,1.66-.89,2.21-1.33.54-.44.92-.77,1.13-.98l8.21,11.18ZM158.57,71.58c-.14-2.26-.99-4.19-2.57-5.79-1.57-1.61-3.83-2.41-6.77-2.41-2.6,0-4.84.67-6.72,2-1.88,1.34-3.17,3.4-3.85,6.2h19.9Z"/>
      <path class="cls-1" d="M225.15,95.07c-.75.68-1.84,1.43-3.28,2.26-1.44.82-3.11,1.57-5.03,2.26-1.92.69-4,1.25-6.26,1.69-2.26.44-4.55.67-6.87.67-3.9,0-7.49-.67-10.77-2-3.28-1.34-6.1-3.18-8.46-5.54-2.36-2.36-4.2-5.13-5.54-8.31-1.33-3.18-2-6.62-2-10.31s.67-7.13,2-10.31c1.34-3.18,3.18-5.95,5.54-8.31,2.36-2.36,5.18-4.21,8.46-5.54,3.28-1.34,6.87-2,10.77-2,4.17,0,7.91.67,11.23,2,3.32,1.33,6.14,3.17,8.46,5.49,2.32,2.33,4.12,5.08,5.39,8.26,1.27,3.18,1.9,6.62,1.9,10.31,0,.89-.07,1.81-.2,2.77-.14.96-.27,1.85-.41,2.67l-35.8-.1c.96,2.46,2.44,4.22,4.46,5.28,2.02,1.06,4.29,1.59,6.82,1.59,1.78,0,3.33-.17,4.67-.51,1.33-.34,2.46-.74,3.38-1.18.92-.44,1.66-.89,2.21-1.33.54-.44.92-.77,1.13-.98l8.21,11.18ZM213.76,71.58c-.14-2.26-.99-4.19-2.57-5.79-1.57-1.61-3.83-2.41-6.77-2.41-2.6,0-4.84.67-6.72,2-1.88,1.34-3.17,3.4-3.85,6.2h19.9Z"/>
      <path class="cls-1" d="M243.49,100.71h-8.9v-50.26h15.15l-.07,6.67c2.05-2.32,4.41-4.19,7.08-5.59s5.54-2.1,8.61-2.1,6.02.55,8.41,1.64c2.39,1.09,4.38,2.65,5.95,4.67,1.57,2.02,2.73,4.41,3.49,7.18.75,2.77,1.13,5.83,1.13,9.18v28.62h-8.9c-4.43,0-8.02-3.59-8.02-8.02v-19.57c0-2.39-.53-4.38-1.59-5.95-1.06-1.57-3.06-2.36-6-2.36-2.46,0-4.46.91-6,2.72-1.54,1.81-2.31,4.16-2.31,7.03v18.14c0,4.43-3.59,8.02-8.02,8.02Z"/>
      <path class="cls-1" d="M298.47,100.71h-8.9V34.87c0-4.43,3.59-8.02,8.02-8.02h9.01l-.1,28.52c1.98-1.78,4.19-3.22,6.62-4.31,2.43-1.09,4.94-1.64,7.54-1.64,3.21,0,6,.55,8.36,1.64,2.36,1.09,4.31,2.65,5.85,4.67,1.54,2.02,2.67,4.41,3.38,7.18.72,2.77,1.08,5.83,1.08,9.18v28.62h-8.9c-4.43,0-8.02-3.59-8.02-8.02v-19.57c0-2.39-.53-4.38-1.59-5.95-1.06-1.57-3.06-2.36-6-2.36-2.39,0-4.38.87-5.95,2.62-1.57,1.74-2.36,4.02-2.36,6.82v18.45c0,4.43-3.59,8.02-8.02,8.02Z"/>
      <path class="cls-1" d="M442.13,50.45h8.9v50.26h-15.21l.12-6.57c-2.05,2.26-4.45,4.09-7.18,5.49-2.74,1.4-5.75,2.1-9.03,2.1s-5.99-.56-8.31-1.69c-2.33-1.13-4.24-2.68-5.74-4.67-1.51-1.98-2.62-4.38-3.34-7.18-.72-2.8-1.08-5.88-1.08-9.23v-28.52h8.9c4.43,0,8.02,3.59,8.02,8.02v18.14c0,3.07.53,5.47,1.59,7.18,1.06,1.71,3.06,2.57,6,2.57,2.46,0,4.47-.91,6-2.72,1.54-1.81,2.31-4.16,2.31-7.03v-18.14c0-4.43,3.59-8.02,8.02-8.02Z"/>
      <path class="cls-1" d="M487.76,66.65c-.2-.2-.6-.54-1.18-1.02-.58-.48-1.28-.96-2.1-1.44-.82-.48-1.78-.89-2.87-1.23-1.1-.34-2.26-.51-3.49-.51-1.57,0-2.65.27-3.23.82-.58.55-.87,1.13-.87,1.74,0,.82.36,1.49,1.08,2s1.69.98,2.92,1.39c1.78.61,3.92,1.21,6.41,1.79s4.87,1.42,7.13,2.51c2.26,1.09,4.17,2.56,5.75,4.41,1.57,1.84,2.36,4.38,2.36,7.59,0,2.53-.53,4.85-1.59,6.97-1.06,2.12-2.58,3.94-4.56,5.44-1.99,1.51-4.4,2.69-7.23,3.54-2.84.85-6.04,1.28-9.59,1.28-4.72,0-9.01-.61-12.88-1.84-3.86-1.23-6.96-2.98-9.28-5.23l9.95-11.18c.27.27.77.67,1.49,1.18s1.61,1.03,2.67,1.54,2.26.98,3.59,1.38c1.33.41,2.75.61,4.25.61,1.23,0,2.39-.17,3.49-.51,1.09-.34,1.64-1.06,1.64-2.15,0-.75-.31-1.37-.92-1.84s-1.47-.92-2.57-1.33c-1.78-.69-3.95-1.34-6.51-1.95-2.57-.61-5.05-1.45-7.44-2.51-2.39-1.06-4.43-2.51-6.1-4.36-1.68-1.84-2.51-4.3-2.51-7.38,0-2.53.53-4.86,1.59-6.98,1.06-2.12,2.57-3.93,4.51-5.44,1.95-1.5,4.31-2.67,7.08-3.49,2.77-.82,5.9-1.23,9.39-1.23,2.67,0,5.1.24,7.29.72,2.19.48,4.1,1.04,5.74,1.69s3.01,1.33,4.11,2.05c1.09.72,1.92,1.32,2.46,1.79l-9.95,11.18Z"/>
      <path class="cls-1" d="M548.28,95.07c-.75.68-1.84,1.43-3.28,2.26-1.44.82-3.11,1.57-5.03,2.26-1.92.69-4,1.25-6.26,1.69-2.26.44-4.55.67-6.87.67-3.9,0-7.49-.67-10.77-2-3.28-1.34-6.1-3.18-8.46-5.54s-4.2-5.13-5.54-8.31c-1.33-3.18-2-6.62-2-10.31s.67-7.13,2-10.31c1.34-3.18,3.18-5.95,5.54-8.31,2.36-2.36,5.18-4.21,8.46-5.54,3.28-1.34,6.87-2,10.77-2,4.17,0,7.91.67,11.23,2,3.32,1.33,6.14,3.17,8.46,5.49,2.32,2.33,4.12,5.08,5.39,8.26,1.27,3.18,1.9,6.62,1.9,10.31,0,.89-.07,1.81-.2,2.77-.14.96-.27,1.85-.41,2.67l-35.8-.1c.96,2.46,2.44,4.22,4.46,5.28,2.02,1.06,4.29,1.59,6.82,1.59,1.78,0,3.33-.17,4.67-.51,1.33-.34,2.46-.74,3.38-1.18.92-.44,1.66-.89,2.21-1.33.54-.44.92-.77,1.13-.98l8.21,11.18ZM536.9,71.58c-.14-2.26-.99-4.19-2.57-5.79-1.57-1.61-3.83-2.41-6.77-2.41-2.6,0-4.84.67-6.72,2-1.88,1.34-3.17,3.4-3.85,6.2h19.9Z"/>
      <path class="cls-1" d="M368.19,50.64v.02c-13.58.54-24.43,11.72-24.43,25.43s11.4,25.45,25.45,25.45,24.89-10.85,25.43-24.43h.02v-26.48h-26.48ZM380.01,76.53h0c-.23,5.76-4.97,10.36-10.79,10.36s-10.8-4.83-10.8-10.8,4.6-10.56,10.36-10.79h0s11.23,0,11.23,0v11.23Z"/>
      <path class="cls-1" d="M34.57,37.19h30.65c8.86,0,16.04-7.18,16.04-16.04v-1.68h-49.03c-.81,0-1.61.06-2.4.12C13.95,20.76,1.3,33.42.12,49.29c-.06.8-.12,1.59-.12,2.4v49.03h50.86c.19,0,.38-.02.57-.03,16.52-.31,29.82-13.77,29.82-30.36v-18.88h-40.54c-4.43,0-8.03,3.59-8.03,8.03v9.69h31.57c-1.62,7.89-8.61,13.83-16.98,13.83h-29.55v-28.97c0-9.3,7.54-16.85,16.85-16.85Z"/>
      <path class="cls-1" d="M99.58,0h-32.61c-2.89,0-5.23,2.34-5.23,5.23v8.49h25.3v23.54h8.53c2.87,0,5.19-2.32,5.19-5.19V0h-1.19Z"/>
    </g>
  </g>
</svg>