<?xml version="1.0" encoding="UTF-8"?>
<svg id="Layer_2" data-name="Layer 2" xmlns="http://www.w3.org/2000/svg" viewBox="0 0 553.82 142">
  <defs>
    <style>
      .cls-1 {
        fill: #fff;
      }
    </style>
  </defs>
  <g id="Capa_1" data-name="Capa 1">
    <g>
      <g>
        <path class="cls-1" d="M403.2,111.54h3.5l.03,9.46c.62-.62,1.35-1.11,2.2-1.46.84-.35,1.77-.53,2.77-.53,1.11,0,2.15.21,3.11.62.96.42,1.8.98,2.5,1.7.71.72,1.26,1.56,1.67,2.53.41.97.61,2,.61,3.09s-.2,2.12-.61,3.09c-.41.97-.96,1.82-1.67,2.53-.71.72-1.54,1.28-2.5,1.7-.96.42-2,.63-3.11.63s-2.08-.2-2.98-.61c-.9-.41-1.68-.96-2.34-1.67l-.13,1.99h-3.05v-23.09ZM416.06,126.96c0-.66-.12-1.29-.37-1.88-.25-.59-.59-1.1-1.03-1.52-.44-.43-.95-.77-1.52-1.03s-1.19-.38-1.83-.38c-.71,0-1.35.12-1.92.37s-1.07.58-1.49,1.01-.74.94-.98,1.52-.35,1.22-.35,1.91.11,1.29.34,1.88.54,1.1.96,1.52.92.77,1.51,1.03c.59.26,1.23.38,1.94.38.64,0,1.25-.13,1.83-.38.58-.26,1.08-.6,1.52-1.03.44-.43.78-.94,1.03-1.52.25-.59.37-1.21.37-1.88Z"/>
        <path class="cls-1" d="M423.11,119.3l3.98,11.26h.06l3.98-11.26h3.98l-9.08,22.71h-3.82l3.05-7.41-6.09-15.3h3.94Z"/>
        <path class="cls-1" d="M456.72,132.99c-.28.21-.62.44-1.03.67s-.87.45-1.38.64-1.08.35-1.7.46c-.62.12-1.29.18-2.02.18-1.24,0-2.35-.21-3.33-.62-.98-.42-1.82-.98-2.52-1.7-.7-.72-1.23-1.56-1.6-2.53-.37-.97-.56-2-.56-3.09s.2-2.15.59-3.13c.4-.97.95-1.82,1.65-2.53.71-.72,1.55-1.28,2.53-1.7s2.06-.62,3.24-.62c1.26,0,2.38.21,3.35.62s1.79.98,2.45,1.7c.66.72,1.17,1.55,1.51,2.52.34.96.51,2,.51,3.11,0,.41-.05.86-.16,1.35h-11.96c.26,1.11.8,1.98,1.64,2.6s1.81.93,2.92.93,1.99-.15,2.63-.46c.64-.31,1.14-.61,1.51-.91l1.73,2.53ZM454.76,125.84c-.02-1.15-.4-2.07-1.12-2.74-.73-.67-1.71-1.01-2.95-1.01s-2.19.34-2.97,1.01c-.78.67-1.28,1.59-1.49,2.74h8.53Z"/>
        <path class="cls-1" d="M459.22,122.25v-2.95h2.69v-1.96c0-1.09.16-2.01.46-2.77s.73-1.37,1.25-1.84c.52-.47,1.14-.81,1.86-1.03.72-.21,1.48-.32,2.29-.32.71,0,1.42.06,2.15.19v3.14c-.64-.13-1.27-.19-1.89-.19-.36,0-.7.04-1.01.11-.31.08-.58.21-.82.4s-.42.45-.56.77c-.14.32-.21.73-.21,1.22v2.28h4.49v2.95h-4.49v12.38h-3.53v-12.38h-2.69Z"/>
        <path class="cls-1" d="M483.98,132.99c-.28.21-.62.44-1.03.67s-.87.45-1.38.64-1.08.35-1.7.46c-.62.12-1.29.18-2.02.18-1.24,0-2.35-.21-3.33-.62-.98-.42-1.82-.98-2.52-1.7-.7-.72-1.23-1.56-1.6-2.53-.37-.97-.56-2-.56-3.09s.2-2.15.59-3.13c.4-.97.95-1.82,1.65-2.53.71-.72,1.55-1.28,2.53-1.7s2.06-.62,3.24-.62c1.26,0,2.38.21,3.35.62s1.79.98,2.45,1.7c.66.72,1.17,1.55,1.51,2.52.34.96.51,2,.51,3.11,0,.41-.05.86-.16,1.35h-11.96c.26,1.11.8,1.98,1.64,2.6s1.81.93,2.92.93,1.99-.15,2.63-.46c.64-.31,1.14-.61,1.51-.91l1.73,2.53ZM482.02,125.84c-.02-1.15-.4-2.07-1.12-2.74-.73-.67-1.71-1.01-2.95-1.01s-2.19.34-2.97,1.01c-.78.67-1.28,1.59-1.49,2.74h8.53Z"/>
        <path class="cls-1" d="M486.61,127c0-1.09.21-2.12.63-3.09s.99-1.82,1.73-2.55c.74-.73,1.61-1.3,2.63-1.72,1.01-.42,2.11-.62,3.29-.62s2.27.21,3.27.62,1.88.99,2.61,1.72c.74.73,1.32,1.58,1.73,2.55s.62,2,.62,3.09-.21,2.12-.62,3.09c-.42.97-.99,1.82-1.73,2.53-.74.72-1.61,1.28-2.61,1.7s-2.1.62-3.27.62-2.27-.21-3.29-.62c-1.02-.42-1.89-.98-2.63-1.7-.74-.72-1.31-1.56-1.73-2.53-.42-.97-.63-2-.63-3.09ZM490.13,126.96c0,.66.12,1.29.35,1.88.23.59.56,1.1.98,1.52.42.43.91.77,1.49,1.03.58.26,1.21.38,1.89.38s1.31-.13,1.89-.38c.58-.26,1.07-.6,1.49-1.03s.74-.94.98-1.52c.23-.59.35-1.21.35-1.88s-.12-1.29-.35-1.88c-.24-.59-.56-1.1-.98-1.52s-.91-.77-1.49-1.03-1.21-.38-1.89-.38-1.32.13-1.89.38-1.07.6-1.49,1.03c-.42.43-.74.94-.98,1.52-.24.59-.35,1.21-.35,1.88Z"/>
        <path class="cls-1" d="M508.48,134.63h-3.53v-15.33h3.05l.13,2.6c.62-.85,1.37-1.55,2.25-2.08.88-.53,1.85-.8,2.92-.8s2.05.18,2.82.54c.77.36,1.4.86,1.89,1.49.49.63.85,1.37,1.08,2.23.22.86.34,1.79.34,2.79v8.56h-3.53v-8.15c0-.58-.05-1.12-.14-1.64-.1-.51-.27-.96-.51-1.35-.25-.38-.58-.68-1.01-.9-.43-.21-.97-.32-1.64-.32-.6,0-1.15.12-1.65.37-.5.25-.94.58-1.3.99-.36.42-.65.9-.85,1.44-.2.54-.3,1.13-.3,1.75v7.79Z"/>
        <path class="cls-1" d="M536.44,130.88c-.62,1.22-1.54,2.2-2.77,2.93-1.23.74-2.65,1.11-4.25,1.11-1.15,0-2.23-.2-3.22-.61-.99-.41-1.86-.97-2.6-1.68-.74-.72-1.31-1.56-1.73-2.53-.42-.97-.63-2.01-.63-3.13s.21-2.18.63-3.14c.42-.96.99-1.8,1.73-2.52.74-.72,1.6-1.28,2.6-1.68s2.07-.61,3.22-.61c1.6,0,3.02.37,4.25,1.11s2.15,1.72,2.77,2.93l-2.89,1.54c-.38-.71-.94-1.29-1.67-1.76-.73-.47-1.54-.71-2.44-.71-.64,0-1.25.12-1.83.37s-1.08.59-1.51,1.03c-.43.44-.76.95-1.01,1.54s-.37,1.22-.37,1.91.12,1.32.37,1.91.58,1.1,1.01,1.54c.43.44.93.78,1.51,1.03s1.19.37,1.83.37c.9,0,1.71-.23,2.44-.71.73-.47,1.28-1.06,1.67-1.76l2.89,1.54Z"/>
        <path class="cls-1" d="M551.16,132.99c-.28.21-.62.44-1.03.67s-.87.45-1.38.64-1.08.35-1.7.46c-.62.12-1.29.18-2.02.18-1.24,0-2.35-.21-3.33-.62-.98-.42-1.82-.98-2.52-1.7-.7-.72-1.23-1.56-1.6-2.53-.37-.97-.56-2-.56-3.09s.2-2.15.59-3.13c.4-.97.95-1.82,1.65-2.53.71-.72,1.55-1.28,2.53-1.7s2.06-.62,3.24-.62c1.26,0,2.38.21,3.35.62s1.79.98,2.45,1.7c.66.72,1.17,1.55,1.51,2.52.34.96.51,2,.51,3.11,0,.41-.05.86-.16,1.35h-11.96c.26,1.11.8,1.98,1.64,2.6s1.81.93,2.92.93,1.99-.15,2.63-.46c.64-.31,1.14-.61,1.51-.91l1.73,2.53ZM549.2,125.84c-.02-1.15-.4-2.07-1.12-2.74-.73-.67-1.71-1.01-2.95-1.01s-2.19.34-2.97,1.01c-.78.67-1.28,1.59-1.49,2.74h8.53Z"/>
      </g>
      <path class="cls-1" d="M105.84,100.71h-8.9c-4.43,0-8.02-3.59-8.02-8.02v-42.24h15.08v6.87c1.57-2.32,3.45-4.24,5.64-5.74s4.75-2.26,7.69-2.26c.75,0,1.56.05,2.41.15.85.1,1.76.33,2.72.67l-.21,15.9c-1.16-.48-2.34-.85-3.54-1.13-1.2-.27-2.38-.41-3.54-.41-2.53,0-4.72.77-6.57,2.31s-2.77,4.12-2.77,7.74v26.16Z"/>
      <path class="cls-1" d="M169.96,95.07c-.75.68-1.84,1.43-3.28,2.26-1.44.82-3.11,1.57-5.03,2.26-1.92.69-4,1.25-6.26,1.69-2.26.44-4.55.67-6.87.67-3.9,0-7.49-.67-10.77-2-3.28-1.34-6.1-3.18-8.46-5.54s-4.2-5.13-5.54-8.31c-1.33-3.18-2-6.62-2-10.31s.67-7.13,2-10.31c1.34-3.18,3.18-5.95,5.54-8.31,2.36-2.36,5.18-4.21,8.46-5.54,3.28-1.34,6.87-2,10.77-2,4.17,0,7.91.67,11.23,2,3.32,1.33,6.14,3.17,8.46,5.49,2.32,2.33,4.12,5.08,5.39,8.26,1.27,3.18,1.9,6.62,1.9,10.31,0,.89-.07,1.81-.2,2.77-.14.96-.27,1.85-.41,2.67l-35.8-.1c.96,2.46,2.44,4.22,4.46,5.28,2.02,1.06,4.29,1.59,6.82,1.59,1.78,0,3.33-.17,4.67-.51,1.33-.34,2.46-.74,3.38-1.18.92-.44,1.66-.89,2.21-1.33.54-.44.92-.77,1.13-.98l8.21,11.18ZM158.57,71.58c-.14-2.26-.99-4.19-2.57-5.79-1.57-1.61-3.83-2.41-6.77-2.41-2.6,0-4.84.67-6.72,2-1.88,1.34-3.17,3.4-3.85,6.2h19.9Z"/>
      <path class="cls-1" d="M225.15,95.07c-.75.68-1.84,1.43-3.28,2.26-1.44.82-3.11,1.57-5.03,2.26-1.92.69-4,1.25-6.26,1.69-2.26.44-4.55.67-6.87.67-3.9,0-7.49-.67-10.77-2-3.28-1.34-6.1-3.18-8.46-5.54-2.36-2.36-4.2-5.13-5.54-8.31-1.33-3.18-2-6.62-2-10.31s.67-7.13,2-10.31c1.34-3.18,3.18-5.95,5.54-8.31,2.36-2.36,5.18-4.21,8.46-5.54,3.28-1.34,6.87-2,10.77-2,4.17,0,7.91.67,11.23,2,3.32,1.33,6.14,3.17,8.46,5.49,2.32,2.33,4.12,5.08,5.39,8.26,1.27,3.18,1.9,6.62,1.9,10.31,0,.89-.07,1.81-.2,2.77-.14.96-.27,1.85-.41,2.67l-35.8-.1c.96,2.46,2.44,4.22,4.46,5.28,2.02,1.06,4.29,1.59,6.82,1.59,1.78,0,3.33-.17,4.67-.51,1.33-.34,2.46-.74,3.38-1.18.92-.44,1.66-.89,2.21-1.33.54-.44.92-.77,1.13-.98l8.21,11.18ZM213.76,71.58c-.14-2.26-.99-4.19-2.57-5.79-1.57-1.61-3.83-2.41-6.77-2.41-2.6,0-4.84.67-6.72,2-1.88,1.34-3.17,3.4-3.85,6.2h19.9Z"/>
      <path class="cls-1" d="M243.49,100.71h-8.9v-50.26h15.15l-.07,6.67c2.05-2.32,4.41-4.19,7.08-5.59s5.54-2.1,8.61-2.1,6.02.55,8.41,1.64,4.38,2.65,5.95,4.67c1.57,2.02,2.73,4.41,3.49,7.18.75,2.77,1.13,5.83,1.13,9.18v28.62h-8.9c-4.43,0-8.02-3.59-8.02-8.02v-19.57c0-2.39-.53-4.38-1.59-5.95-1.06-1.57-3.06-2.36-6-2.36-2.46,0-4.46.91-6,2.72-1.54,1.81-2.31,4.16-2.31,7.03v18.14c0,4.43-3.59,8.02-8.02,8.02Z"/>
      <path class="cls-1" d="M298.47,100.71h-8.9V34.87c0-4.43,3.59-8.02,8.02-8.02h9.01l-.1,28.52c1.98-1.78,4.19-3.22,6.62-4.31,2.43-1.09,4.94-1.64,7.54-1.64,3.21,0,6,.55,8.36,1.64,2.36,1.09,4.31,2.65,5.85,4.67,1.54,2.02,2.67,4.41,3.38,7.18.72,2.77,1.08,5.83,1.08,9.18v28.62h-8.9c-4.43,0-8.02-3.59-8.02-8.02v-19.57c0-2.39-.53-4.38-1.59-5.95-1.06-1.57-3.06-2.36-6-2.36-2.39,0-4.38.87-5.95,2.62-1.57,1.74-2.36,4.02-2.36,6.82v18.45c0,4.43-3.59,8.02-8.02,8.02Z"/>
      <path class="cls-1" d="M442.13,50.45h8.9v50.26h-15.21l.12-6.57c-2.05,2.26-4.45,4.09-7.18,5.49-2.74,1.4-5.75,2.1-9.03,2.1s-5.99-.56-8.31-1.69c-2.33-1.13-4.24-2.68-5.74-4.67-1.51-1.98-2.62-4.38-3.34-7.18-.72-2.8-1.08-5.88-1.08-9.23v-28.52h8.9c4.43,0,8.02,3.59,8.02,8.02v18.14c0,3.07.53,5.47,1.59,7.18,1.06,1.71,3.06,2.57,6,2.57,2.46,0,4.47-.91,6-2.72,1.54-1.81,2.31-4.16,2.31-7.03v-18.14c0-4.43,3.59-8.02,8.02-8.02Z"/>
      <path class="cls-1" d="M487.76,66.65c-.2-.2-.6-.54-1.18-1.02-.58-.48-1.28-.96-2.1-1.44-.82-.48-1.78-.89-2.87-1.23-1.1-.34-2.26-.51-3.49-.51-1.57,0-2.65.27-3.23.82-.58.55-.87,1.13-.87,1.74,0,.82.36,1.49,1.08,2s1.69.98,2.92,1.39c1.78.61,3.92,1.21,6.41,1.79s4.87,1.42,7.13,2.51c2.26,1.09,4.17,2.56,5.75,4.41,1.57,1.84,2.36,4.38,2.36,7.59,0,2.53-.53,4.85-1.59,6.97-1.06,2.12-2.58,3.94-4.56,5.44-1.99,1.51-4.4,2.69-7.23,3.54-2.84.85-6.04,1.28-9.59,1.28-4.72,0-9.01-.61-12.88-1.84-3.86-1.23-6.96-2.98-9.28-5.23l9.95-11.18c.27.27.77.67,1.49,1.18s1.61,1.03,2.67,1.54,2.26.98,3.59,1.38c1.33.41,2.75.61,4.25.61,1.23,0,2.39-.17,3.49-.51,1.09-.34,1.64-1.06,1.64-2.15,0-.75-.31-1.37-.92-1.84s-1.47-.92-2.57-1.33c-1.78-.69-3.95-1.34-6.51-1.95-2.57-.61-5.05-1.45-7.44-2.51-2.39-1.06-4.43-2.51-6.1-4.36-1.68-1.84-2.51-4.3-2.51-7.38,0-2.53.53-4.86,1.59-6.98,1.06-2.12,2.57-3.93,4.51-5.44,1.95-1.5,4.31-2.67,7.08-3.49,2.77-.82,5.9-1.23,9.39-1.23,2.67,0,5.1.24,7.29.72,2.19.48,4.1,1.04,5.74,1.69s3.01,1.33,4.11,2.05c1.09.72,1.92,1.32,2.46,1.79l-9.95,11.18Z"/>
      <path class="cls-1" d="M548.28,95.07c-.75.68-1.84,1.43-3.28,2.26-1.44.82-3.11,1.57-5.03,2.26-1.92.69-4,1.25-6.26,1.69-2.26.44-4.55.67-6.87.67-3.9,0-7.49-.67-10.77-2-3.28-1.34-6.1-3.18-8.46-5.54s-4.2-5.13-5.54-8.31c-1.33-3.18-2-6.62-2-10.31s.67-7.13,2-10.31c1.34-3.18,3.18-5.95,5.54-8.31,2.36-2.36,5.18-4.21,8.46-5.54,3.28-1.34,6.87-2,10.77-2,4.17,0,7.91.67,11.23,2,3.32,1.33,6.14,3.17,8.46,5.49,2.32,2.33,4.12,5.08,5.39,8.26,1.27,3.18,1.9,6.62,1.9,10.31,0,.89-.07,1.81-.2,2.77-.14.96-.27,1.85-.41,2.67l-35.8-.1c.96,2.46,2.44,4.22,4.46,5.28,2.02,1.06,4.29,1.59,6.82,1.59,1.78,0,3.33-.17,4.67-.51,1.33-.34,2.46-.74,3.38-1.18.92-.44,1.66-.89,2.21-1.33.54-.44.92-.77,1.13-.98l8.21,11.18ZM536.9,71.58c-.14-2.26-.99-4.19-2.57-5.79-1.57-1.61-3.83-2.41-6.77-2.41-2.6,0-4.84.67-6.72,2-1.88,1.34-3.17,3.4-3.85,6.2h19.9Z"/>
      <path class="cls-1" d="M368.19,50.64v.02c-13.58.54-24.43,11.72-24.43,25.43s11.4,25.45,25.45,25.45,24.89-10.85,25.43-24.43h.02v-26.48h-26.48ZM380.01,76.53h0c-.23,5.76-4.97,10.36-10.79,10.36s-10.8-4.84-10.8-10.8,4.6-10.56,10.36-10.79h0s11.23,0,11.23,0v11.23Z"/>
      <path class="cls-1" d="M34.57,37.19h30.65c8.86,0,16.04-7.18,16.04-16.04v-1.68h-49.03c-.81,0-1.61.06-2.4.12C13.95,20.76,1.3,33.42.12,49.29c-.06.8-.12,1.59-.12,2.4v49.03h50.86c.19,0,.38-.02.57-.03,16.52-.31,29.82-13.77,29.82-30.36v-18.88h-40.54c-4.43,0-8.03,3.59-8.03,8.03v9.69h31.57c-1.62,7.89-8.61,13.83-16.98,13.83h-29.55v-28.97c0-9.3,7.54-16.85,16.85-16.85Z"/>
      <path class="cls-1" d="M99.58,0h-32.61c-2.89,0-5.23,2.34-5.23,5.23v8.49h25.3v23.54h8.53c2.87,0,5.19-2.32,5.19-5.19V0h-1.19Z"/>
    </g>
  </g>
</svg>