<?xml version="1.0" encoding="UTF-8"?>
<svg id="Layer_2" data-name="Layer 2" xmlns="http://www.w3.org/2000/svg" viewBox="0 0 111.64 111.6">
  <defs>
    <style>
      .cls-1 {
        fill: #fff;
      }
    </style>
  </defs>
  <g id="Capa_1" data-name="Capa 1">
    <g>
      <path class="cls-1" d="M38.3,41.2h33.96c9.82,0,17.77-7.96,17.77-17.77v-1.86h-54.32c-.9,0-1.78.07-2.66.13C15.45,23.01,1.44,37.02.13,54.61c-.07.88-.13,1.76-.13,2.66v54.32h56.35c.21,0,.42-.03.63-.03,18.3-.34,33.04-15.26,33.04-33.64v-20.92h-44.92c-4.91,0-8.89,3.98-8.89,8.89v10.74h34.97c-1.8,8.75-9.53,15.32-18.81,15.32H19.63v-32.1c0-10.31,8.36-18.66,18.66-18.66Z"/>
      <path class="cls-1" d="M110.33,0h-36.13c-3.2,0-5.79,2.59-5.79,5.79v9.41h28.04v26.08h9.45c3.17,0,5.75-2.57,5.75-5.75V0h-1.32Z"/>
    </g>
  </g>
</svg>