<svg width="197" height="56" viewBox="0 0 197 56" fill="none" xmlns="http://www.w3.org/2000/svg">
<mask id="mask0_12562_3" style="mask-type:luminance" maskUnits="userSpaceOnUse" x="0" y="0" width="197" height="56">
</mask>
<g mask="url(#mask0_12562_3)">
<path d="M55.3789 0H0V55.3723H55.3789V0Z" fill="white"/>
<path d="M53.3681 2.00496H2.00643V53.3604H53.3681V2.00496Z" fill="#014C94"/>
<path fill-rule="evenodd" clip-rule="evenodd" d="M53.3681 53.3606H2.00643V37.6233L30.2452 20.8501L53.3681 35.5387V53.3606Z" fill="#3A8245"/>
<path d="M54.5827 39.8171C44.0761 35.8517 36.445 30.1405 30.8075 22.1132C23.0112 31.0156 12.438 37.027 0.798306 39.1695C10.1054 27.2088 16.7386 21.1309 21.846 14.7764C23.2237 13.0607 24.8503 11.0919 25.9276 9.41265C42.3293 13.3931 52.0011 28.0023 54.5827 39.8171Z" fill="white"/>
<path d="M32.2281 43.4266C29.8289 40.7758 30.5456 37.5717 32.2409 36.049C33.3547 35.0496 38.1273 35.2705 40.5802 37.8184C41.106 38.3245 41.5051 38.9443 41.7497 39.6327C41.9944 40.319 42.0759 41.0546 41.9901 41.7774C41.9021 42.5022 41.6489 43.195 41.2497 43.804C40.8484 44.4131 40.3141 44.9214 39.6832 45.2881C37.8934 46.4419 35.3333 46.858 32.2302 43.4309" fill="#F0A31F"/>
<path fill-rule="evenodd" clip-rule="evenodd" d="M87.1863 36.0901L76.3556 10.4574H71.9005L61.1578 36.0901H65.2631L67.7073 30.0916H80.2441L82.6883 36.0901H87.1863ZM79.1518 27.3186H68.7567L72.5572 18.206C73.098 16.9492 73.5508 15.6539 73.9092 14.3349H73.9972C74.3298 15.6453 74.7697 16.9278 75.3083 18.1674L79.1518 27.3186Z" fill="white"/>
<path d="M114.425 11.2143C111.794 10.4852 109.077 10.1163 106.35 10.1163C96.4377 10.1163 90.4096 15.924 90.4096 23.7862C90.4096 31.7213 96.1308 36.4288 105.041 36.4288C108.344 36.4245 111.625 35.9248 114.779 34.9469V23.027H110.805V32.71C109.11 33.1647 107.363 33.3942 105.607 33.3899C98.9699 33.3899 94.6887 29.7461 94.6887 23.3658C94.6887 16.533 99.8862 13.1145 105.955 13.1145C108.635 13.1209 111.294 13.582 113.818 14.4806L114.425 11.2143Z" fill="white"/>
<path d="M146.196 26.2954V10.4616H142.267V26.5614C142.267 31.7278 139.866 33.5872 134.711 33.5872C128.771 33.5872 127.417 30.7413 127.417 27.2091V10.4616H123.4V27.4729C123.4 32.0281 125.234 36.4717 134.449 36.4717C142.134 36.4717 146.196 33.0103 146.196 26.2954Z" fill="white"/>
<path fill-rule="evenodd" clip-rule="evenodd" d="M175.959 36.0901L165.132 10.4574H160.677L149.933 36.0901H154.038L156.48 30.0916H169.017L171.463 36.0901H175.959ZM167.927 27.3186H157.531L161.332 18.206C161.873 16.9492 162.326 15.6539 162.684 14.3349H162.772C163.105 15.6453 163.542 16.9278 164.083 18.1674L167.927 27.3186Z" fill="white"/>
<path d="M197 28.5323C197 20.5199 183.678 22.5337 183.678 16.9898C183.678 14.5986 185.776 13.003 189.792 13.003C191.588 13.0223 193.375 13.2496 195.118 13.6828L195.339 10.571C193.579 10.2686 191.798 10.1163 190.013 10.1163C183.375 10.1163 179.532 13.1552 179.532 17.3673C179.532 25.5298 192.809 23.2522 192.809 29.0234C192.809 32.176 189.882 33.4285 186.347 33.4285C184.287 33.4006 182.242 33.081 180.272 32.4784L180.055 35.824C182.008 36.2358 184 36.4374 185.995 36.4288C192.85 36.4288 197 33.1261 197 28.5323Z" fill="white"/>
<path fill-rule="evenodd" clip-rule="evenodd" d="M93.6135 53.0388C93.5963 52.2689 93.577 51.3124 93.577 50.4674V46.9009C93.577 45.1187 92.8388 43.9134 90.2701 43.9134C89.1928 43.922 88.1262 44.1429 87.1348 44.5611L87.2979 45.9444C88.122 45.4769 89.0512 45.2217 89.9997 45.2066C91.4761 45.2066 91.9632 45.8715 91.9632 47.1132V47.7781C88.579 47.7781 86.579 49.0198 86.579 50.9821C86.579 52.4019 87.5876 53.1954 89.064 53.1954C89.7078 53.2169 90.343 53.041 90.886 52.6957C91.4289 52.3483 91.8538 51.8464 92.107 51.2524H92.1435C92.0641 51.8421 92.0341 52.4384 92.0534 53.0324L93.6135 53.0388ZM91.9568 49.0799C91.9568 50.4846 90.9847 51.9258 89.5254 51.9258C89.3516 51.9451 89.1756 51.9279 89.0082 51.8743C88.8409 51.8207 88.6885 51.7328 88.5597 51.6148C88.431 51.4969 88.328 51.3532 88.2572 51.1923C88.1885 51.0315 88.152 50.8578 88.1563 50.684C88.1563 49.8777 88.843 48.9212 91.9568 48.9212V49.0799Z" fill="white"/>
<path d="M107.667 53.0413V46.7769C107.667 45.1941 107.022 43.9159 104.968 43.9159C104.294 43.8923 103.627 44.0789 103.062 44.4499C102.498 44.821 102.062 45.355 101.813 45.9833L101.777 45.9662C101.878 45.3485 101.925 44.7223 101.918 44.0961H100.354V53.0435H101.97V48.7435C101.97 46.764 103.032 45.2692 104.509 45.2692C105.697 45.2692 106.041 46.0069 106.041 47.268V53.0435H107.667V53.0413Z" fill="white"/>
<path fill-rule="evenodd" clip-rule="evenodd" d="M122.174 53.039V39.8966H120.558V44.0572C120.056 43.9993 119.552 43.9672 119.048 43.9629C116.219 43.9629 114.417 45.8523 114.417 48.9856C114.417 51.5999 115.518 53.1998 117.711 53.1998C118.357 53.2105 118.99 53.0261 119.526 52.6679C120.063 52.3098 120.479 51.7994 120.719 51.1989L120.754 51.216C120.655 51.8165 120.608 52.4235 120.612 53.0325L122.174 53.039ZM120.558 48.4108C120.558 49.9786 119.732 51.8637 118.11 51.8637C116.758 51.8637 116.129 50.7678 116.129 48.8419C116.129 46.2662 117.262 45.2411 118.975 45.2411C119.509 45.2368 120.043 45.3054 120.561 45.4405L120.558 48.4108Z" fill="white"/>
<path fill-rule="evenodd" clip-rule="evenodd" d="M131.08 41.5564C131.08 41.417 131.05 41.2797 130.996 41.151C130.941 41.0224 130.861 40.9065 130.763 40.81C130.662 40.7135 130.544 40.6363 130.413 40.587C130.282 40.5355 130.144 40.5119 130.005 40.5162C129.863 40.5098 129.722 40.5334 129.589 40.5848C129.456 40.6363 129.335 40.7114 129.232 40.81C129.129 40.9087 129.05 41.0266 128.994 41.1575C128.938 41.2883 128.911 41.4277 128.911 41.5692C128.911 41.7108 128.938 41.8523 128.994 41.981C129.05 42.1118 129.132 42.2298 129.232 42.3284C129.335 42.4271 129.456 42.5043 129.589 42.5536C129.722 42.6051 129.863 42.6265 130.005 42.6222C130.288 42.6222 130.561 42.5107 130.763 42.3113C130.96 42.1097 131.076 41.8395 131.08 41.5564ZM130.812 44.0935H129.19V53.0409H130.812V44.0935Z" fill="white"/>
<path d="M145.138 53.0412V46.7768C145.138 45.194 144.488 43.9158 142.439 43.9158C141.765 43.8944 141.099 44.081 140.535 44.4498C139.971 44.8187 139.535 45.3549 139.286 45.9833L139.25 45.9661C139.35 45.3484 139.4 44.7222 139.393 44.096H137.829V53.0434H139.445V48.7434C139.445 46.7639 140.507 45.2691 141.984 45.2691C143.172 45.2691 143.512 46.0068 143.512 47.2679V53.0434H145.138V53.0412Z" fill="white"/>
<path fill-rule="evenodd" clip-rule="evenodd" d="M158.922 53.0388C158.901 52.2689 158.888 51.3124 158.888 50.4674V46.9009C158.888 45.1187 158.147 43.9134 155.574 43.9134C154.497 43.922 153.433 44.1429 152.441 44.5611L152.6 45.9444C153.424 45.4769 154.355 45.2238 155.302 45.2066C156.776 45.2066 157.263 45.8715 157.263 47.1132V47.7781C153.879 47.7781 151.879 49.0198 151.879 50.9821C151.879 52.4019 152.888 53.1954 154.364 53.1954C155.01 53.2169 155.645 53.041 156.186 52.6957C156.729 52.3483 157.156 51.8464 157.407 51.2524H157.443C157.364 51.8421 157.334 52.4384 157.353 53.0324L158.922 53.0388ZM157.265 49.0799C157.265 50.4846 156.293 51.9258 154.834 51.9258C154.66 51.9451 154.484 51.9279 154.319 51.8743C154.152 51.8207 153.999 51.7328 153.87 51.6148C153.742 51.4969 153.639 51.3532 153.568 51.1923C153.499 51.0315 153.465 50.8578 153.469 50.684C153.469 49.8777 154.152 48.9212 157.265 48.9212V49.0799Z" fill="white"/>
<path d="M171.519 50.3559C171.519 47.3491 167.343 48.4107 167.343 46.4505C167.343 45.6741 167.935 45.1723 169.126 45.1723C169.738 45.1766 170.343 45.2731 170.924 45.4575L170.961 44.1085C170.399 43.9949 169.826 43.9348 169.25 43.9284C166.909 43.9284 165.667 45.0994 165.667 46.6113C165.667 49.7639 169.828 48.5329 169.828 50.5339C169.828 51.3595 169.014 51.9021 167.828 51.9021C167.162 51.8979 166.501 51.7949 165.866 51.5955L165.815 53.0367C166.437 53.1482 167.07 53.2018 167.705 53.1954C170.081 53.1954 171.523 51.9708 171.523 50.3494" fill="white"/>
<path fill-rule="evenodd" clip-rule="evenodd" d="M176.813 52.2068L176.201 51.3489C176.135 51.261 176.066 51.1666 175.993 51.0723C176.171 51.0573 176.336 50.9736 176.457 50.8428C176.577 50.712 176.643 50.5404 176.641 50.3624C176.641 49.8434 176.279 49.6482 175.718 49.6482C175.427 49.6482 175.186 49.6482 174.987 49.6632V52.2089H175.478V51.1559H175.5L176.206 52.2089L176.813 52.2068ZM176.128 50.4096C176.128 50.6476 175.948 50.7935 175.654 50.7935C175.577 50.7935 175.51 50.7935 175.476 50.787V50.0536C175.54 50.045 175.605 50.0407 175.669 50.0407C175.976 50.0407 176.128 50.1608 176.128 50.4053" fill="white"/>
<path d="M175.828 48.7668C176.255 48.7668 176.673 48.8933 177.027 49.1314C177.384 49.3694 177.661 49.7061 177.824 50.1029C177.987 50.4975 178.03 50.9329 177.946 51.3511C177.862 51.7714 177.656 52.1553 177.354 52.4577C177.051 52.7601 176.665 52.966 176.246 53.0475C175.826 53.1311 175.392 53.0882 174.997 52.9231C174.602 52.7601 174.266 52.4813 174.027 52.1253C173.791 51.7693 173.665 51.3511 173.665 50.9243C173.665 50.6412 173.721 50.3603 173.83 50.0965C173.939 49.8348 174.098 49.5968 174.3 49.3952C174.499 49.1936 174.738 49.0349 175.002 48.9276C175.261 48.8225 175.542 48.7668 175.828 48.7668ZM175.828 49.0821C175.461 49.0821 175.107 49.1893 174.802 49.393C174.499 49.5968 174.261 49.8841 174.124 50.2209C173.984 50.5576 173.948 50.9286 174.019 51.2867C174.092 51.6449 174.266 51.973 174.525 52.2325C174.783 52.4899 175.111 52.6657 175.469 52.7387C175.826 52.8094 176.199 52.773 176.536 52.6336C176.873 52.4942 177.16 52.2582 177.364 51.9537C177.568 51.6492 177.676 51.2932 177.676 50.9286C177.676 50.4396 177.482 49.9699 177.135 49.6225C176.785 49.2772 176.317 49.0821 175.828 49.0821Z" fill="white"/>
</g>
</svg>
