<svg width="209" height="60" viewBox="0 0 209 60" fill="none" xmlns="http://www.w3.org/2000/svg">
<g>
<circle cx="30" cy="30" r="29" fill="black"/>
<path d="M24.9491 0.419243C8.2814 3.40614 -2.66498 19.4149 0.67902 35.8952C3.65727 50.5415 16.6936 60.6812 31.5588 59.9214C42.1133 59.3712 51.9363 53.0044 56.6388 43.6245C63.1962 30.4978 59.4342 14.7249 47.5995 5.79042C45.5618 4.21837 41.9565 2.38431 39.1611 1.46728C34.8505 0.0262299 29.3643 -0.366783 24.9491 0.419243ZM41.9304 19.2577V28.166H29.9129H17.8954L17.817 19.6769C17.7648 13.6507 17.8431 11.083 18.0521 10.8472C18.444 10.3756 22.7285 10.3232 23.1988 10.7948C23.4339 11.0306 23.5123 12.6812 23.5123 16.559V22.0088H25.4716H27.431L27.4833 17.607L27.5616 13.2315H29.9129H32.2641L32.3425 17.607L32.3948 22.0088H34.4848H36.5748V16.297C36.5748 13.1529 36.6531 10.4804 36.7576 10.3756C36.8621 10.2708 38.0639 10.2446 39.4485 10.2708L41.9304 10.3494V19.2577ZM37.7504 30.7599C39.2656 31.4673 40.7809 32.9083 41.4601 34.297C41.8781 35.1354 41.9304 36.1048 42.0088 42.524L42.0871 49.7817L29.9913 49.7293L17.8954 49.6507L17.817 43.6507C17.7386 36.9695 17.9215 35.7904 19.3061 33.904C19.7503 33.3275 20.7169 32.5153 21.4745 32.0699C22.6763 31.4149 23.1204 31.3101 24.8185 31.3101C26.3338 31.3101 27.0391 31.4673 27.9013 31.9127L28.9985 32.5153L30.2264 31.6507C31.8723 30.524 33.0218 30.1572 34.8766 30.1572C36 30.131 36.8099 30.3144 37.7504 30.7599Z" fill="#FFE200"/>
<path d="M33.2828 36.9434C32.1594 37.3888 31.8721 38.2011 31.8721 40.926V43.4937H34.6152H37.3583V40.9784C37.3583 38.4631 37.3583 38.4631 36.4701 37.5723C35.5557 36.6552 34.5107 36.4456 33.2828 36.9434Z" fill="#FFE200"/>
<path d="M23.4861 38.2273C22.7546 38.9609 22.7285 39.1181 22.7285 41.2404V43.4937H25.1059H27.4833L27.3788 41.1094C27.3004 38.8823 27.2481 38.6989 26.5689 38.0963C25.55 37.2316 24.4528 37.284 23.4861 38.2273Z" fill="#FFE200"/>
<path d="M65.5734 1.04826C65.0509 1.57228 65.0509 1.91289 65.0509 29.581C65.0509 60.105 64.9464 58.1924 66.4616 58.5854C66.7751 58.664 69.7795 58.6902 73.1235 58.6378C79.1584 58.5592 79.2106 58.5592 79.707 57.9304C80.1772 57.3539 80.2034 56.8037 80.2034 48.498C80.2034 41.974 80.2817 39.5897 80.5169 39.3539C80.752 39.1181 83.1032 39.0395 89.53 39.0395C97.89 39.0395 98.2557 39.0133 98.7521 38.5155C99.2485 38.0177 99.2746 37.6509 99.2746 32.3583V26.7513L98.4909 26.3321C97.8638 26.0177 96.3486 25.9391 89.2687 25.9391C83.051 25.9391 80.752 25.8605 80.5169 25.6247C80.2817 25.3889 80.2034 23.7906 80.2034 20.0177C80.2034 15.5373 80.2556 14.6465 80.6214 14.3059C80.9871 13.9391 82.424 13.8867 92.4821 13.8867H103.951L104.473 13.2055C104.996 12.5504 105.022 12.1836 105.022 7.04826C105.022 1.91289 104.996 1.54608 104.5 1.04826C103.977 0.524242 103.637 0.524242 85.0365 0.524242C66.4355 0.524242 66.0959 0.524242 65.5734 1.04826Z" fill="black"/>
<path d="M138.985 0.969406C137.235 1.59823 134.962 3.98251 134.439 5.76417C133.551 8.77727 134.152 11.1615 136.32 13.3624C138.175 15.1965 139.821 15.8515 142.225 15.6681C144.915 15.4323 146.979 14.096 148.259 11.738C148.965 10.5065 149.043 10.0873 149.043 8.12224C149.043 6.15718 148.965 5.73797 148.286 4.50652C146.483 1.25762 142.486 -0.262034 138.985 0.969406Z" fill="black"/>
<path d="M158.683 0.733776C157.821 1.3102 157.795 1.86041 157.795 29.7381V57.4063L158.448 58.0613L159.101 58.7163L165.397 58.6377C171.275 58.5591 171.72 58.5329 172.059 58.0613C172.373 57.6159 172.425 55.0744 172.425 42.5504C172.425 29.2665 172.477 27.5111 172.843 27.1443C173.339 26.6464 174.019 26.6202 174.567 27.0395C174.776 27.2229 177.937 32.332 181.595 38.3844C192.907 57.1705 193.429 58.0089 194.109 58.3495C194.605 58.6115 196.382 58.6901 201.371 58.6377C207.981 58.5591 208.007 58.5591 208.504 57.9303C208.974 57.3277 209 56.4892 209 29.5547V1.80801L208.347 1.17919L207.72 0.524166H201.45H195.18L194.657 1.20539C194.109 1.88661 194.109 2.14862 194.109 15.5897C194.109 30.498 194.161 30.0002 192.646 29.8167C192.019 29.7381 190.948 28.1661 183.136 15.6159C178.277 7.83421 174.045 1.25779 173.731 0.995785C173.209 0.576569 172.529 0.524166 166.05 0.524166C162.158 0.524166 158.84 0.628971 158.683 0.733776Z" fill="black"/>
<path d="M116.465 2.85603C115.655 3.11804 114.584 3.58965 114.088 3.90406C112.886 4.63769 110.874 6.83856 110.326 8.0176L109.855 8.96083L111.371 10.3757C112.207 11.1617 113.069 11.7905 113.304 11.7905C113.513 11.7905 114.114 11.4237 114.636 10.9783C116.909 8.98703 120.462 8.17481 123.101 9.03944C123.858 9.27524 125.139 9.87786 125.948 10.3495C126.837 10.8997 127.594 11.1879 127.908 11.1093C128.587 10.8997 130.364 8.64642 130.364 7.9652C130.364 7.15297 128.927 5.13551 127.803 4.37568C125.661 2.88223 124.433 2.51542 121.089 2.43682C118.555 2.38441 117.667 2.46302 116.465 2.85603Z" fill="black"/>
<path d="M105.519 19.9391C104.996 20.4631 104.97 20.6203 105.101 30.6028C105.179 39.9303 105.258 40.926 105.754 42.9172C107.975 51.4325 113.409 56.6203 122.265 58.7163C124.329 59.2142 125.531 59.319 129.58 59.319C133.969 59.3452 134.7 59.2666 137.391 58.6377C142.512 57.4063 146.744 54.9434 149.304 51.6683C150.898 49.7032 152.701 45.9565 153.354 43.415C154.164 40.2185 154.399 36.6814 154.399 28.4281C154.399 21.0657 154.373 20.7513 153.85 20.0701L153.328 19.3888H146.692C140.134 19.3888 140.056 19.3888 139.664 19.9653C139.298 20.4631 139.246 21.7469 139.246 28.5853C139.246 32.9871 139.116 37.2316 138.985 37.9915C138.384 41.2142 136.581 43.7294 133.995 45.0395C132.088 45.9827 130.259 46.2447 127.908 45.8517C124.538 45.3015 122.134 43.4412 120.906 40.3757C120.332 38.9871 120.306 38.4893 120.175 29.6596L120.044 20.3845L119.417 19.8867C118.869 19.415 118.32 19.3888 112.442 19.3888C106.329 19.3888 106.041 19.415 105.519 19.9391Z" fill="black"/>
</g>
</svg>
