<svg width="220" height="211" viewBox="0 0 220 211" fill="none" xmlns="http://www.w3.org/2000/svg">
<g clip-path="url(#clip0_12566_453)">
<path d="M87.744 210.547C86.0635 210.547 84.5031 209.557 83.7829 208.027L67.1583 172.887C66.6582 171.827 66.5882 170.626 66.9683 169.516C67.3584 168.386 68.1586 167.485 69.2289 166.975L82.8926 160.514C85.9635 159.063 88.8843 158.323 91.585 158.323C96.6264 158.323 100.617 160.904 102.828 165.575C104.529 169.166 104.529 172.897 102.908 176.168C107.969 176.358 111.851 178.799 113.881 183.09C116.622 188.891 117.082 197.134 103.648 203.485L89.6345 210.117C89.0343 210.397 88.4041 210.537 87.754 210.537M90.0346 200.574L99.4972 196.093C107.379 192.362 107.169 189.191 105.929 186.571C104.969 184.55 103.518 183.61 101.348 183.61C99.5472 183.61 97.2665 184.26 94.5658 185.54L85.0432 190.042L90.0246 200.574H90.0346ZM81.5223 182.57L89.7645 178.669C92.8353 177.218 94.7859 175.648 95.5461 174.007C96.1362 172.727 96.0462 171.357 95.246 169.666C94.4458 167.966 92.9854 167.105 90.9248 167.105C89.4844 167.105 87.864 167.525 86.0935 168.366L76.861 172.737L81.5122 182.57H81.5223Z" fill="#1D1D1B"/>
<path d="M130.496 189.482C123.954 189.482 118.482 185.531 115.081 178.349C111.15 170.037 111.881 159.424 122.373 154.452C124.824 153.292 127.325 152.702 129.785 152.702C136.137 152.702 141.989 156.743 145.06 163.245C146.13 165.505 145.21 168.036 142.909 169.116L124.904 177.639C126.595 179.699 128.675 180.739 131.106 180.739C132.666 180.739 134.377 180.309 136.177 179.449C139.488 177.879 141.138 176.298 142.589 174.398C142.999 173.878 143.439 173.527 144.069 173.227C144.629 172.967 145.24 172.827 145.85 172.827C147.42 172.827 148.801 173.698 149.471 175.108C150.091 176.428 149.871 178.019 148.851 179.469C146.63 182.64 144.359 184.931 139.338 187.311C136.297 188.752 133.316 189.482 130.496 189.482ZM129.325 160.834C128.105 160.834 126.885 161.114 125.784 161.634C123.514 162.705 120.323 165.745 121.533 170.657L135.517 164.035C133.566 161.434 131.136 160.834 129.335 160.834" fill="#1D1D1B"/>
<path d="M159.674 176.868C157.993 176.868 156.433 175.878 155.712 174.348L143.959 149.511C142.909 147.29 143.839 144.64 146.02 143.609C146.61 143.329 147.24 143.189 147.9 143.189C149.271 143.189 150.541 143.809 151.381 144.83C152.722 141.469 154.812 139.098 157.633 137.758L157.923 137.618C158.513 137.338 159.143 137.198 159.774 137.198C161.464 137.198 162.964 138.168 163.715 139.738C164.235 140.849 164.285 142.049 163.835 143.129C163.415 144.139 162.594 144.99 161.514 145.5L161.224 145.64C158.243 147.05 156.253 149.801 155.582 153.402L163.705 170.577C164.215 171.647 164.255 172.847 163.835 173.968C163.425 175.068 162.614 175.948 161.554 176.448C160.954 176.728 160.324 176.878 159.664 176.878" fill="#1D1D1B"/>
<path d="M185.901 163.265C179.359 163.265 173.887 159.314 170.487 152.132C166.555 143.819 167.286 133.197 177.778 128.235C180.229 127.075 182.73 126.485 185.191 126.485C191.542 126.485 197.394 130.526 200.465 137.028C200.975 138.098 201.045 139.288 200.675 140.358C200.285 141.459 199.454 142.369 198.314 142.899L180.309 151.421C182 153.482 184.08 154.522 186.511 154.522C188.071 154.522 189.782 154.092 191.582 153.232C194.893 151.662 196.544 150.081 197.994 148.181C198.404 147.66 198.844 147.31 199.474 147.01C200.025 146.75 200.645 146.61 201.255 146.61C202.825 146.61 204.206 147.48 204.876 148.891C205.496 150.211 205.276 151.802 204.256 153.252C202.475 155.783 200.285 158.473 194.743 161.094C191.702 162.535 188.721 163.265 185.901 163.265ZM184.72 134.617C183.5 134.617 182.28 134.897 181.179 135.417C178.909 136.497 175.718 139.528 176.928 144.44L190.912 137.818C188.962 135.217 186.531 134.617 184.73 134.617" fill="#1D1D1B"/>
<path d="M215.539 150.431C213.858 150.431 212.298 149.441 211.578 147.911L193.803 110.34C192.733 108.08 193.643 105.489 195.863 104.439C196.484 104.149 197.134 103.999 197.804 103.999C199.514 103.999 201.045 104.979 201.795 106.559L219.57 144.13C220.08 145.2 220.13 146.4 219.73 147.5C219.33 148.601 218.51 149.491 217.419 150.001C216.819 150.281 216.189 150.431 215.539 150.431Z" fill="#1D1D1B"/>
<path d="M131.496 5.17157C101.318 -2.12042 76.881 14.284 70.9393 22.9764C65.7279 30.5885 60.7766 23.6666 58.1459 17.1448C57.1556 14.6842 54.5749 6.06181 54.5749 6.06181C54.0547 4.86148 52.9744 4.06126 51.434 4.78146L32.4789 13.6139C30.5383 14.5541 30.5583 15.4244 31.0885 17.1948C31.0885 17.1948 35.3196 30.2584 39.0706 37.9905C42.3916 44.8324 46.1226 50.664 49.8136 51.4542C52.3243 51.9943 55.3751 51.6242 57.4857 48.4734C61.7968 42.0216 73.6701 25.017 99.5171 21.446C123.784 18.0951 152.882 30.6785 160.614 65.558C163.265 77.5113 162.544 107.569 134.627 129.205C134.627 129.205 133.796 129.776 134.017 130.396C134.387 131.456 136.107 130.556 136.107 130.556C141.589 127.705 148.921 122.714 157.403 115.522C159.804 113.481 179.989 96.2164 179.989 66.5583C179.989 42.2417 163.625 12.9637 131.486 5.20157" fill="#EA0029"/>
<path d="M148.901 48.383C130.706 20.4353 99.4571 22.996 85.9334 28.8476C70.9294 35.3294 66.048 43.8117 60.7866 50.8836C59.0361 53.2243 56.8355 56.1851 50.8239 56.0751C44.5422 55.955 39.1907 48.613 34.4394 38.1302C31.9687 32.6787 27.2274 18.7349 27.2274 18.7349C26.5973 17.4945 25.537 17.0444 24.4167 17.5546L4.70129 26.7271C3.641 27.2872 3.28091 28.2475 3.52097 29.6178C3.52097 29.6178 4.81132 36.7498 7.82214 45.002C11.4131 54.8347 14.774 61.6866 17.2047 65.7277C19.9254 70.2689 23.5464 72.7196 23.5464 72.7196C23.5464 72.7196 26.9274 94.9657 41.6614 113.261C52.2543 126.414 77.3811 148.92 115.802 134.787C154.222 120.653 167.216 76.5306 148.901 48.383ZM128.065 89.5942C120.293 111.01 102.288 113.431 92.6853 113.311C76.6709 113.111 67.8385 103.448 63.6574 99.4669C54.2448 90.5245 50.5738 73.8999 50.5738 73.8999C50.5738 73.8999 55.065 72.4495 57.7658 69.5887C59.9264 67.3081 61.7368 64.2873 62.7571 62.1567C70.2192 46.5825 83.4328 40.5808 98.5169 41.8412C117.352 43.4116 137.367 63.9472 128.065 89.5942Z" fill="#EA0029"/>
<mask id="mask0_12566_453" style="mask-type:luminance" maskUnits="userSpaceOnUse" x="54" y="75" width="2" height="1">
<path d="M54.5749 75.6708C54.7449 75.6008 54.915 75.5208 55.065 75.4508H55.035C54.875 75.5208 54.7249 75.6008 54.5749 75.6708Z" fill="white"/>
</mask>
<g mask="url(#mask0_12566_453)">
<path d="M55.065 75.441H54.5749V75.6711H55.065V75.441Z" fill="url(#paint0_linear_12566_453)"/>
</g>
</g>
<defs>
<linearGradient id="paint0_linear_12566_453" x1="48.9944" y1="68.8301" x2="49.4845" y2="68.8301" gradientUnits="userSpaceOnUse">
<stop stop-color="#FAFAFA"/>
<stop offset="0.82" stop-color="#BBBABA"/>
<stop offset="1" stop-color="#B4B4B4"/>
</linearGradient>
<clipPath id="clip0_12566_453">
<rect width="219.94" height="210.49" fill="white" transform="scale(1.00027)"/>
</clipPath>
</defs>
</svg>
