<svg width="225" height="56" viewBox="0 0 225 56" fill="none" xmlns="http://www.w3.org/2000/svg">
<path d="M23.5719 1.06558C22.3525 1.13558 21.1021 1.26781 20.0614 1.44669C18.7954 1.6567 16.8072 2.11559 16.6984 2.22447C16.6596 2.26336 12.9937 10.9045 8.5512 21.4278L0.473877 40.5611L0.823376 41.2067C3.74364 46.62 8.4813 50.8434 14.1743 53.1067C19.3546 55.1678 25.6611 55.6811 31.4551 54.5222C38.3363 53.1378 44.0914 49.3578 48.2077 43.5011C50.7552 39.8767 52.06 36.1667 52.6347 30.9011C52.7745 29.5711 52.8289 24.9356 52.7046 23.7767L52.6425 23.1778H38.4373H24.2321V29.2445V35.3111H28.2319C32.8065 35.3111 32.3638 35.2256 32.0842 36.0734C31.6026 37.4967 30.4609 38.5778 28.8532 39.1145C28.4649 39.2467 27.8902 39.3945 27.5717 39.4411C26.8184 39.5656 24.9932 39.5656 24.1932 39.4411C21.2807 38.9745 19.1682 37.4034 17.8324 34.72C16.9392 32.9078 16.5431 30.8856 16.5431 28.1167C16.5431 26.4989 16.613 25.6589 16.8615 24.4378C17.5683 20.8989 19.5488 18.2234 22.2982 17.1034C23.9602 16.4267 26.5698 16.3567 28.2785 16.9478C30.0027 17.5389 31.4318 18.6745 32.5424 20.3389C32.6822 20.5489 32.8065 20.7434 32.822 20.7589C32.8375 20.7822 49.2407 14.7156 49.3028 14.6611C49.3494 14.6222 48.332 13.02 47.734 12.18C46.4214 10.3445 44.3166 8.09669 42.6468 6.77447C38.3674 3.36781 33.2958 1.49336 27.2999 1.08892C26.2281 1.01892 24.5039 1.00336 23.5719 1.06558Z" fill="#0D3A5C"/>
<path d="M77.0375 1.09685C71.1116 1.50129 66.2496 3.54684 62.6692 7.16351C59.3995 10.4613 57.7141 14.708 57.7063 19.6468C57.7063 25.0057 59.9276 29.058 64.308 31.6402C66.0555 32.6746 68.0282 33.3746 71.0261 34.028C74.3969 34.7591 75.5929 35.1402 76.6181 35.8402C77.5424 36.4624 77.8996 37.1468 77.7365 37.9791C77.5424 39.0213 76.789 39.7057 75.4376 40.0635C74.7153 40.2657 72.96 40.2968 71.9581 40.1413C68.968 39.6746 65.7526 38.2357 61.877 35.638L60.8052 34.9146L60.6654 35.2491C59.7257 37.4191 54.9181 49.3424 54.9647 49.3891C55.1123 49.5213 57.4423 50.7346 58.483 51.2168C63.0653 53.348 67.337 54.538 72.0358 55.0046C73.527 55.1446 77.1307 55.1291 78.5443 54.958C80.6568 54.7168 82.381 54.3435 84.0974 53.7602L84.9828 53.4646L90.2486 40.9891L95.5222 28.5057L95.3591 28.2335C94.4659 26.7013 92.6873 24.9202 91.002 23.8857C89.2389 22.8046 87.7788 22.2835 84.6178 21.5835C79.5695 20.4713 77.1385 19.4602 76.4861 18.1691C76.1754 17.5546 76.4395 16.5902 77.0608 16.0535C77.8453 15.4002 79.0025 15.128 80.8121 15.1902C83.8101 15.2913 86.6293 16.3024 89.8603 18.4413C90.4816 18.8535 90.9942 19.1646 91.0097 19.1257C91.0253 19.0946 92.2912 16.0613 93.8213 12.3902L96.6017 5.72462L96.2056 5.49129C95.5066 5.08685 92.9747 3.92796 91.7243 3.44574C86.8779 1.55574 81.9305 0.762402 77.0375 1.09685Z" fill="#0D3A5C"/>
<path d="M100.788 28.4824C97.0056 37.4813 93.8834 44.9013 93.8523 44.9713C93.8057 45.1036 96.9279 45.1113 158.665 45.1113H223.524V28.6224V12.1335H165.601H107.677L100.788 28.4824ZM120.577 16.5124C121.214 16.7224 121.991 17.1424 122.403 17.5002L122.636 17.6947L121.89 18.5891C121.478 19.0791 121.121 19.5147 121.082 19.5458C121.051 19.5847 120.849 19.4913 120.647 19.3435C119.777 18.7291 118.511 18.5269 117.727 18.8769C117.222 19.1102 116.694 19.6158 116.445 20.1369C116.251 20.5258 116.228 20.6502 116.228 21.3891C116.228 22.0813 116.259 22.268 116.414 22.6102C116.632 23.0924 117.214 23.668 117.727 23.9013C118.224 24.1269 119.381 24.1347 119.956 23.9091L120.344 23.7535L120.368 23.1547L120.391 22.5558H119.412H118.442V21.5447V20.5335H120.694H122.946V22.7424V24.9591L122.659 25.2002C122.201 25.5735 121.036 26.1102 120.306 26.2891C119.467 26.4835 118.022 26.4991 117.284 26.3202C115.801 25.9624 114.481 24.9435 113.867 23.6913C112.71 21.3191 113.494 18.4724 115.684 17.0724C116.647 16.4502 117.486 16.248 118.908 16.2869C119.777 16.3102 120.065 16.3491 120.577 16.5124ZM130.674 16.3724C132.134 16.6835 133.501 17.7335 134.177 19.0635C134.689 20.0824 134.829 21.5835 134.511 22.7113C134.262 23.6135 133.944 24.1502 133.198 24.8891C132.103 25.9935 131 26.4447 129.393 26.4447C127.793 26.4447 126.558 25.9391 125.532 24.8658C124.523 23.8002 124.049 22.5324 124.134 21.078C124.204 19.7713 124.67 18.7369 125.626 17.7724C126.255 17.1424 127.117 16.6447 128.01 16.4113C128.709 16.2324 129.913 16.2091 130.674 16.3724ZM187.293 16.3724C189.134 16.7535 190.702 18.2469 191.176 20.0669C191.339 20.6813 191.363 21.8791 191.223 22.478C190.873 23.9324 189.856 25.2158 188.505 25.8924C186.99 26.6624 184.94 26.6391 183.425 25.8458C182.586 25.4024 181.701 24.4924 181.282 23.6447C180.676 22.408 180.583 21.0469 181.002 19.7791C181.623 17.9358 183.037 16.738 185.118 16.3024C185.491 16.2247 186.796 16.2713 187.293 16.3724ZM141.959 16.4891C142.806 16.6291 143.287 16.8547 143.776 17.3369C144.126 17.6869 144.235 17.8658 144.343 18.2313C144.506 18.7913 144.468 19.4213 144.242 19.9269C144.071 20.3235 143.543 20.868 143.194 21.008L142.961 21.1091L143.341 21.2802C144.009 21.5758 144.343 21.8791 144.615 22.4313C144.856 22.9135 144.864 22.9758 144.833 23.668C144.809 24.2747 144.77 24.4458 144.6 24.7413C144.227 25.3791 143.644 25.8069 142.751 26.1024C142.378 26.2269 141.951 26.2424 139.202 26.2735L136.072 26.2969V21.358V16.4113H138.775C140.258 16.4113 141.687 16.4502 141.959 16.4891ZM148.887 21.3502V26.2891H147.528H146.168V21.3502V16.4113H147.528H148.887V21.3502ZM158.595 17.578V18.7447H155.993H153.391V19.4835V20.2224H155.76H158.129V21.3113V22.4002H155.76H153.391V23.178V23.9558H156.032H158.673V25.1224V26.2891H154.673H150.673V21.3502V16.4113H154.634H158.595V17.578ZM166.238 16.598C168.016 17.1191 168.979 18.5658 168.715 20.3002C168.552 21.3269 168.063 22.0735 167.208 22.6024L166.758 22.8824L167.511 23.9869C167.923 24.5858 168.428 25.3247 168.63 25.6202C168.839 25.9158 169.002 26.188 169.002 26.2269C169.002 26.258 168.311 26.2891 167.465 26.2891H165.919L164.94 24.8113L163.954 23.3335H163.372H162.789V24.8113V26.2891H161.391H159.993V21.3424V16.3958L162.89 16.4347C165.329 16.458 165.849 16.4891 166.238 16.598ZM174.602 18.9547L176.575 21.4902L176.598 18.9547L176.614 16.4113H178.012H179.41V21.3502V26.2891H178.19H176.963L174.905 23.6291L172.847 20.9769L172.824 23.6291L172.808 26.2891H171.449H170.09V21.3502V16.4113H171.356H172.629L174.602 18.9547ZM202.205 16.6291C203.712 17.0335 204.846 17.9047 205.413 19.0791C205.583 19.4291 205.77 19.9113 205.824 20.1447C205.972 20.7513 205.948 22.0191 205.785 22.6335C205.335 24.3135 204.03 25.5658 202.189 26.0713C201.646 26.2191 201.343 26.2424 199.083 26.2735L196.574 26.3047V21.3502V16.3958L199.083 16.4269C201.327 16.4658 201.646 16.4813 202.205 16.6291ZM215.214 17.578V18.7447H212.612H210.01V19.4835V20.2224H212.379H214.748V21.3113V22.4002H212.379H210.01V23.178V23.9558H212.651H215.292V25.1224V26.2891H211.292H207.292V21.3502V16.4113H211.253H215.214V17.578ZM195.176 29.0891C196.1 29.2058 196.9 29.4313 197.623 29.7969C198.244 30.1002 199.292 30.8235 199.292 30.9402C199.292 30.9947 197.654 33.0091 197.351 33.3202C197.211 33.4602 197.203 33.4602 196.823 33.1802C195.331 32.0835 193.452 31.9824 192.17 32.9235C191.673 33.2969 191.409 33.6391 191.083 34.3391C190.695 35.1947 190.741 36.7035 191.192 37.598C191.448 38.1035 192.054 38.7335 192.52 38.9902C193.351 39.4413 194.671 39.5502 195.603 39.2391C196.341 38.9902 196.341 38.9902 196.341 38.1113V37.3335H195.06H193.778V36.0113V34.6891H196.768H199.758V37.6369V40.5924L199.316 40.9113C198.632 41.4091 197.242 42.0547 196.38 42.288C195.681 42.4747 195.471 42.498 194.205 42.498C193.095 42.5058 192.706 42.4747 192.302 42.3658C189.747 41.6658 188.101 40.1647 187.371 37.878C187.091 37.0069 187.013 35.3658 187.207 34.4324C187.945 30.8313 191.269 28.6147 195.176 29.0891ZM209.474 29.128C210.919 29.3458 212.154 29.9369 213.171 30.9091C214.507 32.1769 215.167 33.5924 215.268 35.3891C215.377 37.4269 214.764 39.0291 213.311 40.4835C212.201 41.5958 211.23 42.1091 209.622 42.4358C208.675 42.6224 207.191 42.5524 206.251 42.2724C203.875 41.5724 202.22 39.9313 201.537 37.6058C201.382 37.0769 201.351 36.8124 201.351 35.8169C201.351 34.8213 201.382 34.5569 201.537 34.028C202.096 32.0913 203.37 30.5902 205.156 29.7424C206.539 29.0891 207.929 28.8947 209.474 29.128ZM121.424 29.3535C122.263 29.5713 123.389 30.0924 123.971 30.528L124.336 30.8002L123.435 32.0835L122.527 33.3669L122.294 33.2035C121.292 32.5424 120.01 32.1224 119.008 32.1224C118.216 32.1224 117.867 32.2624 117.688 32.6358C117.579 32.8613 117.579 32.9235 117.673 33.1802C117.828 33.5924 118.216 33.7713 119.84 34.1758C120.585 34.3624 121.377 34.5802 121.587 34.6502C123.762 35.4047 124.655 36.4624 124.655 38.3058C124.655 40.1958 123.599 41.5802 121.704 42.1869C119.762 42.8091 117.113 42.5447 115.102 41.5335C114.442 41.1991 113.393 40.4835 113.393 40.3591C113.393 40.3124 113.836 39.7602 114.372 39.1224L115.35 37.9635L115.816 38.2824C116.453 38.7102 117.447 39.1691 118.1 39.3247C118.853 39.5113 120.181 39.5191 120.515 39.3324C120.849 39.1535 121.005 38.9124 121.005 38.578C121.005 38.0335 120.57 37.808 118.558 37.2947C115.374 36.4858 114.271 35.6535 113.991 33.818C113.688 31.8502 114.877 30.0458 116.935 29.3691C117.657 29.1358 118.007 29.0969 119.335 29.1202C120.453 29.1435 120.772 29.1824 121.424 29.3535ZM134.806 30.9169C135.202 31.858 135.699 33.0324 135.909 33.5224C136.118 34.0124 136.577 35.1013 136.926 35.9335C137.276 36.7658 138.014 38.5158 138.565 39.8147C139.116 41.1135 139.567 42.2102 139.567 42.2413C139.567 42.2802 138.705 42.3113 137.648 42.3113H135.722L135.256 41.1447L134.79 39.978H132.297H129.804L129.346 41.1447L128.888 42.3113H127.008C125.929 42.3113 125.121 42.2802 125.121 42.2413C125.121 42.1791 130.022 30.5124 130.441 29.5713L130.627 29.1669L132.359 29.1824L134.084 29.2058L134.806 30.9169ZM184.311 35.6224C185.802 39.1458 187.044 42.0935 187.068 42.1713C187.107 42.3036 186.998 42.3113 185.18 42.3113H183.246L182.781 41.1602L182.307 40.0169L179.821 39.9935L177.328 39.978L176.87 41.1213L176.412 42.2724L174.493 42.2958L172.583 42.3113L172.839 41.7124C172.979 41.378 174.222 38.4224 175.612 35.1324L178.128 29.1669L179.868 29.1824L181.6 29.2058L184.311 35.6224ZM146.867 32.7135L149.469 36.0658L149.493 32.698L149.508 29.3224H151.294H153.081V35.8169V42.3113H151.504H149.935L147.178 38.7647L144.421 35.2102L144.398 38.7647L144.382 42.3113H142.596H140.809V35.8169V29.3224L142.534 29.338L144.258 29.3613L146.867 32.7135ZM166.051 30.9169V32.5113H164.109H162.168V37.4113V42.3113H160.343H158.517V37.4113V32.5113H156.576H154.634V30.9169V29.3224H160.343H166.051V30.9169ZM171.332 35.8169V42.3113H169.507H167.682V35.8169V29.3224H169.507H171.332V35.8169Z" fill="#E8490F"/>
<path d="M128.593 18.8532C127.529 19.2499 126.946 20.1599 126.962 21.3888C126.977 22.5632 127.591 23.481 128.593 23.8466C128.756 23.901 129.152 23.9477 129.47 23.9477C130.457 23.9554 131.21 23.4732 131.637 22.5632C131.816 22.1821 131.839 22.0266 131.839 21.3499C131.839 20.6499 131.816 20.5332 131.629 20.1677C131.327 19.5999 131.024 19.281 130.542 19.0166C130.208 18.8299 130.022 18.791 129.509 18.7677C129.105 18.7521 128.787 18.7832 128.593 18.8532Z" fill="#E8490F"/>
<path d="M185.103 18.9076C184.606 19.1021 184.093 19.5843 183.837 20.1054C183.666 20.4476 183.643 20.5954 183.643 21.3499C183.643 22.1276 183.658 22.2443 183.852 22.6099C184.318 23.4887 184.947 23.8854 185.949 23.9399C186.54 23.971 186.664 23.9476 187.037 23.7843C187.619 23.5121 187.891 23.2554 188.186 22.6954C188.404 22.2832 188.458 22.1043 188.481 21.5754C188.543 20.4165 188.077 19.5143 187.176 19.0243C186.602 18.7132 185.709 18.6587 185.103 18.9076Z" fill="#E8490F"/>
<path d="M138.79 19.5224V20.3779H139.637C141.089 20.3779 141.602 20.1913 141.711 19.6313C141.773 19.289 141.61 18.9702 141.276 18.8068C141.058 18.6902 140.794 18.6668 139.901 18.6668H138.79V19.5224Z" fill="#E8490F"/>
<path d="M138.79 23.1777V24.041L140.181 24.0177C141.454 23.9943 141.594 23.9788 141.796 23.831C142.052 23.6366 142.192 23.1932 142.083 22.8899C142.045 22.781 141.912 22.6177 141.796 22.5243C141.594 22.3766 141.454 22.361 140.181 22.3377L138.79 22.3143V23.1777Z" fill="#E8490F"/>
<path d="M162.789 19.9887V21.1709L163.939 21.1398C164.91 21.1242 165.127 21.0931 165.391 20.9531C166.152 20.5565 166.168 19.4131 165.414 19.0009C165.205 18.892 164.925 18.8609 163.978 18.8376L162.789 18.8065V19.9887Z" fill="#E8490F"/>
<path d="M199.37 21.342V23.7998H200.263C200.962 23.7998 201.242 23.7687 201.576 23.6442C202.57 23.2709 203.036 22.6176 203.083 21.5365C203.121 20.712 202.966 20.1909 202.516 19.6931C201.987 19.1098 201.576 18.9542 200.364 18.9154L199.37 18.8842V21.342Z" fill="#E8490F"/>
<path d="M207.696 32.3633C206.135 32.6277 205.04 34.0355 205.04 35.7777C205.04 37.4344 206.011 38.7722 207.486 39.1533C209.032 39.5655 210.531 38.8733 211.238 37.4188C211.525 36.8277 211.525 36.8277 211.525 35.8166C211.525 34.8444 211.517 34.7822 211.276 34.2844C210.795 33.2577 209.855 32.5266 208.807 32.3555C208.286 32.2699 208.271 32.2699 207.696 32.3633Z" fill="#E8490F"/>
<path d="M131.598 35.3266L130.884 37.1388L131.622 37.1621C132.025 37.1699 132.662 37.1699 133.035 37.1621L133.726 37.1388L133.074 35.4666C132.717 34.5488 132.398 33.7321 132.367 33.6544C132.321 33.561 132.103 34.0355 131.598 35.3266Z" fill="#E8490F"/>
<path d="M179.146 35.2411C178.773 36.1977 178.447 37.03 178.423 37.0766C178.392 37.1544 178.703 37.1777 179.821 37.1777H181.258L180.792 35.9877C180.536 35.3422 180.218 34.51 180.078 34.1522L179.829 33.5066L179.146 35.2411Z" fill="#E8490F"/>
</svg>
