<svg width="174" height="120" viewBox="0 0 174 120" fill="none" xmlns="http://www.w3.org/2000/svg">
<path d="M156.012 101.014L154.07 97.672L153.566 103.78C152.693 105.139 151.045 106.449 148.783 107.844C150.578 107.489 151.832 107.465 152.656 107.649C152.299 109.84 151.746 111.872 151.045 113.72L154.746 107.477L157.881 106.939L156.787 102.899L159.725 96.4111C158.631 98.1004 157.463 99.5938 156.012 101.014Z" fill="#DE0B15"/>
<path d="M150.725 67.2531C153.332 69.8482 155.422 73.3492 156.91 77.6581C155.545 82.7504 153.787 86.8389 151.61 89.8502L159.43 84.3417C159.43 84.3417 161.397 90.7683 161.483 94.3672C162.664 90.4868 163.254 85.7862 163.254 80.3144L167.852 74.0347L163.045 71.2559C162.713 65.2945 161.803 60.2144 160.229 56.1626C160.451 60.6673 158.951 69.5789 158.951 69.5789C156.565 68.3303 153.823 67.5836 150.725 67.2531Z" fill="#DE0B15"/>
<path d="M136.057 50.4214C136.561 53.9346 136.635 57.3744 136.512 60.6305L128.865 63.2991L136.328 67.4733L135.307 77.7069L140.926 70.2398L147.098 75.3566L143.742 65.3801L148.193 57.7906L141.48 59.3452L136.057 50.4214Z" fill="#DE0B15"/>
<path d="M148.685 43.3581L150.775 49.9193L151.648 46.0389L155.41 49.1604L152.349 42.5012L153.48 38.0454L149.558 39.0614L144.812 34.1895L147.517 39.6735L142.955 40.9588L148.685 43.3581Z" fill="#DE0B15"/>
<path d="M118.131 48.9401L120.701 55.5013L122.041 51.425C124.328 52.6981 126.332 54.0691 128.102 55.5258L122.705 49.2216L123.369 45.7941H119.471L113.299 40.4814L116.668 45.7696L111.565 45.941L118.131 48.9401Z" fill="#DE0B15"/>
<path d="M122.127 6.92852L117.307 12.2045C113.078 9.58485 108.566 7.65075 103.771 6.12061C107.68 9.56037 110.975 13.5755 113.656 18.1047L105.234 28.3138L119.545 26.9673L128.348 43.4072L127.365 26.6245L138.123 27.3223C134.102 23.4786 129.959 20.1245 125.742 17.3825L122.127 6.92852Z" fill="#DE0B15"/>
<path d="M81.627 113.255H88.6351V85.7124H81.627V113.255Z" fill="#DE0B15"/>
<path d="M94.2051 113.255H101.201V71.8311L94.2051 74.8913V113.255Z" fill="#DE0B15"/>
<path d="M88.6106 77.5845L81.627 80.6448V83.5704H88.6106V77.5845Z" fill="#DE0B15"/>
<path d="M63.172 82.7869C59.5204 82.7869 55.9671 84.0967 54.2089 86.2634V71.8311L47.2007 74.8913V113.243H54.2089V95.7992C54.2089 90.9762 56.8523 88.1852 61.549 88.1852C66.172 88.1852 68.8769 90.3519 68.8769 96.3868V113.255H75.8851V96.142C75.8851 87.3406 71.4835 82.7869 63.172 82.7869Z" fill="#DE0B15"/>
<path d="M26.2499 107.906C17.963 107.906 13.4876 102.275 13.4876 93.3633C13.4876 84.4395 17.963 78.8086 26.2499 78.8086C31.1434 78.8086 33.6639 80.351 36.1106 83.5949L42.4302 80.2898C39.172 75.4668 33.9958 72.8472 26.2499 72.8472C13.9671 72.8472 6.14746 81.318 6.14746 93.3633C6.14746 105.409 13.9671 113.88 26.2499 113.88C33.4548 113.88 39.2335 111.15 42.627 106.266L36.713 102.96C34.2663 106.192 31.2171 107.906 26.2499 107.906Z" fill="#DE0B15"/>
<path d="M112.512 95.5791C113.127 90.805 115.979 88.0875 120.664 88.0875C126.43 88.0875 128.742 91.4783 129.086 95.5791H112.512ZM136.155 97.7458C136.155 89.6788 131.262 82.7993 121.143 82.7993C111.897 82.7993 105.516 88.2589 105.516 98.3701C105.516 108.261 112.573 113.892 120.934 113.892C126.369 113.892 130.106 112.472 133.229 109.962L129.098 106.192C126.713 107.661 124.34 108.579 121.352 108.579C117 108.579 113.139 106.143 112.389 100.402H135.959C136.02 99.79 136.155 98.8107 136.155 97.7458Z" fill="#DE0B15"/>
</svg>
