<svg width="176" height="178" viewBox="0 0 176 178" fill="none" xmlns="http://www.w3.org/2000/svg">
<g clip-path="url(#clip0_12535_134)">
<path d="M176 54.2739H158.787L145.623 78.6512L132.46 54.2739H114.695L136.971 94.4734V116.643H153.356V94.4734L176 54.2739Z" fill="#6B3379"/>
<path d="M69.7741 54.2739H50.8117L73.8243 85.4584L50.8117 116.643H69.7741L92.7866 85.4584L69.7741 54.2739Z" fill="#00E400"/>
<path d="M109.172 54.2739H92.7866V116.643H109.172V54.2739Z" fill="#6B3379"/>
<path d="M47.4059 98.1529C47.4059 88.5859 42.159 82.6066 30.7448 79.019L21.2636 76.1673C18.0419 75.1555 16.0167 74.0516 16.0167 71.1999C16.0167 68.3482 19.6067 66.6924 24.3013 66.6924C31.4812 66.6924 37.6485 68.9921 43.2636 72.8557V57.8614C38.0167 55.0097 32.0335 53.1699 23.5649 53.1699C10.4017 53.1699 -0.092041 59.9772 -0.092041 72.3958C-0.092041 84.8144 5.70712 87.942 16.2008 90.9777L25.682 93.7374C29.0879 94.9332 31.0209 95.9451 31.0209 98.9808C31.0209 102.016 26.5105 103.948 21.3557 103.948C16.2008 103.948 6.62762 101.097 1.28871 97.417V112.411C5.89122 115.171 13.4393 117.471 21.8159 117.471C35.8996 117.471 47.4059 111.491 47.4059 97.9689" fill="#6B3379"/>
</g>
<defs>
<clipPath id="clip0_12535_134">
<rect width="176" height="178" fill="white"/>
</clipPath>
</defs>
</svg>
