<svg width="224" height="75" viewBox="0 0 224 75" fill="none" xmlns="http://www.w3.org/2000/svg">
<g>
<path d="M0.0756836 35.1821C0.12592 34.7449 0.193394 34.3446 0.223384 33.9415C0.347376 32.2749 0.645429 30.6378 1.01214 29.0101C1.46626 26.9943 2.07501 25.0228 2.90175 23.1362C3.5801 21.5882 4.35585 20.0754 5.19534 18.6086C5.93419 17.3177 6.78405 16.0852 7.65499 14.8778C8.29583 13.9894 9.04198 13.1764 9.75661 12.3431C10.1242 11.9145 10.5159 11.5053 10.9132 11.1038C13.0814 8.91209 15.4858 7.01297 18.1164 5.418C20.2113 4.14786 22.4153 3.09499 24.7268 2.26173C26.5603 1.60081 28.4278 1.07721 30.3334 0.702967C31.4877 0.476252 32.6672 0.37662 33.8366 0.229448C34.2199 0.181209 34.607 0.163037 35.0092 0.103399C36.6163 0.0756836 38.2065 0.0756836 39.8322 0.0756836C40.2553 0.125937 40.6416 0.195245 41.0309 0.223263C43.1159 0.373341 45.1568 0.778986 47.1712 1.31581C49.209 1.8589 51.1797 2.5906 53.0968 3.48007C54.9619 4.34541 56.7558 5.33153 58.4317 6.51957C59.5154 7.28778 60.569 8.10328 61.5942 8.94878C62.4434 9.64919 63.27 10.3865 64.0382 11.1746C65.5991 12.7758 67.0689 14.466 68.2782 16.3531C69.2362 17.8481 70.1608 19.3734 70.9761 20.9499C72.2524 23.4179 73.1685 26.0377 73.8063 28.7426C74.1164 30.0577 74.3081 31.4031 74.5088 32.7415C74.6308 33.5552 74.6896 34.3804 74.7369 35.2028C74.7882 36.0947 74.8032 36.9892 74.8163 37.8828C74.8411 39.5775 74.6833 41.2576 74.4501 42.9363C74.1088 45.3945 73.521 47.789 72.6971 50.1241C71.9416 52.2653 71.0292 54.3417 69.8365 56.2759C68.9569 57.7022 68.0491 59.1165 67.0643 60.4706C65.791 62.2212 64.2803 63.7742 62.6992 65.2454C61.0936 66.7396 59.3569 68.0785 57.5029 69.2514C55.1757 70.7235 52.719 71.934 50.1298 72.8791C48.147 73.6029 46.1137 74.1321 44.0463 74.522C42.9989 74.7195 41.9293 74.8007 40.8683 74.9212C40.422 74.9719 39.9718 74.9882 39.5064 75.0479C38.1261 75.0757 36.7628 75.0757 35.3641 75.0757C35.1885 75.0505 35.0492 75.0181 34.908 75.0013C33.6753 74.8545 32.4336 74.7614 31.2116 74.5518C29.9096 74.3285 28.6064 74.0636 27.3398 73.693C25.8818 73.2663 24.4468 72.7457 23.0329 72.1868C21.9857 71.7729 20.9746 71.2588 19.9712 70.7427C18.0233 69.7408 16.1818 68.5622 14.4874 67.1709C13.3104 66.2045 12.1294 65.2315 11.0491 64.161C9.44409 62.5705 8.00704 60.8287 6.71504 58.9627C5.55619 57.2891 4.52594 55.5446 3.65715 53.7094C2.42139 51.0989 1.44916 48.39 0.905907 45.543C0.675592 44.336 0.486623 43.1204 0.307121 41.9045C0.216019 41.2873 0.187652 40.6609 0.103303 40.0218C0.0756836 38.4091 0.0756836 36.8134 0.0756836 35.1821ZM43.3817 73.938C45.2878 73.6382 47.1574 73.1796 48.9835 72.5608C55.497 70.3535 61.0083 66.6409 65.4489 61.3714C70.729 55.1056 73.6128 47.8522 74.1165 39.6667C74.3365 36.0912 74.0306 32.5448 73.1853 29.0566C71.419 21.7674 67.7846 15.5751 62.3099 10.4706C59.8301 8.15853 57.0774 6.23266 54.0566 4.70211C47.6539 1.45789 40.8791 0.195364 33.7391 0.897249C31.0855 1.1581 28.4909 1.69917 25.9648 2.54821C19.1094 4.8524 13.3731 8.80619 8.85335 14.4669C3.2899 21.4348 0.558682 29.4086 0.746836 38.3471C0.783659 40.0964 0.965937 41.8526 1.21894 43.5853C1.7578 47.2759 2.93962 50.7752 4.61574 54.101C6.78451 58.4044 9.67821 62.1481 13.3016 65.3216C16.9038 68.4766 20.9612 70.8454 25.4776 72.4159C28.5619 73.4884 31.7347 74.1301 34.9956 74.3365C37.7847 74.513 40.558 74.4043 43.3817 73.938Z" fill="#888887"/>
<path d="M224.076 16.4371C224 16.9194 223.939 17.3694 223.846 17.8125C223.473 19.582 222.723 21.1524 221.302 22.3144C220.424 23.033 219.398 23.5133 218.258 23.5954C217.058 23.6819 215.849 23.6938 214.645 23.6717C213.763 23.6555 212.882 23.535 212.002 23.4528C211.845 23.4382 211.692 23.3841 211.518 23.3435C211.518 23.2058 211.518 23.081 211.518 22.9563C211.518 18.0246 211.522 13.0929 211.51 8.16126C211.509 7.7783 211.628 7.6728 211.998 7.65833C213.409 7.60314 214.821 7.53613 216.229 7.43165C218.037 7.29748 219.734 7.57824 221.273 8.60462C222.335 9.31284 223.024 10.317 223.448 11.4798C223.734 12.2638 223.837 13.1148 224.049 13.9517C224.076 14.7789 224.076 15.5902 224.076 16.4371ZM214.544 13.9296C214.544 16.264 214.544 18.5984 214.544 21.0273C215.477 21.0273 216.354 21.0573 217.23 21.0206C218.714 20.9583 219.858 20.1753 220.365 18.778C220.818 17.5311 220.917 16.2402 220.837 14.916C220.785 14.0605 220.681 13.2313 220.372 12.4313C219.939 11.3109 219.233 10.4537 218.01 10.2192C217.363 10.095 216.685 10.1118 216.02 10.1028C215.538 10.0963 215.055 10.1518 214.544 10.1813C214.544 11.4301 214.544 12.6419 214.544 13.9296Z" fill="#878786"/>
<path d="M121.419 62.1549C121.318 60.7205 121.211 59.3224 121.121 57.9233C121.095 57.5201 121.118 57.1139 121.115 56.7091C121.115 56.5891 121.105 56.4692 121.021 56.3379C120.979 56.5168 120.939 56.6965 120.893 56.8745C120.657 57.7991 120.441 58.7299 120.176 59.6461C119.593 61.6599 118.986 63.667 118.384 65.6753C118.167 66.4005 117.932 67.1205 117.711 67.8447C117.656 68.0247 117.564 68.0998 117.365 68.0969C116.584 68.0855 115.802 68.0852 115.021 68.0969C114.815 68.1 114.74 68.0133 114.685 67.8331C114.298 66.5501 113.9 65.2703 113.511 63.9881C112.883 61.9224 112.251 59.858 111.64 57.7873C111.525 57.3974 111.501 56.9806 111.431 56.5771C111.417 56.5019 111.381 56.4308 111.323 56.2668C111.279 56.8424 111.245 57.3131 111.205 57.7832C111.107 58.9541 111.005 60.1246 110.907 61.2955C110.852 61.9564 110.809 62.6183 110.751 63.2789C110.656 64.3615 110.549 65.443 110.456 66.5257C110.416 66.988 110.395 67.4521 110.376 67.9158C110.369 68.0962 110.358 68.2607 110.122 68.2419C109.357 68.1812 108.592 68.1142 107.8 68.0472C107.831 67.3783 107.849 66.7779 107.891 66.1791C107.919 65.7693 107.994 65.3628 108.025 64.953C108.085 64.1533 108.112 63.3509 108.184 62.5524C108.294 61.3217 108.434 60.0939 108.554 58.8641C108.638 57.9933 108.696 57.1198 108.788 56.2499C108.899 55.2091 109.034 54.1711 109.156 53.1315C109.192 52.8215 109.219 52.5103 109.252 52.1828C109.329 52.1718 109.401 52.1527 109.473 52.1525C110.431 52.1505 111.389 52.1568 112.347 52.1465C112.555 52.1442 112.658 52.2045 112.721 52.4111C113.157 53.848 113.608 55.2802 114.048 56.7159C114.728 58.9344 115.41 61.1521 116.072 63.3761C116.196 63.7915 116.226 64.235 116.39 64.6601C116.446 64.25 116.463 63.8301 116.564 63.4317C116.79 62.5428 117.05 61.6623 117.31 60.7823C117.921 58.7118 118.537 56.643 119.157 54.575C119.374 53.8498 119.612 53.1307 119.828 52.4052C119.889 52.1988 120 52.1438 120.207 52.1462C121.14 52.1571 122.073 52.1607 123.005 52.1452C123.292 52.1404 123.364 52.2631 123.39 52.5187C123.505 53.6729 123.643 54.8248 123.757 55.979C123.847 56.8746 123.908 57.773 123.992 58.6691C124.084 59.6381 124.193 60.6055 124.285 61.5744C124.325 61.9986 124.341 62.4251 124.369 62.8505C124.42 63.6256 124.466 64.4012 124.526 65.1756C124.597 66.0977 124.68 67.0189 124.765 68.0319C123.801 68.1084 122.858 68.1832 121.878 68.2609C121.824 67.4752 121.776 66.7406 121.72 66.0067C121.623 64.7345 121.52 63.4627 121.419 62.1549Z" fill="#878786"/>
<path d="M194.568 18.1267C194.286 19.1736 193.901 20.1405 193.291 21.0061C192.253 22.4809 190.843 23.3968 189.059 23.5895C187.865 23.7185 186.65 23.694 185.445 23.6719C184.563 23.6558 183.682 23.5352 182.801 23.4531C182.645 23.4384 182.492 23.3843 182.317 23.3437C182.317 23.2066 182.317 23.0818 182.317 22.9571C182.317 18.0234 182.321 13.0897 182.308 8.15601C182.307 7.76443 182.44 7.67339 182.803 7.65889C184.202 7.60297 185.602 7.54336 186.997 7.43116C188.756 7.28974 190.416 7.56032 191.924 8.50858C192.783 9.04855 193.42 9.80984 193.894 10.7095C194.43 11.7263 194.698 12.8082 194.812 13.9533C194.95 15.3531 194.852 16.7262 194.568 18.1267ZM185.343 11.122C185.343 14.39 185.343 17.6579 185.343 20.9514C186.476 20.9514 187.568 21.0286 188.642 20.9264C189.47 20.8477 190.164 20.3805 190.678 19.6727C191.335 18.7664 191.547 17.7123 191.602 16.6505C191.682 15.1045 191.739 13.5358 191.012 12.0855C190.569 11.1999 189.958 10.4742 188.945 10.2581C188.412 10.1443 187.854 10.1172 187.306 10.1039C186.662 10.0883 186.015 10.13 185.343 10.1476C185.343 10.4949 185.343 10.7708 185.343 11.122Z" fill="#878786"/>
<path d="M187.499 30.008C188.901 29.9136 190.277 29.8768 191.644 29.7441C193.331 29.5804 194.95 29.7599 196.469 30.5261C197.494 31.0433 198.274 31.8432 198.838 32.853C199.493 34.0263 199.791 35.281 199.885 36.6242C200.002 38.3202 199.834 39.9622 199.258 41.5534C198.398 43.9327 196.741 45.4831 194.243 45.8869C192.986 46.0901 191.671 45.9356 190.383 45.9267C189.858 45.9231 189.333 45.8872 188.809 45.8473C188.342 45.8116 187.877 45.7502 187.385 45.6974C187.385 45.5191 187.385 45.3822 187.385 45.2453C187.385 40.3269 187.385 35.4086 187.389 30.4903C187.389 30.3345 187.44 30.1788 187.499 30.008ZM190.411 37.4621C190.411 39.3905 190.411 41.3189 190.411 43.2738C190.69 43.2738 190.915 43.2737 191.141 43.2738C191.912 43.2739 192.691 43.3407 193.454 43.2606C195.103 43.0876 195.989 42.0294 196.387 40.4954C196.72 39.2101 196.756 37.9075 196.626 36.5863C196.541 35.7158 196.345 34.8889 195.918 34.1341C195.476 33.3512 194.853 32.7844 193.942 32.5446C193.204 32.3503 192.476 32.335 191.73 32.4098C191.301 32.4528 190.867 32.4536 190.411 32.4745C190.411 34.1544 190.411 35.7703 190.411 37.4621Z" fill="#878786"/>
<path d="M105.706 17.3613C105.171 16.4175 104.638 15.5044 104.135 14.5748C103.641 13.6605 103.177 12.7295 102.7 11.8063C102.7 15.6806 102.7 19.5784 102.7 23.5042C101.851 23.5042 100.991 23.5042 100.085 23.5042C100.085 23.3528 100.085 23.2054 100.085 23.058C100.085 18.113 100.085 13.1681 100.085 8.22309C100.085 7.71671 100.084 7.70833 100.602 7.66807C101.348 7.60997 102.096 7.57106 102.842 7.51198C103.085 7.49273 103.215 7.57505 103.34 7.79714C104.616 10.0613 105.914 12.3133 107.193 14.5757C107.769 15.5939 108.327 16.6225 108.871 17.6577C109.065 18.0272 109.196 18.4302 109.421 18.8095C109.421 15.09 109.421 11.3704 109.421 7.62102C110.268 7.62102 111.128 7.62102 112.014 7.62102C112.014 12.8858 112.014 18.1513 112.014 23.467C111.172 23.5144 110.34 23.5713 109.507 23.5975C109.383 23.6014 109.203 23.4928 109.137 23.3829C108.668 22.6062 108.217 21.8184 107.769 21.0287C107.083 19.8164 106.404 18.5997 105.706 17.3613Z" fill="#878786"/>
<path d="M133.469 33.1448C133.908 34.0566 134.132 35.0007 134.195 35.973C134.259 36.9653 134.306 37.9641 134.267 38.9564C134.202 40.6215 133.818 42.208 132.857 43.6092C131.926 44.9661 130.61 45.6825 129.015 45.923C128.524 45.9971 128.023 46.0872 127.531 46.0665C126.22 46.0114 124.928 45.8204 123.796 45.0807C122.405 44.1713 121.663 42.8183 121.268 41.2419C120.954 39.9823 120.84 38.6959 120.9 37.4062C120.971 35.872 121.182 34.3555 121.9 32.9607C122.831 31.1528 124.281 30.0794 126.295 29.7489C127.979 29.4724 129.594 29.626 131.105 30.4476C132.204 31.0452 132.976 31.9587 133.469 33.1448ZM130.868 35.1359C130.77 34.8287 130.682 34.5178 130.572 34.2152C130.368 33.656 130.073 33.1596 129.587 32.7913C128.759 32.1639 127.794 32.183 126.857 32.291C125.875 32.4041 125.162 32.9684 124.744 33.9096C124.356 34.7808 124.201 35.7044 124.161 36.6279C124.098 38.0658 124.056 39.517 124.446 40.9296C124.722 41.9278 125.193 42.7674 126.208 43.2073C126.861 43.49 127.538 43.4621 128.201 43.4059C129.19 43.3221 129.946 42.8202 130.423 41.9127C130.975 40.8613 131.061 39.7089 131.081 38.5709C131.101 37.449 130.95 36.3242 130.868 35.1359Z" fill="#878786"/>
<path d="M162.728 68.3199C160.931 68.2733 159.386 67.7144 158.224 66.3378C157.489 65.4673 157.07 64.4254 156.827 63.3185C156.558 62.0888 156.458 60.8372 156.527 59.5826C156.628 57.7625 156.938 55.997 158.022 54.4554C158.963 53.1178 160.232 52.3515 161.833 52.0661C163.371 51.7918 164.852 51.9329 166.29 52.5294C167.379 52.9814 168.185 53.7732 168.761 54.7833C169.416 55.9337 169.787 57.1824 169.834 58.5146C169.868 59.4836 169.958 60.458 169.894 61.4214C169.785 63.0628 169.396 64.6392 168.409 66.0054C167.569 67.1671 166.43 67.8902 165.04 68.152C164.297 68.2918 163.524 68.2692 162.728 68.3199ZM161.942 54.7305C161.115 55.0082 160.555 55.5813 160.311 56.3994C160.078 57.1795 159.838 57.9851 159.798 58.7894C159.722 60.3022 159.674 61.8313 160.078 63.3196C160.349 64.3139 160.866 65.1138 161.862 65.5315C162.437 65.7724 163.036 65.7639 163.632 65.7329C164.685 65.6781 165.524 65.2246 166.028 64.267C166.621 63.1407 166.656 61.8894 166.72 60.6631C166.784 59.4252 166.685 58.1847 166.348 56.9829C166.144 56.2581 165.856 55.559 165.203 55.1106C164.209 54.4275 163.124 54.3981 161.942 54.7305Z" fill="#878786"/>
<path d="M154.093 7.3635C155.386 7.451 156.633 7.58157 157.707 8.34444C158.744 9.08104 159.247 10.1032 159.408 11.3563C159.519 12.2136 159.428 13.0268 159.124 13.8134C158.717 14.8643 158.005 15.6535 156.973 16.1329C156.829 16.1999 156.689 16.2775 156.521 16.3639C158.563 18.2959 159.358 20.9406 160.708 23.4123C159.616 23.4825 158.638 23.5506 157.66 23.6C157.567 23.6047 157.422 23.5153 157.381 23.4305C157.006 22.6572 156.667 21.8667 156.284 21.0979C155.634 19.7938 154.945 18.5104 154.032 17.3659C153.973 17.2915 153.842 17.2404 153.743 17.238C153.227 17.2254 152.71 17.2321 152.15 17.2321C152.15 19.3252 152.15 21.4037 152.15 23.5071C151.144 23.5071 150.183 23.5071 149.182 23.5071C149.182 23.3589 149.182 23.2234 149.182 23.0878C149.182 18.1168 149.182 13.1457 149.182 8.17465C149.182 7.67417 149.184 7.69641 149.688 7.66281C151.006 7.57483 152.323 7.46465 153.641 7.36609C153.779 7.35577 153.918 7.36392 154.093 7.3635ZM156.219 11.1358C156.015 10.5656 155.613 10.1946 155.044 10.024C154.088 9.73724 153.123 9.85713 152.163 9.95538C152.163 11.6423 152.163 13.2905 152.163 14.9883C152.933 14.9504 153.68 14.9722 154.406 14.8594C154.986 14.7692 155.562 14.5544 155.923 14.0125C156.513 13.127 156.511 12.1769 156.219 11.1358Z" fill="#878786"/>
<path d="M128.303 62.9063C128.303 59.3168 128.303 55.7632 128.303 52.1803C129.283 52.1803 130.244 52.1803 131.253 52.1803C131.253 52.3286 131.253 52.4758 131.253 52.6231C131.253 55.7223 131.24 58.8217 131.263 61.9208C131.268 62.5898 131.365 63.2653 131.49 63.9243C131.645 64.7457 132.16 65.2541 132.991 65.4454C133.974 65.672 134.942 65.6945 135.879 65.2769C136.756 64.8856 137.136 64.1208 137.217 63.222C137.297 62.3461 137.298 61.4616 137.301 60.5807C137.311 57.9242 137.305 55.2677 137.305 52.6111C137.305 52.4742 137.305 52.3372 137.305 52.1758C138.26 52.1758 139.187 52.1758 140.18 52.1758C140.18 52.296 140.18 52.428 140.18 52.5599C140.18 55.7098 140.204 58.86 140.167 62.0094C140.153 63.1525 140 64.2961 139.532 65.3648C138.896 66.8181 137.832 67.7843 136.27 68.1094C134.459 68.4863 132.652 68.514 130.924 67.7259C129.715 67.1748 129.064 66.1312 128.693 64.9124C128.499 64.2754 128.43 63.6001 128.303 62.9063Z" fill="#878786"/>
<path d="M84.1987 15.4097C84.1987 12.7937 84.1987 10.2156 84.1987 7.61426C85.2072 7.61426 86.1852 7.61426 87.2247 7.61426C87.2247 7.75147 87.2247 7.89667 87.2247 8.04186C87.2247 11.369 87.2178 14.6961 87.2329 18.0232C87.235 18.467 87.3033 18.9229 87.4206 19.3512C87.6589 20.2217 88.2414 20.7824 89.1481 20.8639C89.8634 20.9282 90.6152 20.9915 91.3045 20.8413C92.2848 20.6277 92.8837 20.1083 93.1134 18.8524C93.2231 18.2529 93.2666 17.6339 93.2698 17.0233C93.2851 14.0378 93.2767 11.0522 93.2767 8.06667C93.2767 7.92826 93.2767 7.78984 93.2767 7.62119C94.2044 7.62119 95.1157 7.62119 96.0757 7.62119C96.0757 7.75368 96.0757 7.88797 96.0757 8.02227C96.0757 11.3114 96.1051 14.601 96.0615 17.8896C96.0437 19.2324 95.746 20.5441 94.9485 21.6692C94.1669 22.7719 93.0758 23.4096 91.7452 23.6014C91.1174 23.6919 90.4763 23.7735 89.8461 23.746C88.6921 23.6957 87.5356 23.5792 86.5196 22.9354C85.2746 22.1464 84.7201 20.9188 84.4289 19.5409C84.1434 18.1904 84.1964 16.8167 84.1987 15.4097Z" fill="#878786"/>
<path d="M99.2759 33.9588C99.7322 32.6525 100.179 31.3745 100.61 30.0913C100.679 29.8853 100.78 29.8264 100.986 29.8287C101.881 29.8387 102.776 29.8367 103.671 29.8301C103.872 29.8287 103.974 29.875 104.044 30.0955C104.891 32.7836 105.762 35.464 106.609 38.1521C107.172 39.939 107.709 41.7342 108.253 43.5273C108.465 44.2263 108.662 44.9297 108.896 45.7337C107.942 45.7997 107.029 45.8721 106.116 45.9113C106.024 45.9153 105.874 45.7335 105.836 45.6113C105.447 44.3681 105.081 43.1178 104.693 41.8746C104.658 41.7647 104.512 41.6121 104.416 41.6111C102.866 41.5946 101.317 41.5994 99.7531 41.5994C99.3206 43.0444 98.8919 44.4768 98.4436 45.9744C97.5631 45.8933 96.6863 45.8125 95.7383 45.7251C95.8381 45.2893 95.9033 44.9158 96.0098 44.5547C96.4451 43.0791 96.8846 41.6047 97.3383 40.1348C97.9718 38.0827 98.6194 36.035 99.2759 33.9588ZM101.939 34.1585C101.45 35.7926 100.961 37.4268 100.468 39.0709C101.618 39.0709 102.733 39.0709 103.868 39.0709C103.355 37.011 102.564 35.0586 102.177 32.901C102.096 33.368 102.032 33.7348 101.939 34.1585Z" fill="#878786"/>
<path d="M176.469 32.0609C176.852 33.2339 177.233 34.3761 177.586 35.5271C178.317 37.9102 179.032 40.2982 179.755 42.684C180.053 43.6681 180.353 44.6516 180.681 45.731C179.73 45.7977 178.818 45.8673 177.905 45.9168C177.817 45.9216 177.663 45.82 177.638 45.7376C177.245 44.4446 176.866 43.1472 176.49 41.8491C176.437 41.6655 176.348 41.5933 176.147 41.5944C174.623 41.6029 173.099 41.5991 171.533 41.5991C171.321 42.3032 171.107 43.0105 170.894 43.7177C170.693 44.3825 170.499 45.0493 170.284 45.7095C170.255 45.7987 170.122 45.9172 170.039 45.9153C169.477 45.9022 168.915 45.8712 168.355 45.8236C168.074 45.7998 167.796 45.7292 167.491 45.675C167.783 44.6348 168.041 43.6032 168.361 42.5913C169.57 38.7702 170.799 34.9555 172.022 31.1388C172.064 31.009 172.124 30.8854 172.172 30.7575C172.285 30.4577 172.313 30.0367 172.528 29.8897C172.754 29.7347 173.159 29.8357 173.485 29.8339C174.14 29.8303 174.796 29.8415 175.451 29.8281C175.676 29.8235 175.781 29.8906 175.846 30.1181C176.032 30.7616 176.249 31.396 176.469 32.0609ZM173.693 34.2679C173.209 35.8622 172.725 37.4565 172.233 39.0766C173.402 39.0766 174.518 39.0766 175.649 39.0766C175.061 37.0383 174.479 35.0204 173.914 33.0619C173.854 33.3868 173.778 33.7962 173.693 34.2679Z" fill="#878786"/>
<path d="M205.461 20.4252C205.344 20.0299 205.231 19.6653 205.112 19.2816C203.56 19.2816 202.011 19.2776 200.461 19.2914C200.365 19.2922 200.214 19.4156 200.184 19.5118C199.816 20.7094 199.455 21.9099 199.115 23.116C199.02 23.4545 198.911 23.6654 198.495 23.6161C197.747 23.5272 196.993 23.4854 196.187 23.4194C196.522 22.2596 196.807 21.1943 197.139 20.1436C198.342 16.3309 199.56 12.523 200.774 8.71386C200.812 8.59578 200.874 8.48605 200.918 8.36956C201.209 7.5914 201.208 7.59114 202.034 7.59114C202.74 7.59115 203.446 7.59921 204.152 7.58661C204.387 7.58242 204.493 7.64873 204.57 7.89049C205.404 10.5052 206.273 13.1083 207.093 15.7272C207.827 18.0715 208.512 20.4312 209.215 22.7851C209.268 22.9608 209.295 23.144 209.354 23.4127C208.35 23.4983 207.388 23.5803 206.429 23.6621C206.093 22.5436 205.779 21.4998 205.461 20.4252ZM201.951 13.5086C201.62 14.5898 201.288 15.6711 200.952 16.7674C202.118 16.7674 203.237 16.7674 204.368 16.7674C203.779 14.7253 203.192 12.6944 202.623 10.721C202.595 10.9273 202.572 11.2083 202.516 11.4826C202.456 11.7731 202.368 12.0576 202.289 12.3439C202.187 12.7139 202.082 13.0831 201.951 13.5086Z" fill="#878786"/>
<path d="M203.045 40.6123C203.045 37.0102 203.045 33.446 203.045 29.8574C206.102 29.8574 209.131 29.8574 212.236 29.8574C212.184 30.5469 212.134 31.2174 212.082 31.8877C212.082 31.8994 212.069 31.9098 212.067 31.9217C212.029 32.1256 212.057 32.4402 211.941 32.5081C211.759 32.6147 211.481 32.5639 211.243 32.5643C209.668 32.5671 208.092 32.5657 206.517 32.5657C206.381 32.5657 206.246 32.5657 206.091 32.5657C206.091 33.8116 206.091 35.0204 206.091 36.2737C207.532 36.2737 208.973 36.2737 210.436 36.2737C210.436 37.1723 210.436 38.027 210.436 38.9263C209.001 38.9263 207.561 38.9263 206.095 38.9263C206.095 40.3401 206.095 41.7096 206.095 43.1099C208.248 43.1099 210.385 43.1099 212.615 43.1099C212.565 43.8146 212.559 44.4896 212.459 45.1506C212.364 45.7807 212.322 45.7742 211.643 45.7742C208.934 45.7742 206.224 45.7742 203.514 45.7742C203.377 45.7742 203.239 45.7742 203.045 45.7742C203.045 44.0529 203.045 42.3516 203.045 40.6123Z" fill="#878786"/>
<path d="M97.9671 52.1509C100.272 52.1509 102.539 52.1509 104.865 52.1509C104.787 53.0494 104.712 53.912 104.635 54.8006C102.652 54.8006 100.715 54.8006 98.7509 54.8006C98.7509 56.0738 98.7509 57.3172 98.7509 58.5922C100.19 58.5922 101.622 58.5922 103.083 58.5922C103.083 59.4617 103.083 60.3003 103.083 61.1706C101.647 61.1706 100.215 61.1706 98.7534 61.1706C98.7534 62.5969 98.7534 63.9921 98.7534 65.4191C100.891 65.4191 103.029 65.4191 105.263 65.4191C105.178 66.3204 105.097 67.1826 105.014 68.0671C101.904 68.0671 98.8223 68.0671 95.7192 68.0671C95.7192 62.7751 95.7192 57.4922 95.7192 52.1509C96.4533 52.1509 97.1913 52.1509 97.9671 52.1509Z" fill="#878786"/>
<path d="M139.65 10.6382C139.65 11.7594 139.65 12.8438 139.65 13.9588C141.119 13.9588 142.551 13.9588 144.01 13.9588C144.01 14.8533 144.01 15.717 144.01 16.6121C142.572 16.6121 141.14 16.6121 139.679 16.6121C139.679 18.0378 139.679 19.4328 139.679 20.872C141.852 20.872 144.024 20.872 146.257 20.872C146.167 21.7741 146.082 22.6273 145.994 23.5059C142.905 23.5059 139.825 23.5059 136.722 23.5059C136.722 18.2182 136.722 12.9361 136.722 7.62256C139.718 7.62256 142.722 7.62256 145.811 7.62256C145.756 8.47838 145.702 9.33491 145.645 10.2324C143.641 10.2324 141.67 10.2324 139.675 10.2324C139.665 10.3828 139.657 10.492 139.65 10.6382Z" fill="#878786"/>
<path d="M122.272 10.6718C122.009 9.67076 121.759 8.69817 121.494 7.66424C122.492 7.57539 123.477 7.48772 124.474 7.39893C125.651 11.6591 126.813 15.8628 127.976 20.0701C128.014 19.8891 128.051 19.6628 128.11 19.4423C128.409 18.3284 128.707 17.2142 129.017 16.1032C129.66 13.797 130.308 11.4925 130.957 9.18798C131.101 8.67448 131.247 8.16098 131.413 7.65425C131.442 7.56558 131.574 7.44867 131.657 7.45C132.233 7.45921 132.809 7.48295 133.382 7.52981C133.675 7.55372 133.963 7.63514 134.304 7.70017C132.935 13.0596 131.252 18.2991 129.47 23.5204C128.4 23.5204 127.33 23.5204 126.222 23.5204C125.885 22.5138 125.519 21.5011 125.208 20.4718C124.223 17.218 123.258 13.9579 122.272 10.6718Z" fill="#878786"/>
<path d="M168.347 23.5569C167.637 23.6349 166.952 23.7763 166.275 23.743C164.99 23.6797 163.69 23.6224 162.488 23.0714C162.39 23.0266 162.273 22.8468 162.291 22.7544C162.419 22.0982 162.576 21.4477 162.731 20.7969C162.8 20.5056 162.884 20.3626 163.264 20.5214C164.124 20.8818 165.039 21.0755 165.977 21.0991C166.571 21.1141 167.179 21.1661 167.756 21.0623C168.445 20.9384 168.919 20.4909 169.081 19.7562C169.276 18.8767 168.975 18.1658 168.263 17.7103C167.389 17.1504 166.446 16.6961 165.525 16.2119C164.442 15.6424 163.429 14.9815 162.791 13.9004C162.575 13.5359 162.412 13.1 162.368 12.6816C162.212 11.2018 162.472 9.822 163.635 8.7724C164.488 8.00251 165.519 7.59169 166.652 7.4408C167.108 7.38015 167.566 7.29887 168.023 7.29835C168.607 7.29767 169.194 7.35421 169.776 7.41365C170.342 7.47134 170.904 7.5639 171.554 7.65301C171.429 8.57186 171.311 9.44124 171.198 10.2723C170.06 10.1345 168.97 9.94788 167.872 9.88879C167.154 9.85013 166.389 9.86806 165.838 10.4997C165.248 11.1759 165.238 12.3856 166.069 13.0018C166.928 13.6381 167.878 14.0804 168.808 14.5779C169.558 14.9793 170.313 15.4247 170.943 15.9886C171.749 16.7104 172.191 17.6491 172.197 18.8003C172.202 19.9975 171.959 21.0767 171.196 22.0122C170.686 22.6379 170.019 23.0365 169.27 23.3001C168.98 23.4022 168.674 23.4621 168.347 23.5569Z" fill="#878786"/>
<path d="M163.973 45.9058C163.448 45.9709 162.954 46.0521 162.458 46.0662C161.972 46.0801 161.48 46.0573 160.998 45.994C160.187 45.8876 159.396 45.6996 158.651 45.3273C157.275 44.639 156.394 43.5234 155.846 42.1183C155.473 41.1621 155.265 40.1668 155.233 39.1366C155.212 38.4582 155.132 37.7771 155.169 37.1022C155.265 35.3286 155.612 33.618 156.667 32.1313C157.627 30.7786 158.955 30.0218 160.571 29.7621C161.098 29.6774 161.639 29.5888 162.167 29.6187C163.38 29.6874 164.593 29.7935 165.754 30.2066C166.236 30.3782 166.23 30.3705 166.137 30.89C166.025 31.5136 165.93 32.1403 165.823 32.7648C165.805 32.8728 165.763 32.9766 165.752 33.0117C164.907 32.7971 164.093 32.5366 163.26 32.3924C162.172 32.2044 161.083 32.1995 160.107 32.861C159.27 33.4285 158.859 34.2733 158.645 35.2187C158.334 36.589 158.357 37.9778 158.48 39.3714C158.557 40.25 158.73 41.1005 159.186 41.8556C159.748 42.7848 160.616 43.2515 161.687 43.3442C163.233 43.4782 164.653 43.0661 166.041 42.276C166.145 42.6924 166.258 43.0742 166.333 43.4635C166.41 43.8663 166.444 44.2773 166.508 44.6828C166.558 44.9987 166.387 45.1578 166.125 45.2407C165.42 45.4641 164.711 45.6761 163.973 45.9058Z" fill="#878786"/>
<path d="M83.7664 34.5699C84.0858 33.4781 84.542 32.5038 85.2811 31.657C86.4088 30.3651 87.8524 29.8211 89.5095 29.675C91.0447 29.5397 92.529 29.7622 93.986 30.2202C94.1464 30.2707 94.4012 30.4542 94.3902 30.5505C94.2938 31.3963 94.147 32.2363 94.0149 33.0793C93.396 32.8814 92.8567 32.6707 92.2989 32.5387C91.1929 32.2772 90.0772 32.1531 88.9637 32.5266C88.0694 32.8265 87.5082 33.4885 87.1626 34.3159C86.5535 35.7741 86.5455 37.3292 86.6382 38.8683C86.696 39.8285 86.8149 40.8053 87.3007 41.6791C87.8901 42.7395 88.8011 43.2635 89.9967 43.348C91.425 43.4489 92.7434 43.1007 93.9896 42.4235C94.0723 42.3785 94.1586 42.3403 94.3151 42.2638C94.4836 43.2007 94.6428 44.0859 94.8033 44.9785C94.0921 45.4443 93.3217 45.6853 92.5332 45.83C91.8013 45.9642 91.049 46.0808 90.3098 46.06C88.9671 46.0221 87.6395 45.8467 86.4591 45.0933C85.3944 44.4137 84.633 43.482 84.1522 42.329C83.6937 41.2291 83.5293 40.0648 83.4258 38.8764C83.2994 37.4231 83.4633 36.0102 83.7664 34.5699Z" fill="#878786"/>
<path d="M145 54.1083C145.706 53.325 146.479 52.6745 147.479 52.3767C148.033 52.2117 148.604 52.0644 149.177 52.0139C149.881 51.9519 150.601 51.9371 151.301 52.0152C152.134 52.1081 152.962 52.2872 153.776 52.4949C154.281 52.6238 154.329 52.8298 154.221 53.3579C154.085 54.0267 153.977 54.7012 153.853 55.3879C153.301 55.2061 152.766 54.9883 152.211 54.8562C151.243 54.6261 150.27 54.5093 149.266 54.7137C148.023 54.9667 147.306 55.7716 146.931 56.8941C146.71 57.5572 146.633 58.2747 146.543 58.9744C146.473 59.5205 146.44 60.0793 146.468 60.6284C146.525 61.735 146.604 62.8512 147.086 63.8724C147.521 64.7948 148.263 65.3952 149.266 65.5782C150.869 65.8708 152.377 65.5356 153.795 64.7535C153.871 64.7114 153.95 64.6726 154.029 64.6371C154.061 64.6227 154.099 64.6213 154.187 64.6032C154.333 65.4411 154.484 66.2688 154.611 67.1003C154.626 67.1966 154.53 67.3616 154.439 67.4143C153.611 67.8951 152.7 68.1441 151.758 68.2341C150.986 68.3078 150.202 68.3517 149.429 68.3093C147.133 68.1834 145.312 67.2122 144.225 65.111C143.702 64.0996 143.412 63.0001 143.361 61.8541C143.317 60.8857 143.24 59.9119 143.296 58.9474C143.398 57.1913 143.872 55.5413 145 54.1083Z" fill="#878786"/>
<path d="M112.492 32.8102C112.516 32.5229 112.335 32.5666 112.19 32.5664C111.182 32.5652 110.173 32.5658 109.165 32.5658C109.029 32.5658 108.893 32.5658 108.733 32.5658C108.733 31.656 108.733 30.7759 108.733 29.8643C112.258 29.8643 115.791 29.8643 119.423 29.8643C119.345 30.763 119.268 31.6584 119.19 32.5628C117.922 32.5628 116.751 32.5628 115.537 32.5628C115.537 36.9607 115.537 41.3413 115.537 45.7481C114.506 45.7481 113.519 45.7481 112.492 45.7481C112.492 41.4404 112.492 37.1434 112.492 32.8102Z" fill="#878786"/>
<path d="M89.4184 65.5112C89.4184 66.3812 89.4184 67.2133 89.4184 68.0686C88.4107 68.0686 87.433 68.0686 86.4128 68.0686C86.4128 63.6729 86.4128 59.2681 86.4128 54.8192C85.1325 54.8192 83.8932 54.8192 82.6323 54.8192C82.6323 53.9208 82.6323 53.0662 82.6323 52.1812C86.1593 52.1812 89.6918 52.1812 93.2945 52.1812C93.2705 52.6608 93.2526 53.1449 93.2198 53.6279C93.2004 53.9137 93.1315 54.198 93.1328 54.4828C93.134 54.7709 92.9955 54.8128 92.7568 54.811C91.7487 54.8033 90.7405 54.8078 89.7324 54.8078C89.6456 54.8078 89.5589 54.8078 89.4184 54.8078C89.4184 58.3783 89.4184 61.9258 89.4184 65.5112Z" fill="#878786"/>
<path d="M140.482 34.1598C140.482 37.1542 140.482 40.1106 140.482 43.1106C142.479 43.1106 144.449 43.1106 146.494 43.1106C146.442 43.829 146.399 44.4999 146.341 45.1693C146.324 45.3619 146.319 45.6511 146.206 45.7173C146.033 45.818 145.769 45.7725 145.545 45.7727C142.999 45.775 140.454 45.7741 137.909 45.7741C137.773 45.7741 137.637 45.7741 137.479 45.7741C137.479 40.4522 137.479 35.1627 137.479 29.853C138.471 29.853 139.449 29.853 140.482 29.853C140.482 31.2762 140.482 32.699 140.482 34.1598Z" fill="#878786"/>
<path d="M151.148 45.7745C150.433 45.7745 149.755 45.7745 149.054 45.7745C149.054 40.4546 149.054 35.1657 149.054 29.855C150.042 29.855 151.02 29.855 152.027 29.855C152.027 35.1397 152.027 40.4287 152.027 45.7745C151.753 45.7745 151.469 45.7745 151.148 45.7745Z" fill="#878786"/>
<path d="M119.073 15.3341C119.073 18.0753 119.073 20.7785 119.073 23.5071C118.086 23.5071 117.125 23.5071 116.143 23.5071C116.143 18.2155 116.143 12.9357 116.143 7.62354C117.097 7.62354 118.058 7.62354 119.073 7.62354C119.073 10.1752 119.073 12.7357 119.073 15.3341Z" fill="#878786"/>
<path d="M175.357 20.268C175.357 16.0348 175.357 11.8396 175.357 7.61768C176.342 7.61768 177.303 7.61768 178.286 7.61768C178.286 12.9144 178.286 18.2032 178.286 23.5121C177.318 23.5121 176.366 23.5121 175.357 23.5121C175.357 22.4433 175.357 21.3746 175.357 20.268Z" fill="#878786"/>
<path d="M130.044 27.4748C129.572 28.0255 129.117 28.5571 128.636 29.0647C128.55 29.1549 128.361 29.1729 128.219 29.1766C127.919 29.1845 127.618 29.1703 127.319 29.1475C126.877 29.1138 126.435 29.0647 125.942 29.0172C126.404 28.1981 126.832 27.4312 127.272 26.6708C127.305 26.6129 127.419 26.574 127.496 26.5735C128.463 26.567 129.429 26.5692 130.492 26.5692C130.324 26.9036 130.187 27.1755 130.044 27.4748Z" fill="#878786"/>
<path d="M43.3491 73.9426C40.5581 74.4045 37.7847 74.5132 34.9957 74.3367C31.7347 74.1304 28.562 73.4886 25.4776 72.4161C20.9613 70.8456 16.9038 68.4768 13.3016 65.3218C9.67826 62.1483 6.78456 58.4046 4.61579 54.1012C2.93968 50.7754 1.75785 47.2761 1.21899 43.5855C0.965992 41.8528 0.783713 40.0966 0.746891 38.3473C0.558737 29.4088 3.28996 21.4351 8.85341 14.4671C13.3732 8.8064 19.1094 4.85261 25.9649 2.54843C28.4909 1.69938 31.0856 1.15831 33.7391 0.897462C40.8791 0.195577 47.6539 1.4581 54.0567 4.70232C57.0774 6.23287 59.8302 8.15874 62.31 10.4708C67.7847 15.5753 71.4191 21.7676 73.1854 29.0568C74.0307 32.545 74.3366 36.0915 74.1166 39.6669C73.6129 47.8524 70.7291 55.1059 65.4489 61.3716C61.0083 66.6411 55.4971 70.3538 48.9835 72.561C47.1574 73.1798 45.2879 73.6384 43.3491 73.9426ZM68.1105 39.4632C68.1224 39.3376 68.1399 39.2122 68.1454 39.0863C68.2769 36.0764 68.0539 33.0929 67.2898 30.1773C64.7985 20.6713 59.1069 13.7943 50.2895 9.53062C48.1173 8.48024 45.8248 7.7671 43.4433 7.29954C43.4433 12.3866 43.4433 17.4539 43.4433 22.5631C48.5103 22.5631 53.5574 22.5631 58.6017 22.5631C58.6017 24.5589 58.6017 26.5125 58.6017 28.4952C53.5359 28.4952 48.4974 28.4952 43.4465 28.4952C43.4465 41.6092 43.4465 54.6939 43.4465 67.7829C55.7902 65.5308 67.1698 54.5522 68.1105 39.4632ZM7.68846 45.3074C7.70862 45.3933 7.7261 45.4799 7.74931 45.5649C8.99059 50.1139 11.1569 54.1666 14.2398 57.725C16.958 60.8624 20.1817 63.3502 23.8876 65.1999C27.6579 67.0818 31.6604 68.1146 35.8588 68.3829C36.4552 68.421 37.0561 68.3882 37.6575 68.3882C37.6575 58.6469 37.6575 48.9149 37.6575 39.2103C25.7865 38.7685 16.5358 33.6706 9.9483 23.7465C9.90414 23.8325 9.86274 23.9099 9.82411 23.9888C7.78342 28.152 6.75859 32.5575 6.69928 37.1927C6.66437 39.9213 6.99128 42.6066 7.68846 45.3074ZM35.5491 28.3771C34.8782 28.2752 34.1993 28.21 33.5377 28.0655C26.9439 26.6251 21.9798 22.9599 18.6918 17.0408C18.2124 16.1777 17.8344 15.2579 17.407 14.3591C17.3907 14.3673 17.35 14.3764 17.3257 14.4015C16.2118 15.5506 15.1037 16.7055 13.9824 17.8474C13.7803 18.0532 13.9041 18.2068 13.9894 18.3802C15.7962 22.0523 18.3003 25.1591 21.5219 27.6729C25.8776 31.0715 30.8304 32.8898 36.3268 33.2381C36.7737 33.2665 37.224 33.2419 37.7302 33.2419C37.7302 31.6355 37.7302 30.0635 37.7302 28.501C37.0243 28.461 36.3213 28.4213 35.5491 28.3771ZM23.3572 13.1904C26.4148 20.0598 33.2141 22.6985 37.6484 22.5041C37.6484 20.9439 37.6484 19.384 37.6484 17.861C31.8641 17.3479 28.2842 14.2889 26.8078 8.58293C25.4263 9.25536 24.0436 9.93295 22.6556 10.5995C22.4245 10.7105 22.5144 10.8754 22.5616 11.0121C22.808 11.7248 23.0703 12.4319 23.3572 13.1904ZM33.4379 9.52188C34.4505 10.9993 35.8347 11.7939 37.6431 11.872C37.6431 10.1222 37.6431 8.42215 37.6431 6.68584C35.9532 6.73208 34.2946 6.81254 32.6391 7.12667C32.7094 8.00419 32.9646 8.77007 33.4379 9.52188Z" fill="white"/>
<path d="M68.1097 39.4984C67.1699 54.552 55.7903 65.5306 43.4466 67.7826C43.4466 54.6937 43.4466 41.609 43.4466 28.495C48.4975 28.495 53.536 28.495 58.6017 28.495C58.6017 26.5123 58.6017 24.5586 58.6017 22.5629C53.5575 22.5629 48.5103 22.5629 43.4434 22.5629C43.4434 17.4537 43.4434 12.3863 43.4434 7.29932C45.8249 7.76688 48.1174 8.48001 50.2896 9.5304C59.107 13.794 64.7986 20.6711 67.2898 30.177C68.0539 33.0927 68.277 36.0761 68.1455 39.0861C68.14 39.212 68.1225 39.3373 68.1097 39.4984Z" fill="#FDC300"/>
<path d="M7.6757 45.279C6.9913 42.6067 6.66439 39.9214 6.6993 37.1928C6.75861 32.5576 7.78344 28.1521 9.82413 23.9889C9.86276 23.91 9.90416 23.8326 9.94832 23.7466C16.5358 33.6707 25.7865 38.7686 37.6575 39.2104C37.6575 48.915 37.6575 58.647 37.6575 68.3883C37.0561 68.3883 36.4552 68.4211 35.8589 68.383C31.6604 68.1147 27.6579 67.0819 23.8876 65.2C20.1817 63.3503 16.9581 60.8625 14.2399 57.7251C11.1569 54.1667 8.99061 50.114 7.74933 45.565C7.72612 45.48 7.70864 45.3934 7.6757 45.279Z" fill="#0077BA"/>
<path d="M35.5837 28.3791C36.3213 28.421 37.0243 28.4608 37.7303 28.5008C37.7303 30.0633 37.7303 31.6353 37.7303 33.2417C37.224 33.2417 36.7738 33.2662 36.3269 33.2379C30.8304 32.8896 25.8777 31.0713 21.5219 27.6727C18.3003 25.1589 15.7963 22.052 13.9895 18.38C13.9041 18.2066 13.7804 18.053 13.9825 17.8472C15.1037 16.7053 16.2118 15.5504 17.3258 14.4013C17.3501 14.3762 17.3907 14.3671 17.4071 14.3589C17.8345 15.2577 18.2124 16.1775 18.6919 17.0406C21.9799 22.9596 26.944 26.6249 33.5377 28.0652C34.1993 28.2098 34.8782 28.2749 35.5837 28.3791Z" fill="#0177BA"/>
<path d="M23.3418 13.1657C23.07 12.432 22.8077 11.7248 22.5613 11.0121C22.5141 10.8755 22.4242 10.7106 22.6553 10.5996C24.0433 9.93303 25.426 9.25543 26.8075 8.58301C28.2839 14.289 31.8638 17.348 37.6481 17.8611C37.6481 19.3841 37.6481 20.944 37.6481 22.5042C33.2138 22.6986 26.4145 20.0599 23.3418 13.1657Z" fill="#0177BA"/>
<path d="M33.4257 9.49726C32.9647 8.77026 32.7095 8.00438 32.6392 7.12686C34.2947 6.81273 35.9534 6.73227 37.6432 6.68604C37.6432 8.42234 37.6432 10.1224 37.6432 11.8722C35.8348 11.7941 34.4506 10.9995 33.4257 9.49726Z" fill="#0178BB"/>
</g>
</svg>
