<svg preserveAspectRatio="xMidYMid meet" width="100%" height="100%" overflow="hidden" style="display: block;" viewBox="0 0 41 24.8696" fill="none" xmlns="http://www.w3.org/2000/svg">
<g id="Ae">
<path id="path2199" d="M15.5354 18.5836H6.87507L5.10364 24.0783C5.05444 24.2915 4.87401 24.431 4.66079 24.4064H0.281419C0.0271863 24.4064 -0.0466233 24.2669 0.0271863 23.9881L7.52296 2.49312C7.59677 2.26349 7.66238 2.05027 7.75259 1.77143C7.8428 1.27937 7.89201 0.7709 7.89201 0.254233C7.8674 0.139418 7.96582 0.0246032 8.08063 0H14.1084C14.2724 0 14.3872 0.0738096 14.4119 0.188624L22.9082 24.0537C22.982 24.308 22.9082 24.4228 22.6785 24.4228H17.8153C17.6513 24.4474 17.4872 24.3326 17.4462 24.1685L15.5354 18.5836ZM8.22825 13.95H14.1412C14.0018 13.4579 13.8132 12.8757 13.6081 12.277C13.3949 11.6455 13.1899 10.973 12.9767 10.2759C12.747 9.55424 12.5338 8.85715 12.3042 8.13545C12.0745 7.41376 11.8613 6.74127 11.6727 6.06059C11.4841 5.4127 11.3201 4.80582 11.1642 4.24815H11.115C10.9018 5.24868 10.6476 6.24921 10.3195 7.24974C9.96688 8.36508 9.62243 9.52964 9.24518 10.6942C8.94174 11.8833 8.57269 12.9741 8.22005 13.95H8.22825Z" fill="var(--fill-0, #9999FF)"/>
<path id="path2201" d="M36.7272 16.4349H29.3463C29.4365 17.1566 29.6743 17.8783 30.068 18.5098C30.4862 19.1413 31.0685 19.6251 31.7656 19.904C32.7005 20.2976 33.7175 20.5109 34.7426 20.4863C35.5545 20.4617 36.3746 20.396 37.1619 20.232C37.8836 20.1418 38.5807 19.9532 39.2368 19.699C39.3516 19.6087 39.4254 19.6497 39.4254 19.8876V23.4468C39.4254 23.5371 39.4008 23.6355 39.3762 23.7257C39.327 23.7995 39.286 23.8405 39.2122 23.8897C38.4659 24.2177 37.695 24.4474 36.8831 24.5868C35.7923 24.8 34.6934 24.8902 33.578 24.8656C31.8066 24.8656 30.3222 24.5868 29.1085 24.0537C27.9685 23.5617 26.968 22.799 26.1725 21.8394C25.4262 20.9291 24.8931 19.904 24.5651 18.7886C24.237 17.6979 24.073 16.5497 24.073 15.3852C24.073 14.1304 24.2616 12.8921 24.6553 11.6865C25.0243 10.522 25.6066 9.44763 26.4021 8.4963C27.173 7.56138 28.1243 6.82329 29.2233 6.28202C30.314 5.74895 31.618 5.56032 33.1106 5.56032C34.3407 5.53572 35.5791 5.77355 36.719 6.28202C37.6704 6.70027 38.5151 7.33175 39.163 8.14366C39.7698 8.93916 40.2537 9.81667 40.5571 10.8008C40.8606 11.7357 41 12.687 41 13.6384C41 14.196 40.9754 14.6881 40.9508 15.131C40.9016 15.5738 40.877 15.9019 40.8606 16.1069C40.836 16.2709 40.6966 16.4103 40.5325 16.4103C40.3931 16.4103 40.1389 16.4349 39.7616 16.4595C39.3926 16.5087 38.9497 16.5333 38.4085 16.5333C37.8672 16.5333 37.3177 16.4431 36.7108 16.4431L36.7272 16.4349ZM29.3463 13.0397H34.2587C34.8656 13.0397 35.3085 13.0397 35.5873 13.0151C35.7759 12.9905 35.9563 12.9413 36.1204 12.8265V12.5968C36.1204 12.2934 36.0712 12.0146 35.9809 11.7357C35.5627 10.4318 34.3243 9.54604 32.9548 9.59525C31.6754 9.52144 30.4616 10.2021 29.8548 11.3667C29.5759 11.8997 29.4119 12.4574 29.3463 13.0397Z" fill="var(--fill-0, #9999FF)"/>
</g>
</svg>
