<svg preserveAspectRatio="xMidYMid meet" width="100%" height="100%" overflow="hidden" style="display: block;" viewBox="0 0 50 50" fill="none" xmlns="http://www.w3.org/2000/svg">
<g id="Adobe" clip-path="url(#clip0_0_10233)">
<path id="Vector" d="M25 50C38.8071 50 50 38.8071 50 25C50 11.1929 38.8071 0 25 0C11.1929 0 0 11.1929 0 25C0 38.8071 11.1929 50 25 50Z" fill="var(--fill-0, #F3F3F4)"/>
<g id="Group 2">
<path id="Vector_2" fill-rule="evenodd" clip-rule="evenodd" d="M24.6835 21.996C24.6835 21.996 31.1329 36.6769 31.1329 36.6636H26.9242C26.9242 36.6171 24.9295 31.883 24.9494 31.8631H20.4082C20.4481 31.8764 24.75 21.9495 24.6835 21.996Z" fill="var(--fill-0, #E20613)"/>
<path id="Vector_3" fill-rule="evenodd" clip-rule="evenodd" d="M11 13H20.867C20.867 13 11.0665 36.6636 11.0332 36.637C11.0332 36.6037 11.0133 12.9867 11 13Z" fill="var(--fill-0, #E20613)"/>
<path id="Vector_4" fill-rule="evenodd" clip-rule="evenodd" d="M28.3809 13H38.587C38.587 13.0599 38.5803 36.6835 38.5803 36.6503C38.5803 36.7234 28.3875 13 28.3875 13H28.3809Z" fill="var(--fill-0, #E20613)"/>
</g>
</g>
<defs>
<clipPath id="clip0_0_10233">
<rect width="50" height="50" fill="white"/>
</clipPath>
</defs>
</svg>
