<svg preserveAspectRatio="xMidYMid meet" width="100%" height="100%" overflow="hidden" style="display: block;" viewBox="0 0 50 50" fill="none" xmlns="http://www.w3.org/2000/svg">
<g id="AdobeFirefly" clip-path="url(#clip0_0_10218)">
<path id="Vector" d="M25 50C38.8071 50 50 38.8071 50 25C50 11.1929 38.8071 0 25 0C11.1929 0 0 11.1929 0 25C0 38.8071 11.1929 50 25 50Z" fill="var(--fill-0, #FFE8E6)"/>
<path id="Vector_2" d="M27.2939 32.9322C27.2939 33.1383 27.1277 33.3045 26.9215 33.3045C26.7154 33.3045 26.5492 33.1383 26.5492 32.9322C26.5492 32.7261 26.7154 32.5598 26.9215 32.5598C27.1277 32.5598 27.2939 32.7261 27.2939 32.9322ZM26.5492 33.8231C26.4428 33.8231 26.3431 33.8697 26.2633 33.9229C26.2766 33.8763 26.2899 33.8231 26.2899 33.7699C26.2899 33.5106 26.0771 33.2979 25.8178 33.2979C25.5585 33.2979 25.3457 33.5106 25.3457 33.7699C25.3457 34.0293 25.5585 34.242 25.8178 34.242C25.9176 34.242 25.9973 34.2088 26.0771 34.1556C26.0572 34.2088 26.0439 34.2686 26.0439 34.3285C26.0439 34.6077 26.2699 34.8338 26.5492 34.8338C26.8285 34.8338 27.0545 34.6077 27.0545 34.3285C27.0545 34.0492 26.8218 33.8231 26.5492 33.8231ZM25.6715 34.9535C25.6516 34.6476 25.4056 34.4082 25.0931 34.4082C25.0399 34.4082 24.9934 34.4282 24.9402 34.4348C25.0332 34.3351 25.0864 34.2088 25.0864 34.0692C25.0864 33.7633 24.8404 33.5173 24.5346 33.5173C24.2287 33.5173 23.9827 33.7633 23.9827 34.0692C23.9827 34.375 24.2287 34.621 24.5346 34.621C24.5811 34.621 24.6277 34.6077 24.6676 34.5944C24.5678 34.7008 24.508 34.8404 24.508 34.9934C24.508 35.2593 24.6875 35.4721 24.9335 35.5452C24.9335 35.5519 24.9335 35.5585 24.9335 35.5652C24.9335 35.9109 25.2128 36.1902 25.5585 36.1902C25.9043 36.1902 26.1835 35.9109 26.1835 35.5652C26.1835 35.2527 25.9641 35.0133 25.6715 34.9535ZM24.2154 35.5186C24.242 35.4455 24.262 35.3723 24.262 35.2926C24.262 34.9601 24.0093 34.6942 23.6835 34.6609C23.7633 34.5612 23.8165 34.4348 23.8165 34.2952C23.8165 34.0093 23.6104 33.7832 23.3444 33.7168C23.4707 33.617 23.5505 33.4641 23.5505 33.2912C23.5505 33.0785 23.4242 32.8989 23.2447 32.7992C23.5173 32.7859 23.7367 32.5665 23.7367 32.2872C23.7367 32.008 23.504 31.7753 23.2247 31.7753C22.9455 31.7753 22.7128 32.008 22.7128 32.2872C22.7128 32.4801 22.8192 32.6396 22.9787 32.7327C22.6729 32.7394 22.4335 32.9854 22.4335 33.2846C22.4335 33.5439 22.613 33.7567 22.859 33.8165C22.7194 33.9229 22.6197 34.0891 22.6197 34.2819C22.6197 34.5878 22.8524 34.8271 23.1383 34.867C23.0452 34.9801 22.9787 35.1197 22.9787 35.2726C22.9787 35.5785 23.1981 35.8245 23.4907 35.891C23.4442 35.984 23.4109 36.0904 23.4109 36.2101C23.4109 36.609 23.7301 36.9282 24.129 36.9282C24.5279 36.9282 24.8471 36.609 24.8471 36.2101C24.8471 35.8444 24.5745 35.5519 24.2221 35.5053L24.2154 35.5186ZM16.8418 31.0904C16.8418 31.3431 16.6955 31.5625 16.4894 31.6755C16.5226 31.6689 16.5625 31.6556 16.6024 31.6556C16.9814 31.6556 17.2872 31.9614 17.2872 32.3404C17.2872 32.4468 17.2606 32.5465 17.2074 32.6396C17.3271 32.5399 17.4801 32.4668 17.6463 32.4668C18.0186 32.4668 18.3178 32.766 18.3245 33.1317C18.3976 32.8524 18.637 32.6396 18.9428 32.6263C18.883 32.5332 18.8364 32.4269 18.8364 32.3005C18.8364 31.9681 19.109 31.6955 19.4415 31.6955C19.7739 31.6955 20.0465 31.9681 20.0465 32.3005C20.0465 32.613 19.8072 32.8524 19.508 32.8856C19.6011 33.0053 19.6609 33.1383 19.6609 33.2912C19.6609 33.4707 19.5878 33.6237 19.4814 33.75C19.6077 33.8697 19.6809 34.0293 19.6942 34.2088C19.7141 34.0359 19.7872 33.883 19.9136 33.7699C19.7739 33.6503 19.6809 33.484 19.6809 33.2912C19.6809 32.9521 19.9402 32.6862 20.266 32.6596C20.1795 32.5598 20.1263 32.4335 20.1263 32.2939C20.1263 32.0811 20.246 31.9082 20.4122 31.8019C20.1662 31.762 19.9734 31.5559 19.9734 31.2965C19.9734 31.0106 20.2061 30.7779 20.492 30.7779C20.7779 30.7779 21.0106 31.0106 21.0106 31.2965C21.0106 31.4761 20.9109 31.629 20.7713 31.7287C21.0572 31.762 21.2832 32.0013 21.2832 32.3005C21.2832 32.5997 21.0638 32.8192 20.7846 32.8657C20.891 32.9787 20.9574 33.1317 20.9574 33.2979C20.9574 33.4641 20.891 33.6237 20.7779 33.7367C20.9508 33.863 21.0705 34.0625 21.0705 34.2952C21.0705 34.4215 21.0239 34.5346 20.9707 34.641C21.2035 34.7739 21.363 35.0067 21.363 35.2926C21.363 35.3723 21.3431 35.4521 21.3165 35.5253C21.3963 35.5585 21.4694 35.6117 21.5293 35.6715C21.4561 35.5652 21.4029 35.4388 21.4029 35.2926C21.4029 35.1396 21.4628 35.0133 21.5426 34.9003C21.3032 34.8005 21.137 34.5745 21.137 34.2952C21.137 34.1024 21.2234 33.9295 21.3564 33.8165C21.1769 33.7168 21.0439 33.5239 21.0439 33.3045C21.0439 32.992 21.2899 32.7394 21.5957 32.7128C21.4827 32.613 21.4029 32.4668 21.4029 32.3072C21.4029 32.0811 21.5359 31.8883 21.7287 31.8085C21.7021 31.8085 21.6755 31.8285 21.6423 31.8285C21.3564 31.8285 21.1303 31.5957 21.1303 31.3165C21.1303 31.0372 21.363 30.8045 21.6423 30.8045C21.9215 30.8045 22.1543 31.0372 22.1543 31.3165C22.1543 31.5226 22.0279 31.7088 21.8484 31.7819C21.8817 31.7753 21.9082 31.762 21.9481 31.762C22.254 31.762 22.4934 32.008 22.4934 32.3072C22.4934 32.5864 22.2806 32.8125 22.008 32.8457C22.1476 32.9521 22.2407 33.1184 22.2407 33.3112C22.2407 33.4774 22.1742 33.6237 22.0678 33.7301C22.2806 33.8364 22.4269 34.0492 22.4269 34.3085C22.4269 34.4348 22.3803 34.5479 22.3205 34.6543C22.5997 34.7473 22.7992 35.0067 22.7992 35.3125C22.7992 35.3989 22.7793 35.4787 22.7527 35.5585C23.0851 35.6582 23.3311 35.9508 23.3311 36.3165C23.3311 36.7553 22.9721 37.1144 22.5332 37.1144C22.1476 37.1144 21.8484 36.8418 21.7686 36.4827C21.6888 36.875 21.363 37.1742 20.9441 37.1742C20.6117 37.1742 20.3258 36.9747 20.1862 36.6955C20.0465 37.0146 19.7274 37.234 19.3551 37.234C19.016 37.234 18.7367 37.0412 18.5771 36.7686C18.4176 37.0545 18.1184 37.2606 17.766 37.2606C17.4136 37.2606 17.141 37.0678 16.9747 36.7952C16.8085 37.0745 16.5226 37.2673 16.1769 37.2673C15.7779 37.2673 15.4388 37.0146 15.3059 36.6556C15.133 36.8218 14.9003 36.9282 14.641 36.9282C14.1223 36.9282 13.6968 36.5027 13.6968 35.984C13.6968 35.9442 13.7168 35.9043 13.7168 35.871C13.6237 35.9043 13.5173 35.9309 13.4109 35.9309C12.8923 35.9309 12.4734 35.512 12.4734 34.9934C12.4734 34.7872 12.5532 34.6144 12.6596 34.4614C12.1942 34.4149 11.8285 34.0426 11.8285 33.5705C11.8285 33.2114 12.0412 32.9056 12.3471 32.7593C12.0745 32.6064 11.8883 32.3271 11.8883 32.0013C11.8883 31.5226 12.2673 31.137 12.7394 31.1237C12.5864 30.9707 12.4934 30.758 12.4934 30.5253C12.4934 30.0532 12.879 29.6676 13.3511 29.6676C13.3644 29.6676 13.3777 29.6742 13.391 29.6742C13.2247 29.5213 13.1184 29.3085 13.1184 29.0625C13.1184 28.5971 13.4973 28.2181 13.9628 28.2181C13.996 28.2181 14.0226 28.2314 14.0625 28.238C13.8697 28.0851 13.7434 27.859 13.7434 27.5997C13.7434 27.141 14.1157 26.762 14.5811 26.762C14.6343 26.762 14.6809 26.7819 14.734 26.7952C14.5213 26.6423 14.375 26.4096 14.375 26.137C14.375 25.6848 14.7407 25.3192 15.1995 25.3192C15.2793 25.3192 15.3391 25.3457 15.4122 25.3657C15.1729 25.2261 15.0066 24.9734 15.0066 24.6809C15.0066 24.2287 15.3657 23.8697 15.8178 23.8697C15.9109 23.8697 15.9973 23.8963 16.0838 23.9229C15.8178 23.7899 15.6316 23.5306 15.6316 23.2181C15.6316 22.7793 15.9907 22.4202 16.4295 22.4202C16.6622 22.4202 16.8684 22.5266 17.0146 22.6862C17.1077 22.6463 17.2074 22.6197 17.3138 22.6197C17.5532 22.6197 17.7527 22.7394 17.8923 22.9122C17.9854 22.8657 18.0851 22.8324 18.1981 22.8324C18.4442 22.8324 18.6436 22.9654 18.7633 23.1582C18.8564 23.1051 18.9561 23.0652 19.0691 23.0652C19.3551 23.0652 19.5878 23.2646 19.6609 23.5306C19.7207 23.5106 19.7872 23.4907 19.8604 23.4907C20.1729 23.4907 20.4255 23.7434 20.4255 24.0559C20.4255 24.2221 20.3524 24.3684 20.2394 24.4681C20.2992 24.4415 20.3657 24.4282 20.4322 24.4282C20.7048 24.4282 20.9309 24.6476 20.9309 24.9269C20.9309 25.0598 20.8777 25.1862 20.7912 25.2726C20.871 25.2061 20.9707 25.1529 21.0838 25.1529C21.3298 25.1529 21.5293 25.3524 21.5293 25.5984C21.5293 25.8444 21.3298 26.0439 21.0838 26.0439C20.8378 26.0439 20.6383 25.8444 20.6383 25.5984C20.6383 25.4787 20.6848 25.3657 20.7646 25.2859C20.6782 25.3657 20.5585 25.4189 20.4322 25.4189C20.1596 25.4189 19.9335 25.1995 19.9335 24.9202C19.9335 24.7806 19.9867 24.6543 20.0798 24.5678C20.0133 24.5944 19.9402 24.6144 19.8604 24.6144C19.6144 24.6144 19.4082 24.4548 19.3351 24.2354C19.2553 24.2686 19.1689 24.2952 19.0691 24.2952C18.8697 24.2952 18.6968 24.1955 18.5838 24.0426C18.4774 24.1223 18.3444 24.1755 18.1981 24.1755C17.9987 24.1755 17.8324 24.0891 17.7061 23.9561C17.5931 24.0293 17.4668 24.0824 17.3205 24.0824C17.1277 24.0824 16.9548 24.0027 16.8218 23.883C16.7021 23.9495 16.5824 23.996 16.4362 23.996C16.3431 23.996 16.2566 23.9694 16.1702 23.9428C16.25 23.9761 16.3231 24.0293 16.3763 24.0824C16.4827 24.0226 16.5957 23.9827 16.7287 23.9827C16.9481 23.9827 17.1476 24.0824 17.2806 24.2354C17.387 24.1689 17.5067 24.1157 17.6396 24.1157C17.8657 24.1157 18.0585 24.2354 18.1848 24.4016C18.2846 24.3285 18.4043 24.2753 18.5439 24.2753C18.8165 24.2753 19.0359 24.4481 19.129 24.6809C19.2021 24.6476 19.2819 24.6277 19.3617 24.6277C19.6742 24.6277 19.9335 24.8803 19.9335 25.1995C19.9335 25.3192 19.887 25.4189 19.8338 25.5053C19.8803 25.492 19.9202 25.4787 19.9734 25.4787C20.2527 25.4787 20.4787 25.7048 20.4787 25.984C20.4787 26.0638 20.4588 26.137 20.4189 26.2035C20.4854 26.1636 20.5585 26.1303 20.6516 26.1303C20.8976 26.1303 21.1037 26.3298 21.1037 26.5824C21.1037 26.8351 20.9043 27.0346 20.6516 27.0346C20.3989 27.0346 20.1995 26.8351 20.1995 26.5824C20.1995 26.516 20.2128 26.4561 20.2394 26.4029C20.1596 26.4561 20.0731 26.4894 19.9734 26.4894C19.6942 26.4894 19.4681 26.2633 19.4681 25.984C19.4681 25.891 19.5013 25.8112 19.5479 25.7314C19.4947 25.7513 19.4348 25.7646 19.375 25.7646C19.1489 25.7646 18.9561 25.6316 18.863 25.4388C18.7699 25.492 18.6702 25.5319 18.5572 25.5319C18.3777 25.5319 18.2114 25.4521 18.0984 25.3258C17.9787 25.4255 17.8258 25.4987 17.6596 25.4987C17.4934 25.4987 17.3271 25.4255 17.2008 25.3192C17.0745 25.4189 16.9215 25.4854 16.742 25.4854C16.6423 25.4854 16.5426 25.4654 16.4561 25.4255C16.5426 25.4588 16.6157 25.512 16.6755 25.5785C16.7952 25.4854 16.9348 25.4255 17.0944 25.4255C17.3005 25.4255 17.4867 25.5186 17.613 25.6649C17.7261 25.5652 17.8657 25.4987 18.0319 25.4987C18.2846 25.4987 18.4973 25.6516 18.6037 25.8644C18.6902 25.8178 18.7766 25.7846 18.8763 25.7846C19.1955 25.7846 19.4481 26.0372 19.4481 26.3564C19.4481 26.4295 19.4282 26.496 19.4082 26.5625C19.4415 26.5559 19.4747 26.5426 19.5146 26.5426C19.7939 26.5426 20.0266 26.7753 20.0266 27.0545C20.0266 27.1011 20.0133 27.1476 20 27.1942C20.0665 27.1609 20.1396 27.1277 20.2194 27.1277C20.4654 27.1277 20.6715 27.3338 20.6715 27.5798C20.6715 27.8258 20.4654 28.0319 20.2194 28.0319C19.9734 28.0319 19.7673 27.8258 19.7673 27.5798C19.7673 27.5465 19.7806 27.5133 19.7872 27.4734C19.7074 27.5266 19.621 27.5598 19.5146 27.5598C19.2354 27.5598 19.0027 27.3271 19.0027 27.0479C19.0027 26.9947 19.016 26.9415 19.0359 26.8949C18.9827 26.9082 18.9362 26.9282 18.8763 26.9282C18.6702 26.9282 18.4907 26.8085 18.391 26.6423C18.2912 26.7154 18.1715 26.7686 18.0319 26.7686C17.8657 26.7686 17.7128 26.7021 17.5997 26.5957C17.5399 26.6622 17.4668 26.7154 17.387 26.7487C17.4269 26.742 17.4668 26.7221 17.5066 26.7221C17.746 26.7221 17.9388 26.8551 18.0519 27.0479C18.1449 26.9814 18.2513 26.9348 18.3777 26.9348C18.6968 26.9348 18.9561 27.1942 18.9561 27.5133C18.9561 27.5532 18.9428 27.5931 18.9362 27.633C18.9761 27.6263 19.016 27.613 19.0559 27.613C19.3418 27.613 19.5678 27.8457 19.5678 28.125C19.5678 28.1516 19.5545 28.1715 19.5545 28.1981C19.621 28.1582 19.6941 28.125 19.7872 28.125C20.0332 28.125 20.2394 28.3311 20.2394 28.5771C20.2394 28.8231 20.0332 29.0293 19.7872 29.0293C19.5412 29.0293 19.3351 28.8298 19.3351 28.5771C19.3351 28.5638 19.3418 28.5572 19.3418 28.5439C19.2553 28.6037 19.1689 28.6436 19.0559 28.6436C18.7699 28.6436 18.5439 28.4109 18.5439 28.1317C18.5439 28.1117 18.5572 28.0851 18.5572 28.0652C18.504 28.0851 18.4508 28.0984 18.391 28.0984C18.1981 28.0984 18.0386 27.9987 17.9322 27.8524C17.8191 27.9455 17.6795 28.012 17.5199 28.012C17.3604 28.012 17.2207 27.9521 17.1144 27.8524C17.0878 27.8856 17.0612 27.9255 17.0279 27.9521C17.234 27.9588 17.4136 28.0718 17.5266 28.2314C17.6263 28.1449 17.7593 28.0851 17.9056 28.0851C18.2314 28.0851 18.4907 28.3511 18.4907 28.6702C18.4907 28.6835 18.4907 28.6902 18.4907 28.6968C18.5306 28.6835 18.5705 28.6702 18.6104 28.6702C18.8963 28.6702 19.129 28.9029 19.129 29.1888C19.129 29.4747 18.8963 29.7074 18.6104 29.7074C18.3245 29.7074 18.1117 29.4947 18.0984 29.2221C18.0386 29.242 17.9721 29.262 17.9056 29.262C17.7327 29.262 17.5798 29.1822 17.4668 29.0559C17.3471 29.1755 17.1875 29.2487 17.0013 29.2487C16.8484 29.2487 16.7221 29.1888 16.609 29.1024C16.5957 29.129 16.5758 29.1556 16.5559 29.1755C16.7287 29.1955 16.8816 29.2819 16.988 29.4149C17.0944 29.3085 17.2473 29.2354 17.4136 29.2354C17.746 29.2354 18.012 29.508 18.012 29.8338C18.012 30.1596 17.7394 30.4322 17.4136 30.4322C17.2407 30.4322 17.0944 30.359 16.9814 30.246C16.8617 30.3989 16.6822 30.492 16.4761 30.492M16.5492 34.4947C16.6888 34.5878 16.8019 34.7141 16.8684 34.8737C16.8883 34.8404 16.9082 34.8072 16.9348 34.7739C16.8351 34.6476 16.7686 34.4947 16.762 34.3218C16.7088 34.3949 16.6356 34.4481 16.5559 34.4947H16.5492ZM18.1582 34.6875C18.238 34.7673 18.3045 34.8537 18.3511 34.9535C18.371 34.9136 18.3976 34.8803 18.4242 34.8471C18.3311 34.7606 18.2713 34.6476 18.2314 34.5279C18.2114 34.5878 18.1848 34.6343 18.1516 34.6875H18.1582ZM19.6809 34.3817C19.6676 34.4814 19.641 34.5811 19.5878 34.6676C19.7274 34.7806 19.8271 34.9335 19.8737 35.1197C19.8936 35.0332 19.9335 34.9535 19.9801 34.8803C19.8138 34.7673 19.7008 34.5944 19.6742 34.3817H19.6809ZM17.9987 33.7168C18.1051 33.8098 18.1915 33.9295 18.2314 34.0692C18.2779 33.9362 18.3511 33.8231 18.4508 33.7367C18.3577 33.6237 18.2912 33.484 18.2846 33.3178C18.238 33.484 18.1383 33.6237 17.992 33.7168H17.9987ZM16.5957 33.0253C16.3431 33.0253 16.1303 32.8856 16.0173 32.6795C16.0173 32.7061 16.0372 32.7327 16.0372 32.766C16.0372 32.8989 15.9973 33.012 15.9375 33.125C16.0173 33.0984 16.0971 33.0718 16.1835 33.0718C16.5957 33.0718 16.9282 33.3976 16.9415 33.8098C17.0013 33.7367 17.0745 33.6769 17.1609 33.6303C17.0346 33.504 16.9614 33.3378 16.9614 33.1516C16.9614 33.0452 16.988 32.9455 17.0412 32.8524C16.9215 32.9588 16.7686 33.0253 16.5957 33.0253ZM16.1569 31.7753C15.984 31.7753 15.8311 31.7088 15.7114 31.6024C15.6516 31.7819 15.5386 31.9215 15.3723 32.0213C15.6117 32.0545 15.8045 32.1942 15.9176 32.3936C15.9176 32.3737 15.9043 32.3604 15.9043 32.3404C15.9043 32.0878 16.0505 31.8684 16.2633 31.7553C16.2301 31.7686 16.1968 31.7819 16.1569 31.7819V31.7753ZM17.1011 26.7819C16.9415 26.7819 16.8085 26.7221 16.6888 26.629C16.6622 26.6556 16.6223 26.6755 16.5891 26.6955C16.762 26.7088 16.9215 26.7753 17.0479 26.8949C17.1077 26.8351 17.1742 26.7886 17.2473 26.7487C17.2008 26.762 17.1543 26.7753 17.1077 26.7753L17.1011 26.7819ZM16.4495 25.3856C16.3896 25.359 16.3431 25.3192 16.2899 25.2793C16.2633 25.2992 16.2367 25.3192 16.2035 25.3391C16.2899 25.3457 16.3763 25.359 16.4495 25.3923V25.3856ZM17.0612 22.4801C17.1809 22.4801 17.2806 22.4535 17.3803 22.4069C17.5133 22.5532 17.6995 22.6463 17.9122 22.6463C18.0319 22.6463 18.1449 22.613 18.2447 22.5532C18.371 22.7128 18.5505 22.8192 18.7633 22.8192C18.883 22.8192 18.996 22.7793 19.0891 22.7194C19.1955 22.8923 19.3816 23.012 19.6011 23.012C19.6809 23.012 19.7606 22.992 19.8271 22.9654C19.887 23.2114 20.0997 23.3976 20.359 23.3976C20.6449 23.3976 20.8777 23.1782 20.9043 22.8923C20.9707 23.0785 21.1436 23.2114 21.3564 23.2114C21.6223 23.2114 21.8418 22.9987 21.8418 22.7261C21.8418 22.4535 21.629 22.2407 21.3564 22.2407C21.1104 22.2407 20.9109 22.4335 20.8843 22.6729C20.8178 22.4468 20.6051 22.2806 20.359 22.2806C20.2992 22.2806 20.2527 22.3005 20.1928 22.3138C20.1463 22.0146 19.9069 21.7819 19.5944 21.7819C19.5013 21.7819 19.4215 21.8019 19.3418 21.8351C19.2287 21.6223 19.0093 21.4694 18.75 21.4694C18.6636 21.4694 18.5771 21.4894 18.4973 21.5226C18.3644 21.3231 18.1516 21.1835 17.8989 21.1835C17.8125 21.1835 17.7394 21.2035 17.6596 21.2301C17.5199 21.0372 17.3005 20.9043 17.0412 20.9043C16.609 20.9043 16.2567 21.2566 16.2567 21.6888C16.2567 22.1277 16.6157 22.4801 17.0479 22.4801H17.0612ZM17.6795 21.004C17.7726 21.004 17.859 20.984 17.9455 20.9508C18.0785 21.1237 18.2713 21.2434 18.5106 21.2434C18.6104 21.2434 18.7035 21.2234 18.7899 21.1902C18.9096 21.3697 19.1024 21.496 19.3351 21.496C19.4348 21.496 19.5213 21.4761 19.6077 21.4362C19.7074 21.6356 19.9136 21.7819 20.1463 21.7819C20.2128 21.7819 20.2726 21.762 20.3391 21.7487C20.3657 22.0279 20.5918 22.254 20.8843 22.254C21.1303 22.254 21.3298 22.0944 21.4029 21.8684C21.4827 22.0412 21.6489 22.1609 21.8484 22.1609C22.121 22.1609 22.3338 21.9415 22.3338 21.6755C22.3338 21.4096 22.1144 21.1902 21.8484 21.1902C21.6423 21.1902 21.4694 21.3165 21.3963 21.5027C21.3165 21.2965 21.117 21.1436 20.8843 21.1436C20.8378 21.1436 20.7979 21.1569 20.758 21.1702C20.7513 20.8444 20.4854 20.5785 20.1529 20.5785C20.0864 20.5785 20.0199 20.5984 19.9601 20.6184C19.867 20.3657 19.6277 20.1862 19.3418 20.1862C19.2753 20.1862 19.2154 20.2061 19.1556 20.2194C19.0359 19.9801 18.8032 19.8205 18.5173 19.8205C18.4574 19.8205 18.3976 19.8404 18.3444 19.8537C18.2114 19.6277 17.9721 19.4681 17.6928 19.4681C17.2673 19.4681 16.9215 19.8138 16.9215 20.2394C16.9215 20.6582 17.2739 21.004 17.6995 21.004H17.6795ZM18.2912 19.5279C18.3577 19.5279 18.4242 19.508 18.4907 19.488C18.617 19.6941 18.8364 19.8471 19.0957 19.8471C19.1689 19.8471 19.2354 19.8271 19.3019 19.8072C19.4082 20.0266 19.6277 20.1795 19.887 20.1795C19.9668 20.1795 20.0399 20.1596 20.1064 20.133C20.1862 20.3657 20.4056 20.5386 20.6715 20.5386C20.7247 20.5386 20.7779 20.5186 20.8311 20.5053C20.8311 20.512 20.8311 20.5186 20.8311 20.5253C20.8311 20.8311 21.0771 21.0771 21.383 21.0771C21.5957 21.0771 21.7686 20.9508 21.8617 20.7846C21.9348 20.9641 22.1077 21.0904 22.3138 21.0904C22.5864 21.0904 22.8059 20.871 22.8059 20.5984C22.8059 20.3258 22.5864 20.1064 22.3138 20.1064C22.1343 20.1064 21.9814 20.2061 21.8949 20.3524C21.8218 20.133 21.6223 19.9734 21.383 19.9734C21.3431 19.9734 21.3032 19.9867 21.2633 19.9934C21.2633 19.9734 21.2766 19.9535 21.2766 19.9269C21.2766 19.5944 21.004 19.3218 20.6715 19.3218C20.6184 19.3218 20.5652 19.3418 20.512 19.3551C20.4388 19.0692 20.1928 18.8564 19.887 18.8564C19.8404 18.8564 19.8005 18.8763 19.754 18.883C19.6543 18.6104 19.4016 18.4176 19.0957 18.4176C19.0559 18.4176 19.0226 18.4309 18.9894 18.4375C18.8697 18.1782 18.6104 17.992 18.3045 17.992C17.8856 17.992 17.5465 18.3311 17.5465 18.75C17.5399 19.1755 17.879 19.5146 18.2979 19.5146L18.2912 19.5279ZM18.9096 18.0519C18.9561 18.0519 18.996 18.0319 19.0359 18.0253C19.1423 18.2713 19.3883 18.4441 19.6742 18.4441C19.7274 18.4441 19.7806 18.4242 19.8338 18.4109C19.9202 18.6636 20.1529 18.8497 20.4388 18.8497C20.4987 18.8497 20.5585 18.8298 20.6184 18.8165C20.6715 19.0891 20.9043 19.2952 21.1902 19.2952C21.2434 19.2952 21.2899 19.2753 21.3431 19.2686C21.3364 19.3019 21.3231 19.3351 21.3231 19.3684C21.3231 19.6742 21.5691 19.9136 21.8684 19.9136C22.0479 19.9136 22.2074 19.8138 22.3072 19.6742C22.3737 19.8737 22.5532 20.0133 22.766 20.0133C23.0386 20.0133 23.258 19.7939 23.258 19.5213C23.258 19.2487 23.0386 19.0293 22.766 19.0293C22.6064 19.0293 22.4734 19.109 22.3803 19.2221C22.3205 18.9894 22.1144 18.8165 21.8617 18.8165C21.8218 18.8165 21.7886 18.8298 21.7553 18.8364C21.7686 18.7899 21.7819 18.7434 21.7819 18.6968C21.7819 18.371 21.516 18.1051 21.1902 18.1051C21.1503 18.1051 21.1104 18.1184 21.0705 18.1317C21.0306 17.8125 20.7713 17.5598 20.4388 17.5598C20.4056 17.5598 20.379 17.5731 20.3457 17.5798C20.2726 17.2739 20.0133 17.0412 19.6809 17.0412C19.6543 17.0412 19.6343 17.0545 19.6144 17.0545C19.5146 16.762 19.242 16.5492 18.9162 16.5492C18.504 16.5492 18.1649 16.8883 18.1649 17.3005C18.1649 17.7128 18.4973 18.0519 18.9096 18.0519ZM19.5213 16.5691C19.5213 16.5691 19.5811 16.5559 19.6144 16.5492C19.7008 16.8285 19.9535 17.0412 20.266 17.0412C20.3059 17.0412 20.3457 17.0213 20.3856 17.0146C20.4455 17.3072 20.6915 17.5266 20.9973 17.5266C21.0439 17.5266 21.0904 17.5066 21.1303 17.5C21.1503 17.8059 21.4029 18.0519 21.7088 18.0519C21.762 18.0519 21.8085 18.0319 21.8551 18.0253C21.8351 18.0785 21.8218 18.1449 21.8218 18.2048C21.8218 18.504 22.0612 18.75 22.3604 18.75C22.5731 18.75 22.7527 18.6237 22.8391 18.4441C22.8391 18.4641 22.8258 18.484 22.8258 18.504C22.8258 18.7766 23.0452 18.996 23.3178 18.996C23.5904 18.996 23.8098 18.7766 23.8098 18.504C23.8098 18.2314 23.5904 18.0053 23.3178 18.0053C23.125 18.0053 22.9588 18.1184 22.879 18.2779C22.879 18.2513 22.8923 18.2247 22.8923 18.1981C22.8923 17.8989 22.6529 17.6596 22.3537 17.6596C22.3205 17.6596 22.2872 17.6729 22.2473 17.6795C22.2739 17.613 22.2939 17.5399 22.2939 17.4601C22.2939 17.1343 22.0279 16.875 21.7088 16.875C21.6822 16.875 21.6556 16.8883 21.629 16.8949C21.629 16.5359 21.3431 16.25 20.9907 16.25C20.9707 16.25 20.9508 16.2633 20.9309 16.2633C20.8843 15.9242 20.6117 15.6582 20.2593 15.6582C20.246 15.6582 20.2394 15.6649 20.2261 15.6649C20.1463 15.3391 19.8737 15.0864 19.5213 15.0864C19.1157 15.0864 18.7832 15.4122 18.7832 15.8245C18.7832 16.2367 19.1157 16.5625 19.5213 16.5625V16.5691ZM20.1463 15.0997C20.1463 15.0997 20.1995 15.0864 20.2261 15.0798C20.2793 15.4056 20.5452 15.6649 20.8843 15.6649C20.9309 15.6649 20.9641 15.6449 21.0106 15.6383C21.0106 15.984 21.2965 16.2633 21.6423 16.2633C21.7088 16.2633 21.7753 16.2434 21.8418 16.2234C21.8351 16.2566 21.8218 16.2965 21.8218 16.3298C21.8218 16.6556 22.0878 16.9215 22.4136 16.9215C22.5133 16.9215 22.5997 16.8949 22.6795 16.8484C22.5997 16.9415 22.5532 17.0545 22.5532 17.1875C22.5532 17.4934 22.7992 17.7327 23.0984 17.7327C23.3976 17.7327 23.6436 17.4867 23.6436 17.1875C23.6436 16.8883 23.3976 16.6423 23.0984 16.6423C23.012 16.6423 22.9322 16.6622 22.859 16.7021C22.9455 16.6024 22.9987 16.4761 22.9987 16.3364C22.9987 16.0106 22.7327 15.7447 22.4069 15.7447C22.3471 15.7447 22.3005 15.7646 22.2473 15.7779C22.2606 15.7314 22.2739 15.6848 22.2739 15.6316C22.2739 15.2793 21.988 14.9934 21.6356 14.9934C21.609 14.9934 21.5824 15.0066 21.5559 15.0133C21.5559 15 21.5625 14.9934 21.5625 14.9867C21.5625 14.6077 21.2566 14.3085 20.8843 14.3085C20.871 14.3085 20.8644 14.3152 20.8511 14.3152C20.8178 13.9495 20.5186 13.6569 20.1396 13.6569C19.7407 13.6569 19.4149 13.9827 19.4149 14.3816C19.4149 14.7806 19.7407 15.0997 20.1396 15.0997H20.1463ZM21.0505 13.7832C21.0971 13.7832 21.1436 13.7633 21.1835 13.7567C21.1835 13.7766 21.1702 13.8032 21.1702 13.8231C21.1702 14.1955 21.4761 14.5013 21.8484 14.5013C21.9215 14.5013 21.988 14.4814 22.0545 14.4614C22.0346 14.5213 22.0213 14.5811 22.0213 14.641C22.0213 14.9934 22.3072 15.2793 22.6596 15.2793C22.7992 15.2793 22.9322 15.2261 23.0386 15.1463C22.9455 15.2527 22.879 15.3923 22.879 15.5452C22.879 15.8843 23.1516 16.1503 23.484 16.1503C23.8165 16.1503 24.0891 15.8777 24.0891 15.5452C24.0891 15.2128 23.8165 14.9402 23.484 14.9402C23.3511 14.9402 23.2314 14.9934 23.1317 15.0665C23.2314 14.9535 23.2979 14.8072 23.2979 14.641C23.2979 14.2886 23.012 14.0027 22.6596 14.0027C22.5997 14.0027 22.5399 14.0226 22.4867 14.0359C22.5066 13.9694 22.5332 13.8963 22.5332 13.8231C22.5332 13.4508 22.2274 13.1449 21.8551 13.1449C21.8218 13.1449 21.7886 13.1582 21.7487 13.1649C21.7487 13.1316 21.7686 13.1051 21.7686 13.0652C21.7686 12.6729 21.4495 12.3537 21.0572 12.3537C20.6649 12.3537 20.3457 12.6729 20.3457 13.0652C20.3457 13.4574 20.6649 13.7766 21.0572 13.7766L21.0505 13.7832ZM22.2872 12.7793C22.367 12.7793 22.4402 12.7593 22.5133 12.7327C22.4734 12.8191 22.4468 12.9122 22.4468 13.012C22.4468 13.3843 22.746 13.6835 23.1184 13.6835C23.4907 13.6835 23.7899 13.3843 23.7899 13.012C23.7899 12.6396 23.4907 12.3404 23.1184 12.3404C23.0452 12.3404 22.9787 12.3604 22.9122 12.387C22.9588 12.2939 22.992 12.1941 22.992 12.0811C22.992 11.6955 22.6795 11.383 22.2939 11.383C21.9082 11.383 21.5957 11.6955 21.5957 12.0811C21.5957 12.4668 21.9082 12.7726 22.2939 12.7726L22.2872 12.7793ZM23.7434 12.1543C24.1223 12.1543 24.4282 11.8484 24.4282 11.4694C24.4282 11.0904 24.1223 10.7846 23.7434 10.7846C23.3644 10.7846 23.0585 11.0904 23.0585 11.4694C23.0585 11.8484 23.3644 12.1543 23.7434 12.1543ZM25.3192 11.9681C25.6915 11.9681 25.9973 11.6622 25.9973 11.2899C25.9973 10.9176 25.6915 10.6117 25.3192 10.6117C24.9468 10.6117 24.641 10.9176 24.641 11.2899C24.641 11.6622 24.9468 11.9681 25.3192 11.9681ZM26.8817 12.234C27.2473 12.234 27.5399 11.9415 27.5399 11.5758C27.5399 11.2101 27.2473 10.9176 26.8817 10.9176C26.516 10.9176 26.2234 11.2101 26.2234 11.5758C26.2234 11.9415 26.516 12.234 26.8817 12.234ZM28.863 13.5239C28.8032 13.504 28.7367 13.484 28.6702 13.484C28.3112 13.484 28.012 13.7766 28.012 14.1423C28.012 14.2354 28.0319 14.3152 28.0652 14.3949C28.0186 14.3816 27.9721 14.3684 27.9255 14.3684C27.5665 14.3684 27.2673 14.6609 27.2673 15.0266C27.2673 15.1662 27.3205 15.2859 27.3936 15.3856C27.3471 15.379 27.3138 15.359 27.2673 15.359C26.9082 15.359 26.6157 15.6516 26.6157 16.0106C26.6157 16.1702 26.6822 16.3165 26.7819 16.4295C26.7287 16.4096 26.6689 16.3963 26.609 16.3963C26.2633 16.3963 25.9907 16.6755 25.9907 17.0146C25.9907 17.3537 26.2699 17.633 26.609 17.633C26.9481 17.633 27.2274 17.3537 27.2274 17.0146C27.2274 16.8617 27.1676 16.7287 27.0745 16.6157C27.1343 16.6356 27.1941 16.6489 27.2673 16.6489C27.6263 16.6489 27.9189 16.3564 27.9189 15.9973C27.9189 15.8644 27.8657 15.7447 27.7992 15.6383C27.8457 15.6516 27.8856 15.6649 27.9322 15.6649C28.2912 15.6649 28.5904 15.3723 28.5904 15.0066C28.5904 14.9136 28.5705 14.8271 28.5372 14.754C28.5838 14.7673 28.6303 14.7806 28.6769 14.7806C29.0359 14.7806 29.3351 14.488 29.3351 14.1223C29.3351 14.0559 29.3152 13.9894 29.2952 13.9229C29.3551 13.9428 29.4149 13.9561 29.4747 13.9561C29.8271 13.9561 30.113 13.6702 30.113 13.3178C30.113 12.9654 29.8271 12.6795 29.4747 12.6795C29.1223 12.6795 28.8364 12.9654 28.8364 13.3178C28.8364 13.3976 28.8564 13.4508 28.8697 13.5106L28.863 13.5239ZM35.3324 27.8723C35.3324 28.1516 35.5585 28.3777 35.8378 28.3777C36.117 28.3777 36.3431 28.1516 36.3431 27.8723C36.3431 27.5931 36.117 27.367 35.8378 27.367C35.5585 27.367 35.3324 27.5997 35.3324 27.8723ZM35.9707 29.3351C35.9707 29.6077 36.1902 29.8271 36.4628 29.8271C36.7354 29.8271 36.9548 29.6077 36.9548 29.3351C36.9548 29.0625 36.7354 28.8431 36.4628 28.8431C36.1902 28.8431 35.9707 29.0625 35.9707 29.3351ZM36.609 30.7979C36.609 31.0572 36.8152 31.2633 37.0745 31.2633C37.3338 31.2633 37.5399 31.0572 37.5399 30.7979C37.5399 30.5386 37.3338 30.3324 37.0745 30.3324C36.8152 30.3324 36.609 30.5386 36.609 30.7979ZM37.2141 32.2806C37.2141 32.5266 37.4136 32.7327 37.6662 32.7327C37.9189 32.7327 38.1184 32.5332 38.1184 32.2806C38.1184 32.0279 37.9189 31.8285 37.6662 31.8285C37.4202 31.8285 37.2141 32.0279 37.2141 32.2806ZM37.7128 33.4242C37.4734 33.4242 37.2806 33.617 37.2806 33.8564C37.2806 34.0957 37.4734 34.2886 37.7128 34.2886C37.9521 34.2886 38.1449 34.0957 38.1449 33.8564C38.1449 33.617 37.9521 33.4242 37.7128 33.4242ZM37.0612 34.8737C36.8351 34.8737 36.6489 35.0532 36.6489 35.2859C36.6489 35.5186 36.8285 35.6981 37.0612 35.6981C37.2939 35.6981 37.4734 35.5186 37.4734 35.2859C37.4734 35.0532 37.2872 34.8737 37.0612 34.8737ZM35.9508 35.9907C35.738 35.9907 35.5585 36.1636 35.5585 36.383C35.5585 36.6024 35.7314 36.7753 35.9508 36.7753C36.1702 36.7753 36.3431 36.6024 36.3431 36.383C36.3431 36.1636 36.1702 35.9907 35.9508 35.9907ZM34.6942 36.3231C34.4415 36.3231 34.2354 36.5293 34.2354 36.7819C34.2354 37.0346 34.4415 37.2407 34.6942 37.2407C34.9468 37.2407 35.1529 37.0346 35.1529 36.7819C35.1529 36.5293 34.9535 36.3231 34.6942 36.3231ZM23.9029 12.6197C23.9029 12.9854 24.2021 13.2846 24.5678 13.2846C24.9335 13.2846 25.2327 12.9854 25.2327 12.6197C25.2327 12.254 24.9335 11.9548 24.5678 11.9548C24.2021 11.9548 23.9029 12.254 23.9029 12.6197ZM25.4122 12.6928C25.4122 13.0585 25.7048 13.3577 26.0771 13.3577C26.4495 13.3577 26.742 13.0652 26.742 12.6928C26.742 12.3205 26.4495 12.0279 26.0771 12.0279C25.7048 12.0279 25.4122 12.3205 25.4122 12.6928ZM27.4801 12.5532C27.1144 12.5532 26.8218 12.8457 26.8218 13.2114C26.8218 13.3777 26.8883 13.5306 26.9947 13.6436C26.9149 13.6104 26.8285 13.5904 26.742 13.5904C26.383 13.5904 26.0904 13.883 26.0904 14.242C26.0904 14.6011 26.383 14.8936 26.742 14.8936C27.1011 14.8936 27.3936 14.6011 27.3936 14.242C27.3936 14.0758 27.3271 13.9295 27.2274 13.8165C27.3072 13.8497 27.3936 13.8697 27.4934 13.8697C27.859 13.8697 28.1516 13.5771 28.1516 13.2114C28.1516 13.0785 28.0984 12.9588 28.0319 12.8524C28.1184 12.8923 28.2048 12.9189 28.3112 12.9189C28.6702 12.9189 28.9628 12.6263 28.9628 12.2673C28.9628 11.9082 28.6702 11.6157 28.3112 11.6157C27.9521 11.6157 27.6596 11.9082 27.6596 12.2673C27.6596 12.4003 27.7128 12.5133 27.7793 12.6197C27.6862 12.5731 27.5997 12.5465 27.4934 12.5465L27.4801 12.5532ZM35.359 28.7832C35.0798 28.7832 34.8537 29.0093 34.8537 29.2886C34.8537 29.5678 35.0798 29.7939 35.359 29.7939C35.6383 29.7939 35.8644 29.5678 35.8644 29.2886C35.8644 29.0093 35.6449 28.7832 35.359 28.7832ZM36.4295 30.6782C36.4295 30.4122 36.2168 30.1995 35.9508 30.1995C35.6848 30.1995 35.4721 30.4122 35.4721 30.6782C35.4721 30.9442 35.6848 31.1569 35.9508 31.1569C36.2168 31.1569 36.4295 30.9442 36.4295 30.6782ZM36.9947 32.0678C36.9947 31.8152 36.7886 31.609 36.5359 31.609C36.2832 31.609 36.0771 31.8152 36.0771 32.0678C36.0771 32.3205 36.2832 32.5266 36.5359 32.5266C36.7886 32.5266 36.9947 32.3205 36.9947 32.0678ZM36.9016 33.9628C37.141 33.9628 37.3404 33.7633 37.3404 33.5239C37.3404 33.2846 37.141 33.0851 36.9016 33.0851C36.6622 33.0851 36.4628 33.2846 36.4628 33.5239C36.4628 33.7633 36.6556 33.9628 36.9016 33.9628ZM24.5944 14.0426C24.5944 13.6902 24.3085 13.3976 23.9495 13.3976C23.5904 13.3976 23.3045 13.6835 23.3045 14.0426C23.3045 14.4016 23.5904 14.6875 23.9495 14.6875C24.3019 14.6875 24.5944 14.4016 24.5944 14.0426ZM25.359 13.258C25 13.258 24.7074 13.5505 24.7074 13.9096C24.7074 14.2686 24.9934 14.5545 25.359 14.5545C25.7247 14.5545 26.0106 14.262 26.0106 13.9096C26.0106 13.5572 25.7181 13.258 25.359 13.258ZM34.3484 30.6117C34.3484 30.8843 34.5678 31.1104 34.8471 31.1104C35.1263 31.1104 35.3457 30.891 35.3457 30.6117C35.3457 30.3324 35.1263 30.113 34.8471 30.113C34.5678 30.113 34.3484 30.3324 34.3484 30.6117ZM34.9269 31.9282C34.9269 32.1875 35.1396 32.4003 35.3989 32.4003C35.6582 32.4003 35.871 32.1875 35.871 31.9282C35.871 31.6689 35.6582 31.4561 35.3989 31.4561C35.1396 31.4561 34.9269 31.6689 34.9269 31.9282ZM36.3497 33.258C36.3497 33.012 36.1503 32.8059 35.8976 32.8059C35.6449 32.8059 35.4455 33.0053 35.4455 33.258C35.4455 33.5106 35.6449 33.7101 35.8976 33.7101C36.1503 33.7101 36.3497 33.5106 36.3497 33.258ZM36.3231 34.2886C36.0904 34.2886 35.8976 34.4814 35.8976 34.7141C35.8976 34.9468 36.0904 35.1396 36.3231 35.1396C36.5559 35.1396 36.7487 34.9468 36.7487 34.7141C36.7487 34.4814 36.5625 34.2886 36.3231 34.2886ZM25.5253 33.3644C25.7779 33.3644 25.984 33.1582 25.984 32.9056C25.984 32.6529 25.7779 32.4468 25.5253 32.4468C25.2726 32.4468 25.0665 32.6529 25.0665 32.9056C25.0665 33.1582 25.2726 33.3644 25.5253 33.3644ZM24.375 33.484C24.6609 33.484 24.887 33.2513 24.887 32.9721C24.887 32.6928 24.6543 32.4601 24.375 32.4601C24.0957 32.4601 23.863 32.6928 23.863 32.9721C23.863 33.2513 24.0957 33.484 24.375 33.484ZM24.7739 15.8245C25.1197 15.8245 25.3923 15.5452 25.3923 15.2061C25.3923 14.867 25.113 14.5878 24.7739 14.5878C24.4348 14.5878 24.1556 14.867 24.1556 15.2061C24.1556 15.5452 24.4348 15.8245 24.7739 15.8245ZM26.7287 15.3657C26.7287 15.0133 26.4428 14.7274 26.0904 14.7274C25.738 14.7274 25.4521 15.0133 25.4521 15.3657C25.4521 15.7181 25.738 16.004 26.0904 16.004C26.4428 16.004 26.7287 15.7247 26.7287 15.3657ZM33.7832 30.1396C33.504 30.1396 33.2779 30.3657 33.2779 30.6449C33.2779 30.9242 33.504 31.1503 33.7832 31.1503C34.0625 31.1503 34.2886 30.9242 34.2886 30.6449C34.2886 30.3657 34.0625 30.1396 33.7832 30.1396ZM33.8231 31.8817C33.8231 32.1476 34.0359 32.3604 34.3019 32.3604C34.5678 32.3604 34.7806 32.1476 34.7806 31.8817C34.7806 31.6157 34.5678 31.4029 34.3019 31.4029C34.0359 31.4029 33.8231 31.6223 33.8231 31.8817ZM35.2726 33.1184C35.2726 32.8657 35.0665 32.6596 34.8138 32.6596C34.5612 32.6596 34.3551 32.8657 34.3551 33.1184C34.3551 33.371 34.5612 33.5771 34.8138 33.5771C35.0665 33.5771 35.2726 33.371 35.2726 33.1184ZM35.4588 34.8072C35.6981 34.8072 35.891 34.6144 35.891 34.3817C35.891 34.1489 35.6981 33.9495 35.4588 33.9495C35.2194 33.9495 35.0266 34.1423 35.0266 34.3817C35.0266 34.621 35.2194 34.8072 35.4588 34.8072ZM35.9574 35.5918C35.9574 35.3723 35.7779 35.1928 35.5585 35.1928C35.3391 35.1928 35.1596 35.3723 35.1596 35.5918C35.1596 35.8112 35.3391 35.9907 35.5585 35.9907C35.7779 35.9907 35.9574 35.8112 35.9574 35.5918ZM25.2793 31.9348C25.2793 31.6689 25.0665 31.4561 24.8005 31.4561C24.5346 31.4561 24.3218 31.6689 24.3218 31.9348C24.3218 32.2008 24.5346 32.4136 24.8005 32.4136C25.0665 32.4136 25.2793 32.2008 25.2793 31.9348ZM18.2247 32.613C18.5572 32.613 18.8298 32.3404 18.8298 32.008C18.8298 31.6755 18.5572 31.4029 18.2247 31.4029C17.8923 31.4029 17.6197 31.6755 17.6197 32.008C17.6197 32.3404 17.8856 32.613 18.2247 32.613ZM18.0452 31.0439C18.0452 30.7048 17.7726 30.4388 17.4402 30.4388C17.1077 30.4388 16.8351 30.7114 16.8351 31.0439C16.8351 31.3763 17.1077 31.6489 17.4402 31.6489C17.7726 31.6489 18.0452 31.3763 18.0452 31.0439ZM23.6237 16.6024C23.6237 16.9215 23.8763 17.1742 24.1955 17.1742C24.5146 17.1742 24.7673 16.9215 24.7673 16.6024C24.7673 16.2832 24.5146 16.0306 24.1955 16.0306C23.8763 16.0306 23.6237 16.2832 23.6237 16.6024ZM24.8537 16.5359C24.8537 16.8617 25.1197 17.1343 25.4521 17.1343C25.7846 17.1343 26.0505 16.8684 26.0505 16.5359C26.0505 16.2035 25.7846 15.9375 25.4521 15.9375C25.1263 15.9375 24.8537 16.2101 24.8537 16.5359ZM32.7593 31.9348C32.7593 32.2074 32.9787 32.4269 33.2513 32.4269C33.5239 32.4269 33.7434 32.2074 33.7434 31.9348C33.7434 31.6622 33.5239 31.4428 33.2513 31.4428C32.9787 31.4428 32.7593 31.6622 32.7593 31.9348ZM34.1955 33.0984C34.1955 32.8457 33.9894 32.633 33.7301 32.633C33.4707 32.633 33.2646 32.8391 33.2646 33.0984C33.2646 33.3577 33.4707 33.5638 33.7301 33.5638C33.9894 33.5638 34.1955 33.3577 34.1955 33.0984ZM34.4947 33.7832C34.2553 33.7832 34.0625 33.9761 34.0625 34.2154C34.0625 34.4548 34.2553 34.6476 34.4947 34.6476C34.734 34.6476 34.9269 34.4548 34.9269 34.2154C34.9269 33.9761 34.734 33.7832 34.4947 33.7832ZM34.6343 34.8803C34.4149 34.8803 34.2287 35.0598 34.2287 35.2859C34.2287 35.512 34.4082 35.6915 34.6343 35.6915C34.8604 35.6915 35.0399 35.512 35.0399 35.2859C35.0399 35.0598 34.8604 34.8803 34.6343 34.8803ZM26.4495 32.1809C26.4495 31.9614 26.2699 31.7819 26.0505 31.7819C25.8311 31.7819 25.6449 31.9614 25.6449 32.1809C25.6449 32.4003 25.8245 32.5798 26.0505 32.5798C26.2699 32.5798 26.4495 32.4003 26.4495 32.1809ZM25.0931 31.2301C25.0931 31.4694 25.2859 31.6622 25.5253 31.6622C25.7646 31.6622 25.9574 31.4694 25.9574 31.2301C25.9574 30.9907 25.7646 30.7979 25.5253 30.7979C25.2859 30.7979 25.0931 30.9907 25.0931 31.2301ZM23.9894 31.7753C24.242 31.7753 24.4481 31.5691 24.4481 31.3165C24.4481 31.0638 24.242 30.8577 23.9894 30.8577C23.7367 30.8577 23.5306 31.0638 23.5306 31.3165C23.5306 31.5691 23.7367 31.7753 23.9894 31.7753ZM22.8258 31.7886C23.0918 31.7886 23.3112 31.5692 23.3112 31.3032C23.3112 31.0372 23.0918 30.8178 22.8258 30.8178C22.5598 30.8178 22.3404 31.0372 22.3404 31.3032C22.3404 31.5692 22.5532 31.7886 22.8258 31.7886ZM19.3418 31.6689C19.6277 31.6689 19.8604 31.4362 19.8604 31.1503C19.8604 30.8644 19.6277 30.6317 19.3418 30.6317C19.0559 30.6317 18.8231 30.8644 18.8231 31.1503C18.8231 31.4362 19.0559 31.6689 19.3418 31.6689ZM19.0957 30.2992C19.0957 30.0133 18.863 29.7806 18.5771 29.7806C18.2912 29.7806 18.0585 30.0133 18.0585 30.2992C18.0585 30.5851 18.2912 30.8178 18.5771 30.8178C18.863 30.8178 19.0957 30.5851 19.0957 30.2992ZM21.3963 23.8098C21.3963 23.5372 21.1769 23.3178 20.9043 23.3178C20.6317 23.3178 20.4122 23.5372 20.4122 23.8098C20.4122 24.0824 20.6317 24.3019 20.9043 24.3019C21.1702 24.3019 21.3963 24.0891 21.3963 23.8098ZM24.2952 18.4109C24.5811 18.4109 24.8205 18.1782 24.8205 17.8856C24.8205 17.5931 24.5878 17.3604 24.2952 17.3604C24.0027 17.3604 23.7699 17.5931 23.7699 17.8856C23.7699 18.1782 24.0093 18.4109 24.2952 18.4109ZM25.4521 17.3072C25.1463 17.3072 24.8936 17.5532 24.8936 17.8657C24.8936 18.1782 25.1396 18.4242 25.4521 18.4242C25.7646 18.4242 26.0106 18.1782 26.0106 17.8657C26.0106 17.5532 25.758 17.3072 25.4521 17.3072ZM32.367 31.8883C32.0944 31.8883 31.8684 32.1077 31.8684 32.387C31.8684 32.6662 32.0878 32.8856 32.367 32.8856C32.6463 32.8856 32.8657 32.6662 32.8657 32.387C32.8657 32.1077 32.6463 31.8883 32.367 31.8883ZM32.8059 33.9295C33.0652 33.9295 33.2713 33.7234 33.2713 33.4641C33.2713 33.2048 33.0652 32.9987 32.8059 32.9987C32.5465 32.9987 32.3404 33.2048 32.3404 33.4641C32.3404 33.7234 32.5532 33.9295 32.8059 33.9295ZM33.9628 34.4681C33.9628 34.2287 33.7633 34.0293 33.5239 34.0293C33.2846 34.0293 33.0851 34.2287 33.0851 34.4681C33.0851 34.7074 33.2846 34.9069 33.5239 34.9069C33.7699 34.9069 33.9628 34.7074 33.9628 34.4681ZM33.7301 35.2859C33.5106 35.2859 33.3245 35.4654 33.3245 35.6915C33.3245 35.9176 33.504 36.0971 33.7301 36.0971C33.9561 36.0971 34.1356 35.9176 34.1356 35.6915C34.1356 35.4654 33.9561 35.2859 33.7301 35.2859ZM24.8604 30.1064C24.6277 30.1064 24.4415 30.2926 24.4415 30.5253C24.4415 30.758 24.6277 30.9442 24.8604 30.9442C25.0931 30.9442 25.2793 30.758 25.2793 30.5253C25.2793 30.2926 25.0931 30.1064 24.8604 30.1064ZM23.7965 30.7513C24.0359 30.7513 24.2287 30.5585 24.2287 30.3191C24.2287 30.0798 24.0359 29.887 23.7965 29.887C23.5572 29.887 23.3644 30.0798 23.3644 30.3191C23.3644 30.5585 23.5572 30.7513 23.7965 30.7513ZM22.7061 30.7513C22.9521 30.7513 23.1582 30.5519 23.1582 30.2992C23.1582 30.0465 22.9588 29.8471 22.7061 29.8471C22.4535 29.8471 22.254 30.0465 22.254 30.2992C22.254 30.5519 22.4535 30.7513 22.7061 30.7513ZM21.6157 30.758C21.8617 30.758 22.0678 30.5585 22.0678 30.3059C22.0678 30.0532 21.8617 29.8537 21.6157 29.8537C21.3697 29.8537 21.1636 30.0598 21.1636 30.3059C21.1636 30.5519 21.3697 30.758 21.6157 30.758ZM20.5253 30.7247C20.7713 30.7247 20.9774 30.5253 20.9774 30.2726C20.9774 30.0199 20.7713 29.8205 20.5253 29.8205C20.2793 29.8205 20.0731 30.0199 20.0731 30.2726C20.0731 30.5253 20.2793 30.7247 20.5253 30.7247ZM20.1795 29.5944C20.1795 29.3418 19.9734 29.1423 19.7274 29.1423C19.4814 29.1423 19.2753 29.3418 19.2753 29.5944C19.2753 29.8471 19.4814 30.0465 19.7274 30.0465C19.9734 30.0465 20.1795 29.8471 20.1795 29.5944ZM21.5293 25C21.7686 25 21.9681 24.8005 21.9681 24.5612C21.9681 24.3218 21.7686 24.1223 21.5293 24.1223C21.2899 24.1223 21.0904 24.3218 21.0904 24.5612C21.0904 24.8005 21.2832 25 21.5293 25ZM21.5359 23.5572C21.5359 23.7965 21.7287 23.9894 21.9681 23.9894C22.2074 23.9894 22.4003 23.7965 22.4003 23.5572C22.4003 23.3178 22.2074 23.125 21.9681 23.125C21.7287 23.125 21.5359 23.3178 21.5359 23.5572ZM21.9747 22.5665C21.9747 22.8059 22.1676 22.9987 22.4069 22.9987C22.6463 22.9987 22.8391 22.8059 22.8391 22.5665C22.8391 22.3271 22.6463 22.1343 22.4069 22.1343C22.1676 22.1343 21.9747 22.3271 21.9747 22.5665ZM22.4003 21.5691C22.4003 21.8085 22.5997 22.008 22.8391 22.008C23.0785 22.008 23.2779 21.8085 23.2779 21.5691C23.2779 21.3298 23.0785 21.1303 22.8391 21.1303C22.5997 21.1303 22.4003 21.3298 22.4003 21.5691ZM22.8324 20.5718C22.8324 20.8178 23.0319 21.0106 23.2713 21.0106C23.5106 21.0106 23.7101 20.8112 23.7101 20.5718C23.7101 20.3324 23.5106 20.133 23.2713 20.133C23.0319 20.133 22.8324 20.3324 22.8324 20.5718ZM23.3245 19.6011C23.3245 19.8471 23.5239 20.0532 23.7766 20.0532C24.0293 20.0532 24.2287 19.8537 24.2287 19.6011C24.2287 19.3484 24.0293 19.1489 23.7766 19.1489C23.5239 19.1489 23.3245 19.3484 23.3245 19.6011ZM25.1862 19.109C25.1862 18.8497 24.9801 18.6436 24.7207 18.6436C24.4614 18.6436 24.2553 18.8497 24.2553 19.109C24.2553 19.3684 24.4614 19.5745 24.7207 19.5745C24.9801 19.5745 25.1862 19.3684 25.1862 19.109ZM26.2567 19.3816C26.2567 19.1024 26.0239 18.8697 25.7447 18.8697C25.4654 18.8697 25.2327 19.1024 25.2327 19.3816C25.2327 19.6609 25.4654 19.8936 25.7447 19.8936C26.0239 19.8936 26.2567 19.6676 26.2567 19.3816ZM32.3803 35.1529C32.3803 35.3923 32.5798 35.5918 32.8192 35.5918C33.0585 35.5918 33.258 35.3923 33.258 35.1529C33.258 34.9136 33.0585 34.7141 32.8192 34.7141C32.5798 34.7141 32.3803 34.9069 32.3803 35.1529ZM26.762 32.1543C26.9614 32.1543 27.121 31.9947 27.121 31.7952C27.121 31.5957 26.9614 31.4362 26.762 31.4362C26.5625 31.4362 26.4029 31.5957 26.4029 31.7952C26.4029 31.9947 26.5625 32.1543 26.762 32.1543ZM26.3298 30.5253C26.137 30.5253 25.9774 30.6848 25.9774 30.8777C25.9774 31.0705 26.137 31.2301 26.3298 31.2301C26.5226 31.2301 26.6822 31.0705 26.6822 30.8777C26.6822 30.6848 26.5226 30.5253 26.3298 30.5253ZM25.6582 29.7806C25.4721 29.7806 25.3192 29.9335 25.3192 30.1197C25.3192 30.3059 25.4721 30.4588 25.6582 30.4588C25.8444 30.4588 25.9973 30.3059 25.9973 30.1197C25.9973 29.9335 25.8444 29.7806 25.6582 29.7806ZM24.8005 29.9136C24.9801 29.9136 25.1263 29.7673 25.1263 29.5878C25.1263 29.4082 24.9801 29.262 24.8005 29.262C24.621 29.262 24.4747 29.4082 24.4747 29.5878C24.4747 29.7673 24.621 29.9136 24.8005 29.9136ZM23.8231 29.6476C24.0027 29.6476 24.1489 29.5013 24.1489 29.3218C24.1489 29.1423 24.0027 28.996 23.8231 28.996C23.6436 28.996 23.4973 29.1423 23.4973 29.3218C23.4973 29.5013 23.6436 29.6476 23.8231 29.6476ZM22.4801 29.3019C22.4801 29.4814 22.6263 29.6277 22.8059 29.6277C22.9854 29.6277 23.1317 29.4814 23.1317 29.3019C23.1317 29.1223 22.9854 28.9761 22.8059 28.9761C22.6263 28.9761 22.4801 29.1223 22.4801 29.3019ZM21.7952 28.9827C21.6157 28.9827 21.4694 29.129 21.4694 29.3085C21.4694 29.488 21.6157 29.6343 21.7952 29.6343C21.9747 29.6343 22.121 29.488 22.121 29.3085C22.121 29.129 21.9747 28.9827 21.7952 28.9827ZM21.2367 28.9362C21.2367 28.7567 21.0904 28.6104 20.9109 28.6104C20.7314 28.6104 20.5851 28.7567 20.5851 28.9362C20.5851 29.1157 20.7314 29.262 20.9109 29.262C21.0904 29.262 21.2367 29.109 21.2367 28.9362ZM20.6317 27.9787C20.6317 28.1582 20.7779 28.3045 20.9574 28.3045C21.137 28.3045 21.2832 28.1582 21.2832 27.9787C21.2832 27.7992 21.137 27.6529 20.9574 27.6529C20.7779 27.6529 20.6317 27.7992 20.6317 27.9787ZM21.7021 27.0479C21.7021 26.8684 21.5492 26.7154 21.3697 26.7154C21.1902 26.7154 21.0372 26.8684 21.0372 27.0479C21.0372 27.2274 21.1902 27.3803 21.3697 27.3803C21.5492 27.3803 21.7021 27.2274 21.7021 27.0479ZM21.7819 25.7779C21.5891 25.7779 21.4362 25.9309 21.4362 26.1237C21.4362 26.3165 21.5891 26.4694 21.7819 26.4694C21.9747 26.4694 22.1277 26.3165 22.1277 26.1237C22.1277 25.9309 21.9747 25.7779 21.7819 25.7779ZM22.5465 25.1928C22.5465 25 22.387 24.8404 22.1942 24.8404C22.0013 24.8404 21.8418 25 21.8418 25.1928C21.8418 25.3856 22.0013 25.5452 22.1942 25.5452C22.387 25.5452 22.5465 25.3856 22.5465 25.1928ZM22.6064 23.9029C22.4069 23.9029 22.2473 24.0692 22.2473 24.262C22.2473 24.4548 22.4136 24.621 22.6064 24.621C22.7992 24.621 22.9654 24.4614 22.9654 24.262C22.9654 24.0625 22.8059 23.9029 22.6064 23.9029ZM23.0186 22.9654C22.8125 22.9654 22.6463 23.1316 22.6463 23.3378C22.6463 23.5439 22.8125 23.7101 23.0186 23.7101C23.2247 23.7101 23.391 23.5439 23.391 23.3378C23.391 23.1316 23.2247 22.9654 23.0186 22.9654ZM23.8165 22.4202C23.8165 22.2074 23.6436 22.0346 23.4309 22.0346C23.2181 22.0346 23.0452 22.2074 23.0452 22.4202C23.0452 22.633 23.2181 22.8059 23.4309 22.8059C23.6436 22.8059 23.8165 22.633 23.8165 22.4202ZM23.8497 21.0904C23.6303 21.0904 23.4574 21.2633 23.4574 21.4827C23.4574 21.7021 23.6303 21.875 23.8497 21.875C24.0691 21.875 24.242 21.7021 24.242 21.4827C24.242 21.2633 24.0625 21.0904 23.8497 21.0904ZM24.7207 20.5984C24.7207 20.379 24.5412 20.1928 24.3152 20.1928C24.0891 20.1928 23.9096 20.3723 23.9096 20.5984C23.9096 20.8245 24.0891 21.004 24.3152 21.004C24.5412 21.004 24.7207 20.8245 24.7207 20.5984ZM25.6782 20.5253C25.6782 20.2926 25.4854 20.0997 25.2527 20.0997C25.0199 20.0997 24.8271 20.2926 24.8271 20.5253C24.8271 20.758 25.0199 20.9508 25.2527 20.9508C25.4854 20.9508 25.6782 20.758 25.6782 20.5253ZM32.8856 36.0904C32.8856 36.3697 32.6596 36.5957 32.3803 36.5957C32.1011 36.5957 31.875 36.3697 31.875 36.0904C31.875 36.0239 31.8883 35.9574 31.9149 35.891C31.8285 35.9442 31.742 35.9774 31.6356 35.9774C31.3231 35.9774 31.0705 35.7247 31.0705 35.4122C31.0705 35.3125 31.1037 35.2261 31.1503 35.1396C31.137 35.1396 31.1303 35.1463 31.117 35.1463C30.7846 35.1463 30.512 34.8737 30.512 34.5412C30.512 34.4215 30.5585 34.3085 30.6184 34.2154C30.3258 34.1622 30.0931 33.9096 30.0931 33.5971C30.0931 33.4907 30.1263 33.391 30.1795 33.2979C29.8936 33.2181 29.6742 32.9721 29.6742 32.6529C29.6742 32.5532 29.7008 32.4535 29.7407 32.3737C29.4681 32.2806 29.2686 32.0213 29.2686 31.7154C29.2686 31.6157 29.2886 31.5226 29.3285 31.4362C29.0625 31.3298 28.8763 31.0771 28.8763 30.7713C28.8763 30.6782 28.8963 30.5918 28.9295 30.5053C28.6636 30.3989 28.4774 30.1396 28.4774 29.8338C28.4774 29.7407 28.4973 29.6543 28.5306 29.5745C28.2646 29.4548 28.0785 29.1955 28.0785 28.8896C28.0785 28.7965 28.0984 28.7168 28.1317 28.637C27.8657 28.5173 27.6862 28.258 27.6862 27.9521C27.6862 27.859 27.7061 27.7793 27.7394 27.6995C27.4801 27.5731 27.3005 27.3138 27.3005 27.008C27.3005 26.9149 27.3205 26.8218 27.3537 26.7354C27.1077 26.609 26.9282 26.363 26.9282 26.0705C26.9282 25.9641 26.9548 25.8644 26.9947 25.7646C26.7553 25.6449 26.5891 25.4122 26.5891 25.1263C26.5891 25 26.629 24.887 26.6888 24.7872C26.4495 24.6941 26.2699 24.4614 26.2699 24.1822C26.2699 24.0359 26.3298 23.9096 26.4096 23.7965C26.1503 23.7367 25.9508 23.5173 25.9508 23.238C25.9508 23.0652 26.0306 22.9189 26.1436 22.8125C25.8644 22.8125 25.6383 22.5798 25.6383 22.3005C25.6383 22.0213 25.871 21.7886 26.1503 21.7886C26.3364 21.7886 26.496 21.8949 26.5824 22.0412C26.609 21.9614 26.6489 21.9016 26.7088 21.8418C26.4761 21.8218 26.2832 21.6689 26.2101 21.4561C26.1636 21.6622 25.9907 21.8218 25.7713 21.8218C25.5186 21.8218 25.3125 21.6157 25.3125 21.363C25.3125 21.1104 25.5186 20.9043 25.7713 20.9043C25.9574 20.9043 26.117 21.0173 26.1902 21.1769C26.2101 21.0173 26.2899 20.891 26.4096 20.7912C26.3896 20.7912 26.3763 20.8045 26.3564 20.8045C26.0505 20.8045 25.8045 20.5585 25.8045 20.2527C25.8045 19.9468 26.0505 19.7008 26.3564 19.7008C26.4162 19.7008 26.4761 19.7207 26.5226 19.734C26.4628 19.641 26.4229 19.5346 26.4229 19.4149C26.4229 19.242 26.4894 19.0891 26.6024 18.9761C26.5559 18.9894 26.516 19.0027 26.4628 19.0027C26.137 19.0027 25.871 18.7367 25.871 18.4109C25.871 18.0851 26.137 17.8191 26.4628 17.8191C26.5957 17.8191 26.7088 17.8723 26.8152 17.9455C26.8152 17.9388 26.8152 17.9322 26.8152 17.9322C26.8152 17.5731 27.1011 17.2872 27.4601 17.2872C27.4867 17.2872 27.5067 17.3005 27.5266 17.3005C27.4867 17.2141 27.4601 17.121 27.4601 17.0213C27.4601 16.6556 27.7527 16.363 28.1184 16.363C28.1383 16.363 28.1582 16.3763 28.1782 16.3763C28.1516 16.2965 28.1317 16.2168 28.1317 16.137C28.1317 15.7713 28.4242 15.4787 28.7899 15.4787C28.8231 15.4787 28.8564 15.492 28.8963 15.4987C28.883 15.4521 28.8697 15.4122 28.8697 15.3657C28.8697 15.0067 29.1622 14.7141 29.5213 14.7141C29.5745 14.7141 29.621 14.734 29.6742 14.7407C29.6742 14.7207 29.6609 14.7074 29.6609 14.6809C29.6609 14.3351 29.9402 14.0559 30.2859 14.0559C30.6316 14.0559 30.9109 14.3351 30.9109 14.6809C30.9109 15.0266 30.6316 15.3059 30.2859 15.3059C30.2394 15.3059 30.1995 15.2859 30.1529 15.2793C30.1529 15.3059 30.1662 15.3324 30.1662 15.359C30.1662 15.7181 29.8737 16.0106 29.5146 16.0106C29.4814 16.0106 29.4481 15.9973 29.4149 15.9907C29.4282 16.0372 29.4415 16.0838 29.4415 16.137C29.4415 16.5027 29.1489 16.7952 28.7832 16.7952C28.7633 16.7952 28.7434 16.7819 28.7234 16.7819C28.75 16.8551 28.7699 16.9348 28.7699 17.0213C28.7699 17.0745 28.75 17.121 28.7434 17.1742C28.8431 16.9415 29.0758 16.7753 29.3551 16.7753C29.4016 16.7753 29.4348 16.7952 29.4747 16.8019C29.4747 16.7819 29.4614 16.7686 29.4614 16.7487C29.4614 16.3896 29.7473 16.1037 30.1064 16.1037C30.1729 16.1037 30.2327 16.1237 30.2859 16.137C30.2859 15.8045 30.5585 15.5253 30.8976 15.5253C31.2367 15.5253 31.5093 15.7979 31.5093 16.137C31.5093 16.4761 31.2367 16.7487 30.8976 16.7487C30.8444 16.7487 30.7979 16.7287 30.7447 16.7221C30.7447 16.7287 30.7447 16.7354 30.7447 16.742C30.7447 17.1011 30.4588 17.387 30.0997 17.387C30.0665 17.387 30.0332 17.3737 29.9934 17.367C29.9934 17.3936 30.0067 17.4136 30.0067 17.4335C30.0067 17.7992 29.7074 18.0984 29.3418 18.0984C29.3218 18.0984 29.2952 18.0851 29.2753 18.0851C29.2886 18.1383 29.3085 18.1848 29.3085 18.2447C29.3085 18.5106 29.1556 18.7301 28.9295 18.8364C28.996 18.8165 29.0692 18.7899 29.1423 18.7899C29.1689 18.7899 29.1955 18.8032 29.2287 18.8098C29.2287 18.7899 29.2154 18.7633 29.2154 18.7434C29.2154 18.3777 29.5146 18.0718 29.887 18.0718C29.9402 18.0718 29.9867 18.0918 30.0399 18.1051C30.0532 17.7593 30.3258 17.4867 30.6782 17.4867C30.7646 17.4867 30.8444 17.5067 30.9176 17.5332C30.9441 17.2274 31.1968 16.988 31.5027 16.988C31.8351 16.988 32.1077 17.2606 32.1077 17.5931C32.1077 17.9255 31.8351 18.1981 31.5027 18.1981C31.4362 18.1981 31.3697 18.1782 31.3098 18.1582C31.2965 18.4973 31.0173 18.7699 30.6782 18.7699C30.6316 18.7699 30.5984 18.7567 30.5585 18.7434C30.5585 19.1223 30.2593 19.4215 29.887 19.4215C29.8604 19.4215 29.8404 19.4082 29.8138 19.4082C29.8138 19.4348 29.8271 19.4614 29.8271 19.488C29.8271 19.7407 29.6875 19.9468 29.4814 20.0665C29.5346 20.0532 29.5878 20.0332 29.6543 20.0332C29.7008 20.0332 29.7407 20.0532 29.7806 20.0598C29.7872 19.7008 30.0731 19.4149 30.4322 19.4149C30.512 19.4149 30.5785 19.4348 30.6449 19.4614C30.6782 19.1489 30.9309 18.9096 31.2566 18.9096C31.363 18.9096 31.4561 18.9428 31.5426 18.9894C31.5824 18.7035 31.8218 18.484 32.1144 18.484C32.4402 18.484 32.6995 18.75 32.6995 19.0692C32.6995 19.3883 32.4335 19.6543 32.1144 19.6543C32.0213 19.6543 31.9415 19.6277 31.8617 19.5944C31.8285 19.9069 31.5758 20.1463 31.25 20.1463C31.1902 20.1463 31.1303 20.1263 31.0771 20.113C31.0572 20.4521 30.7779 20.7247 30.4255 20.7247C30.3923 20.7247 30.3657 20.7114 30.3391 20.7048C30.3391 20.7114 30.3391 20.7181 30.3391 20.7181C30.3391 20.984 30.1795 21.2101 29.9601 21.3231C30.0266 21.3032 30.0864 21.2832 30.1596 21.2832C30.2261 21.2832 30.2859 21.3032 30.3457 21.3165C30.3723 20.9907 30.6383 20.7314 30.9707 20.7314C31.0705 20.7314 31.1636 20.758 31.2434 20.7979C31.2965 20.512 31.5293 20.2926 31.8285 20.2926C31.9548 20.2926 32.0678 20.3391 32.1676 20.4122C32.2207 20.1463 32.4402 19.9402 32.7194 19.9402C33.0386 19.9402 33.2979 20.1995 33.2979 20.5186C33.2979 20.8378 33.0386 21.0971 32.7194 21.0971C32.6064 21.0971 32.5066 21.0505 32.4136 20.9973C32.367 21.2899 32.1277 21.516 31.8218 21.516C31.7354 21.516 31.6556 21.496 31.5824 21.4628C31.5359 21.7686 31.2832 22.008 30.9641 22.008C30.9109 22.008 30.8644 21.988 30.8112 21.9814C30.7912 22.3338 30.5053 22.6197 30.1463 22.6197C30.113 22.6197 30.0864 22.6064 30.0532 22.5997C30.0465 22.7726 29.9734 22.9322 29.867 23.0519C29.9269 23.0519 29.9801 23.0718 30.0332 23.0851C30.0864 22.7793 30.3391 22.5399 30.6582 22.5399C30.7447 22.5399 30.8311 22.5598 30.9043 22.5931C30.9508 22.3005 31.1968 22.0745 31.5027 22.0745C31.6223 22.0745 31.7354 22.121 31.8285 22.1809C31.8883 21.9149 32.1144 21.7088 32.4003 21.7088C32.5532 21.7088 32.6862 21.7686 32.7926 21.8617C32.8524 21.6157 33.0652 21.4229 33.3311 21.4229C33.6436 21.4229 33.8963 21.6755 33.8963 21.988C33.8963 22.3005 33.6436 22.5532 33.3311 22.5532C33.1915 22.5532 33.0718 22.5 32.9721 22.4136C32.9189 22.6862 32.6928 22.8923 32.4003 22.8923C32.2939 22.8923 32.1942 22.8524 32.1077 22.7992C32.0545 23.0851 31.8152 23.3112 31.5093 23.3112C31.4295 23.3112 31.3564 23.2912 31.2965 23.2646C31.2566 23.5838 30.9907 23.8364 30.6649 23.8364C30.6117 23.8364 30.5652 23.8165 30.512 23.8098C30.492 23.9761 30.4322 24.1223 30.3191 24.2354C30.4122 24.2354 30.4987 24.2553 30.5718 24.2886C30.6383 24.016 30.8777 23.8098 31.1702 23.8098C31.2832 23.8098 31.383 23.8431 31.4761 23.9029C31.5293 23.6237 31.762 23.4176 32.0545 23.4176C32.2008 23.4176 32.3271 23.4774 32.4335 23.5638C32.4934 23.3178 32.7128 23.125 32.9787 23.125C33.1516 23.125 33.3045 23.2114 33.4109 23.3311C33.4707 23.0918 33.6769 22.9056 33.9362 22.9056C34.242 22.9056 34.488 23.1516 34.488 23.4574C34.488 23.7633 34.242 24.0093 33.9362 24.0093C33.7699 24.0093 33.6303 23.9295 33.5306 23.8165C33.4707 24.0758 33.2513 24.2753 32.9787 24.2753C32.8457 24.2753 32.7261 24.2221 32.6263 24.1423C32.5665 24.4149 32.3404 24.6144 32.0479 24.6144C31.9481 24.6144 31.8551 24.5811 31.7686 24.5346C31.7154 24.8271 31.4761 25.0532 31.1636 25.0532C31.0904 25.0532 31.0239 25.0332 30.9574 25.0133C30.9309 25.1928 30.8311 25.3391 30.6915 25.4455C30.7247 25.4455 30.7513 25.4255 30.7846 25.4255C30.9043 25.4255 31.004 25.4654 31.1037 25.5186C31.1702 25.2527 31.3963 25.0598 31.6822 25.0598C31.8218 25.0598 31.9415 25.113 32.0412 25.1928C32.1011 24.9335 32.3205 24.7407 32.5997 24.7407C32.7726 24.7407 32.9255 24.8205 33.0319 24.9402C33.0984 24.7008 33.3045 24.5213 33.5638 24.5213C33.7699 24.5213 33.9428 24.641 34.0426 24.8072C34.0957 24.5612 34.3019 24.375 34.5612 24.375C34.8604 24.375 35.0997 24.6144 35.0997 24.9136C35.0997 25.2128 34.8604 25.4521 34.5612 25.4521C34.3617 25.4521 34.2021 25.3457 34.1024 25.1862C34.0492 25.4455 33.8364 25.6449 33.5638 25.6449C33.3976 25.6449 33.258 25.5718 33.1582 25.4654C33.0918 25.7181 32.879 25.9043 32.6064 25.9043C32.4801 25.9043 32.367 25.8511 32.2673 25.7846C32.2074 26.0572 31.9814 26.2699 31.6888 26.2699C31.5891 26.2699 31.5027 26.2434 31.4162 26.2035C31.3564 26.496 31.1037 26.7221 30.7979 26.7221C30.7713 26.7221 30.7513 26.7088 30.7247 26.7088C30.7513 26.7753 30.7646 26.8484 30.7713 26.9282C30.8777 26.7553 31.0638 26.629 31.2832 26.629C31.4229 26.629 31.5492 26.6822 31.6489 26.762C31.7154 26.5093 31.9282 26.3231 32.2008 26.3231C32.367 26.3231 32.5133 26.3896 32.6197 26.5027C32.6795 26.2567 32.8923 26.0771 33.1582 26.0771C33.3644 26.0771 33.5372 26.1968 33.6303 26.3564C33.6835 26.117 33.8963 25.9309 34.1489 25.9309C34.4016 25.9309 34.6011 26.0971 34.6609 26.3231C34.6942 26.0638 34.9069 25.8577 35.1729 25.8577C35.4654 25.8577 35.6981 26.0971 35.6981 26.383C35.6981 26.6689 35.4588 26.9082 35.1729 26.9082C34.9402 26.9082 34.7473 26.7487 34.6809 26.5426C34.6476 26.8152 34.4282 27.0279 34.1489 27.0279C33.9495 27.0279 33.7899 26.9215 33.6902 26.762C33.637 27.0146 33.4176 27.2141 33.1516 27.2141C32.992 27.2141 32.859 27.1543 32.7527 27.0479C32.6928 27.3005 32.4734 27.5 32.2008 27.5C32.0745 27.5 31.9614 27.4468 31.8617 27.3803C31.8019 27.6529 31.5692 27.8657 31.2766 27.8657C31.2234 27.8657 31.1835 27.8457 31.137 27.8391C31.1636 27.9056 31.1835 27.9787 31.1835 28.0585C31.1835 28.2713 31.0771 28.4508 30.9109 28.5638C30.9375 28.5638 30.9641 28.5439 30.9973 28.5439C31.0771 28.5439 31.1569 28.5638 31.2234 28.5904C31.2035 28.5372 31.1902 28.484 31.1902 28.4242C31.1902 28.1051 31.4495 27.8457 31.7686 27.8457C31.9348 27.8457 32.0878 27.9189 32.1941 28.0386C32.254 27.7926 32.4668 27.6064 32.7261 27.6064C32.9255 27.6064 33.0918 27.7194 33.1915 27.879C33.2447 27.633 33.4508 27.4402 33.7101 27.4402C33.9694 27.4402 34.1689 27.613 34.2221 27.8457C34.242 27.5798 34.4614 27.367 34.7407 27.367C35.0332 27.367 35.266 27.5997 35.266 27.8923C35.266 28.1848 35.0266 28.4176 34.7407 28.4176C34.4947 28.4176 34.3019 28.2513 34.242 28.0253C34.2221 28.3045 33.996 28.5239 33.7101 28.5239C33.5173 28.5239 33.3577 28.4176 33.258 28.2713C33.2114 28.5306 32.992 28.7301 32.7194 28.7301C32.5598 28.7301 32.4202 28.6636 32.3205 28.5572C32.2606 28.8165 32.0412 29.016 31.7686 29.016C31.6888 29.016 31.6223 28.996 31.5559 28.9694C31.5758 29.0293 31.5891 29.0891 31.5891 29.1489C31.5891 29.4747 31.3231 29.7407 30.9973 29.7407C30.8444 29.7407 30.7181 29.6809 30.6117 29.5878C30.5851 29.6476 30.5452 29.7074 30.4987 29.754C30.6782 29.7739 30.8245 29.8737 30.9176 30.0199C30.9973 29.8138 31.1968 29.6676 31.4362 29.6676C31.5426 29.6676 31.6423 29.7074 31.7287 29.7606C31.7088 29.7074 31.6955 29.6543 31.6955 29.5944C31.6955 29.2886 31.9415 29.0492 32.2407 29.0492C32.4468 29.0492 32.6197 29.1689 32.7128 29.3285C32.746 29.0692 32.9654 28.8697 33.2314 28.8697C33.484 28.8697 33.6835 29.0426 33.7367 29.2753C33.7434 28.996 33.9694 28.7699 34.2487 28.7699C34.5279 28.7699 34.7673 29.0027 34.7673 29.2886C34.7673 29.5745 34.5346 29.8072 34.2487 29.8072C34.0027 29.8072 33.8098 29.6343 33.7567 29.4149C33.75 29.7008 33.5173 29.9335 33.2247 29.9335C33.0253 29.9335 32.8657 29.8205 32.766 29.6609C32.7327 29.9335 32.5133 30.1396 32.234 30.1396C32.1277 30.1396 32.0346 30.1064 31.9481 30.0465C31.9681 30.0997 31.9814 30.1529 31.9814 30.2128C31.9814 30.5253 31.7287 30.7713 31.4229 30.7713C31.2301 30.7713 31.0771 30.6715 30.9707 30.5319C30.9375 30.625 30.8843 30.7114 30.8178 30.7779C31.0771 30.7779 31.2899 30.9574 31.3564 31.1968C31.4029 30.9508 31.609 30.7646 31.8617 30.7646C32.0013 30.7646 32.1277 30.8178 32.2207 30.9043C32.2074 30.8511 32.1875 30.8045 32.1875 30.7447C32.1875 30.4588 32.4202 30.2261 32.7061 30.2261C32.992 30.2261 33.2247 30.4588 33.2247 30.7447C33.2247 31.0306 32.992 31.2633 32.7061 31.2633C32.5731 31.2633 32.4468 31.2101 32.3537 31.1237C32.3737 31.1769 32.387 31.2301 32.387 31.2899C32.387 31.5824 32.1476 31.8218 31.8551 31.8218C31.6157 31.8218 31.4229 31.6622 31.3564 31.4428C31.3231 31.6223 31.2168 31.7686 31.0572 31.8484C31.1104 31.8285 31.1636 31.8152 31.2168 31.8152C31.5093 31.8152 31.7553 32.0545 31.7553 32.3537C31.7553 32.6529 31.516 32.8923 31.2168 32.8923C31.1037 32.8923 31.004 32.8457 30.9242 32.7926C30.9109 32.8657 30.8843 32.9322 30.8444 32.9987C30.9707 33.0386 31.0771 33.1184 31.1569 33.2181C31.2168 33.012 31.4029 32.859 31.629 32.859C31.9082 32.859 32.1343 33.0851 32.1343 33.3644C32.1343 33.6436 31.9082 33.8697 31.629 33.8697C31.4894 33.8697 31.363 33.8098 31.2699 33.7168C31.25 33.8098 31.2168 33.8896 31.1702 33.9628C31.363 34.0093 31.5226 34.129 31.5957 34.3085C31.629 34.0824 31.8152 33.9029 32.0545 33.9029C32.3138 33.9029 32.5266 34.1157 32.5266 34.375C32.5266 34.6343 32.3138 34.8471 32.0545 34.8471C31.8684 34.8471 31.7154 34.7407 31.6356 34.5811C31.629 34.6809 31.6024 34.7606 31.5492 34.8471C31.5492 34.8471 31.5559 34.8471 31.5625 34.8471C31.875 34.8471 32.1277 35.0997 32.1277 35.4122C32.1277 35.4987 32.1077 35.5785 32.0678 35.6516C32.141 35.6117 32.2207 35.5851 32.3072 35.5851C32.5931 35.6117 32.8192 35.8378 32.8192 36.117L32.8856 36.0904ZM27.7992 18.4774C27.8457 18.4641 27.8923 18.4508 27.9388 18.4508C27.9588 18.4508 27.9787 18.4641 27.9987 18.4641C27.9854 18.4109 27.9721 18.3644 27.9654 18.3045C27.9189 18.3777 27.8657 18.4309 27.7992 18.4774ZM31.0505 31.8883C30.9973 31.9082 30.9375 31.9215 30.8777 31.9215C30.7912 31.9215 30.7114 31.9016 30.6383 31.8617C30.625 31.9215 30.6117 31.9814 30.5851 32.0346C30.6649 32.0612 30.7314 32.1077 30.7912 32.1609C30.8444 32.0412 30.9375 31.9415 31.0572 31.8817L31.0505 31.8883ZM30.4721 30.9574C30.4721 30.9574 30.4654 30.9574 30.4588 30.9574C30.3923 30.9574 30.3258 30.9375 30.266 30.9176C30.2527 30.9707 30.2527 31.0306 30.2327 31.0771C30.2793 31.0971 30.3125 31.1303 30.3524 31.1569C30.379 31.0771 30.4189 31.0106 30.4787 30.9574H30.4721ZM30.6848 28.6835C30.6848 28.6835 30.625 28.7035 30.5851 28.7035C30.4654 28.7035 30.3657 28.6636 30.2726 28.6104C30.2527 28.6569 30.2194 28.6902 30.1928 28.7301C30.3125 28.7567 30.4255 28.8098 30.5053 28.8896C30.5452 28.8098 30.6051 28.7434 30.6782 28.6902L30.6848 28.6835ZM29.6676 21.4495C29.6676 21.4495 29.6343 21.4362 29.6077 21.4362C29.6077 21.4362 29.6077 21.4428 29.6077 21.4495C29.6077 21.629 29.5346 21.7886 29.4282 21.9149C29.4614 21.9149 29.488 21.9282 29.5213 21.9348C29.5412 21.7021 29.6809 21.5093 29.8737 21.4029C29.8072 21.4229 29.7407 21.4495 29.6676 21.4495ZM29.1489 20.1995C29.1489 20.1995 29.109 20.1862 29.0891 20.1862C29.0891 20.2194 29.109 20.246 29.109 20.2793C29.109 20.3258 29.0891 20.359 29.0824 20.3989C29.1423 20.2992 29.2221 20.2261 29.3218 20.1662C29.2686 20.1795 29.2154 20.1995 29.1556 20.1995H29.1489ZM28.8497 18.9096C28.7832 18.9295 28.7168 18.9561 28.637 18.9561C28.6104 18.9561 28.5904 18.9428 28.5705 18.9428C28.5838 19.0027 28.6037 19.0559 28.6037 19.1223C28.6037 19.1223 28.6037 19.129 28.6037 19.1356C28.6636 19.0426 28.7434 18.9694 28.8497 18.9162V18.9096ZM28.1051 17.7061C28.1051 17.7061 28.0519 17.6928 28.0253 17.6928C28.0585 17.7593 28.0718 17.8457 28.0785 17.9255C28.1981 17.7394 28.3976 17.6064 28.637 17.6064C28.6636 17.6064 28.6835 17.6197 28.7101 17.6197C28.6968 17.5665 28.6835 17.5199 28.6835 17.4668C28.6835 17.4136 28.7035 17.367 28.7168 17.3138C28.6104 17.5465 28.3777 17.7061 28.1051 17.7061ZM33.371 36.1569C33.125 36.1569 32.9189 36.3564 32.9189 36.609C32.9189 36.8617 33.1184 37.0612 33.371 37.0612C33.6237 37.0612 33.8231 36.8617 33.8231 36.609C33.8231 36.3564 33.6237 36.1569 33.371 36.1569Z" fill="var(--fill-0, #E41C13)"/>
</g>
<defs>
<clipPath id="clip0_0_10218">
<rect width="50" height="50" fill="white"/>
</clipPath>
</defs>
</svg>
