<svg preserveAspectRatio="xMidYMid meet" width="100%" height="100%" overflow="hidden" style="display: block;" viewBox="0 0 50 50" fill="none" xmlns="http://www.w3.org/2000/svg">
<g id="Illustrator" clip-path="url(#clip0_0_10262)">
<path id="Vector" d="M25 50C38.8071 50 50 38.8071 50 25C50 11.1929 38.8071 0 25 0C11.1929 0 0 11.1929 0 25C0 38.8071 11.1929 50 25 50Z" fill="var(--fill-0, #FFE1B3)"/>
<path id="Vector_2" d="M23.3976 29.6277H16.25L14.7872 34.1423C14.7473 34.3152 14.5944 34.4282 14.4215 34.4082H10.8112C10.5984 34.4082 10.5452 34.2952 10.5984 34.0625L16.7819 16.2567C16.8418 16.0638 16.8949 15.8511 16.9747 15.625C17.0545 15.2194 17.0878 14.8005 17.0878 14.375C17.0678 14.2819 17.1476 14.1822 17.2407 14.1622H22.2141C22.367 14.1622 22.4468 14.2221 22.4668 14.3152L29.4747 34.1024C29.5346 34.3152 29.4747 34.4082 29.2819 34.4082H25.266C25.133 34.4282 25 34.3285 24.9601 34.1955L23.3843 29.621L23.3976 29.6277ZM17.367 25.7247H22.2473C22.1343 25.3191 21.9814 24.8404 21.8085 24.3418C21.6356 23.8231 21.4628 23.2646 21.2899 22.6928C21.0971 22.0944 20.9242 21.5226 20.7314 20.9242C20.5386 20.3258 20.3657 19.7739 20.2128 19.2154C20.0598 18.6769 19.9269 18.1782 19.7872 17.7194H19.7473C19.5745 18.5439 19.3617 19.3684 19.0957 20.1995C18.8098 21.1237 18.5173 22.0811 18.2114 23.0452C17.9455 24.0226 17.6529 24.9269 17.367 25.7314V25.7247Z" fill="var(--fill-0, #FF9A00)"/>
<path id="Vector_3" d="M33.6702 17.4468C33.0386 17.4668 32.4202 17.2141 31.9614 16.7753C31.5226 16.2965 31.2899 15.6582 31.3098 15.0066C31.2899 14.3551 31.5426 13.7367 32.0013 13.2979C32.4601 12.859 33.0785 12.6263 33.7101 12.6263C34.4614 12.6263 35.0332 12.859 35.4588 13.2979C35.8843 13.7566 36.1104 14.375 36.0904 15.0066C36.1104 15.6582 35.8777 16.2965 35.4189 16.7753C34.9801 17.234 34.3218 17.4867 33.6702 17.4468ZM31.5226 34.1223V19.3351C31.5226 19.1423 31.6024 19.0691 31.7753 19.0691H35.5785C35.7513 19.0691 35.8311 19.1622 35.8311 19.3351V34.1223C35.8311 34.3351 35.7513 34.4282 35.5785 34.4282H31.8152C31.6223 34.4282 31.5293 34.3152 31.5293 34.1223H31.5226Z" fill="var(--fill-0, #FF9A00)"/>
</g>
<defs>
<clipPath id="clip0_0_10262">
<rect width="50" height="50" fill="white"/>
</clipPath>
</defs>
</svg>
