<svg preserveAspectRatio="xMidYMid meet" width="100%" height="100%" overflow="hidden" style="display: block;" viewBox="0 0 50 50" fill="none" xmlns="http://www.w3.org/2000/svg">
<g id="Photoshop" clip-path="url(#clip0_0_10269)">
<path id="Vector" d="M25 50C38.8071 50 50 38.8071 50 25C50 11.1929 38.8071 0 25 0C11.1929 0 0 11.1929 0 25C0 38.8071 11.1929 50 25 50Z" fill="var(--fill-0, #C7E7FF)"/>
<g id="Group">
<path id="Vector_2" d="M11.4295 34.508V15.1729C11.4295 15.0399 11.4827 14.9668 11.6157 14.9668C11.9348 14.9668 12.234 14.9668 12.6662 14.9468C13.1184 14.9269 13.5838 14.9269 14.0957 14.9069C14.6011 14.887 15.1463 14.887 15.7314 14.867C16.3165 14.8471 16.875 14.8471 17.4402 14.8471C18.9827 14.8471 20.2593 15.0332 21.3098 15.4322C22.2473 15.7513 23.1117 16.2766 23.8298 16.9747C24.4282 17.5731 24.9003 18.3112 25.1995 19.1157C25.4787 19.9069 25.6316 20.7114 25.6316 21.5559C25.6316 23.1715 25.2527 24.508 24.5013 25.5585C23.75 26.609 22.6995 27.4003 21.4761 27.8524C20.1995 28.3245 18.7899 28.4907 17.2473 28.4907C16.7952 28.4907 16.496 28.4907 16.3098 28.4707C16.1237 28.4508 15.8577 28.4508 15.4987 28.4508V34.4814C15.5186 34.6144 15.4255 34.7274 15.2926 34.7473H11.6489C11.496 34.7473 11.4229 34.6742 11.4229 34.5013L11.4295 34.508ZM15.5253 18.5904V24.9069C15.7912 24.9269 16.0306 24.9468 16.2566 24.9468H17.254C17.9854 24.9468 18.7168 24.8338 19.4149 24.6077C20.0133 24.4415 20.5452 24.0824 20.9574 23.6104C21.3497 23.1383 21.5426 22.5 21.5426 21.6755C21.5625 21.0904 21.4096 20.512 21.1104 20C20.7912 19.5146 20.3391 19.1356 19.7939 18.9295C19.0957 18.6503 18.3444 18.5372 17.5798 18.5505C17.0944 18.5505 16.6622 18.5505 16.3032 18.5705C15.9242 18.5505 15.6649 18.5705 15.5319 18.5904H15.5253Z" fill="var(--fill-0, #31A8FF)"/>
<path id="Vector_3" d="M37.3604 23.7567C36.7952 23.4574 36.1968 23.2513 35.5585 23.1184C34.8604 22.9654 34.1689 22.8723 33.4508 22.8723C33.0718 22.8524 32.6795 22.9122 32.3205 23.0053C32.0745 23.0585 31.8684 23.1915 31.7354 23.3843C31.6423 23.5372 31.5824 23.7234 31.5824 23.8896C31.5824 24.0559 31.6556 24.2287 31.7686 24.375C31.9348 24.5811 32.1609 24.754 32.4069 24.8803C32.8391 25.1064 33.2912 25.3125 33.7434 25.4987C34.7606 25.8378 35.738 26.3098 36.6356 26.8684C37.254 27.2606 37.766 27.7859 38.1184 28.4309C38.4176 29.0293 38.5705 29.6875 38.5505 30.3657C38.5705 31.25 38.3045 32.1343 37.8192 32.8657C37.2939 33.617 36.5625 34.2021 35.7114 34.5412C34.7939 34.9335 33.6636 35.1396 32.3072 35.1396C31.4428 35.1396 30.5984 35.0665 29.754 34.8936C29.0957 34.7806 28.4375 34.5745 27.8391 34.2952C27.7061 34.2221 27.613 34.0891 27.633 33.9362V30.6649C27.633 30.6117 27.6529 30.5319 27.7061 30.4987C27.7593 30.4588 27.8191 30.4787 27.8723 30.5186C28.6037 30.9508 29.375 31.25 30.1995 31.4362C30.9109 31.6223 31.6622 31.7154 32.4136 31.7154C33.1649 31.7154 33.637 31.6223 33.9761 31.4495C34.2753 31.3165 34.4814 30.9973 34.4814 30.6582C34.4814 30.3923 34.3285 30.1529 34.0293 29.9069C33.7301 29.6609 33.1117 29.3817 32.1875 29.0226C31.2301 28.6835 30.3457 28.2314 29.5213 27.6729C28.9362 27.2606 28.4508 26.7154 28.0918 26.0771C27.7926 25.4787 27.6396 24.8205 27.6596 24.1622C27.6596 23.3511 27.8856 22.5864 28.2979 21.8883C28.7699 21.137 29.4614 20.5386 30.2726 20.1596C31.1569 19.7074 32.2673 19.5013 33.5971 19.5013C34.3684 19.5013 35.1596 19.5545 35.9242 19.6676C36.4894 19.7407 37.0346 19.8936 37.5399 20.0997C37.613 20.1197 37.6928 20.1928 37.7261 20.266C37.746 20.3391 37.766 20.4189 37.766 20.492V23.5572C37.766 23.6303 37.7261 23.7101 37.6729 23.7434C37.5066 23.7832 37.4069 23.7832 37.3338 23.7434L37.3604 23.7567Z" fill="var(--fill-0, #31A8FF)"/>
</g>
</g>
<defs>
<clipPath id="clip0_0_10269">
<rect width="50" height="50" fill="white"/>
</clipPath>
</defs>
</svg>
