<svg preserveAspectRatio="xMidYMid meet" width="100%" height="100%" overflow="hidden" style="display: block;" viewBox="0 0 41 35.0412" fill="none" xmlns="http://www.w3.org/2000/svg">
<g id="Ai">
<path id="Vector" d="M20.587 27.3245H9.10617L6.76079 34.582C6.69519 34.8608 6.44917 35.0413 6.17035 35.0167H0.372511C0.0362859 35.0167 -0.0621215 34.828 0.0362859 34.459L9.96723 5.83886C10.0574 5.52723 10.1558 5.19101 10.2789 4.82198C10.4019 4.17413 10.4675 3.49348 10.4675 2.81283C10.4347 2.65702 10.5577 2.5012 10.7135 2.4766H18.7091C18.9551 2.4766 19.0781 2.56681 19.1109 2.72262L30.3786 34.5246C30.4688 34.8608 30.3786 35.0167 30.0669 35.0167H23.6131C23.3998 35.0495 23.1784 34.8936 23.121 34.6804L20.587 27.3327V27.3245ZM10.8939 21.051H18.7337C18.5451 20.4032 18.2991 19.6323 18.0202 18.8286C17.7414 17.9922 17.4626 17.0983 17.1838 16.1716C16.8722 15.2122 16.5933 14.2855 16.2899 13.3342C15.9865 12.3829 15.6995 11.4809 15.4534 10.587C15.2074 9.72595 14.9942 8.92229 14.7728 8.17603H14.7072C14.4284 9.50453 14.0921 10.833 13.6575 12.1615C13.1983 13.6458 12.7308 15.1876 12.2388 16.7293C11.8042 18.3038 11.3449 19.7553 10.8775 21.051H10.8939Z" fill="var(--fill-0, #FF9A00)"/>
<path id="Vector_2" d="M37.1027 7.74958C36.0858 7.78239 35.0935 7.38056 34.3555 6.6671C33.642 5.89624 33.273 4.87937 33.3058 3.82969C33.273 2.78001 33.6748 1.79594 34.4211 1.08248C35.1591 0.369028 36.1514 0 37.1683 0C38.3738 0 39.3005 0.369028 39.9811 1.08248C40.6618 1.82054 41.0308 2.81281 40.998 3.82969C41.0308 4.87937 40.6618 5.89624 39.9155 6.6671C39.2021 7.40516 38.1524 7.80699 37.1027 7.74958ZM33.6502 34.5492V10.7756C33.6502 10.464 33.7732 10.341 34.0521 10.341H40.1615C40.4403 10.341 40.5634 10.4968 40.5634 10.7756V34.5492C40.5634 34.8854 40.4403 35.0412 40.1615 35.0412H34.1095C33.7978 35.0412 33.6502 34.8526 33.6502 34.5492Z" fill="var(--fill-0, #FF9A00)"/>
</g>
</svg>
