<svg preserveAspectRatio="xMidYMid meet" width="100%" height="100%" overflow="hidden" style="display: block;" viewBox="0 0 207 46.1848" fill="none" xmlns="http://www.w3.org/2000/svg">
<g id="Group">
<path id="Vector" d="M26.6224 16.2558L18.2854 35.3898L28.1878 35.3793L32.1384 45.4718H0L20.0915 1.35202L34.1912 1.31506L54.0591 45.4454L39.214 45.4824L26.6224 16.2558Z" fill="var(--fill-0, #EC1000)"/>
<path id="Vector_2" d="M157.905 12.2526C169.786 17.4652 170.388 32.5379 163.209 40.0162C155.853 47.6794 141.914 47.0034 131.931 43.4702V0.0158462L144.454 0.00528364L144.534 10.8636C149.236 10.1559 153.731 10.4252 157.905 12.2578V12.2526ZM155.182 30.1402C155.709 27.0349 155.302 23.9559 152.86 21.8117C150.663 19.884 147.189 19.377 144.477 20.3857L144.511 36.2137C149.54 37.6661 154.368 34.9092 155.182 30.135V30.1402Z" fill="var(--fill-0, #EC1000)"/>
<path id="Vector_3" d="M87.6481 43.5071C75.5037 47.8167 58.0956 47.7005 53.1129 35.6539C51.2494 31.1542 51.3297 26.0842 53.0326 21.4895C56.0945 13.2296 65.3834 9.14189 75.2056 10.89L75.2629 0H87.6538V43.5071H87.6481ZM75.2572 35.9866L75.2285 20.2643C72.1322 19.2714 68.6804 19.8101 66.5589 22.1074C62.9236 26.0525 63.6977 33.3513 68.107 35.638C70.4292 36.8422 72.9579 37.196 75.2514 35.9866H75.2572Z" fill="var(--fill-0, #EC1000)"/>
<path id="Vector_4" d="M129.213 28.2602C129.213 38.1573 120.498 46.1848 109.752 46.1848C99.0069 46.1848 90.2914 38.1573 90.2914 28.2602C90.2914 18.3631 99.0069 10.3355 109.752 10.3355C120.498 10.3355 129.213 18.3631 129.213 28.2602ZM115.75 32.6331C117.017 29.7337 116.988 26.5279 115.75 23.7764C114.655 21.3523 112.338 20.0055 109.735 20.0478C107.235 20.09 104.959 21.3047 103.938 23.6602C102.7 26.5226 102.614 29.8234 103.869 32.6859C104.907 35.0466 107.229 36.4831 109.735 36.4567C112.241 36.4303 114.655 35.1628 115.756 32.6331H115.75Z" fill="var(--fill-0, #EC1000)"/>
<path id="Vector_5" d="M183.41 31.6032C186.523 39.3878 196.592 37.7929 204.253 34.904V43.6023C195.262 47.4471 182.332 46.9929 175.509 40.1959C168.502 33.214 169.345 21.0829 176.208 15.0887C183.072 9.09443 193.536 8.94128 200.887 14.1486C206.345 18.0145 207.779 25.2974 206.632 31.5979L183.41 31.6085V31.6032ZM195.256 24.3468C195.027 22.5987 194.144 21.0354 192.888 20.2062C191.34 19.1817 189.287 18.8437 187.573 19.3401C185.124 20.0478 183.691 22.1181 183.272 24.3362L195.256 24.352V24.3468Z" fill="var(--fill-0, #EC1000)"/>
</g>
</svg>
