<svg preserveAspectRatio="xMidYMid meet" width="100%" height="100%" overflow="hidden" style="display: block;" viewBox="0 0 50 50" fill="none" xmlns="http://www.w3.org/2000/svg">
<g id="AfterEffects" clip-path="url(#clip0_0_10272)">
<path id="Vector" d="M25 50C38.8071 50 50 38.8071 50 25C50 11.1929 38.8071 0 25 0C11.1929 0 0 11.1929 0 25C0 38.8071 11.1929 50 25 50Z" fill="var(--fill-0, #00005B)"/>
<path id="path2199" d="M20.8511 28.7434H13.6237L12.1476 33.3245C12.1077 33.4973 11.9548 33.617 11.7819 33.5971H8.13165C7.91888 33.5971 7.85904 33.4774 7.91888 33.2447L14.1755 15.3192C14.2354 15.1263 14.2952 14.9468 14.3684 14.7141C14.4481 14.3085 14.488 13.8763 14.488 13.4508C14.4681 13.3511 14.5479 13.258 14.641 13.238H19.6742C19.8072 13.238 19.9069 13.2979 19.9269 13.391L27.0146 33.2979C27.0745 33.5106 27.0146 33.6104 26.8218 33.6104H22.7593C22.6263 33.6303 22.4867 33.5306 22.4468 33.3976L20.8511 28.7367V28.7434ZM14.754 24.8803H19.6875C19.5678 24.4747 19.4149 23.9894 19.242 23.484C19.0691 22.9588 18.8896 22.3936 18.7168 21.8152C18.5239 21.2101 18.3444 20.6317 18.1516 20.0266C17.9588 19.4215 17.7859 18.863 17.6263 18.2979C17.4734 17.7527 17.3338 17.2473 17.2008 16.7819H17.1609C16.988 17.6197 16.7753 18.4508 16.5027 19.2886C16.2101 20.2194 15.9176 21.1902 15.6117 22.1609C15.359 23.1516 15.0465 24.0625 14.754 24.8803Z" fill="var(--fill-0, #9999FF)"/>
<path id="path2201" d="M38.5306 26.9548H32.3737C32.4535 27.5598 32.6463 28.1582 32.9787 28.6835C33.3311 29.2088 33.8165 29.6144 34.3949 29.8471C35.1729 30.1795 36.0239 30.3524 36.8817 30.3324C37.5598 30.3125 38.2447 30.2527 38.9029 30.1197C39.508 30.0399 40.0864 29.887 40.6317 29.6742C40.7314 29.5944 40.7846 29.6343 40.7846 29.8271V32.7992C40.7846 32.879 40.7646 32.9521 40.7447 33.0319C40.7048 33.0918 40.6649 33.1317 40.6117 33.1649C39.9934 33.4375 39.3484 33.6303 38.6702 33.75C37.7593 33.9229 36.8418 34.0027 35.9109 33.9827C34.4348 33.9827 33.1915 33.75 32.1809 33.3045C31.2301 32.8989 30.3923 32.254 29.734 31.4561C29.109 30.6981 28.6636 29.8471 28.391 28.9096C28.1184 27.9987 27.9854 27.0479 27.9854 26.0705C27.9854 25.0199 28.1383 23.9894 28.4707 22.9854C28.7832 22.0146 29.2686 21.1237 29.9269 20.3258C30.5652 19.5479 31.363 18.9295 32.2739 18.484C33.1848 18.0386 34.2753 17.879 35.5186 17.879C36.5492 17.859 37.5798 18.0519 38.5306 18.484C39.3285 18.8364 40.0266 19.3551 40.5718 20.0399C41.0771 20.6981 41.4827 21.4362 41.7354 22.254C41.988 23.0319 42.1011 23.8298 42.1011 24.621C42.1011 25.0864 42.0811 25.492 42.0612 25.8644C42.0213 26.2367 42.0013 26.5027 41.9814 26.6822C41.9614 26.8152 41.8484 26.9348 41.7088 26.9348C41.5891 26.9348 41.3763 26.9548 41.0705 26.9747C40.758 27.0146 40.3923 27.0346 39.9468 27.0346C39.5013 27.0346 39.0359 26.9548 38.5306 26.9548ZM32.3737 24.1223H36.4694C36.9747 24.1223 37.3404 24.1223 37.5731 24.1024C37.7261 24.0824 37.8856 24.0426 38.0186 23.9495V23.7567C38.0186 23.504 37.9787 23.2713 37.8989 23.0386C37.5465 21.9481 36.5226 21.2101 35.3723 21.25C34.3019 21.1902 33.2912 21.7553 32.7859 22.7261C32.5532 23.1715 32.4136 23.637 32.3604 24.1223H32.3737Z" fill="var(--fill-0, #9999FF)"/>
</g>
<defs>
<clipPath id="clip0_0_10272">
<rect width="50" height="50" fill="white"/>
</clipPath>
</defs>
</svg>
