<svg width="50" height="50" viewBox="0 0 50 50" fill="none" xmlns="http://www.w3.org/2000/svg">
  <circle cx="25" cy="25" r="25" fill="#000B1D"/>
  <path d="M30.2656 14.5346C29.368 12.4136 27.2869 11.0306 24.9797 11.0306C22.6725 11.0306 20.5714 12.4136 19.6805 14.5479L12.4265 31.8285C11.4291 34.1888 13.1645 36.8019 15.7244 36.8019H23.8028C25.7842 36.8019 27.3932 35.1862 27.3932 33.2048C27.3932 31.2234 25.7842 29.6077 23.7962 29.6077C23.7164 29.6077 22.4132 29.621 22.4132 29.621C21.8281 29.621 21.4358 29.0226 21.6619 28.484L24.235 22.3471C24.5143 21.6822 25.4318 21.6755 25.7111 22.3471L30.9637 34.6343C31.6818 36.2766 33.0581 36.8085 34.2682 36.8152C36.8347 36.8152 38.5635 34.2021 37.5661 31.8417L30.2656 14.5612V14.5346Z" fill="white"/>
</svg>
