<svg preserveAspectRatio="xMidYMid meet" width="100%" height="100%" overflow="visible" style="display: block;" viewBox="0 0 50 50" fill="none" xmlns="http://www.w3.org/2000/svg">
<g id="Premiere" clip-path="url(#clip0_0_10233)">
<path id="Vector" d="M25 50C38.8071 50 50 38.8071 50 25C50 11.1929 38.8071 0 25 0C11.1929 0 0 11.1929 0 25C0 38.8071 11.1929 50 25 50Z" fill="var(--fill-0, #00005B)"/>
<g id="Group">
<path id="Vector_2" d="M12.2739 33.6569V14.6543C12.2739 14.5279 12.3271 14.4481 12.4601 14.4481C12.7726 14.4481 13.0718 14.4481 13.4973 14.4282C13.9428 14.4082 14.4016 14.4082 14.9003 14.3883C15.3989 14.3684 15.9375 14.3684 16.5093 14.3484C17.0811 14.3285 17.633 14.3285 18.1915 14.3285C19.7074 14.3285 20.9641 14.5146 21.9947 14.9003C22.9189 15.2128 23.7699 15.7314 24.4681 16.4162C25.0598 17.008 25.5186 17.7261 25.8178 18.5239C26.0971 19.3019 26.2434 20.0931 26.2434 20.9242C26.2434 22.5133 25.871 23.8231 25.133 24.8604C24.3949 25.8976 23.3577 26.6689 22.1609 27.1144C20.9043 27.5731 19.5213 27.7394 18.0053 27.7394C17.5598 27.7394 17.2673 27.7394 17.0811 27.7194C16.8949 27.6995 16.6356 27.6995 16.2899 27.6995V33.6237C16.3098 33.75 16.2168 33.863 16.0838 33.883H12.5C12.3537 33.883 12.2806 33.8098 12.2806 33.6436L12.2739 33.6569ZM16.3032 18.0186V24.2221C16.5625 24.242 16.8019 24.262 17.0213 24.262H17.9987C18.7168 24.262 19.4415 24.1489 20.1197 23.9295C20.7114 23.7633 21.2301 23.4109 21.6356 22.9521C22.0213 22.4934 22.2074 21.8617 22.2074 21.0505C22.2274 20.4787 22.0811 19.9069 21.7819 19.4082C21.4694 18.9295 21.0239 18.5572 20.492 18.3577C19.8072 18.0785 19.0692 17.9721 18.3112 17.9854C17.8324 17.9854 17.4069 17.9854 17.0545 18.0053C16.6822 17.9854 16.4295 18.0053 16.2965 18.0253L16.3032 18.0186Z" fill="var(--fill-0, #9999FF)"/>
<path id="Vector_3" d="M28.8231 19.0891H32.0545C32.2407 19.0891 32.387 19.2154 32.4402 19.3816C32.4934 19.5279 32.5332 19.6742 32.5532 19.8404C32.5931 20.0266 32.6263 20.2261 32.6463 20.4122C32.6662 20.6184 32.6862 20.8378 32.6862 21.0771C33.238 20.4322 33.9029 19.8936 34.6609 19.488C35.512 19.0093 36.4894 18.7699 37.4668 18.7699C37.5931 18.75 37.7061 18.8431 37.7261 18.9761V22.6529C37.7261 22.7992 37.633 22.859 37.4335 22.859C36.7686 22.8391 36.0838 22.8989 35.4388 23.0452C34.9003 23.1582 34.3883 23.3245 33.8896 23.5439C33.5372 23.7101 33.2048 23.9295 32.9455 24.2287V33.6436C32.9455 33.8298 32.8723 33.9029 32.7061 33.9029H29.0692C28.9229 33.9229 28.7899 33.8298 28.7766 33.6835V23.3777C28.7766 22.9322 28.7766 22.4734 28.7567 21.9947C28.7367 21.516 28.7367 21.0372 28.7168 20.5519C28.7168 20.1263 28.6769 19.7207 28.6436 19.2952C28.6237 19.2021 28.6835 19.109 28.77 19.0891C28.77 19.0691 28.8098 19.0691 28.8231 19.0891Z" fill="var(--fill-0, #9999FF)"/>
</g>
</g>
<defs>
<clipPath id="clip0_0_10233">
<rect width="50" height="50" fill="white"/>
</clipPath>
</defs>
</svg>
