<svg preserveAspectRatio="xMidYMid meet" width="100%" height="100%" overflow="hidden" style="display: block;" viewBox="0 0 41.0002 30" fill="none" xmlns="http://www.w3.org/2000/svg">
<g id="Ps">
<path id="Vector" d="M0 29.0768V0.473641C0 0.280974 0.0819784 0.168584 0.286924 0.168584C0.762399 0.168584 1.22148 0.168584 1.87731 0.136473C2.55773 0.11239 3.27094 0.11239 4.03334 0.0802782C4.79574 0.0561948 5.62372 0.0561948 6.50089 0.0240835C7.37806 0 8.23063 0 9.08321 0C11.4114 0 13.3379 0.280974 14.9283 0.858977C16.3465 1.33262 17.6499 2.11132 18.7321 3.13888C19.642 4.02997 20.347 5.11372 20.8061 6.30987C21.2324 7.4739 21.4619 8.67005 21.4619 9.92239C21.4619 12.3147 20.8963 14.2895 19.7568 15.8389C18.6173 17.3883 17.0351 18.5603 15.1906 19.2266C13.2641 19.9251 11.1327 20.1739 8.80448 20.1739C8.12406 20.1739 7.67318 20.1739 7.38625 20.1498C7.09933 20.1258 6.70583 20.1258 6.16478 20.1258V29.0447C6.18937 29.2373 6.05001 29.4059 5.85326 29.43H0.344309C0.11477 29.43 0 29.3176 0 29.0687V29.0768ZM6.18937 5.53117V14.8675C6.58287 14.8916 6.95177 14.9237 7.29608 14.9237H8.80448C9.91119 14.9237 11.0179 14.7551 12.0672 14.426C12.9772 14.1771 13.7724 13.6473 14.3954 12.9489C14.9938 12.2505 15.2726 11.3112 15.2726 10.0829C15.2972 9.22397 15.0758 8.35696 14.6167 7.61038C14.1331 6.88787 13.4527 6.33395 12.6329 6.02889C11.5835 5.61145 10.444 5.44286 9.27995 5.47497C8.54215 5.47497 7.88632 5.47497 7.35346 5.49906C6.78781 5.47497 6.38612 5.49906 6.18937 5.52314V5.53117Z" fill="var(--fill-0, #31A8FF)"/>
<path id="Vector_2" d="M39.1703 13.1737C38.3177 12.7321 37.4077 12.4271 36.4486 12.2264C35.3993 12.0016 34.3499 11.8651 33.2678 11.8651C32.7022 11.841 32.1037 11.9213 31.5627 12.0578C31.1938 12.1381 30.8822 12.3388 30.6855 12.6117C30.5461 12.8365 30.456 13.1094 30.456 13.3583C30.456 13.6072 30.5707 13.856 30.7429 14.0808C30.997 14.3859 31.3413 14.6347 31.7102 14.8274C32.3661 15.1646 33.0465 15.4696 33.7269 15.7426C35.2599 16.2403 36.7355 16.9387 38.0963 17.7736C39.0309 18.3596 39.8015 19.1383 40.3426 20.0776C40.7934 20.9687 41.023 21.94 40.9984 22.9435C41.023 24.2521 40.6295 25.5526 39.8917 26.6363C39.0965 27.7442 37.9898 28.6112 36.7109 29.1089C35.3173 29.6949 33.6203 30 31.5709 30C30.2674 30 28.9885 29.8876 27.7097 29.6387C26.7177 29.4701 25.7258 29.1651 24.8158 28.7476C24.6191 28.6352 24.4715 28.4426 24.5043 28.2178V23.3851C24.5043 23.3048 24.5289 23.1924 24.6191 23.1362C24.7011 23.08 24.7913 23.1121 24.8732 23.1603C25.9799 23.8025 27.144 24.244 28.3901 24.525C29.4722 24.806 30.6035 24.9424 31.743 24.9424C32.8825 24.9424 33.5875 24.806 34.0958 24.5571C34.5467 24.3644 34.8582 23.8908 34.8582 23.3931C34.8582 23.0077 34.6287 22.6465 34.1778 22.2852C33.7269 21.924 32.7841 21.5065 31.3987 20.9767C29.9477 20.479 28.6196 19.8127 27.3654 18.9778C26.4882 18.3677 25.7504 17.5569 25.2093 16.6176C24.7585 15.7265 24.5289 14.7551 24.5535 13.7838C24.5535 12.5876 24.8978 11.4477 25.5209 10.4201C26.2341 9.31228 27.2834 8.42119 28.5049 7.85924C29.8411 7.19294 31.5135 6.88788 33.5301 6.88788C34.6942 6.88788 35.8829 6.96816 37.047 7.13674C37.8996 7.24913 38.7194 7.47391 39.49 7.77897C39.6047 7.80305 39.7195 7.91544 39.7769 8.02783C39.8015 8.14022 39.8343 8.25261 39.8343 8.365V12.8927C39.8343 13.0051 39.7769 13.1175 39.6949 13.1737C39.4408 13.2299 39.3014 13.2299 39.1867 13.1737H39.1703Z" fill="var(--fill-0, #31A8FF)"/>
</g>
</svg>
