<svg width="157" height="44" viewBox="0 0 157 44" fill="none" xmlns="http://www.w3.org/2000/svg">
<path d="M102.073 35.1833L109.99 35.1455C109.286 39.6872 106.747 42.3631 102.137 43.472C95.2185 44.6377 87.0131 44.2441 84.1518 37.1628C83.2775 35.0054 82.8877 32.7535 82.8877 30.3994V24.4308C82.8877 18.6855 85.1169 13.2354 90.9228 11.6193C94.5902 10.6012 98.4772 10.6012 102.171 11.4906C105.789 12.3611 108.477 14.8666 109.635 18.3638C110.335 20.3962 110.622 22.4589 110.626 24.6314L110.634 29.9111H90.8395C90.6654 33.3136 90.866 36.86 94.3177 37.7153C95.9565 38.0938 97.6256 38.0484 99.2985 37.7759C100.623 37.5147 101.637 36.6518 102.073 35.1833ZM102.663 24.2945C102.826 21.085 102.425 18.0118 99.3552 17.1791C97.7164 16.8082 96.0095 16.8006 94.3593 17.1413C91.1044 17.9361 90.7335 20.9374 90.8017 24.2945H102.663Z" fill="#3C54FC"/>
<path d="M150.363 43.2941C146.491 44.263 142.487 44.1722 138.645 43.4001C134.455 42.5561 132.177 39.4071 131.692 35.1076L139.478 35.1001C139.939 36.508 140.908 37.5261 142.373 37.7797C144.057 38.0711 145.836 38.1317 147.46 37.6132C148.796 37.1893 149.133 35.8457 149.239 34.5891C149.386 32.8065 148.546 31.3607 146.733 31.0806L140.155 30.055C136.298 29.4532 133.036 27.5343 132.302 23.6095C131.912 21.5316 131.984 19.4954 132.468 17.4327C133.172 14.4465 135.383 12.2968 138.437 11.5436C142.203 10.6163 146.241 10.7109 150.041 11.5701C154.091 12.486 155.748 15.9302 156.297 19.7982H148.656C148.156 16.8007 143.603 16.2897 141.094 17.4554C139.928 17.9966 139.799 19.3175 139.716 20.4151C139.599 22.0123 140.371 23.1099 141.953 23.3559L148.853 24.4308C150.045 24.6162 151.116 24.9833 152.198 25.464C156.755 27.4775 157.535 32.2691 156.558 36.9697C155.9 40.1376 153.655 42.4766 150.37 43.2979L150.363 43.2941Z" fill="#3C54FC"/>
<path d="M130.582 17.7355L122.248 17.7431V43.4493H114.319V9.39007C114.482 5.48039 115.481 2.35795 119.175 0.923517C120.844 0.287674 122.566 0.0984348 124.379 0.0189544L132.948 3.05176e-05V6.2979L124.648 6.33575C123.399 6.38117 122.388 7.07757 122.358 8.31519L122.279 11.4339H130.586V17.7317L130.582 17.7355Z" fill="#3C54FC"/>
<path d="M6.00326 43.332C0.575897 41.5607 -0.900164 35.7473 0.492632 30.6C1.65834 26.2891 5.58315 24.3172 9.99619 24.2907L19.4392 24.2983V17.7431H3.01707L3.03221 11.4376H27.3796V43.4531H19.496L19.3635 40.5993C17.0434 42.8626 14.1329 43.9375 10.9613 43.9678C9.23545 43.9829 7.63449 43.8694 6.01083 43.3395L6.00326 43.332ZM11.9945 38.1582C15.3441 38.4723 18.1183 36.5383 18.9926 33.4385C19.3067 32.3258 19.4808 31.2585 19.4505 30.0436L12.3087 30.0852C11.0446 30.0928 9.59122 30.388 8.76992 31.4402C7.65342 32.867 7.66856 35.1644 8.64881 36.6518C9.3717 37.7456 10.6812 38.0333 11.9983 38.1582H11.9945Z" fill="#FE8B01"/>
<path d="M58.5204 43.4115L50.5686 43.4417L50.5723 17.7393H39.975L39.9788 43.4531L32.0459 43.4455V0.00760008L39.975 3.05176e-05V11.4376L50.5837 11.4414L50.5799 17.7128L58.5204 17.7506V43.4115Z" fill="#3C54FC"/>
<path d="M71.1046 17.7393L71.1008 43.4455L63.168 43.4493L63.1718 11.4414L82.1751 11.4376V17.7393H71.1046Z" fill="#3C54FC"/>
</svg>
