<svg width="50" height="50" viewBox="0 0 50 50" fill="none" xmlns="http://www.w3.org/2000/svg">
<g clip-path="url(#clip0_12274_15)">
<path d="M25 50C38.8071 50 50 38.8071 50 25C50 11.1929 38.8071 0 25 0C11.1929 0 0 11.1929 0 25C0 38.8071 11.1929 50 25 50Z" fill="#054ADA"/>
<path d="M15.7716 18.7766L28.8102 18.7566L28.7371 21.7952L23.7371 22.1809C16.1041 22.7527 13.624 24.8205 13.624 30.4787V31.6223C13.624 35.7713 16.5762 38.6037 21.0309 38.2513C24.761 37.9588 28.7902 35.4189 28.7902 35.4189V37.9455H34.2557V13.2048H15.7051L15.7783 18.7766H15.7716ZM28.7637 30.0133C26.0642 31.3564 24.8009 32.3803 22.5203 32.8856C20.2863 33.3777 19.0762 32.5465 19.1559 30.266C19.2357 27.9455 20.2796 27.3803 24.6879 27.0146L28.7703 26.5824V30.0133H28.7637Z" fill="white"/>
</g>
<defs>
<clipPath id="clip0_12274_15">
<rect width="50" height="50" fill="white"/>
</clipPath>
</defs>
</svg>
