<svg width="50" height="50" viewBox="0 0 50 50" fill="none" preserveAspectRatio="xMidYMid meet" xmlns="http://www.w3.org/2000/svg">
<g id="Claude">
<path id="path147" d="M11.0288 32.5801L20.0769 27.5043L20.2308 27.0621L20.0769 26.8121H19.6346L18.125 26.716L12.9519 26.5718L8.47115 26.3891L4.125 26.1584L3.02885 25.9277L2 24.5818L2.10577 23.9089L3.02885 23.2936L4.34615 23.409L7.25962 23.6109L11.625 23.9089L14.7885 24.0915L19.4808 24.5818H20.2308L20.3365 24.2838L20.0865 24.1012L19.8846 23.9185L15.3654 20.8614L10.4712 17.6217L7.91346 15.7567L6.52885 14.8146L5.82692 13.9302L5.52885 11.9979L6.78846 10.6136L8.48077 10.7289L8.91346 10.8443L10.625 12.1613L14.2788 14.9877L19.0481 18.5062L19.75 19.083L20.0288 18.8811L20.0673 18.7369L19.75 18.2082L17.1538 13.5168L14.3846 8.74859L13.1538 6.76824L12.8269 5.58579C12.7115 5.09551 12.625 4.69175 12.625 4.19185L14.0577 2.24995L14.8462 2L16.7596 2.24995L17.5673 2.95172L18.75 5.6627L20.6731 9.93103L23.6538 15.7375L24.5288 17.4583L24.9904 19.0541L25.1635 19.5444H25.4615V19.2656L25.7115 15.9971L26.1635 11.9787L26.6058 6.80669L26.7596 5.35507L27.4808 3.60543L28.9135 2.66332L30.0288 3.20167L30.9519 4.51871L30.8269 5.36468L30.2788 8.91202L29.2115 14.4782L28.5096 18.2082H28.9135L29.375 17.7467L31.2596 15.2472L34.4231 11.2865L35.8173 9.71954L37.4519 7.97952L38.5 7.15277H40.4808L41.9327 9.31578L41.2788 11.5557L39.2404 14.1417L37.5481 16.3335L35.125 19.5925L33.6154 22.1977L33.7596 22.4092L34.1154 22.3707L39.5865 21.2075L42.5385 20.6692L46.0673 20.0635L47.6635 20.8134L47.8365 21.5728L47.2115 23.1206L43.4423 24.0531L39.0192 24.9375L32.4327 26.4949L32.3558 26.5526L32.4519 26.6679L35.4231 26.9467L36.6923 27.014H39.7981L45.5865 27.4466L47.0962 28.4464L48 29.6673L47.8462 30.5998L45.5192 31.7822L42.375 31.0324L35.0385 29.2828L32.5192 28.6579H32.1731V28.8694L34.2692 30.917L38.1058 34.3875L42.9135 38.8577L43.1635 39.9632L42.5481 40.838L41.8942 40.7419L37.6635 37.5599L36.0288 36.1275L32.3365 33.0224H32.0865V33.3492L32.9327 34.599L37.4231 41.3475L37.6538 43.4144L37.3269 44.0874L36.1635 44.4911L34.8846 44.2604L32.25 40.5689L29.5385 36.4159L27.3462 32.6859L27.0769 32.8397L25.7885 46.7503L25.1827 47.4617L23.7885 48L22.625 47.1156L22.0096 45.6832L22.625 42.8568L23.375 39.1653L23.9808 36.2332L24.5288 32.5898L24.8558 31.3785L24.8365 31.3016L24.5673 31.34L21.8173 35.1085L17.6346 40.7515L14.3269 44.2892L13.5385 44.6065L12.1635 43.8951L12.2885 42.6261L13.0577 41.4917L17.6346 35.666L20.3942 32.061L22.1731 29.9749V29.6769H22.0577L9.90385 37.5695L7.74039 37.8483L6.80769 36.9735L6.92308 35.5411L7.36538 35.0796L11.0192 32.5609H11.0096V32.5898L11.0288 32.5801Z" fill="var(--fill-0, #D97757)"/>
</g>
</svg>
