<svg width="297" height="40" viewBox="0 0 297 40" fill="none" preserveAspectRatio="xMidYMid meet" xmlns="http://www.w3.org/2000/svg">
<path d="M53.3975 22.4214L39.0251 22.4276L39.0313 32.7275L54.4466 32.7398L54.4713 39.3038L31.2188 39.2853V0H54.4589L54.4713 6.55167H39.019L39.0313 15.8944L53.3728 15.9068L53.3975 22.4214Z" fill="black"/>
<path d="M268.089 32.7892C266.559 37.5378 262.443 40.1189 257.728 39.9398C254.797 39.8287 252.365 38.5937 250.798 36.1546L250.675 39.2791L243.312 39.2544V0.018525L250.736 0L250.767 12.8316C253.39 9.71326 257.037 8.52766 261.196 9.55888C269.786 11.6831 270.669 24.8049 268.089 32.7892ZM261.011 18.7349C260.246 16.2773 258.203 14.9311 255.932 14.9991C253.575 15.067 251.724 16.481 251.039 18.9634C249.465 24.7123 249.934 34.0551 255.901 34.1724C262.165 34.2959 262.807 24.5271 261.005 18.7349H261.011Z" fill="black"/>
<path d="M230.262 39.2914L230.084 36.1854C228.208 38.8221 225.35 39.9953 222.148 39.9398C217.618 39.8595 213.928 37.1981 212.613 32.783C211.046 27.5157 210.978 21.7297 212.613 16.4933C214.039 11.9362 217.822 9.21301 222.487 9.18831C225.517 9.16979 228.103 10.4295 229.929 12.8439L230.188 9.89844L237.569 9.92931V39.2605L230.262 39.2914ZM229.75 19.0806C229.053 16.4748 227.128 14.9125 224.647 14.9434C218.525 15.0175 218.007 24.4344 219.729 30.313C220.475 32.8632 222.493 34.2094 224.912 34.1723C230.775 34.0735 231.262 24.7678 229.75 19.0806Z" fill="black"/>
<path d="M171.395 15.3943C169.834 14.4001 167.693 14.7151 166.28 15.6845C165.224 16.407 163.922 18.1978 163.91 20.007L163.793 39.273H156.258V9.89239L163.756 9.88004L163.972 13.1466C166.144 10.3432 168.828 9.15139 172.296 9.18844C176.838 9.24402 180.658 12.4612 180.689 17.3086L180.843 39.2668L173.389 39.2915L173.358 19.3031C173.358 17.8705 172.617 16.1724 171.395 15.3943Z" fill="black"/>
<path d="M84.2839 34.9567C87.0732 34.8641 88.7887 32.9746 88.8875 30.2699L96.3915 30.2576C96.1384 34.5986 93.3923 37.9207 89.3256 39.1743C82.6609 41.2305 74.657 39.6127 72.3058 32.4373C70.7754 27.7629 70.7631 22.6376 71.9973 17.8705C73.8548 10.689 80.4331 8.26225 87.6039 9.4849C95.4473 11.2262 96.9222 18.5374 96.6938 26.4044L78.4707 26.4229C78.6188 30.838 79.6494 35.1111 84.29 34.9567H84.2839ZM89.3441 21.3038C89.2577 19.3278 89.0171 16.9505 87.4002 15.3264C85.5674 13.4925 81.945 13.7333 80.3344 15.7772C79.0878 17.358 78.7731 19.2908 78.5263 21.2977H89.3441V21.3038Z" fill="black"/>
<path d="M138.837 34.9382C141.836 35.0987 143.823 33.1413 143.99 30.2637H151.444C151.265 34.1046 149 37.3032 145.452 38.7605C141.78 40.2672 137.633 40.366 133.826 39.1186C125.797 36.4943 125.014 24.8359 127.272 17.2407C129.247 10.5902 135.727 8.34249 142.521 9.48487C150.235 10.7754 152.172 18.7782 151.74 26.429H133.548C133.739 30.8874 134.579 34.7159 138.831 34.9444L138.837 34.9382ZM144.471 21.2853C144.261 19.0252 143.909 17.5556 143.089 15.8451C141.095 13.5974 137.208 13.406 135.301 15.913C134.153 17.4197 133.832 19.4143 133.591 21.3161L144.471 21.2914V21.2853Z" fill="black"/>
<path d="M278.093 39.0507C274.2 37.8157 272.212 34.1786 272.453 30.5292L279.686 30.5662C279.957 32.0359 280.358 33.345 281.148 34.0366C283.154 35.7903 287.245 35.3889 288.307 33.0547C288.831 31.8938 288.936 30.066 287.727 29.2139C283.981 26.5772 273.928 27.417 272.959 19.655C272.459 15.6351 274.416 12.0721 278.18 10.4172C281.975 8.74997 286.424 8.78085 290.355 10.2814C293.472 11.467 295.446 14.2581 295.465 17.8643L288.091 17.9075C287.831 15.2214 286.369 13.9123 283.765 14.0172C281.79 14.0975 280.488 15.2028 280.253 16.8022C279.963 18.7596 281.16 19.9761 283.092 20.5751L291.411 23.1377C294.2 23.996 295.656 26.4907 295.946 29.3003C296.36 33.3388 294.416 36.9326 290.608 38.6122C286.77 40.3042 282.296 40.3783 278.1 39.0445L278.093 39.0507Z" fill="black"/>
<path d="M209.6 32.7398L209.569 39.273H186.971L186.977 0.0123701L194.839 0.00619507V32.7213L209.6 32.7398Z" fill="black"/>
<path d="M117.2 9.94168L124.772 9.91698L115.639 39.2667L107.45 39.2605L98.3047 9.9108L105.87 9.8614L111.486 31.8197L117.2 9.94168Z" fill="black"/>
<path d="M7.86192 0H0V39.2853H7.86192V0Z" fill="black"/>
<path d="M23.4507 0H15.5703V39.2915H23.4507V0Z" fill="black"/>
<path d="M66.6854 0H59.2246V39.2853H66.6854V0Z" fill="black"/>
</svg>
