<svg width="50" height="50" viewBox="0 0 50 50" fill="none" xmlns="http://www.w3.org/2000/svg">
  <clipPath id="envatoOnGreenClip">
    <rect width="50" height="50" fill="white"/>
  </clipPath>
  <g clip-path="url(#envatoOnGreenClip)">
    <path d="M25 50C38.8071 50 50 38.8071 50 25C50 11.1929 38.8071 0 25 0C11.1929 0 0 11.1929 0 25C0 38.8071 11.1929 50 25 50Z" fill="#87E64B"/>
    <path d="M25.8112 41.9681C26.6484 41.9681 27.3271 41.2894 27.3271 40.4521C27.3271 39.6149 26.6484 38.9362 25.8112 38.9362C24.9739 38.9362 24.2952 39.6149 24.2952 40.4521C24.2952 41.2894 24.9739 41.9681 25.8112 41.9681Z" fill="#191919"/>
    <path d="M34.5279 30.113L25.9774 31.0306C25.8178 31.0439 25.738 30.8511 25.8644 30.7513L34.2287 24.2354C34.7673 23.7899 35.1197 23.0984 34.9734 22.3604C34.8271 21.2234 33.8896 20.4854 32.6995 20.6316L23.6104 21.9614C23.4508 21.9814 23.3644 21.7819 23.4907 21.6822L32.5 14.8005C34.2753 13.4176 34.4215 10.7048 32.7992 9.12234C31.3231 7.64628 28.9428 7.69282 27.4668 9.16888L12.9455 23.9428C12.4069 24.5346 12.1543 25.3258 12.3072 26.1636C12.5532 27.5 13.8896 28.3843 15.2261 28.1383L23.0585 26.5426C23.2314 26.5027 23.3178 26.7354 23.1782 26.8285L14.4947 32.387C13.4109 33.0785 12.9122 34.3085 13.258 35.5452C13.6037 37.1742 15.2327 38.1117 16.8152 37.7194L29.8005 34.5213C29.9468 34.4814 30.0532 34.6543 29.9601 34.7673L27.9322 37.2673C27.3936 37.9588 28.2779 38.8963 29.016 38.3511L35.6848 32.8723C36.875 31.8883 36.0838 29.9535 34.5479 30.1064H34.5346L34.5279 30.113Z" fill="#191919"/>
  </g>
</svg>
