<svg width="170.98574829101562" height="50" viewBox="0 0 277.92181396484375 81.27045440673828" fill="none" xmlns="http://www.w3.org/2000/svg">
  <g fill="#8AE548" transform="translate(0 0) scale(1.625743 1.625481)">
    <path d="M26.0006 39.4565C26.1069 39.3246 26.0729 39.163 26.0006 39.0907C25.9538 39.0439 25.907 39.0354 25.7454 39.0737L6.27032 43.7904C3.89707 44.3646 1.79177 42.506 1.39623 40.3156C1.09 38.6271 1.61314 36.9684 3.07622 36.0327L16.0568 27.6965C16.1759 27.62 16.2142 27.5264 16.1844 27.4456C16.1546 27.3563 16.0313 27.2627 15.8696 27.2925L4.14801 29.6444C2.68918 29.9379 1.23461 29.0448 0.532842 27.9092C-0.253989 26.6332 -0.16042 24.9745 0.754005 23.7751L2.43399 21.993L9.222 15.0817L15.0403 9.16556L21.2201 2.89643C21.9516 2.15638 22.5683 1.3738 23.4615 0.837907C25.184 -0.195607 27.2595 -0.301935 29.0586 0.680541C30.6535 1.55244 31.7849 3.24944 31.9295 5.16761C32.0954 7.40051 31.0406 9.09326 29.3308 10.3947L16.631 20.0536C16.5076 20.1472 16.4778 20.2407 16.4778 20.3216C16.4778 20.3939 16.5672 20.5342 16.7288 20.5087L30.2665 18.5565C32.0273 18.3013 33.4138 19.6708 33.5159 21.3848C33.5712 22.278 33.2267 23.2052 32.4654 23.7964L20.076 33.4553C19.9612 33.5446 19.9399 33.6296 19.9697 33.7105C20.0079 33.8083 20.1015 33.8933 20.2801 33.8763L32.5249 32.5451C33.6095 32.426 34.5367 32.7748 35.047 33.7275C35.5064 34.5823 35.4596 35.7945 34.5962 36.5048L24.4993 44.7941C24.0314 45.1769 23.2701 44.7941 23.0192 44.4241C22.6917 43.9265 22.7597 43.4289 23.151 42.9483L25.9879 39.4607L26.0006 39.4565Z"/>
  </g>
  <g fill="#8AE548" transform="translate(28.8205 73.9805) scale(1.624327 1.626203)">
    <path d="M2.2414 4.48281C3.4793 4.48281 4.48281 3.4793 4.48281 2.24141C4.48281 1.00351 3.4793 0 2.2414 0C1.00351 0 0 1.00351 0 2.24141C0 3.4793 1.00351 4.48281 2.2414 4.48281Z"/>
  </g>
  <g fill="#191919" transform="translate(78.1794 23.8285) scale(1.625175 1.625561)">
    <path d="M14.7284 13.8943L20.8827 15.2511C18.267 22.2177 8.45078 23.0131 3.49587 18.896C0.790879 16.6461 -0.140558 13.2393 0.0168082 9.81557C0.267743 4.2482 4.29121 0.292775 9.86707 0.0205736C13.4525 -0.153805 17.0634 0.756368 19.3516 3.66977C21.2357 6.0728 21.6355 9.15207 21.2357 12.2654L6.31995 12.2739C6.51985 14.7194 8.60389 16.3994 11.092 16.3229C12.6614 16.3101 13.9246 15.753 14.7369 13.8943H14.7284ZM15.2048 8.42904C14.7879 5.56667 12.8443 4.80961 10.7815 4.86916C8.51882 4.81387 6.68572 6.23442 6.39226 8.48858L15.2048 8.42904Z"/>
  </g>
  <g fill="#191919" transform="translate(116.0046 23.7554) scale(1.625775 1.625354)">
    <path d="M6.32867 8.71804L6.2436 20.7417L0 20.7757V0.688105L6.18406 0.675344L6.39246 3.01883C8.821 -0.46875 13.9205 -1.04718 17.1061 1.87473C18.5139 3.16343 19.3986 5.3538 19.4071 7.31025L19.4709 20.7587H13.1762L13.1507 8.88817C13.1507 6.86367 11.7216 5.43887 9.91831 5.34955C8.22556 5.26449 6.34568 6.53618 6.32867 8.71804Z"/>
  </g>
  <g fill="#191919" transform="translate(147.7154 24.8037) scale(1.625007 1.62528)">
    <path d="M22.5586 0.0978221L15.3879 20.1131L7.20056 20.1216L0 0.0765567L6.61363 0L11.2878 15.256L15.9408 0.0255194L22.5586 0.0978221Z"/>
  </g>
  <g fill="#191919" transform="translate(183.9564 23.731) scale(1.62479 1.625538)">
    <path d="M5.9024 21.3559C2.47012 20.9901 0.101127 18.5871 0.00330533 15.5078C-0.0945168 12.2797 1.98526 9.62144 5.40478 9.0898C9.12627 8.51137 11.9078 9.40878 12.852 8.06904C13.188 7.59269 13.171 6.41882 12.7967 5.90845C11.9504 4.7601 10.5596 4.47088 9.24112 4.624C7.50584 4.82815 6.2384 5.7766 6.01299 7.77983L0.211705 6.84839C0.998535 0.341081 9.66217 -1.31339 15.2423 0.974801C17.7049 1.9828 19.3253 4.65802 19.3508 7.39279L19.4827 20.7562L13.6048 20.7945L13.4134 17.7492C11.8525 20.4329 9.16881 21.7004 5.89815 21.3516L5.9024 21.3559ZM13.171 12.6071L8.26289 12.688C7.23363 12.705 6.30645 13.7853 6.27242 14.6061C6.22989 15.6694 6.91039 16.6051 8.03747 16.8007C10.7255 17.2643 13.0689 15.3674 13.1753 12.6029L13.171 12.6071Z"/>
  </g>
  <g fill="#191919" transform="translate(217.2237 15.6202) scale(1.624982 1.625639)">
    <path d="M14.4649 25.7613C12.0236 26.3142 9.25057 26.3142 6.94112 25.0085C4.95916 23.8899 3.88737 21.4741 3.85334 19.1477L3.73425 10.7009L0 10.6541L0.0170162 5.72048L2.55614 5.66944C3.5854 5.64817 4.40625 4.70398 4.4105 3.67472L4.42326 0L10.0331 0.0297719V5.66944L14.4436 5.69071L14.4522 10.6499L10.0459 10.6924L10.0161 17.6293C10.0161 18.599 10.4032 19.8324 11.0114 20.2407C12.0194 20.9212 13.206 20.8404 14.4266 20.5384L14.4692 25.7528L14.4649 25.7613Z"/>
  </g>
  <g fill="#191919" transform="translate(242.32 23.3896) scale(1.625385 1.625135)">
    <path d="M21.9036 10.9518C21.9036 16.9998 16.9998 21.9037 10.9518 21.9037C4.90387 21.9037 0 16.9998 0 10.9518C0 4.90387 4.90387 0 10.9518 0C16.9998 0 21.9036 4.90387 21.9036 10.9518ZM15.6728 10.7945C15.6175 8.56583 14.6138 6.70295 12.955 6.00969C11.0241 5.2016 8.83376 5.51633 7.49402 7.12402C6.33292 8.51905 6.03946 10.4159 6.32017 12.1895C6.76249 14.9966 9.0847 16.6808 11.7684 16.2598C14.2012 15.8812 15.7409 13.6611 15.6728 10.7987V10.7945Z"/>
  </g>
</svg>
