<svg width="50" height="46.75" viewBox="0 0 50 46.75" fill="none" xmlns="http://www.w3.org/2000/svg">
  <g transform="translate(8.0308 -0.625)">
    <path d="M19.1659 48C20.3504 48 21.3107 47.0398 21.3107 45.8552C21.3107 44.6707 20.3504 43.7104 19.1659 43.7104C17.9814 43.7104 17.0211 44.6707 17.0211 45.8552C17.0211 47.0398 17.9814 48 19.1659 48Z" fill="#87E64B"/>
    <path d="M31.4986 31.2354L19.4037 32.5318C19.1797 32.5522 19.0643 32.2739 19.2476 32.1313L31.0846 22.9142C31.8515 22.283 32.347 21.3124 32.1366 20.2604C31.9262 18.6586 30.5959 17.6066 28.9194 17.817L16.0575 19.6971C15.8336 19.7242 15.7114 19.4392 15.8947 19.2966L28.6411 9.56368C31.1524 7.60894 31.3628 3.76735 29.062 1.53434C26.9715 -0.556143 23.6118 -0.48827 21.5145 1.60221L0.969444 22.507C0.202482 23.3486 -0.150456 24.4617 0.0599493 25.6495C0.412887 27.5364 2.29296 28.792 4.18661 28.4459L15.2634 26.1857C15.501 26.1314 15.6299 26.4572 15.4263 26.5929L3.14137 34.4594C1.60066 35.4367 0.908358 37.1811 1.39704 38.9322C1.88572 41.2331 4.1934 42.5634 6.42641 42.0068L24.7928 37.4865C25.0032 37.4322 25.1525 37.6765 25.0167 37.8394L22.1525 41.3824C21.3856 42.3598 22.6412 43.6833 23.6932 42.9231L33.1275 35.172C34.804 33.7739 33.6909 31.0454 31.5257 31.2558H31.5054L31.4986 31.2354Z" fill="#87E64B"/>
  </g>
</svg>
