<svg width="50" height="50" viewBox="0 0 50 50" fill="none" xmlns="http://www.w3.org/2000/svg">
<g clip-path="url(#clip0_12274_102)">
<path d="M25 50C38.8071 50 50 38.8071 50 25C50 11.1929 38.8071 0 25 0C11.1929 0 0 11.1929 0 25C0 38.8071 11.1929 50 25 50Z" fill="#F3F3F4"/>
<path d="M35.7852 25.891L35.7586 25.6516C35.5525 23.3444 34.0498 19.0093 29.8876 19.0093C26.7958 19.0093 24.4687 22.0545 22.4075 24.7473C20.7653 26.895 19.3424 28.7434 17.7732 28.7434C17.3543 28.7035 16.8158 28.4907 16.49 28.0186C16.1974 27.5931 16.1176 27.0479 16.2706 26.3896C16.5099 25.3524 17.8863 24.3883 19.349 23.3644C20.1469 22.8192 20.9647 22.2407 21.5365 21.6822C23.1788 20.0997 24.0099 18.9495 24.0099 17.1077C24.0099 15.266 22.986 14.3418 22.1416 13.9495C20.4328 13.1583 17.9262 13.6237 16.3238 15C16.0844 15.2194 15.845 15.4255 15.619 15.625C14.0099 17.0545 12.9262 18.0253 10.4395 17.2872V20.2859C13.7373 21.7354 16.5099 18.9694 17.5538 17.6862C18.365 16.8484 19.2227 16.3497 19.8543 16.3497H19.8876C20.1735 16.3564 20.4129 16.4694 20.5924 16.6689C20.8783 16.9947 20.9847 17.3803 20.9315 17.8059C20.8118 18.7035 19.8809 19.754 18.1722 20.8976C16.1708 22.2407 12.8198 24.4947 12.5538 27.3205C12.3543 29.3551 13.4115 31.383 15.0538 32.1742C18.8836 33.9894 21.224 30.8644 23.6974 27.5665C25.5924 25.02 27.3876 22.6064 29.8809 22.6064C32.1283 22.6064 32.9594 24.4614 32.9594 25.6317V25.8577L32.74 25.8976C27.3012 26.8617 24.3291 31.9481 24.3291 34.3019C24.3291 36.6556 26.3238 38.6569 28.7772 38.6569C31.6429 38.6569 35.1934 36.2101 35.7653 29.3285L35.7918 29.0758H38.0591V25.8976H35.7785L35.7852 25.891ZM32.8198 29.4149C32.3809 33.5372 30.2732 35.4588 28.99 35.4588C28.4115 35.4588 27.6004 34.9801 27.6004 34.0825C27.6004 33.0785 29.103 30.0266 32.474 29.1223L32.8663 29.0226L32.8264 29.4149H32.8198Z" fill="#131313"/>
</g>
<defs>
<clipPath id="clip0_12274_102">
<rect width="50" height="50" fill="white"/>
</clipPath>
</defs>
</svg>
