<svg width="223" height="44" viewBox="0 0 223 44" fill="none" xmlns="http://www.w3.org/2000/svg">
<path d="M24.5179 36.5724C21.2119 35.0196 20.0439 31.608 21.3159 28.4083C23.2022 23.6556 28.4246 19.0778 33.7343 18.5232C33.8081 16.7015 33.2409 14.705 31.5997 13.7135C29.4617 12.4228 26.723 12.8698 24.7528 14.4193C22.7021 16.0293 21.1313 18.0795 19.5774 20.1971C18.057 22.2709 16.5802 24.106 14.7879 25.9647C12.1163 28.7343 7.67253 29.0402 5.04789 26.079C3.15493 23.9413 2.52059 20.7516 3.86647 18.2711C6.82338 12.8295 12.3244 11.5859 15.1638 7.57942C16.013 6.38286 16.06 4.55442 14.6939 3.81497C13.7542 3.30744 12.2203 3.75447 11.435 4.51072L7.72287 8.09367C5.69902 10.0465 2.7891 10.5742 0.0402757 9.68684L0 5.74761C2.21852 6.26523 4.27594 5.97281 5.99102 4.50736L9.29363 1.68066C12.029 -0.658673 17.869 -0.803201 19.3424 2.83353C21.0474 7.04164 17.5166 10.8868 13.9421 13.4177C12.3412 14.5504 10.8979 15.6394 9.41446 16.9334C7.94775 18.214 7.38724 20.5601 8.78683 22.1095C9.84071 23.2758 11.8042 23.0406 13.0326 22.1163C14.261 21.1919 15.3484 20.0223 16.3117 18.7787L20.3191 13.616C21.7388 11.7875 23.4338 10.2448 25.461 9.13898C28.6495 7.39792 32.4623 8.24156 34.6439 11.112C36.3119 13.3068 37.0705 15.9184 37.3423 18.614L40.7557 18.6745L40.7255 22.7582L37.386 22.7246C36.8825 27.2588 36.0602 31.5139 32.7509 34.7843C30.5894 36.9186 27.3707 37.9169 24.5111 36.5724H24.5179ZM32.1132 28.8654C32.9959 26.9159 33.3282 24.8287 33.6303 22.7044C28.626 22.9599 22.9605 29.7594 25.8805 32.4282C27.703 34.0986 30.6566 32.0853 32.1166 28.8654H32.1132Z" fill="black"/>
<path d="M73.5396 35.2952L68.3944 35.312L68.3877 22.9666L55.3048 22.9632V35.2952L50.3777 35.3187L50.1797 31.6618L50.1562 6.52737L55.2981 6.51393L55.3082 18.177L68.3944 18.1871L68.3978 6.52401H73.5564L73.5396 35.2952Z" fill="black"/>
<path d="M105.148 40.7536C102.6 44.0643 96.3674 44.3332 92.068 43.7248C88.913 43.2778 85.7984 41.6476 86.2414 38.4344C86.5066 36.5051 87.9129 35.2481 89.6414 34.4078C87.8625 33.8935 86.52 32.3978 87.0369 30.7005C87.5504 29.0132 89.2285 28.257 90.9101 28.0049C88.4667 26.815 87.0637 24.4824 87.2416 21.8473C87.4128 19.2895 89.0775 17.1384 91.635 16.1771C95.6257 14.6747 98.9786 16.3149 100.314 14.594C100.955 13.7672 100.939 12.5068 100.935 11.4144L105.718 11.3942C105.896 12.4026 105.879 13.7974 105.282 14.7553C104.386 16.1973 102.865 16.6241 101.117 16.7687C103.369 18.1635 104.52 20.3516 104.349 22.9027C104.184 25.3597 102.583 27.4738 100.12 28.4788C95.8942 30.2064 92.0546 27.9309 91.6585 30.1325C91.531 30.845 92.1351 31.487 92.9775 31.4937L100.761 31.5643C102.248 31.5777 104.006 32.1424 105.013 33.265C106.842 35.3052 106.772 38.6294 105.134 40.7569L105.148 40.7536ZM99.2136 24.1766C99.6969 22.9161 99.67 21.3364 99.0323 20.234C98.2939 18.9601 96.8373 18.6576 95.5116 18.7013C93.4206 18.7685 92.1116 20.1231 92.1452 22.2036C92.162 23.2657 92.454 24.4219 93.1655 25.0807C94.8504 26.6403 98.3644 26.3983 99.2169 24.1799L99.2136 24.1766ZM101.536 38.4042C101.764 37.621 101.741 36.4614 101.17 36.0178C100.103 35.1876 98.7873 35.3657 97.5589 35.4094L93.038 35.564C91.8431 35.6044 91.1551 36.7471 91.0644 37.7286C90.9671 38.7739 91.5813 39.7049 92.7795 40.0477C95.8808 40.9384 100.929 40.4914 101.539 38.4042H101.536Z" fill="black"/>
<path d="M127.513 40.0444C124.824 44.555 116.064 44.75 111.04 42.9047C109.338 42.2796 108.113 40.8511 108.1 39.1302C108.083 37.043 109.432 35.3691 111.342 34.4717C110.56 34.0045 109.697 33.4869 109.207 32.7575C108.496 31.6988 108.778 30.3174 109.681 29.4704C110.503 28.7007 111.584 28.2604 112.694 27.9612C110.536 26.7579 109.18 24.7614 109.13 22.5028C109.076 20.0928 110.258 17.8812 112.439 16.6511C116.098 14.5907 120.226 16.0931 121.777 15.0276C122.861 14.2781 122.968 12.8765 122.861 11.438L127.563 11.3808C127.919 13.1521 127.58 15.0747 125.918 15.9755C125.109 16.4124 124.056 16.6007 123.123 16.799C125.559 18.3518 126.653 20.7785 126.17 23.5682C125.764 25.9076 123.935 27.9142 121.381 28.6906C117.319 29.9275 113.973 28.1192 113.57 30.0821C113.426 30.798 113.97 31.4501 114.765 31.4635L123.139 31.5946C124.774 31.6215 126.492 32.4315 127.368 33.786C128.556 35.6246 128.644 38.1387 127.509 40.0377L127.513 40.0444ZM120.827 24.7379C121.736 23.2523 121.669 21.3634 120.78 19.9987C120.048 18.8761 118.706 18.6778 117.474 18.6913C115.427 18.7081 114.071 20.1231 114.087 22.1969C114.094 23.2456 114.413 24.4119 115.118 25.0942C116.558 26.4857 119.813 26.3882 120.823 24.7379H120.827ZM123.569 37.211C123.485 36.3909 122.589 35.359 121.471 35.3826L115.185 35.5069C114.107 35.5271 113.191 36.4548 113.003 37.2715C112.782 38.2362 113.05 39.3756 114.081 39.7957C117.595 41.2309 123.911 40.6158 123.569 37.211Z" fill="black"/>
<path d="M218.083 32.9054C216.707 34.7104 214.881 35.7523 212.723 35.8094C209.437 35.9002 206.557 34.3843 205.118 31.3022C203.426 27.6755 203.386 23.138 205.245 19.5954C206.896 16.4494 209.998 14.9873 213.414 15.4276C215.395 15.6831 216.787 16.9166 218.106 18.5266V6.53076L222.909 6.53748L222.956 27.047L223 35.2985L218.221 35.3154L218.086 32.9088L218.083 32.9054ZM217.415 21.8171C216.764 20.3449 215.287 19.6089 213.924 19.4879C212.421 19.3534 210.756 19.7937 209.924 21.2323C208.42 23.8237 208.521 27.3361 209.964 29.9376C210.823 31.487 212.488 31.9408 214.123 31.729C218.086 31.2114 219.029 25.4774 217.415 21.8205V21.8171Z" fill="black"/>
<path d="M188.208 28.7578L191.937 30.5661C190.799 34.623 186.174 36.3439 181.751 35.8061C178.452 35.4061 175.683 33.2785 174.541 30.1056C173.38 26.8823 173.558 23.2926 175.015 20.2643C176.508 17.162 179.291 15.5654 182.603 15.3369C185.909 15.1117 189.319 16.1133 191.014 19.1349C192.353 21.5213 192.531 24.227 192.333 26.9999L178.801 26.9831C179.089 29.8804 180.714 31.803 183.624 31.8131C185.654 31.9139 187.363 30.8417 188.208 28.7545V28.7578ZM187.316 23.5346C187.171 22.0121 186.869 21.0844 186.201 20.0357C184.513 18.7081 182.009 18.5131 180.371 20.0492C179.455 20.9096 179.15 22.2204 178.921 23.5481L187.319 23.5346H187.316Z" fill="black"/>
<path d="M143.207 34.465C138.565 37.3421 129.949 36.1019 129.033 30.267L133.406 28.9897C134.279 31.9341 137.045 32.855 139.636 31.9845C140.545 31.6786 140.955 30.7274 140.911 29.9241C140.867 29.1208 140.206 28.3041 139.287 28.0554L133.923 26.6C131.822 26.0286 130.121 24.4858 129.678 22.3314C129.06 19.3131 131.02 16.4931 133.964 15.7369C138.545 14.5605 143.945 15.7066 145.707 20.2844L141.374 21.7835C140.414 19.3164 137.488 18.2073 135.098 19.4374C134.454 19.7702 134.306 20.8726 134.494 21.4911C134.648 22.002 135.323 22.6641 136.001 22.8557L141.707 24.4623C143.848 25.064 145.365 26.8857 145.66 28.7881C146.006 31.0367 145.197 33.2416 143.214 34.4717L143.207 34.465Z" fill="black"/>
<path d="M156.474 19.9046L156.444 35.2918L151.591 35.322L151.584 19.9214L147.845 19.9113L147.832 15.999L151.571 15.9385L151.658 11.2833C151.719 8.03312 154.581 5.78117 157.753 5.95595C159.099 6.02989 160.15 6.17778 161.579 6.56431L160.747 10.6615C159.609 10.3254 158.599 10.1204 157.438 10.4598C156.897 10.6178 156.448 11.7203 156.448 12.258L156.441 15.9654L161.063 15.9519V19.9147L156.478 19.9046H156.474Z" fill="black"/>
<path d="M200.869 6.51052H195.922V35.3187H200.869V6.51052Z" fill="black"/>
<path d="M169.918 15.4444H164.877V35.3154H169.918V15.4444Z" fill="black"/>
<path d="M83.1414 15.4377H78.1874V35.3153H83.1414V15.4377Z" fill="black"/>
<path d="M80.6687 12.5169C82.3184 12.5169 83.6558 11.1776 83.6558 9.52548C83.6558 7.87338 82.3184 6.53408 80.6687 6.53408C79.019 6.53408 77.6816 7.87338 77.6816 9.52548C77.6816 11.1776 79.019 12.5169 80.6687 12.5169Z" fill="black"/>
<path d="M167.437 12.5202C169.085 12.5202 170.421 11.1824 170.421 9.53213C170.421 7.88188 169.085 6.54409 167.437 6.54409C165.789 6.54409 164.453 7.88188 164.453 9.53213C164.453 11.1824 165.789 12.5202 167.437 12.5202Z" fill="black"/>
</svg>
