<svg preserveAspectRatio="xMidYMid meet" width="50" height="50" viewBox="0 0 50 50" fill="none" xmlns="http://www.w3.org/2000/svg">
<g clip-path="url(#clip0_12274_91)">
<path d="M25 50C38.8071 50 50 38.8071 50 25C50 11.1929 38.8071 0 25 0C11.1929 0 0 11.1929 0 25C0 38.8071 11.1929 50 25 50Z" fill="#FF5C35"/>
<path d="M29.9131 22.0279V18.9029C30.7309 18.5173 31.3027 17.6928 31.3027 16.7354V16.6622C31.3027 15.3391 30.219 14.262 28.9025 14.262H28.8293C27.5062 14.262 26.4291 15.3457 26.4291 16.6622V16.7354C26.4291 17.6928 27.0009 18.5173 27.8187 18.9029V22.0279C26.6019 22.2141 25.4982 22.7128 24.5807 23.4508L16.0035 16.7819C16.0567 16.5625 16.0966 16.3431 16.0966 16.1037C16.0966 14.6077 14.8865 13.391 13.3905 13.391C11.8945 13.391 10.6777 14.6011 10.6777 16.0971C10.6777 17.5931 11.8878 18.8098 13.3839 18.8098C13.8692 18.8098 14.3214 18.6702 14.7203 18.4442L23.1578 25.0067C22.4397 26.0904 22.0208 27.387 22.0208 28.7832C22.0208 30.1795 22.4796 31.5957 23.2642 32.7061L20.6977 35.2726C20.4916 35.2128 20.2854 35.1662 20.0594 35.1662C18.8293 35.1662 17.832 36.1636 17.832 37.3936C17.832 38.6237 18.8293 39.621 20.0594 39.621C21.2894 39.621 22.2868 38.6237 22.2868 37.3936C22.2868 37.1742 22.2469 36.9614 22.1804 36.7553L24.7203 34.2154C25.8706 35.0931 27.3067 35.625 28.8692 35.625C32.6525 35.625 35.7176 32.5598 35.7176 28.7766C35.7176 25.3524 33.2043 22.5266 29.9198 22.0146L29.9131 22.0279ZM28.8626 32.3005C26.9211 32.3005 25.3519 30.7314 25.3519 28.7899C25.3519 26.8484 26.9211 25.2793 28.8626 25.2793C30.8041 25.2793 32.3732 26.8484 32.3732 28.7899C32.3732 30.7314 30.8041 32.3005 28.8626 32.3005Z" fill="white"/>
</g>
<defs>
<clipPath id="clip0_12274_91">
<rect width="50" height="50" fill="white"/>
</clipPath>
</defs>
</svg>
