<svg preserveAspectRatio="xMidYMid meet" width="50" height="47" viewBox="0 0 50 47" fill="none" xmlns="http://www.w3.org/2000/svg">
<g clip-path="url(#clip0_12237_503)">
<path d="M36.8268 15.5094V10.0315C38.2639 9.35553 39.269 7.90706 39.269 6.23034V6.10744C39.269 3.78989 37.3646 1.8937 35.037 1.8937H34.9135C32.5859 1.8937 30.6815 3.78989 30.6815 6.10744V6.23034C30.6815 7.90706 31.6866 9.35553 33.1238 10.0315V15.5094C30.9901 15.8342 29.0328 16.712 27.4194 18.0113L12.3252 6.31813C12.4222 5.94065 12.4928 5.54561 12.4928 5.13302C12.4928 2.50821 10.3679 0.375 7.73176 0.375C5.09558 0.375 2.95312 2.49943 2.95312 5.11546C2.95312 7.74027 5.08676 9.86469 7.71413 9.87347C8.56934 9.87347 9.37166 9.62767 10.0682 9.24141L24.9243 20.7502C23.6635 22.6464 22.9229 24.92 22.9229 27.3693C22.9229 29.8185 23.734 32.3029 25.1094 34.2517L20.5953 38.7464C20.2338 38.641 19.8635 38.562 19.4756 38.562C17.3067 38.562 15.5521 40.309 15.5521 42.4685C15.5521 44.6281 17.3067 46.375 19.4756 46.375C21.6445 46.375 23.399 44.6281 23.399 42.4685C23.399 42.0823 23.3284 41.7048 23.2138 41.3536L27.6839 36.9029C29.7117 38.4479 32.2421 39.3697 34.9841 39.3697C41.6407 39.3697 47.0453 33.9971 47.0453 27.3605C47.0453 21.3559 42.6193 16.396 36.8356 15.5094H36.8268ZM34.9753 33.5231C31.5632 33.5231 28.7948 30.7666 28.7948 27.3693C28.7948 23.9719 31.5632 21.2155 34.9753 21.2155C38.3873 21.2155 41.1557 23.9719 41.1557 27.3693C41.1557 30.7666 38.3873 33.5231 34.9753 33.5231Z" fill="#FF5C35"/>
</g>
<defs>
<clipPath id="clip0_12237_503">
<rect width="50" height="46.75" fill="white"/>
</clipPath>
</defs>
</svg>
