<svg preserveAspectRatio="xMidYMid meet" width="177" height="50" viewBox="0 0 177 50" fill="none" xmlns="http://www.w3.org/2000/svg">
<path d="M140.068 39.062L135.135 43.9225C135.561 45.9077 134.964 47.6191 133.424 48.6042C131.522 49.8212 129.518 49.4485 128.054 47.718C126.905 46.3641 126.802 44.4473 127.841 42.926C128.818 41.496 130.697 40.6289 132.511 41.2678L137.326 36.415C134.336 31.9348 134.154 26.4544 137.143 21.7879L121.204 9.3211C119.264 10.3936 117.23 10.2947 115.64 8.99403C114.05 7.69334 113.153 5.84879 113.735 3.84452C114.511 1.17088 117.074 -0.532944 119.759 0.151629C122.33 0.805776 124.239 3.41856 123.399 6.30898L139.646 19.004C141.601 17.5968 143.457 16.7563 145.708 16.3152C145.993 15.8207 146.168 14.9574 146.138 14.3565L145.917 10.192C143.689 9.12334 142.875 6.90228 143.647 4.55191C144.278 2.6313 146.305 1.4371 148.302 1.68051C150.154 1.9049 151.881 3.38814 152.192 5.30494C152.504 7.22174 151.721 9.37054 149.667 10.116L149.732 16.319C156.631 17.4333 161.427 23.7618 160.502 30.5809C159.94 34.7454 157.498 38.1758 153.881 40.1611C149.473 42.5799 144.191 42.3175 140.056 39.062H140.068ZM154.524 28.9569C154.524 25.245 151.515 22.2367 147.804 22.2367C144.092 22.2367 141.083 25.245 141.083 28.9569C141.083 32.6688 144.092 35.6771 147.804 35.6771C151.515 35.6771 154.524 32.6688 154.524 28.9569Z" fill="#FF5C35"/>
<path d="M25.2113 41.8002C23.1766 42.0094 21.2864 41.9562 19.2099 41.8117L19.1718 28.1468L6.08129 28.1772L6.0927 41.8497C3.9477 41.9448 2.08414 41.9372 0.00760636 41.8117L0 8.38168C2.07654 8.32464 3.90206 8.32464 6.08129 8.4045V22.5676L19.168 22.5638L19.2023 8.32464L25.2075 8.38929V41.7964L25.2113 41.8002Z" fill="#FF5C35"/>
<path d="M75.8658 20.685C80.5133 25.4998 80.5665 33.1062 75.9343 37.8031C72.6179 41.1652 68.0465 42.7245 63.4903 41.5379C58.3788 40.2067 54.6517 34.9584 54.6326 29.5807L54.5566 8.69358C56.5723 8.53385 58.3179 8.53385 60.345 8.63654L60.4287 19.6467C65.0762 15.1514 71.7774 16.4445 75.8658 20.6812V20.685ZM73.9756 29.5008C73.9756 25.7737 70.9521 22.7501 67.225 22.7501C63.4979 22.7501 60.4743 25.7737 60.4743 29.5008C60.4743 33.2279 63.4979 36.2514 67.225 36.2514C70.9521 36.2514 73.9756 33.2279 73.9756 29.5008Z" fill="#FF5C35"/>
<path d="M111.628 41.0092L111.777 46.5809C111.807 47.7636 111.662 48.8552 111.404 49.9999L106.201 49.9391L106.228 26.7663C107.323 21.9705 110.434 18.2738 115.043 16.897C119.912 15.874 124.589 17.4941 127.826 21.2631C130.325 24.1763 131.329 27.9909 130.424 32.0147C129.693 35.2664 127.423 38.4573 124.084 40.2638C120.17 42.3821 115.218 42.2718 111.868 38.9022L111.624 41.0054L111.628 41.0092ZM125.441 29.052C125.441 25.3097 122.406 22.2747 118.664 22.2747C114.922 22.2747 111.887 25.3097 111.887 29.052C111.887 32.7943 114.922 35.8293 118.664 35.8293C122.406 35.8293 125.441 32.7943 125.441 29.052Z" fill="#FF5C35"/>
<path d="M99.2699 39.0543C93.9074 43.7247 85.7952 42.5875 81.4862 36.9436L83.7035 34.6921L85.4796 32.703L86.9818 34.3612C88.7085 36.2666 91.9602 36.6964 94.1166 35.4489C95.5276 34.6312 96.1019 33.0453 95.8965 31.7104C95.6683 30.2348 94.611 29.2231 93.1278 28.645L87.5333 26.4658C83.8556 25.0358 81.8589 21.7917 81.9692 17.863C82.0833 13.8849 84.3576 10.4202 88.2901 9.09668C93.3636 7.38905 98.0643 8.53381 101.62 12.6222L98.707 16.0147L98.0719 16.684C97.6307 17.1518 95.4705 13.8811 91.8385 14.1207C89.9369 14.2462 88.7237 15.1704 88.2863 16.9617C87.8375 18.8176 88.7351 20.3769 90.5682 21.0159L96.1285 22.9593C100.129 24.355 102.278 27.9795 102.202 32.1059C102.153 34.7491 101.445 37.1566 99.2737 39.0467L99.2699 39.0543Z" fill="#FF5C35"/>
<path d="M45.4939 16.9313L50.6472 16.9617L50.7157 30.6722C50.7347 34.0988 49.5177 36.9474 46.962 39.2255C42.9648 42.7853 36.9482 42.8652 32.9244 39.3358C30.2128 36.9588 29.0414 34.0037 29.0528 30.4326L29.106 16.9389H34.7043L34.7842 31.8511C34.7994 34.6237 37.5719 36.2971 39.9641 36.278C42.5655 36.2552 44.6877 34.3422 45.0414 31.6191L45.2886 29.7138C45.3722 26.192 45.376 22.8376 45.2772 19.3235C45.2543 18.5248 44.9919 17.593 45.4901 16.9237L45.4939 16.9313Z" fill="#FF5C35"/>
<path d="M170.204 33.0986C170.124 35.0839 171.447 36.4796 173.345 36.6051L176.555 36.8143L175.6 40.705C175.471 41.2336 174.95 42.0018 174.361 41.96L170.477 41.6862C167.222 41.0929 164.583 38.4116 164.575 34.9279L164.537 13.4894L170.01 11.0287L170.162 14.7977L170.105 17.555L175.566 17.6082L175.532 22.4079L171.192 22.4307C170.896 22.4307 170.31 22.7159 170.177 22.9137L170.204 33.1024V33.0986Z" fill="#FF5C35"/>
</svg>
