<svg width="267" height="44" viewBox="0 0 267 44" fill="none" preserveAspectRatio="xMidYMid meet" xmlns="http://www.w3.org/2000/svg">
<path d="M47.7478 33.2237L35.9085 33.3486L23.8032 18.2742L11.879 33.2577L0 33.2407L9.45227 0.162185L19.0346 0.111085L23.7976 11.6255L28.6057 0.196251L38.222 0.0486298L47.7478 33.2237Z" fill="black"/>
<path d="M90.3372 20.392L81.0886 0.196292L72.0889 0.0657043V33.2918L77.3552 33.1499L77.5249 5.89106L90.3712 33.1272L102.929 5.87403L103.257 33.3202L108.591 33.2918L108.603 0.111126L99.4784 0.173581L90.3372 20.392Z" fill="black"/>
<path d="M221.102 9.8314C221.102 7.24803 221.498 4.66466 222.51 4.61924C223.868 4.55111 226.617 4.69305 227.799 3.39853C228.376 2.7683 228.133 0.133829 228.133 0.133829L224.445 0.0089187C221.967 -0.0705696 218.669 0.360939 217.176 2.12671C215.813 3.73919 215.615 7.31617 215.519 9.72353L211.802 10.1266C211.044 10.2061 211.22 12.4261 211.253 13.9023L215.717 14.2828L215.694 33.2464L221.096 33.2294L221.034 14.1635H232.313L232.285 33.3088L237.715 33.2066V9.95632L221.096 9.8314H221.102Z" fill="black"/>
<path d="M138.91 9.52487L133.65 9.4397C133.65 9.4397 133.678 10.9216 133.344 12.3694C128.491 7.82722 120.006 7.9351 115.492 13.3233C111.085 18.5865 111.561 27.1088 117.2 31.4523C122.421 35.4721 130.075 34.7113 134.662 29.5786C135.46 31.5488 136.099 33.4111 137.038 33.3316L141.394 32.9682C137.592 24.4914 138.916 9.52487 138.916 9.52487H138.91ZM125.928 29.4821C121.567 29.4821 118.032 25.9335 118.032 21.556C118.032 17.1785 121.567 13.6299 125.928 13.6299C130.29 13.6299 133.825 17.1785 133.825 21.556C133.825 25.9335 130.29 29.4821 125.928 29.4821Z" fill="black"/>
<path d="M190.12 9.25796C186.387 8.69586 182.857 10.0074 180.492 12.3637C180.294 10.8591 180.017 9.05356 180.017 9.05356L174.757 9.13872C174.757 9.13872 174.711 12.5624 174.841 17.3033L174.757 33.201L180.153 33.2748L180.142 19.6198C180.142 16.815 182.97 14.3225 185.352 13.7945C187.145 13.397 191.5 14.8165 191.546 16.9286L191.908 33.2294L197.304 33.2067L196.97 16.1507C196.897 12.4432 192.875 9.67243 190.12 9.25796Z" fill="black"/>
<path d="M249.736 27.0237C246.71 23.7476 247.083 17.8939 250.726 15.2764C254.341 12.6817 259.669 13.1018 262.175 17.9336L267 16.2246C264.483 10.8194 259.482 8.83787 254.018 9.22395C246.936 9.72359 242.094 15.3048 242.269 21.9421C242.439 28.4261 246.981 33.4679 253.956 33.9164C259.143 34.2514 263.912 32.7298 266.757 27.3075C265.982 26.6489 263.482 25.5645 262.085 25.3601C258.956 30.3395 252.955 30.4984 249.736 27.018V27.0237Z" fill="black"/>
<path d="M202.098 9.92633L202.065 33.3015L207.303 33.3089L207.336 9.93367L202.098 9.92633Z" fill="black"/>
<path d="M207.695 0.0544128H201.863V5.62995H207.695V0.0544128Z" fill="black"/>
<path d="M237.925 0.116867H232.2V5.62427H237.925V0.116867Z" fill="black"/>
<path d="M164.575 9.05927C164.575 9.05927 164.597 10.473 164.292 11.8925C159.043 7.99753 151.576 8.27006 147.13 12.9088C142.842 17.3772 142.921 24.7241 147.192 29.1755C151.729 33.905 158.426 34.24 164.117 29.8682C165.74 35.1655 162.437 38.8787 157.866 39.3841C153.793 39.8326 150.326 38.2372 148.674 34.206L144.188 36.3635C147.011 42.7169 152.673 44.5394 159.235 43.8695C165.389 43.2392 169.7 39.2024 169.694 33.0931L169.666 16.8037C169.79 12.3296 169.847 9.15011 169.847 9.15011L164.586 9.06494L164.575 9.05927ZM157.035 28.4998C152.905 28.4998 149.556 25.1386 149.556 20.9939C149.556 16.8491 152.905 13.4879 157.035 13.4879C161.164 13.4879 164.513 16.8491 164.513 20.9939C164.513 25.1386 161.164 28.4998 157.035 28.4998Z" fill="black"/>
</svg>
