<svg width="50" height="47" viewBox="0 0 50 47" fill="none" xmlns="http://www.w3.org/2000/svg">
<path d="M27.0559 25.8858C24.4184 27.6722 21.7349 29.3897 19.1664 31.2528C14.1444 34.8793 6.5616 33.6756 3.49474 28.6766C0.113533 23.1716 2.45968 15.0061 10.6252 13.626C15.4402 12.8133 19.8488 14.9141 21.9419 18.9087C22.2639 19.5144 22.4786 20.1814 22.7853 20.9021C24.4491 19.8287 26.0592 18.763 27.6923 17.7279C29.5937 16.5242 31.4032 15.1058 33.458 14.2317C38.6869 12.0006 44.9127 14.4234 47.1208 19.3304C50.065 25.8704 45.2577 33.2386 38.0122 33.3382C34.3013 33.3919 31.1501 32.2342 28.8883 29.244C28.16 28.2779 27.7153 27.1125 27.0482 25.8704V25.8858H27.0559ZM17.2113 23.4169C17.2113 20.6568 15.1335 18.4256 12.5573 18.4256C9.98115 18.4256 7.81135 20.6184 7.78835 23.3403C7.76535 26.1234 9.85848 28.3469 12.5113 28.3699C15.1028 28.4006 17.2036 26.1848 17.2113 23.4246V23.4169ZM42.1985 23.3786C42.1985 20.6414 40.0594 18.4026 37.4832 18.4333C34.8457 18.4563 32.7832 20.6261 32.7756 23.3786C32.7756 26.1925 34.8457 28.3699 37.5215 28.3699C40.1974 28.3699 42.2062 26.1311 42.1985 23.3786Z" fill="#E9FE57"/>
</svg>
