<svg width="249" height="40" viewBox="0 0 249 40" fill="none" xmlns="http://www.w3.org/2000/svg">
<path d="M128.585 10.193H121.523V39.8421H128.585V10.193Z" fill="#2C1929"/>
<path d="M241.265 0H234.473V29.6661H241.265V0Z" fill="#2C1929"/>
<path d="M107.928 10.4619H100.867V39.8421H107.928V10.4619Z" fill="#2C1929"/>
<path d="M90.1883 3.63092H83.127V30.1226H90.1883V3.63092Z" fill="#2C1929"/>
<path d="M25.8465 20.6635H18.7852V39.8421H25.8465V20.6635Z" fill="#2C1929"/>
<path d="M44.6375 20.6635H37.5762V39.8422H44.6375V20.6635Z" fill="#2C1929"/>
<path d="M97.0572 10.1931H79.4316V16.5291H97.0572V10.1931Z" fill="#2C1929"/>
<path d="M0 39.8421V10.1931H7.06131V32.7808C7.06131 36.6805 3.89972 39.8421 0 39.8421Z" fill="#2C1929"/>
<path d="M125.056 7.06559C127.007 7.06559 128.589 5.4839 128.589 3.53279C128.589 1.58169 127.007 0 125.056 0C123.105 0 121.523 1.58169 121.523 3.53279C121.523 5.4839 123.105 7.06559 125.056 7.06559Z" fill="#2C1929"/>
<path d="M96.7461 34.2186V39.9999H92.8122C90.0133 39.9999 83.127 39.1594 83.127 30.1226C83.127 21.0858 90.1883 30.1226 90.1883 30.1226C90.1883 30.1226 89.9365 34.2186 96.7418 34.2186H96.7461Z" fill="#2C1929"/>
<path d="M33.7718 10.1931C38.367 10.1931 44.6389 13.7942 44.6389 20.6635C44.6389 27.5328 37.5776 20.6635 37.5776 20.6635C37.5776 20.6635 37.8678 16.1579 31.9542 16.1579C27.8582 16.1579 25.8529 18.7051 25.8529 20.6635C25.8529 22.6219 20.3958 23.4411 20.3958 23.4411L18.7916 20.6635C18.7916 20.6635 17.9724 15.7312 13.8593 15.7312C9.74626 15.7312 7.0668 17.8048 7.0668 23.7184C7.0668 29.632 5.74414 17.7536 5.74414 17.7536C5.74414 17.7536 6.78947 10.1974 14.0257 10.1974C22.943 10.1974 24.1718 14.8438 24.1718 14.8438C24.1718 14.8438 27.2651 10.1974 33.7718 10.1974V10.1931Z" fill="#2C1929"/>
<path d="M248.461 34.0351C248.461 34.0351 241.268 35.217 241.268 29.6661C241.268 24.1152 234.475 27.6138 234.475 27.6138C234.475 27.6138 234.168 34.6239 236.404 36.8298C238.11 38.5109 240.675 39.9829 243.73 39.9829H248.457V34.0351" fill="#2C1929"/>
<path d="M63.1381 39.9957C54.8778 39.9957 48.1621 33.2757 48.1621 25.0198C48.1621 16.7638 54.8821 10.0438 63.1381 10.0438C71.394 10.0438 78.114 16.7638 78.114 25.0198V27.968H54.5408C55.7653 31.5349 59.1573 34.1077 63.1338 34.1077C66.1844 34.1077 69.0175 32.5888 70.7071 30.0416L75.6137 33.3013C72.8276 37.4955 68.1599 40 63.1295 40L63.1381 39.9957ZM54.5408 22.0715H71.7311C70.5066 18.5046 67.1146 15.9318 63.1381 15.9318C59.1615 15.9318 55.7695 18.5046 54.545 22.0715H54.5408Z" fill="#2C1929"/>
<path d="M147.267 39.9957C139.007 39.9957 132.291 33.2757 132.291 25.0198C132.291 16.7638 139.011 10.0438 147.267 10.0438C153.061 10.0438 158.39 13.4358 160.843 18.6923L155.506 21.184C154.017 17.9968 150.783 15.936 147.267 15.936C142.258 15.936 138.183 20.0107 138.183 25.0198C138.183 30.0288 142.258 34.1035 147.267 34.1035C150.318 34.1035 153.151 32.5845 154.84 30.0374L159.747 33.2971C156.961 37.4912 152.293 39.9957 147.263 39.9957H147.267Z" fill="#2C1929"/>
<path d="M178.461 39.9786C170.213 39.9786 163.502 33.2671 163.502 25.0197C163.502 16.7722 170.213 10.0608 178.461 10.0608C186.708 10.0608 193.42 16.7722 193.42 25.0197C193.42 33.2671 186.708 39.9786 178.461 39.9786ZM178.461 15.9488C173.46 15.9488 169.394 20.0149 169.394 25.0154C169.394 30.0159 173.46 34.0821 178.461 34.0821C183.461 34.0821 187.527 30.0159 187.527 25.0154C187.527 20.0149 183.461 15.9488 178.461 15.9488Z" fill="#2C1929"/>
<path d="M215.127 39.9786C206.879 39.9786 200.168 33.2671 200.168 25.0197C200.168 16.7722 206.879 10.0608 215.127 10.0608C223.374 10.0608 230.086 16.7722 230.086 25.0197C230.086 33.2671 223.374 39.9786 215.127 39.9786ZM215.127 15.9488C210.126 15.9488 206.06 20.0149 206.06 25.0154C206.06 30.0159 210.126 34.0821 215.127 34.0821C220.127 34.0821 224.193 30.0159 224.193 25.0154C224.193 20.0149 220.127 15.9488 215.127 15.9488Z" fill="#2C1929"/>
<path d="M205.901 13.2404L183.551 32.5329L187.401 36.9933L209.751 17.7008L205.901 13.2404Z" fill="#2C1929"/>
<path d="M117.338 10.193V16.4053C117.338 16.4053 107.93 14.9333 107.93 21.7429C107.93 28.5525 105.387 16.3754 105.387 16.3754L107.93 15.6245C107.93 15.6245 108.105 10.1973 117.338 10.1973V10.193Z" fill="#2C1929"/>
</svg>
