<svg width="50" height="50" viewBox="0 0 50 50" fill="none" xmlns="http://www.w3.org/2000/svg">
<g clip-path="url(#clip0_12274_34)">
<path d="M25 50C38.8071 50 50 38.8071 50 25C50 11.1929 38.8071 0 25 0C11.1929 0 0 11.1929 0 25C0 38.8071 11.1929 50 25 50Z" fill="black"/>
<path d="M26.6021 26.9548C24.5476 28.3444 22.4598 29.6875 20.4519 31.1303C16.5356 33.9561 10.6314 33.0186 8.23776 29.1223C5.60478 24.8404 7.43324 18.484 13.7963 17.4003C17.5529 16.7686 20.9838 18.4043 22.6128 21.516C22.8654 21.988 23.0316 22.5067 23.271 23.0652C24.5676 22.2274 25.8176 21.3963 27.0941 20.5918C28.5769 19.6543 29.9864 18.5505 31.5888 17.8657C35.6646 16.1237 40.5117 18.012 42.2338 21.8351C44.5277 26.9282 40.7843 32.6662 35.1394 32.746C32.2471 32.7926 29.7936 31.8883 28.0316 29.5612C27.4665 28.8098 27.1141 27.8989 26.5955 26.9348V26.9481L26.6021 26.9548ZM18.9359 25.0332C18.9359 22.879 17.3202 21.1436 15.3122 21.1436C13.3043 21.1436 11.6154 22.8524 11.5955 24.9668C11.5755 27.1343 13.2045 28.863 15.279 28.8896C17.3003 28.9096 18.9359 27.1875 18.9359 25.0332ZM38.3973 25C38.3973 22.8723 36.7351 21.1237 34.7205 21.1436C32.666 21.1569 31.0636 22.8524 31.0569 25C31.0569 27.1942 32.666 28.8896 34.7537 28.8896C36.8415 28.8896 38.404 27.1476 38.3973 25Z" fill="white"/>
</g>
<defs>
<clipPath id="clip0_12274_34">
<rect width="50" height="50" fill="white"/>
</clipPath>
</defs>
</svg>
