<svg preserveAspectRatio="xMidYMid meet" width="172" height="50" viewBox="0 0 172 50" fill="none" xmlns="http://www.w3.org/2000/svg">
<path d="M80.2786 39.0673L76.6472 39.1058L60.7401 20.1405L60.8428 39.1229L55.6973 39.0844V11.1797L59.9061 11.1668L75.2956 29.482L75.2144 11.1797L80.2786 11.1754V39.0673Z" fill="#040404"/>
<path d="M149.553 28.7678C149.553 34.85 144.622 39.7774 138.544 39.7774C132.466 39.7774 127.534 34.8457 127.534 28.7678C127.534 22.6898 132.466 17.7581 138.544 17.7581C144.622 17.7581 149.553 22.6898 149.553 28.7678ZM144.412 28.7635C144.412 25.5213 141.786 22.8951 138.544 22.8951C135.302 22.8951 132.675 25.5213 132.675 28.7635C132.675 32.0056 135.302 34.6319 138.544 34.6319C141.786 34.6319 144.412 32.0056 144.412 28.7635Z" fill="#040404"/>
<path d="M105.203 28.7678C105.203 34.85 100.271 39.7774 94.1932 39.7774C88.1153 39.7774 83.1836 34.8457 83.1836 28.7678C83.1836 22.6898 88.1153 17.7581 94.1932 17.7581C100.271 17.7581 105.203 22.6898 105.203 28.7678ZM100.057 28.7635C100.057 25.5213 97.4311 22.8951 94.189 22.8951C90.9468 22.8951 88.3206 25.5213 88.3206 28.7635C88.3206 32.0056 90.9468 34.6319 94.189 34.6319C97.4311 34.6319 100.057 32.0056 100.057 28.7635Z" fill="#040404"/>
<path d="M157.446 26.9456L157.381 39.0973L152.039 39.1229V18.3783L157.356 18.3954C157.334 19.2466 157.116 19.8668 157.565 20.8847C158.776 19.0028 160.435 18.2371 162.527 17.9591C167.42 17.3004 171.543 20.7479 171.565 25.7822L171.62 39.1101H166.252L166.175 26.7617C166.163 24.4263 164.494 22.7667 162.232 22.5956C159.653 22.3989 157.463 24.144 157.45 26.9499L157.446 26.9456Z" fill="#040404"/>
<path d="M117.363 34.371V39.0888L112.765 38.9776C109.993 38.9091 108.163 36.5352 108.146 33.7208L108.064 22.9422L105.173 22.925L105.199 18.3569L108.103 18.3056V14.1695L113.462 13.5878V18.3527L117.842 18.3655V22.925L113.449 22.9464L113.479 32.6515C113.479 33.631 114.112 34.341 115.083 34.3496L117.372 34.3667L117.363 34.371Z" fill="#040404"/>
<path d="M125.003 18.6136H119.613V39.3796H125.003V18.6136Z" fill="#040404"/>
<path d="M122.351 16.6118C124.099 16.6118 125.516 15.1947 125.516 13.4467C125.516 11.6986 124.099 10.2815 122.351 10.2815C120.603 10.2815 119.186 11.6986 119.186 13.4467C119.186 15.1947 120.603 16.6118 122.351 16.6118Z" fill="#040404"/>
<path d="M11.57 50C10.1285 49.9872 9.20893 49.5381 8.39197 48.6698L1.3345 39.4865C0.701469 38.6653 0 37.3736 0 36.2658V5.10173C0 3.50204 1.25323 2.30869 2.77594 2.19748L32.4387 0.0160835C33.9143 -0.0908477 35.2617 0.341154 36.3951 1.141L46.6648 8.3781C47.208 8.76305 47.8069 9.4132 47.8069 10.1617V44.8844C47.8069 46.4542 46.729 47.8272 45.0651 47.9298L11.57 50ZM11.061 9.87086L41.1643 8.02309C39.2695 6.37635 37.627 5.28138 35.8391 3.96398C34.7313 3.1342 33.4225 2.76635 31.9425 2.86901L4.92312 4.86648L4.32858 5.21294C4.24303 5.26427 4.40985 5.72193 4.50822 5.79892L8.49035 8.96836C9.14049 9.48591 10.0387 9.93502 11.061 9.87086ZM43.0121 44.3412C43.9402 44.1231 44.3765 43.5542 44.5262 42.5961V12.7067C44.3893 11.9368 43.9146 11.3208 43.1062 11.3679L11.2192 13.2499C10.4921 13.2927 9.89756 14.0198 9.89756 14.7512V44.3669C9.89756 45.3036 10.7017 46.2146 11.7111 46.1548L43.0078 44.3412H43.0121Z" fill="black"/>
<path d="M15.3214 41.685C14.9108 40.9108 15.5096 40.2222 16.1554 40.0212L17.6482 39.555L17.6396 20.5212L15.2315 20.3244C15.0177 19.0541 15.8304 18.1602 17.0066 18.0789L24.0683 17.5956L33.936 32.6215L33.9873 19.3535L31.4338 19.0541C31.3097 17.8479 32.1481 17.1293 33.2559 17.0737L39.5563 16.7529C39.9583 17.2063 39.6418 18.3783 39.1328 18.5023L37.3578 18.9301V40.2906L34.6759 41.2659C33.1661 41.8176 31.7888 40.8552 30.9504 39.5421L21.3523 24.4862L21.3052 38.815L24.2993 39.5293C24.3678 40.2564 23.6064 41.1718 22.6825 41.2274L15.3256 41.6807L15.3214 41.685Z" fill="black"/>
</svg>
