<svg preserveAspectRatio="xMidYMid meet" width="50" height="50" viewBox="0 0 50 50" fill="none" xmlns="http://www.w3.org/2000/svg">
<g clip-path="url(#clip0_12274_6)">
<path d="M25 50C38.8071 50 50 38.8071 50 25C50 11.1929 38.8071 0 25 0C11.1929 0 0 11.1929 0 25C0 38.8071 11.1929 50 25 50Z" fill="black"/>
<path fill-rule="evenodd" clip-rule="evenodd" d="M16.6752 16.3896C17.4997 17.0612 17.7989 17.008 19.3481 16.9016L33.9425 16.0239C34.2617 16.0239 33.9957 15.7048 33.8893 15.6715L31.4625 13.9295C31.0037 13.5771 30.372 13.1582 29.1885 13.258L15.0728 14.2952C14.5609 14.3484 14.4545 14.6144 14.6672 14.8072L16.6752 16.3896ZM17.5529 19.7872V35.133C17.5529 35.9575 17.9585 36.2567 18.8893 36.2035L34.9265 35.2726C35.8574 35.2194 35.9638 34.6543 35.9638 33.9894V18.7434C35.9638 18.0718 35.6978 17.7061 35.1393 17.7593L18.384 18.7434C17.7656 18.7965 17.5595 19.1157 17.5595 19.7806L17.5529 19.7872ZM33.3773 20.6184C33.4837 21.0771 33.3773 21.5492 32.9186 21.6024L32.1473 21.762V33.0984C31.4758 33.4508 30.864 33.6636 30.3321 33.6636C29.5077 33.6636 29.2949 33.3976 28.6766 32.6263L23.6234 24.6875V32.3604L25.2258 32.7128C25.2258 32.7128 25.2258 33.6436 23.9425 33.6436L20.3853 33.8564C20.2789 33.6436 20.3853 33.1317 20.7377 33.0319L21.6686 32.766V22.6263L20.3853 22.5199C20.2789 22.0612 20.5449 21.3963 21.263 21.3431L25.0795 21.0771L30.3454 29.1024V22.008L29.009 21.8484C28.9026 21.2832 29.3281 20.8644 29.8335 20.8112L33.3707 20.6184H33.3773ZM13.8893 12.8923L28.5835 11.8218C30.3787 11.6622 30.8574 11.7686 31.9811 12.5931L36.6619 15.8843C37.4332 16.4495 37.6992 16.609 37.6992 17.2207V35.2992C37.6992 36.4229 37.2936 37.0944 35.8507 37.2008L18.7962 38.238C17.7058 38.2912 17.1938 38.1317 16.6287 37.4136L13.1579 32.9255C12.5396 32.1011 12.2803 31.4827 12.2803 30.758V14.6875C12.2803 13.7567 12.7058 12.9987 13.8827 12.8923H13.8893Z" fill="white"/>
</g>
<defs>
<clipPath id="clip0_12274_6">
<rect width="50" height="50" fill="white"/>
</clipPath>
</defs>
</svg>
