<svg width="363" height="44" viewBox="0 0 363 44" fill="none" xmlns="http://www.w3.org/2000/svg">
<path d="M0.00547513 33.767L33.4257 15.9126L15.5439 15.4855L40.0232 2.49303C45.6955 -0.512816 51.7674 -0.797523 57.697 1.62249C67.3441 5.55363 72.989 15.5019 71.2041 25.8609C69.5178 35.634 61.097 43.8795 50.6067 43.9124L18.7031 44L37.1597 33.9641L0 33.767H0.00547513Z" fill="#1C2219"/>
<path d="M197.669 40.9831L197.412 15.7592L187.809 40.9558L179.01 40.9448L169.401 15.7702L169.199 40.9229L161.681 40.9667L161.676 3.76868L173.02 3.71393L183.418 31.4728L193.733 3.7851L205.198 3.7194L205.214 40.9558L197.669 40.9831Z" fill="#1C2219"/>
<path d="M316.014 39.8717C309.581 42.6421 299.266 42.5764 292.959 39.0286C288.754 36.6633 286.18 32.5789 286.093 27.5582L294.3 27.5308C294.355 30.3614 296.041 32.8143 298.806 33.9038C302.863 35.5026 307.577 35.4423 311.64 33.8381C313.808 32.984 315.39 30.4217 314.153 28.3794C313.348 27.0544 311.36 26.6602 309.921 26.4741L298.981 25.0506C292.98 24.2676 287.473 21.6012 286.947 15.3924C286.175 6.26538 295.537 3.0241 304.232 2.86532C312.8 2.71202 320.701 7.04285 321.977 15.8085L313.638 15.8469C312.625 9.99942 307.052 9.07412 301.144 9.84611C297.536 10.317 294.382 11.9048 295.034 14.8175C296.364 20.7799 322.957 13.832 322.617 29.7537C322.519 34.2761 320.258 38.0266 316.014 39.8553V39.8717Z" fill="#1C2219"/>
<path d="M114.485 40.0633C107.948 42.5599 98.3606 42.5435 92.1299 39.1544C87.8429 36.8001 85.0944 32.6828 85.0615 27.5581L93.2195 27.5197C93.548 35.1302 103.726 36.3949 110.373 33.9421C112.519 33.1482 113.937 31.0293 113.384 28.8502C112.224 24.2894 93.1757 27.673 87.7608 20.3199C84.0158 15.2281 85.9375 8.3075 91.5222 5.44401C95.1741 3.57151 99.0505 2.93092 103.217 2.86522C111.797 2.73929 119.626 7.01537 120.929 15.7975L112.596 15.8194C111.605 8.92619 102.002 8.38415 96.1487 10.9958C94.2816 11.828 93.0881 14.0564 94.4459 15.6442C95.4862 16.8651 97.2984 17.2812 98.837 17.4564L107.685 18.4584C115.005 19.2906 121.427 21.6668 121.548 29.4251C121.619 34.287 119.084 38.3003 114.485 40.0578V40.0633Z" fill="#1C2219"/>
<path d="M242.873 40.923L235.175 40.9613L235.12 27.3064H218.218L218.191 40.9723L210.427 40.9394L210.416 3.73593L231.183 3.75783C233.521 3.75783 235.766 4.23417 237.846 5.02806C241.925 6.47897 244.017 10.1747 243.853 14.4289C243.732 17.6318 242.265 20.3037 239.139 21.4699C240.595 21.9955 241.531 21.6834 242.856 21.7053L242.873 40.9175V40.923ZM236.083 15.6224C236.138 12.7097 234.244 10.6893 231.457 10.662L218.218 10.5306V20.5446L231.364 20.4022C234.047 20.3749 236.034 18.3983 236.083 15.617V15.6224Z" fill="#1C2219"/>
<path d="M154.027 25.4502L132.745 25.5213L132.707 34.1118L157.29 34.1447L157.301 40.9393L125.009 40.9503V3.73579L156.967 3.73032L157.016 10.5304L132.745 10.5359V18.6446L153.994 18.6555L154.027 25.4502Z" fill="#1C2219"/>
<path d="M362.274 40.9119L354.592 40.9667L354.554 25.483L333.77 25.5104L333.754 40.9119L326.045 40.9722L326.05 3.79054L333.748 3.73032L333.77 18.65H354.559L354.57 3.77412L362.274 3.77959V40.9119Z" fill="#1C2219"/>
<path d="M275.224 3.8508L282.983 3.73035L282.824 26.8409C282.78 33.5205 278.186 38.8807 271.939 40.786C267.795 42.0563 263.595 42.1274 259.429 41.12C252.382 39.4118 247.427 33.6574 247.383 26.2988L247.252 3.77415H255.054L255.087 26.3098C255.459 29.9727 257.562 32.9402 261.033 34.1064C263.792 35.0317 266.804 35.0207 269.53 34.0023C272.974 32.7212 274.984 29.6441 275.203 25.9703L275.219 3.85627L275.224 3.8508Z" fill="#1C2219"/>
</svg>
