<svg width="50" height="50" viewBox="0 0 50 50" fill="none" xmlns="http://www.w3.org/2000/svg">
<g clip-path="url(#clip0_12271_521)">
<path d="M25 50C38.8071 50 50 38.8071 50 25C50 11.1929 38.8071 0 25 0C11.1929 0 0 11.1929 0 25C0 38.8071 11.1929 50 25 50Z" fill="#F3F3F4"/>
<path d="M26.0834 30.605L6.82812 35.1662L22.0675 21.7021L12.5196 23.9229L23.2377 14.5013C24.4678 13.4175 25.8241 12.5 27.3866 12.0013C33.3507 10.113 39.7803 13.3976 41.8215 19.2753C44.009 25.5652 40.3521 32.5266 33.8361 34.1955L17.6592 38.0718L26.0834 30.605Z" fill="#633F93"/>
</g>
<defs>
<clipPath id="clip0_12271_521">
<rect width="50" height="50" fill="white"/>
</clipPath>
</defs>
</svg>
