<svg width="50" height="50" viewBox="0 0 50 50" fill="none" xmlns="http://www.w3.org/2000/svg">
<g clip-path="url(#clip0_12274_72)">
<path d="M25 50C38.8071 50 50 38.8071 50 25C50 11.1929 38.8071 0 25 0C11.1929 0 0 11.1929 0 25C0 38.8071 11.1929 50 25 50Z" fill="#F3F3F4"/>
<path d="M23.4367 17.613H17.8782C17.3196 17.613 16.8675 18.0652 16.8675 18.6237V23.9694H12.2266V18.6237C12.2266 15.5053 14.7598 12.9721 17.8782 12.9721H23.4367V17.613Z" fill="#FF1A03"/>
<path d="M37.7667 32.7061C37.7667 35.8245 35.2335 38.3577 32.1152 38.3577H26.5566V33.7168H32.1152C32.6737 33.7168 33.1258 33.2646 33.1258 32.7061V27.3604H37.7667V32.7061Z" fill="#FF1A03"/>
</g>
<defs>
<clipPath id="clip0_12274_72">
<rect width="50" height="50" fill="white"/>
</clipPath>
</defs>
</svg>
