<svg width="270" height="38" viewBox="0 0 270 38" fill="none" xmlns="http://www.w3.org/2000/svg">
<path d="M92.6853 28.0582L92.6696 15.6367H82.8632L82.8986 27.3093C82.9025 28.8737 83.6722 30.2382 84.8975 31.0734C86.1661 31.787 87.5288 31.936 88.9701 31.8144V37.4605L85.3138 37.4017C84.1867 37.3821 83.0517 37.0685 82.0267 36.6607C78.4411 35.2295 77.0627 31.7713 77.0627 27.9837V15.6484L74.1094 15.6406V10.0807L77.0587 10.0729L77.0666 3.22692L82.8514 0.0274465L82.875 10.065L92.6696 10.0729V3.25045L98.5291 0V10.0689L105.233 10.0729L105.225 15.6367H98.5251L98.5565 27.4857C98.5605 29.1286 99.5501 30.6028 100.952 31.2812C102.134 31.8536 103.364 31.8928 104.632 31.8183V37.4331C102.873 37.4802 101.145 37.5115 99.4166 37.1861C94.8649 36.3274 92.6853 32.677 92.6774 28.0582H92.6853Z" fill="#FF2917"/>
<path d="M40.045 37.4565L40.0332 19.0164C39.7308 17.052 38.6154 15.6248 36.695 15.1386C34.5115 14.5897 32.1551 14.9465 30.164 16.0483V37.4565H24.3359V0.0195312H30.1601V10.5707C33.0662 9.45328 36.0195 9.21411 38.9218 9.95124C42.9668 10.9824 45.6845 14.3192 45.8926 18.5185L45.9005 37.4565H40.045Z" fill="#FF2917"/>
<path d="M261.432 37.4291L254.434 37.4605L246.077 26.5877L244.152 28.7482L244.156 37.4605L238.332 37.4566V0.0195459L244.152 0.015625L244.172 20.722L253.499 10.0767H260.706L249.819 22.3414L261.432 37.4291Z" fill="#FF2917"/>
<path d="M123.704 29.4815L128.664 32.4418C125.872 37.786 119.137 39.0603 113.752 37.1861C109.99 35.8765 107.83 32.3869 107.842 28.4895L107.873 18.3107C107.885 14.4996 110.473 11.3629 114.063 10.2179C116.965 9.29261 119.957 9.30437 122.868 10.1631C126.422 11.3472 129.241 14.3741 129.261 18.197L129.308 26.4427L113.709 26.4349L113.764 28.8541C113.799 30.4342 115.005 31.6105 116.478 32.0771C119.164 32.928 122.392 32.1124 123.7 29.4815H123.704ZM123.484 21.6671L123.406 18.6872C122.993 15.6406 120.177 14.7858 117.146 15.2446C115.253 15.5308 113.737 17.0286 113.725 18.9577L113.705 21.671H123.484V21.6671Z" fill="#FF2917"/>
<path d="M70.9454 10.0729V35.704C66.0324 37.7978 59.5956 38.9466 54.6041 36.9234C50.8968 35.2766 49.5144 32.1203 49.3848 28.117V10.0729H55.2442L55.2521 28.3797C55.4681 30.3676 56.5402 31.9164 58.441 32.5124C60.6206 33.1946 62.9534 33.0495 65.1331 32.0105V10.0729H70.9454Z" fill="#FF2917"/>
<path d="M164.977 35.9157C161.615 38.1428 157.723 38.2016 153.741 37.7585C151.392 37.4997 149.205 36.8881 147.072 35.7981L149.264 30.6538C152.292 32.0261 155.536 32.575 158.85 32.3751C161.089 32.0928 162.805 31.0929 162.561 28.9874C162.192 25.7958 156.557 26.7368 152.441 24.7959C149.888 23.5922 148.541 21.2789 148.435 18.5028C148.195 12.3666 153.595 9.37492 159.329 9.54352C162.361 9.6337 165.259 10.2767 167.871 11.6491L165.88 16.8835C163.492 15.7543 161.151 15.1034 158.634 15.0799C156.396 15.1269 154.232 15.8758 154.346 17.9539C154.53 21.3808 159.6 20.3927 163.928 22.165C166.689 23.2942 168.291 25.6507 168.472 28.5992C168.653 31.5595 167.494 34.2493 164.977 35.9157Z" fill="#FF2917"/>
<path d="M17.8376 35.9667C13.9653 38.4682 8.74207 38.2996 4.26107 37.339C2.76479 37.0175 1.41381 36.4999 0 35.7863L2.19926 30.6538C5.4746 32.1908 11.7464 33.32 14.4052 31.4889C15.281 30.8851 15.658 29.8971 15.4655 28.8541C14.8843 25.7017 9.18978 26.776 5.0858 24.643C2.85512 23.4863 1.62588 21.4396 1.39025 18.9694C1.08785 15.8092 2.40741 12.8841 5.18005 11.253C7.23793 10.0415 9.54323 9.50039 11.9821 9.53568C15.1082 9.58273 18.1321 10.2375 20.8105 11.6412L18.8076 16.8953C16.4316 15.719 14.0007 15.1073 11.4401 15.0563C9.40578 15.1818 7.37931 15.7817 7.28899 17.6834C7.11226 21.4278 12.6026 20.3496 16.9815 22.216C19.652 23.3569 21.1915 25.6625 21.3957 28.5051C21.6117 31.5125 20.4257 34.2963 17.8415 35.9667H17.8376Z" fill="#FF2917"/>
<path d="M221.889 31.685C223.708 32.4809 225.616 32.4927 227.384 31.8222C228.774 31.2537 229.764 30.1872 230.168 28.7404L235.478 30.7479C233.695 37.2644 226.147 39.2445 220.169 37.2409C216.568 36.0372 214.074 32.8416 214.078 29.0305L214.086 18.3499C214.086 14.4995 216.713 11.3001 220.346 10.1826C226.308 8.35153 233.675 10.2179 235.478 16.7266L230.176 18.7498C229.795 17.4049 228.927 16.4051 227.737 15.8248C226.237 15.1543 224.646 15.021 223.028 15.417C221.241 15.7464 219.906 17.1971 219.906 19.1184V28.4032C219.91 29.8068 220.715 30.987 221.886 31.6732L221.889 31.685Z" fill="#FF2917"/>
<path d="M185.404 37.4449C181.202 37.6684 176.69 37.2136 174.683 33.2848C173.949 31.8458 173.517 30.25 173.517 28.5836L173.493 15.6446H170.414V10.0729H173.501L173.497 3.23089L179.321 0.0118103V10.0729H186.013V15.6406H179.317L179.325 27.3681C179.49 29.0894 180.216 30.595 181.78 31.3126C182.899 31.8262 184.108 31.8968 185.397 31.8262V37.4449H185.404Z" fill="#FF2917"/>
<path d="M138.879 19.1812V37.4567H133.062V18.3657C133.259 14.4251 135.741 11.2727 139.48 10.1356C141.848 9.41418 144.294 9.37105 146.721 9.80627V15.5151C145.041 15.1779 143.509 15.0564 141.97 15.4681C140.23 15.9386 139.044 17.26 138.875 19.1773L138.879 19.1812Z" fill="#FF2917"/>
<path d="M196.174 16.064C195.263 16.111 194.662 16.7737 194.528 17.5971V24.3685H188.516L188.523 17.5265C188.692 13.5154 191.779 10.3159 195.805 10.0807H202.304V16.0758H196.17L196.174 16.064Z" fill="#FF2917"/>
<path d="M197.398 37.4566V31.4536H203.494C204.495 31.4027 205.202 30.6499 205.198 29.6422L205.21 23.106L211.167 23.1177L211.16 30.1048C211.156 34.1473 207.66 37.2997 203.674 37.4605H197.395L197.398 37.4566Z" fill="#FF2917"/>
<path d="M269.343 13.8252L269.355 11.4884L268.542 13.2253C268.495 13.3273 268.095 13.4175 268.04 13.3194L267.808 12.8999L267.144 11.4766L267.124 13.8252L266.492 13.8174V10.1592L267.223 10.1004L268.244 12.4333L269.229 10.1474L269.999 10.0729V13.8252H269.339H269.343Z" fill="#FF2917"/>
<path d="M265.008 13.8095L264.371 13.8291L264.36 10.6845L263.229 10.6727L263.236 10.0728L266.15 10.0689V10.6806H265.004L265.008 13.8095Z" fill="#FF2917"/>
</svg>
