<svg preserveAspectRatio="xMidYMid meet" width="50" height="50" viewBox="0 0 50 50" fill="none" xmlns="http://www.w3.org/2000/svg">
<g clip-path="url(#clip0_12273_4)">
<path d="M25 50C38.8071 50 50 38.8071 50 25C50 11.1929 38.8071 0 25 0C11.1929 0 0 11.1929 0 25C0 38.8071 11.1929 50 25 50Z" fill="#28199C" fill-opacity="0.7"/>
<path d="M25.4323 20.1396C27.786 19.7008 29.3352 17.4468 28.8964 15.0931C28.4575 12.7394 26.2035 11.1902 23.8498 11.629C21.8418 12.0013 20.3724 13.7234 20.3126 15.7646H22.4203C24.0825 15.7646 25.4256 17.1144 25.4256 18.7699V20.1396H25.4323ZM17.7461 33.9827H22.4203C24.0825 33.9827 25.4256 32.633 25.4256 30.9774V21.5426H30.4057C31.0972 21.5625 31.6424 22.1343 31.6224 22.8258V30.5053C31.7155 34.6476 28.4442 38.0851 24.3019 38.1848C21.4097 38.1117 18.9363 36.4162 17.7461 33.9827ZM36.9549 17.2207C36.9549 18.8763 35.6118 20.2128 33.9629 20.2128C32.3139 20.2128 30.9708 18.8697 30.9708 17.2207C30.9708 15.5718 32.3139 14.2287 33.9629 14.2287C35.6118 14.2287 36.9549 15.5718 36.9549 17.2207ZM32.9456 34.1888H32.7328C33.2115 33.012 33.4442 31.7487 33.411 30.4854V22.8391C33.4176 22.3936 33.3245 21.9481 33.145 21.5426H36.3498C37.048 21.5426 37.6131 22.1077 37.6131 22.8059V29.5412C37.6131 32.1077 35.532 34.1888 32.9655 34.1888H32.9456Z" fill="white"/>
<path d="M10.2197 17.5532H22.4205C23.092 17.5532 23.6372 18.0984 23.6372 18.7699V30.9707C23.6372 31.6423 23.0987 32.1875 22.4271 32.1875C22.4271 32.1875 22.4271 32.1875 22.4205 32.1875H10.2197C9.54814 32.1875 9.00293 31.6489 9.00293 30.9774C9.00293 30.9774 9.00293 30.9774 9.00293 30.9707V18.7699C9.00293 18.0984 9.54814 17.5532 10.2197 17.5532ZM19.5282 22.1942V20.9043H13.1053V22.1942H15.5322V28.8364H17.088V22.1942H19.5282Z" fill="white"/>
</g>
<defs>
<clipPath id="clip0_12273_4">
<rect width="50" height="50" fill="white"/>
</clipPath>
</defs>
</svg>
