<svg width="251" height="50" viewBox="0 0 251 50" preserveAspectRatio="xMidYMid meet" fill="none" xmlns="http://www.w3.org/2000/svg">
<path d="M76.2054 27.291L76.2827 24.775L75.717 26.1888L68.9039 41.92L67.7033 41.9446L61.3419 27.4672L60.2512 24.6398L60.2878 27.0001L60.2919 41.9364L57.9679 41.9446L57.9639 21.2469L61.1344 21.2428L67.3044 35.4374L68.3463 38.0804L70.0191 33.9786L75.66 21.2592L78.6759 21.2428L78.6189 34.0359L78.5986 41.9446L76.1973 41.9405L76.2054 27.291Z" fill="#4B59CC"/>
<path d="M165.704 39.7646C166.51 40.5554 167.731 40.3956 168.679 39.8138L168.687 41.7971C167.487 42.3748 166.083 42.4322 164.805 41.9856C163.279 41.4529 162.745 39.9326 162.66 38.3099L162.652 29.1842L156.828 29.1432V41.8913H154.487V29.1801H152.017L152.009 27.2132L154.475 27.205L154.516 23.9964C154.679 22.2467 155.692 20.7141 157.3 20.0667C158.443 19.6037 159.677 19.6364 160.82 19.9725L160.808 22.1238C159.888 21.6976 158.83 21.5993 157.967 22.091C157.226 22.5131 156.889 23.4023 156.881 24.2259L156.844 27.1476L160.234 27.1845L162.717 27.2091L162.729 23.5293L165.073 22.7589V27.1517L168.736 27.164L168.724 29.1309H165.069L165.061 37.4453C165.061 38.2361 165.106 39.1622 165.72 39.7646H165.704Z" fill="#4B59CC"/>
<path d="M229.574 33.0565L229.553 41.9364L227.217 41.9446L227.168 32.5075C227.164 31.4789 226.887 30.4012 226.171 29.6718C224.966 28.4466 222.842 28.5121 221.69 29.7579C220.758 30.7618 220.396 32.069 220.396 33.4253V41.9405L218.056 41.9569V27.1599L220.392 27.1763L220.445 29.3563C221.401 27.7336 222.988 26.8116 224.861 26.7952C226.794 26.7747 228.438 27.9426 229.045 29.8152C230.143 27.5533 232.353 26.5657 234.702 26.8526C236.366 27.0533 237.685 28.0204 238.21 29.6636C238.475 30.4914 238.658 31.3601 238.662 32.2862L238.703 41.9446L236.354 41.9528L236.375 33.4663C236.379 31.1224 235.788 28.799 233.326 28.799C232.125 28.799 231.104 29.3522 230.485 30.3561C229.989 31.1593 229.586 32.0321 229.586 33.0606L229.574 33.0565Z" fill="#4B59CC"/>
<path d="M123.051 37.9861C121.908 40.7234 119.348 42.4363 116.409 42.2887C112.099 42.4035 109.299 39.0679 109.327 34.8021C109.23 32.6672 109.771 30.5692 111.196 28.971C112.62 27.3729 114.671 26.7255 116.751 26.7951C118.648 26.7091 120.386 27.3279 121.745 28.6391C123.125 30.2168 123.711 32.237 123.686 34.3391C123.67 35.6176 123.56 36.7691 123.051 37.9861ZM121.285 34.5727C121.297 32.8803 120.886 31.2166 119.759 29.975C117.98 28.3277 115.058 28.4097 113.292 30.0774C112.168 31.3191 111.631 32.9787 111.741 34.6915C111.664 37.8017 113.446 40.2685 116.641 40.3095C119.856 40.3505 121.261 37.7279 121.285 34.5727Z" fill="#4B59CC"/>
<path d="M194.691 40.1497C196.751 40.5841 198.769 39.9653 200.454 38.6704L200.479 40.8832C198.965 41.9036 197.223 42.383 195.367 42.2806C191.02 42.4199 188.786 39.0228 188.773 34.8063C188.769 32.9172 189.193 31.192 190.251 29.6431C191.48 27.8483 193.417 26.8361 195.603 26.8607C197.341 26.8771 198.973 27.5491 200.015 28.9752C200.914 30.2086 201.48 31.6592 201.484 33.1877V35.1587H191.256C191.138 37.3919 192.404 39.6703 194.687 40.1497H194.691ZM199.111 33.1713C199.136 31.6428 198.639 30.3643 197.565 29.4833C196.197 28.5572 194.345 28.6473 193.067 29.7128C192.013 30.5938 191.415 31.8231 191.244 33.1958L199.111 33.1713Z" fill="#4B59CC"/>
<path d="M151.301 34.417C151.431 38.8958 148.407 42.5059 143.836 42.2887C141.834 42.342 139.913 41.4692 138.651 39.9243C137.418 38.4123 136.958 36.6215 136.942 34.6833C136.901 30.0692 139.526 26.7746 144.174 26.791C146.148 26.6476 147.943 27.3237 149.351 28.6842C150.727 30.2905 151.386 32.2902 151.297 34.417H151.301ZM147.617 38.8876C148.553 37.5968 148.981 36.138 148.903 34.5686C148.948 33.0852 148.623 31.61 147.744 30.4135C146.889 29.2497 145.493 28.7252 144.068 28.8071C140.906 28.8276 139.254 31.6264 139.376 34.6833C139.298 36.1339 139.722 37.5108 140.601 38.6294C142.269 40.7562 145.745 40.8914 147.621 38.8835L147.617 38.8876Z" fill="#4B59CC"/>
<path d="M207.605 42.3175C204.809 42.2806 203.001 40.5596 203.115 37.6912C203.176 36.1053 203.897 34.7285 205.309 33.9909C205.936 33.6631 206.612 33.3967 207.336 33.2943L212.265 32.5731C212.301 30.7619 211.65 29.049 209.847 28.8605C207.902 28.6556 206.062 29.3358 204.552 30.6143V28.1598C206.648 26.8977 209.143 26.4428 211.512 27.0862C212.879 27.4591 213.836 28.5122 214.255 29.8194C214.556 30.7537 214.593 31.6429 214.589 32.6304L214.552 41.9405L212.228 41.9651L212.155 39.7728C211.198 41.4775 209.505 42.3421 207.609 42.3175H207.605ZM207.173 40.1334C209.509 40.8055 211.699 39.2811 212.126 36.9331L212.196 34.4744L208.968 34.917C206.896 35.1997 205.338 35.716 205.423 37.9206C205.464 38.9328 206.115 39.8302 207.173 40.1334Z" fill="#4B59CC"/>
<path d="M184.919 41.9118L182.517 41.9487V23.4228H176.645L176.649 21.2387H190.775L190.784 23.4228H184.923L184.919 41.9118Z" fill="#4B59CC"/>
<path d="M125.628 41.4528V38.8876C127.797 40.6619 132.323 40.9406 132.799 38.7893C133.198 36.9862 131.757 36.2978 130.097 35.634C127.793 34.7161 125.599 33.8433 125.636 31.1224C125.648 30.1594 125.917 29.2989 126.588 28.59C128.538 26.537 131.949 26.4386 134.574 27.4631L134.586 29.8889C132.319 28.3441 128.253 28.381 128.05 30.729C127.972 31.6059 128.355 32.4132 129.197 32.782L132.518 34.2489C133.34 34.6136 134.142 35.1013 134.651 35.8799C135.949 37.8632 135.217 40.5267 133.056 41.5593C130.724 42.6739 127.997 42.6411 125.628 41.4528Z" fill="#4B59CC"/>
<path d="M250.462 39.9858C248.879 42.6535 244.092 42.8993 241.345 41.4323L241.337 38.8876C243.445 40.6046 247.991 41.0021 248.537 38.7565C248.931 37.1338 247.556 36.3102 246.001 35.7078C243.551 34.7571 241.276 33.8597 241.365 31.0036C241.414 29.512 242.253 28.2581 243.632 27.5738C245.696 26.5493 248.138 26.6313 250.319 27.4713V29.8849C248.097 28.4015 244.092 28.2827 243.787 30.7331C243.681 31.5773 244.076 32.3968 244.857 32.741L247.633 33.9662C248.651 34.417 249.676 34.8923 250.344 35.843C251.182 37.0355 251.211 38.7319 250.466 39.9899L250.462 39.9858Z" fill="#4B59CC"/>
<path d="M91.4268 38.5189C93.1566 40.8465 96.4329 40.7768 98.8097 39.068L98.8382 41.2603C97.5765 42.0471 96.1927 42.3094 94.695 42.3094C91.9356 42.3094 89.4936 40.7071 88.472 38.0723C87.6255 35.8882 87.6865 33.3558 88.5901 31.1922C90.2994 27.0985 94.9066 25.8446 98.8301 27.5329L98.8097 29.9342C96.4736 28.3934 93.5798 28.3524 91.7524 30.4546C89.925 32.5526 89.75 36.2611 91.4268 38.5189Z" fill="#4B59CC"/>
<path d="M103.874 41.9199L101.44 41.9404V27.1639L103.789 27.1557L103.866 29.8275C104.928 27.6024 106.65 26.3977 109.059 27.1107L109.096 29.5488C107.716 28.6883 105.917 29.0243 104.998 30.3192C104.155 31.5076 103.809 32.8967 103.866 34.3473L103.874 41.9199Z" fill="#4B59CC"/>
<path d="M85.0985 27.1599H82.7217V41.961H85.0985V27.1599Z" fill="#4B59CC"/>
<path d="M85.0287 20.7878C85.7124 21.3943 85.5985 22.3532 85.0979 22.9146C84.5362 23.5374 83.5024 23.6276 82.9082 22.9965C82.314 22.3655 82.4524 21.4763 82.9367 20.9354C83.4536 20.3576 84.3897 20.2183 85.0327 20.7878H85.0287Z" fill="#4B59CC"/>
<path d="M38.5308 49.9598C34.6195 49.5295 31.3799 46.4152 31.3676 42.4937L31.3147 26.3117C31.3147 25.275 31.1438 24.3325 30.7856 23.3777C30.4356 22.5131 29.9228 21.8042 29.3896 21.0625L39.5686 21.0953C41.5466 21.1034 43.3984 22.0336 44.766 23.4105C46.337 24.9922 47.0451 27.1312 47.0451 29.3563L47.0248 42.0798C47.0207 45.2802 45.1404 48.1773 42.1856 49.3861C41.0216 49.8615 39.7518 50.095 38.5308 49.9639V49.9598Z" fill="#515AC8"/>
<path d="M18.2865 15.8091C22.6225 15.8091 26.1374 12.2701 26.1374 7.90456C26.1374 3.53899 22.6225 0 18.2865 0C13.9505 0 10.4355 3.53899 10.4355 7.90456C10.4355 12.2701 13.9505 15.8091 18.2865 15.8091Z" fill="#515AC8"/>
<path d="M37.8625 18.4604C41.4859 18.4604 44.4233 15.503 44.4233 11.8548C44.4233 8.20665 41.4859 5.24924 37.8625 5.24924C34.2391 5.24924 31.3018 8.20665 31.3018 11.8548C31.3018 15.503 34.2391 18.4604 37.8625 18.4604Z" fill="#515AC8"/>
<path d="M29.3889 21.0624C29.9221 21.8082 30.4349 22.513 30.7849 23.3777C31.143 24.3324 31.3099 25.2749 31.314 26.3116L31.3669 42.4937C31.3791 46.4152 34.6188 49.5295 38.53 49.9598H17.6756C14.3707 49.9557 11.2328 48.3329 8.94956 46.0218L16.9837 45.989C19.2262 45.9112 20.8949 43.9566 20.8908 41.752L20.8664 28.9342C20.8664 27.4959 19.9262 26.1928 18.7337 25.5249L18.2413 25.3036C17.8384 25.1233 17.3825 24.9922 16.9023 24.9922L5.37207 24.9799C5.98663 21.2263 9.12864 18.4235 13.0155 18.4358L24.0206 18.4604C26.1085 18.4645 28.0051 19.6118 29.3848 21.0583L29.3889 21.0624Z" fill="#7B83EA"/>
<path d="M5.37641 24.984L16.9066 24.9963C17.3869 24.9963 17.8427 25.1274 18.2456 25.3077L18.7381 25.529C19.9306 26.1969 20.8667 27.5 20.8707 28.9383L20.8952 41.7561C20.8992 43.9607 19.2265 45.9153 16.988 45.9932L8.95391 46.026L3.956 46.0096C1.81113 45.944 0.00813992 44.1123 0.00813992 41.9282L0 29.1186C0 26.8854 1.82741 25.0783 4.00077 24.984H5.37641ZM11.7907 41.4938L11.7825 31.7002H14.9897L14.9815 29.4915L5.91365 29.4997L5.90551 31.692L9.11264 31.7125V41.5143L11.7907 41.4979V41.4938Z" fill="#515AC8"/>
<path d="M11.7904 41.4939L9.10833 41.5143V31.7125L5.90527 31.692L5.91341 29.5038L14.9813 29.4915L14.9894 31.7002L11.7823 31.7043L11.7904 41.4939Z" fill="white"/>
</svg>
