<svg preserveAspectRatio="xMidYMid meet" width="50" height="47" viewBox="0 0 50 47" fill="none" xmlns="http://www.w3.org/2000/svg">
<path d="M25 20.0567H38.336C42.016 20.0567 45 23.0328 45 26.6853V37.7384C45 41.3989 42.008 44.367 38.336 44.367C34.664 44.367 31.672 41.3909 31.672 37.7384V26.6853C31.672 23.0249 28.68 20.0567 25.008 20.0567H25Z" fill="url(#paint0_radial_12237_512)"/>
<path d="M9.44843 24.4811C9.44843 20.8206 12.4404 17.8525 16.1124 17.8525H25.0004C28.6804 17.8525 31.6644 20.8286 31.6644 24.4811V37.7464C31.6644 41.4068 34.6564 44.375 38.3284 44.375H20.5524C14.4164 44.375 9.44043 39.4254 9.44043 33.3219V24.4811H9.44843Z" fill="url(#paint1_radial_12237_512)"/>
<path d="M9.44843 24.4811C9.44843 20.8206 12.4404 17.8525 16.1124 17.8525H25.0004C28.6804 17.8525 31.6644 20.8286 31.6644 24.4811V37.7464C31.6644 41.4068 34.6564 44.375 38.3284 44.375H20.5524C14.4164 44.375 9.44043 39.4254 9.44043 33.3219V24.4811H9.44843Z" fill="url(#paint2_linear_12237_512)" fill-opacity="0.7"/>
<path d="M9.44843 24.4811C9.44843 20.8206 12.4404 17.8525 16.1124 17.8525H25.0004C28.6804 17.8525 31.6644 20.8286 31.6644 24.4811V37.7464C31.6644 41.4068 34.6564 44.375 38.3284 44.375H20.5524C14.4164 44.375 9.44043 39.4254 9.44043 33.3219V24.4811H9.44843Z" fill="url(#paint3_radial_12237_512)" fill-opacity="0.7"/>
<path d="M37.2239 17.8445C40.2879 17.8445 42.7759 15.3697 42.7759 12.322C42.7759 9.27421 40.2879 6.7994 37.2239 6.7994C34.1599 6.7994 31.6719 9.27421 31.6719 12.322C31.6719 15.3697 34.1599 17.8445 37.2239 17.8445Z" fill="url(#paint4_radial_12237_512)"/>
<path d="M37.2239 17.8445C40.2879 17.8445 42.7759 15.3697 42.7759 12.322C42.7759 9.27421 40.2879 6.7994 37.2239 6.7994C34.1599 6.7994 31.6719 9.27421 31.6719 12.322C31.6719 15.3697 34.1599 17.8445 37.2239 17.8445Z" fill="url(#paint5_radial_12237_512)" fill-opacity="0.46"/>
<path d="M37.2239 17.8445C40.2879 17.8445 42.7759 15.3697 42.7759 12.322C42.7759 9.27421 40.2879 6.7994 37.2239 6.7994C34.1599 6.7994 31.6719 9.27421 31.6719 12.322C31.6719 15.3697 34.1599 17.8445 37.2239 17.8445Z" fill="url(#paint6_radial_12237_512)" fill-opacity="0.4"/>
<path d="M20.5517 15.6403C24.2317 15.6403 27.2157 12.6641 27.2157 9.0116C27.2157 5.35908 24.2317 2.375 20.5517 2.375C16.8717 2.375 13.8877 5.35113 13.8877 9.00365C13.8877 12.6562 16.8797 15.6323 20.5517 15.6323V15.6403Z" fill="url(#paint7_radial_12237_512)"/>
<path d="M20.5517 15.6403C24.2317 15.6403 27.2157 12.6641 27.2157 9.0116C27.2157 5.35908 24.2317 2.375 20.5517 2.375C16.8717 2.375 13.8877 5.35113 13.8877 9.00365C13.8877 12.6562 16.8797 15.6323 20.5517 15.6323V15.6403Z" fill="url(#paint8_radial_12237_512)" fill-opacity="0.6"/>
<path d="M20.5517 15.6403C24.2317 15.6403 27.2157 12.6641 27.2157 9.0116C27.2157 5.35908 24.2317 2.375 20.5517 2.375C16.8717 2.375 13.8877 5.35113 13.8877 9.00365C13.8877 12.6562 16.8797 15.6323 20.5517 15.6323V15.6403Z" fill="url(#paint9_radial_12237_512)" fill-opacity="0.5"/>
<path d="M20.176 23.375H7.6C6.16406 23.375 5 24.5329 5 25.9612V38.4705C5 39.8988 6.16406 41.0567 7.6 41.0567H20.176C21.6119 41.0567 22.776 39.8988 22.776 38.4705V25.9612C22.776 24.5329 21.6119 23.375 20.176 23.375Z" fill="url(#paint10_radial_12237_512)"/>
<path d="M20.176 23.375H7.6C6.16406 23.375 5 24.5329 5 25.9612V38.4705C5 39.8988 6.16406 41.0567 7.6 41.0567H20.176C21.6119 41.0567 22.776 39.8988 22.776 38.4705V25.9612C22.776 24.5329 21.6119 23.375 20.176 23.375Z" fill="url(#paint11_radial_12237_512)" fill-opacity="0.7"/>
<path d="M17.7524 29.0249H15.0324V37.2769H12.7444V29.0249H10.0244V27.1708H17.7604V29.0249H17.7524Z" fill="white"/>
<defs>
<radialGradient id="paint0_radial_12237_512" cx="0" cy="0" r="1" gradientUnits="userSpaceOnUse" gradientTransform="translate(43.7402 22.3333) scale(14.9898 36.8)">
<stop stop-color="#A98AFF"/>
<stop offset="0.14" stop-color="#8C75FF"/>
<stop offset="0.56" stop-color="#5F50E2"/>
<stop offset="0.9" stop-color="#3C2CB8"/>
</radialGradient>
<radialGradient id="paint1_radial_12237_512" cx="0" cy="0" r="1" gradientTransform="matrix(13.554 33.6225 -34.1837 13.6344 7.88733 17.3923)" gradientUnits="userSpaceOnUse">
<stop stop-color="#85C2FF"/>
<stop offset="0.69" stop-color="#7588FF"/>
<stop offset="1" stop-color="#6459FE"/>
</radialGradient>
<linearGradient id="paint2_linear_12237_512" x1="23.8884" y1="17.8445" x2="23.8884" y2="44.375" gradientUnits="userSpaceOnUse">
<stop offset="0.8" stop-color="#6864F6" stop-opacity="0"/>
<stop offset="1" stop-color="#5149DE"/>
</linearGradient>
<radialGradient id="paint3_radial_12237_512" cx="0" cy="0" r="1" gradientTransform="matrix(-8.46413 19.5211 -15.7553 -6.75904 33.4082 17.5992)" gradientUnits="userSpaceOnUse">
<stop stop-color="#BD96FF"/>
<stop offset="0.69" stop-color="#BD96FF" stop-opacity="0"/>
</radialGradient>
<radialGradient id="paint4_radial_12237_512" cx="0" cy="0" r="1" gradientUnits="userSpaceOnUse" gradientTransform="translate(37.8356 10.7702) rotate(-90) scale(11.061 14.0334)">
<stop offset="0.27" stop-color="#6868F7"/>
<stop offset="1" stop-color="#3923B1"/>
</radialGradient>
<radialGradient id="paint5_radial_12237_512" cx="0" cy="0" r="1" gradientTransform="matrix(6.0862 5.08885 -7.39851 8.7549 31.965 6.95742)" gradientUnits="userSpaceOnUse">
<stop offset="0.27" stop-color="#A1D3FF"/>
<stop offset="0.81" stop-color="#A1D3FF" stop-opacity="0"/>
</radialGradient>
<radialGradient id="paint6_radial_12237_512" cx="0" cy="0" r="1" gradientTransform="matrix(7.06992 -6.25685 15.4336 17.2546 43.6282 9.34984)" gradientUnits="userSpaceOnUse">
<stop stop-color="#E3ACFD"/>
<stop offset="0.82" stop-color="#9FA2FF" stop-opacity="0"/>
</radialGradient>
<radialGradient id="paint7_radial_12237_512" cx="0" cy="0" r="1" gradientUnits="userSpaceOnUse" gradientTransform="translate(18.7697 7.15749) rotate(-90) scale(13.2732 16.8468)">
<stop offset="0.27" stop-color="#8282FF"/>
<stop offset="1" stop-color="#3923B1"/>
</radialGradient>
<radialGradient id="paint8_radial_12237_512" cx="0" cy="0" r="1" gradientTransform="matrix(7.30344 6.10662 -8.87248 10.4991 11.713 5.33235)" gradientUnits="userSpaceOnUse">
<stop offset="0.27" stop-color="#A1D3FF"/>
<stop offset="0.81" stop-color="#A1D3FF" stop-opacity="0"/>
</radialGradient>
<radialGradient id="paint9_radial_12237_512" cx="0" cy="0" r="1" gradientTransform="matrix(8.49055 -7.5141 18.5233 20.7088 23.0315 7.69)" gradientUnits="userSpaceOnUse">
<stop stop-color="#E3ACFD"/>
<stop offset="0.82" stop-color="#9FA2FF" stop-opacity="0"/>
</radialGradient>
<radialGradient id="paint10_radial_12237_512" cx="0" cy="0" r="1" gradientTransform="matrix(18.4341 18.3363 -18.4341 18.3363 4.32033 20.996)" gradientUnits="userSpaceOnUse">
<stop offset="0.05" stop-color="#688EFF"/>
<stop offset="0.95" stop-color="#230F94"/>
</radialGradient>
<radialGradient id="paint11_radial_12237_512" cx="0" cy="0" r="1" gradientUnits="userSpaceOnUse" gradientTransform="translate(13.8059 34.0477) rotate(90) scale(12.3883 14.5338)">
<stop offset="0.57" stop-color="#6965F6" stop-opacity="0"/>
<stop offset="1" stop-color="#8F8FFF"/>
</radialGradient>
</defs>
</svg>
