<svg width="217" height="59" viewBox="0 0 217 59" fill="none" xmlns="http://www.w3.org/2000/svg">
<path d="M40.4206 51.8333L35.8395 41.5438H15.8813L11.3003 51.8333C10.6996 53.0783 9.44747 53.8655 8.07824 53.8552H3.71605C0.509303 53.8552 -0.783576 51.9671 0.509303 49.1581L19.4953 7.09457C20.101 5.85468 21.3582 5.07268 22.7275 5.08812H29.1002C30.4695 5.07268 31.7318 5.84954 32.3375 7.09457L51.3184 49.1529C52.5858 51.9619 51.3184 53.8295 48.0862 53.8295H43.6578C42.2886 53.8449 41.0314 53.0681 40.4206 51.8282M25.868 18.7989L19.6785 32.9727H32.1237L25.868 18.7989Z" fill="#12304A"/>
<path d="M67.754 22.3434L67.8914 50.4955C67.8914 52.4968 66.4866 53.8344 64.3793 53.8344H59.8797C57.7673 53.8344 56.3624 52.4968 56.3624 50.4955V8.49373C56.3624 6.49242 57.7673 5.15479 59.8797 5.15479H65.2904C66.339 5.1908 67.3264 5.64868 68.034 6.42554L93.1484 36.5789L93.0822 8.49373C93.0822 6.49242 94.4871 5.15479 96.5944 5.15479H101.094C103.206 5.15479 104.611 6.49242 104.611 8.49373V50.4903C104.611 52.4916 103.206 53.8293 101.094 53.8293H96.0345C94.9808 53.8293 93.9832 53.3611 93.2909 52.5585L67.754 22.3383V22.3434Z" fill="#12304A"/>
<path d="M150.157 51.8335L145.576 41.544H125.603L121.022 51.8335C120.411 53.0734 119.154 53.8503 117.784 53.8349H113.427C110.195 53.8349 108.928 51.9673 110.195 49.1583L129.176 7.09994C129.782 5.85491 131.044 5.07805 132.413 5.09349H138.811C140.181 5.07805 141.438 5.86006 142.044 7.09994L161.03 49.1583C162.292 51.9673 161.03 53.8349 157.792 53.8349H153.364C151.995 53.8503 150.737 53.0734 150.132 51.8335M135.574 18.7991L129.39 32.9729H141.835L135.574 18.7991Z" fill="#12304A"/>
<path d="M174.427 26.9585V50.4957C174.427 52.497 173.154 53.8346 171.251 53.8346H167.565C165.657 53.8346 164.384 52.497 164.384 50.4957V8.50424C164.384 6.49779 165.657 5.16016 167.565 5.16016H173.673C174.915 5.19617 176.03 5.95245 176.534 7.09973L190.445 38.5907L204.046 7.09973C204.55 5.95245 205.659 5.19617 206.901 5.16016H213.32C215.224 5.16016 216.496 6.49779 216.496 8.50424L216.562 50.4957C216.562 52.497 215.29 53.8346 213.381 53.8346H209.635C207.731 53.8346 206.459 52.497 206.459 50.4957V26.9585L195.52 51.9002C195.016 53.0526 193.906 53.8141 192.659 53.8552H188.211C186.969 53.8192 185.859 53.0681 185.355 51.9208L174.427 26.9585Z" fill="#12304A"/>
<path d="M14.3795 36.3783L20.1822 31.0483L31.7723 27.3184L35.1674 34.8348L11.1931 48.7257L14.3795 36.3783Z" fill="#12304A"/>
<path d="M32.3627 25.518C15.4891 28.2087 13.1223 36.4711 11.9108 46.0455C15.8658 36.2705 23.6536 31.954 36.7962 30.9765C22.035 33.2248 14.3999 42.4905 11.3458 51.7356C11.6309 51.7356 13.2342 47.2442 20.6556 45.459C25.1959 44.3683 38.0891 45.0371 45.4544 38.3798C52.0308 32.4274 49.7708 18.7835 49.7657 18.6343C49.5519 18.8915 48.8851 22.8838 32.3576 25.518" fill="#65B234"/>
</svg>
