<svg width="213" height="61" viewBox="0 0 213 61" fill="none" xmlns="http://www.w3.org/2000/svg">
<g clip-path="url(#clip0_12562_203)">
<path d="M99.013 0.871416C96.1704 2.57466 95.0093 6.57531 95.6899 12.1208C96.2905 16.9136 98.7328 23.3701 99.9339 23.3701C100.534 23.3701 100.615 23.1721 101.656 17.9039C102.656 13.0714 103.818 10.8136 106.22 9.30843C107.661 8.39739 108.102 7.88245 108.102 7.09025C108.102 5.03051 107.581 3.4857 106.46 2.37661C104.018 -0.0396233 101.335 -0.594168 99.013 0.871416Z" fill="#FF1E14"/>
<path d="M142.974 7.76345C137.249 10.6154 133.005 17.9433 130.483 29.3115C129.722 32.7972 129.602 34.6985 129.562 40.9966C129.562 47.8096 129.642 48.7602 130.443 50.8596C131.764 54.4245 134.006 57.0388 136.969 58.6232C139.371 59.8907 139.771 60.0096 143.135 59.9699C147.178 59.9699 149.901 59.0985 153.865 56.4842C155.066 55.692 156.187 55.0583 156.427 55.0583C156.627 55.0583 157.308 55.5732 157.908 56.207C158.549 56.8407 160.231 57.9498 161.712 58.7024C164.194 59.9303 164.635 60.0096 168.358 60.0096C173.043 60.0096 176.125 59.1381 180.289 56.6427C181.731 55.7712 183.012 55.0583 183.172 55.0583C183.292 55.0583 183.252 56.0089 183.132 57.1972C182.892 59.1381 182.932 59.3758 183.773 59.8115C185.014 60.4849 188.857 60.0492 190.139 59.1381C191.94 57.8706 192.981 55.1375 193.422 50.8596C193.982 44.8388 194.623 41.5511 195.504 39.6894C196.625 37.3128 199.227 34.7777 201.95 33.4706C203.912 32.5199 204.472 32.4011 205.353 32.7576C208.836 34.1836 208.996 34.2232 210.077 33.8271C211.599 33.3122 213 31.1336 213 29.3115C213 27.4894 211.679 25.4693 209.797 24.5186C207.995 23.5284 204.512 23.568 202.39 24.5186C200.308 25.4297 197.586 28.1628 196.104 30.7771C194.663 33.2725 194.182 33.6686 194.182 32.2823C194.182 30.7771 192.701 27.9648 191.42 27.0537C190.059 26.0238 187.256 25.1524 186.415 25.4693C185.895 25.6673 185.775 26.3803 185.735 28.9946C185.735 30.8167 185.494 35.8076 185.214 40.1647L184.734 48.0472L183.172 49.394C179.369 52.6024 173.803 54.4245 169.96 53.7115C167.437 53.2362 164.555 49.9881 164.555 47.6115C164.555 47.0173 165.035 46.7401 166.476 46.3836C169.479 45.631 175.405 42.6602 177.447 40.8381C182.572 36.3225 182.732 28.9154 177.767 26.1427C176.125 25.2316 175.525 25.1524 171.361 25.1524C167.317 25.1524 166.516 25.2712 164.835 26.1031C161.992 27.4894 158.869 30.4998 157.068 33.5498C155.106 36.9167 154.705 37.8673 153.945 41.5511C153.424 44.007 153.384 45.0764 153.785 47.6115C154.305 51.216 154.225 51.4537 151.262 52.9193C147.459 54.8206 143.935 54.5433 141.933 52.2063C140.852 50.9388 139.731 48.6414 139.731 47.6907C139.731 47.3738 141.573 45.2745 143.855 43.0563C150.221 36.8375 154.505 29.7076 155.786 23.2511C156.347 20.3992 156.347 14.8141 155.786 12.7544C155.226 10.7738 153.104 8.27839 151.182 7.36735C149.02 6.37709 145.497 6.53553 142.974 7.76345ZM149.981 12.1602C151.582 14.2992 149.541 24.6375 146.017 32.0842C143.855 36.6394 139.972 42.581 139.331 42.1849C138.69 41.7888 141.373 26.9349 143.175 21.0725C144.376 17.1511 145.617 14.5368 147.138 12.7148C148.339 11.3284 149.22 11.1699 149.981 12.1602ZM173.643 29.668C173.923 30.0245 174.164 30.7771 174.164 31.3316C174.164 32.6784 173.043 35.9264 171.962 37.6297C169.84 40.957 164.154 44.6011 164.154 42.6206C164.154 41.3531 165.556 36.0849 166.356 34.2232C167.357 32.005 169.479 29.3907 170.72 28.9154C171.761 28.4797 173.003 28.8362 173.643 29.668Z" fill="#FF1E14"/>
<path d="M25.2237 7.72404C11.771 10.0611 3.68345 15.9234 0.800745 25.3903C-0.28027 28.9156 -0.200195 30.8961 1.04097 33.4708C2.64247 36.8773 5.52518 38.8182 8.88834 38.8182C10.69 38.8182 12.4116 37.9468 12.4116 37.0753C12.4116 36.7981 12.0513 36.0851 11.6109 35.5305C11.1705 34.976 10.4898 33.352 10.1295 31.926C9.52894 29.7474 9.4889 28.9948 9.88928 27.1331C10.65 23.6078 12.0913 20.9539 14.8139 18.102C18.137 14.5766 18.6175 14.5766 18.2571 18.3C18.097 19.8844 17.6966 24.202 17.3763 27.9253C15.5346 48.9981 15.4945 50.5033 16.7757 53.3552C17.8167 55.6526 19.8586 57.7124 22.5011 59.0987C24.0626 59.9305 24.7432 60.0098 29.6278 60.0098C35.0729 59.9702 36.6344 59.7325 40.6382 58.0292C43.3207 56.8805 47.1643 53.9494 48.7658 51.7708C51.2081 48.5228 51.8487 46.6215 51.8487 42.9377C51.8487 39.9273 51.7686 39.6104 50.4874 37.7487C48.8859 35.4117 46.2434 33.5896 43.0804 32.5994C41.8393 32.2033 40.8383 31.7676 40.8383 31.6091C40.8383 31.4507 41.8793 30.7377 43.1605 29.9455C45.9632 28.2818 48.4855 25.7468 49.6466 23.4494C50.8077 21.152 50.8077 17.3098 49.6866 15.1312C48.1252 12.0812 44.2015 9.38768 39.437 8.08054C36.2741 7.24872 29.0273 7.05067 25.2237 7.72404ZM34.072 12.5169C36.8746 13.3487 38.7564 14.7351 39.6772 16.7948C41.3588 20.439 40.0776 24.6773 36.3541 27.8857C34.1521 29.787 30.0282 32.0052 28.4267 32.1637C27.5859 32.2825 27.4257 32.124 27.5058 31.2922C28.0263 23.1325 28.9071 12.4773 29.0673 12.2396C29.3876 11.6851 31.6697 11.8435 34.072 12.5169ZM36.9547 36.7981C40.478 38.3033 42.1596 42.0663 41.1186 46.1065C39.8374 50.939 35.4333 54.6624 30.9891 54.6624C28.747 54.6624 27.666 53.9098 26.8252 51.6916C26.3447 50.4637 26.585 40.2838 27.1855 38.1448C27.746 36.0851 33.4314 35.2929 36.9547 36.7981Z" fill="#FF1E14"/>
<path d="M113.346 12.0017C110.384 13.4673 106.38 17.7056 105.099 20.716C104.178 22.8946 104.978 22.9738 109.222 21.0329C112.946 19.3297 115.628 18.9336 117.911 19.805C121.594 21.1914 123.276 13.3881 119.752 11.4868C118.391 10.8134 115.228 11.0511 113.346 12.0017Z" fill="#FF1E14"/>
<path d="M77.5129 13.3093C72.4681 15.1314 67.3033 21.469 65.0211 28.5989C64.6208 29.8664 64.1803 30.8963 63.9802 30.8963C63.78 30.8963 63.4597 30.421 63.2194 29.7872C62.6189 28.2424 61.2976 26.9353 59.4559 26.1034C57.6142 25.2716 55.8125 25.1528 55.4121 25.8262C55.2119 26.1034 55.1318 31.4905 55.1719 37.8281C55.292 47.8496 54.9317 54.9002 54.251 57.6333C53.6905 59.8119 57.9345 61.0398 60.8572 59.5346C63.2995 58.3067 64.0602 56.0885 64.5006 49.2359C64.7008 46.0275 65.1412 41.9872 65.4615 40.284C66.4625 34.8177 70.5864 27.6483 74.3499 24.8359C76.4318 23.3307 76.7521 23.2119 79.8751 23.0138C83.5986 22.7366 84.5595 22.2216 85.3202 19.9242C86.201 17.2307 84.9999 14.1807 82.5976 13.2301C80.9961 12.5567 79.5147 12.5567 77.5129 13.3093Z" fill="#FF1E14"/>
<path d="M111.024 24.9546C107.221 25.7468 104.218 27.965 102.737 31.0942C101.295 34.1046 101.335 36.7981 102.857 39.452C104.138 41.6702 105.019 42.3831 110.384 45.7104C115.909 49.1169 117.751 51.5728 116.349 53.6721C115.589 54.7812 112.986 55.613 111.305 55.2565C109.463 54.8604 107.061 52.8799 105.299 50.3052C104.418 48.9981 103.377 47.9286 103.017 47.9286C102.697 47.9286 101.575 48.5228 100.534 49.2357C91.7262 55.4942 83.7587 55.3753 81.6768 48.9981C81.0762 47.0968 81.2364 46.9383 84.5195 45.7896C90.8854 43.5715 95.1695 40.6403 97.0112 37.313C99.8539 32.1637 98.2924 27.4896 93.1275 25.5487C91.7262 24.9942 90.4851 24.915 87.6023 25.0338C82.998 25.2318 80.3956 26.3409 77.3127 29.3909C72.1879 34.4611 69.7055 41.6305 70.8266 48.2059C71.1069 49.9091 71.8275 52.1669 72.3881 53.1968C73.7894 55.7715 76.8322 58.3857 79.3946 59.2968C81.957 60.1682 87.4422 60.2474 90.2849 59.4552C92.2067 58.9007 96.4106 56.9598 98.5326 55.613C99.5736 54.9396 99.6136 54.9396 101.135 56.4448C102.016 57.2766 103.697 58.4254 104.899 58.9799C106.82 59.8909 107.621 60.0098 111.305 60.0098C116.91 60.0098 119.672 59.0195 123.236 55.6922C125.037 53.989 126.519 50.8202 126.519 48.602C126.519 47.889 126.078 46.4234 125.558 45.3539C124.317 42.7 122.795 41.3929 116.509 37.5111C111.625 34.5007 110.664 33.352 111.104 31.2526C111.865 27.8857 116.99 28.2818 120.073 31.9656C120.753 32.7974 121.314 33.6292 121.314 33.8273C121.314 34.0254 121.594 34.5007 121.955 34.8968C122.475 35.4909 122.755 35.5305 123.756 35.0948C126.759 33.8273 127.88 31.5695 126.679 29.1137C125.398 26.3805 121.995 24.915 116.509 24.7169C114.428 24.6377 111.945 24.7565 111.024 24.9546ZM90.0046 29.1533C92.1666 30.6189 90.5251 36.2831 86.9217 39.9669C85.2802 41.6305 82.3174 43.5715 81.4366 43.5715C80.9161 43.5715 81.5967 38.6202 82.3975 36.3228C83.5185 33.2331 85.5204 30.1831 87.0418 29.2721C88.5632 28.3611 88.8435 28.3611 90.0046 29.1533Z" fill="#FF1E14"/>
<path d="M203.952 49.9487C203.231 50.1468 202.11 50.939 201.429 51.6916C200.348 52.9195 200.188 53.3948 200.188 55.3357C200.188 57.4747 200.268 57.6331 201.99 59.2968C203.591 60.8019 204.032 61 205.593 61C207.155 61 207.595 60.8019 209.196 59.2968C210.918 57.6331 210.998 57.4747 210.998 55.3357C210.998 53.5136 210.798 52.9195 209.917 51.8896C208.356 50.0675 206.074 49.3149 203.952 49.9487ZM207.795 51.3351C209.076 52.1273 210.197 53.8305 210.197 55.0584C210.197 56.4844 209.076 58.4253 207.835 59.1383C204.192 61.2773 200.028 57.7916 201.349 53.7513C202.23 51.1766 205.433 49.9487 207.795 51.3351Z" fill="#FF1E14"/>
<path d="M203.391 55.2961C203.391 57.5142 203.511 58.2668 203.912 58.148C204.152 58.0292 204.432 57.4746 204.512 56.9201C204.672 55.5337 205.193 55.5733 206.074 57.0389C206.994 58.6233 208.076 58.7026 207.235 57.1181C206.674 56.0487 206.714 55.9298 207.475 55.1376C208.236 54.4246 208.276 54.1474 207.875 53.2759C207.475 52.4045 207.155 52.2857 205.393 52.2857H203.391V55.2961ZM206.834 53.5136C207.195 54.1474 205.994 55.2168 205.233 54.9396C204.873 54.7811 204.592 54.3058 204.592 53.8701C204.592 53.2759 204.873 53.0779 205.553 53.0779C206.114 53.0779 206.674 53.2759 206.834 53.5136Z" fill="#FF1E14"/>
</g>
<defs>
<clipPath id="clip0_12562_203">
<rect width="213" height="61" fill="white"/>
</clipPath>
</defs>
</svg>
