<svg width="219" height="49" viewBox="0 0 219 49" fill="none" xmlns="http://www.w3.org/2000/svg">
<path d="M40.0803 19.711C40.1297 18.854 39.4637 16.157 35.9366 16.157C30.2637 16.157 27.1559 21.8283 27.5752 26.0628C27.9205 29.4152 30.017 33.7254 36.8492 33.7254C44.742 33.7254 50.2176 28.6086 53.2761 24.7269C53.2761 24.7269 55.1013 22.6349 57.9131 17.7954C60.3303 13.6112 60.9469 10.9142 61.0949 9.83034C61.1195 9.6539 61.1195 9.40184 61.0455 9.2254C60.9962 9.09937 60.9222 8.97334 60.7742 8.82211C59.5656 7.68785 52.8814 5.67139 32.8535 5.67139C12.8256 5.67139 6.19071 7.68785 4.95747 8.82211C4.80948 8.94814 4.73548 9.07416 4.68615 9.2254C4.61216 9.40184 4.61216 9.6539 4.63682 9.83034C4.78481 10.9142 5.62342 13.3843 8.08991 17.5433C10.951 22.3576 12.4803 24.7269 12.4803 24.7269C12.4803 24.7269 10.951 27.0711 8.08991 31.9106C5.62342 36.0695 4.80948 38.5397 4.63682 39.6235C4.61216 39.8 4.61216 40.052 4.68615 40.2285C4.73548 40.3545 4.80948 40.4805 4.95747 40.6318C6.16605 41.766 12.8502 43.7825 32.8782 43.7825C52.9061 43.7825 59.5656 41.7408 60.7989 40.6318C60.9469 40.4805 61.0209 40.3797 61.0702 40.2285C61.1442 40.052 61.1442 39.8 61.1195 39.6235C60.9715 38.5397 60.1329 36.0695 57.6664 31.9106C56.3099 29.6421 55.2739 27.9029 54.534 26.7182C51.6975 30.4234 44.816 37.8339 35.468 37.8339C23.8015 37.8339 20.5457 29.6421 20.5457 25.7352C20.5457 20.6688 23.5055 11.7964 35.5667 11.7964C40.549 11.7964 45.4326 14.6698 45.4326 18.6271C45.4326 22.5845 42.3742 23.6683 40.6476 23.6683C38.9211 23.6683 38.0825 22.8617 38.0825 22.8617C38.0825 22.8617 39.9324 21.8787 40.0803 19.7362" fill="#E3251D"/>
<path d="M83.4663 17.9212H83.491C85.1928 17.9212 86.5741 18.5766 87.6593 19.8368C88.2266 20.5174 88.6953 20.9207 89.3119 20.9207C89.6572 20.9207 90.0025 20.8199 90.5451 20.5678C91.2111 20.2401 91.877 19.8368 91.877 19.1059C91.877 18.753 91.7291 18.3749 91.4084 17.9212C89.5339 15.1234 86.5741 13.6362 82.8003 13.6362H82.7264C75.7462 13.6362 71.0352 18.1481 70.9858 24.8528C70.9858 28.0287 72.0218 30.7509 74.0196 32.7422C76.0668 34.7587 79.0019 35.8425 82.455 35.8425H82.529C86.4754 35.8425 89.5339 34.3302 91.3591 31.4819C91.6551 31.003 91.7784 30.6753 91.8031 30.3729C91.8031 29.7427 91.2604 29.3394 90.6685 29.0117C90.1752 28.7345 89.8299 28.6085 89.5092 28.6085C88.9912 28.6085 88.5966 28.9109 88.054 29.4907C86.7961 30.8266 85.2422 31.5071 83.417 31.5071H83.3923C81.5671 31.5071 80.0872 30.7761 79.0759 29.4654C78.1633 28.2556 77.6947 26.5668 77.6947 24.7016C77.6947 20.4922 79.8652 17.9716 83.4663 17.9716" fill="#E3251D"/>
<path d="M132.105 13.8378C130.404 13.9134 128.628 14.6948 127.468 15.8795C127.37 15.9803 127.296 16.0559 127.246 16.0811C127.246 16.0307 127.246 15.9551 127.246 15.8291C127.246 14.6696 126.827 14.2663 125.619 14.2663H123.152C121.376 14.2663 120.784 14.8208 120.76 16.5348L120.686 33.221C120.686 34.1284 120.834 34.6578 121.204 35.0106C121.573 35.3635 122.141 35.5148 123.103 35.5148H124.805C126.58 35.5148 127.172 34.935 127.197 33.2462L127.246 23.0127C127.246 20.4417 129.047 18.7277 131.686 18.7277C131.859 18.7277 132.031 18.7277 132.179 18.7277C132.451 18.7529 132.722 18.7781 132.993 18.7781C134.375 18.7781 134.868 18.2488 134.893 16.7365C134.893 15.4762 134.72 14.7704 134.251 14.3419C133.832 13.9386 133.166 13.7622 132.155 13.8126" fill="#E3251D"/>
<path d="M147.25 32.0111H147.225C145.548 32.0111 144.241 31.2802 143.377 29.8938C142.613 28.6588 142.194 26.9448 142.218 24.9283C142.218 21.6011 143.575 18.0219 147.299 18.0219C149.766 18.0219 152.38 19.8619 152.356 25.0039C152.356 29.3897 150.432 31.9859 147.275 31.9859M147.447 13.8882H147.373C140.196 13.8882 135.534 18.2992 135.509 25.1047C135.485 31.7591 140.048 36.0693 147.151 36.0945H147.225C150.851 36.0945 153.86 35.0106 155.957 32.9437C157.954 30.9525 159.04 28.1798 159.064 24.8779C159.064 21.8028 158.004 19.0554 156.006 17.0893C153.909 15.0224 150.95 13.9134 147.472 13.8882" fill="#E3251D"/>
<path d="M178.55 31.1793H171.397C171.052 31.1541 170.805 31.1037 170.657 31.0281C170.534 30.9777 170.509 30.902 170.509 30.8264C170.509 30.7004 170.583 30.4988 170.879 30.1207L180.079 18.2488C180.794 17.3161 180.893 17.0893 180.893 15.9298C180.893 15.3753 180.794 15.0476 180.572 14.8208C180.35 14.5939 179.98 14.4931 179.413 14.4931L164.417 14.4175H164.367C162.592 14.4175 162 14.9972 161.975 16.686C161.975 18.4 162.567 18.9797 164.367 18.9797H170.509C170.854 19.0049 171.101 19.0553 171.249 19.1058C171.372 19.1562 171.397 19.2318 171.397 19.3074C171.397 19.4334 171.323 19.6351 171.027 20.0132L161.802 31.8851C161.087 32.8177 161.013 33.0445 160.988 34.204C160.988 35.2878 161.358 35.6407 162.493 35.6407L178.5 35.7163H178.55C180.35 35.7163 180.918 35.1618 180.918 33.4226C180.918 31.6834 180.35 31.1289 178.525 31.1289" fill="#E3251D"/>
<path d="M200.896 31.2804H193.743C193.324 31.2552 192.83 31.1796 192.83 30.9275C192.83 30.8267 192.904 30.5998 193.2 30.2217L202.4 18.3498C203.116 17.4172 203.19 17.1904 203.214 16.0309C203.214 14.9723 202.844 14.6194 201.71 14.5942L186.714 14.5186H186.664C184.888 14.5186 184.296 15.0983 184.272 16.7871C184.272 17.6945 184.42 18.2238 184.79 18.5767C185.16 18.9296 185.727 19.0808 186.689 19.0808H192.83C193.422 19.106 193.743 19.2068 193.743 19.4085C193.743 19.5345 193.669 19.7361 193.373 20.1142L184.148 31.9861C183.433 32.9188 183.334 33.1456 183.334 34.3051C183.334 34.8596 183.433 35.2125 183.655 35.4141C183.877 35.641 184.247 35.7418 184.839 35.7418L200.847 35.8174H200.896C202.672 35.8174 203.264 35.2377 203.288 33.5237C203.288 31.8097 202.696 31.23 200.896 31.23" fill="#E3251D"/>
<path d="M210.565 12.4011C212.686 12.4011 214.339 10.8131 214.363 8.82189C214.363 7.83887 213.993 6.95667 213.278 6.27611C212.587 5.62076 211.625 5.24268 210.565 5.24268C208.444 5.24268 206.766 6.80543 206.742 8.77148C206.742 10.7627 208.444 12.3759 210.54 12.4011" fill="#E3251D"/>
<path d="M211.378 14.6445H209.726C207.95 14.6445 207.358 15.2243 207.333 16.913L207.259 33.6245C207.259 35.3637 207.827 35.9182 209.652 35.9182H211.304C213.08 35.9182 213.672 35.3637 213.697 33.6497L213.771 16.9383C213.771 15.1991 213.204 14.6445 211.378 14.6445Z" fill="#E3251D"/>
<path d="M105.27 30.9021H105.22C103.173 30.9021 100.583 28.7596 100.583 24.8023C100.583 21.954 102.063 18.7277 105.27 18.7277H105.294C108.452 18.7277 109.907 21.828 109.907 24.8023C109.907 28.3563 108.131 30.9021 105.27 30.9021ZM114.026 14.2411H112.398C111.51 14.2411 110.992 14.3923 110.647 14.72C110.351 15.0225 110.203 15.451 110.178 16.1315C108.723 14.6696 106.256 14.115 104.283 14.0898H104.209C98.709 14.0898 94.3679 18.7781 94.3433 24.7519C94.3433 27.7766 95.3052 30.5492 97.1057 32.5153C98.9063 34.4813 101.397 35.5904 104.111 35.6156H104.16C106.552 35.6156 109.068 34.5317 110.203 33.221V33.347C110.203 34.935 110.77 35.4643 112.423 35.4643H114.001C114.889 35.4643 115.407 35.3131 115.752 34.9854C116.073 34.6577 116.221 34.1536 116.221 33.3218V16.3332C116.221 14.72 115.678 14.2159 114.051 14.2159" fill="#E3251D"/>
</svg>
