<svg width="178" height="68" viewBox="-1 50 178 68" fill="none" xmlns="http://www.w3.org/2000/svg">
<path d="M176 53.262H158.787L145.623 77.6392L132.46 53.262H114.695L136.971 93.4614V115.631H153.356V93.4614L176 53.262Z" fill="white"/>
<path d="M69.7741 53.262H50.8117L73.8243 84.4465L50.8117 115.631H69.7741L92.7866 84.4465L69.7741 53.262Z" fill="#00E400"/>
<path d="M109.172 53.262H92.7866V115.631H109.172V53.262Z" fill="white"/>
<path d="M47.4059 97.1411C47.4059 87.5742 42.159 81.5949 30.7448 78.0073L21.2636 75.1556C18.0419 74.1437 16.0167 73.0399 16.0167 70.1882C16.0167 67.3365 19.6067 65.6807 24.3013 65.6807C31.4812 65.6807 37.6485 67.9804 43.2636 71.844V56.8497C38.0167 53.998 32.0335 52.1582 23.5649 52.1582C10.4017 52.1582 -0.092041 58.9654 -0.092041 71.384C-0.092041 83.8026 5.70712 86.9303 16.2008 89.966L25.682 92.7256C29.0879 93.9215 31.0209 94.9334 31.0209 97.9691C31.0209 101.005 26.5105 102.936 21.3557 102.936C16.2008 102.936 6.62762 100.085 1.28871 96.4052V111.4C5.89122 114.159 13.4393 116.459 21.8159 116.459C35.8996 116.459 47.4059 110.48 47.4059 96.9572" fill="white"/>
</svg>
