<?xml version="1.0" encoding="UTF-8"?>
<svg id="Layer_2" data-name="Layer 2" xmlns="http://www.w3.org/2000/svg" viewBox="0 0 1518.92 411.91">
  <defs>
    <style>
      .cls-1 {
        fill: #6ec207;
      }

      .cls-2 {
        fill: #fff;
      }
    </style>
  </defs>
  <g id="Capa_1" data-name="Capa 1">
    <g>
      <path class="cls-2" d="M205.47,282.86h55.81c-2.71,11.81-9.39,20.89-20.04,27.25-10.65,6.37-24.1,9.55-40.33,9.55-10.49,0-20.13-1.78-28.92-5.36-8.8-3.57-16.41-8.69-22.83-15.37-6.43-6.67-11.5-14.75-15.22-24.22-3.73-9.47-5.58-20.1-5.58-31.91,0-23.6,6.68-42.23,20.04-55.9,13.36-13.66,30.52-20.5,51.5-20.5,10.82,0,21.89,1.79,33.23,5.36,11.33,3.57,21.89,8.62,31.71,15.14l61.39-66.15c-15.9-14.91-35.01-26.24-57.33-34.01-22.33-7.76-47.18-11.65-74.58-11.65s-53.95,4.19-77.62,12.58c-23.68,8.39-44.14,20.03-61.39,34.94-17.25,14.91-30.78,32.69-40.59,53.34C4.9,196.61,0,219.04,0,243.27s4.73,47.13,14.21,67.78c9.47,20.66,22.58,38.43,39.32,53.34,16.74,14.91,36.78,26.55,60.12,34.94,23.34,8.39,48.87,12.58,76.61,12.58,26.04,0,50.05-3.65,72.04-10.95,21.98-7.29,40.92-17.7,56.82-31.21,15.89-13.51,28.32-29.82,37.29-48.92,8.96-19.1,13.44-40.45,13.44-64.05v-44.26h-164.37v70.34Z"/>
      <rect class="cls-2" x="398.76" y="56.45" width="114.15" height="349.4"/>
      <rect class="cls-2" x="541.83" y="171.98" width="114.66" height="232.47"/>
      <path class="cls-2" d="M911.66,322.46c-6.09.31-10.83.47-14.21.47-12.52,0-21.39-2.71-26.63-8.15-5.25-5.43-7.86-13.58-7.86-24.46v-38.2h72.04v-78.73h-55.3c-6.77,0-12.52-1.32-17.25-3.96-4.74-2.64-7.1-6.44-7.1-11.41v-69.88l-112.12,9.32v23.29c0,13.98,2.36,24.92,7.1,32.84,4.73,7.92,13.01,14.52,24.86,19.8h-79.14v78.73h52.25v52.18c0,19.57,2.03,36.1,6.09,49.61,4.06,13.51,10.65,24.46,19.78,32.84,9.13,8.39,21.05,14.44,35.77,18.17,14.71,3.73,32.55,5.59,53.52,5.59,10.48,0,22.15-.23,35.01-.7,12.85-.47,25.37-1.33,37.54-2.56l-9.64-86.65c-3.73.93-8.63,1.56-14.71,1.86Z"/>
      <path class="cls-2" d="M1148.82,319.43c-8.29,1.4-16.83,2.1-25.62,2.1-16.23,0-29.17-3.03-38.81-9.08-9.64-6.06-14.46-14.21-14.46-24.46s4.23-17.62,12.68-23.06c8.45-5.43,20.29-8.15,35.51-8.15,10.48,0,20.55,1.16,30.19,3.49,9.64,2.33,18.18,5.67,25.62,10.02l29.42-76.87c-11.5-7.45-25.29-13.43-41.35-17.94-16.07-4.5-33.91-6.75-53.52-6.75-22.66,0-43.3,2.87-61.89,8.62-18.6,5.75-34.5,13.9-47.69,24.46-13.19,10.56-23.43,23.22-30.69,37.97-7.28,14.76-10.91,31.29-10.91,49.61s3.55,34.47,10.66,49.38c7.1,14.91,17.25,27.72,30.44,38.43,13.19,10.72,29,18.95,47.43,24.69,18.43,5.74,38.98,8.62,61.64,8.62,19.61,0,37.96-2.56,55.04-7.69,17.08-5.13,31.37-11.57,42.87-19.33l-33.99-69.88c-6.77,2.49-14.29,4.43-22.58,5.82Z"/>
      <path class="cls-2" d="M1493.05,195.28c-17.25-17.7-41.94-26.55-74.07-26.55-14.21,0-27.32,1.94-39.32,5.82-12.01,3.89-24.44,10.33-37.29,19.33V56.45h-109.08v349.4h114.15v-121.12c0-8.39,2.87-15.21,8.63-20.5,5.75-5.28,13.19-7.92,22.32-7.92,8.12,0,14.71,2.56,19.79,7.69,5.07,5.12,7.61,11.88,7.61,20.26v121.59h113.14v-134.17c0-33.23-8.63-58.7-25.87-76.4Z"/>
      <path class="cls-1" d="M643.2,53.17c-6.06-1.95-10.92-2.33-14.9-2.21,2.88-8.33,10.66-24.63,22.05-27.51,2.65-.67,4.26-3.37,3.58-6.02-.67-2.65-3.37-4.27-6.02-3.58-6.23,1.58-11.38,5.46-15.56,10.11-.41-2.51-1.12-5.02-2.31-7.34-5.57-10.86-20.18-15.84-21.83-16.37-2.61-.84-5.4.59-6.24,3.19-.53,1.65-5.03,16.41.54,27.28,3.87,7.55,12.1,12.25,17.32,14.6-.39,1-.7,1.86-.96,2.61-3.16-2.42-7.33-4.96-13.4-6.92-17.21-5.55-40.1-4.8-51.41,30.27-8.45,26.2,1.21,68.06,22.67,74.98,4.77,1.54,9.81,2.18,15,1.92,4.06,3.25,8.52,5.67,13.29,7.2,27.32,8.81,54.13-22.56,62.2-47.61,11.31-35.07-6.83-49.05-24.04-54.6ZM597.87,64.58c-7.28-2.35-14.15-4.56-20.23,14.3-.84,2.61-3.63,4.04-6.24,3.19s-4.04-3.63-3.19-6.24c8.04-24.93,21.04-24.45,32.7-20.69,2.61.84,4.04,3.63,3.19,6.24-.84,2.61-3.63,4.04-6.24,3.19Z"/>
    </g>
  </g>
</svg>
