<?xml version="1.0" encoding="UTF-8"?>
<svg id="Layer_2" data-name="Layer 2" xmlns="http://www.w3.org/2000/svg" viewBox="0 0 1487.25 403.32">
  <defs>
    <style>
      .cls-1 {
        fill: #6ec207;
      }

      .cls-2 {
        fill: #022a4e;
      }
    </style>
  </defs>
  <g id="Capa_1" data-name="Capa 1">
    <g>
      <path class="cls-2" d="M201.19,276.97h54.64c-2.65,11.56-9.19,20.46-19.62,26.69-10.43,6.24-23.59,9.35-39.49,9.35-10.27,0-19.71-1.75-28.31-5.25-8.62-3.49-16.07-8.51-22.36-15.05-6.29-6.53-11.26-14.44-14.9-23.72-3.65-9.27-5.47-19.69-5.47-31.25,0-23.11,6.54-41.35,19.62-54.74,13.08-13.38,29.88-20.07,50.42-20.07,10.59,0,21.44,1.75,32.54,5.25,11.09,3.5,21.44,8.44,31.05,14.82l60.11-64.77c-15.57-14.6-34.28-25.69-56.13-33.3-21.86-7.6-46.2-11.4-73.02-11.4s-52.83,4.1-76,12.31c-23.19,8.21-43.22,19.61-60.11,34.21-16.89,14.6-30.14,32.01-39.74,52.23C4.8,192.51,0,214.47,0,238.19s4.63,46.15,13.91,66.37c9.27,20.23,22.1,37.63,38.5,52.23,16.39,14.6,36.01,26,58.87,34.21,22.85,8.21,47.85,12.32,75.01,12.32,25.5,0,49.01-3.58,70.54-10.72,21.52-7.14,40.06-17.33,55.64-30.56,15.56-13.23,27.73-29.19,36.51-47.9,8.77-18.7,13.16-39.61,13.16-62.72v-43.33h-160.95v68.88Z"/>
      <rect class="cls-2" x="390.45" y="55.28" width="111.77" height="342.11"/>
      <rect class="cls-2" x="530.53" y="168.39" width="112.27" height="227.62"/>
      <path class="cls-2" d="M892.65,315.74c-5.96.31-10.6.46-13.91.46-12.26,0-20.95-2.66-26.08-7.98-5.14-5.32-7.7-13.3-7.7-23.95v-37.4h70.54v-77.09h-54.15c-6.63,0-12.26-1.29-16.89-3.88-4.64-2.58-6.96-6.31-6.96-11.18v-68.42l-109.78,9.12v22.81c0,13.68,2.31,24.4,6.96,32.16,4.63,7.76,12.74,14.22,24.34,19.39h-77.49v77.09h51.16v51.09c0,19.16,1.99,35.35,5.96,48.58,3.97,13.23,10.43,23.95,19.37,32.16,8.94,8.21,20.61,14.14,35.02,17.79,14.4,3.65,31.87,5.47,52.41,5.47,10.26,0,21.69-.23,34.28-.68,12.58-.46,24.84-1.3,36.76-2.51l-9.44-84.84c-3.65.91-8.45,1.53-14.4,1.83Z"/>
      <path class="cls-2" d="M1124.87,312.77c-8.12,1.37-16.48,2.05-25.09,2.05-15.89,0-28.56-2.96-38-8.89-9.44-5.93-14.16-13.91-14.16-23.95s4.14-17.26,12.42-22.58c8.27-5.32,19.87-7.98,34.77-7.98,10.26,0,20.12,1.14,29.56,3.42,9.44,2.28,17.8,5.55,25.09,9.81l28.81-75.26c-11.26-7.3-24.76-13.15-40.49-17.56-15.73-4.4-33.21-6.61-52.41-6.61-22.19,0-42.4,2.81-60.6,8.44-18.22,5.63-33.78,13.61-46.69,23.95-12.92,10.34-22.94,22.74-30.05,37.18-7.13,14.45-10.68,30.64-10.68,48.58s3.48,33.76,10.43,48.35c6.95,14.6,16.89,27.14,29.81,37.63,12.91,10.49,28.39,18.55,46.44,24.18,18.04,5.62,38.17,8.44,60.36,8.44,19.2,0,37.17-2.51,53.9-7.53,16.72-5.02,30.71-11.33,41.98-18.93l-33.28-68.42c-6.63,2.44-14,4.33-22.1,5.7Z"/>
      <path class="cls-2" d="M1461.92,191.21c-16.89-17.33-41.07-26-72.53-26-13.91,0-26.75,1.9-38.5,5.7-11.76,3.81-23.93,10.11-36.51,18.93V55.28h-106.8v342.11h111.77v-118.6c0-8.21,2.81-14.9,8.45-20.07,5.63-5.17,12.92-7.75,21.86-7.75,7.95,0,14.41,2.51,19.38,7.53,4.97,5.02,7.45,11.63,7.45,19.84v119.06h110.78v-131.37c0-32.54-8.45-57.47-25.33-74.81Z"/>
      <path class="cls-1" d="M629.79,52.06c-5.93-1.91-10.69-2.28-14.59-2.17,2.82-8.16,10.43-24.11,21.59-26.94,2.6-.66,4.17-3.29,3.51-5.89-.66-2.6-3.3-4.18-5.89-3.51-6.1,1.55-11.15,5.35-15.24,9.9-.4-2.46-1.09-4.91-2.26-7.19-5.45-10.64-19.76-15.51-21.37-16.03-2.55-.82-5.28.58-6.11,3.13-.52,1.61-4.92,16.07.53,26.71,3.79,7.39,11.85,12,16.96,14.29-.38.98-.68,1.83-.94,2.55-3.1-2.37-7.17-4.86-13.12-6.77-16.85-5.43-39.26-4.7-50.34,29.64-8.27,25.65,1.19,66.64,22.2,73.42,4.67,1.51,9.6,2.14,14.69,1.88,3.97,3.18,8.35,5.55,13.02,7.05,26.75,8.63,53-22.09,60.91-46.62,11.07-34.34-6.69-48.03-23.54-53.46ZM585.41,63.23c-7.12-2.3-13.85-4.47-19.81,14-.82,2.55-3.55,3.95-6.11,3.13s-3.95-3.55-3.13-6.11c7.87-24.41,20.6-23.94,32.02-20.26,2.55.82,3.95,3.55,3.13,6.11-.82,2.55-3.55,3.95-6.11,3.13Z"/>
    </g>
  </g>
</svg>
