<?xml version="1.0" encoding="UTF-8"?>
<svg xmlns="http://www.w3.org/2000/svg" viewBox="0 0 852.78 420">
  <defs>
    <style>
      .cls-1 {
        fill: none;
      }

      .cls-2 {
        fill: #e6e6e6;
      }

      .cls-3 {
        isolation: isolate;
      }

      .cls-4, .cls-5 {
        fill: #fff;
      }

      .cls-5 {
        font-family: Poppins-Bold, Poppins;
        font-size: 66.33px;
        font-weight: 700;
      }

      .cls-6 {
        fill: #b3b3b3;
      }

      .cls-7 {
        fill: #ff6500;
      }

      .cls-8 {
        mix-blend-mode: luminosity;
      }
    </style>
  </defs>
  <g class="cls-3">
    <g id="Layer_2" data-name="Layer 2">
      <g id="Capa_1" data-name="Capa 1">
        <g>
          <polygon class="cls-7" points="340.52 51.52 340.52 51.52 340.52 51.51 340.52 51.52"/>
          <text class="cls-5" transform="translate(489.67 379.8)"><tspan x="0" y="0">by</tspan></text>
          <g>
            <path class="cls-4" d="M328.66,99.61c0,.86,0,1.71,0,2.57,0,.11,0,.21,0,.32.15,1.17.09,2.35.13,3.53.02.56,0,1.12.11,1.68,0,.05.01.11.01.16.03.96.08,1.92.18,2.88.05.5.09,1.01.13,1.52.06.72.12,1.44.2,2.16.09.77.17,1.54.26,2.31.06.5.14,1.01.19,1.51.12,1.09.31,2.17.46,3.25.24,1.67.54,3.33.85,4.98.45,2.37.94,4.72,1.48,7.07.67,2.92,1.45,5.81,2.28,8.69.47,1.65,1,3.27,1.5,4.91.52,1.69,1.1,3.35,1.68,5.02.68,1.97,1.41,3.93,2.18,5.86.39.97.78,1.94,1.16,2.91.07.17.13.35.18.53.03.09-.06.24-.15.25-.05.01-.11.03-.16.03-.7-.01-1.39-.02-2.09-.04-.4-.01-.8-.06-1.2-.06-1.9-.02-3.8-.02-5.7-.04-.98,0-.89.04-1.6-.69-.45-.46-.88-.94-1.32-1.4-.16-.18-.33-.35-.5-.52-.97-.99-1.96-1.98-2.92-2.98-1.04-1.08-2.08-2.15-3.09-3.26-.99-1.09-1.94-2.21-2.86-3.36-1.32-1.66-2.56-3.36-3.7-5.14-.7-1.1-1.37-2.24-2.03-3.36-.8-1.36-1.5-2.78-2.17-4.2-.82-1.72-1.55-3.47-2.18-5.26-.35-.98-.69-1.97-1-2.96-.41-1.33-.78-2.67-1.11-4.02-.39-1.64-.74-3.29-1-4.95-.15-.98-.27-1.96-.4-2.94-.09-.69-.17-1.38-.25-2.07-.03-.21-.04-.43-.05-.64-.02-.48-.04-.96-.11-1.44-.04-.26-.04-.53-.05-.8-.01-.54-.02-1.07-.03-1.6-.01-.32-.03-.64-.06-.96-.05-.48-.06-.96.01-1.44.02-.13.04-.27.04-.4,0-1.07.12-2.13.2-3.2.05-.64.11-1.28.2-1.91.18-1.35.35-2.7.59-4.05.38-2.11.81-4.2,1.39-6.26.35-1.23.72-2.47,1.12-3.68.57-1.73,1.25-3.42,1.96-5.09.74-1.72,1.59-3.39,2.47-5.04.68-1.27,1.43-2.51,2.2-3.73.94-1.49,1.95-2.94,3.03-4.34.85-1.1,1.72-2.19,2.62-3.24.58-.67,1.2-1.29,1.78-1.96.67-.77,1.38-1.49,2.11-2.2.98-.95,1.99-1.86,3.01-2.77,1.54-1.36,3.16-2.64,4.84-3.84,1.07-.76,2.15-1.5,3.26-2.2.99-.63,2.02-1.21,3.03-1.82.23-.14.46-.27.72-.33-.1.39-.3.74-.5,1.08-.34.61-.65,1.23-.93,1.87-.34.76-.69,1.51-1.04,2.26-.61,1.34-1.15,2.71-1.64,4.09-.29.81-.59,1.61-.82,2.43-.05.18-.12.35-.19.53-1.58,3.96-2.85,8.01-3.86,12.15-.65,2.65-1.17,5.33-1.6,8.02-.15.95-.26,1.91-.38,2.86-.08.61-.17,1.22-.24,1.83-.09.82-.15,1.65-.22,2.47-.01.16,0,.32-.03.48-.12.74-.13,1.49-.15,2.24,0,.05,0,.11,0,.16-.17,1.12-.12,2.24-.15,3.36-.01.53,0,1.07-.08,1.6-.03.21-.03.43-.03.64Z"/>
            <path class="cls-4" d="M343.55,96.33c.03-.21.02-.43.02-.64.01-.72.02-1.44.04-2.17.01-.35.05-.69.08-1.04,0-.11.04-.21.04-.32,0-.96.14-1.92.21-2.88.05-.67.11-1.33.21-1.99.22-1.56.45-3.12.72-4.68.18-1.03.41-2.04.64-3.06.56-2.54,1.31-5.02,2.19-7.46.39-1.08.85-2.14,1.27-3.21.12-.3.24-.59.35-.9.58-1.64,1.24-3.25,1.95-4.84.58-1.32,1.22-2.62,1.89-3.9,1.45-2.78,3.08-5.45,4.98-7.94.94-1.23,1.93-2.43,3.05-3.51.35-.33.68-.68,1.03-1.02,1.05-1.04,2.23-1.92,3.44-2.75.53-.36,1.09-.4,1.68-.33.15.02.29.18.29.34,0,.19,0,.38-.02.56-.13.9-.27,1.8-.39,2.7-.14,1.11-.26,2.23-.39,3.35-.08.69-.17,1.38-.25,2.07-.06.56-.12,1.12-.17,1.67-.07.8-.14,1.6-.21,2.4-.02.24-.05.48-.07.72,0,.08-.03.16-.04.24-.07.91-.13,1.81-.21,2.72-.1,1.06-.13,2.13-.26,3.2-.02.18-.03.37-.04.56-.04.45-.08.91-.12,1.36-.02.19-.04.37-.04.56-.02.54-.04,1.07-.13,1.6-.03.21-.03.43-.04.64-.03.45-.07.91-.11,1.36,0,.05-.02.11-.02.16,0,1.12-.17,2.24-.2,3.36-.01.48-.07.96-.1,1.44-.03.43-.05.85-.06,1.28-.02.56-.03,1.12-.1,1.68-.05.42-.04.85-.05,1.28-.02.72-.03,1.44-.11,2.16-.06.53-.04,1.07-.05,1.6-.02.69,0,1.39-.11,2.08-.04.24-.03.48-.03.72-.01.83-.02,1.66-.04,2.49,0,.51-.02,1.02-.09,1.52-.04.29-.03.59-.04.88-.02,1.5-.03,3-.05,4.49,0,.43-.05.85-.07,1.28-.02.37-.04.75-.04,1.12,0,6.34,0,12.68-.01,19.02,0,.7,0,1.39.01,2.09,0,.48.01.96.07,1.44.04.32.04.64.04.96.02,1.71.03,3.42.05,5.14,0,.4.05.8.07,1.2.02.32.04.64.05.96.02.94.02,1.87.04,2.81,0,.56.01,1.12.09,1.68.03.24.03.48.03.72.01.7.02,1.39.03,2.09,0,.56.01,1.12.09,1.68.04.24.03.48.04.72.01.62.01,1.23.03,1.85.02.45.06.91.09,1.36.02.27.04.53.04.8.02.54.02,1.07.03,1.61,0,.21,0,.43.03.64.11.74.1,1.49.12,2.24.01.51.03,1.01.1,1.52.05.37.04.75.05,1.12.02.67.02,1.34.12,2,.05.34.04.69.05,1.04.02.54.03,1.07.1,1.6.05.37.05.75.06,1.12.02.53.01,1.07.11,1.6,0,.05.02.11.02.16.03.94.1,1.87.17,2.8.06.67.03,1.34.14,2,.03.18,0,.37-.02.56-.02.1-.1.19-.21.22-.13.03-.26.05-.4.05-.43,0-.86,0-1.28,0-.69-.01-1.39,0-2.08-.09-.24-.03-.48-.02-.72-.02-.8,0-1.61-.01-2.41-.02-.19,0-.37-.01-.56,0-.43.02-.72-.16-.87-.57-.05-.13-.11-.24-.16-.37-.61-1.6-1.22-3.2-1.83-4.8-.91-2.4-1.76-4.82-2.56-7.26-.7-2.13-1.38-4.28-2.02-6.43-.98-3.31-1.9-6.63-2.71-9.99-.71-2.94-1.37-5.89-1.93-8.86-.35-1.89-.68-3.79-.98-5.69-.21-1.35-.42-2.69-.56-4.05-.12-1.12-.27-2.23-.41-3.34-.03-.21-.03-.43-.05-.64-.03-.32-.06-.64-.09-.96,0-.05-.02-.11-.02-.16-.07-.99-.14-1.97-.21-2.96-.03-.43-.06-.85-.09-1.28-.02-.29-.04-.59-.05-.88-.02-.72-.03-1.44-.04-2.17,0-.51-.01-1.02-.08-1.52-.03-.24-.03-.48-.03-.72,0-.99-.05-1.98.09-2.97Z"/>
            <path class="cls-4" d="M380.64,86.42c0-.24,0-.48-.02-.72-.08-.59-.07-1.17-.08-1.76-.02-2.41-.03-4.81-.05-7.22,0-.45-.05-.91-.07-1.36-.02-.29-.03-.59-.04-.88-.02-.91-.02-1.82-.03-2.73,0-.67-.02-1.34-.1-2-.05-.42-.03-.85-.04-1.28-.02-.88-.02-1.76-.12-2.64-.06-.53-.03-1.07-.05-1.6-.02-.45-.06-.91-.09-1.36-.02-.35-.04-.69-.06-1.04-.02-.67,0-1.34-.12-2,0-.05-.01-.11-.01-.16-.03-.93-.08-1.87-.17-2.8-.06-.64-.04-1.28-.14-1.92-.03-.18-.03-.37-.03-.56-.01-.45-.02-.91-.11-1.36-.01-.05-.02-.11-.02-.16-.07-.93-.14-1.87-.21-2.8-.02-.21-.04-.43-.06-.64-.02-.16-.05-.32-.06-.48-.07-.77-.13-1.54-.21-2.32-.06-.64-.14-1.27-.22-1.91-.01-.11-.03-.21-.04-.32-.02-.21.13-.38.32-.38.13,0,.27,0,.4.01.32.04.63.09.95.13.28.03.51.14.73.31.37.31.75.6,1.1.93.77.75,1.54,1.49,2.26,2.28.74.81,1.43,1.67,2.08,2.55,1.35,1.83,2.58,3.74,3.71,5.72,1.06,1.86,2.01,3.78,2.91,5.72,1.02,2.18,1.94,4.41,2.77,6.67.52,1.41,1.04,2.81,1.51,4.23.64,1.9,1.16,3.84,1.6,5.8.28,1.25.56,2.5.81,3.76.31,1.57.57,3.16.79,4.75.14,1.01.29,2.01.41,3.02.09.77.15,1.54.22,2.31.02.21.05.43.07.64.02.19.06.37.06.56.02.59.1,1.17.14,1.76.09,1.25.15,2.51.19,3.76.04,1.42.03,2.83.04,4.21-.01,1.41-.03,2.77-.04,4.14,0,.56-.03,1.12-.1,1.68-.05.42-.04.85-.06,1.28-.01.45-.02.91-.1,1.36-.01.05-.02.11-.02.16,0,.88-.15,1.76-.21,2.64-.05.69-.13,1.38-.21,2.07-.09.74-.18,1.49-.28,2.23-.1.77-.22,1.53-.34,2.3-.31,2.06-.68,4.12-1.11,6.16-.49,2.3-1.03,4.59-1.64,6.87-.83,3.08-1.8,6.1-2.85,9.11-.81,2.32-1.72,4.61-2.67,6.88-.81,1.95-1.69,3.87-2.61,5.78-.65,1.35-1.35,2.67-2.03,4.01-.3.6-.61,1.19-.93,1.78-.11.21-.25.41-.38.61-.08.11-.21.17-.35.18-.13,0-.27.01-.4,0-.48-.07-.96-.07-1.44-.07-1.9-.01-3.8-.02-5.7-.04-.27,0-.53-.02-.8-.04-.12-.01-.24-.16-.23-.29.05-.59.1-1.17.15-1.76.03-.32.06-.64.09-.96.03-.27.05-.53.07-.8.03-.29.06-.58.09-.88.02-.24.05-.48.07-.72.03-.32.06-.64.09-.96.02-.27.04-.53.07-.8.03-.32.06-.64.09-.96.03-.29.05-.59.08-.88.02-.27.05-.53.08-.8.03-.35.06-.69.09-1.04,0-.08.03-.16.03-.24.07-.91.14-1.81.2-2.72.02-.21.01-.43.05-.64.08-.45.08-.9.11-1.36.07-1.04.17-2.08.25-3.12,0-.05.02-.11.02-.16.07-1.04.13-2.08.2-3.12.03-.4.06-.8.09-1.2,0-.08.03-.16.03-.24,0-1.12.18-2.24.2-3.36.01-.48.04-.96.1-1.44.05-.42.05-.85.06-1.28.02-.48.04-.96.09-1.44.05-.45.05-.91.07-1.36.02-.59.03-1.17.11-1.76.05-.4.04-.8.05-1.2.02-.69.03-1.39.11-2.08.06-.48.04-.96.05-1.44.02-.7,0-1.39.11-2.08.04-.24.03-.48.03-.72.01-.64.02-1.28.03-1.93,0-.24,0-.48.03-.72.13-.9.1-1.81.12-2.72.02-.83,0-1.66.11-2.48.03-.24.02-.48.02-.72.02-1.28.02-2.57.05-3.85,0-.43.05-.85.07-1.28.02-.35.04-.69.04-1.04.02-2.59.04-5.19.05-7.78,0-.51,0-1.02.07-1.52.04-.26.03-.53.03-.8,0-3.05,0-6.1,0-9.15Z"/>
            <path class="cls-4" d="M403.6,189.8c-.56,1.73-1.12,3.46-1.67,5.19-.57,1.76-1.14,3.51-1.7,5.27-.53,1.65-1.07,3.31-1.6,4.96-.32.99-.63,1.99-.95,2.98-.06.18-.12.36-.21.52-.05.08-.15.15-.24.19-.1.04-.21.05-.31.06-.53.07-1.05.2-1.56.38-1.46.51-2.63,1.41-3.55,2.64-.78,1.05-1.25,2.23-1.42,3.53-.08.64-.12,1.27,0,1.91.05.26.05.53.06.8,0,.4.01.8,0,1.2-.08,2.94-.82,5.7-2.32,8.24-1,1.7-2.28,3.17-3.76,4.45-1.28,1.11-2.73,1.97-4.29,2.63-1.11.47-2.26.83-3.44,1.06-.5.09-1,.16-1.51.21-.88.09-1.75.24-2.64.21-.54-.02-1.07-.1-1.6-.16-1.06-.13-2.11-.32-3.15-.61-1.61-.45-3.11-1.13-4.53-2.02-1.05-.66-1.99-1.44-2.9-2.28-.27-.25-.5-.55-.75-.83-1.42-1.6-2.51-3.4-3.25-5.4-.4-1.08-.67-2.2-.84-3.34-.25-1.6-.19-3.2-.12-4.8.03-.67.13-1.33.14-2,0-.81-.12-1.6-.38-2.36-.73-2.14-2.14-3.67-4.19-4.61-.29-.13-.6-.22-.91-.32-.18-.06-.36-.11-.54-.14-.29-.06-.47-.24-.58-.5-.1-.22-.2-.44-.29-.66-1.2-2.95-2.4-5.89-3.61-8.84-.95-2.33-1.9-4.65-2.86-6.98-.98-2.4-1.96-4.8-2.95-7.2-.69-1.68-1.39-3.36-2.08-5.04-.12-.3-.23-.6-.33-.9-.04-.11.08-.3.19-.31.18-.02.37-.05.56-.05.88,0,1.76,0,2.65,0v.02c.64,0,1.28,0,1.93,0,.54,0,1.07,0,1.6.08.32.04.64.03.96.03,2.94.02,5.88.03,8.83.05.54,0,1.07,0,1.6.07.32.04.64.03.96.03,3.02.02,6.04.04,9.07.05.51,0,1.01.01,1.52.07.32.04.64.03.96.04,2.97.02,5.94.03,8.91.05.51,0,1.01,0,1.52.07.32.04.64.03.96.04,3.05.02,6.1.04,9.15.05.48,0,.96.02,1.44.07.32.04.64.03.96.04,3,.02,5.99.04,8.99.05.48,0,.96.01,1.44.07.29.04.59.03.88.04,1.5.01,3,.02,4.49.03.24,0,.48,0,.72.02.22.01.33.17.28.39-.03.1-.05.21-.08.31-.3.94-.6,1.89-.9,2.83-.91,2.8-1.82,5.59-2.73,8.39Z"/>
            <path class="cls-4" d="M415.16,105.68c.06-3.42.06-6.85,0-10.27,0-.35-.05-.69-.07-1.04-.03-.43-.05-.85-.07-1.28-.02-.59-.02-1.18-.12-1.76-.04-.21-.04-.43-.04-.64-.02-.48-.03-.96-.12-1.44-.02-.08-.02-.16-.02-.24-.05-1.28-.23-2.56-.38-3.83-.19-1.67-.44-3.34-.7-5-.29-1.82-.63-3.64-1.01-5.44-.46-2.23-1.01-4.43-1.64-6.62-.5-1.75-1.11-3.46-1.71-5.18-.53-1.52-1.11-3.01-1.71-4.5-.68-1.66-1.4-3.3-2.21-4.9-.11-.21-.2-.44-.29-.66,0-.02,0-.06.01-.07.04-.02.1-.05.14-.04.08.02.15.06.22.1,2.28,1.4,4.5,2.89,6.59,4.57.73.59,1.46,1.17,2.17,1.78.65.56,1.3,1.12,1.91,1.72,1.15,1.12,2.29,2.25,3.4,3.41.63.65,1.2,1.36,1.81,2.04.76.86,1.47,1.77,2.17,2.68,1.41,1.82,2.71,3.72,3.91,5.68,1.29,2.1,2.43,4.28,3.48,6.51.79,1.67,1.49,3.37,2.11,5.11.19.53.39,1.05.57,1.59.95,2.82,1.7,5.69,2.26,8.61.27,1.42.49,2.85.67,4.28.1.77.18,1.54.27,2.31.03.24.03.48.04.72,0,.19,0,.38.03.56.18,1.22.13,2.46.15,3.68,0,.32,0,.64,0,.96h0c-.01.94-.02,1.87-.03,2.81,0,.51-.01,1.02-.1,1.52-.02.13-.04.27-.03.4.01.86-.12,1.71-.21,2.56-.14,1.22-.32,2.44-.51,3.65-.32,2.01-.76,3.99-1.29,5.96-.71,2.66-1.59,5.27-2.62,7.83-.82,2.04-1.74,4.03-2.76,5.97-.9,1.7-1.87,3.37-2.92,4.98-.99,1.52-2.02,3.02-3.14,4.46-.63.8-1.27,1.58-1.92,2.36-1.49,1.79-3.11,3.46-4.78,5.08-.56.54-1.09,1.11-1.66,1.63-1.4,1.28-2.73,2.64-4.08,3.97-.08.07-.16.15-.23.22-.16.15-.35.24-.58.24-.64,0-1.28-.01-1.92-.03-.45-.01-.91-.06-1.36-.07-1.61-.02-3.21-.02-4.81-.03-.24,0-.48,0-.72-.02-.18,0-.27-.16-.19-.35.02-.05.04-.1.06-.15.24-.54.48-1.07.73-1.61,1.08-2.33,2.06-4.7,3.02-7.09,1.24-3.11,2.37-6.25,3.4-9.43.72-2.24,1.39-4.5,1.99-6.77.32-1.19.63-2.38.92-3.57.39-1.58.74-3.18,1.07-4.77.53-2.54.98-5.09,1.38-7.66.15-.98.27-1.96.4-2.94.08-.61.17-1.22.24-1.83.09-.74.16-1.49.23-2.23.02-.24.05-.48.07-.72.03-.29.06-.58.08-.88.03-.32.06-.64.09-.96.01-.11.04-.21.04-.32.01-1.15.21-2.29.21-3.44,0-.43.05-.85.08-1.28.02-.29.04-.59.05-.88Z"/>
            <path class="cls-4" d="M452.36,174.29l-46.2,46.2c0-.06,0-.12,0-.18.01-.78.02-1.55.03-2.33,0-.24-.01-.48.02-.72.07-.51.05-1.01,0-1.52-.12-1.08-.4-2.1-.97-3.03-.22-.36-.46-.72-.72-1.06-.22-.28-.28-.57-.14-.9.03-.07.05-.15.07-.23.55-1.7,1.1-3.41,1.65-5.12.5-1.55,1-3.11,1.5-4.66,1.17-3.61,2.34-7.23,3.51-10.84.46-1.42.93-2.85,1.39-4.27.73-2.26,1.46-4.53,2.19-6.8.05-.15.11-.3.17-.45.09-.22.26-.33.5-.34.11,0,.21-.02.32-.01.48.01.96-.06,1.43-.17,1.49-.33,2.82-.97,3.97-1.99.62-.55,1.18-1.16,1.69-1.82.33-.42.67-.83,1.02-1.23.6-.68,1.21-1.36,1.81-2.04.69-.78,1.39-1.56,2.08-2.34.49-.56.99-1.12,1.47-1.7.82-.99,1.62-1.99,2.43-2.99,1.98-2.46,3.84-5.01,5.62-7.62,1.79-2.6,3.49-5.26,5.06-8,.77-1.35,1.54-2.69,2.26-4.07,1.22-2.32,2.37-4.68,3.41-7.08.79-1.82,1.54-3.65,2.2-5.51,1.23-3.45,2.27-6.97,2.99-10.57.49-2.47.9-4.95,1.05-7.46,0-.11.01-.21.03-.32.1-.53.1-1.06.11-1.6,0-.8,0-1.61,0-2.41h0c0-.8,0-1.61,0-2.41,0-.35,0-.7-.04-1.04-.08-.85-.18-1.7-.26-2.55-.1-.98-.24-1.97-.43-2.94-.42-2.1-.87-4.19-1.31-6.28-.54-2.56-1.15-5.12-1.84-7.64-.27-.98-.55-1.96-.85-2.93-.48-1.53-.99-3.05-1.56-4.56-.59-1.55-1.25-3.07-1.96-4.57-.83-1.74-1.73-3.44-2.69-5.11-1.52-2.65-3.16-5.21-4.98-7.67-.72-.97-1.44-1.93-2.19-2.87-.71-.9-1.46-1.78-2.21-2.65-.57-.67-1.17-1.32-1.76-1.97-.69-.75-1.43-1.45-2.09-2.22-.33-.38-.72-.72-1.08-1.07-.31-.3-.63-.58-.94-.87-.51-.48-.99-.97-1.51-1.44-.62-.55-1.26-1.08-1.88-1.63-1.04-.92-2.14-1.78-3.24-2.63-1.27-.98-2.56-1.93-3.9-2.83-1.09-.73-2.18-1.45-3.3-2.14-1.1-.67-2.21-1.3-3.34-1.92-2.09-1.15-4.23-2.19-6.41-3.14-1.18-.51-2.38-.97-3.57-1.44-2.74-1.07-5.55-1.96-8.41-2.67-2.65-.66-5.32-1.21-8.02-1.6-1.88-.27-3.76-.54-5.66-.64-.08,0-.16-.01-.24-.03-.48-.09-.96-.09-1.44-.11-.4-.01-.81,0-1.2-.05-.61-.08-1.23-.09-1.84-.09-.96,0-1.93,0-2.89,0-.78,0-1.55-.01-2.32.11-.13.02-.27.02-.4.02-.8.02-1.61.01-2.4.15-.1.02-.21.02-.32.02-.81,0-1.6.13-2.4.22-1.38.16-2.76.36-4.13.58-2.01.31-4,.72-5.98,1.19-1.64.39-3.26.84-4.88,1.32-1.87.56-3.72,1.19-5.54,1.9-1.35.52-2.69,1.05-4,1.66-1.07.5-2.14.98-3.2,1.49-.46.22-.89.49-1.35.72-1.77.89-3.48,1.9-5.15,2.96-2.92,1.85-5.72,3.86-8.38,6.06-1.59,1.31-3.13,2.68-4.63,4.08-1.7,1.59-3.3,3.28-4.86,5.01-.05.06-.1.12-.16.18-.45.53-.89,1.07-1.35,1.59-.71.8-1.37,1.64-2.02,2.49-.9,1.16-1.76,2.35-2.61,3.56-1.05,1.49-2.01,3.03-2.95,4.59-1.06,1.76-2.01,3.59-2.92,5.44-.79,1.61-1.54,3.24-2.21,4.9-.9,2.21-1.71,4.44-2.42,6.72-.91,2.92-1.63,5.88-2.23,8.87-.38,1.92-.66,3.85-.92,5.78-.08.61-.15,1.22-.19,1.83-.06.88-.21,1.75-.2,2.64,0,.08-.01.16-.03.24-.08.45-.09.9-.09,1.36,0,2.27-.01,4.55,0,6.82,0,.69,0,1.39.12,2.08.04.24.03.48.04.72.01.24.01.48.04.72.08.82.18,1.65.26,2.47.12,1.22.29,2.44.48,3.66.35,2.22.79,4.42,1.3,6.61.81,3.41,1.81,6.77,3.05,10.05,1.18,3.13,2.52,6.19,4.11,9.14.72,1.34,1.47,2.67,2.25,3.98,1,1.68,2.09,3.3,3.21,4.9.97,1.38,2,2.71,3.05,4.03.9,1.13,1.84,2.23,2.8,3.3,1,1.11,2.05,2.18,3.09,3.26,1.1,1.13,2.22,2.25,3.32,3.38.6.61,1.17,1.24,1.76,1.87.09.1.17.21.25.31.2.25.4.5.59.76.86,1.13,1.95,1.98,3.21,2.62,1.18.6,2.44.94,3.78.93.59,0,1.18,0,1.77.01.19,0,.37.01.56.03.17.01.31.1.39.25.1.19.18.39.26.58,1.04,2.52,2.08,5.05,3.11,7.57.96,2.35,1.93,4.7,2.89,7.06,1.15,2.82,2.31,5.65,3.46,8.47.2.49.4.99.6,1.49.84,2.05,1.68,4.11,2.52,6.16.06.15.12.3.16.45.06.19.02.37-.1.53-.1.12-.21.24-.32.36-1.28,1.47-1.99,3.15-1.96,5.12,0,.37,0,.75,0,1.12,0,.62-.01,1.23-.08,1.84-.04.37-.05.75,0,1.12.08.67.07,1.34.09,2,.01.4.01.8.05,1.2.03.31.07.61.11.92l-43.26-43.26s-69.94-69.98-3.66-145.56c0,0,66.95-71.96,149.65-7.16,0,0,71.64,66.82,8.36,147.24Z"/>
            <path class="cls-4" d="M213.77,57.97h41.07v238.23h-41.07V57.97Z"/>
            <path class="cls-4" d="M640.77,108.52c15.4,8.9,27.66,21.11,36.79,36.62,8.9,15.29,13.35,32.17,13.35,50.65s-4.45,35.08-13.35,50.48c-8.9,15.4-21.11,27.55-36.62,36.45-15.29,9.13-32.17,13.69-50.65,13.69h-100.62V58.58h40.38v56.78c8.44-6.38,17.85-11.35,28.23-14.89,10.38-3.53,21.05-5.31,32-5.31,18.25,0,35.08,4.45,50.48,13.35ZM645.91,218.72c3.08-7.3,4.62-14.94,4.62-22.93s-1.54-15.63-4.62-22.93c-3.08-7.3-7.48-13.8-13.18-19.51-5.71-5.7-12.21-10.1-19.51-13.18-7.3-3.08-14.95-4.62-22.93-4.62s-15.63,1.54-22.93,4.62c-7.3,3.08-13.81,7.48-19.51,13.18-5.71,5.71-10.1,12.21-13.18,19.51-3.08,7.3-4.62,14.95-4.62,22.93v60.23h60.24c7.98,0,15.63-1.54,22.93-4.62,7.3-3.08,13.8-7.47,19.51-13.18,5.7-5.7,10.1-12.2,13.18-19.51Z"/>
            <path class="cls-4" d="M852.78,192.5c0-2.96-.12-4.79-.34-5.48-1.14-17.8-6.16-33.88-15.06-48.26-9.36-14.6-21.56-26.12-36.62-34.57-15.06-8.44-31.37-12.66-48.94-12.66s-35.14,4.45-50.65,13.35c-15.74,9.13-28.12,21.45-37.13,36.96-9.02,15.52-13.52,32.4-13.52,50.65s4.56,35.37,13.69,51.34c9.12,15.97,21.5,28.7,37.13,38.16,15.63,9.47,32.45,14.2,50.48,14.2h100.96v-40.73h-100.96c-8.21,0-15.97-1.48-23.27-4.45-7.3-2.96-13.81-7.3-19.51-13.01-5.09-5.09-9.2-11.37-12.31-18.82h156.06v-26.69ZM692.84,178.47c.75-3.16,1.75-6.24,3.02-9.24,3.08-7.3,7.47-13.8,13.18-19.51,5.7-5.7,12.2-10.1,19.51-13.18,7.3-3.08,15.06-4.62,23.27-4.62s16.09,1.49,22.93,4.45c8.21,3.42,15.63,8.73,22.25,15.92,6.61,7.19,11.17,15.91,13.69,26.18h-117.84Z"/>
            <path class="cls-4" d="M99.62,60.25c-14.84,0-28.87,3.59-42.1,10.1-13.24,6.5-24.42,15.35-33.54,26.52-7.31,8.9-12.95,18.82-16.94,29.78-3.99,10.95-5.99,22.36-5.99,34.23,0,18.25,4.56,35.02,13.69,50.31,8.9,15.52,21.05,27.78,36.45,36.79,15.4,9.01,32.22,13.52,50.48,13.52,22.81,0,42.89-6.61,60.24-19.85v49.96c0,16.2-5.82,30.46-17.45,42.78-5.71,5.7-12.27,10.04-19.68,13.01-7.39,2.95-15.06,4.44-23.02,4.45h0c-.46-.02-61.03-2.9-61.03-60.04H0s1.54,100.71,101.67,100.77h.08c17.54-.01,34.05-4.35,49.54-13,15.06-8.67,27.15-20.36,36.28-35.08,9.12-14.72,14.03-30.86,14.72-48.43.22-.68.34-36.73.34-39.01v-92.92s4.76-103.87-103.02-103.87ZM161.91,160.87c0,9.81-2.17,18.94-6.5,27.38-4.57,9.13-11.52,16.89-20.88,23.27-9.36,6.39-20.31,9.58-32.86,9.58-7.99,0-15.63-1.54-22.93-4.62-7.31-3.08-13.81-7.47-19.51-13.18-5.71-5.7-10.1-12.2-13.18-19.51-3.08-7.3-4.62-14.94-4.62-22.93,0-14.38,4.56-27.15,13.69-38.33,5.7-7.07,12.6-12.49,20.71-16.26,8.1-3.76,16.71-5.65,25.84-5.65,16.72.22,31.16,4.98,45.96,18.44,14.81,13.46,14.27,41.8,14.27,41.8Z"/>
            <g class="cls-8">
              <g>
                <g>
                  <path class="cls-4" d="M627.22,363.74h-26.66c.18,2.39.95,4.21,2.31,5.48,1.35,1.26,3.02,1.89,4.99,1.89,2.94,0,4.98-1.24,6.13-3.72h12.54c-.64,2.53-1.8,4.8-3.48,6.82-1.68,2.02-3.78,3.61-6.3,4.75-2.53,1.15-5.35,1.72-8.47,1.72-3.77,0-7.12-.8-10.06-2.41-2.94-1.61-5.23-3.9-6.89-6.89-1.65-2.98-2.48-6.47-2.48-10.47s.81-7.48,2.45-10.47c1.63-2.98,3.91-5.28,6.85-6.89,2.94-1.61,6.31-2.41,10.12-2.41s7.03.78,9.92,2.34c2.89,1.56,5.15,3.79,6.78,6.68,1.63,2.89,2.45,6.27,2.45,10.12,0,1.1-.07,2.25-.21,3.44ZM615.38,357.2c0-2.02-.69-3.63-2.07-4.82-1.38-1.19-3.1-1.79-5.17-1.79s-3.64.57-4.99,1.72c-1.35,1.15-2.19,2.78-2.51,4.89h14.74Z"/>
                  <path class="cls-4" d="M652.91,351.48h-6.34v28.65h-11.78v-28.65h-4.27v-9.78h4.27v-1.1c0-4.73,1.35-8.32,4.06-10.78,2.71-2.46,6.68-3.68,11.92-3.68.87,0,1.52.02,1.93.07v9.99c-2.25-.14-3.83.18-4.75.96-.92.78-1.38,2.18-1.38,4.2v.34h6.34v9.78Z"/>
                </g>
                <path class="cls-4" d="M762.66,345.66c2.69,2.92,4.03,6.92,4.03,12.02v22.45h-11.71v-20.87c0-2.57-.67-4.57-2-5.99-1.33-1.42-3.12-2.13-5.37-2.13s-4.04.71-5.37,2.13c-1.33,1.42-2,3.42-2,5.99v20.87h-11.78v-38.43h11.78v5.1c1.19-1.7,2.8-3.04,4.82-4.03,2.02-.99,4.29-1.48,6.82-1.48,4.5,0,8.09,1.46,10.78,4.37Z"/>
                <path class="cls-4" d="M774.99,350.45c1.63-2.98,3.9-5.28,6.82-6.89,2.92-1.61,6.26-2.41,10.02-2.41,4.82,0,8.85,1.26,12.09,3.79,3.24,2.53,5.36,6.08,6.37,10.68h-12.54c-1.06-2.94-3.1-4.41-6.13-4.41-2.16,0-3.88.84-5.17,2.51-1.29,1.68-1.93,4.08-1.93,7.2s.64,5.52,1.93,7.2c1.28,1.68,3.01,2.51,5.17,2.51,3.03,0,5.07-1.47,6.13-4.41h12.54c-1.01,4.5-3.15,8.04-6.41,10.61-3.26,2.57-7.28,3.86-12.05,3.86-3.77,0-7.11-.8-10.02-2.41-2.92-1.61-5.19-3.9-6.82-6.89-1.63-2.98-2.44-6.47-2.44-10.47s.81-7.48,2.44-10.47Z"/>
                <path class="cls-4" d="M852.58,363.74h-26.65c.18,2.39.95,4.21,2.31,5.48,1.35,1.26,3.02,1.89,4.99,1.89,2.94,0,4.98-1.24,6.13-3.72h12.54c-.64,2.53-1.8,4.8-3.48,6.82-1.68,2.02-3.78,3.61-6.3,4.75-2.53,1.15-5.35,1.72-8.47,1.72-3.77,0-7.12-.8-10.06-2.41-2.94-1.61-5.23-3.9-6.89-6.89-1.65-2.98-2.48-6.47-2.48-10.47s.81-7.48,2.44-10.47c1.63-2.98,3.91-5.28,6.85-6.89,2.94-1.61,6.31-2.41,10.12-2.41s7.03.78,9.92,2.34c2.89,1.56,5.15,3.79,6.78,6.68,1.63,2.89,2.44,6.27,2.44,10.12,0,1.1-.07,2.25-.21,3.44ZM840.73,357.2c0-2.02-.69-3.63-2.07-4.82-1.38-1.19-3.1-1.79-5.17-1.79s-3.64.57-4.99,1.72c-1.35,1.15-2.19,2.78-2.51,4.89h14.74Z"/>
                <g>
                  <path class="cls-1" d="M676.87,350.72c-1.75-.43-3.53-.18-5.34.74-1.74.89-2.94,2.14-3.62,3.75-.68,1.62-.68,3.43-.02,5.42l12.95-6.61c-.91-1.77-2.23-2.88-3.98-3.31Z"/>
                  <path class="cls-4" d="M686.29,370.51c-.91-1.58-1.58-3.31-2-5.18,0,0-.72,2.64-3.8,4.29-1.71.92-3.48,1.08-5.24.58-1.76-.5-3.25-1.76-4.48-3.78l12.97-6.62c.05-3.74.91-7.05,2.58-9.92.82-1.41,1.78-2.66,2.88-3.76-.94-.99-1.96-1.85-3.06-2.58-2.73-1.81-5.72-2.75-8.96-2.83-3.24-.07-6.5.72-9.77,2.39-3.35,1.71-5.95,3.93-7.82,6.66-1.86,2.73-2.84,5.77-2.93,9.13-.09,3.35.76,6.79,2.55,10.3,1.79,3.51,4.08,6.21,6.87,8.09,2.79,1.88,5.84,2.87,9.14,2.96,3.3.1,6.61-.7,9.92-2.39,1.72-.88,3.24-1.9,4.55-3.07-1.33-1.21-2.47-2.64-3.41-4.27ZM667.91,355.22c.67-1.62,1.88-2.87,3.62-3.75,1.82-.93,3.6-1.17,5.34-.74,1.75.43,3.07,1.53,3.98,3.31l-12.95,6.61c-.67-2-.66-3.81.02-5.42Z"/>
                  <path class="cls-2" d="M683.74,359.8l10.45-5.33c-.41-1.11-.87-2.15-1.36-3.12-1.03-2.02-2.24-3.76-3.63-5.22-1.1,1.1-2.06,2.35-2.88,3.76-1.67,2.87-2.53,6.18-2.58,9.92Z"/>
                  <path class="cls-2" d="M695.56,360.18s0-.08,0-.12c0-.24,0-.47.02-.7l-.1.05-11.2,5.92c.42,1.87,1.09,3.59,2,5.18.94,1.63,2.08,3.06,3.41,4.27.78-.69,1.49-1.44,2.12-2.24,1.7-2.14,2.84-4.47,3.41-7,.27-1.22.41-2.43.42-3.65-.06-.54-.09-1.11-.09-1.71Z"/>
                  <path class="cls-6" d="M720.57,349.88c-1.72-2.97-4.08-5.24-7.07-6.83-2.99-1.59-6.34-2.38-10.06-2.38s-7.07.79-10.06,2.38c-1.57.83-2.97,1.86-4.19,3.07,1.39,1.46,2.6,3.2,3.63,5.22.49.97.95,2.01,1.36,3.12l-10.45,5.33c0,.13,0,.25,0,.38,0,.18,0,.37,0,.55.03,1.41.17,2.75.42,4.03.04.19.08.38.12.57l11.2-5.92.1-.05c.12-2.51.77-4.49,1.98-5.93.08-.1.16-.19.25-.28,1.49-1.61,3.37-2.41,5.64-2.41s4.09.82,5.61,2.45c1.52,1.63,2.28,3.96,2.28,7s-.78,5.37-2.34,7c-1.56,1.63-3.45,2.45-5.67,2.45s-4.07-.82-5.54-2.45c-1.18-1.31-1.89-3.07-2.12-5.29,0,1.21-.15,2.43-.42,3.65-.57,2.53-1.7,4.86-3.41,7-.63.8-1.34,1.54-2.12,2.24,1.07.98,2.27,1.82,3.59,2.52,2.97,1.59,6.31,2.38,10.02,2.38s7.08-.79,10.09-2.38c3.01-1.59,5.39-3.86,7.13-6.83,1.74-2.97,2.62-6.4,2.62-10.29s-.86-7.33-2.58-10.29Z"/>
                </g>
              </g>
            </g>
          </g>
        </g>
      </g>
    </g>
  </g>
</svg>