<?xml version="1.0" encoding="UTF-8"?>
<svg id="Layer_2" data-name="Layer 2" xmlns="http://www.w3.org/2000/svg" viewBox="0 0 592.8 658.57">
  <defs>
    <style>
      .cls-1 {
        fill: #fff;
      }
    </style>
  </defs>
  <g id="Capa_1" data-name="Capa 1">
    <g>
      <path class="cls-1" d="M208.27,143.61s-.01,0-.02,0c0,0,0-.01,0-.02h.01Z"/>
      <path class="cls-1" d="M175.19,277.67c0,2.38,0,4.77,0,7.16,0,.3-.02.6.02.89.41,3.27.26,6.55.35,9.83.04,1.57.02,3.13.3,4.68.03.15.04.3.04.45.07,2.68.23,5.36.49,8.03.14,1.41.24,2.82.36,4.23.17,2.01.34,4.01.57,6.01.24,2.15.48,4.3.73,6.44.17,1.41.38,2.81.54,4.21.33,3.04.85,6.05,1.29,9.07.67,4.65,1.49,9.27,2.37,13.89,1.25,6.59,2.63,13.16,4.14,19.7,1.88,8.14,4.04,16.2,6.34,24.23,1.31,4.59,2.78,9.13,4.19,13.69,1.45,4.7,3.07,9.35,4.68,14,1.9,5.5,3.92,10.95,6.08,16.35,1.08,2.7,2.17,5.4,3.24,8.1.19.48.35.98.52,1.47.08.24-.18.67-.41.71-.15.03-.29.08-.44.08-1.94-.03-3.88-.05-5.81-.1-1.12-.03-2.23-.16-3.35-.17-5.29-.05-10.59-.06-15.88-.1-2.74-.02-2.49.1-4.46-1.93-1.25-1.28-2.44-2.61-3.67-3.91-.46-.49-.92-.97-1.39-1.45-2.72-2.77-5.46-5.51-8.15-8.3-2.9-3-5.81-5.99-8.62-9.08-2.76-3.03-5.42-6.15-7.97-9.37-3.67-4.61-7.14-9.37-10.31-14.34-1.96-3.08-3.81-6.23-5.67-9.38-2.24-3.79-4.17-7.75-6.06-11.72-2.27-4.78-4.31-9.67-6.08-14.66-.97-2.74-1.93-5.48-2.79-8.26-1.14-3.71-2.19-7.44-3.09-11.21-1.09-4.57-2.06-9.17-2.78-13.81-.43-2.72-.76-5.46-1.11-8.19-.25-1.92-.47-3.85-.69-5.77-.07-.59-.11-1.19-.14-1.78-.05-1.34-.1-2.68-.31-4.01-.11-.73-.11-1.49-.14-2.23-.04-1.49-.04-2.98-.09-4.47-.03-.89-.07-1.79-.17-2.68-.15-1.34-.17-2.68.04-4.01.06-.37.12-.74.12-1.11-.03-2.99.34-5.95.56-8.92.13-1.78.31-3.56.55-5.33.5-3.77.99-7.54,1.66-11.28,1.05-5.87,2.25-11.72,3.87-17.46.97-3.44,2-6.87,3.12-10.27,1.59-4.81,3.47-9.52,5.47-14.18,2.06-4.8,4.43-9.45,6.87-14.06,1.89-3.55,3.99-6.99,6.14-10.4,2.63-4.17,5.44-8.2,8.43-12.11,2.36-3.07,4.79-6.09,7.32-9.04,1.61-1.87,3.35-3.61,4.96-5.46,1.86-2.14,3.85-4.15,5.88-6.13,2.72-2.65,5.54-5.19,8.4-7.71,4.31-3.8,8.8-7.37,13.48-10.7,2.98-2.12,6-4.17,9.08-6.14,2.76-1.77,5.62-3.38,8.43-5.07.64-.38,1.27-.76,2-.93-.28,1.09-.85,2.06-1.39,3.02-.96,1.69-1.81,3.43-2.59,5.2-.94,2.11-1.93,4.2-2.89,6.3-1.69,3.74-3.2,7.55-4.58,11.41-.8,2.25-1.65,4.47-2.27,6.78-.14.5-.34.99-.53,1.47-4.39,11.03-7.95,22.33-10.76,33.86-1.8,7.39-3.26,14.85-4.45,22.37-.42,2.65-.72,5.32-1.07,7.97-.22,1.7-.48,3.4-.66,5.1-.24,2.3-.42,4.6-.62,6.9-.04.45,0,.9-.08,1.34-.34,2.07-.36,4.16-.42,6.24,0,.15,0,.3-.03.45-.46,3.11-.33,6.25-.41,9.38-.03,1.49-.01,2.98-.23,4.46-.08.59-.08,1.19-.08,1.79Z"/>
      <path class="cls-1" d="M216.69,268.53c.08-.59.04-1.19.05-1.79.03-2.01.05-4.03.1-6.04.03-.97.13-1.93.21-2.9.02-.3.1-.59.1-.89,0-2.69.38-5.35.58-8.03.14-1.86.32-3.71.57-5.56.6-4.36,1.24-8.7,2.01-13.04.51-2.86,1.15-5.7,1.77-8.54,1.56-7.07,3.64-14,6.1-20.8,1.09-3.02,2.36-5.96,3.54-8.94.33-.83.68-1.65.98-2.5,1.62-4.57,3.47-9.05,5.42-13.49,1.62-3.69,3.4-7.3,5.26-10.87,4.04-7.75,8.58-15.19,13.89-22.14,2.63-3.44,5.37-6.78,8.49-9.79.96-.93,1.91-1.89,2.86-2.84,2.92-2.9,6.21-5.34,9.6-7.66,1.48-1.01,3.03-1.12,4.69-.93.41.05.8.5.81.95,0,.52.01,1.05-.06,1.56-.35,2.51-.76,5.01-1.08,7.53-.4,3.1-.72,6.22-1.08,9.33-.23,1.92-.47,3.85-.69,5.77-.18,1.55-.34,3.11-.48,4.67-.21,2.23-.39,4.45-.58,6.68-.06.67-.13,1.34-.2,2-.03.22-.08.44-.1.66-.2,2.53-.35,5.06-.59,7.58-.28,2.97-.35,5.95-.73,8.91-.07.52-.08,1.04-.12,1.56-.11,1.26-.22,2.52-.32,3.78-.04.52-.1,1.04-.12,1.56-.05,1.49-.1,2.98-.35,4.46-.1.58-.07,1.19-.11,1.79-.1,1.26-.2,2.52-.3,3.79-.01.15-.05.3-.05.45,0,3.13-.48,6.24-.56,9.37-.04,1.34-.19,2.68-.27,4.01-.07,1.19-.13,2.38-.17,3.57-.05,1.57-.1,3.13-.29,4.69-.15,1.18-.12,2.38-.15,3.57-.06,2.01-.08,4.02-.31,6.03-.17,1.48-.11,2.98-.15,4.47-.04,1.94-.02,3.88-.3,5.8-.1.66-.07,1.34-.08,2.01-.04,2.31-.07,4.62-.1,6.93-.02,1.42-.05,2.83-.24,4.24-.11.81-.1,1.64-.1,2.46-.05,4.18-.07,8.35-.13,12.53-.02,1.19-.14,2.38-.19,3.57-.05,1.04-.11,2.09-.11,3.13-.02,17.67-.03,35.35-.03,53.02,0,1.94.02,3.88.03,5.82,0,1.34.03,2.68.2,4.02.11.88.1,1.79.11,2.68.05,4.77.08,9.55.14,14.32.01,1.12.13,2.23.19,3.35.05.89.11,1.79.13,2.68.04,2.61.07,5.22.1,7.83.02,1.56.03,3.13.26,4.69.1.66.08,1.34.09,2.01.04,1.94.06,3.88.09,5.81.02,1.57.03,3.13.26,4.69.1.66.09,1.34.1,2.01.04,1.72.04,3.43.1,5.15.04,1.27.16,2.53.24,3.79.05.74.1,1.49.12,2.23.04,1.49.06,2.98.09,4.47.01.6-.01,1.2.08,1.79.32,2.07.29,4.16.34,6.25.03,1.42.09,2.83.27,4.24.13,1.03.12,2.08.15,3.13.05,1.86.06,3.72.33,5.58.14.95.1,1.93.13,2.9.04,1.49.08,2.98.28,4.46.14,1.03.13,2.08.16,3.13.05,1.49.03,2.98.31,4.46.03.15.04.3.05.45.07,2.61.27,5.21.49,7.81.15,1.86.09,3.72.39,5.57.08.5.01,1.04-.06,1.55-.04.29-.28.54-.6.6-.36.07-.73.13-1.1.14-1.19.02-2.39,0-3.58,0-1.94-.03-3.88.02-5.81-.25-.66-.09-1.34-.06-2.01-.07-2.24-.02-4.47-.03-6.71-.04-.52,0-1.04-.04-1.56-.01-1.2.06-2-.44-2.41-1.58-.13-.35-.3-.68-.43-1.03-1.7-4.46-3.41-8.91-5.1-13.37-2.54-6.69-4.9-13.45-7.13-20.25-1.95-5.95-3.85-11.92-5.63-17.92-2.73-9.23-5.29-18.49-7.56-27.84-1.99-8.19-3.83-16.41-5.38-24.69-.98-5.27-1.89-10.57-2.73-15.87-.59-3.75-1.16-7.51-1.56-11.3-.32-3.11-.76-6.21-1.13-9.32-.07-.59-.08-1.19-.14-1.78-.08-.89-.17-1.78-.26-2.67-.01-.15-.05-.3-.06-.44-.2-2.75-.39-5.5-.58-8.25-.08-1.19-.18-2.38-.26-3.57-.06-.82-.12-1.64-.14-2.45-.05-2.01-.07-4.03-.1-6.04-.02-1.42-.03-2.83-.22-4.24-.09-.66-.09-1.34-.08-2.01.01-2.76-.13-5.52.24-8.27Z"/>
      <path class="cls-1" d="M320.09,240.91c0-.67.02-1.35-.07-2.01-.22-1.63-.21-3.27-.22-4.91-.04-6.71-.08-13.42-.14-20.13-.01-1.27-.14-2.53-.21-3.79-.04-.82-.1-1.64-.11-2.46-.04-2.53-.06-5.07-.1-7.6-.03-1.86-.05-3.72-.27-5.58-.14-1.18-.09-2.38-.12-3.57-.06-2.46-.04-4.91-.34-7.37-.17-1.48-.08-2.98-.15-4.47-.06-1.27-.17-2.53-.25-3.79-.06-.97-.12-1.93-.15-2.9-.06-1.86-.03-3.73-.34-5.58-.03-.14-.03-.3-.04-.45-.08-2.61-.21-5.21-.46-7.81-.17-1.78-.1-3.57-.4-5.35-.09-.51-.07-1.04-.09-1.56-.04-1.27-.06-2.54-.31-3.78-.03-.15-.04-.3-.06-.45-.19-2.6-.38-5.2-.58-7.8-.04-.59-.1-1.19-.17-1.78-.05-.45-.14-.89-.18-1.33-.2-2.15-.36-4.3-.58-6.46-.17-1.78-.4-3.55-.61-5.33-.03-.3-.08-.59-.1-.89-.05-.58.35-1.05.9-1.06.37,0,.75,0,1.11.04.89.11,1.77.26,2.66.36.77.09,1.44.38,2.02.87,1.03.86,2.1,1.67,3.06,2.61,2.14,2.08,4.29,4.15,6.29,6.35,2.06,2.26,3.97,4.64,5.79,7.11,3.77,5.1,7.2,10.43,10.33,15.95,2.95,5.19,5.59,10.54,8.12,15.94,2.84,6.08,5.4,12.28,7.72,18.58,1.44,3.92,2.89,7.84,4.21,11.79,1.78,5.3,3.24,10.7,4.45,16.16.77,3.49,1.56,6.98,2.25,10.49.86,4.39,1.6,8.8,2.2,13.23.38,2.8.81,5.6,1.15,8.41.26,2.14.41,4.3.62,6.45.06.59.13,1.19.19,1.78.06.52.15,1.03.17,1.55.06,1.64.27,3.27.38,4.9.25,3.49.43,6.99.53,10.49.11,3.95.09,7.9.12,11.73-.04,3.92-.07,7.72-.11,11.53-.01,1.56-.07,3.13-.27,4.68-.15,1.18-.12,2.38-.16,3.57-.04,1.27-.05,2.54-.29,3.79-.03.15-.05.3-.05.44-.02,2.47-.41,4.9-.58,7.35-.13,1.93-.37,3.85-.59,5.78-.24,2.07-.49,4.14-.77,6.21-.29,2.14-.61,4.28-.94,6.41-.87,5.75-1.89,11.47-3.1,17.16-1.36,6.42-2.86,12.8-4.57,19.14-2.3,8.57-5.02,17.01-7.93,25.4-2.25,6.48-4.8,12.85-7.45,19.18-2.27,5.43-4.72,10.79-7.26,16.1-1.8,3.77-3.76,7.46-5.66,11.17-.85,1.66-1.71,3.31-2.59,4.95-.31.59-.69,1.15-1.07,1.7-.22.32-.58.48-.96.5-.37.03-.75.03-1.11-.02-1.33-.21-2.68-.19-4.02-.2-5.29-.03-10.59-.06-15.88-.1-.74,0-1.48-.07-2.23-.12-.34-.03-.67-.45-.64-.8.14-1.63.28-3.27.43-4.9.08-.89.17-1.78.26-2.67.07-.74.13-1.48.21-2.23.08-.82.16-1.63.24-2.44.07-.67.13-1.34.19-2,.08-.89.17-1.78.26-2.67.07-.74.12-1.48.19-2.23.08-.89.17-1.78.25-2.67.08-.82.15-1.63.22-2.45.07-.74.14-1.48.21-2.22.09-.96.17-1.93.26-2.89.02-.22.07-.44.09-.67.19-2.52.38-5.05.57-7.58.04-.59.04-1.2.14-1.78.21-1.25.23-2.52.32-3.78.21-2.9.46-5.79.7-8.69.01-.15.05-.3.06-.44.19-2.9.38-5.8.57-8.7.07-1.12.17-2.23.26-3.34.02-.22.08-.45.08-.67,0-3.13.49-6.24.55-9.37.03-1.34.11-2.68.27-4.01.14-1.18.14-2.38.18-3.57.04-1.34.11-2.68.26-4.01.14-1.26.14-2.53.18-3.8.05-1.64.08-3.27.3-4.91.14-1.1.12-2.23.15-3.35.05-1.94.08-3.87.31-5.8.16-1.33.11-2.68.14-4.02.05-1.94.02-3.88.31-5.8.1-.66.07-1.34.09-2.01.03-1.79.06-3.58.09-5.37.01-.67-.02-1.35.08-2.01.36-2.52.27-5.06.33-7.59.05-2.31-.01-4.62.31-6.92.09-.66.06-1.34.07-2.01.04-3.58.07-7.16.13-10.74.02-1.19.14-2.38.2-3.57.05-.97.11-1.94.11-2.9.06-7.23.1-14.46.14-21.69,0-1.42.01-2.83.2-4.24.1-.74.09-1.49.09-2.23,0-8.5,0-17,0-25.5Z"/>
      <path class="cls-1" d="M384.11,529.08c-1.56,4.82-3.11,9.65-4.67,14.47-1.58,4.89-3.17,9.79-4.75,14.68-1.49,4.61-2.98,9.22-4.47,13.83-.89,2.77-1.76,5.54-2.66,8.31-.16.49-.34.99-.59,1.44-.13.23-.42.41-.68.53-.27.12-.58.13-.87.17-1.48.2-2.93.57-4.34,1.06-4.07,1.41-7.33,3.93-9.89,7.37-2.19,2.93-3.49,6.21-3.95,9.85-.23,1.79-.34,3.55-.03,5.34.13.73.14,1.48.16,2.23.02,1.12.03,2.24,0,3.36-.23,8.2-2.29,15.88-6.47,22.98-2.8,4.75-6.35,8.84-10.48,12.42-3.57,3.09-7.61,5.49-11.96,7.34-3.1,1.32-6.3,2.31-9.6,2.94-1.39.26-2.8.45-4.2.6-2.44.26-4.87.67-7.35.59-1.5-.05-2.97-.27-4.45-.45-2.96-.36-5.89-.9-8.77-1.7-4.49-1.25-8.67-3.16-12.61-5.63-2.92-1.83-5.55-4.02-8.07-6.35-.76-.7-1.4-1.54-2.09-2.32-3.95-4.45-6.99-9.46-9.06-15.05-1.12-3.01-1.86-6.12-2.35-9.3-.69-4.46-.53-8.92-.33-13.39.08-1.86.37-3.7.38-5.57,0-2.26-.34-4.46-1.07-6.59-2.03-5.97-5.96-10.23-11.69-12.84-.81-.37-1.68-.61-2.53-.88-.5-.16-1-.3-1.51-.4-.82-.16-1.31-.67-1.62-1.4-.27-.62-.55-1.23-.8-1.85-3.35-8.21-6.7-16.43-10.06-24.64-2.65-6.49-5.31-12.97-7.96-19.45-2.74-6.69-5.47-13.38-8.21-20.07-1.92-4.69-3.86-9.37-5.79-14.06-.34-.83-.63-1.67-.92-2.51-.11-.31.21-.83.53-.86.52-.06,1.03-.13,1.55-.13,2.46-.01,4.92,0,7.38,0v.07c1.79,0,3.58,0,5.37,0,1.49,0,2.98.02,4.46.21.88.11,1.79.09,2.68.09,8.2.05,16.4.1,24.6.14,1.49,0,2.98.02,4.47.21.88.11,1.79.09,2.68.1,8.42.05,16.85.1,25.27.15,1.42,0,2.83.03,4.24.21.88.11,1.79.09,2.68.1,8.27.05,16.55.1,24.82.14,1.41,0,2.83.03,4.24.2.88.11,1.79.09,2.68.1,8.5.05,17,.1,25.5.15,1.34,0,2.68.04,4.02.2.89.1,1.79.1,2.68.1,8.35.05,16.7.1,25.05.15,1.34,0,2.68.03,4.02.2.81.1,1.64.09,2.45.1,4.18.03,8.35.05,12.52.08.67,0,1.34.02,2.01.06.62.03.92.48.77,1.08-.07.29-.14.58-.24.86-.83,2.63-1.66,5.26-2.51,7.88-2.53,7.8-5.07,15.59-7.6,23.39Z"/>
      <path class="cls-1" d="M416.33,294.6c.16-9.54.16-19.09,0-28.63-.02-.97-.14-1.93-.2-2.9-.07-1.19-.14-2.38-.18-3.57-.05-1.64-.05-3.28-.32-4.91-.1-.58-.1-1.19-.12-1.78-.04-1.34-.08-2.68-.33-4.01-.04-.22-.06-.45-.07-.67-.13-3.58-.65-7.12-1.05-10.68-.52-4.66-1.21-9.31-1.95-13.94-.81-5.08-1.76-10.13-2.81-15.17-1.29-6.21-2.81-12.36-4.57-18.45-1.41-4.88-3.1-9.65-4.77-14.44-1.47-4.23-3.08-8.4-4.78-12.54-1.89-4.62-3.89-9.2-6.15-13.66-.3-.59-.55-1.22-.81-1.83-.02-.05,0-.18.04-.2.12-.06.27-.14.38-.11.21.06.42.16.61.28,6.35,3.92,12.55,8.06,18.36,12.74,2.03,1.64,4.08,3.26,6.06,4.95,1.81,1.55,3.61,3.12,5.32,4.78,3.2,3.12,6.38,6.28,9.49,9.49,1.76,1.82,3.36,3.79,5.04,5.69,2.13,2.4,4.1,4.92,6.06,7.46,3.92,5.09,7.54,10.37,10.89,15.84,3.58,5.86,6.78,11.93,9.7,18.14,2.19,4.66,4.16,9.41,5.89,14.25.53,1.48,1.09,2.94,1.59,4.42,2.64,7.85,4.74,15.85,6.31,23.99.76,3.95,1.37,7.93,1.87,11.93.27,2.14.52,4.29.75,6.44.07.67.08,1.34.11,2.01.03.52,0,1.05.07,1.56.49,3.41.35,6.84.41,10.27.02.89,0,1.79,0,2.68h.02c-.03,2.61-.05,5.22-.09,7.83-.02,1.42-.03,2.83-.28,4.23-.07.37-.1.74-.1,1.11.04,2.39-.33,4.76-.59,7.12-.38,3.4-.89,6.8-1.42,10.18-.89,5.6-2.12,11.13-3.58,16.61-1.98,7.43-4.44,14.7-7.3,21.83-2.28,5.68-4.85,11.23-7.7,16.64-2.51,4.75-5.22,9.38-8.14,13.89-2.76,4.25-5.64,8.43-8.76,12.42-1.75,2.23-3.55,4.41-5.36,6.59-4.16,4.99-8.67,9.64-13.33,14.16-1.55,1.51-3.03,3.09-4.63,4.55-3.91,3.57-7.6,7.36-11.39,11.07-.21.21-.43.41-.65.61-.45.43-.99.68-1.61.67-1.79-.02-3.58-.03-5.36-.09-1.27-.03-2.53-.17-3.79-.19-4.47-.05-8.95-.06-13.42-.09-.67,0-1.34-.02-2.01-.06-.51-.03-.74-.46-.54-.97.06-.14.11-.27.17-.41.68-1.49,1.35-2.99,2.04-4.48,3.01-6.5,5.75-13.1,8.41-19.75,3.46-8.66,6.61-17.43,9.46-26.3,2.01-6.25,3.87-12.54,5.56-18.88.88-3.31,1.74-6.63,2.57-9.96,1.1-4.41,2.06-8.86,2.99-13.31,1.48-7.08,2.73-14.2,3.85-21.34.43-2.72.75-5.46,1.11-8.19.23-1.7.46-3.4.66-5.1.24-2.07.44-4.15.65-6.22.07-.67.14-1.33.2-2,.08-.82.16-1.63.23-2.45.08-.89.16-1.78.24-2.67.03-.3.11-.59.11-.89.03-3.21.59-6.38.57-9.59,0-1.19.15-2.38.23-3.57.05-.82.12-1.64.13-2.46Z"/>
      <path class="cls-1" d="M520.01,485.85l-128.78,128.78c0-.17,0-.34,0-.51.03-2.16.04-4.33.07-6.49,0-.67-.03-1.35.06-2.01.21-1.42.14-2.82-.02-4.23-.33-3-1.13-5.85-2.71-8.44-.62-1.01-1.29-2-2.02-2.95-.61-.79-.77-1.58-.38-2.5.09-.21.13-.43.2-.64,1.54-4.75,3.07-9.51,4.61-14.26,1.4-4.33,2.79-8.66,4.19-12.99,3.26-10.07,6.51-20.15,9.77-30.22,1.29-3.97,2.6-7.94,3.88-11.91,2.04-6.31,4.06-12.64,6.09-18.95.14-.43.3-.85.46-1.26.25-.62.73-.91,1.38-.95.3-.02.6-.04.89-.04,1.35.03,2.68-.17,3.99-.46,4.16-.92,7.87-2.72,11.07-5.55,1.73-1.54,3.3-3.23,4.72-5.07.91-1.18,1.88-2.32,2.86-3.44,1.67-1.91,3.37-3.79,5.06-5.68,1.93-2.17,3.87-4.34,5.8-6.52,1.38-1.56,2.77-3.12,4.1-4.73,2.28-2.76,4.52-5.55,6.76-8.34,5.53-6.86,10.7-13.97,15.68-21.23,4.98-7.26,9.73-14.67,14.1-22.31,2.15-3.75,4.3-7.51,6.31-11.33,3.4-6.47,6.61-13.03,9.51-19.75,2.19-5.07,4.29-10.17,6.14-15.37,3.44-9.63,6.33-19.42,8.34-29.46,1.37-6.87,2.5-13.79,2.91-20.8.02-.3.03-.6.08-.89.27-1.48.29-2.97.3-4.46.01-2.24,0-4.47,0-6.71h0c0-2.24,0-4.47,0-6.71,0-.97-.02-1.94-.11-2.9-.22-2.37-.49-4.74-.73-7.12-.27-2.75-.66-5.48-1.2-8.18-1.18-5.84-2.41-11.68-3.65-17.52-1.52-7.15-3.19-14.26-5.13-21.31-.75-2.73-1.53-5.46-2.38-8.16-1.34-4.27-2.76-8.51-4.34-12.7-1.63-4.33-3.48-8.57-5.47-12.74-2.31-4.85-4.83-9.59-7.5-14.25-4.23-7.39-8.82-14.53-13.88-21.38-1.99-2.7-4.01-5.38-6.1-8.01-1.99-2.51-4.06-4.96-6.15-7.39-1.6-1.87-3.26-3.69-4.92-5.5-1.91-2.09-3.97-4.04-5.84-6.18-.93-1.06-1.99-2.01-3.02-2.99-.86-.83-1.76-1.61-2.63-2.43-1.41-1.33-2.77-2.71-4.21-4.01-1.72-1.55-3.51-3.01-5.24-4.54-2.91-2.57-5.96-4.96-9.02-7.34-3.53-2.75-7.14-5.39-10.86-7.88-3.03-2.03-6.08-4.05-9.2-5.96-3.06-1.87-6.17-3.62-9.3-5.36-5.81-3.22-11.79-6.09-17.88-8.74-3.28-1.43-6.62-2.72-9.96-4.02-7.65-2.99-15.47-5.46-23.44-7.43-7.38-1.83-14.83-3.36-22.36-4.45-5.24-.76-10.48-1.5-15.77-1.78-.22-.01-.45-.03-.67-.07-1.33-.25-2.67-.26-4.01-.3-1.12-.03-2.25,0-3.35-.14-1.71-.22-3.42-.25-5.13-.26-2.68-.01-5.37-.02-8.05,0-2.16,0-4.33-.04-6.47.3-.37.06-.74.05-1.12.06-2.23.07-4.47.03-6.69.42-.29.05-.59.05-.89.05-2.24,0-4.46.36-6.68.62-3.85.45-7.68,1.02-11.51,1.62-5.6.87-11.15,1.99-16.67,3.33-4.57,1.1-9.1,2.33-13.6,3.69-5.21,1.57-10.37,3.32-15.44,5.3-3.75,1.46-7.5,2.93-11.16,4.63-2.97,1.38-5.96,2.75-8.92,4.16-1.28.61-2.49,1.36-3.75,2-4.93,2.49-9.69,5.29-14.35,8.25-8.13,5.16-15.93,10.77-23.37,16.9-4.43,3.65-8.72,7.47-12.92,11.38-4.75,4.42-9.21,9.13-13.55,13.96-.15.17-.29.34-.43.51-1.25,1.48-2.48,2.98-3.77,4.43-1.98,2.24-3.82,4.58-5.64,6.94-2.51,3.24-4.92,6.56-7.28,9.92-2.92,4.15-5.6,8.46-8.21,12.8-2.96,4.92-5.6,10.02-8.14,15.17-2.21,4.48-4.28,9.03-6.16,13.66-2.5,6.15-4.76,12.38-6.74,18.73-2.54,8.13-4.55,16.38-6.2,24.72-1.06,5.34-1.83,10.73-2.56,16.12-.23,1.7-.41,3.4-.53,5.11-.18,2.45-.57,4.89-.56,7.36,0,.22-.03.45-.07.67-.23,1.25-.26,2.52-.26,3.79-.01,6.34-.03,12.68-.02,19.02,0,1.94.02,3.88.32,5.8.1.66.08,1.34.11,2.01.03.67.03,1.34.1,2.01.23,2.3.5,4.59.73,6.89.35,3.41.81,6.81,1.35,10.2.98,6.19,2.19,12.33,3.63,18.43,2.25,9.52,5.05,18.87,8.51,28.02,3.3,8.73,7.04,17.25,11.45,25.49,2.01,3.75,4.09,7.45,6.27,11.1,2.8,4.67,5.83,9.2,8.95,13.65,2.7,3.85,5.57,7.56,8.5,11.24,2.51,3.15,5.12,6.22,7.82,9.2,2.8,3.09,5.71,6.09,8.62,9.09,3.06,3.16,6.18,6.26,9.25,9.41,1.66,1.71,3.27,3.47,4.9,5.21.25.27.48.58.7.87.55.7,1.11,1.41,1.65,2.12,2.4,3.14,5.44,5.52,8.94,7.3,3.3,1.68,6.8,2.63,10.54,2.6,1.64-.01,3.28.01,4.92.03.52,0,1.04.03,1.56.08.47.04.86.28,1.08.7.27.53.51,1.08.74,1.63,2.9,7.03,5.79,14.06,8.68,21.1,2.69,6.55,5.37,13.11,8.05,19.67,3.22,7.87,6.43,15.74,9.64,23.61.56,1.38,1.11,2.77,1.68,4.15,2.34,5.73,4.69,11.45,7.04,17.18.17.41.33.83.45,1.26.16.53.07,1.04-.29,1.48-.28.35-.59.67-.89,1-3.57,4.09-5.54,8.79-5.46,14.28.02,1.04,0,2.09,0,3.13-.02,1.72-.03,3.43-.23,5.14-.12,1.03-.13,2.1,0,3.13.21,1.86.21,3.72.26,5.58.03,1.12.03,2.24.15,3.35.09.86.2,1.71.31,2.56l-120.6-120.6s-194.97-195.08-10.19-405.75c0,0,186.62-200.59,417.14-19.97,0,0,199.7,186.26,23.31,410.44Z"/>
    </g>
  </g>
</svg>