<?xml version="1.0" encoding="UTF-8"?>
<svg id="Layer_2" data-name="Layer 2" xmlns="http://www.w3.org/2000/svg" viewBox="0 0 727.4 516.12">
  <defs>
    <style>
      .cls-1 {
        fill: #023c70;
      }
    </style>
  </defs>
  <g id="Capa_1" data-name="Capa 1">
    <g>
      <g>
        <path class="cls-1" d="M39.68,231.6c0-75.74,106.84-139.17,250.25-155.64-1.48-5.92-2.28-12.11-2.28-18.49,0-.44.03-.87.03-1.3C123.31,73.4,0,145.39,0,231.6c0,58.63,57.05,110.68,145.26,143.41,4.58-6.24,8.02-13.36,10.04-21.07-70.67-29.31-115.62-73.23-115.62-122.34Z"/>
        <path class="cls-1" d="M439.72,56.16c0,.44.03.87.03,1.3,0,6.38-.8,12.57-2.28,18.49,143.41,16.47,250.25,79.9,250.25,155.64,0,20.03-7.51,39.19-21.16,56.86,9.56,7.76,16.54,16.06,20.91,24.89,25.51-24.52,39.92-52.3,39.92-81.75,0-86.21-123.31-158.2-287.69-175.44Z"/>
      </g>
      <circle class="cls-1" cx="363.7" cy="61.83" r="61.83"/>
      <path class="cls-1" d="M521.36,424.66l1.78-.33v-.03s3.07-.61,3.07-.61c127.17-25.16,153.86-61.17,153.86-86.95v-.4c-.05-4.75-.98-9.29-2.67-13.63-63.27,52.86-179.93,88.33-313.41,88.33-2.32,0-4.61-.04-6.92-.07-73.66-.68-141.96-12.13-198.67-31.34-11.64,17.66-30.47,30.16-52.32,33.35-4.34.63-7.13,5-5.96,9.23,10.34,37.17,27.3,68.89,48.59,91.61,1.57,1.67,3.86,2.5,6.13,2.24,27.45-3.06,53.69-9.7,77.23-19.69,30.59-12.98,55.31-30.95,71.93-52.22,14.64-.13,29.12-.49,43.46-1.03,31.32-1.18,61.86-3.32,91.21-6.43,3.14-.33,6.25-.68,9.34-1.03,18.92-2.16,37.19-4.73,54.55-7.66l18.78-3.35Z"/>
      <path class="cls-1" d="M502.61,245.49c-17.36-2.93-35.65-5.5-54.57-7.66-3.09-.35-6.21-.7-9.35-1.03-29.64-3.15-60.49-5.29-92.13-6.47-14.68-.54-29.51-.9-44.51-1.01-16.94-20.64-41.62-38.03-71.81-50.55-23.05-9.56-48.66-15.94-75.4-18.92-2.28-.25-4.57.57-6.13,2.24-21.29,22.73-38.26,54.45-48.59,91.62-1.18,4.25,1.65,8.59,6.02,9.23,36.62,5.37,64.74,36.91,64.74,75.02,0,7.27-1.03,14.29-2.94,20.94,53.7,20.16,120.53,32.23,193.06,32.56,1,0,2,.02,3,.02,130.53,0,243.02-38.07,294.35-92.92-29.46-23.82-83.96-39.22-132.12-48.75l-3.06-.61v-.03s-1.79-.33-1.79-.33l-18.78-3.35ZM342.4,341.87c-14.28,1.8-26.28-10.21-24.48-24.48,1.23-9.73,9.08-17.58,18.81-18.81,14.28-1.8,26.28,10.21,24.48,24.48-1.23,9.73-9.08,17.58-18.81,18.81ZM410.15,341.87c-14.28,1.8-26.28-10.21-24.48-24.49,1.23-9.73,9.08-17.58,18.81-18.8,14.27-1.8,26.27,10.21,24.48,24.48-1.23,9.73-9.08,17.58-18.81,18.81ZM477.89,341.87c-14.28,1.8-26.28-10.21-24.48-24.48,1.23-9.73,9.08-17.58,18.81-18.8,14.27-1.8,26.28,10.21,24.48,24.48-1.23,9.73-9.08,17.58-18.81,18.81Z"/>
    </g>
  </g>
</svg>