<?xml version="1.0" encoding="UTF-8"?>
<svg id="Layer_2" data-name="Layer 2" xmlns="http://www.w3.org/2000/svg" viewBox="0 0 547.8 555.65">
  <defs>
    <style>
      .cls-1 {
        fill: #fff;
      }
    </style>
  </defs>
  <g id="Capa_1" data-name="Capa 1">
    <g>
      <g>
        <path class="cls-1" d="M441.23,382.61h.51c-.03-3.6-.26-7.03-.67-10.32l.03,15.49c.08-1.69.13-3.41.13-5.17Z"/>
        <path class="cls-1" d="M106.05,382.61h.51c0,1.76.05,3.48.13,5.17l.03-15.49c-.41,3.29-.64,6.72-.67,10.32Z"/>
      </g>
      <path class="cls-1" d="M542.48,106.06c-.94-4.2-2.02-8.27-3.22-12.22,0,0,0,0,0,0-.48-1.59-1-3.14-1.52-4.69-.14-.41-.27-.83-.41-1.24-.48-1.39-.99-2.75-1.51-4.1-.21-.55-.41-1.1-.62-1.64-.5-1.27-1.03-2.51-1.56-3.75-.25-.6-.5-1.2-.76-1.79-.53-1.18-1.07-2.35-1.63-3.5-.3-.62-.59-1.24-.89-1.85-.55-1.12-1.13-2.21-1.71-3.3-.33-.62-.66-1.24-1-1.85-.59-1.06-1.19-2.1-1.8-3.13-.36-.62-.73-1.23-1.11-1.83-.62-1-1.25-1.99-1.9-2.97-.4-.6-.8-1.2-1.21-1.8-.65-.95-1.32-1.9-2-2.83-.43-.59-.86-1.16-1.3-1.74-.69-.91-1.39-1.82-2.1-2.7-.45-.56-.92-1.12-1.39-1.67-.73-.87-1.46-1.74-2.21-2.58-.48-.54-.98-1.07-1.47-1.6-.77-.83-1.54-1.66-2.33-2.47-.5-.51-1.02-1-1.53-1.5-.82-.8-1.63-1.6-2.47-2.38-.51-.47-1.04-.92-1.56-1.38-.87-.77-1.74-1.55-2.63-2.3-.49-.41-1-.8-1.5-1.2-.96-.77-1.91-1.55-2.89-2.29-.29-.22-.6-.42-.89-.64-2.48-1.84-5.04-3.59-7.7-5.25-.19-.12-.38-.25-.57-.37-.97-.6-1.97-1.17-2.96-1.74-.68-.4-1.35-.8-2.04-1.19-.93-.52-1.89-1.01-2.84-1.5-.79-.41-1.56-.83-2.36-1.23-.93-.46-1.88-.9-2.83-1.35-.86-.4-1.71-.81-2.58-1.2-.94-.42-1.9-.81-2.85-1.21-.91-.38-1.82-.77-2.75-1.13-.96-.38-1.93-.74-2.9-1.1-.96-.36-1.93-.71-2.9-1.05-.97-.34-1.96-.66-2.96-.99-1.01-.33-2.02-.66-3.05-.97-1-.3-2-.59-3.01-.88-1.06-.3-2.12-.59-3.2-.88-1.01-.27-2.04-.53-3.07-.78-1.11-.27-2.23-.53-3.35-.79-1.03-.23-2.06-.46-3.11-.68-1.16-.24-2.34-.47-3.52-.69-1.04-.2-2.09-.39-3.15-.58-1.22-.21-2.45-.41-3.69-.6-1.05-.16-2.11-.33-3.17-.48-1.29-.18-2.6-.34-3.9-.5-1.05-.13-2.1-.26-3.16-.38-1.37-.15-2.77-.28-4.16-.4-1.03-.09-2.06-.2-3.1-.28-1.49-.12-3.01-.21-4.52-.31-.98-.06-1.95-.13-2.94-.19-1.72-.09-3.46-.15-5.21-.21-.82-.03-1.63-.07-2.45-.09-2.59-.07-5.21-.1-7.87-.1h-227.09c-38.16,0-69.5,6.73-94.03,20.19-.36.2-.71.41-1.08.61-4.17,2.34-8.13,4.89-11.9,7.63-1.64,1.19-3.25,2.42-4.82,3.69-2.15,1.74-4.26,3.53-6.27,5.42C24.08,54.58,11.76,77.42,5.32,106.06h0C1.92,121.19.12,137.91,0,156.29v109.09c4.51-11.13,10.25-21.09,17.24-29.81,19.8-24.71,49.49-39.8,88.23-44.84.53-.07,1.07-.12,1.6-.18v-.26c0-56.15,23.85-84.24,71.55-84.24h190.56c47.7,0,71.55,40.73,71.55,96.88l.03,12.56.32,156.8c.41,3.29.64,6.72.67,10.32h-.51c0,1.76-.05,3.48-.13,5.17l.13,61.3H177.61c-45.48,0-69.11-20.44-70.92-61.3l.03-15.49c.15-1.19.32-2.36.52-3.51,0-.04.02-.08.02-.12.2-1.12.42-2.22.66-3.31,6.74-30.1,31.81-45.16,75.26-45.16h120.89l-28.8,28.8c-12.32,12.32-12.32,32.3,0,44.62,12.32,12.32,32.3,12.32,44.62,0l97.2-97.2c12.32-12.32,12.32-32.3,0-44.62-.75-.75-1.52-1.44-2.32-2.1-.65-.8-1.35-1.57-2.1-2.32l-33.36-33.36v-.39h-.39l-63.46-63.46c-12.32-12.32-32.3-12.32-44.62,0-12.32,12.32-12.32,32.3,0,44.62l18.83,18.83h-153.7c-8.09.03-15.79.45-23.15,1.2C46.87,226.59,6.25,275.46,0,352.39v70.31c0,88.64,49.05,132.95,147.16,132.95h400.64V168.94c-.12-18.38-1.92-47.75-5.32-62.88Z"/>
    </g>
  </g>
</svg>