<?xml version="1.0" encoding="UTF-8"?>
<svg xmlns="http://www.w3.org/2000/svg" viewBox="0 0 920.19 286.66">
  <defs>
    <style>
      .cls-1 {
        fill: none;
      }

      .cls-2 {
        fill: #e6e6e6;
      }

      .cls-2, .cls-3 {
        mix-blend-mode: luminosity;
      }

      .cls-4 {
        isolation: isolate;
      }

      .cls-5 {
        font-family: Poppins-Bold, Poppins;
        font-size: 74.49px;
        font-weight: 700;
      }

      .cls-5, .cls-6 {
        fill: #fff;
      }

      .cls-7 {
        fill: #f83902;
      }

      .cls-3 {
        fill: #b3b3b3;
      }
    </style>
  </defs>
  <g class="cls-4">
    <g id="Layer_2" data-name="Layer 2">
      <g id="Capa_1" data-name="Capa 1">
        <g>
          <g>
            <text class="cls-5" transform="translate(502.39 241.52)"><tspan x="0" y="0">by</tspan></text>
            <g>
              <g>
                <path class="cls-6" d="M656.86,223.48h-29.93c.21,2.68,1.07,4.73,2.59,6.15,1.52,1.42,3.39,2.13,5.61,2.13,3.3,0,5.59-1.39,6.88-4.18h14.08c-.72,2.84-2.02,5.39-3.91,7.66-1.88,2.27-4.24,4.05-7.08,5.34-2.84,1.29-6.01,1.93-9.51,1.93-4.23,0-7.99-.9-11.29-2.71-3.3-1.8-5.88-4.38-7.73-7.74-1.86-3.35-2.78-7.27-2.78-11.76s.91-8.4,2.75-11.76c1.83-3.35,4.4-5.93,7.7-7.73,3.3-1.8,7.09-2.71,11.37-2.71s7.89.88,11.14,2.63c3.25,1.75,5.79,4.25,7.62,7.5,1.83,3.25,2.75,7.04,2.75,11.37,0,1.24-.08,2.53-.23,3.87ZM643.56,216.13c0-2.27-.77-4.07-2.32-5.41-1.55-1.34-3.48-2.01-5.8-2.01s-4.09.65-5.61,1.93c-1.52,1.29-2.46,3.12-2.82,5.49h16.55Z"/>
                <path class="cls-6" d="M685.71,209.71h-7.12v32.18h-13.23v-32.18h-4.8v-10.98h4.8v-1.24c0-5.31,1.52-9.35,4.56-12.1,3.04-2.76,7.5-4.14,13.38-4.14.98,0,1.7.03,2.17.08v11.22c-2.53-.15-4.31.21-5.34,1.08-1.03.88-1.55,2.45-1.55,4.72v.39h7.12v10.98Z"/>
              </g>
              <path class="cls-6" d="M808.95,203.17c3.02,3.28,4.52,7.77,4.52,13.5v25.22h-13.15v-23.44c0-2.89-.75-5.13-2.24-6.73-1.5-1.6-3.51-2.4-6.03-2.4s-4.54.8-6.03,2.4c-1.5,1.6-2.24,3.84-2.24,6.73v23.44h-13.23v-43.16h13.23v5.72c1.34-1.91,3.14-3.42,5.41-4.52,2.27-1.11,4.82-1.66,7.66-1.66,5.05,0,9.09,1.64,12.1,4.91Z"/>
              <path class="cls-6" d="M822.8,208.55c1.83-3.35,4.38-5.93,7.66-7.73,3.27-1.8,7.03-2.71,11.25-2.71,5.41,0,9.94,1.42,13.57,4.25,3.64,2.84,6.02,6.83,7.15,11.99h-14.08c-1.19-3.3-3.48-4.95-6.88-4.95-2.42,0-4.36.94-5.8,2.82-1.44,1.88-2.17,4.58-2.17,8.08s.72,6.2,2.17,8.08c1.44,1.88,3.38,2.82,5.8,2.82,3.4,0,5.7-1.65,6.88-4.95h14.08c-1.14,5.05-3.53,9.02-7.19,11.91-3.66,2.89-8.17,4.33-13.54,4.33-4.23,0-7.98-.9-11.25-2.71-3.28-1.8-5.83-4.38-7.66-7.73-1.83-3.35-2.75-7.27-2.75-11.76s.92-8.4,2.75-11.76Z"/>
              <path class="cls-6" d="M909.93,223.48h-29.93c.21,2.68,1.07,4.73,2.59,6.15,1.52,1.42,3.39,2.13,5.61,2.13,3.3,0,5.59-1.39,6.88-4.18h14.08c-.72,2.84-2.02,5.39-3.91,7.66-1.88,2.27-4.24,4.05-7.08,5.34-2.84,1.29-6.01,1.93-9.51,1.93-4.23,0-7.99-.9-11.29-2.71-3.3-1.8-5.88-4.38-7.73-7.73-1.86-3.35-2.78-7.27-2.78-11.76s.92-8.4,2.75-11.76c1.83-3.35,4.4-5.93,7.7-7.73,3.3-1.8,7.09-2.71,11.37-2.71s7.89.88,11.14,2.63c3.25,1.75,5.79,4.25,7.62,7.5,1.83,3.25,2.75,7.04,2.75,11.37,0,1.24-.08,2.53-.23,3.87ZM896.63,216.13c0-2.27-.77-4.07-2.32-5.41-1.55-1.34-3.48-2.01-5.8-2.01s-4.09.65-5.61,1.93c-1.52,1.29-2.46,3.12-2.82,5.49h16.55Z"/>
              <g>
                <path class="cls-1" d="M712.61,208.86c-1.96-.48-3.96-.21-6,.83-1.95.99-3.3,2.4-4.06,4.21-.76,1.82-.76,3.85-.02,6.09l14.54-7.42c-1.02-1.99-2.51-3.23-4.47-3.72Z"/>
                <path class="cls-6" d="M723.19,231.08c-1.02-1.78-1.77-3.71-2.25-5.81,0,0-.81,2.96-4.26,4.82-1.93,1.04-3.91,1.21-5.88.65-1.97-.56-3.65-1.98-5.03-4.24l14.57-7.44c.06-4.2,1.03-7.91,2.9-11.14.92-1.58,1.99-2.99,3.23-4.22-1.05-1.11-2.2-2.07-3.44-2.9-3.07-2.03-6.42-3.09-10.06-3.18-3.64-.08-7.3.81-10.97,2.68-3.76,1.92-6.69,4.41-8.78,7.48-2.09,3.07-3.19,6.48-3.29,10.25-.11,3.77.85,7.62,2.86,11.56,2.01,3.94,4.59,6.97,7.72,9.08,3.13,2.11,6.56,3.22,10.27,3.33,3.71.11,7.42-.79,11.14-2.69,1.93-.99,3.64-2.14,5.11-3.45-1.5-1.36-2.77-2.96-3.83-4.8ZM702.55,213.91c.76-1.81,2.11-3.22,4.06-4.21,2.04-1.04,4.04-1.32,6-.83,1.96.48,3.45,1.72,4.47,3.72l-14.54,7.42c-.75-2.25-.74-4.28.02-6.09Z"/>
                <path class="cls-2" d="M720.33,219.05l11.73-5.99c-.46-1.25-.98-2.41-1.53-3.5-1.16-2.27-2.52-4.22-4.08-5.86-1.24,1.23-2.32,2.64-3.23,4.22-1.87,3.22-2.84,6.94-2.9,11.14Z"/>
                <path class="cls-2" d="M733.6,219.48s0-.09,0-.13c0-.27,0-.53.02-.79l-.11.06-12.57,6.65c.47,2.1,1.22,4.04,2.25,5.81,1.06,1.83,2.33,3.43,3.83,4.8.87-.78,1.67-1.62,2.38-2.51,1.91-2.4,3.19-5.02,3.83-7.86.31-1.37.46-2.73.48-4.1-.06-.61-.1-1.25-.1-1.92Z"/>
                <path class="cls-3" d="M761.68,207.92c-1.93-3.33-4.58-5.89-7.94-7.67-3.36-1.78-7.12-2.67-11.29-2.67s-7.94.89-11.29,2.67c-1.76.94-3.33,2.09-4.7,3.45,1.56,1.64,2.92,3.59,4.08,5.86.56,1.09,1.07,2.26,1.53,3.5l-11.73,5.99c0,.14,0,.28,0,.42,0,.21,0,.41,0,.62.03,1.58.19,3.09.47,4.53.04.22.09.43.14.64l12.57-6.65.11-.06c.13-2.82.87-5.04,2.22-6.66.09-.11.18-.21.28-.32,1.68-1.81,3.79-2.71,6.33-2.71s4.59.92,6.3,2.75c1.7,1.83,2.56,4.45,2.56,7.86s-.88,6.03-2.63,7.86c-1.76,1.83-3.88,2.75-6.37,2.75s-4.57-.92-6.22-2.75c-1.33-1.47-2.12-3.45-2.38-5.94-.01,1.36-.17,2.73-.48,4.1-.64,2.84-1.91,5.46-3.83,7.86-.71.9-1.51,1.73-2.38,2.51,1.2,1.1,2.54,2.04,4.03,2.83,3.33,1.78,7.08,2.67,11.26,2.67s7.95-.89,11.33-2.67c3.38-1.78,6.05-4.34,8.01-7.67,1.96-3.33,2.94-7.18,2.94-11.56s-.97-8.23-2.9-11.56Z"/>
              </g>
            </g>
          </g>
          <path class="cls-6" d="M730.3,151.88v1.31c0,9.18-7.44,16.62-16.62,16.62h-102.14c-34.28-.22-51.47-17.85-51.58-52.89V50.43c.22-33.51,17.36-50.32,51.42-50.43h102.3c9.18,0,16.62,7.44,16.62,16.62h0c0,9.18-7.44,16.62-16.62,16.62h-96.73c-14.96,0-22.49,8.19-22.6,24.56v51.26c0,17.36,9.93,26.09,29.8,26.2h89.53c9.18,0,16.62,7.44,16.62,16.62Z"/>
          <path class="cls-1" d="M369.7,64.79c0,28.23-14.22,42.39-42.66,42.5h-59.7c-9.19,0-16.63-7.45-16.63-16.63v-.16c0-9.19,7.45-16.63,16.63-16.63h44.89c16.02,0,24.09-6.53,24.2-19.58h-.16c0-13.9-7.43-20.85-22.29-20.85h-79.72c-9.2,0-16.65,7.47-16.63,16.67l.12,60.55c0,17.61,7.48,26.42,22.44,26.42h99.17c.81,0,1.6.06,2.37.17v-.17h30.9c-.35-2.66-.54-5.46-.54-8.44v-23.08c0-28.23,14.22-42.39,42.66-42.5h76.33v33.43h-61.53c-16.02,0-24.09,6.53-24.2,19.58h.16c0,13.9,7.43,20.85,22.29,20.85h82.7l-.16-77.22c0-17.61-7.48-26.42-22.44-26.42h-118.75c.35,2.66.54,5.46.54,8.44v23.08Z"/>
          <path class="cls-6" d="M418.26,170.34c-27.48,0-42.67-11.1-45.61-33.27h-30.9v.17c-.78-.11-1.57-.17-2.37-.17h-99.17c-14.96,0-22.44-8.81-22.44-26.42l-.12-60.55c-.02-9.2,7.43-16.67,16.63-16.67h79.72c14.86,0,22.29,6.95,22.29,20.85h.16c-.11,13.05-8.17,19.58-24.2,19.58h-44.89c-9.19,0-16.63,7.45-16.63,16.63v.16c0,9.19,7.45,16.63,16.63,16.63h59.7c28.44-.11,42.66-14.27,42.66-42.5v-23.08c0-2.97-.19-5.78-.54-8.44C366.22,11.1,351.02,0,323.54,0h-122.73C191.62,0,184.17,7.45,184.17,16.63v104.67c.21,32.68,16.98,49.03,50.3,49.03h104.9c.81,0,1.6-.06,2.37-.17v.17h76.51Z"/>
          <path class="cls-7" d="M493.65,0h-185.99s15.88,0,15.88,0C351.02,0,366.22,11.1,369.16,33.27h118.75c14.96,0,22.44,8.81,22.44,26.42l.16,77.22h-82.7c-14.86,0-22.29-6.95-22.29-20.85h-.16c.11-13.05,8.17-19.58,24.2-19.58h37.92l-9.03,9.03c-3.87,3.87-3.87,10.13,0,14h0c3.87,3.87,10.13,3.87,14,0l30.49-30.49c3.87-3.87,3.87-10.13,0-14h0c-.23-.23-.48-.45-.73-.66-.21-.25-.42-.49-.66-.73l-10.46-10.46v-.12h-.12l-19.91-19.91c-3.87-3.87-10.13-3.87-14,0h0c-3.87,3.87-3.87,10.13,0,14l5.91,5.91h-48.21c-28.44.11-42.66,14.27-42.66,42.5v23.08c0,2.97.19,5.78.54,8.44,2.94,22.17,18.14,33.27,45.61,33.27,0,0,0,0,.01,0h125.68V49.03C543.73,16.34,526.97,0,493.65,0Z"/>
          <path class="cls-6" d="M117.72,164.13l-26.7-39.67h-25.39c-8.64,0-15.65-7-15.65-15.65h0c0-8.64,7-15.65,15.65-15.65h38.56c17.88,0,27.76-10.59,27.76-28.7s-10.35-27.76-27.76-27.76H36.47v118.69c0,8.64-7,15.65-15.65,15.65h-5.18c-8.64,0-15.65-7-15.65-15.65V15.65C0,7,7,0,15.65,0h88.54c40,0,63.76,24.7,63.76,63.52,0,28-13.18,47.52-34.59,55.99l19.2,26.76c7.43,10.35.03,24.77-12.71,24.77h-9.15c-5.21,0-10.07-2.59-12.98-6.91Z"/>
          <rect class="cls-6" x="678.2" y="67.98" width="170.35" height="34.39" rx="16.57" ry="16.57" transform="translate(848.55 -678.2) rotate(90)"/>
          <rect class="cls-6" x="817.82" y="67.98" width="170.35" height="34.39" rx="16.57" ry="16.57" transform="translate(988.18 -817.82) rotate(90)"/>
          <rect class="cls-6" x="803.8" y="67.98" width="116.4" height="34.39" rx="16.57" ry="16.57" transform="translate(1723.99 170.35) rotate(-180)"/>
        </g>
      </g>
    </g>
  </g>
</svg>