<?xml version="1.0" encoding="UTF-8"?>
<svg id="Layer_2" data-name="Layer 2" xmlns="http://www.w3.org/2000/svg" viewBox="0 0 853.79 351.22">
  <defs>
    <style>
      .cls-1 {
        fill: none;
      }

      .cls-2, .cls-3 {
        fill: #022a4e;
      }

      .cls-4 {
        fill: #091951;
      }

      .cls-5 {
        fill: #0375db;
      }

      .cls-3 {
        font-family: Poppins-Bold, Poppins;
        font-size: 99.6px;
        font-weight: 700;
      }

      .cls-6 {
        fill: #082e8e;
      }
    </style>
  </defs>
  <g id="Capa_1" data-name="Capa 1">
    <g>
      <g>
        <path class="cls-6" d="M368.01,0l-66.68,198.36h-80.41L154.25,0h66.12l40.9,136.44L301.89,0h66.12Z"/>
        <path class="cls-5" d="M213.77,0l-66.68,198.36h-80.41L0,0h66.12l40.9,136.44L147.65,0h66.12Z"/>
        <g>
          <polygon class="cls-1" points="588.51 136.44 547.61 0 481.49 0 548.17 198.36 628.58 198.36 695.26 0 629.14 0 588.51 136.44"/>
          <g>
            <polygon class="cls-2" points="547.61 0 481.49 0 548.17 198.36 628.58 198.36 695.26 0 629.14 0 588.51 136.44 547.61 0"/>
            <polygon class="cls-2" points="853.01 49.59 853.01 0 710.37 0 708.76 4.8 643.69 198.36 853.01 198.36 853.01 148.77 727.93 148.77 727.93 120.75 853.01 120.75 853.01 73.96 727.93 73.96 727.93 49.59 853.01 49.59"/>
          </g>
        </g>
        <path class="cls-2" d="M457.68,168.38h-66.12l-9.81,29.98h-65.28L383.14,0h83.23l66.68,198.36h-65.56l-9.81-29.98ZM442.55,121.59l-17.93-55.19-17.93,55.19h35.86Z"/>
      </g>
      <text class="cls-3" transform="translate(308.53 290.86)"><tspan x="0" y="0">by</tspan></text>
      <g>
        <g>
          <path class="cls-4" d="M515.08,266.74h-40.03c.27,3.59,1.43,6.33,3.46,8.22,2.03,1.9,4.53,2.84,7.5,2.84,4.41,0,7.48-1.86,9.2-5.59h18.82c-.97,3.79-2.71,7.21-5.22,10.24-2.52,3.03-5.67,5.41-9.46,7.14-3.79,1.72-8.03,2.59-12.72,2.59-5.65,0-10.69-1.21-15.1-3.62-4.41-2.41-7.86-5.86-10.34-10.34-2.48-4.48-3.72-9.72-3.72-15.72s1.22-11.24,3.67-15.72c2.45-4.48,5.88-7.93,10.29-10.34,4.41-2.41,9.48-3.62,15.2-3.62s10.55,1.17,14.89,3.52c4.34,2.34,7.74,5.69,10.19,10.03,2.45,4.34,3.67,9.41,3.67,15.2,0,1.65-.1,3.38-.31,5.17ZM497.29,256.92c0-3.03-1.03-5.45-3.1-7.24-2.07-1.79-4.65-2.69-7.76-2.69s-5.47.86-7.5,2.59c-2.03,1.72-3.29,4.17-3.78,7.34h22.13Z"/>
          <path class="cls-4" d="M553.66,248.33h-9.52v43.03h-17.69v-43.03h-6.41v-14.69h6.41v-1.65c0-7.1,2.03-12.5,6.1-16.19,4.07-3.69,10.03-5.53,17.89-5.53,1.31,0,2.28.04,2.9.1v15c-3.38-.21-5.76.28-7.14,1.45-1.38,1.17-2.07,3.28-2.07,6.31v.52h9.52v14.69Z"/>
        </g>
        <path class="cls-4" d="M718.46,239.59c4.03,4.38,6.05,10.39,6.05,18.05v33.72h-17.58v-31.34c0-3.86-1-6.86-3-9-2-2.14-4.69-3.21-8.07-3.21s-6.07,1.07-8.07,3.21c-2,2.14-3,5.14-3,9v31.34h-17.69v-57.71h17.69v7.65c1.79-2.55,4.2-4.57,7.24-6.05,3.03-1.48,6.45-2.22,10.24-2.22,6.76,0,12.15,2.19,16.19,6.57Z"/>
        <path class="cls-4" d="M736.97,246.78c2.45-4.48,5.86-7.93,10.24-10.34,4.38-2.41,9.39-3.62,15.05-3.62,7.24,0,13.29,1.9,18.15,5.69,4.86,3.79,8.05,9.14,9.57,16.03h-18.82c-1.59-4.41-4.65-6.62-9.21-6.62-3.24,0-5.83,1.26-7.76,3.78-1.93,2.52-2.9,6.12-2.9,10.81s.96,8.29,2.9,10.81c1.93,2.52,4.52,3.77,7.76,3.77,4.55,0,7.62-2.21,9.21-6.62h18.82c-1.52,6.76-4.72,12.07-9.62,15.93-4.9,3.86-10.93,5.79-18.1,5.79-5.65,0-10.67-1.21-15.05-3.62-4.38-2.41-7.79-5.86-10.24-10.34-2.45-4.48-3.67-9.72-3.67-15.72s1.22-11.24,3.67-15.72Z"/>
        <path class="cls-4" d="M853.48,266.74h-40.03c.27,3.59,1.43,6.33,3.46,8.22,2.03,1.9,4.53,2.84,7.5,2.84,4.41,0,7.48-1.86,9.21-5.58h18.82c-.97,3.79-2.71,7.21-5.22,10.24-2.52,3.03-5.67,5.41-9.46,7.14-3.79,1.72-8.03,2.59-12.72,2.59-5.65,0-10.69-1.21-15.1-3.62-4.41-2.41-7.86-5.86-10.34-10.34-2.48-4.48-3.72-9.72-3.72-15.72s1.22-11.24,3.67-15.72c2.45-4.48,5.88-7.93,10.29-10.34,4.41-2.41,9.48-3.62,15.2-3.62s10.55,1.17,14.89,3.52c4.34,2.34,7.74,5.69,10.19,10.03,2.45,4.34,3.67,9.41,3.67,15.2,0,1.65-.1,3.38-.31,5.17ZM835.69,256.92c0-3.03-1.03-5.45-3.1-7.24-2.07-1.79-4.65-2.69-7.76-2.69s-5.47.86-7.5,2.59c-2.03,1.72-3.29,4.17-3.77,7.34h22.13Z"/>
        <g>
          <path class="cls-1" d="M589.63,247.19c-2.62-.65-5.3-.28-8.02,1.12-2.61,1.33-4.42,3.21-5.43,5.64-1.01,2.43-1.02,5.14-.02,8.15l19.45-9.93c-1.36-2.67-3.35-4.32-5.97-4.97Z"/>
          <path class="cls-5" d="M603.77,276.9c-1.37-2.37-2.37-4.97-3-7.77,0,0-1.08,3.96-5.7,6.45-2.58,1.39-5.23,1.62-7.86.86-2.64-.75-4.88-2.64-6.73-5.67l19.48-9.94c.08-5.62,1.37-10.58,3.87-14.89,1.23-2.11,2.67-3.99,4.32-5.64-1.41-1.48-2.94-2.77-4.6-3.87-4.1-2.72-8.58-4.13-13.45-4.25-4.87-.11-9.76,1.08-14.66,3.59-5.03,2.57-8.94,5.9-11.74,10-2.8,4.1-4.26,8.67-4.4,13.7-.14,5.04,1.13,10.19,3.82,15.46,2.69,5.27,6.13,9.32,10.32,12.14,4.19,2.83,8.77,4.31,13.73,4.45,4.96.14,9.92-1.06,14.89-3.59,2.59-1.32,4.86-2.86,6.83-4.62-2-1.82-3.71-3.96-5.12-6.41ZM576.18,253.94c1.01-2.43,2.82-4.31,5.43-5.64,2.73-1.39,5.4-1.76,8.02-1.12,2.62.65,4.61,2.3,5.97,4.97l-19.45,9.93c-1-3-.99-5.72.02-8.15Z"/>
          <path class="cls-6" d="M599.95,260.83l15.69-8.01c-.62-1.67-1.3-3.23-2.05-4.68-1.55-3.04-3.37-5.65-5.45-7.84-1.66,1.65-3.1,3.53-4.32,5.64-2.5,4.31-3.79,9.28-3.87,14.89Z"/>
          <path class="cls-6" d="M617.7,261.39c0-.06,0-.12,0-.17,0-.36.01-.71.03-1.06l-.15.08-16.81,8.89c.63,2.81,1.63,5.4,3,7.77,1.41,2.45,3.12,4.59,5.12,6.41,1.17-1.04,2.23-2.16,3.19-3.36,2.56-3.21,4.26-6.72,5.11-10.52.41-1.83.62-3.65.64-5.48-.09-.82-.13-1.67-.13-2.57Z"/>
          <path class="cls-4" d="M655.25,245.93c-2.59-4.45-6.12-7.87-10.61-10.25-4.49-2.38-9.52-3.57-15.1-3.57s-10.61,1.19-15.1,3.57c-2.36,1.25-4.46,2.79-6.29,4.61,2.08,2.19,3.9,4.81,5.45,7.84.74,1.45,1.42,3.02,2.05,4.68l-15.69,8.01c0,.19,0,.38,0,.57,0,.28,0,.55,0,.83.04,2.12.25,4.13.63,6.05.06.29.12.57.18.86l16.81-8.89.15-.08c.17-3.77,1.16-6.74,2.97-8.91.12-.14.24-.28.37-.42,2.24-2.41,5.07-3.62,8.47-3.62s6.14,1.22,8.42,3.67c2.28,2.45,3.42,5.95,3.42,10.51s-1.17,8.06-3.52,10.51c-2.35,2.45-5.19,3.67-8.52,3.67s-6.11-1.22-8.32-3.67c-1.78-1.97-2.84-4.61-3.19-7.94-.01,1.82-.23,3.65-.64,5.48-.85,3.8-2.56,7.3-5.11,10.52-.95,1.2-2.02,2.32-3.19,3.36,1.61,1.47,3.4,2.73,5.39,3.79,4.45,2.38,9.47,3.57,15.05,3.57s10.63-1.19,15.15-3.57c4.52-2.38,8.09-5.8,10.71-10.25,2.62-4.45,3.93-9.61,3.93-15.46s-1.29-11-3.88-15.46Z"/>
        </g>
      </g>
    </g>
  </g>
</svg>