<?xml version="1.0" encoding="UTF-8"?>
<svg xmlns="http://www.w3.org/2000/svg" viewBox="0 0 808.85 332.74">
  <defs>
    <style>
      .cls-1 {
        fill: none;
      }

      .cls-2 {
        font-family: Poppins-Bold, Poppins;
        font-size: 94.36px;
        font-weight: 700;
      }

      .cls-2, .cls-3 {
        fill: #fff;
      }

      .cls-4 {
        fill: #e6e6e6;
      }

      .cls-5 {
        fill: #0375db;
      }

      .cls-6 {
        isolation: isolate;
      }

      .cls-7 {
        fill: #082e8e;
      }

      .cls-8 {
        fill: #b3b3b3;
      }

      .cls-9 {
        mix-blend-mode: luminosity;
      }
    </style>
  </defs>
  <g class="cls-6">
    <g id="Layer_2" data-name="Layer 2">
      <g id="Capa_1" data-name="Capa 1">
        <g>
          <g>
            <path class="cls-7" d="M348.64,0l-63.17,187.92h-76.18L146.13,0h62.64l38.75,129.26L286,0h62.64Z"/>
            <path class="cls-5" d="M202.51,0l-63.17,187.92H63.17L0,0h62.64l38.75,129.26L139.88,0h62.64Z"/>
            <g>
              <polygon class="cls-1" points="557.54 129.26 518.79 0 456.15 0 519.32 187.92 595.49 187.92 658.66 0 596.02 0 557.54 129.26"/>
              <g>
                <polygon class="cls-3" points="518.79 0 456.15 0 519.32 187.92 595.49 187.92 658.66 0 596.02 0 557.54 129.26 518.79 0"/>
                <polygon class="cls-3" points="808.12 46.98 808.12 0 672.98 0 671.45 4.55 609.81 187.92 808.12 187.92 808.12 140.94 689.62 140.94 689.62 114.39 808.12 114.39 808.12 70.07 689.62 70.07 689.62 46.98 808.12 46.98"/>
              </g>
            </g>
            <path class="cls-3" d="M433.59,159.52h-62.64l-9.29,28.4h-61.84L362.97,0h78.85l63.17,187.92h-62.11l-9.29-28.4ZM419.26,115.19l-16.99-52.28-16.99,52.28h33.97Z"/>
          </g>
          <text class="cls-2" transform="translate(292.29 275.55)"><tspan x="0" y="0">by</tspan></text>
          <g class="cls-9">
            <g>
              <g>
                <path class="cls-3" d="M487.97,252.7h-37.92c.26,3.4,1.35,5.99,3.28,7.79,1.93,1.8,4.29,2.69,7.1,2.69,4.18,0,7.09-1.76,8.72-5.29h17.83c-.92,3.59-2.56,6.83-4.95,9.7-2.39,2.88-5.37,5.13-8.97,6.76-3.59,1.63-7.61,2.45-12.05,2.45-5.36,0-10.13-1.14-14.31-3.43-4.18-2.29-7.45-5.55-9.8-9.8-2.35-4.25-3.53-9.21-3.53-14.89s1.16-10.65,3.48-14.89c2.32-4.25,5.57-7.51,9.75-9.8,4.18-2.29,8.98-3.43,14.4-3.43s9.99,1.11,14.11,3.33c4.12,2.22,7.33,5.39,9.65,9.5,2.32,4.12,3.48,8.92,3.48,14.4,0,1.57-.1,3.2-.29,4.9ZM471.12,243.39c0-2.87-.98-5.16-2.94-6.86-1.96-1.7-4.41-2.55-7.35-2.55s-5.18.82-7.1,2.45c-1.93,1.63-3.12,3.95-3.58,6.96h20.97Z"/>
                <path class="cls-3" d="M524.52,235.26h-9.01v40.76h-16.76v-40.76h-6.08v-13.91h6.08v-1.57c0-6.73,1.93-11.84,5.78-15.33,3.85-3.49,9.5-5.24,16.95-5.24,1.24,0,2.16.03,2.74.1v14.21c-3.2-.2-5.45.26-6.76,1.37-1.31,1.11-1.96,3.1-1.96,5.98v.49h9.01v13.91Z"/>
              </g>
              <path class="cls-3" d="M680.64,226.98c3.82,4.15,5.73,9.85,5.73,17.1v31.94h-16.66v-29.69c0-3.66-.95-6.5-2.84-8.52-1.9-2.02-4.44-3.04-7.64-3.04s-5.75,1.01-7.64,3.04c-1.9,2.03-2.84,4.87-2.84,8.52v29.69h-16.76v-54.67h16.76v7.25c1.7-2.42,3.98-4.33,6.86-5.73,2.87-1.4,6.11-2.11,9.7-2.11,6.4,0,11.51,2.07,15.33,6.22Z"/>
              <path class="cls-3" d="M698.18,233.79c2.32-4.25,5.55-7.51,9.7-9.8,4.15-2.29,8.9-3.43,14.26-3.43,6.86,0,12.59,1.8,17.2,5.39,4.61,3.59,7.63,8.66,9.06,15.19h-17.83c-1.5-4.18-4.41-6.27-8.72-6.27-3.07,0-5.52,1.19-7.35,3.58-1.83,2.38-2.74,5.8-2.74,10.24s.91,7.86,2.74,10.24c1.83,2.39,4.28,3.58,7.35,3.58,4.31,0,7.22-2.09,8.72-6.27h17.83c-1.44,6.4-4.47,11.43-9.11,15.09-4.64,3.66-10.35,5.49-17.15,5.49-5.36,0-10.11-1.14-14.26-3.43-4.15-2.29-7.38-5.55-9.7-9.8-2.32-4.25-3.48-9.21-3.48-14.89s1.16-10.65,3.48-14.89Z"/>
              <path class="cls-3" d="M808.56,252.7h-37.92c.26,3.4,1.35,5.99,3.28,7.79,1.93,1.8,4.29,2.69,7.1,2.69,4.18,0,7.09-1.76,8.72-5.29h17.83c-.92,3.59-2.56,6.83-4.95,9.7-2.38,2.88-5.37,5.13-8.97,6.76-3.59,1.63-7.61,2.45-12.05,2.45-5.36,0-10.13-1.14-14.31-3.43-4.18-2.29-7.45-5.55-9.8-9.8-2.35-4.25-3.53-9.21-3.53-14.89s1.16-10.65,3.48-14.89c2.32-4.25,5.57-7.51,9.75-9.8,4.18-2.29,8.98-3.43,14.4-3.43s9.99,1.11,14.11,3.33c4.11,2.22,7.33,5.39,9.65,9.5,2.32,4.11,3.48,8.92,3.48,14.4,0,1.57-.1,3.2-.29,4.9ZM791.7,243.39c0-2.87-.98-5.16-2.94-6.86-1.96-1.7-4.41-2.55-7.35-2.55s-5.18.82-7.1,2.45c-1.93,1.63-3.12,3.95-3.58,6.96h20.97Z"/>
              <g>
                <path class="cls-1" d="M558.6,234.18c-2.48-.61-5.02-.26-7.6,1.06-2.47,1.26-4.18,3.04-5.14,5.34-.96,2.3-.97,4.87-.02,7.72l18.42-9.4c-1.29-2.53-3.17-4.09-5.66-4.71Z"/>
                <path class="cls-3" d="M571.99,262.33c-1.3-2.25-2.25-4.7-2.85-7.36,0,0-1.03,3.75-5.4,6.11-2.44,1.31-4.95,1.53-7.45.82-2.5-.71-4.63-2.5-6.38-5.37l18.45-9.42c.08-5.32,1.3-10.02,3.67-14.11,1.16-2,2.53-3.78,4.09-5.34-1.34-1.41-2.79-2.63-4.35-3.67-3.88-2.58-8.13-3.92-12.74-4.02-4.61-.1-9.24,1.03-13.89,3.4-4.76,2.43-8.47,5.59-11.12,9.47-2.65,3.88-4.04,8.21-4.17,12.98-.13,4.77,1.07,9.65,3.62,14.65,2.55,4.99,5.81,8.83,9.78,11.5,3.97,2.68,8.31,4.08,13,4.22,4.7.14,9.4-1,14.11-3.4,2.45-1.25,4.61-2.71,6.47-4.37-1.89-1.73-3.51-3.75-4.85-6.08ZM545.85,240.58c.96-2.3,2.67-4.08,5.14-5.34,2.58-1.32,5.12-1.67,7.6-1.06,2.48.61,4.37,2.18,5.66,4.71l-18.42,9.4c-.95-2.84-.94-5.42.02-7.72Z"/>
                <path class="cls-4" d="M568.37,247.1l14.87-7.59c-.59-1.58-1.24-3.06-1.94-4.44-1.47-2.88-3.19-5.35-5.16-7.43-1.57,1.56-2.93,3.34-4.09,5.34-2.37,4.08-3.59,8.79-3.67,14.11Z"/>
                <path class="cls-4" d="M585.19,247.63c0-.06,0-.11,0-.16,0-.34.01-.67.03-1l-.14.07-15.93,8.42c.6,2.66,1.55,5.11,2.85,7.36,1.34,2.32,2.96,4.35,4.85,6.08,1.11-.99,2.11-2.05,3.02-3.18,2.42-3.05,4.04-6.37,4.85-9.96.39-1.73.59-3.46.6-5.19-.08-.77-.12-1.58-.12-2.43Z"/>
                <path class="cls-8" d="M620.76,232.99c-2.45-4.22-5.8-7.46-10.05-9.71-4.25-2.25-9.02-3.38-14.31-3.38s-10.05,1.13-14.31,3.38c-2.24,1.19-4.22,2.64-5.96,4.37,1.97,2.08,3.69,4.55,5.16,7.43.7,1.38,1.35,2.86,1.94,4.44l-14.87,7.59c0,.18,0,.36,0,.54,0,.26,0,.52,0,.78.04,2,.24,3.92.6,5.73.05.27.11.54.17.81l15.93-8.42.14-.07c.16-3.57,1.1-6.39,2.81-8.44.11-.14.23-.27.35-.4,2.13-2.29,4.8-3.43,8.02-3.43s5.81,1.16,7.97,3.48c2.16,2.32,3.24,5.64,3.24,9.96s-1.11,7.64-3.33,9.96c-2.22,2.32-4.91,3.48-8.07,3.48s-5.78-1.16-7.88-3.48c-1.68-1.86-2.69-4.37-3.02-7.52-.01,1.73-.21,3.46-.6,5.19-.81,3.6-2.42,6.92-4.85,9.96-.9,1.13-1.91,2.2-3.02,3.18,1.52,1.39,3.22,2.59,5.1,3.59,4.22,2.26,8.97,3.38,14.26,3.38s10.07-1.13,14.35-3.38c4.28-2.25,7.67-5.49,10.15-9.71,2.48-4.22,3.72-9.1,3.72-14.64s-1.22-10.42-3.67-14.64Z"/>
              </g>
            </g>
          </g>
        </g>
      </g>
    </g>
  </g>
</svg>