<svg preserveAspectRatio="none" width="100%" height="100%" overflow="visible" style="display: block;" viewBox="0 0 40.34 40.34" fill="none" xmlns="http://www.w3.org/2000/svg">
<path id="Vector" fill-rule="evenodd" clip-rule="evenodd" d="M20.17 0C31.31 0 40.34 9.03 40.34 20.17C40.34 31.31 31.31 40.34 20.17 40.34C9.03004 40.34 0 31.31 0 20.17C0 9.03 9.03004 0 20.17 0ZM32.89 17.16C32.69 16.55 32.15 16.12 31.52 16.06L24.45 15.39L21.63 8.87C21.28 8.06 20.34 7.68999 19.53 8.03999C19.16 8.19999 18.86 8.5 18.7 8.87L15.88 15.39L8.80994 16.06C7.92994 16.14 7.28 16.92 7.37 17.8C7.41 18.21 7.60003 18.58 7.91003 18.85L13.24 23.54L11.6899 30.47C11.4999 31.33 12.04 32.19 12.9 32.38C13.3 32.47 13.7099 32.4 14.0599 32.2L20.17 28.58L26.28 32.2C27.04 32.65 28.02 32.4 28.47 31.64C28.68 31.29 28.74 30.87 28.65 30.47L27.1 23.54L32.4301 18.85C32.9101 18.43 33.09 17.76 32.89 17.15V17.16Z" fill="var(--fill-0, #2C98B0)"/>
</svg>
