<?xml version="1.0" encoding="UTF-8"?>
<svg xmlns="http://www.w3.org/2000/svg" viewBox="0 0 1232.25 242.53">
  <defs>
    <style>
      .cls-1 {
        fill: #848484;
      }

      .cls-2 {
        isolation: isolate;
      }

      .cls-3 {
        mix-blend-mode: normal;
      }
    </style>
  </defs>
  <g class="cls-2">
    <g id="Layer_2" data-name="Layer 2">
      <g id="Capa_1" data-name="Capa 1">
        <g>
          <g class="cls-3">
            <path class="cls-1" d="M129.4,143.32c-7.04,0-13.23-1.47-18.55-4.4-5.33-2.93-9.5-7.04-12.53-12.32-3.03-5.28-4.54-11.35-4.54-18.21s1.49-13.31,4.47-18.82c2.98-5.5,7.13-9.84,12.46-13,5.33-3.16,11.51-4.74,18.55-4.74s12.86,1.49,18.01,4.47c5.15,2.98,9.18,7.02,12.12,12.12,2.93,5.1,4.4,10.99,4.4,17.67,0,.9-.02,1.92-.07,3.05-.05,1.13-.16,2.28-.34,3.45h-55.11v-11.78h34.8c-.18-3.79-1.56-6.84-4.13-9.14-2.57-2.3-5.75-3.45-9.55-3.45-2.89,0-5.51.68-7.85,2.03-2.35,1.35-4.22,3.39-5.62,6.09-1.4,2.71-2.1,6.14-2.1,10.29v4.06c0,3.16.61,5.96,1.83,8.4s2.98,4.33,5.28,5.69c2.3,1.35,5.03,2.03,8.19,2.03,2.98,0,5.44-.61,7.38-1.83,1.94-1.22,3.45-2.78,4.54-4.67h20.72c-1.27,4.33-3.43,8.24-6.5,11.71-3.07,3.48-6.82,6.23-11.24,8.26-4.42,2.03-9.3,3.05-14.62,3.05Z"/>
            <path class="cls-1" d="M168.53,90.38v-16.93h43.33v16.93h-43.33ZM177.47,141.7v-73.12c0-5.96,1.04-10.72,3.11-14.29,2.08-3.56,4.99-6.14,8.73-7.72,3.75-1.58,8.06-2.37,12.93-2.37h8.67v17.2h-5.42c-2.8,0-4.79.54-5.96,1.62-1.17,1.08-1.76,2.93-1.76,5.55v73.12h-20.31Z"/>
            <path class="cls-1" d="M252.89,143.32c-7.04,0-13.23-1.47-18.55-4.4-5.33-2.93-9.5-7.04-12.53-12.32-3.03-5.28-4.54-11.35-4.54-18.21s1.49-13.31,4.47-18.82c2.98-5.5,7.13-9.84,12.46-13,5.33-3.16,11.51-4.74,18.55-4.74s12.86,1.49,18.01,4.47c5.15,2.98,9.18,7.02,12.12,12.12,2.93,5.1,4.4,10.99,4.4,17.67,0,.9-.02,1.92-.07,3.05-.05,1.13-.16,2.28-.34,3.45h-55.11v-11.78h34.8c-.18-3.79-1.56-6.84-4.13-9.14-2.57-2.3-5.75-3.45-9.55-3.45-2.89,0-5.51.68-7.85,2.03-2.35,1.35-4.22,3.39-5.62,6.09-1.4,2.71-2.1,6.14-2.1,10.29v4.06c0,3.16.61,5.96,1.83,8.4s2.98,4.33,5.28,5.69c2.3,1.35,5.03,2.03,8.19,2.03,2.98,0,5.44-.61,7.38-1.83,1.94-1.22,3.45-2.78,4.54-4.67h20.72c-1.27,4.33-3.43,8.24-6.5,11.71-3.07,3.48-6.82,6.23-11.24,8.26-4.42,2.03-9.3,3.05-14.62,3.05Z"/>
            <path class="cls-1" d="M330.89,143.32c-6.59,0-12.5-1.54-17.74-4.6-5.24-3.07-9.39-7.29-12.46-12.66-3.07-5.37-4.6-11.49-4.6-18.35s1.53-13.25,4.6-18.62c3.07-5.37,7.24-9.59,12.53-12.66,5.28-3.07,11.17-4.6,17.67-4.6s12.64,1.54,17.87,4.6c5.23,3.07,9.39,7.29,12.46,12.66,3.07,5.37,4.6,11.53,4.6,18.48s-1.54,13.11-4.6,18.48c-3.07,5.37-7.22,9.59-12.46,12.66-5.24,3.07-11.19,4.6-17.87,4.6ZM330.89,125.72c2.71,0,5.12-.68,7.24-2.03,2.12-1.35,3.81-3.38,5.08-6.09,1.26-2.71,1.9-6.05,1.9-10.02s-.63-7.31-1.9-10.02c-1.27-2.71-2.93-4.74-5.01-6.09-2.08-1.35-4.47-2.03-7.18-2.03s-5.12.68-7.24,2.03c-2.12,1.35-3.81,3.39-5.08,6.09-1.26,2.71-1.9,6.05-1.9,10.02s.63,7.31,1.9,10.02c1.26,2.71,2.96,4.74,5.08,6.09,2.12,1.35,4.49,2.03,7.11,2.03Z"/>
            <path class="cls-1" d="M377.33,141.7v-68.25h17.74l1.62,10.97c2.08-3.79,5.01-6.84,8.8-9.14,3.79-2.3,8.4-3.45,13.81-3.45,5.69,0,10.47,1.22,14.35,3.66,3.88,2.44,6.84,5.94,8.87,10.5,2.03,4.56,3.05,10.13,3.05,16.72v39h-20.18v-37.1c0-4.96-1.06-8.82-3.18-11.58-2.12-2.75-5.48-4.13-10.09-4.13-2.71,0-5.17.66-7.38,1.96-2.21,1.31-3.95,3.18-5.21,5.62-1.27,2.44-1.9,5.37-1.9,8.8v36.42h-20.31Z"/>
            <path class="cls-1" d="M492.16,143.32c-7.04,0-13.25-1.54-18.62-4.6-5.37-3.07-9.57-7.26-12.59-12.59-3.03-5.33-4.54-11.42-4.54-18.28s1.51-13.25,4.54-18.62c3.02-5.37,7.22-9.61,12.59-12.73,5.37-3.11,11.58-4.67,18.62-4.67,8.94,0,16.45,2.35,22.55,7.04,6.09,4.7,9.95,11.24,11.58,19.63h-21.53c-.81-2.89-2.35-5.15-4.6-6.77-2.26-1.62-4.97-2.44-8.12-2.44-2.98,0-5.58.74-7.79,2.23-2.21,1.49-3.95,3.61-5.21,6.36-1.27,2.75-1.9,5.98-1.9,9.68,0,2.8.36,5.33,1.08,7.58.72,2.26,1.74,4.2,3.05,5.82,1.31,1.62,2.86,2.87,4.67,3.72,1.8.86,3.84,1.29,6.09,1.29s4.08-.36,5.75-1.08c1.67-.72,3.11-1.76,4.33-3.11s2.1-3.02,2.64-5.01h21.53c-1.62,8.12-5.51,14.58-11.65,19.36-6.14,4.79-13.63,7.18-22.48,7.18Z"/>
            <path class="cls-1" d="M571.51,143.32c-7.04,0-13.23-1.47-18.55-4.4-5.33-2.93-9.5-7.04-12.53-12.32-3.03-5.28-4.54-11.35-4.54-18.21s1.49-13.31,4.47-18.82c2.98-5.5,7.13-9.84,12.46-13,5.33-3.16,11.51-4.74,18.55-4.74s12.86,1.49,18.01,4.47c5.15,2.98,9.18,7.02,12.12,12.12,2.93,5.1,4.4,10.99,4.4,17.67,0,.9-.02,1.92-.07,3.05-.05,1.13-.16,2.28-.34,3.45h-55.11v-11.78h34.8c-.18-3.79-1.56-6.84-4.13-9.14-2.57-2.3-5.75-3.45-9.55-3.45-2.89,0-5.51.68-7.85,2.03-2.35,1.35-4.22,3.39-5.62,6.09-1.4,2.71-2.1,6.14-2.1,10.29v4.06c0,3.16.61,5.96,1.83,8.4s2.98,4.33,5.28,5.69c2.3,1.35,5.03,2.03,8.19,2.03,2.98,0,5.44-.61,7.38-1.83,1.94-1.22,3.45-2.78,4.54-4.67h20.72c-1.27,4.33-3.43,8.24-6.5,11.71-3.07,3.48-6.82,6.23-11.24,8.26-4.42,2.03-9.3,3.05-14.62,3.05Z"/>
            <path class="cls-1" d="M616.74,171.49v-98.04h18.01l2.3,8.94c1.44-1.9,3.11-3.66,5.01-5.28,1.9-1.62,4.17-2.91,6.84-3.86,2.66-.95,5.8-1.42,9.41-1.42,6.32,0,11.89,1.58,16.72,4.74,4.83,3.16,8.69,7.43,11.58,12.8,2.89,5.37,4.33,11.49,4.33,18.35s-1.47,12.98-4.4,18.35c-2.93,5.37-6.84,9.59-11.71,12.66-4.88,3.07-10.34,4.6-16.38,4.6-4.88,0-9.07-.86-12.59-2.57-3.52-1.71-6.46-4.11-8.8-7.18v37.92h-20.31ZM653.3,125.59c3.25,0,6.16-.75,8.73-2.23,2.57-1.49,4.58-3.59,6.03-6.3,1.44-2.71,2.17-5.82,2.17-9.34s-.72-6.63-2.17-9.34c-1.45-2.71-3.45-4.85-6.03-6.43-2.57-1.58-5.48-2.37-8.73-2.37s-6.3.79-8.87,2.37c-2.57,1.58-4.58,3.72-6.03,6.43-1.44,2.71-2.17,5.78-2.17,9.21s.72,6.66,2.17,9.41c1.44,2.75,3.45,4.87,6.03,6.36,2.57,1.49,5.53,2.23,8.87,2.23Z"/>
            <path class="cls-1" d="M702.45,141.7v-68.25h18.01l1.9,12.46c1.8-2.89,3.93-5.37,6.36-7.45,2.44-2.08,5.26-3.7,8.46-4.88,3.2-1.17,6.66-1.76,10.36-1.76v21.53h-6.77c-2.71,0-5.17.29-7.38.88-2.21.59-4.11,1.56-5.69,2.91-1.58,1.35-2.8,3.18-3.66,5.48-.86,2.3-1.29,5.17-1.29,8.6v30.47h-20.31Z"/>
            <path class="cls-1" d="M787.35,143.32c-6.59,0-12.5-1.54-17.74-4.6-5.24-3.07-9.39-7.29-12.46-12.66-3.07-5.37-4.6-11.49-4.6-18.35s1.53-13.25,4.6-18.62c3.07-5.37,7.25-9.59,12.53-12.66,5.28-3.07,11.17-4.6,17.67-4.6s12.64,1.54,17.87,4.6c5.23,3.07,9.39,7.29,12.46,12.66,3.07,5.37,4.6,11.53,4.6,18.48s-1.54,13.11-4.6,18.48c-3.07,5.37-7.22,9.59-12.46,12.66-5.24,3.07-11.19,4.6-17.87,4.6ZM787.35,125.72c2.71,0,5.12-.68,7.24-2.03,2.12-1.35,3.81-3.38,5.08-6.09,1.26-2.71,1.9-6.05,1.9-10.02s-.63-7.31-1.9-10.02c-1.26-2.71-2.93-4.74-5.01-6.09-2.08-1.35-4.47-2.03-7.18-2.03s-5.12.68-7.25,2.03c-2.12,1.35-3.81,3.39-5.08,6.09-1.27,2.71-1.9,6.05-1.9,10.02s.63,7.31,1.9,10.02c1.26,2.71,2.96,4.74,5.08,6.09,2.12,1.35,4.49,2.03,7.11,2.03Z"/>
            <path class="cls-1" d="M843.27,142.38c-3.7,0-6.7-1.1-9-3.32-2.3-2.21-3.45-4.9-3.45-8.06s1.15-5.98,3.45-8.19c2.3-2.21,5.3-3.32,9-3.32s6.54,1.11,8.8,3.32c2.26,2.21,3.39,4.94,3.39,8.19s-1.13,5.85-3.39,8.06c-2.26,2.21-5.19,3.32-8.8,3.32Z"/>
            <path class="cls-1" d="M899.74,143.32c-7.04,0-13.25-1.54-18.62-4.6-5.37-3.07-9.57-7.26-12.59-12.59-3.03-5.33-4.54-11.42-4.54-18.28s1.51-13.25,4.54-18.62c3.02-5.37,7.22-9.61,12.59-12.73,5.37-3.11,11.58-4.67,18.62-4.67,8.94,0,16.45,2.35,22.55,7.04,6.09,4.7,9.95,11.24,11.58,19.63h-21.53c-.81-2.89-2.35-5.15-4.6-6.77-2.26-1.62-4.97-2.44-8.12-2.44-2.98,0-5.58.74-7.79,2.23-2.21,1.49-3.95,3.61-5.21,6.36-1.27,2.75-1.9,5.98-1.9,9.68,0,2.8.36,5.33,1.08,7.58.72,2.26,1.74,4.2,3.05,5.82,1.31,1.62,2.86,2.87,4.67,3.72,1.8.86,3.84,1.29,6.09,1.29s4.08-.36,5.75-1.08c1.67-.72,3.11-1.76,4.33-3.11s2.1-3.02,2.64-5.01h21.53c-1.62,8.12-5.51,14.58-11.65,19.36-6.14,4.79-13.63,7.18-22.48,7.18Z"/>
            <path class="cls-1" d="M978.28,143.32c-6.59,0-12.5-1.54-17.74-4.6-5.24-3.07-9.39-7.29-12.46-12.66-3.07-5.37-4.6-11.49-4.6-18.35s1.53-13.25,4.6-18.62c3.07-5.37,7.24-9.59,12.53-12.66,5.28-3.07,11.17-4.6,17.67-4.6s12.64,1.54,17.87,4.6c5.23,3.07,9.39,7.29,12.46,12.66,3.07,5.37,4.6,11.53,4.6,18.48s-1.54,13.11-4.6,18.48c-3.07,5.37-7.22,9.59-12.46,12.66-5.24,3.07-11.19,4.6-17.87,4.6ZM978.28,125.72c2.71,0,5.12-.68,7.24-2.03,2.12-1.35,3.81-3.38,5.08-6.09,1.26-2.71,1.9-6.05,1.9-10.02s-.63-7.31-1.9-10.02c-1.27-2.71-2.93-4.74-5.01-6.09-2.08-1.35-4.47-2.03-7.18-2.03s-5.12.68-7.25,2.03c-2.12,1.35-3.81,3.39-5.08,6.09-1.26,2.71-1.89,6.05-1.89,10.02s.63,7.31,1.89,10.02c1.26,2.71,2.96,4.74,5.08,6.09,2.12,1.35,4.49,2.03,7.11,2.03Z"/>
            <path class="cls-1" d="M1024.72,141.7v-68.25h17.74l1.76,8.8c2.17-3.16,5.03-5.69,8.6-7.58,3.56-1.9,7.69-2.84,12.39-2.84,3.34,0,6.36.43,9.07,1.29,2.71.86,5.1,2.12,7.18,3.79,2.08,1.67,3.79,3.77,5.15,6.3,2.62-3.52,5.96-6.3,10.02-8.33,4.06-2.03,8.48-3.05,13.27-3.05,6.14,0,11.21,1.22,15.23,3.66,4.02,2.44,7.02,5.96,9,10.56,1.98,4.6,2.98,10.2,2.98,16.79v38.86h-20.18v-37.1c0-4.96-.97-8.82-2.91-11.58-1.94-2.75-5.03-4.13-9.28-4.13-2.71,0-5.1.68-7.18,2.03-2.08,1.35-3.68,3.25-4.81,5.69-1.13,2.44-1.69,5.37-1.69,8.8v36.29h-20.18v-37.1c0-4.96-.99-8.82-2.98-11.58-1.99-2.75-5.19-4.13-9.61-4.13-2.53,0-4.81.68-6.84,2.03-2.03,1.35-3.61,3.25-4.74,5.69-1.13,2.44-1.69,5.37-1.69,8.8v36.29h-20.31Z"/>
          </g>
          <g class="cls-3">
            <path class="cls-1" d="M1169.82,12.57c27.53,0,49.86,19.9,49.86,44.45v91.25c0,24.55-22.32,44.45-49.86,44.45h-505.18l-32.44,12.8-53.51,24.44s6.53-18.04,6.53-24.44l-5.15-12.8H62.42c-27.53,0-49.86-19.9-49.86-44.45V57.02c0-24.55,22.32-44.45,49.86-44.45h1107.4M1169.82,0H62.42C28,0,0,25.58,0,57.02v91.25c0,31.44,28,57.02,62.42,57.02h509.15l.81,2.01c-.76,3.88-3.05,11.56-5.51,18.39-1.72,4.76-.42,10.09,3.3,13.51,2.37,2.18,5.42,3.33,8.52,3.33,1.77,0,3.54-.37,5.22-1.14l53.21-24.3,29.91-11.8h502.79c34.42,0,62.42-25.58,62.42-57.02V57.02c0-31.44-28-57.02-62.42-57.02h0Z"/>
          </g>
        </g>
      </g>
    </g>
  </g>
</svg>